<?xml version="1.0" encoding="UTF-8" standalone="no"?>
<!DOCTYPE svg PUBLIC "-//W3C//DTD SVG 1.1//EN"
 "http://www.w3.org/Graphics/SVG/1.1/DTD/svg11.dtd">
<!-- Generated by graphviz version 2.43.0 (0)
 -->
<!-- Title: three&#45;dimensional line Pages: 1 -->
<!--zoomable 812 -->

<svg id="main" version="1.1" xmlns="http://www.w3.org/2000/svg" xmlns:xlink="http://www.w3.org/1999/xlink" xml:space="preserve" onload="init(evt)">

<style type="text/css"><![CDATA[
.node, .edge {opacity: 0.7;}
.node.selected, .edge.selected {opacity: 1;}
.edge:hover path { stroke: red; }
.edge:hover polygon { stroke: red; fill: red; }
]]></style>

<defs>
  <circle id="rim" cx="0" cy="0" r="7"/>
  <circle id="rim2" cx="0" cy="0" r="3.5"/>
  <g id="zoomPlus">
    <use xlink:href="#rim" fill="#404040"><set attributeName="fill" to="#808080" begin="zoomplus.mouseover" end="zoomplus.mouseout"/></use>
    <path d="M-4,0h8M0,-4v8" fill="none" stroke="white" stroke-width="1.5" pointer-events="none"/>
  </g>
  <g id="zoomMin">
    <use xlink:href="#rim" fill="#404040"><set attributeName="fill" to="#808080" begin="zoomminus.mouseover" end="zoomminus.mouseout"/></use>
    <path d="M-4,0h8" fill="none" stroke="white" stroke-width="1.5" pointer-events="none"/>
  </g>
  <g id="arrowUp" transform="translate(30 24)">
    <use xlink:href="#rim"/>
    <path pointer-events="none" fill="none" stroke="white" stroke-width="1.5" d="M0,-3.0v7 M-2.5,-0.5L0,-3.0L2.5,-0.5"/>
  </g>
  <g id="arrowRight" transform="rotate(90) translate(36 -43)">
    <use xlink:href="#rim"/>
    <path pointer-events="none" fill="none" stroke="white" stroke-width="1.5" d="M0,-3.0v7 M-2.5,-0.5L0,-3.0L2.5,-0.5"/>
  </g>
  <g id="arrowDown" transform="rotate(180) translate(-30 -48)">
    <use xlink:href="#rim"/>
    <path pointer-events="none" fill="none" stroke="white" stroke-width="1.5" d="M0,-3.0v7 M-2.5,-0.5L0,-3.0L2.5,-0.5"/>
  </g>
  <g id="arrowLeft" transform="rotate(270) translate(-36 17)">
    <use xlink:href="#rim"/>
    <path pointer-events="none" fill="none" stroke="white" stroke-width="1.5" d="M0,-3.0v7 M-2.5,-0.5L0,-3.0L2.5,-0.5"/>
  </g>
  <g id="resetDef">
    <use xlink:href="#rim2" fill="#404040"><set attributeName="fill" to="#808080" begin="reset.mouseover" end="reset.mouseout"/></use>
  </g>
</defs>
<script type="application/ecmascript">
var viewWidth = 472;
var viewHeight = 812;
var sectionId = 'dynsection-0';
</script>
<script type="application/ecmascript" xlink:href="../../svg.min.js"/>
<svg id="graph" class="graph">
<g id="viewport">
<title>three&#45;dimensional line</title>
<!-- Node3 -->
<g id="Node000003" class="node">
<title>Node3</title>
<g id="a_Node000003"><a xlink:href="../../d5/d49/group__a__hpf.html" target="_top" xlink:title=" ">
<polygon fill="white" stroke="#666666" points="430.5,-804 338.5,-804 338.5,-785 430.5,-785 430.5,-804"/>
<text text-anchor="middle" x="384.5" y="-792" font-family="Helvetica,sans-Serif" font-size="10.00">High Pass Filter</text>
</a>
</g>
</g>
<!-- Node4 -->
<g id="Node000004" class="node">
<title>Node4</title>
<g id="a_Node000004"><a xlink:href="../../dd/d35/group__a__line2.html" target="_top" xlink:title=" ">
<polygon fill="white" stroke="#666666" points="444,-767 325,-767 325,-748 444,-748 444,-767"/>
<text text-anchor="middle" x="384.5" y="-755" font-family="Helvetica,sans-Serif" font-size="10.00">two&#45;dimensional line</text>
</a>
</g>
</g>
<!-- Node1 -->
<g id="Node000001" class="node">
<title>Node1</title>
<g id="a_Node000001"><a xlink:title=" ">
<polygon fill="#999999" stroke="#666666" points="262,-406 135,-406 135,-387 262,-387 262,-406"/>
<text text-anchor="middle" x="198.5" y="-394" font-family="Helvetica,sans-Serif" font-size="10.00">three&#45;dimensional line</text>
</a>
</g>
</g>
<!-- Node1&#45;&gt;Node3 -->
<g id="edge2" class="edge">
<title>Node1&#45;&gt;Node3</title>
<path fill="none" stroke="blueviolet" stroke-dasharray="5,2" d="M200.87,-406.07C206.84,-446.5 232.47,-606.91 280,-730.5 288.35,-752.22 286.46,-762.43 305,-776.5 314.58,-783.77 326.58,-788.19 338.3,-790.85"/>
<text text-anchor="middle" x="283.5" y="-753.5" font-family="Helvetica,sans-Serif" font-size="10.00">a</text>
</g>
<!-- Node1&#45;&gt;Node4 -->
<g id="edge3" class="edge">
<title>Node1&#45;&gt;Node4</title>
<path fill="none" stroke="blueviolet" stroke-dasharray="5,2" d="M201.04,-406.23C207.35,-444.59 233.07,-588.74 280,-698.5 288.39,-718.12 287.68,-727.02 305,-739.5 310.9,-743.75 317.64,-747.02 324.64,-749.52"/>
<text text-anchor="middle" x="283.5" y="-718.5" font-family="Helvetica,sans-Serif" font-size="10.00">a</text>
</g>
<!-- Node5 -->
<g id="Node000005" class="node">
<title>Node5</title>
<g id="a_Node000005"><a xlink:href="../../d0/dae/group__a__lpf.html" target="_top" xlink:title=" ">
<polygon fill="white" stroke="#666666" points="429,-730 340,-730 340,-711 429,-711 429,-730"/>
<text text-anchor="middle" x="384.5" y="-718" font-family="Helvetica,sans-Serif" font-size="10.00">Low Pass Filter</text>
</a>
</g>
</g>
<!-- Node1&#45;&gt;Node5 -->
<g id="edge4" class="edge">
<title>Node1&#45;&gt;Node5</title>
<path fill="none" stroke="blueviolet" stroke-dasharray="5,2" d="M199.5,-406.14C200.08,-448.77 208.49,-621.71 305,-701.5 314.83,-709.63 327.6,-714.38 339.96,-717.13"/>
<text text-anchor="middle" x="283.5" y="-686.5" font-family="Helvetica,sans-Serif" font-size="10.00">a</text>
</g>
<!-- Node6 -->
<g id="Node000006" class="node">
<title>Node6</title>
<g id="a_Node000006"><a xlink:href="../../dd/d81/group__a__pid.html" target="_top" xlink:title=" ">
<polygon fill="white" stroke="#666666" points="444,-692.5 325,-692.5 325,-662.5 444,-662.5 444,-692.5"/>
<text text-anchor="start" x="333" y="-680.5" font-family="Helvetica,sans-Serif" font-size="10.00">proportional integral</text>
<text text-anchor="middle" x="384.5" y="-669.5" font-family="Helvetica,sans-Serif" font-size="10.00"> derivative controller</text>
</a>
</g>
</g>
<!-- Node1&#45;&gt;Node6 -->
<g id="edge5" class="edge">
<title>Node1&#45;&gt;Node6</title>
<path fill="none" stroke="blueviolet" stroke-dasharray="5,2" d="M200.52,-406.08C205.03,-443.6 226.57,-582.03 305,-653.5 310.69,-658.68 317.47,-662.75 324.63,-665.93"/>
<text text-anchor="middle" x="283.5" y="-634.5" font-family="Helvetica,sans-Serif" font-size="10.00">a</text>
</g>
<!-- Node7 -->
<g id="Node000007" class="node">
<title>Node7</title>
<g id="a_Node000007"><a xlink:href="../../d9/da5/group__a__pid__fuzzy.html" target="_top" xlink:title=" ">
<polygon fill="white" stroke="#666666" points="439.5,-644 329.5,-644 329.5,-603 439.5,-603 439.5,-644"/>
<text text-anchor="start" x="337.5" y="-632" font-family="Helvetica,sans-Serif" font-size="10.00">fuzzy proportional</text>
<text text-anchor="start" x="337.5" y="-621" font-family="Helvetica,sans-Serif" font-size="10.00"> integral derivative</text>
<text text-anchor="middle" x="384.5" y="-610" font-family="Helvetica,sans-Serif" font-size="10.00"> controller</text>
</a>
</g>
</g>
<!-- Node1&#45;&gt;Node7 -->
<g id="edge6" class="edge">
<title>Node1&#45;&gt;Node7</title>
<path fill="none" stroke="blueviolet" stroke-dasharray="5,2" d="M202.06,-406.24C210.83,-437.83 242.7,-538.62 305,-593.5 312.12,-599.77 320.68,-604.79 329.5,-608.79"/>
<text text-anchor="middle" x="283.5" y="-574.5" font-family="Helvetica,sans-Serif" font-size="10.00">a</text>
</g>
<!-- Node8 -->
<g id="Node000008" class="node">
<title>Node8</title>
<g id="a_Node000008"><a xlink:href="../../d1/da2/group__a__pid__neuro.html" target="_top" xlink:title=" ">
<polygon fill="white" stroke="#666666" points="464,-584.5 305,-584.5 305,-554.5 464,-554.5 464,-584.5"/>
<text text-anchor="start" x="313" y="-572.5" font-family="Helvetica,sans-Serif" font-size="10.00">single neuron proportional</text>
<text text-anchor="middle" x="384.5" y="-561.5" font-family="Helvetica,sans-Serif" font-size="10.00"> integral derivative controller</text>
</a>
</g>
</g>
<!-- Node1&#45;&gt;Node8 -->
<g id="edge7" class="edge">
<title>Node1&#45;&gt;Node8</title>
<path fill="none" stroke="blueviolet" stroke-dasharray="5,2" d="M203.6,-406.18C215.31,-432.66 251.56,-506.89 305,-545.5 309.74,-548.92 314.97,-551.86 320.42,-554.39"/>
<text text-anchor="middle" x="283.5" y="-532.5" font-family="Helvetica,sans-Serif" font-size="10.00">a</text>
</g>
<!-- Node9 -->
<g id="Node000009" class="node">
<title>Node9</title>
<g id="a_Node000009"><a xlink:href="../../db/d44/group__a__plane.html" target="_top" xlink:title=" ">
<polygon fill="white" stroke="#666666" points="452.5,-536 316.5,-536 316.5,-517 452.5,-517 452.5,-536"/>
<text text-anchor="middle" x="384.5" y="-524" font-family="Helvetica,sans-Serif" font-size="10.00">three&#45;dimensional plane</text>
</a>
</g>
</g>
<!-- Node1&#45;&gt;Node9 -->
<g id="edge8" class="edge">
<title>Node1&#45;&gt;Node9</title>
<path fill="none" stroke="blueviolet" stroke-dasharray="5,2" d="M205.57,-406.09C219.94,-427.99 258.41,-481.81 305,-508.5 310.94,-511.91 317.49,-514.67 324.19,-516.91"/>
<text text-anchor="middle" x="283.5" y="-497.5" font-family="Helvetica,sans-Serif" font-size="10.00">a</text>
</g>
<!-- Node10 -->
<g id="Node000010" class="node">
<title>Node10</title>
<g id="a_Node000010"><a xlink:href="../../d2/d21/group__a__point2.html" target="_top" xlink:title=" ">
<polygon fill="white" stroke="#666666" points="447.5,-499 321.5,-499 321.5,-480 447.5,-480 447.5,-499"/>
<text text-anchor="middle" x="384.5" y="-487" font-family="Helvetica,sans-Serif" font-size="10.00">two&#45;dimensional point</text>
</a>
</g>
</g>
<!-- Node1&#45;&gt;Node10 -->
<g id="edge9" class="edge">
<title>Node1&#45;&gt;Node10</title>
<path fill="none" stroke="blueviolet" stroke-dasharray="5,2" d="M210,-406.16C228.04,-422.21 266.66,-454.3 305,-471.5 312.53,-474.88 320.75,-477.65 328.96,-479.93"/>
<text text-anchor="middle" x="283.5" y="-464.5" font-family="Helvetica,sans-Serif" font-size="10.00">a</text>
</g>
<!-- Node11 -->
<g id="Node000011" class="node">
<title>Node11</title>
<g id="a_Node000011"><a xlink:href="../../de/d3c/group__a__point3.html" target="_top" xlink:title=" ">
<polygon fill="white" stroke="#666666" points="451.5,-462 317.5,-462 317.5,-443 451.5,-443 451.5,-462"/>
<text text-anchor="middle" x="384.5" y="-450" font-family="Helvetica,sans-Serif" font-size="10.00">three&#45;dimensional point</text>
</a>
</g>
</g>
<!-- Node1&#45;&gt;Node11 -->
<g id="edge10" class="edge">
<title>Node1&#45;&gt;Node11</title>
<path fill="none" stroke="blueviolet" stroke-dasharray="5,2" d="M223.53,-406.09C244.74,-414.33 276.61,-426.16 305,-434.5 315.46,-437.57 326.84,-440.44 337.6,-442.95"/>
<text text-anchor="middle" x="283.5" y="-431.5" font-family="Helvetica,sans-Serif" font-size="10.00">a</text>
</g>
<!-- Node12 -->
<g id="Node000012" class="node">
<title>Node12</title>
<g id="a_Node000012"><a xlink:href="../../d8/d67/group__a__regress__linear.html" target="_top" xlink:title=" ">
<polygon fill="white" stroke="#666666" points="433.5,-425 335.5,-425 335.5,-406 433.5,-406 433.5,-425"/>
<text text-anchor="middle" x="384.5" y="-413" font-family="Helvetica,sans-Serif" font-size="10.00">linear regression</text>
</a>
</g>
</g>
<!-- Node1&#45;&gt;Node12 -->
<g id="edge11" class="edge">
<title>Node1&#45;&gt;Node12</title>
<path fill="none" stroke="blueviolet" stroke-dasharray="5,2" d="M262.05,-402.96C286.01,-405.43 312.95,-408.22 335.36,-410.53"/>
<text text-anchor="middle" x="283.5" y="-408.5" font-family="Helvetica,sans-Serif" font-size="10.00">a</text>
</g>
<!-- Node13 -->
<g id="Node000013" class="node">
<title>Node13</title>
<g id="a_Node000013"><a xlink:href="../../d9/ddc/group__a__regress__simple.html" target="_top" xlink:title=" ">
<polygon fill="white" stroke="#666666" points="451.5,-388 317.5,-388 317.5,-369 451.5,-369 451.5,-388"/>
<text text-anchor="middle" x="384.5" y="-376" font-family="Helvetica,sans-Serif" font-size="10.00">simple linear regression</text>
</a>
</g>
</g>
<!-- Node1&#45;&gt;Node13 -->
<g id="edge12" class="edge">
<title>Node1&#45;&gt;Node13</title>
<path fill="none" stroke="blueviolet" stroke-dasharray="5,2" d="M248.31,-386.94C258.73,-385.2 269.7,-383.59 280,-382.5 292.07,-381.22 304.97,-380.34 317.43,-379.74"/>
<text text-anchor="middle" x="283.5" y="-385.5" font-family="Helvetica,sans-Serif" font-size="10.00">a</text>
</g>
<!-- Node14 -->
<g id="Node000014" class="node">
<title>Node14</title>
<g id="a_Node000014"><a xlink:href="../../dd/dce/group__a__tf.html" target="_top" xlink:title=" ">
<polygon fill="white" stroke="#666666" points="433.5,-351 335.5,-351 335.5,-332 433.5,-332 433.5,-351"/>
<text text-anchor="middle" x="384.5" y="-339" font-family="Helvetica,sans-Serif" font-size="10.00">transfer function</text>
</a>
</g>
</g>
<!-- Node1&#45;&gt;Node14 -->
<g id="edge13" class="edge">
<title>Node1&#45;&gt;Node14</title>
<path fill="none" stroke="blueviolet" stroke-dasharray="5,2" d="M223.92,-386.84C245.11,-378.73 276.73,-367.25 305,-359.5 315.92,-356.51 327.79,-353.6 338.92,-351.04"/>
<text text-anchor="middle" x="283.5" y="-369.5" font-family="Helvetica,sans-Serif" font-size="10.00">a</text>
</g>
<!-- Node15 -->
<g id="Node000015" class="node">
<title>Node15</title>
<g id="a_Node000015"><a xlink:href="../../d1/d83/group__a__trajbell.html" target="_top" xlink:title=" ">
<polygon fill="white" stroke="#666666" points="442.5,-313.5 326.5,-313.5 326.5,-283.5 442.5,-283.5 442.5,-313.5"/>
<text text-anchor="start" x="334.5" y="-301.5" font-family="Helvetica,sans-Serif" font-size="10.00">bell&#45;shaped velocity</text>
<text text-anchor="middle" x="384.5" y="-290.5" font-family="Helvetica,sans-Serif" font-size="10.00"> trajectory</text>
</a>
</g>
</g>
<!-- Node1&#45;&gt;Node15 -->
<g id="edge14" class="edge">
<title>Node1&#45;&gt;Node15</title>
<path fill="none" stroke="blueviolet" stroke-dasharray="5,2" d="M210.76,-386.77C229.27,-371.22 267.81,-340.66 305,-322.5 311.79,-319.19 319.13,-316.22 326.5,-313.59"/>
<text text-anchor="middle" x="283.5" y="-339.5" font-family="Helvetica,sans-Serif" font-size="10.00">a</text>
</g>
<!-- Node16 -->
<g id="Node000016" class="node">
<title>Node16</title>
<g id="a_Node000016"><a xlink:href="../../d3/d60/group__a__trajpoly3.html" target="_top" xlink:title=" ">
<polygon fill="white" stroke="#666666" points="459.5,-265 309.5,-265 309.5,-246 459.5,-246 459.5,-265"/>
<text text-anchor="middle" x="384.5" y="-253" font-family="Helvetica,sans-Serif" font-size="10.00">cubic polynomial trajectory</text>
</a>
</g>
</g>
<!-- Node1&#45;&gt;Node16 -->
<g id="edge15" class="edge">
<title>Node1&#45;&gt;Node16</title>
<path fill="none" stroke="blueviolet" stroke-dasharray="5,2" d="M204.95,-386.78C218.57,-363.47 256.47,-304.1 305,-274.5 311.34,-270.63 318.43,-267.55 325.67,-265.09"/>
<text text-anchor="middle" x="283.5" y="-296.5" font-family="Helvetica,sans-Serif" font-size="10.00">a</text>
</g>
<!-- Node17 -->
<g id="Node000017" class="node">
<title>Node17</title>
<g id="a_Node000017"><a xlink:href="../../d6/dfe/group__a__trajpoly5.html" target="_top" xlink:title=" ">
<polygon fill="white" stroke="#666666" points="438,-227.5 331,-227.5 331,-197.5 438,-197.5 438,-227.5"/>
<text text-anchor="start" x="339" y="-215.5" font-family="Helvetica,sans-Serif" font-size="10.00">quintic polynomial</text>
<text text-anchor="middle" x="384.5" y="-204.5" font-family="Helvetica,sans-Serif" font-size="10.00"> trajectory</text>
</a>
</g>
</g>
<!-- Node1&#45;&gt;Node17 -->
<g id="edge16" class="edge">
<title>Node1&#45;&gt;Node17</title>
<path fill="none" stroke="blueviolet" stroke-dasharray="5,2" d="M203.08,-386.91C213.9,-359.21 249.05,-278.36 305,-236.5 312.65,-230.78 321.67,-226.41 330.82,-223.08"/>
<text text-anchor="middle" x="283.5" y="-260.5" font-family="Helvetica,sans-Serif" font-size="10.00">a</text>
</g>
<!-- Node18 -->
<g id="Node000018" class="node">
<title>Node18</title>
<g id="a_Node000018"><a xlink:href="../../df/d82/group__a__trajpoly7.html" target="_top" xlink:title=" ">
<polygon fill="white" stroke="#666666" points="460.5,-179 308.5,-179 308.5,-160 460.5,-160 460.5,-179"/>
<text text-anchor="middle" x="384.5" y="-167" font-family="Helvetica,sans-Serif" font-size="10.00">hepta polynomial trajectory</text>
</a>
</g>
</g>
<!-- Node1&#45;&gt;Node18 -->
<g id="edge17" class="edge">
<title>Node1&#45;&gt;Node18</title>
<path fill="none" stroke="blueviolet" stroke-dasharray="5,2" d="M201.4,-386.83C208.46,-353.54 236.42,-242.77 305,-188.5 309.84,-184.67 315.33,-181.6 321.11,-179.13"/>
<text text-anchor="middle" x="283.5" y="-213.5" font-family="Helvetica,sans-Serif" font-size="10.00">a</text>
</g>
<!-- Node19 -->
<g id="Node000019" class="node">
<title>Node19</title>
<g id="a_Node000019"><a xlink:href="../../d7/d75/group__a__trajtrap.html" target="_top" xlink:title=" ">
<polygon fill="white" stroke="#666666" points="441,-141.5 328,-141.5 328,-111.5 441,-111.5 441,-141.5"/>
<text text-anchor="start" x="336" y="-129.5" font-family="Helvetica,sans-Serif" font-size="10.00">trapezoidal velocity</text>
<text text-anchor="middle" x="384.5" y="-118.5" font-family="Helvetica,sans-Serif" font-size="10.00"> trajectory</text>
</a>
</g>
</g>
<!-- Node1&#45;&gt;Node19 -->
<g id="edge18" class="edge">
<title>Node1&#45;&gt;Node19</title>
<path fill="none" stroke="blueviolet" stroke-dasharray="5,2" d="M200.36,-386.97C204.27,-349.68 223.89,-212.73 305,-150.5 311.78,-145.29 319.7,-141.21 327.85,-138.01"/>
<text text-anchor="middle" x="283.5" y="-173.5" font-family="Helvetica,sans-Serif" font-size="10.00">a</text>
</g>
<!-- Node20 -->
<g id="Node000020" class="node">
<title>Node20</title>
<g id="a_Node000020"><a xlink:href="../../d6/d5a/group__a__vector2.html" target="_top" xlink:title=" ">
<polygon fill="white" stroke="#666666" points="450.5,-93 318.5,-93 318.5,-74 450.5,-74 450.5,-93"/>
<text text-anchor="middle" x="384.5" y="-81" font-family="Helvetica,sans-Serif" font-size="10.00">two&#45;dimensional vector</text>
</a>
</g>
</g>
<!-- Node1&#45;&gt;Node20 -->
<g id="edge19" class="edge">
<title>Node1&#45;&gt;Node20</title>
<path fill="none" stroke="blueviolet" stroke-dasharray="5,2" d="M199.63,-386.91C200.78,-345.28 211.25,-178.89 305,-102.5 309.67,-98.69 314.99,-95.63 320.61,-93.16"/>
<text text-anchor="middle" x="283.5" y="-129.5" font-family="Helvetica,sans-Serif" font-size="10.00">a</text>
</g>
<!-- Node21 -->
<g id="Node000021" class="node">
<title>Node21</title>
<g id="a_Node000021"><a xlink:href="../../d5/db6/group__a__vector3.html" target="_top" xlink:title=" ">
<polygon fill="white" stroke="#666666" points="454.5,-56 314.5,-56 314.5,-37 454.5,-37 454.5,-56"/>
<text text-anchor="middle" x="384.5" y="-44" font-family="Helvetica,sans-Serif" font-size="10.00">three&#45;dimensional vector</text>
</a>
</g>
</g>
<!-- Node1&#45;&gt;Node21 -->
<g id="edge20" class="edge">
<title>Node1&#45;&gt;Node21</title>
<path fill="none" stroke="blueviolet" stroke-dasharray="5,2" d="M201.11,-386.83C207.58,-349.31 233.59,-210.18 280,-104.5 288.43,-85.31 287.92,-76.66 305,-64.5 309.78,-61.09 315.11,-58.32 320.67,-56.06"/>
<text text-anchor="middle" x="283.5" y="-107.5" font-family="Helvetica,sans-Serif" font-size="10.00">a</text>
</g>
<!-- Node22 -->
<g id="Node000022" class="node">
<title>Node22</title>
<g id="a_Node000022"><a xlink:href="../../d2/d6c/group__a__version.html" target="_top" xlink:title=" ">
<polygon fill="white" stroke="#666666" points="453,-19 316,-19 316,0 453,0 453,-19"/>
<text text-anchor="middle" x="384.5" y="-7" font-family="Helvetica,sans-Serif" font-size="10.00">algorithm library version</text>
</a>
</g>
</g>
<!-- Node1&#45;&gt;Node22 -->
<g id="edge21" class="edge">
<title>Node1&#45;&gt;Node22</title>
<path fill="none" stroke="blueviolet" stroke-dasharray="5,2" d="M200.93,-386.94C207.05,-347.25 232.94,-191.95 280,-72.5 288.39,-51.21 286.71,-41.25 305,-27.5 309.47,-24.14 314.46,-21.39 319.7,-19.14"/>
<text text-anchor="middle" x="283.5" y="-75.5" font-family="Helvetica,sans-Serif" font-size="10.00">a</text>
</g>
<!-- Node2 -->
<g id="Node000002" class="node">
<title>Node2</title>
<g id="a_Node000002"><a xlink:href="../../d2/d6b/group__liba.html" target="_top" xlink:title=" ">
<polygon fill="white" stroke="#666666" points="98,-406 0,-406 0,-387 98,-387 98,-406"/>
<text text-anchor="middle" x="49" y="-394" font-family="Helvetica,sans-Serif" font-size="10.00">algorithm library</text>
</a>
</g>
</g>
<!-- Node2&#45;&gt;Node1 -->
<g id="edge1" class="edge">
<title>Node2&#45;&gt;Node1</title>
<path fill="none" stroke="black" d="M108.35,-396.5C117.06,-396.5 126.06,-396.5 134.86,-396.5"/>
<polygon fill="black" stroke="black" points="108.3,-393 98.3,-396.5 108.3,-400 108.3,-393"/>
</g>
</g>
</svg>

<g id="navigator" transform="translate(0 0)" fill="#404254">
  <rect fill="#f2f5e9" fill-opacity="0.5" stroke="#606060" stroke-width=".5" x="0" y="0" width="60" height="60"/>
  <use id="zoomplus" xlink:href="#zoomPlus" x="17" y="9" onmousedown="handleZoom(evt,'in')"/>
  <use id="zoomminus" xlink:href="#zoomMin" x="42" y="9" onmousedown="handleZoom(evt,'out')"/>
  <use id="reset" xlink:href="#resetDef" x="30" y="36" onmousedown="handleReset()"/>
   <use id="arrowup" xlink:href="#arrowUp" x="0" y="0" onmousedown="handlePan(0,-1)"/>
  <use id="arrowright" xlink:href="#arrowRight" x="0" y="0" onmousedown="handlePan(1,0)"/>
  <use id="arrowdown" xlink:href="#arrowDown" x="0" y="0" onmousedown="handlePan(0,1)"/>
  <use id="arrowleft" xlink:href="#arrowLeft" x="0" y="0" onmousedown="handlePan(-1,0)"/>
</g>
<svg viewBox="0 0 15 15" width="100%" height="30px" preserveAspectRatio="xMaxYMin meet">
 <g id="arrow_out" transform="scale(0.3 0.3)">
  <a xlink:href="group__a__line3_org.svg" target="_base">
   <rect id="button" ry="5" rx="5" y="6" x="6" height="38" width="38"
        fill="#f2f5e9" fill-opacity="0.5" stroke="#606060" stroke-width="1.0"/>
   <path id="arrow"
     d="M 11.500037,31.436501 C 11.940474,20.09759 22.043105,11.32322 32.158766,21.979434 L 37.068811,17.246167 C 37.068811,17.246167 37.088388,32 37.088388,32 L 22.160133,31.978069 C 22.160133,31.978069 26.997745,27.140456 26.997745,27.140456 C 18.528582,18.264221 13.291696,25.230495 11.500037,31.436501 z"
     style="fill:#404040;"/>
  </a>
 </g>
</svg>

<style type='text/css'>
<![CDATA[
[data-mouse-over-selected='false'] { opacity: 0.7; }
[data-mouse-over-selected='true']  { opacity: 1.0; }
]]>
</style>
<script type="application/ecmascript"><![CDATA[
document.addEventListener('DOMContentLoaded', (event) => {
  highlightEdges();
  highlightAdjacentNodes();
});
]]></script>
</svg>
