<?xml version="1.0" encoding="UTF-8" standalone="no"?>
<!DOCTYPE svg PUBLIC "-//W3C//DTD SVG 1.1//EN"
 "http://www.w3.org/Graphics/SVG/1.1/DTD/svg11.dtd">
<!-- Generated by graphviz version 2.43.0 (0)
 -->
<!-- Title: three&#45;dimensional line defined by an origin, a direction vector, and a length Pages: 1 -->
<!--zoomable 895 -->

<svg id="main" version="1.1" xmlns="http://www.w3.org/2000/svg" xmlns:xlink="http://www.w3.org/1999/xlink" xml:space="preserve" onload="init(evt)">

<style type="text/css"><![CDATA[
.node, .edge {opacity: 0.7;}
.node.selected, .edge.selected {opacity: 1;}
.edge:hover path { stroke: red; }
.edge:hover polygon { stroke: red; fill: red; }
]]></style>

<defs>
  <circle id="rim" cx="0" cy="0" r="7"/>
  <circle id="rim2" cx="0" cy="0" r="3.5"/>
  <g id="zoomPlus">
    <use xlink:href="#rim" fill="#404040"><set attributeName="fill" to="#808080" begin="zoomplus.mouseover" end="zoomplus.mouseout"/></use>
    <path d="M-4,0h8M0,-4v8" fill="none" stroke="white" stroke-width="1.5" pointer-events="none"/>
  </g>
  <g id="zoomMin">
    <use xlink:href="#rim" fill="#404040"><set attributeName="fill" to="#808080" begin="zoomminus.mouseover" end="zoomminus.mouseout"/></use>
    <path d="M-4,0h8" fill="none" stroke="white" stroke-width="1.5" pointer-events="none"/>
  </g>
  <g id="arrowUp" transform="translate(30 24)">
    <use xlink:href="#rim"/>
    <path pointer-events="none" fill="none" stroke="white" stroke-width="1.5" d="M0,-3.0v7 M-2.5,-0.5L0,-3.0L2.5,-0.5"/>
  </g>
  <g id="arrowRight" transform="rotate(90) translate(36 -43)">
    <use xlink:href="#rim"/>
    <path pointer-events="none" fill="none" stroke="white" stroke-width="1.5" d="M0,-3.0v7 M-2.5,-0.5L0,-3.0L2.5,-0.5"/>
  </g>
  <g id="arrowDown" transform="rotate(180) translate(-30 -48)">
    <use xlink:href="#rim"/>
    <path pointer-events="none" fill="none" stroke="white" stroke-width="1.5" d="M0,-3.0v7 M-2.5,-0.5L0,-3.0L2.5,-0.5"/>
  </g>
  <g id="arrowLeft" transform="rotate(270) translate(-36 17)">
    <use xlink:href="#rim"/>
    <path pointer-events="none" fill="none" stroke="white" stroke-width="1.5" d="M0,-3.0v7 M-2.5,-0.5L0,-3.0L2.5,-0.5"/>
  </g>
  <g id="resetDef">
    <use xlink:href="#rim2" fill="#404040"><set attributeName="fill" to="#808080" begin="reset.mouseover" end="reset.mouseout"/></use>
  </g>
</defs>
<script type="application/ecmascript">
var viewWidth = 474;
var viewHeight = 895;
var sectionId = 'dynsection-0';
</script>
<script type="application/ecmascript" xlink:href="../../svg.min.js"/>
<svg id="graph" class="graph">
<g id="viewport">
<title>three&#45;dimensional line defined by an origin, a direction vector, and a length</title>
<!-- Node3 -->
<g id="Node000003" class="node">
<title>Node3</title>
<g id="a_Node000003"><a xlink:href="../../d5/d49/group__a__hpf.html" target="_top" xlink:title=" ">
<polygon fill="white" stroke="#666666" points="432.5,-887 340.5,-887 340.5,-868 432.5,-868 432.5,-887"/>
<text text-anchor="middle" x="386.5" y="-875" font-family="Helvetica,sans-Serif" font-size="10.00">High Pass Filter</text>
</a>
</g>
</g>
<!-- Node4 -->
<g id="Node000004" class="node">
<title>Node4</title>
<g id="a_Node000004"><a xlink:href="../../dd/d35/group__a__line2.html" target="_top" xlink:title=" ">
<polygon fill="white" stroke="#666666" points="451,-849.5 322,-849.5 322,-797.5 451,-797.5 451,-849.5"/>
<text text-anchor="start" x="330" y="-837.5" font-family="Helvetica,sans-Serif" font-size="10.00">two&#45;dimensional line</text>
<text text-anchor="start" x="330" y="-826.5" font-family="Helvetica,sans-Serif" font-size="10.00"> defined by an origin,</text>
<text text-anchor="start" x="330" y="-815.5" font-family="Helvetica,sans-Serif" font-size="10.00"> a direction vector, and</text>
<text text-anchor="middle" x="386.5" y="-804.5" font-family="Helvetica,sans-Serif" font-size="10.00"> a length</text>
</a>
</g>
</g>
<!-- Node1 -->
<g id="Node000001" class="node">
<title>Node1</title>
<g id="a_Node000001"><a xlink:title=" ">
<polygon fill="#999999" stroke="#666666" points="264,-441.5 135,-441.5 135,-389.5 264,-389.5 264,-441.5"/>
<text text-anchor="start" x="143" y="-429.5" font-family="Helvetica,sans-Serif" font-size="10.00">three&#45;dimensional line</text>
<text text-anchor="start" x="143" y="-418.5" font-family="Helvetica,sans-Serif" font-size="10.00"> defined by an origin,</text>
<text text-anchor="start" x="143" y="-407.5" font-family="Helvetica,sans-Serif" font-size="10.00"> a direction vector, and</text>
<text text-anchor="middle" x="199.5" y="-396.5" font-family="Helvetica,sans-Serif" font-size="10.00"> a length</text>
</a>
</g>
</g>
<!-- Node1&#45;&gt;Node3 -->
<g id="edge2" class="edge">
<title>Node1&#45;&gt;Node3</title>
<path fill="none" stroke="blueviolet" stroke-dasharray="5,2" d="M203.08,-441.78C212.08,-528.05 245.01,-800.44 307,-858.5 316.11,-867.03 328.37,-871.93 340.49,-874.68"/>
<text text-anchor="middle" x="285.5" y="-831.5" font-family="Helvetica,sans-Serif" font-size="10.00">a</text>
</g>
<!-- Node1&#45;&gt;Node4 -->
<g id="edge3" class="edge">
<title>Node1&#45;&gt;Node4</title>
<path fill="none" stroke="blueviolet" stroke-dasharray="5,2" d="M204.34,-441.53C213.27,-498.31 238.07,-636.91 282,-745.5 290.29,-765.99 290.55,-773.73 307,-788.5 311.44,-792.49 316.41,-796.08 321.63,-799.31"/>
<text text-anchor="middle" x="285.5" y="-766.5" font-family="Helvetica,sans-Serif" font-size="10.00">a</text>
</g>
<!-- Node5 -->
<g id="Node000005" class="node">
<title>Node5</title>
<g id="a_Node000005"><a xlink:href="../../d0/dae/group__a__lpf.html" target="_top" xlink:title=" ">
<polygon fill="white" stroke="#666666" points="431,-779 342,-779 342,-760 431,-760 431,-779"/>
<text text-anchor="middle" x="386.5" y="-767" font-family="Helvetica,sans-Serif" font-size="10.00">Low Pass Filter</text>
</a>
</g>
</g>
<!-- Node1&#45;&gt;Node5 -->
<g id="edge4" class="edge">
<title>Node1&#45;&gt;Node5</title>
<path fill="none" stroke="blueviolet" stroke-dasharray="5,2" d="M200.12,-441.89C200.76,-505.97 212.06,-670.43 307,-750.5 316.75,-758.73 329.49,-763.51 341.86,-766.25"/>
<text text-anchor="middle" x="285.5" y="-733.5" font-family="Helvetica,sans-Serif" font-size="10.00">a</text>
</g>
<!-- Node6 -->
<g id="Node000006" class="node">
<title>Node6</title>
<g id="a_Node000006"><a xlink:href="../../dd/d81/group__a__pid.html" target="_top" xlink:title=" ">
<polygon fill="white" stroke="#666666" points="446,-741.5 327,-741.5 327,-711.5 446,-711.5 446,-741.5"/>
<text text-anchor="start" x="335" y="-729.5" font-family="Helvetica,sans-Serif" font-size="10.00">proportional integral</text>
<text text-anchor="middle" x="386.5" y="-718.5" font-family="Helvetica,sans-Serif" font-size="10.00"> derivative controller</text>
</a>
</g>
</g>
<!-- Node1&#45;&gt;Node6 -->
<g id="edge5" class="edge">
<title>Node1&#45;&gt;Node6</title>
<path fill="none" stroke="blueviolet" stroke-dasharray="5,2" d="M202.52,-441.55C208.3,-497.64 229.82,-630.58 307,-702.5 312.73,-707.84 319.63,-712 326.92,-715.23"/>
<text text-anchor="middle" x="285.5" y="-680.5" font-family="Helvetica,sans-Serif" font-size="10.00">a</text>
</g>
<!-- Node7 -->
<g id="Node000007" class="node">
<title>Node7</title>
<g id="a_Node000007"><a xlink:href="../../d9/da5/group__a__pid__fuzzy.html" target="_top" xlink:title=" ">
<polygon fill="white" stroke="#666666" points="441.5,-693 331.5,-693 331.5,-652 441.5,-652 441.5,-693"/>
<text text-anchor="start" x="339.5" y="-681" font-family="Helvetica,sans-Serif" font-size="10.00">fuzzy proportional</text>
<text text-anchor="start" x="339.5" y="-670" font-family="Helvetica,sans-Serif" font-size="10.00"> integral derivative</text>
<text text-anchor="middle" x="386.5" y="-659" font-family="Helvetica,sans-Serif" font-size="10.00"> controller</text>
</a>
</g>
</g>
<!-- Node1&#45;&gt;Node7 -->
<g id="edge6" class="edge">
<title>Node1&#45;&gt;Node7</title>
<path fill="none" stroke="blueviolet" stroke-dasharray="5,2" d="M205.95,-441.82C216.95,-488.58 246.14,-586.5 307,-642.5 313.98,-648.92 322.47,-654.02 331.27,-658.04"/>
<text text-anchor="middle" x="285.5" y="-625.5" font-family="Helvetica,sans-Serif" font-size="10.00">a</text>
</g>
<!-- Node8 -->
<g id="Node000008" class="node">
<title>Node8</title>
<g id="a_Node000008"><a xlink:href="../../d1/da2/group__a__pid__neuro.html" target="_top" xlink:title=" ">
<polygon fill="white" stroke="#666666" points="466,-633.5 307,-633.5 307,-603.5 466,-603.5 466,-633.5"/>
<text text-anchor="start" x="315" y="-621.5" font-family="Helvetica,sans-Serif" font-size="10.00">single neuron proportional</text>
<text text-anchor="middle" x="386.5" y="-610.5" font-family="Helvetica,sans-Serif" font-size="10.00"> integral derivative controller</text>
</a>
</g>
</g>
<!-- Node1&#45;&gt;Node8 -->
<g id="edge7" class="edge">
<title>Node1&#45;&gt;Node8</title>
<path fill="none" stroke="blueviolet" stroke-dasharray="5,2" d="M208.67,-441.59C222.4,-481 253.93,-555.27 307,-594.5 311.7,-597.97 316.91,-600.95 322.34,-603.5"/>
<text text-anchor="middle" x="285.5" y="-578.5" font-family="Helvetica,sans-Serif" font-size="10.00">a</text>
</g>
<!-- Node9 -->
<g id="Node000009" class="node">
<title>Node9</title>
<g id="a_Node000009"><a xlink:href="../../db/d44/group__a__plane.html" target="_top" xlink:title=" ">
<polygon fill="white" stroke="#666666" points="454.5,-585 318.5,-585 318.5,-566 454.5,-566 454.5,-585"/>
<text text-anchor="middle" x="386.5" y="-573" font-family="Helvetica,sans-Serif" font-size="10.00">three&#45;dimensional plane</text>
</a>
</g>
</g>
<!-- Node1&#45;&gt;Node9 -->
<g id="edge8" class="edge">
<title>Node1&#45;&gt;Node9</title>
<path fill="none" stroke="blueviolet" stroke-dasharray="5,2" d="M212.87,-441.72C229.57,-474.13 262.43,-528.53 307,-557.5 312.28,-560.93 318.12,-563.71 324.18,-565.96"/>
<text text-anchor="middle" x="285.5" y="-545.5" font-family="Helvetica,sans-Serif" font-size="10.00">a</text>
</g>
<!-- Node10 -->
<g id="Node000010" class="node">
<title>Node10</title>
<g id="a_Node000010"><a xlink:href="../../d2/d21/group__a__point2.html" target="_top" xlink:title=" ">
<polygon fill="white" stroke="#666666" points="449.5,-548 323.5,-548 323.5,-529 449.5,-529 449.5,-548"/>
<text text-anchor="middle" x="386.5" y="-536" font-family="Helvetica,sans-Serif" font-size="10.00">two&#45;dimensional point</text>
</a>
</g>
</g>
<!-- Node1&#45;&gt;Node10 -->
<g id="edge9" class="edge">
<title>Node1&#45;&gt;Node10</title>
<path fill="none" stroke="blueviolet" stroke-dasharray="5,2" d="M219.93,-441.67C239.3,-465.84 271.26,-500.89 307,-520.5 313.25,-523.93 320.13,-526.71 327.13,-528.96"/>
<text text-anchor="middle" x="285.5" y="-509.5" font-family="Helvetica,sans-Serif" font-size="10.00">a</text>
</g>
<!-- Node11 -->
<g id="Node000011" class="node">
<title>Node11</title>
<g id="a_Node000011"><a xlink:href="../../de/d3c/group__a__point3.html" target="_top" xlink:title=" ">
<polygon fill="white" stroke="#666666" points="453.5,-511 319.5,-511 319.5,-492 453.5,-492 453.5,-511"/>
<text text-anchor="middle" x="386.5" y="-499" font-family="Helvetica,sans-Serif" font-size="10.00">three&#45;dimensional point</text>
</a>
</g>
</g>
<!-- Node1&#45;&gt;Node11 -->
<g id="edge10" class="edge">
<title>Node1&#45;&gt;Node11</title>
<path fill="none" stroke="blueviolet" stroke-dasharray="5,2" d="M235.38,-441.5C255.45,-455.4 281.64,-471.79 307,-482.5 315.91,-486.26 325.72,-489.38 335.3,-491.92"/>
<text text-anchor="middle" x="285.5" y="-476.5" font-family="Helvetica,sans-Serif" font-size="10.00">a</text>
</g>
<!-- Node12 -->
<g id="Node000012" class="node">
<title>Node12</title>
<g id="a_Node000012"><a xlink:href="../../d9/d8d/group__a__rand.html" target="_top" xlink:title=" ">
<polygon fill="white" stroke="#666666" points="451.5,-473.5 321.5,-473.5 321.5,-443.5 451.5,-443.5 451.5,-473.5"/>
<text text-anchor="start" x="329.5" y="-461.5" font-family="Helvetica,sans-Serif" font-size="10.00">pseudorandom number</text>
<text text-anchor="middle" x="386.5" y="-450.5" font-family="Helvetica,sans-Serif" font-size="10.00"> generator</text>
</a>
</g>
</g>
<!-- Node1&#45;&gt;Node12 -->
<g id="edge11" class="edge">
<title>Node1&#45;&gt;Node12</title>
<path fill="none" stroke="blueviolet" stroke-dasharray="5,2" d="M264.17,-430.3C282.67,-434.6 302.88,-439.3 321.4,-443.6"/>
<text text-anchor="middle" x="285.5" y="-439.5" font-family="Helvetica,sans-Serif" font-size="10.00">a</text>
</g>
<!-- Node13 -->
<g id="Node000013" class="node">
<title>Node13</title>
<g id="a_Node000013"><a xlink:href="../../d8/d67/group__a__regress__linear.html" target="_top" xlink:title=" ">
<polygon fill="white" stroke="#666666" points="435.5,-425 337.5,-425 337.5,-406 435.5,-406 435.5,-425"/>
<text text-anchor="middle" x="386.5" y="-413" font-family="Helvetica,sans-Serif" font-size="10.00">linear regression</text>
</a>
</g>
</g>
<!-- Node1&#45;&gt;Node13 -->
<g id="edge12" class="edge">
<title>Node1&#45;&gt;Node13</title>
<path fill="none" stroke="blueviolet" stroke-dasharray="5,2" d="M264.17,-415.5C288.1,-415.5 314.9,-415.5 337.21,-415.5"/>
<text text-anchor="middle" x="285.5" y="-418.5" font-family="Helvetica,sans-Serif" font-size="10.00">a</text>
</g>
<!-- Node14 -->
<g id="Node000014" class="node">
<title>Node14</title>
<g id="a_Node000014"><a xlink:href="../../d9/ddc/group__a__regress__simple.html" target="_top" xlink:title=" ">
<polygon fill="white" stroke="#666666" points="453.5,-388 319.5,-388 319.5,-369 453.5,-369 453.5,-388"/>
<text text-anchor="middle" x="386.5" y="-376" font-family="Helvetica,sans-Serif" font-size="10.00">simple linear regression</text>
</a>
</g>
</g>
<!-- Node1&#45;&gt;Node14 -->
<g id="edge13" class="edge">
<title>Node1&#45;&gt;Node14</title>
<path fill="none" stroke="blueviolet" stroke-dasharray="5,2" d="M264.17,-402.77C288.31,-397.94 315.37,-392.53 337.79,-388.04"/>
<text text-anchor="middle" x="285.5" y="-401.5" font-family="Helvetica,sans-Serif" font-size="10.00">a</text>
</g>
<!-- Node15 -->
<g id="Node000015" class="node">
<title>Node15</title>
<g id="a_Node000015"><a xlink:href="../../dd/dce/group__a__tf.html" target="_top" xlink:title=" ">
<polygon fill="white" stroke="#666666" points="435.5,-351 337.5,-351 337.5,-332 435.5,-332 435.5,-351"/>
<text text-anchor="middle" x="386.5" y="-339" font-family="Helvetica,sans-Serif" font-size="10.00">transfer function</text>
</a>
</g>
</g>
<!-- Node1&#45;&gt;Node15 -->
<g id="edge14" class="edge">
<title>Node1&#45;&gt;Node15</title>
<path fill="none" stroke="blueviolet" stroke-dasharray="5,2" d="M243.88,-389.42C262.76,-378.94 285.45,-367.48 307,-359.5 316.57,-355.95 327.07,-352.97 337.18,-350.51"/>
<text text-anchor="middle" x="285.5" y="-373.5" font-family="Helvetica,sans-Serif" font-size="10.00">a</text>
</g>
<!-- Node16 -->
<g id="Node000016" class="node">
<title>Node16</title>
<g id="a_Node000016"><a xlink:href="../../d1/d83/group__a__trajbell.html" target="_top" xlink:title=" ">
<polygon fill="white" stroke="#666666" points="444.5,-313.5 328.5,-313.5 328.5,-283.5 444.5,-283.5 444.5,-313.5"/>
<text text-anchor="start" x="336.5" y="-301.5" font-family="Helvetica,sans-Serif" font-size="10.00">bell&#45;shaped velocity</text>
<text text-anchor="middle" x="386.5" y="-290.5" font-family="Helvetica,sans-Serif" font-size="10.00"> trajectory</text>
</a>
</g>
</g>
<!-- Node1&#45;&gt;Node16 -->
<g id="edge15" class="edge">
<title>Node1&#45;&gt;Node16</title>
<path fill="none" stroke="blueviolet" stroke-dasharray="5,2" d="M224.42,-389.23C244.61,-368.47 275.25,-340.15 307,-322.5 313.6,-318.83 320.84,-315.65 328.15,-312.92"/>
<text text-anchor="middle" x="285.5" y="-340.5" font-family="Helvetica,sans-Serif" font-size="10.00">a</text>
</g>
<!-- Node17 -->
<g id="Node000017" class="node">
<title>Node17</title>
<g id="a_Node000017"><a xlink:href="../../d3/d60/group__a__trajpoly3.html" target="_top" xlink:title=" ">
<polygon fill="white" stroke="#666666" points="461.5,-265 311.5,-265 311.5,-246 461.5,-246 461.5,-265"/>
<text text-anchor="middle" x="386.5" y="-253" font-family="Helvetica,sans-Serif" font-size="10.00">cubic polynomial trajectory</text>
</a>
</g>
</g>
<!-- Node1&#45;&gt;Node17 -->
<g id="edge16" class="edge">
<title>Node1&#45;&gt;Node17</title>
<path fill="none" stroke="blueviolet" stroke-dasharray="5,2" d="M213.13,-389.27C229.97,-357.15 262.88,-303.45 307,-274.5 312.86,-270.65 319.43,-267.59 326.2,-265.14"/>
<text text-anchor="middle" x="285.5" y="-295.5" font-family="Helvetica,sans-Serif" font-size="10.00">a</text>
</g>
<!-- Node18 -->
<g id="Node000018" class="node">
<title>Node18</title>
<g id="a_Node000018"><a xlink:href="../../d6/dfe/group__a__trajpoly5.html" target="_top" xlink:title=" ">
<polygon fill="white" stroke="#666666" points="440,-227.5 333,-227.5 333,-197.5 440,-197.5 440,-227.5"/>
<text text-anchor="start" x="341" y="-215.5" font-family="Helvetica,sans-Serif" font-size="10.00">quintic polynomial</text>
<text text-anchor="middle" x="386.5" y="-204.5" font-family="Helvetica,sans-Serif" font-size="10.00"> trajectory</text>
</a>
</g>
</g>
<!-- Node1&#45;&gt;Node18 -->
<g id="edge17" class="edge">
<title>Node1&#45;&gt;Node18</title>
<path fill="none" stroke="blueviolet" stroke-dasharray="5,2" d="M208.73,-389.49C222.54,-350.19 254.18,-276.06 307,-236.5 314.64,-230.78 323.66,-226.4 332.81,-223.07"/>
<text text-anchor="middle" x="285.5" y="-262.5" font-family="Helvetica,sans-Serif" font-size="10.00">a</text>
</g>
<!-- Node19 -->
<g id="Node000019" class="node">
<title>Node19</title>
<g id="a_Node000019"><a xlink:href="../../df/d82/group__a__trajpoly7.html" target="_top" xlink:title=" ">
<polygon fill="white" stroke="#666666" points="462.5,-179 310.5,-179 310.5,-160 462.5,-160 462.5,-179"/>
<text text-anchor="middle" x="386.5" y="-167" font-family="Helvetica,sans-Serif" font-size="10.00">hepta polynomial trajectory</text>
</a>
</g>
</g>
<!-- Node1&#45;&gt;Node19 -->
<g id="edge18" class="edge">
<title>Node1&#45;&gt;Node19</title>
<path fill="none" stroke="blueviolet" stroke-dasharray="5,2" d="M205.11,-389.14C214.89,-341.41 242.35,-240.79 307,-188.5 311.8,-184.62 317.26,-181.51 323.03,-179.03"/>
<text text-anchor="middle" x="285.5" y="-215.5" font-family="Helvetica,sans-Serif" font-size="10.00">a</text>
</g>
<!-- Node20 -->
<g id="Node000020" class="node">
<title>Node20</title>
<g id="a_Node000020"><a xlink:href="../../d7/d75/group__a__trajtrap.html" target="_top" xlink:title=" ">
<polygon fill="white" stroke="#666666" points="443,-141.5 330,-141.5 330,-111.5 443,-111.5 443,-141.5"/>
<text text-anchor="start" x="338" y="-129.5" font-family="Helvetica,sans-Serif" font-size="10.00">trapezoidal velocity</text>
<text text-anchor="middle" x="386.5" y="-118.5" font-family="Helvetica,sans-Serif" font-size="10.00"> trajectory</text>
</a>
</g>
</g>
<!-- Node1&#45;&gt;Node20 -->
<g id="edge19" class="edge">
<title>Node1&#45;&gt;Node20</title>
<path fill="none" stroke="blueviolet" stroke-dasharray="5,2" d="M202.62,-389.37C208.51,-335.22 230.15,-210.8 307,-150.5 313.73,-145.22 321.61,-141.1 329.75,-137.88"/>
<text text-anchor="middle" x="285.5" y="-174.5" font-family="Helvetica,sans-Serif" font-size="10.00">a</text>
</g>
<!-- Node21 -->
<g id="Node000021" class="node">
<title>Node21</title>
<g id="a_Node000021"><a xlink:href="../../d6/d5a/group__a__vector2.html" target="_top" xlink:title=" ">
<polygon fill="white" stroke="#666666" points="452.5,-93 320.5,-93 320.5,-74 452.5,-74 452.5,-93"/>
<text text-anchor="middle" x="386.5" y="-81" font-family="Helvetica,sans-Serif" font-size="10.00">two&#45;dimensional vector</text>
</a>
</g>
</g>
<!-- Node1&#45;&gt;Node21 -->
<g id="edge20" class="edge">
<title>Node1&#45;&gt;Node21</title>
<path fill="none" stroke="blueviolet" stroke-dasharray="5,2" d="M200.75,-389.41C202.88,-328.42 217.38,-176.07 307,-102.5 311.66,-98.67 316.97,-95.6 322.58,-93.13"/>
<text text-anchor="middle" x="285.5" y="-124.5" font-family="Helvetica,sans-Serif" font-size="10.00">a</text>
</g>
<!-- Node22 -->
<g id="Node000022" class="node">
<title>Node22</title>
<g id="a_Node000022"><a xlink:href="../../d5/db6/group__a__vector3.html" target="_top" xlink:title=" ">
<polygon fill="white" stroke="#666666" points="456.5,-56 316.5,-56 316.5,-37 456.5,-37 456.5,-56"/>
<text text-anchor="middle" x="386.5" y="-44" font-family="Helvetica,sans-Serif" font-size="10.00">three&#45;dimensional vector</text>
</a>
</g>
</g>
<!-- Node1&#45;&gt;Node22 -->
<g id="edge21" class="edge">
<title>Node1&#45;&gt;Node22</title>
<path fill="none" stroke="blueviolet" stroke-dasharray="5,2" d="M204.82,-389.47C214.37,-335.28 239.81,-207.02 282,-106.5 290.41,-86.47 289.44,-77.29 307,-64.5 311.63,-61.12 316.8,-58.37 322.2,-56.12"/>
<text text-anchor="middle" x="285.5" y="-109.5" font-family="Helvetica,sans-Serif" font-size="10.00">a</text>
</g>
<!-- Node23 -->
<g id="Node000023" class="node">
<title>Node23</title>
<g id="a_Node000023"><a xlink:href="../../d2/d6c/group__a__version.html" target="_top" xlink:title=" ">
<polygon fill="white" stroke="#666666" points="455,-19 318,-19 318,0 455,0 455,-19"/>
<text text-anchor="middle" x="386.5" y="-7" font-family="Helvetica,sans-Serif" font-size="10.00">algorithm library version</text>
</a>
</g>
</g>
<!-- Node1&#45;&gt;Node23 -->
<g id="edge22" class="edge">
<title>Node1&#45;&gt;Node23</title>
<path fill="none" stroke="blueviolet" stroke-dasharray="5,2" d="M204.29,-389.49C213.27,-331.39 238.43,-187.21 282,-73.5 290.32,-51.77 288.46,-41.57 307,-27.5 311.46,-24.12 316.43,-21.35 321.67,-19.1"/>
<text text-anchor="middle" x="285.5" y="-76.5" font-family="Helvetica,sans-Serif" font-size="10.00">a</text>
</g>
<!-- Node2 -->
<g id="Node000002" class="node">
<title>Node2</title>
<g id="a_Node000002"><a xlink:href="../../d2/d6b/group__liba.html" target="_top" xlink:title=" ">
<polygon fill="white" stroke="#666666" points="98,-425 0,-425 0,-406 98,-406 98,-425"/>
<text text-anchor="middle" x="49" y="-413" font-family="Helvetica,sans-Serif" font-size="10.00">algorithm library</text>
</a>
</g>
</g>
<!-- Node2&#45;&gt;Node1 -->
<g id="edge1" class="edge">
<title>Node2&#45;&gt;Node1</title>
<path fill="none" stroke="black" d="M108.28,-415.5C117,-415.5 126.03,-415.5 134.85,-415.5"/>
<polygon fill="black" stroke="black" points="108.21,-412 98.21,-415.5 108.21,-419 108.21,-412"/>
</g>
</g>
</svg>

<g id="navigator" transform="translate(0 0)" fill="#404254">
  <rect fill="#f2f5e9" fill-opacity="0.5" stroke="#606060" stroke-width=".5" x="0" y="0" width="60" height="60"/>
  <use id="zoomplus" xlink:href="#zoomPlus" x="17" y="9" onmousedown="handleZoom(evt,'in')"/>
  <use id="zoomminus" xlink:href="#zoomMin" x="42" y="9" onmousedown="handleZoom(evt,'out')"/>
  <use id="reset" xlink:href="#resetDef" x="30" y="36" onmousedown="handleReset()"/>
   <use id="arrowup" xlink:href="#arrowUp" x="0" y="0" onmousedown="handlePan(0,-1)"/>
  <use id="arrowright" xlink:href="#arrowRight" x="0" y="0" onmousedown="handlePan(1,0)"/>
  <use id="arrowdown" xlink:href="#arrowDown" x="0" y="0" onmousedown="handlePan(0,1)"/>
  <use id="arrowleft" xlink:href="#arrowLeft" x="0" y="0" onmousedown="handlePan(-1,0)"/>
</g>
<svg viewBox="0 0 15 15" width="100%" height="30px" preserveAspectRatio="xMaxYMin meet">
 <g id="arrow_out" transform="scale(0.3 0.3)">
  <a xlink:href="group__a__line3_org.svg" target="_base">
   <rect id="button" ry="5" rx="5" y="6" x="6" height="38" width="38"
        fill="#f2f5e9" fill-opacity="0.5" stroke="#606060" stroke-width="1.0"/>
   <path id="arrow"
     d="M 11.500037,31.436501 C 11.940474,20.09759 22.043105,11.32322 32.158766,21.979434 L 37.068811,17.246167 C 37.068811,17.246167 37.088388,32 37.088388,32 L 22.160133,31.978069 C 22.160133,31.978069 26.997745,27.140456 26.997745,27.140456 C 18.528582,18.264221 13.291696,25.230495 11.500037,31.436501 z"
     style="fill:#404040;"/>
  </a>
 </g>
</svg>

<style type='text/css'>
<![CDATA[
[data-mouse-over-selected='false'] { opacity: 0.7; }
[data-mouse-over-selected='true']  { opacity: 1.0; }
]]>
</style>
<script type="application/ecmascript"><![CDATA[
document.addEventListener('DOMContentLoaded', (event) => {
  highlightEdges();
  highlightAdjacentNodes();
});
]]></script>
</svg>
