<?xml version="1.0" encoding="UTF-8" standalone="no"?>
<!DOCTYPE svg PUBLIC "-//W3C//DTD SVG 1.1//EN"
 "http://www.w3.org/Graphics/SVG/1.1/DTD/svg11.dtd">
<!-- Generated by graphviz version 2.43.0 (0)
 -->
<!-- Title: single neuron proportional integral derivative controller Pages: 1 -->
<svg width="497pt" height="467pt"
 viewBox="0.00 0.00 497.00 467.00" xmlns="http://www.w3.org/2000/svg" xmlns:xlink="http://www.w3.org/1999/xlink">
<g id="graph0" class="graph" transform="scale(1 1) rotate(0) translate(4 463)">
<title>single neuron proportional integral derivative controller</title>
<!-- Node2 -->
<g id="Node000002" class="node">
<title>Node2</title>
<g id="a_Node000002"><a xlink:href="../../df/d91/group__A.html" target="_top" xlink:title=" ">
<polygon fill="white" stroke="#666666" points="98,-234 0,-234 0,-215 98,-215 98,-234"/>
<text text-anchor="middle" x="49" y="-222" font-family="Helvetica,sans-Serif" font-size="10.00">algorithm library</text>
</a>
</g>
</g>
<!-- Node1 -->
<g id="Node000001" class="node">
<title>Node1</title>
<g id="a_Node000001"><a xlink:title=" ">
<polygon fill="#999999" stroke="#666666" points="294,-239.5 135,-239.5 135,-209.5 294,-209.5 294,-239.5"/>
<text text-anchor="start" x="143" y="-227.5" font-family="Helvetica,sans-Serif" font-size="10.00">single neuron proportional</text>
<text text-anchor="middle" x="214.5" y="-216.5" font-family="Helvetica,sans-Serif" font-size="10.00"> integral derivative controller</text>
</a>
</g>
</g>
<!-- Node2&#45;&gt;Node1 -->
<g id="edge1" class="edge">
<title>Node2&#45;&gt;Node1</title>
<path fill="none" stroke="black" d="M108.38,-224.5C116.92,-224.5 125.83,-224.5 134.7,-224.5"/>
<polygon fill="black" stroke="black" points="108.17,-221 98.17,-224.5 108.17,-228 108.17,-221"/>
</g>
<!-- Node3 -->
<g id="Node000003" class="node">
<title>Node3</title>
<g id="a_Node000003"><a xlink:href="../../dd/d71/group__A__HPF.html" target="_top" xlink:title=" ">
<polygon fill="white" stroke="#666666" points="459,-459 367,-459 367,-440 459,-440 459,-459"/>
<text text-anchor="middle" x="413" y="-447" font-family="Helvetica,sans-Serif" font-size="10.00">High Pass Filter</text>
</a>
</g>
</g>
<!-- Node4 -->
<g id="Node000004" class="node">
<title>Node4</title>
<g id="a_Node000004"><a xlink:href="../../df/d27/group__A__LPF.html" target="_top" xlink:title=" ">
<polygon fill="white" stroke="#666666" points="457.5,-422 368.5,-422 368.5,-403 457.5,-403 457.5,-422"/>
<text text-anchor="middle" x="413" y="-410" font-family="Helvetica,sans-Serif" font-size="10.00">Low Pass Filter</text>
</a>
</g>
</g>
<!-- Node5 -->
<g id="Node000005" class="node">
<title>Node5</title>
<g id="a_Node000005"><a xlink:href="../../d8/da8/group__A__PID.html" target="_top" xlink:title=" ">
<polygon fill="white" stroke="#666666" points="472.5,-384.5 353.5,-384.5 353.5,-354.5 472.5,-354.5 472.5,-384.5"/>
<text text-anchor="start" x="361.5" y="-372.5" font-family="Helvetica,sans-Serif" font-size="10.00">proportional integral</text>
<text text-anchor="middle" x="413" y="-361.5" font-family="Helvetica,sans-Serif" font-size="10.00"> derivative controller</text>
</a>
</g>
</g>
<!-- Node6 -->
<g id="Node000006" class="node">
<title>Node6</title>
<g id="a_Node000006"><a xlink:href="../../dc/db1/group__A__PID__FUZZY.html" target="_top" xlink:title=" ">
<polygon fill="white" stroke="#666666" points="468,-336 358,-336 358,-295 468,-295 468,-336"/>
<text text-anchor="start" x="366" y="-324" font-family="Helvetica,sans-Serif" font-size="10.00">fuzzy proportional</text>
<text text-anchor="start" x="366" y="-313" font-family="Helvetica,sans-Serif" font-size="10.00"> integral derivative</text>
<text text-anchor="middle" x="413" y="-302" font-family="Helvetica,sans-Serif" font-size="10.00"> controller</text>
</a>
</g>
</g>
<!-- Node1&#45;&gt;Node3 -->
<g id="edge2" class="edge">
<title>Node1&#45;&gt;Node3</title>
<path fill="none" stroke="blueviolet" stroke-dasharray="5,2" d="M219.74,-239.6C231.4,-278.23 267.78,-381.09 337,-431.5 345.66,-437.81 356.23,-441.93 366.67,-444.62"/>
<text text-anchor="middle" x="315.5" y="-417.5" font-family="Helvetica,sans-Serif" font-size="10.00">a</text>
</g>
<!-- Node1&#45;&gt;Node4 -->
<g id="edge3" class="edge">
<title>Node1&#45;&gt;Node4</title>
<path fill="none" stroke="blueviolet" stroke-dasharray="5,2" d="M221.93,-239.63C236.91,-272.96 277.41,-352.93 337,-393.5 346.22,-399.77 357.34,-403.98 368.16,-406.79"/>
<text text-anchor="middle" x="315.5" y="-378.5" font-family="Helvetica,sans-Serif" font-size="10.00">a</text>
</g>
<!-- Node1&#45;&gt;Node5 -->
<g id="edge4" class="edge">
<title>Node1&#45;&gt;Node5</title>
<path fill="none" stroke="blueviolet" stroke-dasharray="5,2" d="M226.86,-239.83C246.53,-265.34 289.44,-316.57 337,-345.5 342.61,-348.91 348.75,-351.89 355.02,-354.47"/>
<text text-anchor="middle" x="315.5" y="-334.5" font-family="Helvetica,sans-Serif" font-size="10.00">a</text>
</g>
<!-- Node1&#45;&gt;Node6 -->
<g id="edge5" class="edge">
<title>Node1&#45;&gt;Node6</title>
<path fill="none" stroke="blueviolet" stroke-dasharray="5,2" d="M243.09,-239.61C267.47,-252.71 304.14,-271.81 337,-286.5 343.63,-289.46 350.66,-292.42 357.65,-295.25"/>
<text text-anchor="middle" x="315.5" y="-279.5" font-family="Helvetica,sans-Serif" font-size="10.00">a</text>
</g>
<!-- Node7 -->
<g id="Node000007" class="node">
<title>Node7</title>
<g id="a_Node000007"><a xlink:href="../../d0/ddd/group__A__TF.html" target="_top" xlink:title=" ">
<polygon fill="white" stroke="#666666" points="462,-277 364,-277 364,-258 462,-258 462,-277"/>
<text text-anchor="middle" x="413" y="-265" font-family="Helvetica,sans-Serif" font-size="10.00">transfer function</text>
</a>
</g>
</g>
<!-- Node1&#45;&gt;Node7 -->
<g id="edge6" class="edge">
<title>Node1&#45;&gt;Node7</title>
<path fill="none" stroke="blueviolet" stroke-dasharray="5,2" d="M284.23,-239.54C312.23,-245.67 343.75,-252.57 368.49,-257.98"/>
<text text-anchor="middle" x="315.5" y="-248.5" font-family="Helvetica,sans-Serif" font-size="10.00">a</text>
</g>
<!-- Node8 -->
<g id="Node000008" class="node">
<title>Node8</title>
<g id="a_Node000008"><a xlink:href="../../d6/d1e/group__A__TRAJBELL.html" target="_top" xlink:title=" ">
<polygon fill="white" stroke="#666666" points="471,-239.5 355,-239.5 355,-209.5 471,-209.5 471,-239.5"/>
<text text-anchor="start" x="363" y="-227.5" font-family="Helvetica,sans-Serif" font-size="10.00">bell&#45;shaped velocity</text>
<text text-anchor="middle" x="413" y="-216.5" font-family="Helvetica,sans-Serif" font-size="10.00"> trajectory</text>
</a>
</g>
</g>
<!-- Node1&#45;&gt;Node8 -->
<g id="edge7" class="edge">
<title>Node1&#45;&gt;Node8</title>
<path fill="none" stroke="blueviolet" stroke-dasharray="5,2" d="M294.01,-224.5C314.32,-224.5 335.81,-224.5 354.8,-224.5"/>
<text text-anchor="middle" x="315.5" y="-227.5" font-family="Helvetica,sans-Serif" font-size="10.00">a</text>
</g>
<!-- Node9 -->
<g id="Node000009" class="node">
<title>Node9</title>
<g id="a_Node000009"><a xlink:href="../../d3/d9f/group__A__TRAJPOLY3.html" target="_top" xlink:title=" ">
<polygon fill="white" stroke="#666666" points="488,-191 338,-191 338,-172 488,-172 488,-191"/>
<text text-anchor="middle" x="413" y="-179" font-family="Helvetica,sans-Serif" font-size="10.00">cubic polynomial trajectory</text>
</a>
</g>
</g>
<!-- Node1&#45;&gt;Node9 -->
<g id="edge8" class="edge">
<title>Node1&#45;&gt;Node9</title>
<path fill="none" stroke="blueviolet" stroke-dasharray="5,2" d="M284.23,-209.46C312.23,-203.33 343.75,-196.43 368.49,-191.02"/>
<text text-anchor="middle" x="315.5" y="-205.5" font-family="Helvetica,sans-Serif" font-size="10.00">a</text>
</g>
<!-- Node10 -->
<g id="Node000010" class="node">
<title>Node10</title>
<g id="a_Node000010"><a xlink:href="../../d2/d61/group__A__TRAJPOLY5.html" target="_top" xlink:title=" ">
<polygon fill="white" stroke="#666666" points="466.5,-153.5 359.5,-153.5 359.5,-123.5 466.5,-123.5 466.5,-153.5"/>
<text text-anchor="start" x="367.5" y="-141.5" font-family="Helvetica,sans-Serif" font-size="10.00">quintic polynomial</text>
<text text-anchor="middle" x="413" y="-130.5" font-family="Helvetica,sans-Serif" font-size="10.00"> trajectory</text>
</a>
</g>
</g>
<!-- Node1&#45;&gt;Node10 -->
<g id="edge9" class="edge">
<title>Node1&#45;&gt;Node10</title>
<path fill="none" stroke="blueviolet" stroke-dasharray="5,2" d="M242.96,-209.29C267.24,-196.18 303.87,-177.26 337,-163.5 345.37,-160.03 354.4,-156.68 363.21,-153.63"/>
<text text-anchor="middle" x="315.5" y="-176.5" font-family="Helvetica,sans-Serif" font-size="10.00">a</text>
</g>
<!-- Node11 -->
<g id="Node000011" class="node">
<title>Node11</title>
<g id="a_Node000011"><a xlink:href="../../d9/dab/group__A__TRAJPOLY7.html" target="_top" xlink:title=" ">
<polygon fill="white" stroke="#666666" points="489,-105 337,-105 337,-86 489,-86 489,-105"/>
<text text-anchor="middle" x="413" y="-93" font-family="Helvetica,sans-Serif" font-size="10.00">hepta polynomial trajectory</text>
</a>
</g>
</g>
<!-- Node1&#45;&gt;Node11 -->
<g id="edge10" class="edge">
<title>Node1&#45;&gt;Node11</title>
<path fill="none" stroke="blueviolet" stroke-dasharray="5,2" d="M227.98,-209.16C248.27,-185.24 290.85,-139.23 337,-114.5 344.22,-110.63 352.26,-107.53 360.32,-105.04"/>
<text text-anchor="middle" x="315.5" y="-130.5" font-family="Helvetica,sans-Serif" font-size="10.00">a</text>
</g>
<!-- Node12 -->
<g id="Node000012" class="node">
<title>Node12</title>
<g id="a_Node000012"><a xlink:href="../../d7/d57/group__A__TRAJTRAP.html" target="_top" xlink:title=" ">
<polygon fill="white" stroke="#666666" points="469.5,-67.5 356.5,-67.5 356.5,-37.5 469.5,-37.5 469.5,-67.5"/>
<text text-anchor="start" x="364.5" y="-55.5" font-family="Helvetica,sans-Serif" font-size="10.00">trapezoidal velocity</text>
<text text-anchor="middle" x="413" y="-44.5" font-family="Helvetica,sans-Serif" font-size="10.00"> trajectory</text>
</a>
</g>
</g>
<!-- Node1&#45;&gt;Node12 -->
<g id="edge11" class="edge">
<title>Node1&#45;&gt;Node12</title>
<path fill="none" stroke="blueviolet" stroke-dasharray="5,2" d="M224.11,-209.2C241.56,-179.51 284.02,-113.82 337,-77.5 342.89,-73.46 349.48,-70.04 356.24,-67.14"/>
<text text-anchor="middle" x="315.5" y="-99.5" font-family="Helvetica,sans-Serif" font-size="10.00">a</text>
</g>
<!-- Node13 -->
<g id="Node000013" class="node">
<title>Node13</title>
<g id="a_Node000013"><a xlink:href="../../d2/d1b/group__A__VERSION.html" target="_top" xlink:title=" ">
<polygon fill="white" stroke="#666666" points="481.5,-19 344.5,-19 344.5,0 481.5,0 481.5,-19"/>
<text text-anchor="middle" x="413" y="-7" font-family="Helvetica,sans-Serif" font-size="10.00">algorithm library version</text>
</a>
</g>
</g>
<!-- Node1&#45;&gt;Node13 -->
<g id="edge12" class="edge">
<title>Node1&#45;&gt;Node13</title>
<path fill="none" stroke="blueviolet" stroke-dasharray="5,2" d="M220.35,-209.5C233.08,-172.56 271.1,-76.75 337,-28.5 342.31,-24.61 348.34,-21.52 354.61,-19.05"/>
<text text-anchor="middle" x="315.5" y="-51.5" font-family="Helvetica,sans-Serif" font-size="10.00">a</text>
</g>
</g>
</svg>
