<?xml version="1.0" encoding="UTF-8" standalone="no"?>
<!DOCTYPE svg PUBLIC "-//W3C//DTD SVG 1.1//EN"
 "http://www.w3.org/Graphics/SVG/1.1/DTD/svg11.dtd">
<!-- Generated by graphviz version 2.43.0 (0)
 -->
<!-- Title: three&#45;dimensional vector Pages: 1 -->
<svg width="485pt" height="861pt"
 viewBox="0.00 0.00 485.00 861.00" xmlns="http://www.w3.org/2000/svg" xmlns:xlink="http://www.w3.org/1999/xlink">
<g id="page0,1_graph0" class="graph" transform="scale(1 1) rotate(0) translate(4 857)">
<title>three&#45;dimensional vector</title>
<!-- Node3 -->
<g id="Node000003" class="node">
<title>Node3</title>
<g id="a_Node000003"><a xlink:href="../../d5/d49/group__a__hpf.html" target="_top" xlink:title=" ">
<polygon fill="white" stroke="#666666" points="443.5,-853 351.5,-853 351.5,-834 443.5,-834 443.5,-853"/>
<text text-anchor="middle" x="397.5" y="-841" font-family="Helvetica,sans-Serif" font-size="10.00">High Pass Filter</text>
</a>
</g>
</g>
<!-- Node4 -->
<g id="Node000004" class="node">
<title>Node4</title>
<g id="a_Node000004"><a xlink:href="../../dd/d35/group__a__line2.html" target="_top" xlink:title=" ">
<polygon fill="white" stroke="#666666" points="457,-816 338,-816 338,-797 457,-797 457,-816"/>
<text text-anchor="middle" x="397.5" y="-804" font-family="Helvetica,sans-Serif" font-size="10.00">two&#45;dimensional line</text>
</a>
</g>
</g>
<!-- Node5 -->
<g id="Node000005" class="node">
<title>Node5</title>
<g id="a_Node000005"><a xlink:href="../../d8/ddb/group__a__line3.html" target="_top" xlink:title=" ">
<polygon fill="white" stroke="#666666" points="461,-779 334,-779 334,-760 461,-760 461,-779"/>
<text text-anchor="middle" x="397.5" y="-767" font-family="Helvetica,sans-Serif" font-size="10.00">three&#45;dimensional line</text>
</a>
</g>
</g>
<!-- Node6 -->
<g id="Node000006" class="node">
<title>Node6</title>
<g id="a_Node000006"><a xlink:href="../../d0/dae/group__a__lpf.html" target="_top" xlink:title=" ">
<polygon fill="white" stroke="#666666" points="442,-742 353,-742 353,-723 442,-723 442,-742"/>
<text text-anchor="middle" x="397.5" y="-730" font-family="Helvetica,sans-Serif" font-size="10.00">Low Pass Filter</text>
</a>
</g>
</g>
<!-- Node7 -->
<g id="Node000007" class="node">
<title>Node7</title>
<g id="a_Node000007"><a xlink:href="../../dd/d81/group__a__pid.html" target="_top" xlink:title=" ">
<polygon fill="white" stroke="#666666" points="457,-704.5 338,-704.5 338,-674.5 457,-674.5 457,-704.5"/>
<text text-anchor="start" x="346" y="-692.5" font-family="Helvetica,sans-Serif" font-size="10.00">proportional integral</text>
<text text-anchor="middle" x="397.5" y="-681.5" font-family="Helvetica,sans-Serif" font-size="10.00"> derivative controller</text>
</a>
</g>
</g>
<!-- Node8 -->
<g id="Node000008" class="node">
<title>Node8</title>
<g id="a_Node000008"><a xlink:href="../../d9/da5/group__a__pid__fuzzy.html" target="_top" xlink:title=" ">
<polygon fill="white" stroke="#666666" points="452.5,-656 342.5,-656 342.5,-615 452.5,-615 452.5,-656"/>
<text text-anchor="start" x="350.5" y="-644" font-family="Helvetica,sans-Serif" font-size="10.00">fuzzy proportional</text>
<text text-anchor="start" x="350.5" y="-633" font-family="Helvetica,sans-Serif" font-size="10.00"> integral derivative</text>
<text text-anchor="middle" x="397.5" y="-622" font-family="Helvetica,sans-Serif" font-size="10.00"> controller</text>
</a>
</g>
</g>
<!-- Node9 -->
<g id="Node000009" class="node">
<title>Node9</title>
<g id="a_Node000009"><a xlink:href="../../d1/da2/group__a__pid__neuro.html" target="_top" xlink:title=" ">
<polygon fill="white" stroke="#666666" points="477,-596.5 318,-596.5 318,-566.5 477,-566.5 477,-596.5"/>
<text text-anchor="start" x="326" y="-584.5" font-family="Helvetica,sans-Serif" font-size="10.00">single neuron proportional</text>
<text text-anchor="middle" x="397.5" y="-573.5" font-family="Helvetica,sans-Serif" font-size="10.00"> integral derivative controller</text>
</a>
</g>
</g>
<!-- Node10 -->
<g id="Node000010" class="node">
<title>Node10</title>
<g id="a_Node000010"><a xlink:href="../../db/d44/group__a__plane.html" target="_top" xlink:title=" ">
<polygon fill="white" stroke="#666666" points="465.5,-548 329.5,-548 329.5,-529 465.5,-529 465.5,-548"/>
<text text-anchor="middle" x="397.5" y="-536" font-family="Helvetica,sans-Serif" font-size="10.00">three&#45;dimensional plane</text>
</a>
</g>
</g>
<!-- Node11 -->
<g id="Node000011" class="node">
<title>Node11</title>
<g id="a_Node000011"><a xlink:href="../../d2/d21/group__a__point2.html" target="_top" xlink:title=" ">
<polygon fill="white" stroke="#666666" points="460.5,-511 334.5,-511 334.5,-492 460.5,-492 460.5,-511"/>
<text text-anchor="middle" x="397.5" y="-499" font-family="Helvetica,sans-Serif" font-size="10.00">two&#45;dimensional point</text>
</a>
</g>
</g>
<!-- Node12 -->
<g id="Node000012" class="node">
<title>Node12</title>
<g id="a_Node000012"><a xlink:href="../../de/d3c/group__a__point3.html" target="_top" xlink:title=" ">
<polygon fill="white" stroke="#666666" points="464.5,-474 330.5,-474 330.5,-455 464.5,-455 464.5,-474"/>
<text text-anchor="middle" x="397.5" y="-462" font-family="Helvetica,sans-Serif" font-size="10.00">three&#45;dimensional point</text>
</a>
</g>
</g>
<!-- Node13 -->
<g id="Node000013" class="node">
<title>Node13</title>
<g id="a_Node000013"><a xlink:href="../../d9/d8d/group__a__rand.html" target="_top" xlink:title=" ">
<polygon fill="white" stroke="#666666" points="462.5,-436.5 332.5,-436.5 332.5,-406.5 462.5,-406.5 462.5,-436.5"/>
<text text-anchor="start" x="340.5" y="-424.5" font-family="Helvetica,sans-Serif" font-size="10.00">pseudorandom number</text>
<text text-anchor="middle" x="397.5" y="-413.5" font-family="Helvetica,sans-Serif" font-size="10.00"> generator</text>
</a>
</g>
</g>
<!-- Node14 -->
<g id="Node000014" class="node">
<title>Node14</title>
<g id="a_Node000014"><a xlink:href="../../d8/d67/group__a__regress__linear.html" target="_top" xlink:title=" ">
<polygon fill="white" stroke="#666666" points="446.5,-388 348.5,-388 348.5,-369 446.5,-369 446.5,-388"/>
<text text-anchor="middle" x="397.5" y="-376" font-family="Helvetica,sans-Serif" font-size="10.00">linear regression</text>
</a>
</g>
</g>
<!-- Node15 -->
<g id="Node000015" class="node">
<title>Node15</title>
<g id="a_Node000015"><a xlink:href="../../d9/ddc/group__a__regress__simple.html" target="_top" xlink:title=" ">
<polygon fill="white" stroke="#666666" points="464.5,-351 330.5,-351 330.5,-332 464.5,-332 464.5,-351"/>
<text text-anchor="middle" x="397.5" y="-339" font-family="Helvetica,sans-Serif" font-size="10.00">simple linear regression</text>
</a>
</g>
</g>
<!-- Node16 -->
<g id="Node000016" class="node">
<title>Node16</title>
<g id="a_Node000016"><a xlink:href="../../dd/dce/group__a__tf.html" target="_top" xlink:title=" ">
<polygon fill="white" stroke="#666666" points="446.5,-314 348.5,-314 348.5,-295 446.5,-295 446.5,-314"/>
<text text-anchor="middle" x="397.5" y="-302" font-family="Helvetica,sans-Serif" font-size="10.00">transfer function</text>
</a>
</g>
</g>
<!-- Node17 -->
<g id="Node000017" class="node">
<title>Node17</title>
<g id="a_Node000017"><a xlink:href="../../d1/d83/group__a__trajbell.html" target="_top" xlink:title=" ">
<polygon fill="white" stroke="#666666" points="455.5,-276.5 339.5,-276.5 339.5,-246.5 455.5,-246.5 455.5,-276.5"/>
<text text-anchor="start" x="347.5" y="-264.5" font-family="Helvetica,sans-Serif" font-size="10.00">bell&#45;shaped velocity</text>
<text text-anchor="middle" x="397.5" y="-253.5" font-family="Helvetica,sans-Serif" font-size="10.00"> trajectory</text>
</a>
</g>
</g>
<!-- Node18 -->
<g id="Node000018" class="node">
<title>Node18</title>
<g id="a_Node000018"><a xlink:href="../../d3/d60/group__a__trajpoly3.html" target="_top" xlink:title=" ">
<polygon fill="white" stroke="#666666" points="472.5,-228 322.5,-228 322.5,-209 472.5,-209 472.5,-228"/>
<text text-anchor="middle" x="397.5" y="-216" font-family="Helvetica,sans-Serif" font-size="10.00">cubic polynomial trajectory</text>
</a>
</g>
</g>
<!-- Node19 -->
<g id="Node000019" class="node">
<title>Node19</title>
<g id="a_Node000019"><a xlink:href="../../d6/dfe/group__a__trajpoly5.html" target="_top" xlink:title=" ">
<polygon fill="white" stroke="#666666" points="451,-190.5 344,-190.5 344,-160.5 451,-160.5 451,-190.5"/>
<text text-anchor="start" x="352" y="-178.5" font-family="Helvetica,sans-Serif" font-size="10.00">quintic polynomial</text>
<text text-anchor="middle" x="397.5" y="-167.5" font-family="Helvetica,sans-Serif" font-size="10.00"> trajectory</text>
</a>
</g>
</g>
<!-- Node20 -->
<g id="Node000020" class="node">
<title>Node20</title>
<g id="a_Node000020"><a xlink:href="../../df/d82/group__a__trajpoly7.html" target="_top" xlink:title=" ">
<polygon fill="white" stroke="#666666" points="473.5,-142 321.5,-142 321.5,-123 473.5,-123 473.5,-142"/>
<text text-anchor="middle" x="397.5" y="-130" font-family="Helvetica,sans-Serif" font-size="10.00">hepta polynomial trajectory</text>
</a>
</g>
</g>
<!-- Node21 -->
<g id="Node000021" class="node">
<title>Node21</title>
<g id="a_Node000021"><a xlink:href="../../d7/d75/group__a__trajtrap.html" target="_top" xlink:title=" ">
<polygon fill="white" stroke="#666666" points="454,-104.5 341,-104.5 341,-74.5 454,-74.5 454,-104.5"/>
<text text-anchor="start" x="349" y="-92.5" font-family="Helvetica,sans-Serif" font-size="10.00">trapezoidal velocity</text>
<text text-anchor="middle" x="397.5" y="-81.5" font-family="Helvetica,sans-Serif" font-size="10.00"> trajectory</text>
</a>
</g>
</g>
<!-- Node22 -->
<g id="Node000022" class="node">
<title>Node22</title>
<g id="a_Node000022"><a xlink:href="../../d6/d5a/group__a__vector2.html" target="_top" xlink:title=" ">
<polygon fill="white" stroke="#666666" points="463.5,-56 331.5,-56 331.5,-37 463.5,-37 463.5,-56"/>
<text text-anchor="middle" x="397.5" y="-44" font-family="Helvetica,sans-Serif" font-size="10.00">two&#45;dimensional vector</text>
</a>
</g>
</g>
<!-- Node1 -->
<g id="Node000001" class="node">
<title>Node1</title>
<g id="a_Node000001"><a xlink:title=" ">
<polygon fill="#999999" stroke="#666666" points="275,-431 135,-431 135,-412 275,-412 275,-431"/>
<text text-anchor="middle" x="205" y="-419" font-family="Helvetica,sans-Serif" font-size="10.00">three&#45;dimensional vector</text>
</a>
</g>
</g>
<!-- Node1&#45;&gt;Node3 -->
<g id="edge2" class="edge">
<title>Node1&#45;&gt;Node3</title>
<path fill="none" stroke="blueviolet" stroke-dasharray="5,2" d="M207.47,-431.1C214.1,-473.13 243.03,-644.71 293,-777.5 301.47,-800.01 298.97,-810.79 318,-825.5 327.51,-832.85 339.49,-837.3 351.21,-839.96"/>
<text text-anchor="middle" x="296.5" y="-802.5" font-family="Helvetica,sans-Serif" font-size="10.00">a</text>
</g>
<!-- Node1&#45;&gt;Node4 -->
<g id="edge3" class="edge">
<title>Node1&#45;&gt;Node4</title>
<path fill="none" stroke="blueviolet" stroke-dasharray="5,2" d="M207.77,-431.22C215.18,-470.89 245.52,-624.06 293,-742.5 301.66,-764.1 299.46,-774.43 318,-788.5 323.9,-792.98 330.73,-796.38 337.84,-798.95"/>
<text text-anchor="middle" x="296.5" y="-765.5" font-family="Helvetica,sans-Serif" font-size="10.00">a</text>
</g>
<!-- Node1&#45;&gt;Node5 -->
<g id="edge4" class="edge">
<title>Node1&#45;&gt;Node5</title>
<path fill="none" stroke="blueviolet" stroke-dasharray="5,2" d="M207.94,-431.04C215.67,-468.09 246.1,-605.48 293,-710.5 301.7,-729.99 300.68,-739.02 318,-751.5 322.76,-754.93 328.08,-757.72 333.63,-759.99"/>
<text text-anchor="middle" x="296.5" y="-730.5" font-family="Helvetica,sans-Serif" font-size="10.00">a</text>
</g>
<!-- Node1&#45;&gt;Node6 -->
<g id="edge5" class="edge">
<title>Node1&#45;&gt;Node6</title>
<path fill="none" stroke="blueviolet" stroke-dasharray="5,2" d="M206.45,-431.25C208.96,-472.86 224.62,-636.85 318,-713.5 327.86,-721.6 340.63,-726.34 353,-729.09"/>
<text text-anchor="middle" x="296.5" y="-698.5" font-family="Helvetica,sans-Serif" font-size="10.00">a</text>
</g>
<!-- Node1&#45;&gt;Node7 -->
<g id="edge6" class="edge">
<title>Node1&#45;&gt;Node7</title>
<path fill="none" stroke="blueviolet" stroke-dasharray="5,2" d="M207.53,-431.11C213.82,-467.51 241.16,-598.3 318,-665.5 323.79,-670.57 330.63,-674.56 337.83,-677.72"/>
<text text-anchor="middle" x="296.5" y="-647.5" font-family="Helvetica,sans-Serif" font-size="10.00">a</text>
</g>
<!-- Node1&#45;&gt;Node8 -->
<g id="edge7" class="edge">
<title>Node1&#45;&gt;Node8</title>
<path fill="none" stroke="blueviolet" stroke-dasharray="5,2" d="M209.24,-431.01C219.9,-460.99 256.8,-554.52 318,-605.5 325.17,-611.48 333.67,-616.34 342.37,-620.27"/>
<text text-anchor="middle" x="296.5" y="-587.5" font-family="Helvetica,sans-Serif" font-size="10.00">a</text>
</g>
<!-- Node1&#45;&gt;Node9 -->
<g id="edge8" class="edge">
<title>Node1&#45;&gt;Node9</title>
<path fill="none" stroke="blueviolet" stroke-dasharray="5,2" d="M211.15,-431.03C225.02,-455.76 265.62,-522.48 318,-557.5 323.09,-560.91 328.69,-563.84 334.48,-566.38"/>
<text text-anchor="middle" x="296.5" y="-545.5" font-family="Helvetica,sans-Serif" font-size="10.00">a</text>
</g>
<!-- Node1&#45;&gt;Node10 -->
<g id="edge9" class="edge">
<title>Node1&#45;&gt;Node10</title>
<path fill="none" stroke="blueviolet" stroke-dasharray="5,2" d="M213.86,-431.13C230.72,-451.1 272.53,-497.14 318,-520.5 324.59,-523.89 331.82,-526.64 339.13,-528.88"/>
<text text-anchor="middle" x="296.5" y="-510.5" font-family="Helvetica,sans-Serif" font-size="10.00">a</text>
</g>
<!-- Node1&#45;&gt;Node11 -->
<g id="edge10" class="edge">
<title>Node1&#45;&gt;Node11</title>
<path fill="none" stroke="blueviolet" stroke-dasharray="5,2" d="M220.22,-431.09C240.89,-444.63 280.85,-469.28 318,-483.5 326.62,-486.8 336.01,-489.59 345.21,-491.92"/>
<text text-anchor="middle" x="296.5" y="-477.5" font-family="Helvetica,sans-Serif" font-size="10.00">a</text>
</g>
<!-- Node1&#45;&gt;Node12 -->
<g id="edge11" class="edge">
<title>Node1&#45;&gt;Node12</title>
<path fill="none" stroke="blueviolet" stroke-dasharray="5,2" d="M248.28,-431.04C279.85,-438.17 322.8,-447.86 354.34,-454.98"/>
<text text-anchor="middle" x="296.5" y="-445.5" font-family="Helvetica,sans-Serif" font-size="10.00">a</text>
</g>
<!-- Node1&#45;&gt;Node13 -->
<g id="edge12" class="edge">
<title>Node1&#45;&gt;Node13</title>
<path fill="none" stroke="blueviolet" stroke-dasharray="5,2" d="M275.04,-421.5C293.78,-421.5 313.99,-421.5 332.45,-421.5"/>
<text text-anchor="middle" x="296.5" y="-424.5" font-family="Helvetica,sans-Serif" font-size="10.00">a</text>
</g>
<!-- Node1&#45;&gt;Node14 -->
<g id="edge13" class="edge">
<title>Node1&#45;&gt;Node14</title>
<path fill="none" stroke="blueviolet" stroke-dasharray="5,2" d="M248.28,-411.96C279.85,-404.83 322.8,-395.14 354.34,-388.02"/>
<text text-anchor="middle" x="296.5" y="-404.5" font-family="Helvetica,sans-Serif" font-size="10.00">a</text>
</g>
<!-- Node1&#45;&gt;Node15 -->
<g id="edge14" class="edge">
<title>Node1&#45;&gt;Node15</title>
<path fill="none" stroke="blueviolet" stroke-dasharray="5,2" d="M220.22,-411.91C240.89,-398.37 280.85,-373.72 318,-359.5 326.62,-356.2 336.01,-353.41 345.21,-351.08"/>
<text text-anchor="middle" x="296.5" y="-372.5" font-family="Helvetica,sans-Serif" font-size="10.00">a</text>
</g>
<!-- Node1&#45;&gt;Node16 -->
<g id="edge15" class="edge">
<title>Node1&#45;&gt;Node16</title>
<path fill="none" stroke="blueviolet" stroke-dasharray="5,2" d="M213.86,-411.87C230.72,-391.9 272.53,-345.86 318,-322.5 327.33,-317.71 337.93,-314.18 348.25,-311.58"/>
<text text-anchor="middle" x="296.5" y="-340.5" font-family="Helvetica,sans-Serif" font-size="10.00">a</text>
</g>
<!-- Node1&#45;&gt;Node17 -->
<g id="edge16" class="edge">
<title>Node1&#45;&gt;Node17</title>
<path fill="none" stroke="blueviolet" stroke-dasharray="5,2" d="M211.15,-411.97C225.02,-387.24 265.62,-320.52 318,-285.5 324.52,-281.14 331.86,-277.55 339.36,-274.6"/>
<text text-anchor="middle" x="296.5" y="-306.5" font-family="Helvetica,sans-Serif" font-size="10.00">a</text>
</g>
<!-- Node1&#45;&gt;Node18 -->
<g id="edge17" class="edge">
<title>Node1&#45;&gt;Node18</title>
<path fill="none" stroke="blueviolet" stroke-dasharray="5,2" d="M208.97,-411.65C218.85,-380.66 253.67,-284.48 318,-237.5 323.32,-233.61 329.34,-230.51 335.61,-228.04"/>
<text text-anchor="middle" x="296.5" y="-259.5" font-family="Helvetica,sans-Serif" font-size="10.00">a</text>
</g>
<!-- Node1&#45;&gt;Node19 -->
<g id="edge18" class="edge">
<title>Node1&#45;&gt;Node19</title>
<path fill="none" stroke="blueviolet" stroke-dasharray="5,2" d="M207.87,-411.64C215.07,-376.63 244.3,-257.33 318,-199.5 325.51,-193.61 334.47,-189.15 343.6,-185.79"/>
<text text-anchor="middle" x="296.5" y="-225.5" font-family="Helvetica,sans-Serif" font-size="10.00">a</text>
</g>
<!-- Node1&#45;&gt;Node20 -->
<g id="edge19" class="edge">
<title>Node1&#45;&gt;Node20</title>
<path fill="none" stroke="blueviolet" stroke-dasharray="5,2" d="M206.78,-411.94C210.52,-372.59 230.33,-221.85 318,-151.5 322.81,-147.64 328.29,-144.54 334.06,-142.06"/>
<text text-anchor="middle" x="296.5" y="-176.5" font-family="Helvetica,sans-Serif" font-size="10.00">a</text>
</g>
<!-- Node1&#45;&gt;Node21 -->
<g id="edge20" class="edge">
<title>Node1&#45;&gt;Node21</title>
<path fill="none" stroke="blueviolet" stroke-dasharray="5,2" d="M206.18,-411.74C207.53,-368.57 219.13,-193.48 318,-113.5 324.65,-108.12 332.49,-103.95 340.61,-100.71"/>
<text text-anchor="middle" x="296.5" y="-134.5" font-family="Helvetica,sans-Serif" font-size="10.00">a</text>
</g>
<!-- Node1&#45;&gt;Node22 -->
<g id="edge21" class="edge">
<title>Node1&#45;&gt;Node22</title>
<path fill="none" stroke="blueviolet" stroke-dasharray="5,2" d="M205.55,-411.75C203.95,-364.43 203.8,-157.15 318,-65.5 322.81,-61.64 328.29,-58.54 334.06,-56.06"/>
<text text-anchor="middle" x="296.5" y="-89.5" font-family="Helvetica,sans-Serif" font-size="10.00">a</text>
</g>
<!-- Node23 -->
<g id="Node000023" class="node">
<title>Node23</title>
<g id="a_Node000023"><a xlink:href="../../d2/d6c/group__a__version.html" target="_top" xlink:title=" ">
<polygon fill="white" stroke="#666666" points="466,-19 329,-19 329,0 466,0 466,-19"/>
<text text-anchor="middle" x="397.5" y="-7" font-family="Helvetica,sans-Serif" font-size="10.00">algorithm library version</text>
</a>
</g>
</g>
<!-- Node1&#45;&gt;Node23 -->
<g id="edge22" class="edge">
<title>Node1&#45;&gt;Node23</title>
<path fill="none" stroke="blueviolet" stroke-dasharray="5,2" d="M207.42,-411.73C213.75,-369.75 241.3,-200.87 293,-71.5 301.35,-50.61 299.96,-40.93 318,-27.5 322.6,-24.08 327.74,-21.29 333.13,-19.02"/>
<text text-anchor="middle" x="296.5" y="-74.5" font-family="Helvetica,sans-Serif" font-size="10.00">a</text>
</g>
<!-- Node2 -->
<g id="Node000002" class="node">
<title>Node2</title>
<g id="a_Node000002"><a xlink:href="../../d2/d6b/group__liba.html" target="_top" xlink:title=" ">
<polygon fill="white" stroke="#666666" points="98,-431 0,-431 0,-412 98,-412 98,-431"/>
<text text-anchor="middle" x="49" y="-419" font-family="Helvetica,sans-Serif" font-size="10.00">algorithm library</text>
</a>
</g>
</g>
<!-- Node2&#45;&gt;Node1 -->
<g id="edge1" class="edge">
<title>Node2&#45;&gt;Node1</title>
<path fill="none" stroke="black" d="M108.34,-421.5C117.05,-421.5 126.1,-421.5 135,-421.5"/>
<polygon fill="black" stroke="black" points="108.3,-418 98.3,-421.5 108.3,-425 108.3,-418"/>
</g>
</g>
</svg>
