<?xml version="1.0" encoding="UTF-8" standalone="no"?>
<!DOCTYPE svg PUBLIC "-//W3C//DTD SVG 1.1//EN"
 "http://www.w3.org/Graphics/SVG/1.1/DTD/svg11.dtd">
<!-- Generated by graphviz version 2.43.0 (0)
 -->
<!-- Title: algorithm library Pages: 1 -->
<!--zoomable 1739 -->

<svg id="main" version="1.1" xmlns="http://www.w3.org/2000/svg" xmlns:xlink="http://www.w3.org/1999/xlink" xml:space="preserve" onload="init(evt)">

<style type="text/css"><![CDATA[
.node, .edge {opacity: 0.7;}
.node.selected, .edge.selected {opacity: 1;}
.edge:hover path { stroke: red; }
.edge:hover polygon { stroke: red; fill: red; }
]]></style>

<defs>
  <circle id="rim" cx="0" cy="0" r="7"/>
  <circle id="rim2" cx="0" cy="0" r="3.5"/>
  <g id="zoomPlus">
    <use xlink:href="#rim" fill="#404040"><set attributeName="fill" to="#808080" begin="zoomplus.mouseover" end="zoomplus.mouseout"/></use>
    <path d="M-4,0h8M0,-4v8" fill="none" stroke="white" stroke-width="1.5" pointer-events="none"/>
  </g>
  <g id="zoomMin">
    <use xlink:href="#rim" fill="#404040"><set attributeName="fill" to="#808080" begin="zoomminus.mouseover" end="zoomminus.mouseout"/></use>
    <path d="M-4,0h8" fill="none" stroke="white" stroke-width="1.5" pointer-events="none"/>
  </g>
  <g id="arrowUp" transform="translate(30 24)">
    <use xlink:href="#rim"/>
    <path pointer-events="none" fill="none" stroke="white" stroke-width="1.5" d="M0,-3.0v7 M-2.5,-0.5L0,-3.0L2.5,-0.5"/>
  </g>
  <g id="arrowRight" transform="rotate(90) translate(36 -43)">
    <use xlink:href="#rim"/>
    <path pointer-events="none" fill="none" stroke="white" stroke-width="1.5" d="M0,-3.0v7 M-2.5,-0.5L0,-3.0L2.5,-0.5"/>
  </g>
  <g id="arrowDown" transform="rotate(180) translate(-30 -48)">
    <use xlink:href="#rim"/>
    <path pointer-events="none" fill="none" stroke="white" stroke-width="1.5" d="M0,-3.0v7 M-2.5,-0.5L0,-3.0L2.5,-0.5"/>
  </g>
  <g id="arrowLeft" transform="rotate(270) translate(-36 17)">
    <use xlink:href="#rim"/>
    <path pointer-events="none" fill="none" stroke="white" stroke-width="1.5" d="M0,-3.0v7 M-2.5,-0.5L0,-3.0L2.5,-0.5"/>
  </g>
  <g id="resetDef">
    <use xlink:href="#rim2" fill="#404040"><set attributeName="fill" to="#808080" begin="reset.mouseover" end="reset.mouseout"/></use>
  </g>
</defs>
<script type="application/ecmascript">
var viewWidth = 301;
var viewHeight = 1739;
var sectionId = 'dynsection-0';
</script>
<script type="application/ecmascript" xlink:href="../../svg.min.js"/>
<svg id="graph" class="graph">
<g id="viewport">
<title>algorithm library</title>
<!-- Node3 -->
<g id="Node000003" class="node">
<title>Node3</title>
<g id="a_Node000003"><a xlink:href="../../dd/dba/group__a__avl.html" target="_top" xlink:title=" ">
<polygon fill="white" stroke="#666666" points="276.5,-1731 150.5,-1731 150.5,-1712 276.5,-1712 276.5,-1731"/>
<text text-anchor="middle" x="213.5" y="-1719" font-family="Helvetica,sans-Serif" font-size="10.00">AVL binary search tree</text>
</a>
</g>
</g>
<!-- Node4 -->
<g id="Node000004" class="node">
<title>Node4</title>
<g id="a_Node000004"><a xlink:href="../../d9/d97/group__a__bounding.html" target="_top" xlink:title=" ">
<polygon fill="white" stroke="#666666" points="264,-1694 163,-1694 163,-1675 264,-1675 264,-1694"/>
<text text-anchor="middle" x="213.5" y="-1682" font-family="Helvetica,sans-Serif" font-size="10.00">bounding volume</text>
</a>
</g>
</g>
<!-- Node5 -->
<g id="Node000005" class="node">
<title>Node5</title>
<g id="a_Node000005"><a xlink:href="../../d9/d0a/group__a__buf.html" target="_top" xlink:title=" ">
<polygon fill="white" stroke="#666666" points="267.5,-1657 159.5,-1657 159.5,-1638 267.5,-1638 267.5,-1657"/>
<text text-anchor="middle" x="213.5" y="-1645" font-family="Helvetica,sans-Serif" font-size="10.00">basic buffer library</text>
</a>
</g>
</g>
<!-- Node6 -->
<g id="Node000006" class="node">
<title>Node6</title>
<g id="a_Node000006"><a xlink:href="../../de/d1c/group__a__complex.html" target="_top" xlink:title=" ">
<polygon fill="white" stroke="#666666" points="263,-1620 164,-1620 164,-1601 263,-1601 263,-1620"/>
<text text-anchor="middle" x="213.5" y="-1608" font-family="Helvetica,sans-Serif" font-size="10.00">complex number</text>
</a>
</g>
</g>
<!-- Node7 -->
<g id="Node000007" class="node">
<title>Node7</title>
<g id="a_Node000007"><a xlink:href="../../d4/d2d/group__a__convexhull.html" target="_top" xlink:title=" ">
<polygon fill="white" stroke="#666666" points="277.5,-1583 149.5,-1583 149.5,-1564 277.5,-1564 277.5,-1583"/>
<text text-anchor="middle" x="213.5" y="-1571" font-family="Helvetica,sans-Serif" font-size="10.00">convex hull algorithms</text>
</a>
</g>
</g>
<!-- Node8 -->
<g id="Node000008" class="node">
<title>Node8</title>
<g id="a_Node000008"><a xlink:href="../../d0/de2/group__a__crc.html" target="_top" xlink:title=" ">
<polygon fill="white" stroke="#666666" points="284.5,-1546 142.5,-1546 142.5,-1527 284.5,-1527 284.5,-1546"/>
<text text-anchor="middle" x="213.5" y="-1534" font-family="Helvetica,sans-Serif" font-size="10.00">Cyclic Redundancy Check</text>
</a>
</g>
</g>
<!-- Node9 -->
<g id="Node000009" class="node">
<title>Node9</title>
<g id="a_Node000009"><a xlink:href="../../d4/dfa/group__a__fuzzy.html" target="_top" xlink:title=" ">
<polygon fill="white" stroke="#666666" points="257,-1509 170,-1509 170,-1490 257,-1490 257,-1509"/>
<text text-anchor="middle" x="213.5" y="-1497" font-family="Helvetica,sans-Serif" font-size="10.00">fuzzy operator</text>
</a>
</g>
</g>
<!-- Node10 -->
<g id="Node000010" class="node">
<title>Node10</title>
<g id="a_Node000010"><a xlink:href="../../d3/d7f/group__a__hash.html" target="_top" xlink:title=" ">
<polygon fill="white" stroke="#666666" points="255,-1472 172,-1472 172,-1453 255,-1453 255,-1472"/>
<text text-anchor="middle" x="213.5" y="-1460" font-family="Helvetica,sans-Serif" font-size="10.00">hash function</text>
</a>
</g>
</g>
<!-- Node11 -->
<g id="Node000011" class="node">
<title>Node11</title>
<g id="a_Node000011"><a xlink:href="../../d5/d49/group__a__hpf.html" target="_top" xlink:title=" ">
<polygon fill="white" stroke="#666666" points="259.5,-1435 167.5,-1435 167.5,-1416 259.5,-1416 259.5,-1435"/>
<text text-anchor="middle" x="213.5" y="-1423" font-family="Helvetica,sans-Serif" font-size="10.00">High Pass Filter</text>
</a>
</g>
</g>
<!-- Node12 -->
<g id="Node000012" class="node">
<title>Node12</title>
<g id="a_Node000012"><a xlink:href="../../dd/d07/group__a__linalg.html" target="_top" xlink:title=" ">
<polygon fill="white" stroke="#666666" points="279.5,-1398 147.5,-1398 147.5,-1379 279.5,-1379 279.5,-1398"/>
<text text-anchor="middle" x="213.5" y="-1386" font-family="Helvetica,sans-Serif" font-size="10.00">linear algebra functions</text>
</a>
</g>
</g>
<!-- Node13 -->
<g id="Node000013" class="node">
<title>Node13</title>
<g id="a_Node000013"><a xlink:href="../../dd/d35/group__a__line2.html" target="_top" xlink:title=" ">
<polygon fill="white" stroke="#666666" points="278,-1360.5 149,-1360.5 149,-1308.5 278,-1308.5 278,-1360.5"/>
<text text-anchor="start" x="157" y="-1348.5" font-family="Helvetica,sans-Serif" font-size="10.00">two&#45;dimensional line</text>
<text text-anchor="start" x="157" y="-1337.5" font-family="Helvetica,sans-Serif" font-size="10.00"> defined by an origin,</text>
<text text-anchor="start" x="157" y="-1326.5" font-family="Helvetica,sans-Serif" font-size="10.00"> a direction vector, and</text>
<text text-anchor="middle" x="213.5" y="-1315.5" font-family="Helvetica,sans-Serif" font-size="10.00"> a length</text>
</a>
</g>
</g>
<!-- Node14 -->
<g id="Node000014" class="node">
<title>Node14</title>
<g id="a_Node000014"><a xlink:href="../../d8/ddb/group__a__line3.html" target="_top" xlink:title=" ">
<polygon fill="white" stroke="#666666" points="278,-1290.5 149,-1290.5 149,-1238.5 278,-1238.5 278,-1290.5"/>
<text text-anchor="start" x="157" y="-1278.5" font-family="Helvetica,sans-Serif" font-size="10.00">three&#45;dimensional line</text>
<text text-anchor="start" x="157" y="-1267.5" font-family="Helvetica,sans-Serif" font-size="10.00"> defined by an origin,</text>
<text text-anchor="start" x="157" y="-1256.5" font-family="Helvetica,sans-Serif" font-size="10.00"> a direction vector, and</text>
<text text-anchor="middle" x="213.5" y="-1245.5" font-family="Helvetica,sans-Serif" font-size="10.00"> a length</text>
</a>
</g>
</g>
<!-- Node15 -->
<g id="Node000015" class="node">
<title>Node15</title>
<g id="a_Node000015"><a xlink:href="../../db/d65/group__a__list.html" target="_top" xlink:title=" ">
<polygon fill="white" stroke="#666666" points="283,-1220 144,-1220 144,-1201 283,-1201 283,-1220"/>
<text text-anchor="middle" x="213.5" y="-1208" font-family="Helvetica,sans-Serif" font-size="10.00">circular doubly linked list</text>
</a>
</g>
</g>
<!-- Node16 -->
<g id="Node000016" class="node">
<title>Node16</title>
<g id="a_Node000016"><a xlink:href="../../d0/dae/group__a__lpf.html" target="_top" xlink:title=" ">
<polygon fill="white" stroke="#666666" points="258,-1183 169,-1183 169,-1164 258,-1164 258,-1183"/>
<text text-anchor="middle" x="213.5" y="-1171" font-family="Helvetica,sans-Serif" font-size="10.00">Low Pass Filter</text>
</a>
</g>
</g>
<!-- Node17 -->
<g id="Node000017" class="node">
<title>Node17</title>
<g id="a_Node000017"><a xlink:href="../../d2/d44/group__a__math.html" target="_top" xlink:title=" ">
<polygon fill="white" stroke="#666666" points="281,-1145.5 146,-1145.5 146,-1115.5 281,-1115.5 281,-1145.5"/>
<text text-anchor="start" x="154" y="-1133.5" font-family="Helvetica,sans-Serif" font-size="10.00">mathematical algorithm</text>
<text text-anchor="middle" x="213.5" y="-1122.5" font-family="Helvetica,sans-Serif" font-size="10.00"> library</text>
</a>
</g>
</g>
<!-- Node18 -->
<g id="Node000018" class="node">
<title>Node18</title>
<g id="a_Node000018"><a xlink:href="../../df/d67/group__a__mf.html" target="_top" xlink:title=" ">
<polygon fill="white" stroke="#666666" points="274,-1097 153,-1097 153,-1078 274,-1078 274,-1097"/>
<text text-anchor="middle" x="213.5" y="-1085" font-family="Helvetica,sans-Serif" font-size="10.00">membership function</text>
</a>
</g>
</g>
<!-- Node19 -->
<g id="Node000019" class="node">
<title>Node19</title>
<g id="a_Node000019"><a xlink:href="../../db/ddd/group__a__notefreq.html" target="_top" xlink:title=" ">
<polygon fill="white" stroke="#666666" points="272.5,-1060 154.5,-1060 154.5,-1041 272.5,-1041 272.5,-1060"/>
<text text-anchor="middle" x="213.5" y="-1048" font-family="Helvetica,sans-Serif" font-size="10.00">note frequency table</text>
</a>
</g>
</g>
<!-- Node20 -->
<g id="Node000020" class="node">
<title>Node20</title>
<g id="a_Node000020"><a xlink:href="../../dd/d81/group__a__pid.html" target="_top" xlink:title=" ">
<polygon fill="white" stroke="#666666" points="273,-1022.5 154,-1022.5 154,-992.5 273,-992.5 273,-1022.5"/>
<text text-anchor="start" x="162" y="-1010.5" font-family="Helvetica,sans-Serif" font-size="10.00">proportional integral</text>
<text text-anchor="middle" x="213.5" y="-999.5" font-family="Helvetica,sans-Serif" font-size="10.00"> derivative controller</text>
</a>
</g>
</g>
<!-- Node21 -->
<g id="Node000021" class="node">
<title>Node21</title>
<g id="a_Node000021"><a xlink:href="../../d9/da5/group__a__pid__fuzzy.html" target="_top" xlink:title=" ">
<polygon fill="white" stroke="#666666" points="268.5,-974 158.5,-974 158.5,-933 268.5,-933 268.5,-974"/>
<text text-anchor="start" x="166.5" y="-962" font-family="Helvetica,sans-Serif" font-size="10.00">fuzzy proportional</text>
<text text-anchor="start" x="166.5" y="-951" font-family="Helvetica,sans-Serif" font-size="10.00"> integral derivative</text>
<text text-anchor="middle" x="213.5" y="-940" font-family="Helvetica,sans-Serif" font-size="10.00"> controller</text>
</a>
</g>
</g>
<!-- Node22 -->
<g id="Node000022" class="node">
<title>Node22</title>
<g id="a_Node000022"><a xlink:href="../../d1/da2/group__a__pid__neuro.html" target="_top" xlink:title=" ">
<polygon fill="white" stroke="#666666" points="293,-914.5 134,-914.5 134,-884.5 293,-884.5 293,-914.5"/>
<text text-anchor="start" x="142" y="-902.5" font-family="Helvetica,sans-Serif" font-size="10.00">single neuron proportional</text>
<text text-anchor="middle" x="213.5" y="-891.5" font-family="Helvetica,sans-Serif" font-size="10.00"> integral derivative controller</text>
</a>
</g>
</g>
<!-- Node23 -->
<g id="Node000023" class="node">
<title>Node23</title>
<g id="a_Node000023"><a xlink:href="../../db/d44/group__a__plane.html" target="_top" xlink:title=" ">
<polygon fill="white" stroke="#666666" points="281.5,-866 145.5,-866 145.5,-847 281.5,-847 281.5,-866"/>
<text text-anchor="middle" x="213.5" y="-854" font-family="Helvetica,sans-Serif" font-size="10.00">three&#45;dimensional plane</text>
</a>
</g>
</g>
<!-- Node24 -->
<g id="Node000024" class="node">
<title>Node24</title>
<g id="a_Node000024"><a xlink:href="../../d2/d21/group__a__point2.html" target="_top" xlink:title=" ">
<polygon fill="white" stroke="#666666" points="276.5,-829 150.5,-829 150.5,-810 276.5,-810 276.5,-829"/>
<text text-anchor="middle" x="213.5" y="-817" font-family="Helvetica,sans-Serif" font-size="10.00">two&#45;dimensional point</text>
</a>
</g>
</g>
<!-- Node25 -->
<g id="Node000025" class="node">
<title>Node25</title>
<g id="a_Node000025"><a xlink:href="../../de/d3c/group__a__point3.html" target="_top" xlink:title=" ">
<polygon fill="white" stroke="#666666" points="280.5,-792 146.5,-792 146.5,-773 280.5,-773 280.5,-792"/>
<text text-anchor="middle" x="213.5" y="-780" font-family="Helvetica,sans-Serif" font-size="10.00">three&#45;dimensional point</text>
</a>
</g>
</g>
<!-- Node26 -->
<g id="Node000026" class="node">
<title>Node26</title>
<g id="a_Node000026"><a xlink:href="../../d1/d14/group__a__poly.html" target="_top" xlink:title=" ">
<polygon fill="white" stroke="#666666" points="249,-755 178,-755 178,-736 249,-736 249,-755"/>
<text text-anchor="middle" x="213.5" y="-743" font-family="Helvetica,sans-Serif" font-size="10.00">polynomial</text>
</a>
</g>
</g>
<!-- Node27 -->
<g id="Node000027" class="node">
<title>Node27</title>
<g id="a_Node000027"><a xlink:href="../../df/d21/group__a__que.html" target="_top" xlink:title=" ">
<polygon fill="white" stroke="#666666" points="268.5,-718 158.5,-718 158.5,-699 268.5,-699 268.5,-718"/>
<text text-anchor="middle" x="213.5" y="-706" font-family="Helvetica,sans-Serif" font-size="10.00">basic queue library</text>
</a>
</g>
</g>
<!-- Node28 -->
<g id="Node000028" class="node">
<title>Node28</title>
<g id="a_Node000028"><a xlink:href="../../d9/d8d/group__a__rand.html" target="_top" xlink:title=" ">
<polygon fill="white" stroke="#666666" points="278.5,-680.5 148.5,-680.5 148.5,-650.5 278.5,-650.5 278.5,-680.5"/>
<text text-anchor="start" x="156.5" y="-668.5" font-family="Helvetica,sans-Serif" font-size="10.00">pseudorandom number</text>
<text text-anchor="middle" x="213.5" y="-657.5" font-family="Helvetica,sans-Serif" font-size="10.00"> generator</text>
</a>
</g>
</g>
<!-- Node29 -->
<g id="Node000029" class="node">
<title>Node29</title>
<g id="a_Node000029"><a xlink:href="../../de/d40/group__a__rbt.html" target="_top" xlink:title=" ">
<polygon fill="white" stroke="#666666" points="262.5,-632.5 164.5,-632.5 164.5,-602.5 262.5,-602.5 262.5,-632.5"/>
<text text-anchor="start" x="172.5" y="-620.5" font-family="Helvetica,sans-Serif" font-size="10.00">red–black binary</text>
<text text-anchor="middle" x="213.5" y="-609.5" font-family="Helvetica,sans-Serif" font-size="10.00"> search tree</text>
</a>
</g>
</g>
<!-- Node2 -->
<g id="Node000002" class="node">
<title>Node2</title>
<g id="a_Node000002"><a xlink:href="../../d5/d19/group__a__real.html" target="_top" xlink:title=" ">
<polygon fill="white" stroke="#666666" points="274.5,-584 152.5,-584 152.5,-565 274.5,-565 274.5,-584"/>
<text text-anchor="middle" x="213.5" y="-572" font-family="Helvetica,sans-Serif" font-size="10.00">floating&#45;point number</text>
</a>
</g>
</g>
<!-- Node30 -->
<g id="Node000030" class="node">
<title>Node30</title>
<g id="a_Node000030"><a xlink:href="../../d7/d8d/group__a__regress.html" target="_top" xlink:title=" ">
<polygon fill="white" stroke="#666666" points="247.5,-547 179.5,-547 179.5,-528 247.5,-528 247.5,-547"/>
<text text-anchor="middle" x="213.5" y="-535" font-family="Helvetica,sans-Serif" font-size="10.00">regression</text>
</a>
</g>
</g>
<!-- Node31 -->
<g id="Node000031" class="node">
<title>Node31</title>
<g id="a_Node000031"><a xlink:href="../../d9/d14/group__a__slist.html" target="_top" xlink:title=" ">
<polygon fill="white" stroke="#666666" points="261.5,-510 165.5,-510 165.5,-491 261.5,-491 261.5,-510"/>
<text text-anchor="middle" x="213.5" y="-498" font-family="Helvetica,sans-Serif" font-size="10.00">singly linked list</text>
</a>
</g>
</g>
<!-- Node32 -->
<g id="Node000032" class="node">
<title>Node32</title>
<g id="a_Node000032"><a xlink:href="../../df/d28/group__a__str.html" target="_top" xlink:title=" ">
<polygon fill="white" stroke="#666666" points="267,-473 160,-473 160,-454 267,-454 267,-473"/>
<text text-anchor="middle" x="213.5" y="-461" font-family="Helvetica,sans-Serif" font-size="10.00">basic string library</text>
</a>
</g>
</g>
<!-- Node33 -->
<g id="Node000033" class="node">
<title>Node33</title>
<g id="a_Node000033"><a xlink:href="../../dd/dce/group__a__tf.html" target="_top" xlink:title=" ">
<polygon fill="white" stroke="#666666" points="262.5,-436 164.5,-436 164.5,-417 262.5,-417 262.5,-436"/>
<text text-anchor="middle" x="213.5" y="-424" font-family="Helvetica,sans-Serif" font-size="10.00">transfer function</text>
</a>
</g>
</g>
<!-- Node34 -->
<g id="Node000034" class="node">
<title>Node34</title>
<g id="a_Node000034"><a xlink:href="../../d1/d83/group__a__trajbell.html" target="_top" xlink:title=" ">
<polygon fill="white" stroke="#666666" points="271.5,-398.5 155.5,-398.5 155.5,-368.5 271.5,-368.5 271.5,-398.5"/>
<text text-anchor="start" x="163.5" y="-386.5" font-family="Helvetica,sans-Serif" font-size="10.00">bell&#45;shaped velocity</text>
<text text-anchor="middle" x="213.5" y="-375.5" font-family="Helvetica,sans-Serif" font-size="10.00"> trajectory</text>
</a>
</g>
</g>
<!-- Node35 -->
<g id="Node000035" class="node">
<title>Node35</title>
<g id="a_Node000035"><a xlink:href="../../d3/d60/group__a__trajpoly3.html" target="_top" xlink:title=" ">
<polygon fill="white" stroke="#666666" points="288.5,-350 138.5,-350 138.5,-331 288.5,-331 288.5,-350"/>
<text text-anchor="middle" x="213.5" y="-338" font-family="Helvetica,sans-Serif" font-size="10.00">cubic polynomial trajectory</text>
</a>
</g>
</g>
<!-- Node36 -->
<g id="Node000036" class="node">
<title>Node36</title>
<g id="a_Node000036"><a xlink:href="../../d6/dfe/group__a__trajpoly5.html" target="_top" xlink:title=" ">
<polygon fill="white" stroke="#666666" points="267,-312.5 160,-312.5 160,-282.5 267,-282.5 267,-312.5"/>
<text text-anchor="start" x="168" y="-300.5" font-family="Helvetica,sans-Serif" font-size="10.00">quintic polynomial</text>
<text text-anchor="middle" x="213.5" y="-289.5" font-family="Helvetica,sans-Serif" font-size="10.00"> trajectory</text>
</a>
</g>
</g>
<!-- Node37 -->
<g id="Node000037" class="node">
<title>Node37</title>
<g id="a_Node000037"><a xlink:href="../../df/d82/group__a__trajpoly7.html" target="_top" xlink:title=" ">
<polygon fill="white" stroke="#666666" points="289.5,-264 137.5,-264 137.5,-245 289.5,-245 289.5,-264"/>
<text text-anchor="middle" x="213.5" y="-252" font-family="Helvetica,sans-Serif" font-size="10.00">hepta polynomial trajectory</text>
</a>
</g>
</g>
<!-- Node38 -->
<g id="Node000038" class="node">
<title>Node38</title>
<g id="a_Node000038"><a xlink:href="../../d7/d75/group__a__trajtrap.html" target="_top" xlink:title=" ">
<polygon fill="white" stroke="#666666" points="270,-226.5 157,-226.5 157,-196.5 270,-196.5 270,-226.5"/>
<text text-anchor="start" x="165" y="-214.5" font-family="Helvetica,sans-Serif" font-size="10.00">trapezoidal velocity</text>
<text text-anchor="middle" x="213.5" y="-203.5" font-family="Helvetica,sans-Serif" font-size="10.00"> trajectory</text>
</a>
</g>
</g>
<!-- Node39 -->
<g id="Node000039" class="node">
<title>Node39</title>
<g id="a_Node000039"><a xlink:href="../../d9/dba/group__a__utf.html" target="_top" xlink:title=" ">
<polygon fill="white" stroke="#666666" points="280,-178.5 147,-178.5 147,-148.5 280,-148.5 280,-178.5"/>
<text text-anchor="start" x="155" y="-166.5" font-family="Helvetica,sans-Serif" font-size="10.00">Unicode Transformation</text>
<text text-anchor="middle" x="213.5" y="-155.5" font-family="Helvetica,sans-Serif" font-size="10.00"> Format</text>
</a>
</g>
</g>
<!-- Node40 -->
<g id="Node000040" class="node">
<title>Node40</title>
<g id="a_Node000040"><a xlink:href="../../da/dc4/group__a__vec.html" target="_top" xlink:title=" ">
<polygon fill="white" stroke="#666666" points="268.5,-130 158.5,-130 158.5,-111 268.5,-111 268.5,-130"/>
<text text-anchor="middle" x="213.5" y="-118" font-family="Helvetica,sans-Serif" font-size="10.00">basic vector library</text>
</a>
</g>
</g>
<!-- Node41 -->
<g id="Node000041" class="node">
<title>Node41</title>
<g id="a_Node000041"><a xlink:href="../../d6/d5a/group__a__vector2.html" target="_top" xlink:title=" ">
<polygon fill="white" stroke="#666666" points="279.5,-93 147.5,-93 147.5,-74 279.5,-74 279.5,-93"/>
<text text-anchor="middle" x="213.5" y="-81" font-family="Helvetica,sans-Serif" font-size="10.00">two&#45;dimensional vector</text>
</a>
</g>
</g>
<!-- Node42 -->
<g id="Node000042" class="node">
<title>Node42</title>
<g id="a_Node000042"><a xlink:href="../../d5/db6/group__a__vector3.html" target="_top" xlink:title=" ">
<polygon fill="white" stroke="#666666" points="283.5,-56 143.5,-56 143.5,-37 283.5,-37 283.5,-56"/>
<text text-anchor="middle" x="213.5" y="-44" font-family="Helvetica,sans-Serif" font-size="10.00">three&#45;dimensional vector</text>
</a>
</g>
</g>
<!-- Node43 -->
<g id="Node000043" class="node">
<title>Node43</title>
<g id="a_Node000043"><a xlink:href="../../d2/d6c/group__a__version.html" target="_top" xlink:title=" ">
<polygon fill="white" stroke="#666666" points="282,-19 145,-19 145,0 282,0 282,-19"/>
<text text-anchor="middle" x="213.5" y="-7" font-family="Helvetica,sans-Serif" font-size="10.00">algorithm library version</text>
</a>
</g>
</g>
<!-- Node1 -->
<g id="Node000001" class="node">
<title>Node1</title>
<g id="a_Node000001"><a xlink:title=" ">
<polygon fill="#999999" stroke="#666666" points="98,-847 0,-847 0,-828 98,-828 98,-847"/>
<text text-anchor="middle" x="49" y="-835" font-family="Helvetica,sans-Serif" font-size="10.00">algorithm library</text>
</a>
</g>
</g>
<!-- Node1&#45;&gt;Node3 -->
<g id="edge2" class="edge">
<title>Node1&#45;&gt;Node3</title>
<path fill="none" stroke="black" d="M50.56,-857.53C54.21,-981.21 76.22,-1637.76 134,-1703.5 138.52,-1708.65 144.19,-1712.48 150.4,-1715.32"/>
<polygon fill="black" stroke="black" points="54.05,-857.16 50.27,-847.27 47.06,-857.36 54.05,-857.16"/>
</g>
<!-- Node1&#45;&gt;Node4 -->
<g id="edge3" class="edge">
<title>Node1&#45;&gt;Node4</title>
<path fill="none" stroke="black" d="M50.65,-857.41C54.75,-977.66 78.64,-1603.79 134,-1666.5 141.4,-1674.89 151.84,-1679.79 162.7,-1682.57"/>
<polygon fill="black" stroke="black" points="54.14,-857 50.31,-847.12 47.14,-857.24 54.14,-857"/>
</g>
<!-- Node1&#45;&gt;Node5 -->
<g id="edge4" class="edge">
<title>Node1&#45;&gt;Node5</title>
<path fill="none" stroke="black" d="M50.74,-857.26C55.3,-973.93 81.06,-1569.81 134,-1629.5 140.68,-1637.03 149.81,-1641.75 159.49,-1644.64"/>
<polygon fill="black" stroke="black" points="54.24,-857.09 50.36,-847.23 47.24,-857.36 54.24,-857.09"/>
</g>
<!-- Node1&#45;&gt;Node6 -->
<g id="edge5" class="edge">
<title>Node1&#45;&gt;Node6</title>
<path fill="none" stroke="black" d="M50.85,-857.37C55.92,-971.05 83.51,-1535.87 134,-1592.5 141.72,-1601.16 152.69,-1606.1 163.98,-1608.82"/>
<polygon fill="black" stroke="black" points="54.34,-856.88 50.4,-847.04 47.34,-857.18 54.34,-856.88"/>
</g>
<!-- Node1&#45;&gt;Node7 -->
<g id="edge6" class="edge">
<title>Node1&#45;&gt;Node7</title>
<path fill="none" stroke="black" d="M50.96,-857.09C56.51,-966.78 85.9,-1501.86 134,-1555.5 138.29,-1560.29 143.58,-1563.94 149.36,-1566.7"/>
<polygon fill="black" stroke="black" points="54.45,-856.89 50.46,-847.08 47.46,-857.24 54.45,-856.89"/>
</g>
<!-- Node1&#45;&gt;Node8 -->
<g id="edge7" class="edge">
<title>Node1&#45;&gt;Node8</title>
<path fill="none" stroke="black" d="M51.11,-857.4C57.24,-964.36 88.38,-1467.94 134,-1518.5 137,-1521.82 140.47,-1524.59 144.26,-1526.9"/>
<polygon fill="black" stroke="black" points="54.6,-857.12 50.54,-847.33 47.61,-857.51 54.6,-857.12"/>
</g>
<!-- Node1&#45;&gt;Node9 -->
<g id="edge8" class="edge">
<title>Node1&#45;&gt;Node9</title>
<path fill="none" stroke="black" d="M49.67,-857.38C48.45,-955.47 48.12,-1386.98 134,-1481.5 143.12,-1491.54 156.6,-1496.55 169.82,-1498.91"/>
<polygon fill="black" stroke="black" points="53.17,-857.39 49.81,-847.34 46.17,-857.29 53.17,-857.39"/>
</g>
<!-- Node1&#45;&gt;Node10 -->
<g id="edge9" class="edge">
<title>Node1&#45;&gt;Node10</title>
<path fill="none" stroke="black" d="M49.84,-857.41C49.52,-952.12 52.96,-1356 134,-1444.5 143.63,-1455.02 158.05,-1460.01 171.91,-1462.21"/>
<polygon fill="black" stroke="black" points="53.34,-857.24 49.9,-847.22 46.34,-857.2 53.34,-857.24"/>
</g>
<!-- Node1&#45;&gt;Node11 -->
<g id="edge10" class="edge">
<title>Node1&#45;&gt;Node11</title>
<path fill="none" stroke="black" d="M50.04,-857.33C50.64,-948.34 57.75,-1324.97 134,-1407.5 142.63,-1416.85 155.05,-1421.82 167.47,-1424.35"/>
<polygon fill="black" stroke="black" points="53.54,-857.05 49.99,-847.06 46.54,-857.08 53.54,-857.05"/>
</g>
<!-- Node1&#45;&gt;Node12 -->
<g id="edge11" class="edge">
<title>Node1&#45;&gt;Node12</title>
<path fill="none" stroke="black" d="M50.29,-857.37C51.99,-944.6 63.17,-1292.7 134,-1369.5 137.8,-1373.62 142.33,-1376.92 147.27,-1379.55"/>
<polygon fill="black" stroke="black" points="53.79,-857.18 50.12,-847.25 46.79,-857.31 53.79,-857.18"/>
</g>
<!-- Node1&#45;&gt;Node13 -->
<g id="edge12" class="edge">
<title>Node1&#45;&gt;Node13</title>
<path fill="none" stroke="black" d="M51.19,-857.45C56.26,-936.75 78.46,-1228.76 134,-1299.5 138.15,-1304.78 143.26,-1309.29 148.87,-1313.13"/>
<polygon fill="black" stroke="black" points="54.67,-857.11 50.56,-847.35 47.68,-857.54 54.67,-857.11"/>
</g>
<!-- Node1&#45;&gt;Node14 -->
<g id="edge13" class="edge">
<title>Node1&#45;&gt;Node14</title>
<path fill="none" stroke="black" d="M51.9,-857.54C59.05,-929.08 86.36,-1170.73 134,-1229.5 138.13,-1234.6 143.17,-1238.98 148.67,-1242.74"/>
<polygon fill="black" stroke="black" points="55.35,-856.85 50.9,-847.24 48.39,-857.53 55.35,-856.85"/>
</g>
<!-- Node1&#45;&gt;Node15 -->
<g id="edge14" class="edge">
<title>Node1&#45;&gt;Node15</title>
<path fill="none" stroke="black" d="M51.96,-857.26C59.03,-924.7 85.47,-1144.3 134,-1192.5 137.37,-1195.85 141.24,-1198.63 145.4,-1200.93"/>
<polygon fill="black" stroke="black" points="55.42,-856.74 50.92,-847.14 48.46,-857.45 55.42,-856.74"/>
</g>
<!-- Node1&#45;&gt;Node16 -->
<g id="edge15" class="edge">
<title>Node1&#45;&gt;Node16</title>
<path fill="none" stroke="black" d="M52.56,-857.12C61.1,-919.54 90.52,-1111.95 134,-1154.5 143.32,-1163.62 156.23,-1168.62 168.89,-1171.29"/>
<polygon fill="black" stroke="black" points="56.01,-856.49 51.21,-847.04 49.07,-857.42 56.01,-856.49"/>
</g>
<!-- Node1&#45;&gt;Node17 -->
<g id="edge16" class="edge">
<title>Node1&#45;&gt;Node17</title>
<path fill="none" stroke="black" d="M50.22,-857.48C51.89,-906.93 63.17,-1036.09 134,-1106.5 137.54,-1110.02 141.58,-1113.02 145.91,-1115.59"/>
<polygon fill="black" stroke="black" points="53.72,-857.11 49.98,-847.2 46.72,-857.28 53.72,-857.11"/>
</g>
<!-- Node1&#45;&gt;Node18 -->
<g id="edge17" class="edge">
<title>Node1&#45;&gt;Node18</title>
<path fill="none" stroke="black" d="M51.06,-857.43C54.58,-902.46 69.67,-1012.57 134,-1069.5 139.44,-1074.32 145.92,-1077.92 152.77,-1080.61"/>
<polygon fill="black" stroke="black" points="54.54,-856.97 50.38,-847.23 47.55,-857.44 54.54,-856.97"/>
</g>
<!-- Node1&#45;&gt;Node19 -->
<g id="edge18" class="edge">
<title>Node1&#45;&gt;Node19</title>
<path fill="none" stroke="black" d="M52.69,-857.33C59.13,-896.8 79.2,-985.36 134,-1031.5 139.9,-1036.47 146.89,-1040.18 154.22,-1042.94"/>
<polygon fill="black" stroke="black" points="56.14,-856.73 51.19,-847.37 49.22,-857.78 56.14,-856.73"/>
</g>
<!-- Node1&#45;&gt;Node20 -->
<g id="edge19" class="edge">
<title>Node1&#45;&gt;Node20</title>
<path fill="none" stroke="black" d="M56.01,-857.1C66.62,-888.44 91.65,-949.76 134,-983.5 139.91,-988.21 146.73,-991.99 153.84,-995.04"/>
<polygon fill="black" stroke="black" points="59.26,-855.79 52.85,-847.35 52.6,-857.95 59.26,-855.79"/>
</g>
<!-- Node1&#45;&gt;Node21 -->
<g id="edge20" class="edge">
<title>Node1&#45;&gt;Node21</title>
<path fill="none" stroke="black" d="M63.21,-854.99C78.44,-874.1 105.11,-904.52 134,-923.5 141.44,-928.39 149.79,-932.65 158.2,-936.3"/>
<polygon fill="black" stroke="black" points="65.96,-852.82 57.05,-847.09 60.44,-857.12 65.96,-852.82"/>
</g>
<!-- Node1&#45;&gt;Node22 -->
<g id="edge21" class="edge">
<title>Node1&#45;&gt;Node22</title>
<path fill="none" stroke="black" d="M78.75,-851.61C94.8,-859.21 115.27,-868.43 134,-875.5 142.27,-878.62 151.13,-881.63 159.83,-884.41"/>
<polygon fill="black" stroke="black" points="79.92,-848.29 69.39,-847.13 76.9,-854.6 79.92,-848.29"/>
</g>
<!-- Node1&#45;&gt;Node23 -->
<g id="edge22" class="edge">
<title>Node1&#45;&gt;Node23</title>
<path fill="none" stroke="black" d="M108.6,-844.35C120.55,-845.75 133.21,-847.23 145.42,-848.66"/>
<polygon fill="black" stroke="black" points="108.65,-840.83 98.32,-843.15 107.84,-847.79 108.65,-840.83"/>
</g>
<!-- Node1&#45;&gt;Node24 -->
<g id="edge23" class="edge">
<title>Node1&#45;&gt;Node24</title>
<path fill="none" stroke="black" d="M108.53,-831.02C122.16,-829.51 136.72,-827.89 150.49,-826.37"/>
<polygon fill="black" stroke="black" points="107.87,-827.57 98.32,-832.15 108.64,-834.53 107.87,-827.57"/>
</g>
<!-- Node1&#45;&gt;Node25 -->
<g id="edge24" class="edge">
<title>Node1&#45;&gt;Node25</title>
<path fill="none" stroke="black" d="M78.99,-823.65C94.97,-816.38 115.3,-807.72 134,-801.5 144.64,-797.96 156.3,-794.78 167.3,-792.07"/>
<polygon fill="black" stroke="black" points="77.27,-820.59 69.66,-827.96 80.21,-826.94 77.27,-820.59"/>
</g>
<!-- Node1&#45;&gt;Node26 -->
<g id="edge25" class="edge">
<title>Node1&#45;&gt;Node26</title>
<path fill="none" stroke="black" d="M65.03,-820.33C80.64,-803.6 106.56,-778.66 134,-764.5 147.46,-757.55 163.53,-753.09 177.62,-750.24"/>
<polygon fill="black" stroke="black" points="62.38,-818.05 58.24,-827.81 67.56,-822.76 62.38,-818.05"/>
</g>
<!-- Node1&#45;&gt;Node27 -->
<g id="edge26" class="edge">
<title>Node1&#45;&gt;Node27</title>
<path fill="none" stroke="black" d="M59.15,-818.66C72.23,-793.83 98.62,-750.58 134,-727.5 141.28,-722.75 149.64,-719.19 158.13,-716.51"/>
<polygon fill="black" stroke="black" points="55.93,-817.28 54.52,-827.78 62.17,-820.45 55.93,-817.28"/>
</g>
<!-- Node1&#45;&gt;Node28 -->
<g id="edge27" class="edge">
<title>Node1&#45;&gt;Node28</title>
<path fill="none" stroke="black" d="M55.86,-818.28C66.39,-786.94 91.47,-724.89 134,-690.5 138.78,-686.63 144.17,-683.36 149.83,-680.59"/>
<polygon fill="black" stroke="black" points="52.47,-817.4 52.74,-827.99 59.13,-819.54 52.47,-817.4"/>
</g>
<!-- Node1&#45;&gt;Node29 -->
<g id="edge28" class="edge">
<title>Node1&#45;&gt;Node29</title>
<path fill="none" stroke="black" d="M52.86,-817.75C59.61,-778.37 80.22,-689.76 134,-641.5 142.49,-633.89 153.33,-628.69 164.24,-625.14"/>
<polygon fill="black" stroke="black" points="49.4,-817.25 51.28,-827.68 56.31,-818.35 49.4,-817.25"/>
</g>
<!-- Node1&#45;&gt;Node2 -->
<g id="edge1" class="edge">
<title>Node1&#45;&gt;Node2</title>
<path fill="none" stroke="black" d="M50.71,-817.57C53.48,-770.99 67.11,-654.38 134,-593.5 139.29,-588.69 145.59,-585.04 152.28,-582.28"/>
<polygon fill="black" stroke="black" points="47.2,-817.66 50.21,-827.82 54.19,-818 47.2,-817.66"/>
</g>
<!-- Node1&#45;&gt;Node30 -->
<g id="edge29" class="edge">
<title>Node1&#45;&gt;Node30</title>
<path fill="none" stroke="black" d="M49.65,-817.73C49.88,-766.55 57.92,-628.65 134,-556.5 146.01,-545.11 163.62,-540.19 179.13,-538.19"/>
<polygon fill="black" stroke="black" points="46.15,-817.81 49.71,-827.79 53.15,-817.77 46.15,-817.81"/>
</g>
<!-- Node1&#45;&gt;Node31 -->
<g id="edge30" class="edge">
<title>Node1&#45;&gt;Node31</title>
<path fill="none" stroke="black" d="M52.55,-817.82C61.06,-755.2 90.41,-562.19 134,-519.5 142.41,-511.26 153.76,-506.38 165.2,-503.54"/>
<polygon fill="black" stroke="black" points="49.06,-817.55 51.21,-827.93 56,-818.48 49.06,-817.55"/>
</g>
<!-- Node1&#45;&gt;Node32 -->
<g id="edge31" class="edge">
<title>Node1&#45;&gt;Node32</title>
<path fill="none" stroke="black" d="M51.98,-817.76C59.12,-750.39 85.76,-530.99 134,-482.5 141.02,-475.44 150.19,-470.84 159.77,-467.87"/>
<polygon fill="black" stroke="black" points="48.48,-817.56 50.93,-827.87 55.44,-818.28 48.48,-817.56"/>
</g>
<!-- Node1&#45;&gt;Node33 -->
<g id="edge32" class="edge">
<title>Node1&#45;&gt;Node33</title>
<path fill="none" stroke="black" d="M51.51,-817.62C57.4,-745.61 81.1,-499.82 134,-445.5 142.02,-437.26 152.96,-432.35 164.12,-429.48"/>
<polygon fill="black" stroke="black" points="48,-817.72 50.7,-827.97 54.97,-818.27 48,-817.72"/>
</g>
<!-- Node1&#45;&gt;Node34 -->
<g id="edge33" class="edge">
<title>Node1&#45;&gt;Node34</title>
<path fill="none" stroke="black" d="M51.24,-817.84C56.4,-742.17 78.53,-470.75 134,-408.5 139.8,-401.99 147.3,-397.16 155.35,-393.58"/>
<polygon fill="black" stroke="black" points="47.74,-817.69 50.58,-827.9 54.73,-818.15 47.74,-817.69"/>
</g>
<!-- Node1&#45;&gt;Node35 -->
<g id="edge34" class="edge">
<title>Node1&#45;&gt;Node35</title>
<path fill="none" stroke="black" d="M50.68,-817.62C53.89,-735.97 70.12,-427.58 134,-359.5 137.55,-355.72 141.71,-352.63 146.24,-350.12"/>
<polygon fill="black" stroke="black" points="47.17,-817.84 50.3,-827.96 54.17,-818.1 47.17,-817.84"/>
</g>
<!-- Node1&#45;&gt;Node36 -->
<g id="edge35" class="edge">
<title>Node1&#45;&gt;Node36</title>
<path fill="none" stroke="black" d="M50.55,-817.57C53.28,-732.28 68.07,-398.88 134,-322.5 140.82,-314.6 150.14,-309.17 159.97,-305.44"/>
<polygon fill="black" stroke="black" points="47.04,-817.61 50.24,-827.71 54.04,-817.82 47.04,-817.61"/>
</g>
<!-- Node1&#45;&gt;Node37 -->
<g id="edge36" class="edge">
<title>Node1&#45;&gt;Node37</title>
<path fill="none" stroke="black" d="M50.1,-817.59C50.96,-727.1 59.06,-355.48 134,-273.5 137.5,-269.67 141.63,-266.55 146.13,-264.02"/>
<polygon fill="black" stroke="black" points="46.6,-817.59 50.02,-827.61 53.6,-817.64 46.6,-817.59"/>
</g>
<!-- Node1&#45;&gt;Node38 -->
<g id="edge37" class="edge">
<title>Node1&#45;&gt;Node38</title>
<path fill="none" stroke="black" d="M50.03,-817.92C50.57,-724.78 57.38,-327.34 134,-236.5 139.99,-229.39 148,-224.28 156.62,-220.62"/>
<polygon fill="black" stroke="black" points="46.53,-817.93 49.99,-827.94 53.53,-817.95 46.53,-817.93"/>
</g>
<!-- Node1&#45;&gt;Node39 -->
<g id="edge38" class="edge">
<title>Node1&#45;&gt;Node39</title>
<path fill="none" stroke="black" d="M49.78,-817.56C49.08,-719.13 50.84,-285.96 134,-187.5 137.59,-183.25 141.9,-179.74 146.64,-176.85"/>
<polygon fill="black" stroke="black" points="46.28,-817.66 49.87,-827.63 53.28,-817.6 46.28,-817.66"/>
</g>
<!-- Node1&#45;&gt;Node40 -->
<g id="edge39" class="edge">
<title>Node1&#45;&gt;Node40</title>
<path fill="none" stroke="black" d="M51.05,-817.8C56.95,-709.73 87.55,-191.77 134,-139.5 140.43,-132.27 149.09,-127.55 158.32,-124.53"/>
<polygon fill="black" stroke="black" points="47.54,-817.77 50.5,-827.94 54.53,-818.14 47.54,-817.77"/>
</g>
<!-- Node1&#45;&gt;Node41 -->
<g id="edge40" class="edge">
<title>Node1&#45;&gt;Node41</title>
<path fill="none" stroke="black" d="M50.92,-817.81C56.3,-706.38 85.14,-157.81 134,-102.5 137.81,-98.19 142.41,-94.78 147.45,-92.08"/>
<polygon fill="black" stroke="black" points="47.42,-817.8 50.44,-827.96 54.41,-818.14 47.42,-817.8"/>
</g>
<!-- Node1&#45;&gt;Node42 -->
<g id="edge41" class="edge">
<title>Node1&#45;&gt;Node42</title>
<path fill="none" stroke="black" d="M50.82,-817.54C55.72,-702.18 82.76,-123.82 134,-65.5 137.33,-61.71 141.28,-58.61 145.6,-56.08"/>
<polygon fill="black" stroke="black" points="47.31,-817.61 50.39,-827.75 54.31,-817.91 47.31,-817.61"/>
</g>
<!-- Node1&#45;&gt;Node43 -->
<g id="edge42" class="edge">
<title>Node1&#45;&gt;Node43</title>
<path fill="none" stroke="black" d="M50.71,-817.7C55.11,-699.49 80.31,-89.91 134,-28.5 137.32,-24.7 141.26,-21.59 145.58,-19.06"/>
<polygon fill="black" stroke="black" points="47.21,-817.72 50.34,-827.84 54.2,-817.97 47.21,-817.72"/>
</g>
</g>
</svg>

<g id="navigator" transform="translate(0 0)" fill="#404254">
  <rect fill="#f2f5e9" fill-opacity="0.5" stroke="#606060" stroke-width=".5" x="0" y="0" width="60" height="60"/>
  <use id="zoomplus" xlink:href="#zoomPlus" x="17" y="9" onmousedown="handleZoom(evt,'in')"/>
  <use id="zoomminus" xlink:href="#zoomMin" x="42" y="9" onmousedown="handleZoom(evt,'out')"/>
  <use id="reset" xlink:href="#resetDef" x="30" y="36" onmousedown="handleReset()"/>
   <use id="arrowup" xlink:href="#arrowUp" x="0" y="0" onmousedown="handlePan(0,-1)"/>
  <use id="arrowright" xlink:href="#arrowRight" x="0" y="0" onmousedown="handlePan(1,0)"/>
  <use id="arrowdown" xlink:href="#arrowDown" x="0" y="0" onmousedown="handlePan(0,1)"/>
  <use id="arrowleft" xlink:href="#arrowLeft" x="0" y="0" onmousedown="handlePan(-1,0)"/>
</g>
<svg viewBox="0 0 15 15" width="100%" height="30px" preserveAspectRatio="xMaxYMin meet">
 <g id="arrow_out" transform="scale(0.3 0.3)">
  <a xlink:href="group__liba_org.svg" target="_base">
   <rect id="button" ry="5" rx="5" y="6" x="6" height="38" width="38"
        fill="#f2f5e9" fill-opacity="0.5" stroke="#606060" stroke-width="1.0"/>
   <path id="arrow"
     d="M 11.500037,31.436501 C 11.940474,20.09759 22.043105,11.32322 32.158766,21.979434 L 37.068811,17.246167 C 37.068811,17.246167 37.088388,32 37.088388,32 L 22.160133,31.978069 C 22.160133,31.978069 26.997745,27.140456 26.997745,27.140456 C 18.528582,18.264221 13.291696,25.230495 11.500037,31.436501 z"
     style="fill:#404040;"/>
  </a>
 </g>
</svg>

<style type='text/css'>
<![CDATA[
[data-mouse-over-selected='false'] { opacity: 0.7; }
[data-mouse-over-selected='true']  { opacity: 1.0; }
]]>
</style>
<script type="application/ecmascript"><![CDATA[
document.addEventListener('DOMContentLoaded', (event) => {
  highlightEdges();
  highlightAdjacentNodes();
});
]]></script>
</svg>
