<?xml version="1.0" encoding="UTF-8" standalone="no"?>
<!DOCTYPE svg PUBLIC "-//W3C//DTD SVG 1.1//EN"
 "http://www.w3.org/Graphics/SVG/1.1/DTD/svg11.dtd">
<!-- Generated by graphviz version 2.43.0 (0)
 -->
<!-- Title: proportional integral derivative controller Pages: 1 -->
<svg width="464pt" height="406pt"
 viewBox="0.00 0.00 464.00 406.00" xmlns="http://www.w3.org/2000/svg" xmlns:xlink="http://www.w3.org/1999/xlink">
<g id="graph0" class="graph" transform="scale(1 1) rotate(0) translate(4 402)">
<title>proportional integral derivative controller</title>
<!-- Node2 -->
<g id="Node000002" class="node">
<title>Node2</title>
<g id="a_Node000002"><a xlink:href="../../df/d91/group__A.html" target="_top" xlink:title=" ">
<polygon fill="white" stroke="#666666" points="98,-194 0,-194 0,-175 98,-175 98,-194"/>
<text text-anchor="middle" x="49" y="-182" font-family="Helvetica,sans-Serif" font-size="10.00">algorithm library</text>
</a>
</g>
</g>
<!-- Node1 -->
<g id="Node000001" class="node">
<title>Node1</title>
<g id="a_Node000001"><a xlink:title=" ">
<polygon fill="#999999" stroke="#666666" points="254,-199.5 135,-199.5 135,-169.5 254,-169.5 254,-199.5"/>
<text text-anchor="start" x="143" y="-187.5" font-family="Helvetica,sans-Serif" font-size="10.00">proportional integral</text>
<text text-anchor="middle" x="194.5" y="-176.5" font-family="Helvetica,sans-Serif" font-size="10.00"> derivative controller</text>
</a>
</g>
</g>
<!-- Node2&#45;&gt;Node1 -->
<g id="edge1" class="edge">
<title>Node2&#45;&gt;Node1</title>
<path fill="none" stroke="black" d="M108.34,-184.5C117.13,-184.5 126.19,-184.5 134.99,-184.5"/>
<polygon fill="black" stroke="black" points="108.18,-181 98.18,-184.5 108.18,-188 108.18,-181"/>
</g>
<!-- Node3 -->
<g id="Node000003" class="node">
<title>Node3</title>
<g id="a_Node000003"><a xlink:href="../../dd/d71/group__A__HPF.html" target="_top" xlink:title=" ">
<polygon fill="white" stroke="#666666" points="422.5,-398 330.5,-398 330.5,-379 422.5,-379 422.5,-398"/>
<text text-anchor="middle" x="376.5" y="-386" font-family="Helvetica,sans-Serif" font-size="10.00">High Pass Filter</text>
</a>
</g>
</g>
<!-- Node4 -->
<g id="Node000004" class="node">
<title>Node4</title>
<g id="a_Node000004"><a xlink:href="../../df/d27/group__A__LPF.html" target="_top" xlink:title=" ">
<polygon fill="white" stroke="#666666" points="421,-361 332,-361 332,-342 421,-342 421,-361"/>
<text text-anchor="middle" x="376.5" y="-349" font-family="Helvetica,sans-Serif" font-size="10.00">Low Pass Filter</text>
</a>
</g>
</g>
<!-- Node1&#45;&gt;Node3 -->
<g id="edge2" class="edge">
<title>Node1&#45;&gt;Node3</title>
<path fill="none" stroke="blueviolet" stroke-dasharray="5,2" d="M198.86,-199.64C207.78,-235.9 235.67,-327.89 297,-370.5 306.76,-377.28 318.69,-381.54 330.28,-384.21"/>
<text text-anchor="middle" x="275.5" y="-354.5" font-family="Helvetica,sans-Serif" font-size="10.00">a</text>
</g>
<!-- Node1&#45;&gt;Node4 -->
<g id="edge3" class="edge">
<title>Node1&#45;&gt;Node4</title>
<path fill="none" stroke="blueviolet" stroke-dasharray="5,2" d="M201.26,-199.52C213.75,-229.94 246.34,-298.91 297,-333.5 307.28,-340.52 319.9,-344.83 331.99,-347.47"/>
<text text-anchor="middle" x="275.5" y="-320.5" font-family="Helvetica,sans-Serif" font-size="10.00">a</text>
</g>
<!-- Node5 -->
<g id="Node000005" class="node">
<title>Node5</title>
<g id="a_Node000005"><a xlink:href="../../dc/db1/group__A__PID__FUZZY.html" target="_top" xlink:title=" ">
<polygon fill="white" stroke="#666666" points="431.5,-324 321.5,-324 321.5,-283 431.5,-283 431.5,-324"/>
<text text-anchor="start" x="329.5" y="-312" font-family="Helvetica,sans-Serif" font-size="10.00">fuzzy proportional</text>
<text text-anchor="start" x="329.5" y="-301" font-family="Helvetica,sans-Serif" font-size="10.00"> integral derivative</text>
<text text-anchor="middle" x="376.5" y="-290" font-family="Helvetica,sans-Serif" font-size="10.00"> controller</text>
</a>
</g>
</g>
<!-- Node1&#45;&gt;Node5 -->
<g id="edge4" class="edge">
<title>Node1&#45;&gt;Node5</title>
<path fill="none" stroke="blueviolet" stroke-dasharray="5,2" d="M209.32,-199.56C227.74,-218.9 262.07,-252.45 297,-273.5 304.5,-278.02 312.79,-282.07 321.1,-285.62"/>
<text text-anchor="middle" x="275.5" y="-263.5" font-family="Helvetica,sans-Serif" font-size="10.00">a</text>
</g>
<!-- Node6 -->
<g id="Node000006" class="node">
<title>Node6</title>
<g id="a_Node000006"><a xlink:href="../../db/d33/group__A__PID__NEURO.html" target="_top" xlink:title=" ">
<polygon fill="white" stroke="#666666" points="456,-264.5 297,-264.5 297,-234.5 456,-234.5 456,-264.5"/>
<text text-anchor="start" x="305" y="-252.5" font-family="Helvetica,sans-Serif" font-size="10.00">single neuron proportional</text>
<text text-anchor="middle" x="376.5" y="-241.5" font-family="Helvetica,sans-Serif" font-size="10.00"> integral derivative controller</text>
</a>
</g>
</g>
<!-- Node1&#45;&gt;Node6 -->
<g id="edge5" class="edge">
<title>Node1&#45;&gt;Node6</title>
<path fill="none" stroke="blueviolet" stroke-dasharray="5,2" d="M230.91,-199.69C250.28,-207.77 274.79,-217.63 297,-225.5 305.6,-228.54 314.8,-231.57 323.77,-234.39"/>
<text text-anchor="middle" x="275.5" y="-220.5" font-family="Helvetica,sans-Serif" font-size="10.00">a</text>
</g>
<!-- Node7 -->
<g id="Node000007" class="node">
<title>Node7</title>
<g id="a_Node000007"><a xlink:href="../../d4/d5e/group__A__POLYTRAJ3.html" target="_top" xlink:title=" ">
<polygon fill="white" stroke="#666666" points="451.5,-216 301.5,-216 301.5,-197 451.5,-197 451.5,-216"/>
<text text-anchor="middle" x="376.5" y="-204" font-family="Helvetica,sans-Serif" font-size="10.00">cubic polynomial trajectory</text>
</a>
</g>
</g>
<!-- Node1&#45;&gt;Node7 -->
<g id="edge6" class="edge">
<title>Node1&#45;&gt;Node7</title>
<path fill="none" stroke="blueviolet" stroke-dasharray="5,2" d="M254.44,-191.7C269.41,-193.53 285.68,-195.52 301.3,-197.43"/>
<text text-anchor="middle" x="275.5" y="-196.5" font-family="Helvetica,sans-Serif" font-size="10.00">a</text>
</g>
<!-- Node8 -->
<g id="Node000008" class="node">
<title>Node8</title>
<g id="a_Node000008"><a xlink:href="../../d5/d8e/group__A__POLYTRAJ5.html" target="_top" xlink:title=" ">
<polygon fill="white" stroke="#666666" points="430,-178.5 323,-178.5 323,-148.5 430,-148.5 430,-178.5"/>
<text text-anchor="start" x="331" y="-166.5" font-family="Helvetica,sans-Serif" font-size="10.00">quintic polynomial</text>
<text text-anchor="middle" x="376.5" y="-155.5" font-family="Helvetica,sans-Serif" font-size="10.00"> trajectory</text>
</a>
</g>
</g>
<!-- Node1&#45;&gt;Node8 -->
<g id="edge7" class="edge">
<title>Node1&#45;&gt;Node8</title>
<path fill="none" stroke="blueviolet" stroke-dasharray="5,2" d="M254.35,-175.76C260.31,-174.96 266.27,-174.19 272,-173.5 288.49,-171.52 306.49,-169.67 322.8,-168.11"/>
<text text-anchor="middle" x="275.5" y="-176.5" font-family="Helvetica,sans-Serif" font-size="10.00">a</text>
</g>
<!-- Node9 -->
<g id="Node000009" class="node">
<title>Node9</title>
<g id="a_Node000009"><a xlink:href="../../de/d6e/group__A__POLYTRAJ7.html" target="_top" xlink:title=" ">
<polygon fill="white" stroke="#666666" points="452.5,-130 300.5,-130 300.5,-111 452.5,-111 452.5,-130"/>
<text text-anchor="middle" x="376.5" y="-118" font-family="Helvetica,sans-Serif" font-size="10.00">hepta polynomial trajectory</text>
</a>
</g>
</g>
<!-- Node1&#45;&gt;Node9 -->
<g id="edge8" class="edge">
<title>Node1&#45;&gt;Node9</title>
<path fill="none" stroke="blueviolet" stroke-dasharray="5,2" d="M225.58,-169.45C245.48,-159.92 272.36,-147.87 297,-139.5 307.49,-135.94 318.98,-132.76 329.86,-130.08"/>
<text text-anchor="middle" x="275.5" y="-150.5" font-family="Helvetica,sans-Serif" font-size="10.00">a</text>
</g>
<!-- Node10 -->
<g id="Node000010" class="node">
<title>Node10</title>
<g id="a_Node000010"><a xlink:href="../../dd/dd8/group__A__RBF.html" target="_top" xlink:title=" ">
<polygon fill="white" stroke="#666666" points="434.5,-93 318.5,-93 318.5,-74 434.5,-74 434.5,-93"/>
<text text-anchor="middle" x="376.5" y="-81" font-family="Helvetica,sans-Serif" font-size="10.00">radial basis function</text>
</a>
</g>
</g>
<!-- Node1&#45;&gt;Node10 -->
<g id="edge9" class="edge">
<title>Node1&#45;&gt;Node10</title>
<path fill="none" stroke="blueviolet" stroke-dasharray="5,2" d="M209.83,-169.38C228.25,-150.83 262.06,-119.75 297,-102.5 304.8,-98.65 313.42,-95.55 322.01,-93.07"/>
<text text-anchor="middle" x="275.5" y="-119.5" font-family="Helvetica,sans-Serif" font-size="10.00">a</text>
</g>
<!-- Node11 -->
<g id="Node000011" class="node">
<title>Node11</title>
<g id="a_Node000011"><a xlink:href="../../d0/ddd/group__A__TF.html" target="_top" xlink:title=" ">
<polygon fill="white" stroke="#666666" points="425.5,-56 327.5,-56 327.5,-37 425.5,-37 425.5,-56"/>
<text text-anchor="middle" x="376.5" y="-44" font-family="Helvetica,sans-Serif" font-size="10.00">transfer function</text>
</a>
</g>
</g>
<!-- Node1&#45;&gt;Node11 -->
<g id="edge10" class="edge">
<title>Node1&#45;&gt;Node11</title>
<path fill="none" stroke="blueviolet" stroke-dasharray="5,2" d="M203.97,-169.43C219.15,-143.88 253.51,-92.23 297,-65.5 306.08,-59.92 316.69,-55.98 327.11,-53.2"/>
<text text-anchor="middle" x="275.5" y="-85.5" font-family="Helvetica,sans-Serif" font-size="10.00">a</text>
</g>
<!-- Node12 -->
<g id="Node000012" class="node">
<title>Node12</title>
<g id="a_Node000012"><a xlink:href="../../d2/d1b/group__A__VERSION.html" target="_top" xlink:title=" ">
<polygon fill="white" stroke="#666666" points="445,-19 308,-19 308,0 445,0 445,-19"/>
<text text-anchor="middle" x="376.5" y="-7" font-family="Helvetica,sans-Serif" font-size="10.00">algorithm library version</text>
</a>
</g>
</g>
<!-- Node1&#45;&gt;Node12 -->
<g id="edge11" class="edge">
<title>Node1&#45;&gt;Node12</title>
<path fill="none" stroke="blueviolet" stroke-dasharray="5,2" d="M200.79,-169.09C212.59,-137.14 244.26,-63.66 297,-27.5 301.96,-24.1 307.47,-21.33 313.2,-19.09"/>
<text text-anchor="middle" x="275.5" y="-49.5" font-family="Helvetica,sans-Serif" font-size="10.00">a</text>
</g>
</g>
</svg>
