<?xml version="1.0" encoding="UTF-8" standalone="no"?>
<!DOCTYPE svg PUBLIC "-//W3C//DTD SVG 1.1//EN"
 "http://www.w3.org/Graphics/SVG/1.1/DTD/svg11.dtd">
<!-- Generated by graphviz version 2.43.0 (0)
 -->
<!-- Title: host/que.h Pages: 1 -->
<svg width="272pt" height="192pt"
 viewBox="0.00 0.00 271.50 192.00" xmlns="http://www.w3.org/2000/svg" xmlns:xlink="http://www.w3.org/1999/xlink">

<svg id="main" version="1.1" xmlns="http://www.w3.org/2000/svg" xmlns:xlink="http://www.w3.org/1999/xlink" xml:space="preserve" onload="init(evt)">
<style type="text/css"><![CDATA[
.node, .edge {opacity: 0.7;}
.node.selected, .edge.selected {opacity: 1;}
.edge:hover path { stroke: red; }
.edge:hover polygon { stroke: red; fill: red; }
]]></style>
<script type="application/ecmascript" xlink:href="../../svg.min.js"/>
<svg id="graph" class="graph">
<g id="graph0" class="graph" transform="scale(1 1) rotate(0) translate(4 188)">
<title>host/que.h</title>
<!-- Node1 -->
<g id="Node000001" class="node">
<title>Node1</title>
<g id="a_Node000001"><a xlink:title="basic queue library">
<polygon fill="#999999" stroke="#666666" points="199,-184 131,-184 131,-165 199,-165 199,-184"/>
<text text-anchor="middle" x="165" y="-172" font-family="Helvetica,sans-Serif" font-size="10.00">host/que.h</text>
</a>
</g>
</g>
<!-- Node2 -->
<g id="Node000002" class="node">
<title>Node2</title>
<g id="a_Node000002"><a xlink:href="../../d0/d97/host_2a_8h.html" target="_top" xlink:title="algorithm library on host">
<polygon fill="white" stroke="#666666" points="211,-129 179,-129 179,-110 211,-110 211,-129"/>
<text text-anchor="middle" x="195" y="-117" font-family="Helvetica,sans-Serif" font-size="10.00">a.h</text>
</a>
</g>
</g>
<!-- Node1&#45;&gt;Node2 -->
<g id="edge1_Node000001_Node000002" class="edge">
<title>Node1&#45;&gt;Node2</title>
<g id="a_edge1_Node000001_Node000002"><a xlink:title=" ">
<path fill="none" stroke="#63b8ff" d="M169.95,-164.75C174.06,-157.49 180.03,-146.95 185.1,-137.98"/>
<polygon fill="#63b8ff" stroke="#63b8ff" points="188.26,-139.52 190.14,-129.09 182.17,-136.07 188.26,-139.52"/>
</a>
</g>
</g>
<!-- Node9 -->
<g id="Node000009" class="node">
<title>Node9</title>
<g id="a_Node000009"><a xlink:href="../../da/d23/list_8h.html" target="_top" xlink:title="circular doubly linked list implementation">
<polygon fill="white" stroke="#666666" points="161,-129 111,-129 111,-110 161,-110 161,-129"/>
<text text-anchor="middle" x="136" y="-117" font-family="Helvetica,sans-Serif" font-size="10.00">../list.h</text>
</a>
</g>
</g>
<!-- Node1&#45;&gt;Node9 -->
<g id="edge8_Node000001_Node000009" class="edge">
<title>Node1&#45;&gt;Node9</title>
<g id="a_edge8_Node000001_Node000009"><a xlink:title=" ">
<path fill="none" stroke="#63b8ff" d="M160.21,-164.75C156.24,-157.49 150.47,-146.95 145.57,-137.98"/>
<polygon fill="#63b8ff" stroke="#63b8ff" points="148.57,-136.18 140.7,-129.09 142.43,-139.54 148.57,-136.18"/>
</a>
</g>
</g>
<!-- Node3 -->
<g id="Node000003" class="node">
<title>Node3</title>
<g id="a_Node000003"><a xlink:href="../../d2/d62/a_8h.html" target="_top" xlink:title="algorithm library">
<polygon fill="white" stroke="#666666" points="156.5,-74 115.5,-74 115.5,-55 156.5,-55 156.5,-74"/>
<text text-anchor="middle" x="136" y="-62" font-family="Helvetica,sans-Serif" font-size="10.00">../a.h</text>
</a>
</g>
</g>
<!-- Node2&#45;&gt;Node3 -->
<g id="edge2_Node000002_Node000003" class="edge">
<title>Node2&#45;&gt;Node3</title>
<g id="a_edge2_Node000002_Node000003"><a xlink:title=" ">
<path fill="none" stroke="#63b8ff" d="M185.52,-109.98C176.8,-102.15 163.66,-90.34 153.1,-80.86"/>
<polygon fill="#63b8ff" stroke="#63b8ff" points="155.43,-78.25 145.65,-74.17 150.75,-83.46 155.43,-78.25"/>
</a>
</g>
</g>
<!-- Node8 -->
<g id="Node000008" class="node">
<title>Node8</title>
<g id="a_Node000008"><a xlink:title=" ">
<polygon fill="#e0e0e0" stroke="#999999" points="227.5,-74 174.5,-74 174.5,-55 227.5,-55 227.5,-74"/>
<text text-anchor="middle" x="201" y="-62" font-family="Helvetica,sans-Serif" font-size="10.00">stdlib.h</text>
</a>
</g>
</g>
<!-- Node2&#45;&gt;Node8 -->
<g id="edge7_Node000002_Node000008" class="edge">
<title>Node2&#45;&gt;Node8</title>
<g id="a_edge7_Node000002_Node000008"><a xlink:title=" ">
<path fill="none" stroke="#63b8ff" d="M195.99,-109.75C196.78,-102.8 197.9,-92.85 198.89,-84.13"/>
<polygon fill="#63b8ff" stroke="#63b8ff" points="202.38,-84.42 200.03,-74.09 195.42,-83.63 202.38,-84.42"/>
</a>
</g>
</g>
<!-- Node4 -->
<g id="Node000004" class="node">
<title>Node4</title>
<g id="a_Node000004"><a xlink:title=" ">
<polygon fill="#e0e0e0" stroke="#999999" points="56,-19 0,-19 0,0 56,0 56,-19"/>
<text text-anchor="middle" x="28" y="-7" font-family="Helvetica,sans-Serif" font-size="10.00">stddef.h</text>
</a>
</g>
</g>
<!-- Node3&#45;&gt;Node4 -->
<g id="edge3_Node000003_Node000004" class="edge">
<title>Node3&#45;&gt;Node4</title>
<g id="a_edge3_Node000003_Node000004"><a xlink:title=" ">
<path fill="none" stroke="#63b8ff" d="M118.65,-54.98C101.43,-46.54 74.8,-33.47 54.85,-23.68"/>
<polygon fill="#63b8ff" stroke="#63b8ff" points="56.19,-20.43 45.67,-19.17 53.1,-26.72 56.19,-20.43"/>
</a>
</g>
</g>
<!-- Node5 -->
<g id="Node000005" class="node">
<title>Node5</title>
<g id="a_Node000005"><a xlink:title=" ">
<polygon fill="#e0e0e0" stroke="#999999" points="127.5,-19 74.5,-19 74.5,0 127.5,0 127.5,-19"/>
<text text-anchor="middle" x="101" y="-7" font-family="Helvetica,sans-Serif" font-size="10.00">limits.h</text>
</a>
</g>
</g>
<!-- Node3&#45;&gt;Node5 -->
<g id="edge4_Node000003_Node000005" class="edge">
<title>Node3&#45;&gt;Node5</title>
<g id="a_edge4_Node000003_Node000005"><a xlink:title=" ">
<path fill="none" stroke="#63b8ff" d="M130.22,-54.75C125.38,-47.42 118.32,-36.73 112.36,-27.7"/>
<polygon fill="#63b8ff" stroke="#63b8ff" points="115.1,-25.5 106.67,-19.09 109.26,-29.36 115.1,-25.5"/>
</a>
</g>
</g>
<!-- Node6 -->
<g id="Node000006" class="node">
<title>Node6</title>
<g id="a_Node000006"><a xlink:title=" ">
<polygon fill="#e0e0e0" stroke="#999999" points="198.5,-19 145.5,-19 145.5,0 198.5,0 198.5,-19"/>
<text text-anchor="middle" x="172" y="-7" font-family="Helvetica,sans-Serif" font-size="10.00">stdint.h</text>
</a>
</g>
</g>
<!-- Node3&#45;&gt;Node6 -->
<g id="edge5_Node000003_Node000006" class="edge">
<title>Node3&#45;&gt;Node6</title>
<g id="a_edge5_Node000003_Node000006"><a xlink:title=" ">
<path fill="none" stroke="#63b8ff" d="M141.94,-54.75C146.98,-47.34 154.34,-36.5 160.51,-27.41"/>
<polygon fill="#63b8ff" stroke="#63b8ff" points="163.44,-29.33 166.17,-19.09 157.65,-25.39 163.44,-29.33"/>
</a>
</g>
</g>
<!-- Node7 -->
<g id="Node000007" class="node">
<title>Node7</title>
<g id="a_Node000007"><a xlink:title=" ">
<polygon fill="#e0e0e0" stroke="#999999" points="263.5,-19 216.5,-19 216.5,0 263.5,0 263.5,-19"/>
<text text-anchor="middle" x="240" y="-7" font-family="Helvetica,sans-Serif" font-size="10.00">float.h</text>
</a>
</g>
</g>
<!-- Node3&#45;&gt;Node7 -->
<g id="edge6_Node000003_Node000007" class="edge">
<title>Node3&#45;&gt;Node7</title>
<g id="a_edge6_Node000003_Node000007"><a xlink:title=" ">
<path fill="none" stroke="#63b8ff" d="M152.71,-54.98C169.21,-46.57 194.7,-33.59 213.88,-23.81"/>
<polygon fill="#63b8ff" stroke="#63b8ff" points="215.67,-26.83 222.99,-19.17 212.49,-20.59 215.67,-26.83"/>
</a>
</g>
</g>
<!-- Node9&#45;&gt;Node3 -->
<g id="edge9_Node000009_Node000003" class="edge">
<title>Node9&#45;&gt;Node3</title>
<g id="a_edge9_Node000009_Node000003"><a xlink:title=" ">
<path fill="none" stroke="#63b8ff" d="M136,-109.75C136,-102.8 136,-92.85 136,-84.13"/>
<polygon fill="#63b8ff" stroke="#63b8ff" points="139.5,-84.09 136,-74.09 132.5,-84.09 139.5,-84.09"/>
</a>
</g>
</g>
</g>
</svg>
</svg>

<style type='text/css'>
<![CDATA[
[data-mouse-over-selected='false'] { opacity: 0.7; }
[data-mouse-over-selected='true']  { opacity: 1.0; }
]]>
</style>
<script type="application/ecmascript"><![CDATA[
document.addEventListener('DOMContentLoaded', (event) => {
  highlightEdges();
  highlightAdjacentNodes();
});
]]></script>
</svg>
