<?xml version="1.0" encoding="UTF-8" standalone="no"?>
<!DOCTYPE svg PUBLIC "-//W3C//DTD SVG 1.1//EN"
 "http://www.w3.org/Graphics/SVG/1.1/DTD/svg11.dtd">
<!-- Generated by graphviz version 2.43.0 (0)
 -->
<!-- Title: host/que.h Pages: 1 -->
<svg width="272pt" height="196pt"
 viewBox="0.00 0.00 271.50 196.00" xmlns="http://www.w3.org/2000/svg" xmlns:xlink="http://www.w3.org/1999/xlink">
<g id="graph0" class="graph" transform="scale(1 1) rotate(0) translate(4 192)">
<title>host/que.h</title>
<polygon fill="white" stroke="transparent" points="-4,4 -4,-192 267.5,-192 267.5,4 -4,4"/>
<!-- Node1 -->
<g id="node1" class="node">
<title>Node1</title>
<g id="a_node1"><a xlink:title="basic queue library">
<polygon fill="#bfbfbf" stroke="black" points="131,-168.5 131,-187.5 199,-187.5 199,-168.5 131,-168.5"/>
<text text-anchor="middle" x="165" y="-175.5" font-family="Helvetica,sans-Serif" font-size="10.00">host/que.h</text>
</a>
</g>
</g>
<!-- Node2 -->
<g id="node2" class="node">
<title>Node2</title>
<g id="a_node2"><a xlink:href="../../d0/d97/host_2a_8h.html" target="_top" xlink:title="algorithm library on host">
<polygon fill="white" stroke="black" points="179,-112.5 179,-131.5 211,-131.5 211,-112.5 179,-112.5"/>
<text text-anchor="middle" x="195" y="-119.5" font-family="Helvetica,sans-Serif" font-size="10.00">a.h</text>
</a>
</g>
</g>
<!-- Node1&#45;&gt;Node2 -->
<g id="edge1" class="edge">
<title>Node1&#45;&gt;Node2</title>
<path fill="none" stroke="midnightblue" d="M169.95,-168.08C174.1,-160.61 180.15,-149.72 185.27,-140.52"/>
<polygon fill="midnightblue" stroke="midnightblue" points="188.34,-142.19 190.14,-131.75 182.22,-138.79 188.34,-142.19"/>
</g>
<!-- Node9 -->
<g id="node9" class="node">
<title>Node9</title>
<g id="a_node9"><a xlink:href="../../da/d23/list_8h.html" target="_top" xlink:title="circular doubly linked list implementation">
<polygon fill="white" stroke="black" points="111,-112.5 111,-131.5 161,-131.5 161,-112.5 111,-112.5"/>
<text text-anchor="middle" x="136" y="-119.5" font-family="Helvetica,sans-Serif" font-size="10.00">../list.h</text>
</a>
</g>
</g>
<!-- Node1&#45;&gt;Node9 -->
<g id="edge8" class="edge">
<title>Node1&#45;&gt;Node9</title>
<path fill="none" stroke="midnightblue" d="M160.21,-168.08C156.24,-160.69 150.47,-149.95 145.57,-140.81"/>
<polygon fill="midnightblue" stroke="midnightblue" points="148.51,-138.91 140.7,-131.75 142.35,-142.22 148.51,-138.91"/>
</g>
<!-- Node3 -->
<g id="node3" class="node">
<title>Node3</title>
<g id="a_node3"><a xlink:href="../../d2/d62/a_8h.html" target="_top" xlink:title="algorithm library">
<polygon fill="white" stroke="black" points="115.5,-56.5 115.5,-75.5 156.5,-75.5 156.5,-56.5 115.5,-56.5"/>
<text text-anchor="middle" x="136" y="-63.5" font-family="Helvetica,sans-Serif" font-size="10.00">../a.h</text>
</a>
</g>
</g>
<!-- Node2&#45;&gt;Node3 -->
<g id="edge2" class="edge">
<title>Node2&#45;&gt;Node3</title>
<path fill="none" stroke="midnightblue" d="M185.52,-112.32C176.8,-104.34 163.66,-92.31 153.1,-82.65"/>
<polygon fill="midnightblue" stroke="midnightblue" points="155.39,-80 145.65,-75.83 150.67,-85.17 155.39,-80"/>
</g>
<!-- Node8 -->
<g id="node8" class="node">
<title>Node8</title>
<g id="a_node8"><a xlink:title=" ">
<polygon fill="white" stroke="#bfbfbf" points="174.5,-56.5 174.5,-75.5 227.5,-75.5 227.5,-56.5 174.5,-56.5"/>
<text text-anchor="middle" x="201" y="-63.5" font-family="Helvetica,sans-Serif" font-size="10.00">stdlib.h</text>
</a>
</g>
</g>
<!-- Node2&#45;&gt;Node8 -->
<g id="edge7" class="edge">
<title>Node2&#45;&gt;Node8</title>
<path fill="none" stroke="midnightblue" d="M195.99,-112.08C196.79,-104.93 197.93,-94.64 198.92,-85.69"/>
<polygon fill="midnightblue" stroke="midnightblue" points="202.4,-86.08 200.03,-75.75 195.44,-85.3 202.4,-86.08"/>
</g>
<!-- Node4 -->
<g id="node4" class="node">
<title>Node4</title>
<g id="a_node4"><a xlink:title=" ">
<polygon fill="white" stroke="#bfbfbf" points="0,-0.5 0,-19.5 56,-19.5 56,-0.5 0,-0.5"/>
<text text-anchor="middle" x="28" y="-7.5" font-family="Helvetica,sans-Serif" font-size="10.00">stddef.h</text>
</a>
</g>
</g>
<!-- Node3&#45;&gt;Node4 -->
<g id="edge3" class="edge">
<title>Node3&#45;&gt;Node4</title>
<path fill="none" stroke="midnightblue" d="M118.65,-56.32C101.33,-47.66 74.48,-34.24 54.5,-24.25"/>
<polygon fill="midnightblue" stroke="midnightblue" points="55.82,-21 45.31,-19.65 52.69,-27.26 55.82,-21"/>
</g>
<!-- Node5 -->
<g id="node5" class="node">
<title>Node5</title>
<g id="a_node5"><a xlink:title=" ">
<polygon fill="white" stroke="#bfbfbf" points="74.5,-0.5 74.5,-19.5 127.5,-19.5 127.5,-0.5 74.5,-0.5"/>
<text text-anchor="middle" x="101" y="-7.5" font-family="Helvetica,sans-Serif" font-size="10.00">limits.h</text>
</a>
</g>
</g>
<!-- Node3&#45;&gt;Node5 -->
<g id="edge4" class="edge">
<title>Node3&#45;&gt;Node5</title>
<path fill="none" stroke="midnightblue" d="M130.22,-56.08C125.33,-48.53 118.17,-37.49 112.17,-28.23"/>
<polygon fill="midnightblue" stroke="midnightblue" points="115.05,-26.24 106.67,-19.75 109.17,-30.05 115.05,-26.24"/>
</g>
<!-- Node6 -->
<g id="node6" class="node">
<title>Node6</title>
<g id="a_node6"><a xlink:title=" ">
<polygon fill="white" stroke="#bfbfbf" points="145.5,-0.5 145.5,-19.5 198.5,-19.5 198.5,-0.5 145.5,-0.5"/>
<text text-anchor="middle" x="172" y="-7.5" font-family="Helvetica,sans-Serif" font-size="10.00">stdint.h</text>
</a>
</g>
</g>
<!-- Node3&#45;&gt;Node6 -->
<g id="edge5" class="edge">
<title>Node3&#45;&gt;Node6</title>
<path fill="none" stroke="midnightblue" d="M141.94,-56.08C146.98,-48.53 154.34,-37.49 160.51,-28.23"/>
<polygon fill="midnightblue" stroke="midnightblue" points="163.53,-30.01 166.17,-19.75 157.71,-26.13 163.53,-30.01"/>
</g>
<!-- Node7 -->
<g id="node7" class="node">
<title>Node7</title>
<g id="a_node7"><a xlink:title=" ">
<polygon fill="white" stroke="#bfbfbf" points="216.5,-0.5 216.5,-19.5 263.5,-19.5 263.5,-0.5 216.5,-0.5"/>
<text text-anchor="middle" x="240" y="-7.5" font-family="Helvetica,sans-Serif" font-size="10.00">float.h</text>
</a>
</g>
</g>
<!-- Node3&#45;&gt;Node7 -->
<g id="edge6" class="edge">
<title>Node3&#45;&gt;Node7</title>
<path fill="none" stroke="midnightblue" d="M152.71,-56.32C169.31,-47.7 195,-34.36 214.22,-24.39"/>
<polygon fill="midnightblue" stroke="midnightblue" points="216.07,-27.37 223.33,-19.65 212.84,-21.16 216.07,-27.37"/>
</g>
<!-- Node9&#45;&gt;Node3 -->
<g id="edge9" class="edge">
<title>Node9&#45;&gt;Node3</title>
<path fill="none" stroke="midnightblue" d="M136,-112.08C136,-105.01 136,-94.86 136,-85.99"/>
<polygon fill="midnightblue" stroke="midnightblue" points="139.5,-85.75 136,-75.75 132.5,-85.75 139.5,-85.75"/>
</g>
</g>
</svg>
