<?xml version="1.0" encoding="UTF-8" standalone="no"?>
<!DOCTYPE svg PUBLIC "-//W3C//DTD SVG 1.1//EN"
 "http://www.w3.org/Graphics/SVG/1.1/DTD/svg11.dtd">
<!-- Generated by graphviz version 2.43.0 (0)
 -->
<!-- Title: algorithm library Pages: 1 -->
<!--zoomable 1217 -->

<svg id="main" version="1.1" xmlns="http://www.w3.org/2000/svg" xmlns:xlink="http://www.w3.org/1999/xlink" xml:space="preserve" onload="init(evt)">
<style type="text/css"><![CDATA[
.node, .edge {opacity: 0.7;}
.node.selected, .edge.selected {opacity: 1;}
.edge:hover path { stroke: red; }
.edge:hover polygon { stroke: red; fill: red; }
]]></style>

<defs>
  <circle id="rim" cx="0" cy="0" r="7"/>
  <circle id="rim2" cx="0" cy="0" r="3.5"/>
  <g id="zoomPlus">
    <use xlink:href="#rim" fill="#404040"><set attributeName="fill" to="#808080" begin="zoomplus.mouseover" end="zoomplus.mouseout"/></use>
    <path d="M-4,0h8M0,-4v8" fill="none" stroke="white" stroke-width="1.5" pointer-events="none"/>
  </g>
  <g id="zoomMin">
    <use xlink:href="#rim" fill="#404040"><set attributeName="fill" to="#808080" begin="zoomminus.mouseover" end="zoomminus.mouseout"/></use>
    <path d="M-4,0h8" fill="none" stroke="white" stroke-width="1.5" pointer-events="none"/>
  </g>
  <g id="arrowUp" transform="translate(30 24)">
    <use xlink:href="#rim"/>
    <path pointer-events="none" fill="none" stroke="white" stroke-width="1.5" d="M0,-3.0v7 M-2.5,-0.5L0,-3.0L2.5,-0.5"/>
  </g>
  <g id="arrowRight" transform="rotate(90) translate(36 -43)">
    <use xlink:href="#rim"/>
    <path pointer-events="none" fill="none" stroke="white" stroke-width="1.5" d="M0,-3.0v7 M-2.5,-0.5L0,-3.0L2.5,-0.5"/>
  </g>
  <g id="arrowDown" transform="rotate(180) translate(-30 -48)">
    <use xlink:href="#rim"/>
    <path pointer-events="none" fill="none" stroke="white" stroke-width="1.5" d="M0,-3.0v7 M-2.5,-0.5L0,-3.0L2.5,-0.5"/>
  </g>
  <g id="arrowLeft" transform="rotate(270) translate(-36 17)">
    <use xlink:href="#rim"/>
    <path pointer-events="none" fill="none" stroke="white" stroke-width="1.5" d="M0,-3.0v7 M-2.5,-0.5L0,-3.0L2.5,-0.5"/>
  </g>
  <g id="resetDef">
    <use xlink:href="#rim2" fill="#404040"><set attributeName="fill" to="#808080" begin="reset.mouseover" end="reset.mouseout"/></use>
  </g>
</defs>
<script type="application/ecmascript">
var viewWidth = 301;
var viewHeight = 1217;
var sectionId = 'dynsection-0';
</script>
<script type="application/ecmascript" xlink:href="../../svg.min.js"/>
<svg id="graph" class="graph">
<g id="viewport">
<title>algorithm library</title>
<!-- Node1 -->
<g id="Node000001" class="node">
<title>Node1</title>
<g id="a_Node000001"><a xlink:title=" ">
<polygon fill="#999999" stroke="#666666" points="98,-617 0,-617 0,-598 98,-598 98,-617"/>
<text text-anchor="middle" x="49" y="-605" font-family="Helvetica,sans-Serif" font-size="10.00">algorithm library</text>
</a>
</g>
</g>
<!-- Node3 -->
<g id="Node000003" class="node">
<title>Node3</title>
<g id="a_Node000003"><a xlink:href="../../d6/d8f/group__A__AVL.html" target="_top" xlink:title=" ">
<polygon fill="white" stroke="#666666" points="276.5,-1209 150.5,-1209 150.5,-1190 276.5,-1190 276.5,-1209"/>
<text text-anchor="middle" x="213.5" y="-1197" font-family="Helvetica,sans-Serif" font-size="10.00">AVL binary search tree</text>
</a>
</g>
</g>
<!-- Node1&#45;&gt;Node3 -->
<g id="edge2" class="edge">
<title>Node1&#45;&gt;Node3</title>
<path fill="none" stroke="black" d="M50.02,-627.19C50.51,-718.33 57.19,-1098.28 134,-1181.5 138.55,-1186.43 144.16,-1190.15 150.26,-1192.93"/>
<polygon fill="black" stroke="black" points="53.52,-627.12 49.98,-617.13 46.52,-627.14 53.52,-627.12"/>
</g>
<!-- Node4 -->
<g id="Node000004" class="node">
<title>Node4</title>
<g id="a_Node000004"><a xlink:href="../../d0/df8/group__A__BUF.html" target="_top" xlink:title=" ">
<polygon fill="white" stroke="#666666" points="267.5,-1172 159.5,-1172 159.5,-1153 267.5,-1153 267.5,-1172"/>
<text text-anchor="middle" x="213.5" y="-1160" font-family="Helvetica,sans-Serif" font-size="10.00">basic buffer library</text>
</a>
</g>
</g>
<!-- Node1&#45;&gt;Node4 -->
<g id="edge3" class="edge">
<title>Node1&#45;&gt;Node4</title>
<path fill="none" stroke="black" d="M50.24,-627.58C51.72,-715.71 62.11,-1067.37 134,-1144.5 140.77,-1151.76 149.82,-1156.38 159.37,-1159.26"/>
<polygon fill="black" stroke="black" points="53.74,-627.3 50.09,-617.35 46.74,-627.4 53.74,-627.3"/>
</g>
<!-- Node5 -->
<g id="Node000005" class="node">
<title>Node5</title>
<g id="a_Node000005"><a xlink:href="../../d6/dbb/group__A__COMPLEX.html" target="_top" xlink:title=" ">
<polygon fill="white" stroke="#666666" points="263,-1135 164,-1135 164,-1116 263,-1116 263,-1135"/>
<text text-anchor="middle" x="213.5" y="-1123" font-family="Helvetica,sans-Serif" font-size="10.00">complex number</text>
</a>
</g>
</g>
<!-- Node1&#45;&gt;Node5 -->
<g id="edge4" class="edge">
<title>Node1&#45;&gt;Node5</title>
<path fill="none" stroke="black" d="M50.49,-627.25C52.96,-711.05 66.82,-1036.24 134,-1107.5 141.86,-1115.84 152.75,-1120.69 163.9,-1123.42"/>
<polygon fill="black" stroke="black" points="53.98,-626.98 50.21,-617.08 46.98,-627.17 53.98,-626.98"/>
</g>
<!-- Node2 -->
<g id="Node000002" class="node">
<title>Node2</title>
<g id="a_Node000002"><a xlink:href="../../d5/da3/group__A__FLOAT.html" target="_top" xlink:title=" ">
<polygon fill="white" stroke="#666666" points="274.5,-1098 152.5,-1098 152.5,-1079 274.5,-1079 274.5,-1098"/>
<text text-anchor="middle" x="213.5" y="-1086" font-family="Helvetica,sans-Serif" font-size="10.00">floating&#45;point number</text>
</a>
</g>
</g>
<!-- Node1&#45;&gt;Node2 -->
<g id="edge1" class="edge">
<title>Node1&#45;&gt;Node2</title>
<path fill="none" stroke="black" d="M50.78,-627.3C54.33,-707.26 71.62,-1005.18 134,-1070.5 139.12,-1075.86 145.48,-1079.77 152.36,-1082.6"/>
<polygon fill="black" stroke="black" points="54.27,-626.98 50.35,-617.14 47.27,-627.28 54.27,-626.98"/>
</g>
<!-- Node6 -->
<g id="Node000006" class="node">
<title>Node6</title>
<g id="a_Node000006"><a xlink:href="../../d6/d0a/group__A__FUZZY.html" target="_top" xlink:title=" ">
<polygon fill="white" stroke="#666666" points="257,-1061 170,-1061 170,-1042 257,-1042 257,-1061"/>
<text text-anchor="middle" x="213.5" y="-1049" font-family="Helvetica,sans-Serif" font-size="10.00">fuzzy operator</text>
</a>
</g>
</g>
<!-- Node1&#45;&gt;Node6 -->
<g id="edge5" class="edge">
<title>Node1&#45;&gt;Node6</title>
<path fill="none" stroke="black" d="M51.11,-627.16C55.78,-702.84 76.35,-974.05 134,-1033.5 143.34,-1043.14 156.72,-1048.08 169.79,-1050.49"/>
<polygon fill="black" stroke="black" points="54.6,-626.88 50.51,-617.11 47.61,-627.3 54.6,-626.88"/>
</g>
<!-- Node7 -->
<g id="Node000007" class="node">
<title>Node7</title>
<g id="a_Node000007"><a xlink:href="../../dd/d71/group__A__HPF.html" target="_top" xlink:title=" ">
<polygon fill="white" stroke="#666666" points="259.5,-1024 167.5,-1024 167.5,-1005 259.5,-1005 259.5,-1024"/>
<text text-anchor="middle" x="213.5" y="-1012" font-family="Helvetica,sans-Serif" font-size="10.00">High Pass Filter</text>
</a>
</g>
</g>
<!-- Node1&#45;&gt;Node7 -->
<g id="edge6" class="edge">
<title>Node1&#45;&gt;Node7</title>
<path fill="none" stroke="black" d="M51.55,-627.72C57.51,-699.85 81.23,-943.06 134,-996.5 142.84,-1005.45 155.17,-1010.34 167.44,-1012.91"/>
<polygon fill="black" stroke="black" points="55.01,-627.02 50.72,-617.33 48.03,-627.58 55.01,-627.02"/>
</g>
<!-- Node8 -->
<g id="Node000008" class="node">
<title>Node8</title>
<g id="a_Node000008"><a xlink:href="../../d8/de5/group__A__LIST.html" target="_top" xlink:title=" ">
<polygon fill="white" stroke="#666666" points="283,-987 144,-987 144,-968 283,-968 283,-987"/>
<text text-anchor="middle" x="213.5" y="-975" font-family="Helvetica,sans-Serif" font-size="10.00">circular doubly linked list</text>
</a>
</g>
</g>
<!-- Node1&#45;&gt;Node8 -->
<g id="edge7" class="edge">
<title>Node1&#45;&gt;Node8</title>
<path fill="none" stroke="black" d="M51.98,-627.09C59.14,-693.97 85.81,-911.73 134,-959.5 137.38,-962.85 141.24,-965.62 145.4,-967.92"/>
<polygon fill="black" stroke="black" points="55.45,-626.65 50.93,-617.06 48.49,-627.37 55.45,-626.65"/>
</g>
<!-- Node9 -->
<g id="Node000009" class="node">
<title>Node9</title>
<g id="a_Node000009"><a xlink:href="../../df/d27/group__A__LPF.html" target="_top" xlink:title=" ">
<polygon fill="white" stroke="#666666" points="258,-950 169,-950 169,-931 258,-931 258,-950"/>
<text text-anchor="middle" x="213.5" y="-938" font-family="Helvetica,sans-Serif" font-size="10.00">Low Pass Filter</text>
</a>
</g>
</g>
<!-- Node1&#45;&gt;Node9 -->
<g id="edge8" class="edge">
<title>Node1&#45;&gt;Node9</title>
<path fill="none" stroke="black" d="M52.65,-627.35C61.34,-689.61 90.95,-879.47 134,-921.5 143.33,-930.61 156.24,-935.61 168.9,-938.28"/>
<polygon fill="black" stroke="black" points="56.09,-626.7 51.27,-617.27 49.16,-627.65 56.09,-626.7"/>
</g>
<!-- Node10 -->
<g id="Node000010" class="node">
<title>Node10</title>
<g id="a_Node000010"><a xlink:href="../../d1/d82/group__A__MATH.html" target="_top" xlink:title=" ">
<polygon fill="white" stroke="#666666" points="281,-912.5 146,-912.5 146,-882.5 281,-882.5 281,-912.5"/>
<text text-anchor="start" x="154" y="-900.5" font-family="Helvetica,sans-Serif" font-size="10.00">mathematical algorithm</text>
<text text-anchor="middle" x="213.5" y="-889.5" font-family="Helvetica,sans-Serif" font-size="10.00"> library</text>
</a>
</g>
</g>
<!-- Node1&#45;&gt;Node10 -->
<g id="edge9" class="edge">
<title>Node1&#45;&gt;Node10</title>
<path fill="none" stroke="black" d="M50.3,-627.26C52.13,-676.17 63.78,-803.92 134,-873.5 137.54,-877.01 141.58,-880.01 145.92,-882.57"/>
<polygon fill="black" stroke="black" points="53.79,-626.99 50.02,-617.09 46.8,-627.18 53.79,-626.99"/>
</g>
<!-- Node11 -->
<g id="Node000011" class="node">
<title>Node11</title>
<g id="a_Node000011"><a xlink:href="../../dd/d37/group__A__MF.html" target="_top" xlink:title=" ">
<polygon fill="white" stroke="#666666" points="274,-864 153,-864 153,-845 274,-845 274,-864"/>
<text text-anchor="middle" x="213.5" y="-852" font-family="Helvetica,sans-Serif" font-size="10.00">membership function</text>
</a>
</g>
</g>
<!-- Node1&#45;&gt;Node11 -->
<g id="edge10" class="edge">
<title>Node1&#45;&gt;Node11</title>
<path fill="none" stroke="black" d="M51.15,-627.18C54.85,-671.64 70.28,-780.35 134,-836.5 139.46,-841.31 145.93,-844.9 152.79,-847.58"/>
<polygon fill="black" stroke="black" points="54.63,-626.83 50.42,-617.1 47.65,-627.33 54.63,-626.83"/>
</g>
<!-- Node12 -->
<g id="Node000012" class="node">
<title>Node12</title>
<g id="a_Node000012"><a xlink:href="../../db/ddc/group__A__NOTEFREQ.html" target="_top" xlink:title=" ">
<polygon fill="white" stroke="#666666" points="272.5,-827 154.5,-827 154.5,-808 272.5,-808 272.5,-827"/>
<text text-anchor="middle" x="213.5" y="-815" font-family="Helvetica,sans-Serif" font-size="10.00">note frequency table</text>
</a>
</g>
</g>
<!-- Node1&#45;&gt;Node12 -->
<g id="edge11" class="edge">
<title>Node1&#45;&gt;Node12</title>
<path fill="none" stroke="black" d="M52.71,-627.18C59.19,-666.35 79.31,-754.19 134,-799.5 139.92,-804.41 146.92,-808.04 154.26,-810.71"/>
<polygon fill="black" stroke="black" points="56.17,-626.65 51.2,-617.3 49.25,-627.71 56.17,-626.65"/>
</g>
<!-- Node13 -->
<g id="Node000013" class="node">
<title>Node13</title>
<g id="a_Node000013"><a xlink:href="../../dd/d76/group__A__OPERATOR.html" target="_top" xlink:title=" ">
<polygon fill="white" stroke="#666666" points="287.5,-790 139.5,-790 139.5,-771 287.5,-771 287.5,-790"/>
<text text-anchor="middle" x="213.5" y="-778" font-family="Helvetica,sans-Serif" font-size="10.00">algorithm library operators</text>
</a>
</g>
</g>
<!-- Node1&#45;&gt;Node13 -->
<g id="edge12" class="edge">
<title>Node1&#45;&gt;Node13</title>
<path fill="none" stroke="black" d="M55.05,-627.07C64.62,-660.09 88.63,-726.69 134,-761.5 139.01,-765.34 144.68,-768.42 150.63,-770.88"/>
<polygon fill="black" stroke="black" points="58.38,-625.96 52.35,-617.25 51.63,-627.82 58.38,-625.96"/>
</g>
<!-- Node14 -->
<g id="Node000014" class="node">
<title>Node14</title>
<g id="a_Node000014"><a xlink:href="../../d8/da8/group__A__PID.html" target="_top" xlink:title=" ">
<polygon fill="white" stroke="#666666" points="273,-752.5 154,-752.5 154,-722.5 273,-722.5 273,-752.5"/>
<text text-anchor="start" x="162" y="-740.5" font-family="Helvetica,sans-Serif" font-size="10.00">proportional integral</text>
<text text-anchor="middle" x="213.5" y="-729.5" font-family="Helvetica,sans-Serif" font-size="10.00"> derivative controller</text>
</a>
</g>
</g>
<!-- Node1&#45;&gt;Node14 -->
<g id="edge13" class="edge">
<title>Node1&#45;&gt;Node14</title>
<path fill="none" stroke="black" d="M59.92,-626.02C73.53,-649.72 100.23,-690.46 134,-713.5 140,-717.6 146.73,-721.01 153.66,-723.86"/>
<polygon fill="black" stroke="black" points="62.82,-624.04 54.9,-617.01 56.7,-627.45 62.82,-624.04"/>
</g>
<!-- Node15 -->
<g id="Node000015" class="node">
<title>Node15</title>
<g id="a_Node000015"><a xlink:href="../../dc/db1/group__A__PID__FUZZY.html" target="_top" xlink:title=" ">
<polygon fill="white" stroke="#666666" points="268.5,-704 158.5,-704 158.5,-663 268.5,-663 268.5,-704"/>
<text text-anchor="start" x="166.5" y="-692" font-family="Helvetica,sans-Serif" font-size="10.00">fuzzy proportional</text>
<text text-anchor="start" x="166.5" y="-681" font-family="Helvetica,sans-Serif" font-size="10.00"> integral derivative</text>
<text text-anchor="middle" x="213.5" y="-670" font-family="Helvetica,sans-Serif" font-size="10.00"> controller</text>
</a>
</g>
</g>
<!-- Node1&#45;&gt;Node15 -->
<g id="edge14" class="edge">
<title>Node1&#45;&gt;Node15</title>
<path fill="none" stroke="black" d="M75.05,-622.39C91.52,-631.88 113.69,-644.11 134,-653.5 141.81,-657.11 150.2,-660.65 158.47,-663.96"/>
<polygon fill="black" stroke="black" points="76.48,-619.17 66.08,-617.16 72.96,-625.22 76.48,-619.17"/>
</g>
<!-- Node16 -->
<g id="Node000016" class="node">
<title>Node16</title>
<g id="a_Node000016"><a xlink:href="../../db/d33/group__A__PID__NEURO.html" target="_top" xlink:title=" ">
<polygon fill="white" stroke="#666666" points="293,-644.5 134,-644.5 134,-614.5 293,-614.5 293,-644.5"/>
<text text-anchor="start" x="142" y="-632.5" font-family="Helvetica,sans-Serif" font-size="10.00">single neuron proportional</text>
<text text-anchor="middle" x="213.5" y="-621.5" font-family="Helvetica,sans-Serif" font-size="10.00"> integral derivative controller</text>
</a>
</g>
</g>
<!-- Node1&#45;&gt;Node16 -->
<g id="edge15" class="edge">
<title>Node1&#45;&gt;Node16</title>
<path fill="none" stroke="black" d="M108.28,-615.39C116.61,-616.52 125.29,-617.69 133.93,-618.86"/>
<polygon fill="black" stroke="black" points="108.69,-611.91 98.32,-614.04 107.76,-618.85 108.69,-611.91"/>
</g>
<!-- Node17 -->
<g id="Node000017" class="node">
<title>Node17</title>
<g id="a_Node000017"><a xlink:href="../../d6/de7/group__A__POLY.html" target="_top" xlink:title=" ">
<polygon fill="white" stroke="#666666" points="249,-596 178,-596 178,-577 249,-577 249,-596"/>
<text text-anchor="middle" x="213.5" y="-584" font-family="Helvetica,sans-Serif" font-size="10.00">polynomial</text>
</a>
</g>
</g>
<!-- Node1&#45;&gt;Node17 -->
<g id="edge16" class="edge">
<title>Node1&#45;&gt;Node17</title>
<path fill="none" stroke="black" d="M108.43,-599.95C131.66,-596.95 157.61,-593.59 177.78,-590.99"/>
<polygon fill="black" stroke="black" points="107.78,-596.5 98.32,-601.26 108.68,-603.45 107.78,-596.5"/>
</g>
<!-- Node18 -->
<g id="Node000018" class="node">
<title>Node18</title>
<g id="a_Node000018"><a xlink:href="../../df/d54/group__A__QUE.html" target="_top" xlink:title=" ">
<polygon fill="white" stroke="#666666" points="268.5,-559 158.5,-559 158.5,-540 268.5,-540 268.5,-559"/>
<text text-anchor="middle" x="213.5" y="-547" font-family="Helvetica,sans-Serif" font-size="10.00">basic queue library</text>
</a>
</g>
</g>
<!-- Node1&#45;&gt;Node18 -->
<g id="edge17" class="edge">
<title>Node1&#45;&gt;Node18</title>
<path fill="none" stroke="black" d="M77.29,-593.16C93.45,-585.09 114.52,-575.31 134,-568.5 144.33,-564.89 155.65,-561.72 166.4,-559.05"/>
<polygon fill="black" stroke="black" points="75.25,-590.27 67.92,-597.92 78.42,-596.51 75.25,-590.27"/>
</g>
<!-- Node19 -->
<g id="Node000019" class="node">
<title>Node19</title>
<g id="a_Node000019"><a xlink:href="../../dd/dd8/group__A__RBF.html" target="_top" xlink:title=" ">
<polygon fill="white" stroke="#666666" points="271.5,-522 155.5,-522 155.5,-503 271.5,-503 271.5,-522"/>
<text text-anchor="middle" x="213.5" y="-510" font-family="Helvetica,sans-Serif" font-size="10.00">radial basis function</text>
</a>
</g>
</g>
<!-- Node1&#45;&gt;Node19 -->
<g id="edge18" class="edge">
<title>Node1&#45;&gt;Node19</title>
<path fill="none" stroke="black" d="M64.39,-590.17C79.82,-572.73 105.91,-546.35 134,-531.5 141.31,-527.63 149.43,-524.54 157.58,-522.07"/>
<polygon fill="black" stroke="black" points="61.59,-588.06 57.71,-597.92 66.89,-592.63 61.59,-588.06"/>
</g>
<!-- Node20 -->
<g id="Node000020" class="node">
<title>Node20</title>
<g id="a_Node000020"><a xlink:href="../../d7/d06/group__A__RBT.html" target="_top" xlink:title=" ">
<polygon fill="white" stroke="#666666" points="262.5,-484.5 164.5,-484.5 164.5,-454.5 262.5,-454.5 262.5,-484.5"/>
<text text-anchor="start" x="172.5" y="-472.5" font-family="Helvetica,sans-Serif" font-size="10.00">red–black binary</text>
<text text-anchor="middle" x="213.5" y="-461.5" font-family="Helvetica,sans-Serif" font-size="10.00"> search tree</text>
</a>
</g>
</g>
<!-- Node1&#45;&gt;Node20 -->
<g id="edge19" class="edge">
<title>Node1&#45;&gt;Node20</title>
<path fill="none" stroke="black" d="M59.27,-588.52C72.48,-563.42 99.03,-519.46 134,-494.5 142.96,-488.1 153.64,-483.29 164.18,-479.69"/>
<polygon fill="black" stroke="black" points="56.01,-587.22 54.59,-597.72 62.24,-590.4 56.01,-587.22"/>
</g>
<!-- Node21 -->
<g id="Node000021" class="node">
<title>Node21</title>
<g id="a_Node000021"><a xlink:href="../../d1/dfe/group__A__SLIST.html" target="_top" xlink:title=" ">
<polygon fill="white" stroke="#666666" points="261.5,-436 165.5,-436 165.5,-417 261.5,-417 261.5,-436"/>
<text text-anchor="middle" x="213.5" y="-424" font-family="Helvetica,sans-Serif" font-size="10.00">singly linked list</text>
</a>
</g>
</g>
<!-- Node1&#45;&gt;Node21 -->
<g id="edge20" class="edge">
<title>Node1&#45;&gt;Node21</title>
<path fill="none" stroke="black" d="M54.5,-587.88C63.43,-553.51 86.76,-482.54 134,-445.5 142.94,-438.49 154.08,-434.02 165.13,-431.17"/>
<polygon fill="black" stroke="black" points="51.08,-587.12 52.09,-597.66 57.88,-588.79 51.08,-587.12"/>
</g>
<!-- Node22 -->
<g id="Node000022" class="node">
<title>Node22</title>
<g id="a_Node000022"><a xlink:href="../../db/d6c/group__A__STR.html" target="_top" xlink:title=" ">
<polygon fill="white" stroke="#666666" points="267,-399 160,-399 160,-380 267,-380 267,-399"/>
<text text-anchor="middle" x="213.5" y="-387" font-family="Helvetica,sans-Serif" font-size="10.00">basic string library</text>
</a>
</g>
</g>
<!-- Node1&#45;&gt;Node22 -->
<g id="edge21" class="edge">
<title>Node1&#45;&gt;Node22</title>
<path fill="none" stroke="black" d="M52.44,-587.74C58.49,-547.56 77.96,-456.12 134,-408.5 141.37,-402.23 150.47,-397.97 159.84,-395.07"/>
<polygon fill="black" stroke="black" points="48.95,-587.46 51.05,-597.84 55.88,-588.41 48.95,-587.46"/>
</g>
<!-- Node23 -->
<g id="Node000023" class="node">
<title>Node23</title>
<g id="a_Node000023"><a xlink:href="../../d0/ddd/group__A__TF.html" target="_top" xlink:title=" ">
<polygon fill="white" stroke="#666666" points="262.5,-362 164.5,-362 164.5,-343 262.5,-343 262.5,-362"/>
<text text-anchor="middle" x="213.5" y="-350" font-family="Helvetica,sans-Serif" font-size="10.00">transfer function</text>
</a>
</g>
</g>
<!-- Node1&#45;&gt;Node23 -->
<g id="edge22" class="edge">
<title>Node1&#45;&gt;Node23</title>
<path fill="none" stroke="black" d="M50.97,-587.58C54.31,-542.09 69.05,-429.99 134,-371.5 142.44,-363.9 153.4,-359.21 164.43,-356.34"/>
<polygon fill="black" stroke="black" points="47.47,-587.44 50.35,-597.64 54.46,-587.87 47.47,-587.44"/>
</g>
<!-- Node24 -->
<g id="Node000024" class="node">
<title>Node24</title>
<g id="a_Node000024"><a xlink:href="../../d6/d1e/group__A__TRAJBELL.html" target="_top" xlink:title=" ">
<polygon fill="white" stroke="#666666" points="271.5,-324.5 155.5,-324.5 155.5,-294.5 271.5,-294.5 271.5,-324.5"/>
<text text-anchor="start" x="163.5" y="-312.5" font-family="Helvetica,sans-Serif" font-size="10.00">bell&#45;shaped velocity</text>
<text text-anchor="middle" x="213.5" y="-301.5" font-family="Helvetica,sans-Serif" font-size="10.00"> trajectory</text>
</a>
</g>
</g>
<!-- Node1&#45;&gt;Node24 -->
<g id="edge23" class="edge">
<title>Node1&#45;&gt;Node24</title>
<path fill="none" stroke="black" d="M50.16,-587.93C51.63,-538.38 62.46,-406.74 134,-334.5 139.94,-328.5 147.31,-323.94 155.14,-320.48"/>
<polygon fill="black" stroke="black" points="46.66,-587.89 49.96,-597.95 53.65,-588.02 46.66,-587.89"/>
</g>
<!-- Node25 -->
<g id="Node000025" class="node">
<title>Node25</title>
<g id="a_Node000025"><a xlink:href="../../d3/d9f/group__A__TRAJPOLY3.html" target="_top" xlink:title=" ">
<polygon fill="white" stroke="#666666" points="288.5,-276 138.5,-276 138.5,-257 288.5,-257 288.5,-276"/>
<text text-anchor="middle" x="213.5" y="-264" font-family="Helvetica,sans-Serif" font-size="10.00">cubic polynomial trajectory</text>
</a>
</g>
</g>
<!-- Node1&#45;&gt;Node25 -->
<g id="edge24" class="edge">
<title>Node1&#45;&gt;Node25</title>
<path fill="none" stroke="black" d="M52.52,-587.57C60.91,-524.18 89.96,-328.76 134,-285.5 137.9,-281.67 142.44,-278.56 147.32,-276.05"/>
<polygon fill="black" stroke="black" points="49,-587.44 51.19,-597.81 55.95,-588.34 49,-587.44"/>
</g>
<!-- Node26 -->
<g id="Node000026" class="node">
<title>Node26</title>
<g id="a_Node000026"><a xlink:href="../../d2/d61/group__A__TRAJPOLY5.html" target="_top" xlink:title=" ">
<polygon fill="white" stroke="#666666" points="267,-238.5 160,-238.5 160,-208.5 267,-208.5 267,-238.5"/>
<text text-anchor="start" x="168" y="-226.5" font-family="Helvetica,sans-Serif" font-size="10.00">quintic polynomial</text>
<text text-anchor="middle" x="213.5" y="-215.5" font-family="Helvetica,sans-Serif" font-size="10.00"> trajectory</text>
</a>
</g>
</g>
<!-- Node1&#45;&gt;Node26 -->
<g id="edge25" class="edge">
<title>Node1&#45;&gt;Node26</title>
<path fill="none" stroke="black" d="M52.07,-587.67C59.53,-519.95 87.07,-299.26 134,-248.5 140.99,-240.94 150.26,-235.65 159.97,-231.96"/>
<polygon fill="black" stroke="black" points="48.57,-587.5 50.98,-597.82 55.53,-588.25 48.57,-587.5"/>
</g>
<!-- Node27 -->
<g id="Node000027" class="node">
<title>Node27</title>
<g id="a_Node000027"><a xlink:href="../../d9/dab/group__A__TRAJPOLY7.html" target="_top" xlink:title=" ">
<polygon fill="white" stroke="#666666" points="289.5,-190 137.5,-190 137.5,-171 289.5,-171 289.5,-190"/>
<text text-anchor="middle" x="213.5" y="-178" font-family="Helvetica,sans-Serif" font-size="10.00">hepta polynomial trajectory</text>
</a>
</g>
</g>
<!-- Node1&#45;&gt;Node27 -->
<g id="edge26" class="edge">
<title>Node1&#45;&gt;Node27</title>
<path fill="none" stroke="black" d="M51.32,-587.76C56.66,-514.06 79.03,-256.4 134,-199.5 137.7,-195.67 142.04,-192.55 146.73,-190.03"/>
<polygon fill="black" stroke="black" points="47.82,-587.73 50.61,-597.95 54.8,-588.21 47.82,-587.73"/>
</g>
<!-- Node28 -->
<g id="Node000028" class="node">
<title>Node28</title>
<g id="a_Node000028"><a xlink:href="../../d7/d57/group__A__TRAJTRAP.html" target="_top" xlink:title=" ">
<polygon fill="white" stroke="#666666" points="270,-152.5 157,-152.5 157,-122.5 270,-122.5 270,-152.5"/>
<text text-anchor="start" x="165" y="-140.5" font-family="Helvetica,sans-Serif" font-size="10.00">trapezoidal velocity</text>
<text text-anchor="middle" x="213.5" y="-129.5" font-family="Helvetica,sans-Serif" font-size="10.00"> trajectory</text>
</a>
</g>
</g>
<!-- Node1&#45;&gt;Node28 -->
<g id="edge27" class="edge">
<title>Node1&#45;&gt;Node28</title>
<path fill="none" stroke="black" d="M51.1,-587.63C55.81,-509.86 76.63,-227.32 134,-162.5 140.16,-155.54 148.26,-150.5 156.9,-146.86"/>
<polygon fill="black" stroke="black" points="47.59,-587.74 50.5,-597.93 54.58,-588.15 47.59,-587.74"/>
</g>
<!-- Node29 -->
<g id="Node000029" class="node">
<title>Node29</title>
<g id="a_Node000029"><a xlink:href="../../d9/da8/group__A__UTF.html" target="_top" xlink:title=" ">
<polygon fill="white" stroke="#666666" points="280,-104.5 147,-104.5 147,-74.5 280,-74.5 280,-104.5"/>
<text text-anchor="start" x="155" y="-92.5" font-family="Helvetica,sans-Serif" font-size="10.00">Unicode Transformation</text>
<text text-anchor="middle" x="213.5" y="-81.5" font-family="Helvetica,sans-Serif" font-size="10.00"> Format</text>
</a>
</g>
</g>
<!-- Node1&#45;&gt;Node29 -->
<g id="edge28" class="edge">
<title>Node1&#45;&gt;Node29</title>
<path fill="none" stroke="black" d="M50.67,-587.57C53.89,-504.42 70.22,-186.04 134,-113.5 137.67,-109.33 142.04,-105.87 146.82,-103"/>
<polygon fill="black" stroke="black" points="47.17,-587.57 50.31,-597.7 54.17,-587.83 47.17,-587.57"/>
</g>
<!-- Node30 -->
<g id="Node000030" class="node">
<title>Node30</title>
<g id="a_Node000030"><a xlink:href="../../da/d05/group__A__VEC.html" target="_top" xlink:title=" ">
<polygon fill="white" stroke="#666666" points="268.5,-56 158.5,-56 158.5,-37 268.5,-37 268.5,-56"/>
<text text-anchor="middle" x="213.5" y="-44" font-family="Helvetica,sans-Serif" font-size="10.00">basic vector library</text>
</a>
</g>
</g>
<!-- Node1&#45;&gt;Node30 -->
<g id="edge29" class="edge">
<title>Node1&#45;&gt;Node30</title>
<path fill="none" stroke="black" d="M50.23,-587.83C51.65,-499.92 61.83,-143.98 134,-65.5 140.45,-58.48 149.02,-53.85 158.12,-50.84"/>
<polygon fill="black" stroke="black" points="46.72,-587.95 50.08,-598 53.72,-588.05 46.72,-587.95"/>
</g>
<!-- Node31 -->
<g id="Node000031" class="node">
<title>Node31</title>
<g id="a_Node000031"><a xlink:href="../../d2/d1b/group__A__VERSION.html" target="_top" xlink:title=" ">
<polygon fill="white" stroke="#666666" points="282,-19 145,-19 145,0 282,0 282,-19"/>
<text text-anchor="middle" x="213.5" y="-7" font-family="Helvetica,sans-Serif" font-size="10.00">algorithm library version</text>
</a>
</g>
</g>
<!-- Node1&#45;&gt;Node31 -->
<g id="edge30" class="edge">
<title>Node1&#45;&gt;Node31</title>
<path fill="none" stroke="black" d="M50.01,-587.66C50.48,-495.82 57.1,-112.94 134,-28.5 137.49,-24.66 141.62,-21.54 146.11,-19"/>
<polygon fill="black" stroke="black" points="46.51,-587.79 49.98,-597.8 53.51,-587.81 46.51,-587.79"/>
</g>
</g>
</svg>

<g id="navigator" transform="translate(0 0)" fill="#404254">
  <rect fill="#f2f5e9" fill-opacity="0.5" stroke="#606060" stroke-width=".5" x="0" y="0" width="60" height="60"/>
  <use id="zoomplus" xlink:href="#zoomPlus" x="17" y="9" onmousedown="handleZoom(evt,'in')"/>
  <use id="zoomminus" xlink:href="#zoomMin" x="42" y="9" onmousedown="handleZoom(evt,'out')"/>
  <use id="reset" xlink:href="#resetDef" x="30" y="36" onmousedown="handleReset()"/>
   <use id="arrowup" xlink:href="#arrowUp" x="0" y="0" onmousedown="handlePan(0,-1)"/>
  <use id="arrowright" xlink:href="#arrowRight" x="0" y="0" onmousedown="handlePan(1,0)"/>
  <use id="arrowdown" xlink:href="#arrowDown" x="0" y="0" onmousedown="handlePan(0,1)"/>
  <use id="arrowleft" xlink:href="#arrowLeft" x="0" y="0" onmousedown="handlePan(-1,0)"/>
</g>
<svg viewBox="0 0 15 15" width="100%" height="30px" preserveAspectRatio="xMaxYMin meet">
 <g id="arrow_out" transform="scale(0.3 0.3)">
  <a xlink:href="group__A_org.svg" target="_base">
   <rect id="button" ry="5" rx="5" y="6" x="6" height="38" width="38"
        fill="#f2f5e9" fill-opacity="0.5" stroke="#606060" stroke-width="1.0"/>
   <path id="arrow"
     d="M 11.500037,31.436501 C 11.940474,20.09759 22.043105,11.32322 32.158766,21.979434 L 37.068811,17.246167 C 37.068811,17.246167 37.088388,32 37.088388,32 L 22.160133,31.978069 C 22.160133,31.978069 26.997745,27.140456 26.997745,27.140456 C 18.528582,18.264221 13.291696,25.230495 11.500037,31.436501 z"
     style="fill:#404040;"/>
  </a>
 </g>
</svg>

<style type='text/css'>
<![CDATA[
[data-mouse-over-selected='false'] { opacity: 0.7; }
[data-mouse-over-selected='true']  { opacity: 1.0; }
]]>
</style>
<script type="application/ecmascript"><![CDATA[
document.addEventListener('DOMContentLoaded', (event) => {
  highlightEdges();
  highlightAdjacentNodes();
});
]]></script>
</svg>
