<?xml version="1.0" encoding="UTF-8" standalone="no"?>
<!DOCTYPE svg PUBLIC "-//W3C//DTD SVG 1.1//EN"
 "http://www.w3.org/Graphics/SVG/1.1/DTD/svg11.dtd">
<!-- Generated by graphviz version 2.43.0 (0)
 -->
<!-- Title: algorithm library Pages: 1 -->
<!--zoomable 1168 -->

<svg id="main" version="1.1" xmlns="http://www.w3.org/2000/svg" xmlns:xlink="http://www.w3.org/1999/xlink" xml:space="preserve" onload="init(evt)">
<style type="text/css"><![CDATA[
.node, .edge {opacity: 0.7;}
.node.selected, .edge.selected {opacity: 1;}
.edge:hover path { stroke: red; }
.edge:hover polygon { stroke: red; fill: red; }
]]></style>

<defs>
  <circle id="rim" cx="0" cy="0" r="7"/>
  <circle id="rim2" cx="0" cy="0" r="3.5"/>
  <g id="zoomPlus">
    <use xlink:href="#rim" fill="#404040"><set attributeName="fill" to="#808080" begin="zoomplus.mouseover" end="zoomplus.mouseout"/></use>
    <path d="M-4,0h8M0,-4v8" fill="none" stroke="white" stroke-width="1.5" pointer-events="none"/>
  </g>
  <g id="zoomMin">
    <use xlink:href="#rim" fill="#404040"><set attributeName="fill" to="#808080" begin="zoomminus.mouseover" end="zoomminus.mouseout"/></use>
    <path d="M-4,0h8" fill="none" stroke="white" stroke-width="1.5" pointer-events="none"/>
  </g>
  <g id="arrowUp" transform="translate(30 24)">
    <use xlink:href="#rim"/>
    <path pointer-events="none" fill="none" stroke="white" stroke-width="1.5" d="M0,-3.0v7 M-2.5,-0.5L0,-3.0L2.5,-0.5"/>
  </g>
  <g id="arrowRight" transform="rotate(90) translate(36 -43)">
    <use xlink:href="#rim"/>
    <path pointer-events="none" fill="none" stroke="white" stroke-width="1.5" d="M0,-3.0v7 M-2.5,-0.5L0,-3.0L2.5,-0.5"/>
  </g>
  <g id="arrowDown" transform="rotate(180) translate(-30 -48)">
    <use xlink:href="#rim"/>
    <path pointer-events="none" fill="none" stroke="white" stroke-width="1.5" d="M0,-3.0v7 M-2.5,-0.5L0,-3.0L2.5,-0.5"/>
  </g>
  <g id="arrowLeft" transform="rotate(270) translate(-36 17)">
    <use xlink:href="#rim"/>
    <path pointer-events="none" fill="none" stroke="white" stroke-width="1.5" d="M0,-3.0v7 M-2.5,-0.5L0,-3.0L2.5,-0.5"/>
  </g>
  <g id="resetDef">
    <use xlink:href="#rim2" fill="#404040"><set attributeName="fill" to="#808080" begin="reset.mouseover" end="reset.mouseout"/></use>
  </g>
</defs>
<script type="application/ecmascript">
var viewWidth = 301;
var viewHeight = 1168;
var sectionId = 'dynsection-0';
</script>
<script type="application/ecmascript" xlink:href="../../svg.min.js"/>
<svg id="graph" class="graph">
<g id="viewport">
<title>algorithm library</title>
<!-- Node1 -->
<g id="Node000001" class="node">
<title>Node1</title>
<g id="a_Node000001"><a xlink:title=" ">
<polygon fill="#999999" stroke="#666666" points="98,-590 0,-590 0,-571 98,-571 98,-590"/>
<text text-anchor="middle" x="49" y="-578" font-family="Helvetica,sans-Serif" font-size="10.00">algorithm library</text>
</a>
</g>
</g>
<!-- Node3 -->
<g id="Node000003" class="node">
<title>Node3</title>
<g id="a_Node000003"><a xlink:href="../../d6/d8f/group__A__AVL.html" target="_top" xlink:title=" ">
<polygon fill="white" stroke="#666666" points="276.5,-1160 150.5,-1160 150.5,-1141 276.5,-1141 276.5,-1160"/>
<text text-anchor="middle" x="213.5" y="-1148" font-family="Helvetica,sans-Serif" font-size="10.00">AVL binary search tree</text>
</a>
</g>
</g>
<!-- Node1&#45;&gt;Node3 -->
<g id="edge2" class="edge">
<title>Node1&#45;&gt;Node3</title>
<path fill="none" stroke="black" d="M50.14,-600.28C51.21,-689.42 60.08,-1052.87 134,-1132.5 138.57,-1137.42 144.18,-1141.13 150.29,-1143.9"/>
<polygon fill="black" stroke="black" points="53.64,-600.15 50.04,-590.19 46.64,-600.22 53.64,-600.15"/>
</g>
<!-- Node4 -->
<g id="Node000004" class="node">
<title>Node4</title>
<g id="a_Node000004"><a xlink:href="../../d0/df8/group__A__BUF.html" target="_top" xlink:title=" ">
<polygon fill="white" stroke="#666666" points="267.5,-1123 159.5,-1123 159.5,-1104 267.5,-1104 267.5,-1123"/>
<text text-anchor="middle" x="213.5" y="-1111" font-family="Helvetica,sans-Serif" font-size="10.00">basic buffer library</text>
</a>
</g>
</g>
<!-- Node1&#45;&gt;Node4 -->
<g id="edge3" class="edge">
<title>Node1&#45;&gt;Node4</title>
<path fill="none" stroke="black" d="M50.39,-600.57C52.47,-686.45 64.96,-1021.92 134,-1095.5 140.79,-1102.74 149.86,-1107.35 159.41,-1110.23"/>
<polygon fill="black" stroke="black" points="53.88,-600.28 50.16,-590.36 46.89,-600.44 53.88,-600.28"/>
</g>
<!-- Node5 -->
<g id="Node000005" class="node">
<title>Node5</title>
<g id="a_Node000005"><a xlink:href="../../d6/dbb/group__A__COMPLEX.html" target="_top" xlink:title=" ">
<polygon fill="white" stroke="#666666" points="263,-1086 164,-1086 164,-1067 263,-1067 263,-1086"/>
<text text-anchor="middle" x="213.5" y="-1074" font-family="Helvetica,sans-Serif" font-size="10.00">complex number</text>
</a>
</g>
</g>
<!-- Node1&#45;&gt;Node5 -->
<g id="edge4" class="edge">
<title>Node1&#45;&gt;Node5</title>
<path fill="none" stroke="black" d="M50.66,-600.41C53.78,-682.14 69.71,-990.81 134,-1058.5 141.9,-1066.81 152.79,-1071.65 163.95,-1074.38"/>
<polygon fill="black" stroke="black" points="54.14,-599.92 50.29,-590.05 47.15,-600.17 54.14,-599.92"/>
</g>
<!-- Node2 -->
<g id="Node000002" class="node">
<title>Node2</title>
<g id="a_Node000002"><a xlink:href="../../d5/da3/group__A__FLOAT.html" target="_top" xlink:title=" ">
<polygon fill="white" stroke="#666666" points="274.5,-1049 152.5,-1049 152.5,-1030 274.5,-1030 274.5,-1049"/>
<text text-anchor="middle" x="213.5" y="-1037" font-family="Helvetica,sans-Serif" font-size="10.00">floating&#45;point number</text>
</a>
</g>
</g>
<!-- Node1&#45;&gt;Node2 -->
<g id="edge1" class="edge">
<title>Node1&#45;&gt;Node2</title>
<path fill="none" stroke="black" d="M50.98,-600.34C55.2,-677.94 74.46,-959.71 134,-1021.5 139.14,-1026.84 145.52,-1030.73 152.4,-1033.56"/>
<polygon fill="black" stroke="black" points="54.46,-599.86 50.44,-590.06 47.47,-600.23 54.46,-599.86"/>
</g>
<!-- Node6 -->
<g id="Node000006" class="node">
<title>Node6</title>
<g id="a_Node000006"><a xlink:href="../../d6/d0a/group__A__FUZZY.html" target="_top" xlink:title=" ">
<polygon fill="white" stroke="#666666" points="257,-1012 170,-1012 170,-993 257,-993 257,-1012"/>
<text text-anchor="middle" x="213.5" y="-1000" font-family="Helvetica,sans-Serif" font-size="10.00">fuzzy operator</text>
</a>
</g>
</g>
<!-- Node1&#45;&gt;Node6 -->
<g id="edge5" class="edge">
<title>Node1&#45;&gt;Node6</title>
<path fill="none" stroke="black" d="M51.37,-600.55C56.8,-674.23 79.27,-928.64 134,-984.5 143.39,-994.09 156.78,-999.02 169.85,-1001.43"/>
<polygon fill="black" stroke="black" points="54.84,-600.06 50.64,-590.33 47.86,-600.56 54.84,-600.06"/>
</g>
<!-- Node7 -->
<g id="Node000007" class="node">
<title>Node7</title>
<g id="a_Node000007"><a xlink:href="../../dd/d71/group__A__HPF.html" target="_top" xlink:title=" ">
<polygon fill="white" stroke="#666666" points="259.5,-975 167.5,-975 167.5,-956 259.5,-956 259.5,-975"/>
<text text-anchor="middle" x="213.5" y="-963" font-family="Helvetica,sans-Serif" font-size="10.00">High Pass Filter</text>
</a>
</g>
</g>
<!-- Node1&#45;&gt;Node7 -->
<g id="edge6" class="edge">
<title>Node1&#45;&gt;Node7</title>
<path fill="none" stroke="black" d="M51.81,-600.46C58.49,-669.62 83.98,-897.46 134,-947.5 142.8,-956.3 154.97,-961.16 167.1,-963.75"/>
<polygon fill="black" stroke="black" points="55.26,-599.75 50.84,-590.12 48.29,-600.4 55.26,-599.75"/>
</g>
<!-- Node8 -->
<g id="Node000008" class="node">
<title>Node8</title>
<g id="a_Node000008"><a xlink:href="../../d8/de5/group__A__LIST.html" target="_top" xlink:title=" ">
<polygon fill="white" stroke="#666666" points="283,-938 144,-938 144,-919 283,-919 283,-938"/>
<text text-anchor="middle" x="213.5" y="-926" font-family="Helvetica,sans-Serif" font-size="10.00">circular doubly linked list</text>
</a>
</g>
</g>
<!-- Node1&#45;&gt;Node8 -->
<g id="edge7" class="edge">
<title>Node1&#45;&gt;Node8</title>
<path fill="none" stroke="black" d="M52.32,-600.11C60.29,-664.24 88.61,-866.18 134,-910.5 137.4,-913.82 141.28,-916.58 145.46,-918.86"/>
<polygon fill="black" stroke="black" points="55.78,-599.62 51.1,-590.11 48.83,-600.46 55.78,-599.62"/>
</g>
<!-- Node9 -->
<g id="Node000009" class="node">
<title>Node9</title>
<g id="a_Node000009"><a xlink:href="../../df/d27/group__A__LPF.html" target="_top" xlink:title=" ">
<polygon fill="white" stroke="#666666" points="258,-901 169,-901 169,-882 258,-882 258,-901"/>
<text text-anchor="middle" x="213.5" y="-889" font-family="Helvetica,sans-Serif" font-size="10.00">Low Pass Filter</text>
</a>
</g>
</g>
<!-- Node1&#45;&gt;Node9 -->
<g id="edge8" class="edge">
<title>Node1&#45;&gt;Node9</title>
<path fill="none" stroke="black" d="M49.39,-600.3C48.91,-652.86 55.22,-797 134,-872.5 143.31,-881.43 156.07,-886.39 168.6,-889.09"/>
<polygon fill="black" stroke="black" points="52.89,-600.09 49.59,-590.02 45.89,-599.95 52.89,-600.09"/>
</g>
<!-- Node10 -->
<g id="Node000010" class="node">
<title>Node10</title>
<g id="a_Node000010"><a xlink:href="../../d1/d82/group__A__MATH.html" target="_top" xlink:title=" ">
<polygon fill="white" stroke="#666666" points="281,-863.5 146,-863.5 146,-833.5 281,-833.5 281,-863.5"/>
<text text-anchor="start" x="154" y="-851.5" font-family="Helvetica,sans-Serif" font-size="10.00">mathematical algorithm</text>
<text text-anchor="middle" x="213.5" y="-840.5" font-family="Helvetica,sans-Serif" font-size="10.00"> library</text>
</a>
</g>
</g>
<!-- Node1&#45;&gt;Node10 -->
<g id="edge9" class="edge">
<title>Node1&#45;&gt;Node10</title>
<path fill="none" stroke="black" d="M50.95,-600.17C54.25,-646.18 68.94,-761.67 134,-824.5 137.59,-827.97 141.66,-830.93 146.02,-833.47"/>
<polygon fill="black" stroke="black" points="54.44,-599.81 50.33,-590.05 47.45,-600.24 54.44,-599.81"/>
</g>
<!-- Node11 -->
<g id="Node000011" class="node">
<title>Node11</title>
<g id="a_Node000011"><a xlink:href="../../dd/d37/group__A__MF.html" target="_top" xlink:title=" ">
<polygon fill="white" stroke="#666666" points="274,-815 153,-815 153,-796 274,-796 274,-815"/>
<text text-anchor="middle" x="213.5" y="-803" font-family="Helvetica,sans-Serif" font-size="10.00">membership function</text>
</a>
</g>
</g>
<!-- Node1&#45;&gt;Node11 -->
<g id="edge10" class="edge">
<title>Node1&#45;&gt;Node11</title>
<path fill="none" stroke="black" d="M52.02,-600.25C57.36,-641.66 75.7,-737.86 134,-787.5 139.54,-792.21 146.06,-795.76 152.95,-798.41"/>
<polygon fill="black" stroke="black" points="55.48,-599.63 50.84,-590.1 48.52,-600.44 55.48,-599.63"/>
</g>
<!-- Node12 -->
<g id="Node000012" class="node">
<title>Node12</title>
<g id="a_Node000012"><a xlink:href="../../db/ddc/group__A__NOTEFREQ.html" target="_top" xlink:title=" ">
<polygon fill="white" stroke="#666666" points="272.5,-778 154.5,-778 154.5,-759 272.5,-759 272.5,-778"/>
<text text-anchor="middle" x="213.5" y="-766" font-family="Helvetica,sans-Serif" font-size="10.00">note frequency table</text>
</a>
</g>
</g>
<!-- Node1&#45;&gt;Node12 -->
<g id="edge11" class="edge">
<title>Node1&#45;&gt;Node12</title>
<path fill="none" stroke="black" d="M53.92,-600.11C62.12,-635.84 84.59,-711.46 134,-750.5 140.03,-755.27 147.1,-758.82 154.47,-761.45"/>
<polygon fill="black" stroke="black" points="57.27,-599.04 51.74,-590.01 50.42,-600.52 57.27,-599.04"/>
</g>
<!-- Node13 -->
<g id="Node000013" class="node">
<title>Node13</title>
<g id="a_Node000013"><a xlink:href="../../dd/d76/group__A__OPERATOR.html" target="_top" xlink:title=" ">
<polygon fill="white" stroke="#666666" points="287.5,-741 139.5,-741 139.5,-722 287.5,-722 287.5,-741"/>
<text text-anchor="middle" x="213.5" y="-729" font-family="Helvetica,sans-Serif" font-size="10.00">algorithm library operators</text>
</a>
</g>
</g>
<!-- Node1&#45;&gt;Node13 -->
<g id="edge12" class="edge">
<title>Node1&#45;&gt;Node13</title>
<path fill="none" stroke="black" d="M56.81,-599.73C68.13,-628.81 93.66,-683.65 134,-712.5 139.36,-716.33 145.4,-719.4 151.69,-721.85"/>
<polygon fill="black" stroke="black" points="60.06,-598.42 53.28,-590.27 53.5,-600.87 60.06,-598.42"/>
</g>
<!-- Node14 -->
<g id="Node000014" class="node">
<title>Node14</title>
<g id="a_Node000014"><a xlink:href="../../d8/da8/group__A__PID.html" target="_top" xlink:title=" ">
<polygon fill="white" stroke="#666666" points="273,-703.5 154,-703.5 154,-673.5 273,-673.5 273,-703.5"/>
<text text-anchor="start" x="162" y="-691.5" font-family="Helvetica,sans-Serif" font-size="10.00">proportional integral</text>
<text text-anchor="middle" x="213.5" y="-680.5" font-family="Helvetica,sans-Serif" font-size="10.00"> derivative controller</text>
</a>
</g>
</g>
<!-- Node1&#45;&gt;Node14 -->
<g id="edge13" class="edge">
<title>Node1&#45;&gt;Node14</title>
<path fill="none" stroke="black" d="M63.27,-598.19C78.4,-617.19 104.85,-646.99 134,-664.5 140.11,-668.17 146.82,-671.32 153.68,-674.02"/>
<polygon fill="black" stroke="black" points="65.86,-595.82 56.97,-590.07 60.33,-600.12 65.86,-595.82"/>
</g>
<!-- Node15 -->
<g id="Node000015" class="node">
<title>Node15</title>
<g id="a_Node000015"><a xlink:href="../../dc/db1/group__A__PID__FUZZY.html" target="_top" xlink:title=" ">
<polygon fill="white" stroke="#666666" points="268.5,-655 158.5,-655 158.5,-614 268.5,-614 268.5,-655"/>
<text text-anchor="start" x="166.5" y="-643" font-family="Helvetica,sans-Serif" font-size="10.00">fuzzy proportional</text>
<text text-anchor="start" x="166.5" y="-632" font-family="Helvetica,sans-Serif" font-size="10.00"> integral derivative</text>
<text text-anchor="middle" x="213.5" y="-621" font-family="Helvetica,sans-Serif" font-size="10.00"> controller</text>
</a>
</g>
</g>
<!-- Node1&#45;&gt;Node15 -->
<g id="edge14" class="edge">
<title>Node1&#45;&gt;Node15</title>
<path fill="none" stroke="black" d="M88.44,-593.27C109.25,-600.19 135.31,-608.85 158.17,-616.45"/>
<polygon fill="black" stroke="black" points="89.27,-589.86 78.68,-590.03 87.06,-596.5 89.27,-589.86"/>
</g>
<!-- Node16 -->
<g id="Node000016" class="node">
<title>Node16</title>
<g id="a_Node000016"><a xlink:href="../../db/d33/group__A__PID__NEURO.html" target="_top" xlink:title=" ">
<polygon fill="white" stroke="#666666" points="293,-595.5 134,-595.5 134,-565.5 293,-565.5 293,-595.5"/>
<text text-anchor="start" x="142" y="-583.5" font-family="Helvetica,sans-Serif" font-size="10.00">single neuron proportional</text>
<text text-anchor="middle" x="213.5" y="-572.5" font-family="Helvetica,sans-Serif" font-size="10.00"> integral derivative controller</text>
</a>
</g>
</g>
<!-- Node1&#45;&gt;Node16 -->
<g id="edge15" class="edge">
<title>Node1&#45;&gt;Node16</title>
<path fill="none" stroke="black" d="M108.55,-580.5C116.8,-580.5 125.39,-580.5 133.93,-580.5"/>
<polygon fill="black" stroke="black" points="108.32,-577 98.32,-580.5 108.32,-584 108.32,-577"/>
</g>
<!-- Node17 -->
<g id="Node000017" class="node">
<title>Node17</title>
<g id="a_Node000017"><a xlink:href="../../d6/de7/group__A__POLY.html" target="_top" xlink:title=" ">
<polygon fill="white" stroke="#666666" points="249,-547 178,-547 178,-528 249,-528 249,-547"/>
<text text-anchor="middle" x="213.5" y="-535" font-family="Helvetica,sans-Serif" font-size="10.00">polynomial</text>
</a>
</g>
</g>
<!-- Node1&#45;&gt;Node17 -->
<g id="edge16" class="edge">
<title>Node1&#45;&gt;Node17</title>
<path fill="none" stroke="black" d="M92.11,-568.1C105.47,-564.27 120.33,-560.11 134,-556.5 148.24,-552.75 164,-548.87 177.64,-545.61"/>
<polygon fill="black" stroke="black" points="90.86,-564.82 82.23,-570.96 92.8,-571.55 90.86,-564.82"/>
</g>
<!-- Node18 -->
<g id="Node000018" class="node">
<title>Node18</title>
<g id="a_Node000018"><a xlink:href="../../d4/d5e/group__A__POLYTRAJ3.html" target="_top" xlink:title=" ">
<polygon fill="white" stroke="#666666" points="288.5,-510 138.5,-510 138.5,-491 288.5,-491 288.5,-510"/>
<text text-anchor="middle" x="213.5" y="-498" font-family="Helvetica,sans-Serif" font-size="10.00">cubic polynomial trajectory</text>
</a>
</g>
</g>
<!-- Node1&#45;&gt;Node18 -->
<g id="edge17" class="edge">
<title>Node1&#45;&gt;Node18</title>
<path fill="none" stroke="black" d="M67.88,-564.28C84.04,-550.45 109.06,-531.02 134,-519.5 142.27,-515.68 151.41,-512.57 160.43,-510.06"/>
<polygon fill="black" stroke="black" points="65.5,-561.72 60.28,-570.94 70.11,-566.98 65.5,-561.72"/>
</g>
<!-- Node19 -->
<g id="Node000019" class="node">
<title>Node19</title>
<g id="a_Node000019"><a xlink:href="../../d5/d8e/group__A__POLYTRAJ5.html" target="_top" xlink:title=" ">
<polygon fill="white" stroke="#666666" points="267,-472.5 160,-472.5 160,-442.5 267,-442.5 267,-472.5"/>
<text text-anchor="start" x="168" y="-460.5" font-family="Helvetica,sans-Serif" font-size="10.00">quintic polynomial</text>
<text text-anchor="middle" x="213.5" y="-449.5" font-family="Helvetica,sans-Serif" font-size="10.00"> trajectory</text>
</a>
</g>
</g>
<!-- Node1&#45;&gt;Node19 -->
<g id="edge18" class="edge">
<title>Node1&#45;&gt;Node19</title>
<path fill="none" stroke="black" d="M61.13,-562.16C75.39,-540.17 102.11,-503.63 134,-482.5 141.87,-477.29 150.9,-473.1 159.97,-469.75"/>
<polygon fill="black" stroke="black" points="58.02,-560.55 55.65,-570.87 63.94,-564.28 58.02,-560.55"/>
</g>
<!-- Node20 -->
<g id="Node000020" class="node">
<title>Node20</title>
<g id="a_Node000020"><a xlink:href="../../de/d6e/group__A__POLYTRAJ7.html" target="_top" xlink:title=" ">
<polygon fill="white" stroke="#666666" points="289.5,-424 137.5,-424 137.5,-405 289.5,-405 289.5,-424"/>
<text text-anchor="middle" x="213.5" y="-412" font-family="Helvetica,sans-Serif" font-size="10.00">hepta polynomial trajectory</text>
</a>
</g>
</g>
<!-- Node1&#45;&gt;Node20 -->
<g id="edge19" class="edge">
<title>Node1&#45;&gt;Node20</title>
<path fill="none" stroke="black" d="M55.59,-560.94C65.74,-529.11 90.28,-466.36 134,-433.5 139.16,-429.62 144.99,-426.53 151.1,-424.06"/>
<polygon fill="black" stroke="black" points="52.15,-560.22 52.6,-570.81 58.85,-562.26 52.15,-560.22"/>
</g>
<!-- Node21 -->
<g id="Node000021" class="node">
<title>Node21</title>
<g id="a_Node000021"><a xlink:href="../../df/d54/group__A__QUE.html" target="_top" xlink:title=" ">
<polygon fill="white" stroke="#666666" points="268.5,-387 158.5,-387 158.5,-368 268.5,-368 268.5,-387"/>
<text text-anchor="middle" x="213.5" y="-375" font-family="Helvetica,sans-Serif" font-size="10.00">basic queue library</text>
</a>
</g>
</g>
<!-- Node1&#45;&gt;Node21 -->
<g id="edge20" class="edge">
<title>Node1&#45;&gt;Node21</title>
<path fill="none" stroke="black" d="M53.26,-560.41C60.52,-522.34 81.72,-439.65 134,-396.5 141.03,-390.7 149.55,-386.62 158.35,-383.76"/>
<polygon fill="black" stroke="black" points="49.73,-560.24 51.43,-570.7 56.63,-561.47 49.73,-560.24"/>
</g>
<!-- Node22 -->
<g id="Node000022" class="node">
<title>Node22</title>
<g id="a_Node000022"><a xlink:href="../../dd/dd8/group__A__RBF.html" target="_top" xlink:title=" ">
<polygon fill="white" stroke="#666666" points="271.5,-350 155.5,-350 155.5,-331 271.5,-331 271.5,-350"/>
<text text-anchor="middle" x="213.5" y="-338" font-family="Helvetica,sans-Serif" font-size="10.00">radial basis function</text>
</a>
</g>
</g>
<!-- Node1&#45;&gt;Node22 -->
<g id="edge21" class="edge">
<title>Node1&#45;&gt;Node22</title>
<path fill="none" stroke="black" d="M51.51,-560.67C55.92,-517.3 72.67,-413.57 134,-359.5 140.1,-354.12 147.47,-350.21 155.21,-347.36"/>
<polygon fill="black" stroke="black" points="48.01,-560.5 50.6,-570.78 54.99,-561.13 48.01,-560.5"/>
</g>
<!-- Node23 -->
<g id="Node000023" class="node">
<title>Node23</title>
<g id="a_Node000023"><a xlink:href="../../d7/d06/group__A__RBT.html" target="_top" xlink:title=" ">
<polygon fill="white" stroke="#666666" points="262.5,-312.5 164.5,-312.5 164.5,-282.5 262.5,-282.5 262.5,-312.5"/>
<text text-anchor="start" x="172.5" y="-300.5" font-family="Helvetica,sans-Serif" font-size="10.00">red–black binary</text>
<text text-anchor="middle" x="213.5" y="-289.5" font-family="Helvetica,sans-Serif" font-size="10.00"> search tree</text>
</a>
</g>
</g>
<!-- Node1&#45;&gt;Node23 -->
<g id="edge22" class="edge">
<title>Node1&#45;&gt;Node23</title>
<path fill="none" stroke="black" d="M50.58,-560.74C53.06,-512.93 66.08,-389.98 134,-322.5 142.22,-314.33 153.09,-308.83 164.12,-305.13"/>
<polygon fill="black" stroke="black" points="47.07,-560.83 50.15,-570.96 54.07,-561.12 47.07,-560.83"/>
</g>
<!-- Node24 -->
<g id="Node000024" class="node">
<title>Node24</title>
<g id="a_Node000024"><a xlink:href="../../d1/dfe/group__A__SLIST.html" target="_top" xlink:title=" ">
<polygon fill="white" stroke="#666666" points="261.5,-264 165.5,-264 165.5,-245 261.5,-245 261.5,-264"/>
<text text-anchor="middle" x="213.5" y="-252" font-family="Helvetica,sans-Serif" font-size="10.00">singly linked list</text>
</a>
</g>
</g>
<!-- Node1&#45;&gt;Node24 -->
<g id="edge23" class="edge">
<title>Node1&#45;&gt;Node24</title>
<path fill="none" stroke="black" d="M52.77,-560.71C61.72,-499.43 91.82,-314.45 134,-273.5 142.45,-265.3 153.81,-260.43 165.25,-257.59"/>
<polygon fill="black" stroke="black" points="49.25,-560.55 51.3,-570.95 56.18,-561.54 49.25,-560.55"/>
</g>
<!-- Node25 -->
<g id="Node000025" class="node">
<title>Node25</title>
<g id="a_Node000025"><a xlink:href="../../db/d6c/group__A__STR.html" target="_top" xlink:title=" ">
<polygon fill="white" stroke="#666666" points="267,-227 160,-227 160,-208 267,-208 267,-227"/>
<text text-anchor="middle" x="213.5" y="-215" font-family="Helvetica,sans-Serif" font-size="10.00">basic string library</text>
</a>
</g>
</g>
<!-- Node1&#45;&gt;Node25 -->
<g id="edge24" class="edge">
<title>Node1&#45;&gt;Node25</title>
<path fill="none" stroke="black" d="M52.16,-560.53C59.75,-494.26 87.2,-283.2 134,-236.5 141.05,-229.47 150.22,-224.87 159.81,-221.91"/>
<polygon fill="black" stroke="black" points="48.65,-560.5 51.01,-570.83 55.6,-561.28 48.65,-560.5"/>
</g>
<!-- Node26 -->
<g id="Node000026" class="node">
<title>Node26</title>
<g id="a_Node000026"><a xlink:href="../../d0/ddd/group__A__TF.html" target="_top" xlink:title=" ">
<polygon fill="white" stroke="#666666" points="262.5,-190 164.5,-190 164.5,-171 262.5,-171 262.5,-190"/>
<text text-anchor="middle" x="213.5" y="-178" font-family="Helvetica,sans-Serif" font-size="10.00">transfer function</text>
</a>
</g>
</g>
<!-- Node1&#45;&gt;Node26 -->
<g id="edge25" class="edge">
<title>Node1&#45;&gt;Node26</title>
<path fill="none" stroke="black" d="M51.64,-560.71C57.88,-490.12 82.47,-252.09 134,-199.5 142.05,-191.29 152.99,-186.39 164.15,-183.52"/>
<polygon fill="black" stroke="black" points="48.13,-560.62 50.77,-570.88 55.11,-561.22 48.13,-560.62"/>
</g>
<!-- Node27 -->
<g id="Node000027" class="node">
<title>Node27</title>
<g id="a_Node000027"><a xlink:href="../../db/d75/group__A__TRAPTRAJ.html" target="_top" xlink:title=" ">
<polygon fill="white" stroke="#666666" points="270,-152.5 157,-152.5 157,-122.5 270,-122.5 270,-152.5"/>
<text text-anchor="start" x="165" y="-140.5" font-family="Helvetica,sans-Serif" font-size="10.00">trapezoidal velocity</text>
<text text-anchor="middle" x="213.5" y="-129.5" font-family="Helvetica,sans-Serif" font-size="10.00"> profile trajectory</text>
</a>
</g>
</g>
<!-- Node1&#45;&gt;Node27 -->
<g id="edge26" class="edge">
<title>Node1&#45;&gt;Node27</title>
<path fill="none" stroke="black" d="M51.38,-560.4C56.94,-485.36 79.98,-222.82 134,-162.5 140.2,-155.57 148.32,-150.55 156.97,-146.92"/>
<polygon fill="black" stroke="black" points="47.86,-560.55 50.64,-570.78 54.85,-561.05 47.86,-560.55"/>
</g>
<!-- Node28 -->
<g id="Node000028" class="node">
<title>Node28</title>
<g id="a_Node000028"><a xlink:href="../../d9/da8/group__A__UTF.html" target="_top" xlink:title=" ">
<polygon fill="white" stroke="#666666" points="280,-104.5 147,-104.5 147,-74.5 280,-74.5 280,-104.5"/>
<text text-anchor="start" x="155" y="-92.5" font-family="Helvetica,sans-Serif" font-size="10.00">Unicode Transformation</text>
<text text-anchor="middle" x="213.5" y="-81.5" font-family="Helvetica,sans-Serif" font-size="10.00"> Format</text>
</a>
</g>
</g>
<!-- Node1&#45;&gt;Node28 -->
<g id="edge27" class="edge">
<title>Node1&#45;&gt;Node28</title>
<path fill="none" stroke="black" d="M50.89,-560.65C54.85,-480.49 73.53,-181.61 134,-113.5 137.69,-109.34 142.08,-105.9 146.86,-103.04"/>
<polygon fill="black" stroke="black" points="47.38,-560.69 50.4,-570.84 54.37,-561.02 47.38,-560.69"/>
</g>
<!-- Node29 -->
<g id="Node000029" class="node">
<title>Node29</title>
<g id="a_Node000029"><a xlink:href="../../da/d05/group__A__VEC.html" target="_top" xlink:title=" ">
<polygon fill="white" stroke="#666666" points="268.5,-56 158.5,-56 158.5,-37 268.5,-37 268.5,-56"/>
<text text-anchor="middle" x="213.5" y="-44" font-family="Helvetica,sans-Serif" font-size="10.00">basic vector library</text>
</a>
</g>
</g>
<!-- Node1&#45;&gt;Node29 -->
<g id="edge28" class="edge">
<title>Node1&#45;&gt;Node29</title>
<path fill="none" stroke="black" d="M50.41,-560.45C52.58,-474.66 65.41,-139.5 134,-65.5 140.48,-58.51 149.06,-53.89 158.16,-50.88"/>
<polygon fill="black" stroke="black" points="46.91,-560.57 50.17,-570.65 53.91,-560.73 46.91,-560.57"/>
</g>
<!-- Node30 -->
<g id="Node000030" class="node">
<title>Node30</title>
<g id="a_Node000030"><a xlink:href="../../d2/d1b/group__A__VERSION.html" target="_top" xlink:title=" ">
<polygon fill="white" stroke="#666666" points="282,-19 145,-19 145,0 282,0 282,-19"/>
<text text-anchor="middle" x="213.5" y="-7" font-family="Helvetica,sans-Serif" font-size="10.00">algorithm library version</text>
</a>
</g>
</g>
<!-- Node1&#45;&gt;Node30 -->
<g id="edge29" class="edge">
<title>Node1&#45;&gt;Node30</title>
<path fill="none" stroke="black" d="M50.17,-560.74C51.33,-471.69 60.56,-108.58 134,-28.5 137.51,-24.68 141.64,-21.56 146.14,-19.03"/>
<polygon fill="black" stroke="black" points="46.67,-560.78 50.06,-570.82 53.67,-560.86 46.67,-560.78"/>
</g>
</g>
</svg>

<g id="navigator" transform="translate(0 0)" fill="#404254">
  <rect fill="#f2f5e9" fill-opacity="0.5" stroke="#606060" stroke-width=".5" x="0" y="0" width="60" height="60"/>
  <use id="zoomplus" xlink:href="#zoomPlus" x="17" y="9" onmousedown="handleZoom(evt,'in')"/>
  <use id="zoomminus" xlink:href="#zoomMin" x="42" y="9" onmousedown="handleZoom(evt,'out')"/>
  <use id="reset" xlink:href="#resetDef" x="30" y="36" onmousedown="handleReset()"/>
   <use id="arrowup" xlink:href="#arrowUp" x="0" y="0" onmousedown="handlePan(0,-1)"/>
  <use id="arrowright" xlink:href="#arrowRight" x="0" y="0" onmousedown="handlePan(1,0)"/>
  <use id="arrowdown" xlink:href="#arrowDown" x="0" y="0" onmousedown="handlePan(0,1)"/>
  <use id="arrowleft" xlink:href="#arrowLeft" x="0" y="0" onmousedown="handlePan(-1,0)"/>
</g>
<svg viewBox="0 0 15 15" width="100%" height="30px" preserveAspectRatio="xMaxYMin meet">
 <g id="arrow_out" transform="scale(0.3 0.3)">
  <a xlink:href="group__A_org.svg" target="_base">
   <rect id="button" ry="5" rx="5" y="6" x="6" height="38" width="38"
        fill="#f2f5e9" fill-opacity="0.5" stroke="#606060" stroke-width="1.0"/>
   <path id="arrow"
     d="M 11.500037,31.436501 C 11.940474,20.09759 22.043105,11.32322 32.158766,21.979434 L 37.068811,17.246167 C 37.068811,17.246167 37.088388,32 37.088388,32 L 22.160133,31.978069 C 22.160133,31.978069 26.997745,27.140456 26.997745,27.140456 C 18.528582,18.264221 13.291696,25.230495 11.500037,31.436501 z"
     style="fill:#404040;"/>
  </a>
 </g>
</svg>

<style type='text/css'>
<![CDATA[
[data-mouse-over-selected='false'] { opacity: 0.7; }
[data-mouse-over-selected='true']  { opacity: 1.0; }
]]>
</style>
<script type="application/ecmascript"><![CDATA[
document.addEventListener('DOMContentLoaded', (event) => {
  highlightEdges();
  highlightAdjacentNodes();
});
]]></script>
</svg>
