<?xml version="1.0" encoding="UTF-8" standalone="no"?>
<!DOCTYPE svg PUBLIC "-//W3C//DTD SVG 1.1//EN"
 "http://www.w3.org/Graphics/SVG/1.1/DTD/svg11.dtd">
<!-- Generated by graphviz version 2.43.0 (0)
 -->
<!-- Title: algorithm library Pages: 1 -->
<svg width="304pt" height="1022pt"
 viewBox="0.00 0.00 304.00 1022.00" xmlns="http://www.w3.org/2000/svg" xmlns:xlink="http://www.w3.org/1999/xlink">
<g id="graph0" class="graph" transform="scale(1 1) rotate(0) translate(4 1018)">
<title>algorithm library</title>
<!-- Node1 -->
<g id="Node000001" class="node">
<title>Node1</title>
<g id="a_Node000001"><a xlink:title=" ">
<polygon fill="#999999" stroke="#666666" points="98,-536 0,-536 0,-517 98,-517 98,-536"/>
<text text-anchor="middle" x="49" y="-524" font-family="Helvetica,sans-Serif" font-size="10.00">algorithm library</text>
</a>
</g>
</g>
<!-- Node3 -->
<g id="Node000003" class="node">
<title>Node3</title>
<g id="a_Node000003"><a xlink:href="../../d6/d8f/group__A__AVL.html" target="_top" xlink:title=" ">
<polygon fill="white" stroke="#666666" points="278,-1014 152,-1014 152,-995 278,-995 278,-1014"/>
<text text-anchor="middle" x="215" y="-1002" font-family="Helvetica,sans-Serif" font-size="10.00">AVL binary search tree</text>
</a>
</g>
</g>
<!-- Node1&#45;&gt;Node3 -->
<g id="edge2" class="edge">
<title>Node1&#45;&gt;Node3</title>
<path fill="none" stroke="black" d="M50.79,-546.18C54.39,-625.65 71.84,-921.75 134,-986.5 139.03,-991.74 145.23,-995.6 151.93,-998.43"/>
<polygon fill="black" stroke="black" points="54.28,-545.92 50.36,-536.08 47.29,-546.22 54.28,-545.92"/>
</g>
<!-- Node4 -->
<g id="Node000004" class="node">
<title>Node4</title>
<g id="a_Node000004"><a xlink:href="../../d0/df8/group__A__BUF.html" target="_top" xlink:title=" ">
<polygon fill="white" stroke="#666666" points="269,-977 161,-977 161,-958 269,-958 269,-977"/>
<text text-anchor="middle" x="215" y="-965" font-family="Helvetica,sans-Serif" font-size="10.00">basic buffer library</text>
</a>
</g>
</g>
<!-- Node1&#45;&gt;Node4 -->
<g id="edge3" class="edge">
<title>Node1&#45;&gt;Node4</title>
<path fill="none" stroke="black" d="M51.12,-546.03C55.85,-621.2 76.58,-890.61 134,-949.5 141.26,-956.94 150.88,-961.6 160.93,-964.46"/>
<polygon fill="black" stroke="black" points="54.62,-545.81 50.52,-536.04 47.63,-546.24 54.62,-545.81"/>
</g>
<!-- Node5 -->
<g id="Node000005" class="node">
<title>Node5</title>
<g id="a_Node000005"><a xlink:href="../../d6/dbb/group__A__COMPLEX.html" target="_top" xlink:title=" ">
<polygon fill="white" stroke="#666666" points="264.5,-940 165.5,-940 165.5,-921 264.5,-921 264.5,-940"/>
<text text-anchor="middle" x="215" y="-928" font-family="Helvetica,sans-Serif" font-size="10.00">complex number</text>
</a>
</g>
</g>
<!-- Node1&#45;&gt;Node5 -->
<g id="edge4" class="edge">
<title>Node1&#45;&gt;Node5</title>
<path fill="none" stroke="black" d="M51.57,-546.58C57.58,-618.18 81.47,-859.6 134,-912.5 142.33,-920.88 153.66,-925.72 165.18,-928.44"/>
<polygon fill="black" stroke="black" points="55.03,-545.94 50.73,-536.26 48.05,-546.51 55.03,-545.94"/>
</g>
<!-- Node2 -->
<g id="Node000002" class="node">
<title>Node2</title>
<g id="a_Node000002"><a xlink:href="../../d5/da3/group__A__FLOAT.html" target="_top" xlink:title=" ">
<polygon fill="white" stroke="#666666" points="276,-903 154,-903 154,-884 276,-884 276,-903"/>
<text text-anchor="middle" x="215" y="-891" font-family="Helvetica,sans-Serif" font-size="10.00">floating&#45;point number</text>
</a>
</g>
</g>
<!-- Node1&#45;&gt;Node2 -->
<g id="edge1" class="edge">
<title>Node1&#45;&gt;Node2</title>
<path fill="none" stroke="black" d="M52.05,-546.37C59.33,-613.22 86.16,-828.37 134,-875.5 139.58,-881 146.45,-884.96 153.81,-887.8"/>
<polygon fill="black" stroke="black" points="55.52,-545.9 50.98,-536.32 48.56,-546.64 55.52,-545.9"/>
</g>
<!-- Node6 -->
<g id="Node000006" class="node">
<title>Node6</title>
<g id="a_Node000006"><a xlink:href="../../d6/d0a/group__A__FUZZY.html" target="_top" xlink:title=" ">
<polygon fill="white" stroke="#666666" points="258.5,-866 171.5,-866 171.5,-847 258.5,-847 258.5,-866"/>
<text text-anchor="middle" x="215" y="-854" font-family="Helvetica,sans-Serif" font-size="10.00">fuzzy operator</text>
</a>
</g>
</g>
<!-- Node1&#45;&gt;Node6 -->
<g id="edge5" class="edge">
<title>Node1&#45;&gt;Node6</title>
<path fill="none" stroke="black" d="M52.64,-546.25C61.3,-608.21 90.84,-797.1 134,-838.5 143.97,-848.06 157.87,-852.96 171.29,-855.36"/>
<polygon fill="black" stroke="black" points="56.09,-545.65 51.26,-536.22 49.15,-546.6 56.09,-545.65"/>
</g>
<!-- Node11 -->
<g id="Node000011" class="node">
<title>Node11</title>
<g id="a_Node000011"><a xlink:href="../../dd/d71/group__A__HPF.html" target="_top" xlink:title=" ">
<polygon fill="white" stroke="#666666" points="261,-829 169,-829 169,-810 261,-810 261,-829"/>
<text text-anchor="middle" x="215" y="-817" font-family="Helvetica,sans-Serif" font-size="10.00">High Pass Filter</text>
</a>
</g>
</g>
<!-- Node1&#45;&gt;Node11 -->
<g id="edge10" class="edge">
<title>Node1&#45;&gt;Node11</title>
<path fill="none" stroke="black" d="M49.74,-546.24C50.2,-596.78 58.79,-731.74 134,-801.5 143.5,-810.31 156.35,-815.13 168.98,-817.69"/>
<polygon fill="black" stroke="black" points="53.24,-546.04 49.75,-536.04 46.24,-546.04 53.24,-546.04"/>
</g>
<!-- Node12 -->
<g id="Node000012" class="node">
<title>Node12</title>
<g id="a_Node000012"><a xlink:href="../../d8/de5/group__A__LIST.html" target="_top" xlink:title=" ">
<polygon fill="white" stroke="#666666" points="284.5,-792 145.5,-792 145.5,-773 284.5,-773 284.5,-792"/>
<text text-anchor="middle" x="215" y="-780" font-family="Helvetica,sans-Serif" font-size="10.00">circular doubly linked list</text>
</a>
</g>
</g>
<!-- Node1&#45;&gt;Node12 -->
<g id="edge11" class="edge">
<title>Node1&#45;&gt;Node12</title>
<path fill="none" stroke="black" d="M50.85,-546.66C53.93,-592.68 68.17,-706.01 134,-764.5 137.72,-767.81 141.93,-770.55 146.41,-772.82"/>
<polygon fill="black" stroke="black" points="54.33,-546.27 50.28,-536.48 47.34,-546.66 54.33,-546.27"/>
</g>
<!-- Node13 -->
<g id="Node000013" class="node">
<title>Node13</title>
<g id="a_Node000013"><a xlink:href="../../df/d27/group__A__LPF.html" target="_top" xlink:title=" ">
<polygon fill="white" stroke="#666666" points="259.5,-755 170.5,-755 170.5,-736 259.5,-736 259.5,-755"/>
<text text-anchor="middle" x="215" y="-743" font-family="Helvetica,sans-Serif" font-size="10.00">Low Pass Filter</text>
</a>
</g>
</g>
<!-- Node1&#45;&gt;Node13 -->
<g id="edge12" class="edge">
<title>Node1&#45;&gt;Node13</title>
<path fill="none" stroke="black" d="M52.39,-546.38C58.35,-586.79 77.67,-678.74 134,-726.5 144.13,-735.08 157.45,-739.94 170.32,-742.64"/>
<polygon fill="black" stroke="black" points="55.83,-545.66 51.02,-536.22 48.89,-546.6 55.83,-545.66"/>
</g>
<!-- Node14 -->
<g id="Node000014" class="node">
<title>Node14</title>
<g id="a_Node000014"><a xlink:href="../../d1/d82/group__A__MATH.html" target="_top" xlink:title=" ">
<polygon fill="white" stroke="#666666" points="282.5,-717.5 147.5,-717.5 147.5,-687.5 282.5,-687.5 282.5,-717.5"/>
<text text-anchor="start" x="155.5" y="-705.5" font-family="Helvetica,sans-Serif" font-size="10.00">mathematical algorithm</text>
<text text-anchor="middle" x="215" y="-694.5" font-family="Helvetica,sans-Serif" font-size="10.00"> library</text>
</a>
</g>
</g>
<!-- Node1&#45;&gt;Node14 -->
<g id="edge13" class="edge">
<title>Node1&#45;&gt;Node14</title>
<path fill="none" stroke="black" d="M55.47,-546.03C65.55,-578.4 90.14,-643.13 134,-678.5 138.29,-681.96 143.07,-684.92 148.1,-687.45"/>
<polygon fill="black" stroke="black" points="58.81,-544.96 52.6,-536.38 52.1,-546.96 58.81,-544.96"/>
</g>
<!-- Node15 -->
<g id="Node000015" class="node">
<title>Node15</title>
<g id="a_Node000015"><a xlink:href="../../dd/d37/group__A__MF.html" target="_top" xlink:title=" ">
<polygon fill="white" stroke="#666666" points="275.5,-669 154.5,-669 154.5,-650 275.5,-650 275.5,-669"/>
<text text-anchor="middle" x="215" y="-657" font-family="Helvetica,sans-Serif" font-size="10.00">membership function</text>
</a>
</g>
</g>
<!-- Node1&#45;&gt;Node15 -->
<g id="edge14" class="edge">
<title>Node1&#45;&gt;Node15</title>
<path fill="none" stroke="black" d="M58.32,-545.16C70.87,-571.02 97.14,-617.31 134,-641.5 140.19,-645.56 147.17,-648.71 154.35,-651.16"/>
<polygon fill="black" stroke="black" points="61.47,-543.61 54.06,-536.04 55.13,-546.58 61.47,-543.61"/>
</g>
<!-- Node16 -->
<g id="Node000016" class="node">
<title>Node16</title>
<g id="a_Node000016"><a xlink:href="../../db/ddc/group__A__NOTEFREQ.html" target="_top" xlink:title=" ">
<polygon fill="white" stroke="#666666" points="274,-632 156,-632 156,-613 274,-613 274,-632"/>
<text text-anchor="middle" x="215" y="-620" font-family="Helvetica,sans-Serif" font-size="10.00">note frequency table</text>
</a>
</g>
</g>
<!-- Node1&#45;&gt;Node16 -->
<g id="edge15" class="edge">
<title>Node1&#45;&gt;Node16</title>
<path fill="none" stroke="black" d="M64,-544.11C79.28,-562.09 105.4,-589.43 134,-604.5 140.8,-608.08 148.29,-610.96 155.88,-613.26"/>
<polygon fill="black" stroke="black" points="66.48,-541.61 57.41,-536.13 61.08,-546.07 66.48,-541.61"/>
</g>
<!-- Node17 -->
<g id="Node000017" class="node">
<title>Node17</title>
<g id="a_Node000017"><a xlink:href="../../df/db1/group__A__OOP.html" target="_top" xlink:title=" ">
<polygon fill="white" stroke="#666666" points="296,-595 134,-595 134,-576 296,-576 296,-595"/>
<text text-anchor="middle" x="215" y="-583" font-family="Helvetica,sans-Serif" font-size="10.00">Object Oriented Programming</text>
</a>
</g>
</g>
<!-- Node1&#45;&gt;Node17 -->
<g id="edge16" class="edge">
<title>Node1&#45;&gt;Node17</title>
<path fill="none" stroke="black" d="M75.47,-540.86C91.79,-549.58 113.65,-560.35 134,-567.5 143.27,-570.75 153.35,-573.56 163.14,-575.93"/>
<polygon fill="black" stroke="black" points="77.01,-537.72 66.55,-536.02 73.67,-543.87 77.01,-537.72"/>
</g>
<!-- Node18 -->
<g id="Node000018" class="node">
<title>Node18</title>
<g id="a_Node000018"><a xlink:href="../../dd/d76/group__A__OPERATOR.html" target="_top" xlink:title=" ">
<polygon fill="white" stroke="#666666" points="289,-558 141,-558 141,-539 289,-539 289,-558"/>
<text text-anchor="middle" x="215" y="-546" font-family="Helvetica,sans-Serif" font-size="10.00">algorithm library operators</text>
</a>
</g>
</g>
<!-- Node1&#45;&gt;Node18 -->
<g id="edge17" class="edge">
<title>Node1&#45;&gt;Node18</title>
<path fill="none" stroke="black" d="M108.38,-534.33C119.57,-535.83 131.4,-537.42 142.93,-538.97"/>
<polygon fill="black" stroke="black" points="108.69,-530.84 98.32,-532.98 107.76,-537.78 108.69,-530.84"/>
</g>
<!-- Node19 -->
<g id="Node000019" class="node">
<title>Node19</title>
<g id="a_Node000019"><a xlink:href="../../d8/da8/group__A__PID.html" target="_top" xlink:title=" ">
<polygon fill="white" stroke="#666666" points="274.5,-520.5 155.5,-520.5 155.5,-490.5 274.5,-490.5 274.5,-520.5"/>
<text text-anchor="start" x="163.5" y="-508.5" font-family="Helvetica,sans-Serif" font-size="10.00">proportional integral</text>
<text text-anchor="middle" x="215" y="-497.5" font-family="Helvetica,sans-Serif" font-size="10.00"> derivative controller</text>
</a>
</g>
</g>
<!-- Node1&#45;&gt;Node19 -->
<g id="edge18" class="edge">
<title>Node1&#45;&gt;Node19</title>
<path fill="none" stroke="black" d="M108.61,-519C123.78,-517.05 140.12,-514.96 155.29,-513.02"/>
<polygon fill="black" stroke="black" points="107.79,-515.57 98.32,-520.31 108.68,-522.51 107.79,-515.57"/>
</g>
<!-- Node20 -->
<g id="Node000020" class="node">
<title>Node20</title>
<g id="a_Node000020"><a xlink:href="../../dc/db1/group__A__PID__FUZZY.html" target="_top" xlink:title=" ">
<polygon fill="white" stroke="#666666" points="270,-472 160,-472 160,-431 270,-431 270,-472"/>
<text text-anchor="start" x="168" y="-460" font-family="Helvetica,sans-Serif" font-size="10.00">fuzzy proportional</text>
<text text-anchor="start" x="168" y="-449" font-family="Helvetica,sans-Serif" font-size="10.00"> integral derivative</text>
<text text-anchor="middle" x="215" y="-438" font-family="Helvetica,sans-Serif" font-size="10.00"> controller</text>
</a>
</g>
</g>
<!-- Node1&#45;&gt;Node20 -->
<g id="edge19" class="edge">
<title>Node1&#45;&gt;Node20</title>
<path fill="none" stroke="black" d="M75.38,-511.76C91.82,-502.5 113.84,-490.63 134,-481.5 142.24,-477.77 151.1,-474.11 159.81,-470.7"/>
<polygon fill="black" stroke="black" points="73.37,-508.88 66.41,-516.87 76.83,-514.97 73.37,-508.88"/>
</g>
<!-- Node21 -->
<g id="Node000021" class="node">
<title>Node21</title>
<g id="a_Node000021"><a xlink:href="../../d6/de7/group__A__POLY.html" target="_top" xlink:title=" ">
<polygon fill="white" stroke="#666666" points="250.5,-413 179.5,-413 179.5,-394 250.5,-394 250.5,-413"/>
<text text-anchor="middle" x="215" y="-401" font-family="Helvetica,sans-Serif" font-size="10.00">polynomial</text>
</a>
</g>
</g>
<!-- Node1&#45;&gt;Node21 -->
<g id="edge20" class="edge">
<title>Node1&#45;&gt;Node21</title>
<path fill="none" stroke="black" d="M59.79,-508C73.27,-484.4 99.81,-444.05 134,-422.5 147.53,-413.98 164.53,-409.27 179.38,-406.68"/>
<polygon fill="black" stroke="black" points="56.6,-506.54 54.83,-516.99 62.72,-509.93 56.6,-506.54"/>
</g>
<!-- Node22 -->
<g id="Node000022" class="node">
<title>Node22</title>
<g id="a_Node000022"><a xlink:href="../../d1/d97/group__A__POLYTRACK.html" target="_top" xlink:title=" ">
<polygon fill="white" stroke="#666666" points="276,-376 154,-376 154,-357 276,-357 276,-376"/>
<text text-anchor="middle" x="215" y="-364" font-family="Helvetica,sans-Serif" font-size="10.00">polynomial trajectory</text>
</a>
</g>
</g>
<!-- Node1&#45;&gt;Node22 -->
<g id="edge21" class="edge">
<title>Node1&#45;&gt;Node22</title>
<path fill="none" stroke="black" d="M55.97,-507.26C66.52,-476.55 91.47,-416.73 134,-385.5 139.98,-381.11 146.84,-377.71 153.96,-375.1"/>
<polygon fill="black" stroke="black" points="52.62,-506.22 52.83,-516.82 59.27,-508.41 52.62,-506.22"/>
</g>
<!-- Node7 -->
<g id="Node000007" class="node">
<title>Node7</title>
<g id="a_Node000007"><a xlink:href="../../df/d54/group__A__QUE.html" target="_top" xlink:title=" ">
<polygon fill="white" stroke="#666666" points="270,-339 160,-339 160,-320 270,-320 270,-339"/>
<text text-anchor="middle" x="215" y="-327" font-family="Helvetica,sans-Serif" font-size="10.00">basic queue library</text>
</a>
</g>
</g>
<!-- Node1&#45;&gt;Node7 -->
<g id="edge6" class="edge">
<title>Node1&#45;&gt;Node7</title>
<path fill="none" stroke="black" d="M53.56,-506.51C61.25,-469.39 83.01,-389.86 134,-348.5 141.43,-342.47 150.45,-338.3 159.72,-335.42"/>
<polygon fill="black" stroke="black" points="50.07,-506.09 51.61,-516.58 56.94,-507.43 50.07,-506.09"/>
</g>
<!-- Node23 -->
<g id="Node000023" class="node">
<title>Node23</title>
<g id="a_Node000023"><a xlink:href="../../d7/d06/group__A__RBT.html" target="_top" xlink:title=" ">
<polygon fill="white" stroke="#666666" points="264,-301.5 166,-301.5 166,-271.5 264,-271.5 264,-301.5"/>
<text text-anchor="start" x="174" y="-289.5" font-family="Helvetica,sans-Serif" font-size="10.00">red–black binary</text>
<text text-anchor="middle" x="215" y="-278.5" font-family="Helvetica,sans-Serif" font-size="10.00"> search tree</text>
</a>
</g>
</g>
<!-- Node1&#45;&gt;Node23 -->
<g id="edge22" class="edge">
<title>Node1&#45;&gt;Node23</title>
<path fill="none" stroke="black" d="M52.06,-506.64C57.48,-464.5 76.02,-365.58 134,-311.5 142.83,-303.26 154.35,-297.74 165.88,-294.03"/>
<polygon fill="black" stroke="black" points="48.56,-506.38 50.88,-516.72 55.52,-507.19 48.56,-506.38"/>
</g>
<!-- Node24 -->
<g id="Node000024" class="node">
<title>Node24</title>
<g id="a_Node000024"><a xlink:href="../../d1/dfe/group__A__SLIST.html" target="_top" xlink:title=" ">
<polygon fill="white" stroke="#666666" points="282.5,-253 147.5,-253 147.5,-234 282.5,-234 282.5,-253"/>
<text text-anchor="middle" x="215" y="-241" font-family="Helvetica,sans-Serif" font-size="10.00">circular singly linked list</text>
</a>
</g>
</g>
<!-- Node1&#45;&gt;Node24 -->
<g id="edge23" class="edge">
<title>Node1&#45;&gt;Node24</title>
<path fill="none" stroke="black" d="M50.08,-506.61C51.42,-457.42 62.02,-329.28 134,-262.5 138.08,-258.71 142.78,-255.64 147.8,-253.15"/>
<polygon fill="black" stroke="black" points="46.58,-506.78 49.91,-516.84 53.58,-506.9 46.58,-506.78"/>
</g>
<!-- Node8 -->
<g id="Node000008" class="node">
<title>Node8</title>
<g id="a_Node000008"><a xlink:href="../../db/d6c/group__A__STR.html" target="_top" xlink:title=" ">
<polygon fill="white" stroke="#666666" points="268.5,-216 161.5,-216 161.5,-197 268.5,-197 268.5,-216"/>
<text text-anchor="middle" x="215" y="-204" font-family="Helvetica,sans-Serif" font-size="10.00">basic string library</text>
</a>
</g>
</g>
<!-- Node1&#45;&gt;Node8 -->
<g id="edge7" class="edge">
<title>Node1&#45;&gt;Node8</title>
<path fill="none" stroke="black" d="M49.17,-506.78C48.06,-453.19 52.76,-303.63 134,-225.5 141.51,-218.28 151.24,-213.63 161.32,-210.67"/>
<polygon fill="black" stroke="black" points="45.68,-507.08 49.48,-516.97 52.67,-506.86 45.68,-507.08"/>
</g>
<!-- Node25 -->
<g id="Node000025" class="node">
<title>Node25</title>
<g id="a_Node000025"><a xlink:href="../../d0/ddd/group__A__TF.html" target="_top" xlink:title=" ">
<polygon fill="white" stroke="#666666" points="264,-179 166,-179 166,-160 264,-160 264,-179"/>
<text text-anchor="middle" x="215" y="-167" font-family="Helvetica,sans-Serif" font-size="10.00">transfer function</text>
</a>
</g>
</g>
<!-- Node1&#45;&gt;Node25 -->
<g id="edge24" class="edge">
<title>Node1&#45;&gt;Node25</title>
<path fill="none" stroke="black" d="M52.21,-506.86C59.93,-441.72 87.78,-234.24 134,-188.5 142.52,-180.07 154.07,-175.12 165.73,-172.28"/>
<polygon fill="black" stroke="black" points="48.71,-506.66 51.04,-516.99 55.66,-507.46 48.71,-506.66"/>
</g>
<!-- Node26 -->
<g id="Node000026" class="node">
<title>Node26</title>
<g id="a_Node000026"><a xlink:href="../../d9/da8/group__A__UTF.html" target="_top" xlink:title=" ">
<polygon fill="white" stroke="#666666" points="281.5,-141.5 148.5,-141.5 148.5,-111.5 281.5,-111.5 281.5,-141.5"/>
<text text-anchor="start" x="156.5" y="-129.5" font-family="Helvetica,sans-Serif" font-size="10.00">Unicode Transformation</text>
<text text-anchor="middle" x="215" y="-118.5" font-family="Helvetica,sans-Serif" font-size="10.00"> Format</text>
</a>
</g>
</g>
<!-- Node1&#45;&gt;Node26 -->
<g id="edge25" class="edge">
<title>Node1&#45;&gt;Node26</title>
<path fill="none" stroke="black" d="M51.85,-506.68C58.72,-437.01 84.99,-204.74 134,-151.5 138.14,-147 143.07,-143.31 148.43,-140.28"/>
<polygon fill="black" stroke="black" points="48.35,-506.45 50.88,-516.74 55.32,-507.12 48.35,-506.45"/>
</g>
<!-- Node9 -->
<g id="Node000009" class="node">
<title>Node9</title>
<g id="a_Node000009"><a xlink:href="../../da/d05/group__A__VEC.html" target="_top" xlink:title=" ">
<polygon fill="white" stroke="#666666" points="270,-93 160,-93 160,-74 270,-74 270,-93"/>
<text text-anchor="middle" x="215" y="-81" font-family="Helvetica,sans-Serif" font-size="10.00">basic vector library</text>
</a>
</g>
</g>
<!-- Node1&#45;&gt;Node9 -->
<g id="edge8" class="edge">
<title>Node1&#45;&gt;Node9</title>
<path fill="none" stroke="black" d="M51.14,-506.95C55.91,-431.67 76.81,-161.88 134,-102.5 140.93,-95.3 150.05,-90.62 159.65,-87.62"/>
<polygon fill="black" stroke="black" points="47.64,-506.75 50.53,-516.95 54.63,-507.18 47.64,-506.75"/>
</g>
<!-- Node10 -->
<g id="Node000010" class="node">
<title>Node10</title>
<g id="a_Node000010"><a xlink:href="../../da/df8/group__A__VECTOR.html" target="_top" xlink:title=" ">
<polygon fill="white" stroke="#666666" points="270,-56 160,-56 160,-37 270,-37 270,-56"/>
<text text-anchor="middle" x="215" y="-44" font-family="Helvetica,sans-Serif" font-size="10.00">basic vector library</text>
</a>
</g>
</g>
<!-- Node1&#45;&gt;Node10 -->
<g id="edge9" class="edge">
<title>Node1&#45;&gt;Node10</title>
<path fill="none" stroke="black" d="M50.81,-506.8C54.46,-427.23 72.1,-130.76 134,-65.5 140.97,-58.15 150.23,-53.41 159.97,-50.4"/>
<polygon fill="black" stroke="black" points="47.3,-506.77 50.36,-516.91 54.3,-507.07 47.3,-506.77"/>
</g>
<!-- Node27 -->
<g id="Node000027" class="node">
<title>Node27</title>
<g id="a_Node000027"><a xlink:href="../../d2/d1b/group__A__VERSION.html" target="_top" xlink:title=" ">
<polygon fill="white" stroke="#666666" points="283.5,-19 146.5,-19 146.5,0 283.5,0 283.5,-19"/>
<text text-anchor="middle" x="215" y="-7" font-family="Helvetica,sans-Serif" font-size="10.00">algorithm library version</text>
</a>
</g>
</g>
<!-- Node1&#45;&gt;Node27 -->
<g id="edge26" class="edge">
<title>Node1&#45;&gt;Node27</title>
<path fill="none" stroke="black" d="M50.51,-506.84C53.1,-423.43 67.33,-99.73 134,-28.5 137.61,-24.64 141.85,-21.51 146.45,-18.96"/>
<polygon fill="black" stroke="black" points="47.01,-506.87 50.22,-516.97 54.01,-507.07 47.01,-506.87"/>
</g>
</g>
</svg>
