<?xml version="1.0" encoding="UTF-8" standalone="no"?>
<!DOCTYPE svg PUBLIC "-//W3C//DTD SVG 1.1//EN"
 "http://www.w3.org/Graphics/SVG/1.1/DTD/svg11.dtd">
<!-- Generated by graphviz version 2.43.0 (0)
 -->
<!-- Title: algorithm library Pages: 1 -->
<svg width="301pt" height="1120pt"
 viewBox="0.00 0.00 301.00 1120.00" xmlns="http://www.w3.org/2000/svg" xmlns:xlink="http://www.w3.org/1999/xlink">
<g id="graph0" class="graph" transform="scale(1 1) rotate(0) translate(4 1116)">
<title>algorithm library</title>
<!-- Node1 -->
<g id="Node000001" class="node">
<title>Node1</title>
<g id="a_Node000001"><a xlink:title=" ">
<polygon fill="#999999" stroke="#666666" points="98,-569 0,-569 0,-550 98,-550 98,-569"/>
<text text-anchor="middle" x="49" y="-557" font-family="Helvetica,sans-Serif" font-size="10.00">algorithm library</text>
</a>
</g>
</g>
<!-- Node3 -->
<g id="Node000003" class="node">
<title>Node3</title>
<g id="a_Node000003"><a xlink:href="../../d6/d8f/group__A__AVL.html" target="_top" xlink:title=" ">
<polygon fill="white" stroke="#666666" points="276.5,-1112 150.5,-1112 150.5,-1093 276.5,-1093 276.5,-1112"/>
<text text-anchor="middle" x="213.5" y="-1100" font-family="Helvetica,sans-Serif" font-size="10.00">AVL binary search tree</text>
</a>
</g>
</g>
<!-- Node1&#45;&gt;Node3 -->
<g id="edge2" class="edge">
<title>Node1&#45;&gt;Node3</title>
<path fill="none" stroke="black" d="M50.31,-579.13C52.09,-665.31 63.55,-1009.18 134,-1084.5 138.58,-1089.4 144.21,-1093.1 150.32,-1095.87"/>
<polygon fill="black" stroke="black" points="53.81,-579.06 50.13,-569.13 46.81,-579.19 53.81,-579.06"/>
</g>
<!-- Node4 -->
<g id="Node000004" class="node">
<title>Node4</title>
<g id="a_Node000004"><a xlink:href="../../d0/df8/group__A__BUF.html" target="_top" xlink:title=" ">
<polygon fill="white" stroke="#666666" points="267.5,-1075 159.5,-1075 159.5,-1056 267.5,-1056 267.5,-1075"/>
<text text-anchor="middle" x="213.5" y="-1063" font-family="Helvetica,sans-Serif" font-size="10.00">basic buffer library</text>
</a>
</g>
</g>
<!-- Node1&#45;&gt;Node4 -->
<g id="edge3" class="edge">
<title>Node1&#45;&gt;Node4</title>
<path fill="none" stroke="black" d="M50.58,-579.31C53.4,-661.95 68.39,-978.18 134,-1047.5 140.82,-1054.71 149.9,-1059.31 159.46,-1062.18"/>
<polygon fill="black" stroke="black" points="54.07,-579.13 50.26,-569.25 47.08,-579.35 54.07,-579.13"/>
</g>
<!-- Node5 -->
<g id="Node000005" class="node">
<title>Node5</title>
<g id="a_Node000005"><a xlink:href="../../d6/dbb/group__A__COMPLEX.html" target="_top" xlink:title=" ">
<polygon fill="white" stroke="#666666" points="263,-1038 164,-1038 164,-1019 263,-1019 263,-1038"/>
<text text-anchor="middle" x="213.5" y="-1026" font-family="Helvetica,sans-Serif" font-size="10.00">complex number</text>
</a>
</g>
</g>
<!-- Node1&#45;&gt;Node5 -->
<g id="edge4" class="edge">
<title>Node1&#45;&gt;Node5</title>
<path fill="none" stroke="black" d="M50.88,-579.3C54.8,-657.95 73.16,-947.1 134,-1010.5 141.84,-1018.67 152.58,-1023.47 163.6,-1026.22"/>
<polygon fill="black" stroke="black" points="54.38,-579.1 50.41,-569.27 47.39,-579.43 54.38,-579.1"/>
</g>
<!-- Node2 -->
<g id="Node000002" class="node">
<title>Node2</title>
<g id="a_Node000002"><a xlink:href="../../d5/da3/group__A__FLOAT.html" target="_top" xlink:title=" ">
<polygon fill="white" stroke="#666666" points="274.5,-1001 152.5,-1001 152.5,-982 274.5,-982 274.5,-1001"/>
<text text-anchor="middle" x="213.5" y="-989" font-family="Helvetica,sans-Serif" font-size="10.00">floating&#45;point number</text>
</a>
</g>
</g>
<!-- Node1&#45;&gt;Node2 -->
<g id="edge1" class="edge">
<title>Node1&#45;&gt;Node2</title>
<path fill="none" stroke="black" d="M51.26,-579.55C56.36,-654.39 77.99,-916.06 134,-973.5 139.17,-978.81 145.57,-982.69 152.46,-985.5"/>
<polygon fill="black" stroke="black" points="54.73,-578.95 50.58,-569.2 47.74,-579.41 54.73,-578.95"/>
</g>
<!-- Node6 -->
<g id="Node000006" class="node">
<title>Node6</title>
<g id="a_Node000006"><a xlink:href="../../d6/d0a/group__A__FUZZY.html" target="_top" xlink:title=" ">
<polygon fill="white" stroke="#666666" points="257,-964 170,-964 170,-945 257,-945 257,-964"/>
<text text-anchor="middle" x="213.5" y="-952" font-family="Helvetica,sans-Serif" font-size="10.00">fuzzy operator</text>
</a>
</g>
</g>
<!-- Node1&#45;&gt;Node6 -->
<g id="edge5" class="edge">
<title>Node1&#45;&gt;Node6</title>
<path fill="none" stroke="black" d="M51.65,-579.1C57.93,-649.03 82.62,-884.8 134,-936.5 143.46,-946.02 156.87,-950.93 169.93,-953.35"/>
<polygon fill="black" stroke="black" points="55.13,-578.69 50.77,-569.03 48.15,-579.29 55.13,-578.69"/>
</g>
<!-- Node7 -->
<g id="Node000007" class="node">
<title>Node7</title>
<g id="a_Node000007"><a xlink:href="../../dd/d71/group__A__HPF.html" target="_top" xlink:title=" ">
<polygon fill="white" stroke="#666666" points="259.5,-927 167.5,-927 167.5,-908 259.5,-908 259.5,-927"/>
<text text-anchor="middle" x="213.5" y="-915" font-family="Helvetica,sans-Serif" font-size="10.00">High Pass Filter</text>
</a>
</g>
</g>
<!-- Node1&#45;&gt;Node7 -->
<g id="edge6" class="edge">
<title>Node1&#45;&gt;Node7</title>
<path fill="none" stroke="black" d="M52.18,-579.26C59.8,-644.84 87.38,-853.65 134,-899.5 142.87,-908.23 155.06,-913.06 167.19,-915.65"/>
<polygon fill="black" stroke="black" points="55.63,-578.61 51.02,-569.07 48.67,-579.4 55.63,-578.61"/>
</g>
<!-- Node8 -->
<g id="Node000008" class="node">
<title>Node8</title>
<g id="a_Node000008"><a xlink:href="../../d8/de5/group__A__LIST.html" target="_top" xlink:title=" ">
<polygon fill="white" stroke="#666666" points="283,-890 144,-890 144,-871 283,-871 283,-890"/>
<text text-anchor="middle" x="213.5" y="-878" font-family="Helvetica,sans-Serif" font-size="10.00">circular doubly linked list</text>
</a>
</g>
</g>
<!-- Node1&#45;&gt;Node8 -->
<g id="edge7" class="edge">
<title>Node1&#45;&gt;Node8</title>
<path fill="none" stroke="black" d="M52.84,-579.46C61.93,-640.42 92.11,-822.46 134,-862.5 137.54,-865.88 141.57,-868.68 145.91,-870.98"/>
<polygon fill="black" stroke="black" points="56.26,-578.64 51.35,-569.25 49.34,-579.65 56.26,-578.64"/>
</g>
<!-- Node9 -->
<g id="Node000009" class="node">
<title>Node9</title>
<g id="a_Node000009"><a xlink:href="../../df/d27/group__A__LPF.html" target="_top" xlink:title=" ">
<polygon fill="white" stroke="#666666" points="258,-853 169,-853 169,-834 258,-834 258,-853"/>
<text text-anchor="middle" x="213.5" y="-841" font-family="Helvetica,sans-Serif" font-size="10.00">Low Pass Filter</text>
</a>
</g>
</g>
<!-- Node1&#45;&gt;Node9 -->
<g id="edge8" class="edge">
<title>Node1&#45;&gt;Node9</title>
<path fill="none" stroke="black" d="M50.08,-579.45C51.4,-628.77 61.96,-757.3 134,-824.5 143.43,-833.3 156.22,-838.23 168.74,-840.93"/>
<polygon fill="black" stroke="black" points="53.57,-579.13 49.91,-569.19 46.57,-579.24 53.57,-579.13"/>
</g>
<!-- Node10 -->
<g id="Node000010" class="node">
<title>Node10</title>
<g id="a_Node000010"><a xlink:href="../../d1/d82/group__A__MATH.html" target="_top" xlink:title=" ">
<polygon fill="white" stroke="#666666" points="281,-815.5 146,-815.5 146,-785.5 281,-785.5 281,-815.5"/>
<text text-anchor="start" x="154" y="-803.5" font-family="Helvetica,sans-Serif" font-size="10.00">mathematical algorithm</text>
<text text-anchor="middle" x="213.5" y="-792.5" font-family="Helvetica,sans-Serif" font-size="10.00"> library</text>
</a>
</g>
</g>
<!-- Node1&#45;&gt;Node10 -->
<g id="edge9" class="edge">
<title>Node1&#45;&gt;Node10</title>
<path fill="none" stroke="black" d="M51.97,-579.57C57.23,-622.15 75.47,-722.07 134,-776.5 137.65,-779.9 141.77,-782.81 146.17,-785.32"/>
<polygon fill="black" stroke="black" points="55.42,-578.93 50.83,-569.39 48.47,-579.71 55.42,-578.93"/>
</g>
<!-- Node11 -->
<g id="Node000011" class="node">
<title>Node11</title>
<g id="a_Node000011"><a xlink:href="../../dd/d37/group__A__MF.html" target="_top" xlink:title=" ">
<polygon fill="white" stroke="#666666" points="274,-767 153,-767 153,-748 274,-748 274,-767"/>
<text text-anchor="middle" x="213.5" y="-755" font-family="Helvetica,sans-Serif" font-size="10.00">membership function</text>
</a>
</g>
</g>
<!-- Node1&#45;&gt;Node11 -->
<g id="edge10" class="edge">
<title>Node1&#45;&gt;Node11</title>
<path fill="none" stroke="black" d="M53.35,-579.22C60.77,-616.57 82.23,-697.65 134,-739.5 139.55,-743.98 146,-747.39 152.77,-749.98"/>
<polygon fill="black" stroke="black" points="56.74,-578.32 51.48,-569.12 49.86,-579.59 56.74,-578.32"/>
</g>
<!-- Node12 -->
<g id="Node000012" class="node">
<title>Node12</title>
<g id="a_Node000012"><a xlink:href="../../db/ddc/group__A__NOTEFREQ.html" target="_top" xlink:title=" ">
<polygon fill="white" stroke="#666666" points="272.5,-730 154.5,-730 154.5,-711 272.5,-711 272.5,-730"/>
<text text-anchor="middle" x="213.5" y="-718" font-family="Helvetica,sans-Serif" font-size="10.00">note frequency table</text>
</a>
</g>
</g>
<!-- Node1&#45;&gt;Node12 -->
<g id="edge11" class="edge">
<title>Node1&#45;&gt;Node12</title>
<path fill="none" stroke="black" d="M55.86,-579.05C66.26,-610.24 91,-670.98 134,-702.5 140.09,-706.96 147.1,-710.35 154.38,-712.9"/>
<polygon fill="black" stroke="black" points="59.14,-577.81 52.77,-569.34 52.47,-579.93 59.14,-577.81"/>
</g>
<!-- Node13 -->
<g id="Node000013" class="node">
<title>Node13</title>
<g id="a_Node000013"><a xlink:href="../../dd/d76/group__A__OPERATOR.html" target="_top" xlink:title=" ">
<polygon fill="white" stroke="#666666" points="287.5,-693 139.5,-693 139.5,-674 287.5,-674 287.5,-693"/>
<text text-anchor="middle" x="213.5" y="-681" font-family="Helvetica,sans-Serif" font-size="10.00">algorithm library operators</text>
</a>
</g>
</g>
<!-- Node1&#45;&gt;Node13 -->
<g id="edge12" class="edge">
<title>Node1&#45;&gt;Node13</title>
<path fill="none" stroke="black" d="M59.76,-578.15C73.2,-601.96 99.71,-642.68 134,-664.5 140.15,-668.41 147.04,-671.52 154.12,-673.99"/>
<polygon fill="black" stroke="black" points="62.67,-576.19 54.81,-569.09 56.53,-579.54 62.67,-576.19"/>
</g>
<!-- Node14 -->
<g id="Node000014" class="node">
<title>Node14</title>
<g id="a_Node000014"><a xlink:href="../../d8/da8/group__A__PID.html" target="_top" xlink:title=" ">
<polygon fill="white" stroke="#666666" points="273,-655.5 154,-655.5 154,-625.5 273,-625.5 273,-655.5"/>
<text text-anchor="start" x="162" y="-643.5" font-family="Helvetica,sans-Serif" font-size="10.00">proportional integral</text>
<text text-anchor="middle" x="213.5" y="-632.5" font-family="Helvetica,sans-Serif" font-size="10.00"> derivative controller</text>
</a>
</g>
</g>
<!-- Node1&#45;&gt;Node14 -->
<g id="edge13" class="edge">
<title>Node1&#45;&gt;Node14</title>
<path fill="none" stroke="black" d="M69.79,-575.45C86.19,-588.03 110.53,-605.26 134,-616.5 140.94,-619.82 148.45,-622.81 155.97,-625.46"/>
<polygon fill="black" stroke="black" points="71.59,-572.41 61.55,-569.01 67.27,-577.93 71.59,-572.41"/>
</g>
<!-- Node15 -->
<g id="Node000015" class="node">
<title>Node15</title>
<g id="a_Node000015"><a xlink:href="../../dc/db1/group__A__PID__FUZZY.html" target="_top" xlink:title=" ">
<polygon fill="white" stroke="#666666" points="268.5,-607 158.5,-607 158.5,-566 268.5,-566 268.5,-607"/>
<text text-anchor="start" x="166.5" y="-595" font-family="Helvetica,sans-Serif" font-size="10.00">fuzzy proportional</text>
<text text-anchor="start" x="166.5" y="-584" font-family="Helvetica,sans-Serif" font-size="10.00"> integral derivative</text>
<text text-anchor="middle" x="213.5" y="-573" font-family="Helvetica,sans-Serif" font-size="10.00"> controller</text>
</a>
</g>
</g>
<!-- Node1&#45;&gt;Node15 -->
<g id="edge14" class="edge">
<title>Node1&#45;&gt;Node15</title>
<path fill="none" stroke="black" d="M108.29,-569.18C124.62,-571.9 142.31,-574.84 158.4,-577.51"/>
<polygon fill="black" stroke="black" points="108.75,-565.71 98.32,-567.53 107.61,-572.62 108.75,-565.71"/>
</g>
<!-- Node16 -->
<g id="Node000016" class="node">
<title>Node16</title>
<g id="a_Node000016"><a xlink:href="../../df/df3/group__A__PID__NEURON.html" target="_top" xlink:title=" ">
<polygon fill="white" stroke="#666666" points="293,-547.5 134,-547.5 134,-517.5 293,-517.5 293,-547.5"/>
<text text-anchor="start" x="142" y="-535.5" font-family="Helvetica,sans-Serif" font-size="10.00">single neuron proportional</text>
<text text-anchor="middle" x="213.5" y="-524.5" font-family="Helvetica,sans-Serif" font-size="10.00"> integral derivative controller</text>
</a>
</g>
</g>
<!-- Node1&#45;&gt;Node16 -->
<g id="edge15" class="edge">
<title>Node1&#45;&gt;Node16</title>
<path fill="none" stroke="black" d="M108.28,-549.82C116.61,-548.43 125.29,-546.99 133.93,-545.55"/>
<polygon fill="black" stroke="black" points="107.61,-546.38 98.32,-551.47 108.75,-553.29 107.61,-546.38"/>
</g>
<!-- Node17 -->
<g id="Node000017" class="node">
<title>Node17</title>
<g id="a_Node000017"><a xlink:href="../../d6/de7/group__A__POLY.html" target="_top" xlink:title=" ">
<polygon fill="white" stroke="#666666" points="249,-499 178,-499 178,-480 249,-480 249,-499"/>
<text text-anchor="middle" x="213.5" y="-487" font-family="Helvetica,sans-Serif" font-size="10.00">polynomial</text>
</a>
</g>
</g>
<!-- Node1&#45;&gt;Node17 -->
<g id="edge16" class="edge">
<title>Node1&#45;&gt;Node17</title>
<path fill="none" stroke="black" d="M71.32,-544.01C87.74,-532.72 111.38,-517.84 134,-508.5 147.87,-502.77 163.86,-498.52 177.77,-495.5"/>
<polygon fill="black" stroke="black" points="69.17,-541.24 62.99,-549.85 73.19,-546.97 69.17,-541.24"/>
</g>
<!-- Node18 -->
<g id="Node000018" class="node">
<title>Node18</title>
<g id="a_Node000018"><a xlink:href="../../d4/d5e/group__A__POLYTRAJ3.html" target="_top" xlink:title=" ">
<polygon fill="white" stroke="#666666" points="288.5,-462 138.5,-462 138.5,-443 288.5,-443 288.5,-462"/>
<text text-anchor="middle" x="213.5" y="-450" font-family="Helvetica,sans-Serif" font-size="10.00">cubic polynomial trajectory</text>
</a>
</g>
</g>
<!-- Node1&#45;&gt;Node18 -->
<g id="edge17" class="edge">
<title>Node1&#45;&gt;Node18</title>
<path fill="none" stroke="black" d="M62.22,-541.51C76.89,-521.34 103.38,-489.16 134,-471.5 140.68,-467.65 148.11,-464.57 155.67,-462.12"/>
<polygon fill="black" stroke="black" points="59.25,-539.65 56.34,-549.83 64.97,-543.69 59.25,-539.65"/>
</g>
<!-- Node19 -->
<g id="Node000019" class="node">
<title>Node19</title>
<g id="a_Node000019"><a xlink:href="../../d5/d8e/group__A__POLYTRAJ5.html" target="_top" xlink:title=" ">
<polygon fill="white" stroke="#666666" points="267,-424.5 160,-424.5 160,-394.5 267,-394.5 267,-424.5"/>
<text text-anchor="start" x="168" y="-412.5" font-family="Helvetica,sans-Serif" font-size="10.00">quintic polynomial</text>
<text text-anchor="middle" x="213.5" y="-401.5" font-family="Helvetica,sans-Serif" font-size="10.00"> trajectory</text>
</a>
</g>
</g>
<!-- Node1&#45;&gt;Node19 -->
<g id="edge18" class="edge">
<title>Node1&#45;&gt;Node19</title>
<path fill="none" stroke="black" d="M57.86,-540.46C70.12,-513.07 96.35,-462.75 134,-434.5 141.67,-428.75 150.7,-424.3 159.85,-420.85"/>
<polygon fill="black" stroke="black" points="54.6,-539.17 53.85,-549.74 61.03,-541.95 54.6,-539.17"/>
</g>
<!-- Node20 -->
<g id="Node000020" class="node">
<title>Node20</title>
<g id="a_Node000020"><a xlink:href="../../de/d6e/group__A__POLYTRAJ7.html" target="_top" xlink:title=" ">
<polygon fill="white" stroke="#666666" points="289.5,-376 137.5,-376 137.5,-357 289.5,-357 289.5,-376"/>
<text text-anchor="middle" x="213.5" y="-364" font-family="Helvetica,sans-Serif" font-size="10.00">hepta polynomial trajectory</text>
</a>
</g>
</g>
<!-- Node1&#45;&gt;Node20 -->
<g id="edge19" class="edge">
<title>Node1&#45;&gt;Node20</title>
<path fill="none" stroke="black" d="M53.71,-539.97C61.67,-503.71 83.86,-425.99 134,-385.5 138.8,-381.62 144.27,-378.52 150.04,-376.03"/>
<polygon fill="black" stroke="black" points="50.28,-539.31 51.69,-549.81 57.13,-540.72 50.28,-539.31"/>
</g>
<!-- Node21 -->
<g id="Node000021" class="node">
<title>Node21</title>
<g id="a_Node000021"><a xlink:href="../../df/d54/group__A__QUE.html" target="_top" xlink:title=" ">
<polygon fill="white" stroke="#666666" points="268.5,-339 158.5,-339 158.5,-320 268.5,-320 268.5,-339"/>
<text text-anchor="middle" x="213.5" y="-327" font-family="Helvetica,sans-Serif" font-size="10.00">basic queue library</text>
</a>
</g>
</g>
<!-- Node1&#45;&gt;Node21 -->
<g id="edge20" class="edge">
<title>Node1&#45;&gt;Node21</title>
<path fill="none" stroke="black" d="M51.91,-539.71C57.06,-497.77 75.08,-399.63 134,-348.5 140.88,-342.53 149.33,-338.36 158.11,-335.47"/>
<polygon fill="black" stroke="black" points="48.42,-539.42 50.8,-549.74 55.38,-540.19 48.42,-539.42"/>
</g>
<!-- Node22 -->
<g id="Node000022" class="node">
<title>Node22</title>
<g id="a_Node000022"><a xlink:href="../../dd/dd8/group__A__RBF.html" target="_top" xlink:title=" ">
<polygon fill="white" stroke="#666666" points="271.5,-302 155.5,-302 155.5,-283 271.5,-283 271.5,-302"/>
<text text-anchor="middle" x="213.5" y="-290" font-family="Helvetica,sans-Serif" font-size="10.00">radial basis function</text>
</a>
</g>
</g>
<!-- Node1&#45;&gt;Node22 -->
<g id="edge21" class="edge">
<title>Node1&#45;&gt;Node22</title>
<path fill="none" stroke="black" d="M50.56,-539.87C53.01,-492.97 65.98,-373.71 134,-311.5 140.1,-305.92 147.56,-301.9 155.43,-299.02"/>
<polygon fill="black" stroke="black" points="47.06,-539.78 50.15,-549.92 54.06,-540.07 47.06,-539.78"/>
</g>
<!-- Node23 -->
<g id="Node000023" class="node">
<title>Node23</title>
<g id="a_Node000023"><a xlink:href="../../d7/d06/group__A__RBT.html" target="_top" xlink:title=" ">
<polygon fill="white" stroke="#666666" points="262.5,-264.5 164.5,-264.5 164.5,-234.5 262.5,-234.5 262.5,-264.5"/>
<text text-anchor="start" x="172.5" y="-252.5" font-family="Helvetica,sans-Serif" font-size="10.00">red–black binary</text>
<text text-anchor="middle" x="213.5" y="-241.5" font-family="Helvetica,sans-Serif" font-size="10.00"> search tree</text>
</a>
</g>
</g>
<!-- Node1&#45;&gt;Node23 -->
<g id="edge22" class="edge">
<title>Node1&#45;&gt;Node23</title>
<path fill="none" stroke="black" d="M49.86,-539.77C50.58,-488.61 59.71,-350.42 134,-274.5 142.2,-266.12 153.2,-260.54 164.37,-256.83"/>
<polygon fill="black" stroke="black" points="46.36,-539.8 49.81,-549.82 53.36,-539.83 46.36,-539.8"/>
</g>
<!-- Node24 -->
<g id="Node000024" class="node">
<title>Node24</title>
<g id="a_Node000024"><a xlink:href="../../d1/dfe/group__A__SLIST.html" target="_top" xlink:title=" ">
<polygon fill="white" stroke="#666666" points="261.5,-216 165.5,-216 165.5,-197 261.5,-197 261.5,-216"/>
<text text-anchor="middle" x="213.5" y="-204" font-family="Helvetica,sans-Serif" font-size="10.00">singly linked list</text>
</a>
</g>
</g>
<!-- Node1&#45;&gt;Node24 -->
<g id="edge23" class="edge">
<title>Node1&#45;&gt;Node24</title>
<path fill="none" stroke="black" d="M52.3,-539.68C60.23,-474.84 88.43,-270.67 134,-225.5 142.37,-217.21 153.69,-212.31 165.14,-209.48"/>
<polygon fill="black" stroke="black" points="48.81,-539.44 51.1,-549.78 55.76,-540.27 48.81,-539.44"/>
</g>
<!-- Node25 -->
<g id="Node000025" class="node">
<title>Node25</title>
<g id="a_Node000025"><a xlink:href="../../db/d6c/group__A__STR.html" target="_top" xlink:title=" ">
<polygon fill="white" stroke="#666666" points="267,-179 160,-179 160,-160 267,-160 267,-179"/>
<text text-anchor="middle" x="213.5" y="-167" font-family="Helvetica,sans-Serif" font-size="10.00">basic string library</text>
</a>
</g>
</g>
<!-- Node1&#45;&gt;Node25 -->
<g id="edge24" class="edge">
<title>Node1&#45;&gt;Node25</title>
<path fill="none" stroke="black" d="M51.76,-539.77C58.34,-470.46 83.73,-239.52 134,-188.5 140.99,-181.41 150.14,-176.79 159.71,-173.82"/>
<polygon fill="black" stroke="black" points="48.27,-539.51 50.84,-549.79 55.24,-540.15 48.27,-539.51"/>
</g>
<!-- Node26 -->
<g id="Node000026" class="node">
<title>Node26</title>
<g id="a_Node000026"><a xlink:href="../../d0/ddd/group__A__TF.html" target="_top" xlink:title=" ">
<polygon fill="white" stroke="#666666" points="262.5,-142 164.5,-142 164.5,-123 262.5,-123 262.5,-142"/>
<text text-anchor="middle" x="213.5" y="-130" font-family="Helvetica,sans-Serif" font-size="10.00">transfer function</text>
</a>
</g>
</g>
<!-- Node1&#45;&gt;Node26 -->
<g id="edge25" class="edge">
<title>Node1&#45;&gt;Node26</title>
<path fill="none" stroke="black" d="M51.32,-539.76C56.66,-466.06 79.03,-208.4 134,-151.5 142.09,-143.13 153.18,-138.19 164.48,-135.34"/>
<polygon fill="black" stroke="black" points="47.82,-539.73 50.61,-549.95 54.8,-540.21 47.82,-539.73"/>
</g>
<!-- Node27 -->
<g id="Node000027" class="node">
<title>Node27</title>
<g id="a_Node000027"><a xlink:href="../../d9/da8/group__A__UTF.html" target="_top" xlink:title=" ">
<polygon fill="white" stroke="#666666" points="280,-104.5 147,-104.5 147,-74.5 280,-74.5 280,-104.5"/>
<text text-anchor="start" x="155" y="-92.5" font-family="Helvetica,sans-Serif" font-size="10.00">Unicode Transformation</text>
<text text-anchor="middle" x="213.5" y="-81.5" font-family="Helvetica,sans-Serif" font-size="10.00"> Format</text>
</a>
</g>
</g>
<!-- Node1&#45;&gt;Node27 -->
<g id="edge26" class="edge">
<title>Node1&#45;&gt;Node27</title>
<path fill="none" stroke="black" d="M51.1,-539.63C55.81,-461.86 76.63,-179.32 134,-114.5 137.7,-110.32 142.09,-106.84 146.88,-103.93"/>
<polygon fill="black" stroke="black" points="47.59,-539.74 50.5,-549.93 54.58,-540.15 47.59,-539.74"/>
</g>
<!-- Node28 -->
<g id="Node000028" class="node">
<title>Node28</title>
<g id="a_Node000028"><a xlink:href="../../da/d05/group__A__VEC.html" target="_top" xlink:title=" ">
<polygon fill="white" stroke="#666666" points="268.5,-56 158.5,-56 158.5,-37 268.5,-37 268.5,-56"/>
<text text-anchor="middle" x="213.5" y="-44" font-family="Helvetica,sans-Serif" font-size="10.00">basic vector library</text>
</a>
</g>
</g>
<!-- Node1&#45;&gt;Node28 -->
<g id="edge27" class="edge">
<title>Node1&#45;&gt;Node28</title>
<path fill="none" stroke="black" d="M50.56,-539.47C53.32,-455.91 68.1,-136.12 134,-65.5 140.51,-58.53 149.09,-53.92 158.2,-50.91"/>
<polygon fill="black" stroke="black" points="47.06,-539.54 50.25,-549.65 54.06,-539.76 47.06,-539.54"/>
</g>
<!-- Node29 -->
<g id="Node000029" class="node">
<title>Node29</title>
<g id="a_Node000029"><a xlink:href="../../d2/d1b/group__A__VERSION.html" target="_top" xlink:title=" ">
<polygon fill="white" stroke="#666666" points="282,-19 145,-19 145,0 282,0 282,-19"/>
<text text-anchor="middle" x="213.5" y="-7" font-family="Helvetica,sans-Serif" font-size="10.00">algorithm library version</text>
</a>
</g>
</g>
<!-- Node1&#45;&gt;Node29 -->
<g id="edge28" class="edge">
<title>Node1&#45;&gt;Node29</title>
<path fill="none" stroke="black" d="M50.3,-539.67C52.02,-452.6 63.29,-105.15 134,-28.5 137.52,-24.69 141.66,-21.58 146.17,-19.05"/>
<polygon fill="black" stroke="black" points="46.8,-539.71 50.12,-549.77 53.8,-539.84 46.8,-539.71"/>
</g>
</g>
</svg>
