<?xml version="1.0" encoding="UTF-8" standalone="no"?>
<!DOCTYPE svg PUBLIC "-//W3C//DTD SVG 1.1//EN"
 "http://www.w3.org/Graphics/SVG/1.1/DTD/svg11.dtd">
<!-- Generated by graphviz version 2.43.0 (0)
 -->
<!-- Title: algorithm library Pages: 1 -->
<!--zoomable 899 -->
<svg id="main" version="1.1" xmlns="http://www.w3.org/2000/svg" xmlns:xlink="http://www.w3.org/1999/xlink" xml:space="preserve" onload="init(evt)">
<style type="text/css"><![CDATA[
.edge:hover path { stroke: red; }
.edge:hover polygon { stroke: red; fill: red; }
]]></style>
<script type="text/javascript"><![CDATA[
var edges = document.getElementsByTagName('g');
if (edges && edges.length) {
  for (var i=0;i<edges.length;i++) {
    if (edges[i].id.substr(0,4)=='edge') {
      edges[i].setAttribute('class','edge');
    }
  }
}
]]></script>
        <defs>
                <circle id="rim" cx="0" cy="0" r="7"/>
                <circle id="rim2" cx="0" cy="0" r="3.5"/>
                <g id="zoomPlus">
                        <use xlink:href="#rim" fill="#404040">
                                <set attributeName="fill" to="#808080" begin="zoomplus.mouseover" end="zoomplus.mouseout"/>
                        </use>
                        <path d="M-4,0h8M0,-4v8" fill="none" stroke="white" stroke-width="1.5" pointer-events="none"/>
                </g>
                <g id="zoomMin">
                        <use xlink:href="#rim" fill="#404040">
                                <set attributeName="fill" to="#808080" begin="zoomminus.mouseover" end="zoomminus.mouseout"/>
                        </use>
                        <path d="M-4,0h8" fill="none" stroke="white" stroke-width="1.5" pointer-events="none"/>
                </g>
                <g id="dirArrow">
                        <path fill="none" stroke="white" stroke-width="1.5" d="M0,-3.0v7 M-2.5,-0.5L0,-3.0L2.5,-0.5"/>
                </g>
               <g id="resetDef">
                       <use xlink:href="#rim2" fill="#404040">
                               <set attributeName="fill" to="#808080" begin="reset.mouseover" end="reset.mouseout"/>
                       </use>
               </g>
        </defs>

<script type="text/javascript">
var viewWidth = 304;
var viewHeight = 899;
var sectionId = 'dynsection-0';
</script>
<script xlink:href="../../svgpan.js"/>
<svg id="graph" class="graph">
<g id="viewport">
<title>algorithm library</title>
<polygon fill="white" stroke="transparent" points="-4,4 -4,-894.5 300,-894.5 300,4 -4,4"/>
<!-- Node18 -->
<g id="node1" class="node">
<title>Node18</title>
<g id="a_node1"><a xlink:href="../../d8/da8/group__A__PID.html" target="_top" xlink:title=" ">
<polygon fill="white" stroke="black" points="274.5,-890.5 155.5,-890.5 155.5,-860.5 274.5,-860.5 274.5,-890.5"/>
<text text-anchor="start" x="163.5" y="-878.5" font-family="Helvetica,sans-Serif" font-size="10.00">proportional integral</text>
<text text-anchor="middle" x="215" y="-867.5" font-family="Helvetica,sans-Serif" font-size="10.00"> derivative controller</text>
</a>
</g>
</g>
<!-- Node1 -->
<g id="node2" class="node">
<title>Node1</title>
<g id="a_node2"><a xlink:title=" ">
<polygon fill="#bfbfbf" stroke="black" points="98,-448 0,-448 0,-429 98,-429 98,-448"/>
<text text-anchor="middle" x="49" y="-436" font-family="Helvetica,sans-Serif" font-size="10.00">algorithm library</text>
</a>
</g>
</g>
<!-- Node1&#45;&gt;Node18 -->
<g id="edge17" class="edge">
<title>Node1&#45;&gt;Node18</title>
<path fill="none" stroke="black" d="M51.39,-458.39C56.95,-532.64 80.03,-792.39 134,-851.5 139.87,-857.92 147.38,-862.66 155.44,-866.14"/>
<polygon fill="black" stroke="black" points="54.86,-457.84 50.64,-448.12 47.88,-458.35 54.86,-457.84"/>
</g>
<!-- Node22 -->
<g id="node3" class="node">
<title>Node22</title>
<g id="a_node3"><a xlink:href="../../d1/dfe/group__A__SLIST.html" target="_top" xlink:title=" ">
<polygon fill="white" stroke="black" points="282.5,-842 147.5,-842 147.5,-823 282.5,-823 282.5,-842"/>
<text text-anchor="middle" x="215" y="-830" font-family="Helvetica,sans-Serif" font-size="10.00">circular singly linked list</text>
</a>
</g>
</g>
<!-- Node1&#45;&gt;Node22 -->
<g id="edge21" class="edge">
<title>Node1&#45;&gt;Node22</title>
<path fill="none" stroke="black" d="M51.65,-458.06C57.93,-527.83 82.63,-763.05 134,-814.5 137.92,-818.43 142.51,-821.58 147.46,-824.09"/>
<polygon fill="black" stroke="black" points="55.13,-457.66 50.77,-448.01 48.16,-458.27 55.13,-457.66"/>
</g>
<!-- Node14 -->
<g id="node4" class="node">
<title>Node14</title>
<g id="a_node4"><a xlink:href="../../dd/d37/group__A__MF.html" target="_top" xlink:title=" ">
<polygon fill="white" stroke="black" points="275.5,-805 154.5,-805 154.5,-786 275.5,-786 275.5,-805"/>
<text text-anchor="middle" x="215" y="-793" font-family="Helvetica,sans-Serif" font-size="10.00">membership function</text>
</a>
</g>
</g>
<!-- Node1&#45;&gt;Node14 -->
<g id="edge13" class="edge">
<title>Node1&#45;&gt;Node14</title>
<path fill="none" stroke="black" d="M52.18,-458.21C59.81,-523.62 87.4,-731.89 134,-777.5 139.7,-783.08 146.73,-787.07 154.24,-789.92"/>
<polygon fill="black" stroke="black" points="55.63,-457.58 51.02,-448.04 48.68,-458.38 55.63,-457.58"/>
</g>
<!-- Node20 -->
<g id="node5" class="node">
<title>Node20</title>
<g id="a_node5"><a xlink:href="../../d1/d97/group__A__POLYTRACK.html" target="_top" xlink:title=" ">
<polygon fill="white" stroke="black" points="276,-768 154,-768 154,-749 276,-749 276,-768"/>
<text text-anchor="middle" x="215" y="-756" font-family="Helvetica,sans-Serif" font-size="10.00">polynomial trajectory</text>
</a>
</g>
</g>
<!-- Node1&#45;&gt;Node20 -->
<g id="edge19" class="edge">
<title>Node1&#45;&gt;Node20</title>
<path fill="none" stroke="black" d="M52.85,-458.4C61.94,-519.18 92.14,-700.68 134,-740.5 139.67,-745.9 146.6,-749.81 153.98,-752.62"/>
<polygon fill="black" stroke="black" points="56.27,-457.61 51.35,-448.22 49.34,-458.63 56.27,-457.61"/>
</g>
<!-- Node12 -->
<g id="node6" class="node">
<title>Node12</title>
<g id="a_node6"><a xlink:href="../../d8/de5/group__A__LIST.html" target="_top" xlink:title=" ">
<polygon fill="white" stroke="black" points="284.5,-731 145.5,-731 145.5,-712 284.5,-712 284.5,-731"/>
<text text-anchor="middle" x="215" y="-719" font-family="Helvetica,sans-Serif" font-size="10.00">circular doubly linked list</text>
</a>
</g>
</g>
<!-- Node1&#45;&gt;Node12 -->
<g id="edge11" class="edge">
<title>Node1&#45;&gt;Node12</title>
<path fill="none" stroke="black" d="M50.01,-458.52C51.18,-508.01 61.42,-636.88 134,-703.5 137.67,-706.87 141.83,-709.65 146.28,-711.95"/>
<polygon fill="black" stroke="black" points="53.5,-458.18 49.87,-448.22 46.51,-458.27 53.5,-458.18"/>
</g>
<!-- Node5 -->
<g id="node7" class="node">
<title>Node5</title>
<g id="a_node7"><a xlink:href="../../d6/dbb/group__A__COMPLEX.html" target="_top" xlink:title=" ">
<polygon fill="white" stroke="black" points="264.5,-694 165.5,-694 165.5,-675 264.5,-675 264.5,-694"/>
<text text-anchor="middle" x="215" y="-682" font-family="Helvetica,sans-Serif" font-size="10.00">complex number</text>
</a>
</g>
</g>
<!-- Node1&#45;&gt;Node5 -->
<g id="edge4" class="edge">
<title>Node1&#45;&gt;Node5</title>
<path fill="none" stroke="black" d="M51.24,-457.98C55.12,-501.99 70.91,-609.63 134,-665.5 142.66,-673.17 153.84,-677.88 165.09,-680.75"/>
<polygon fill="black" stroke="black" points="54.73,-457.71 50.47,-448.01 47.75,-458.24 54.73,-457.71"/>
</g>
<!-- Node13 -->
<g id="node8" class="node">
<title>Node13</title>
<g id="a_node8"><a xlink:href="../../d1/d82/group__A__MATH.html" target="_top" xlink:title=" ">
<polygon fill="white" stroke="black" points="282.5,-656.5 147.5,-656.5 147.5,-626.5 282.5,-626.5 282.5,-656.5"/>
<text text-anchor="start" x="155.5" y="-644.5" font-family="Helvetica,sans-Serif" font-size="10.00">mathematical algorithm</text>
<text text-anchor="middle" x="215" y="-633.5" font-family="Helvetica,sans-Serif" font-size="10.00"> library</text>
</a>
</g>
</g>
<!-- Node1&#45;&gt;Node13 -->
<g id="edge12" class="edge">
<title>Node1&#45;&gt;Node13</title>
<path fill="none" stroke="black" d="M53.75,-458.32C61.77,-495.18 84.06,-574.42 134,-617.5 138.06,-621 142.62,-624 147.45,-626.55"/>
<polygon fill="black" stroke="black" points="57.14,-457.43 51.71,-448.33 50.28,-458.83 57.14,-457.43"/>
</g>
<!-- Node23 -->
<g id="node9" class="node">
<title>Node23</title>
<g id="a_node9"><a xlink:href="../../d0/ddd/group__A__TF.html" target="_top" xlink:title=" ">
<polygon fill="white" stroke="black" points="264,-608 166,-608 166,-589 264,-589 264,-608"/>
<text text-anchor="middle" x="215" y="-596" font-family="Helvetica,sans-Serif" font-size="10.00">transfer function</text>
</a>
</g>
</g>
<!-- Node1&#45;&gt;Node23 -->
<g id="edge22" class="edge">
<title>Node1&#45;&gt;Node23</title>
<path fill="none" stroke="black" d="M55.88,-457.93C66.32,-488.94 91.11,-549.3 134,-580.5 143.21,-587.2 154.48,-591.47 165.61,-594.18"/>
<polygon fill="black" stroke="black" points="59.17,-456.73 52.78,-448.28 52.51,-458.87 59.17,-456.73"/>
</g>
<!-- Node2 -->
<g id="node10" class="node">
<title>Node2</title>
<g id="a_node10"><a xlink:href="../../da/d70/group__A__REAL.html" target="_top" xlink:title=" ">
<polygon fill="white" stroke="black" points="253,-571 177,-571 177,-552 253,-552 253,-571"/>
<text text-anchor="middle" x="215" y="-559" font-family="Helvetica,sans-Serif" font-size="10.00">real number</text>
</a>
</g>
</g>
<!-- Node1&#45;&gt;Node2 -->
<g id="edge1" class="edge">
<title>Node1&#45;&gt;Node2</title>
<path fill="none" stroke="black" d="M59.7,-457.24C73.09,-481.14 99.53,-521.95 134,-543.5 146.8,-551.5 162.71,-555.96 176.97,-558.44"/>
<polygon fill="black" stroke="black" points="62.62,-455.27 54.78,-448.14 56.46,-458.6 62.62,-455.27"/>
</g>
<!-- Node3 -->
<g id="node11" class="node">
<title>Node3</title>
<g id="a_node11"><a xlink:href="../../d6/d8f/group__A__AVL.html" target="_top" xlink:title=" ">
<polygon fill="white" stroke="black" points="278,-534 152,-534 152,-515 278,-515 278,-534"/>
<text text-anchor="middle" x="215" y="-522" font-family="Helvetica,sans-Serif" font-size="10.00">AVL binary search tree</text>
</a>
</g>
</g>
<!-- Node1&#45;&gt;Node3 -->
<g id="edge2" class="edge">
<title>Node1&#45;&gt;Node3</title>
<path fill="none" stroke="black" d="M66.77,-455.65C82.7,-470.95 108.01,-492.84 134,-505.5 141.96,-509.38 150.75,-512.49 159.51,-514.98"/>
<polygon fill="black" stroke="black" points="68.93,-452.86 59.35,-448.33 64.01,-457.84 68.93,-452.86"/>
</g>
<!-- Node21 -->
<g id="node12" class="node">
<title>Node21</title>
<g id="a_node12"><a xlink:href="../../d7/d06/group__A__RBT.html" target="_top" xlink:title=" ">
<polygon fill="white" stroke="black" points="264,-496.5 166,-496.5 166,-466.5 264,-466.5 264,-496.5"/>
<text text-anchor="start" x="174" y="-484.5" font-family="Helvetica,sans-Serif" font-size="10.00">red–black binary</text>
<text text-anchor="middle" x="215" y="-473.5" font-family="Helvetica,sans-Serif" font-size="10.00"> search tree</text>
</a>
</g>
</g>
<!-- Node1&#45;&gt;Node21 -->
<g id="edge20" class="edge">
<title>Node1&#45;&gt;Node21</title>
<path fill="none" stroke="black" d="M96.08,-450.58C117.85,-456.29 143.84,-463.11 165.88,-468.88"/>
<polygon fill="black" stroke="black" points="96.96,-447.19 86.4,-448.04 95.18,-453.96 96.96,-447.19"/>
</g>
<!-- Node8 -->
<g id="node13" class="node">
<title>Node8</title>
<g id="a_node13"><a xlink:href="../../df/d54/group__A__QUE.html" target="_top" xlink:title=" ">
<polygon fill="white" stroke="black" points="270,-448 160,-448 160,-429 270,-429 270,-448"/>
<text text-anchor="middle" x="215" y="-436" font-family="Helvetica,sans-Serif" font-size="10.00">basic queue library</text>
</a>
</g>
</g>
<!-- Node1&#45;&gt;Node8 -->
<g id="edge7" class="edge">
<title>Node1&#45;&gt;Node8</title>
<path fill="none" stroke="black" d="M108.55,-438.5C125.32,-438.5 143.51,-438.5 159.99,-438.5"/>
<polygon fill="black" stroke="black" points="108.32,-435 98.32,-438.5 108.32,-442 108.32,-435"/>
</g>
<!-- Node10 -->
<g id="node14" class="node">
<title>Node10</title>
<g id="a_node14"><a xlink:href="../../da/d05/group__A__VEC.html" target="_top" xlink:title=" ">
<polygon fill="white" stroke="black" points="270,-411 160,-411 160,-392 270,-392 270,-411"/>
<text text-anchor="middle" x="215" y="-399" font-family="Helvetica,sans-Serif" font-size="10.00">basic vector library</text>
</a>
</g>
</g>
<!-- Node1&#45;&gt;Node10 -->
<g id="edge9" class="edge">
<title>Node1&#45;&gt;Node10</title>
<path fill="none" stroke="black" d="M102.25,-426.71C124.64,-421.66 150.45,-415.84 171.62,-411.06"/>
<polygon fill="black" stroke="black" points="101.22,-423.36 92.23,-428.97 102.76,-430.18 101.22,-423.36"/>
</g>
<!-- Node6 -->
<g id="node15" class="node">
<title>Node6</title>
<g id="a_node15"><a xlink:href="../../d0/d96/group__A__FPID.html" target="_top" xlink:title=" ">
<polygon fill="white" stroke="black" points="270,-374 160,-374 160,-333 270,-333 270,-374"/>
<text text-anchor="start" x="168" y="-362" font-family="Helvetica,sans-Serif" font-size="10.00">fuzzy proportional</text>
<text text-anchor="start" x="168" y="-351" font-family="Helvetica,sans-Serif" font-size="10.00"> integral derivative</text>
<text text-anchor="middle" x="215" y="-340" font-family="Helvetica,sans-Serif" font-size="10.00"> controller</text>
</a>
</g>
</g>
<!-- Node1&#45;&gt;Node6 -->
<g id="edge5" class="edge">
<title>Node1&#45;&gt;Node6</title>
<path fill="none" stroke="black" d="M71.21,-422.72C87.74,-410.9 111.57,-394.87 134,-383.5 142.2,-379.34 151.12,-375.44 159.94,-371.91"/>
<polygon fill="black" stroke="black" points="68.88,-420.09 62.84,-428.79 72.99,-425.75 68.88,-420.09"/>
</g>
<!-- Node4 -->
<g id="node16" class="node">
<title>Node4</title>
<g id="a_node16"><a xlink:href="../../d0/df8/group__A__BUF.html" target="_top" xlink:title=" ">
<polygon fill="white" stroke="black" points="269,-315 161,-315 161,-296 269,-296 269,-315"/>
<text text-anchor="middle" x="215" y="-303" font-family="Helvetica,sans-Serif" font-size="10.00">basic buffer library</text>
</a>
</g>
</g>
<!-- Node1&#45;&gt;Node4 -->
<g id="edge3" class="edge">
<title>Node1&#45;&gt;Node4</title>
<path fill="none" stroke="black" d="M58.6,-419.68C71.31,-394.04 97.62,-348.57 134,-324.5 141.98,-319.22 151.26,-315.41 160.61,-312.65"/>
<polygon fill="black" stroke="black" points="55.42,-418.22 54.26,-428.75 61.73,-421.24 55.42,-418.22"/>
</g>
<!-- Node24 -->
<g id="node17" class="node">
<title>Node24</title>
<g id="a_node17"><a xlink:href="../../d2/d1b/group__A__VERSION.html" target="_top" xlink:title=" ">
<polygon fill="white" stroke="black" points="283.5,-278 146.5,-278 146.5,-259 283.5,-259 283.5,-278"/>
<text text-anchor="middle" x="215" y="-266" font-family="Helvetica,sans-Serif" font-size="10.00">algorithm library version</text>
</a>
</g>
</g>
<!-- Node1&#45;&gt;Node24 -->
<g id="edge23" class="edge">
<title>Node1&#45;&gt;Node24</title>
<path fill="none" stroke="black" d="M55.15,-419.29C64.87,-386.87 89.09,-321.51 134,-287.5 139.12,-283.62 144.91,-280.52 150.98,-278.04"/>
<polygon fill="black" stroke="black" points="51.78,-418.35 52.4,-428.93 58.51,-420.27 51.78,-418.35"/>
</g>
<!-- Node7 -->
<g id="node18" class="node">
<title>Node7</title>
<g id="a_node18"><a xlink:href="../../d6/d0a/group__A__FUZZY.html" target="_top" xlink:title=" ">
<polygon fill="white" stroke="black" points="258.5,-241 171.5,-241 171.5,-222 258.5,-222 258.5,-241"/>
<text text-anchor="middle" x="215" y="-229" font-family="Helvetica,sans-Serif" font-size="10.00">fuzzy operator</text>
</a>
</g>
</g>
<!-- Node1&#45;&gt;Node7 -->
<g id="edge6" class="edge">
<title>Node1&#45;&gt;Node7</title>
<path fill="none" stroke="black" d="M52.92,-419.01C59.73,-380.58 80.38,-294.92 134,-250.5 144.44,-241.85 158.15,-237 171.27,-234.33"/>
<polygon fill="black" stroke="black" points="49.45,-418.49 51.28,-428.92 56.36,-419.62 49.45,-418.49"/>
</g>
<!-- Node17 -->
<g id="node19" class="node">
<title>Node17</title>
<g id="a_node19"><a xlink:href="../../dd/d76/group__A__OPERATOR.html" target="_top" xlink:title=" ">
<polygon fill="white" stroke="black" points="289,-204 141,-204 141,-185 289,-185 289,-204"/>
<text text-anchor="middle" x="215" y="-192" font-family="Helvetica,sans-Serif" font-size="10.00">algorithm library operators</text>
</a>
</g>
</g>
<!-- Node1&#45;&gt;Node17 -->
<g id="edge16" class="edge">
<title>Node1&#45;&gt;Node17</title>
<path fill="none" stroke="black" d="M51.35,-418.59C55.44,-374.58 71.61,-268.59 134,-213.5 138.28,-209.72 143.18,-206.66 148.39,-204.18"/>
<polygon fill="black" stroke="black" points="47.86,-418.34 50.53,-428.59 54.83,-418.91 47.86,-418.34"/>
</g>
<!-- Node15 -->
<g id="node20" class="node">
<title>Node15</title>
<g id="a_node20"><a xlink:href="../../db/ddc/group__A__NOTEFREQ.html" target="_top" xlink:title=" ">
<polygon fill="white" stroke="black" points="274,-167 156,-167 156,-148 274,-148 274,-167"/>
<text text-anchor="middle" x="215" y="-155" font-family="Helvetica,sans-Serif" font-size="10.00">note frequency table</text>
</a>
</g>
</g>
<!-- Node1&#45;&gt;Node15 -->
<g id="edge14" class="edge">
<title>Node1&#45;&gt;Node15</title>
<path fill="none" stroke="black" d="M50.14,-418.75C51.6,-369.93 62.45,-242.74 134,-176.5 140.18,-170.78 147.76,-166.68 155.77,-163.77"/>
<polygon fill="black" stroke="black" points="46.63,-418.84 49.94,-428.91 53.63,-418.98 46.63,-418.84"/>
</g>
<!-- Node16 -->
<g id="node21" class="node">
<title>Node16</title>
<g id="a_node21"><a xlink:href="../../df/db1/group__A__OOP.html" target="_top" xlink:title=" ">
<polygon fill="white" stroke="black" points="296,-130 134,-130 134,-111 296,-111 296,-130"/>
<text text-anchor="middle" x="215" y="-118" font-family="Helvetica,sans-Serif" font-size="10.00">Object Oriented Programming</text>
</a>
</g>
</g>
<!-- Node1&#45;&gt;Node16 -->
<g id="edge15" class="edge">
<title>Node1&#45;&gt;Node16</title>
<path fill="none" stroke="black" d="M49.21,-418.55C48.24,-365 53.38,-216.91 134,-139.5 138.02,-135.64 142.67,-132.52 147.66,-130"/>
<polygon fill="black" stroke="black" points="45.72,-418.85 49.49,-428.75 52.71,-418.65 45.72,-418.85"/>
</g>
<!-- Node11 -->
<g id="node22" class="node">
<title>Node11</title>
<g id="a_node22"><a xlink:href="../../da/df8/group__A__VECTOR.html" target="_top" xlink:title=" ">
<polygon fill="white" stroke="black" points="270,-93 160,-93 160,-74 270,-74 270,-93"/>
<text text-anchor="middle" x="215" y="-81" font-family="Helvetica,sans-Serif" font-size="10.00">basic vector library</text>
</a>
</g>
</g>
<!-- Node1&#45;&gt;Node11 -->
<g id="edge10" class="edge">
<title>Node1&#45;&gt;Node11</title>
<path fill="none" stroke="black" d="M52.28,-418.55C60.13,-353.31 88.11,-147.85 134,-102.5 141.11,-95.48 150.31,-90.87 159.93,-87.89"/>
<polygon fill="black" stroke="black" points="48.77,-418.38 51.08,-428.72 55.73,-419.2 48.77,-418.38"/>
</g>
<!-- Node9 -->
<g id="node23" class="node">
<title>Node9</title>
<g id="a_node23"><a xlink:href="../../db/d6c/group__A__STR.html" target="_top" xlink:title=" ">
<polygon fill="white" stroke="black" points="268.5,-56 161.5,-56 161.5,-37 268.5,-37 268.5,-56"/>
<text text-anchor="middle" x="215" y="-44" font-family="Helvetica,sans-Serif" font-size="10.00">basic string library</text>
</a>
</g>
</g>
<!-- Node1&#45;&gt;Node9 -->
<g id="edge8" class="edge">
<title>Node1&#45;&gt;Node9</title>
<path fill="none" stroke="black" d="M51.74,-418.66C58.24,-348.95 83.39,-116.7 134,-65.5 141.43,-57.99 151.24,-53.23 161.45,-50.26"/>
<polygon fill="black" stroke="black" points="48.24,-418.46 50.82,-428.73 55.21,-419.09 48.24,-418.46"/>
</g>
<!-- Node19 -->
<g id="node24" class="node">
<title>Node19</title>
<g id="a_node24"><a xlink:href="../../d6/de7/group__A__POLY.html" target="_top" xlink:title=" ">
<polygon fill="white" stroke="black" points="250.5,-19 179.5,-19 179.5,0 250.5,0 250.5,-19"/>
<text text-anchor="middle" x="215" y="-7" font-family="Helvetica,sans-Serif" font-size="10.00">polynomial</text>
</a>
</g>
</g>
<!-- Node1&#45;&gt;Node19 -->
<g id="edge18" class="edge">
<title>Node1&#45;&gt;Node19</title>
<path fill="none" stroke="black" d="M51.3,-418.65C56.56,-344.58 78.67,-85.57 134,-28.5 145.63,-16.51 163.33,-11.51 179.14,-9.62"/>
<polygon fill="black" stroke="black" points="47.79,-418.68 50.6,-428.9 54.77,-419.16 47.79,-418.68"/>
</g>
</g>
</svg>
        <g id="navigator" transform="translate(0 0)" fill="#404254">
                <rect fill="#f2f5e9" fill-opacity="0.5" stroke="#606060" stroke-width=".5" x="0" y="0" width="60" height="60"/>
                <use id="zoomplus" xlink:href="#zoomPlus" x="17" y="9" onmousedown="handleZoom(evt,'in')"/>
                <use id="zoomminus" xlink:href="#zoomMin" x="42" y="9" onmousedown="handleZoom(evt,'out')"/>
                <use id="reset" xlink:href="#resetDef" x="30" y="36" onmousedown="handleReset()"/>
                <g id="arrowUp" xlink:href="#dirArrow" transform="translate(30 24)" onmousedown="handlePan(0,-1)">
                  <use xlink:href="#rim" fill="#404040">
                        <set attributeName="fill" to="#808080" begin="arrowUp.mouseover" end="arrowUp.mouseout"/>
                  </use>
                  <path fill="none" stroke="white" stroke-width="1.5" d="M0,-3.0v7 M-2.5,-0.5L0,-3.0L2.5,-0.5"/>
                </g>
                <g id="arrowRight" xlink:href="#dirArrow" transform="rotate(90) translate(36 -43)" onmousedown="handlePan(1,0)">
                  <use xlink:href="#rim" fill="#404040">
                        <set attributeName="fill" to="#808080" begin="arrowRight.mouseover" end="arrowRight.mouseout"/>
                  </use>
                  <path fill="none" stroke="white" stroke-width="1.5" d="M0,-3.0v7 M-2.5,-0.5L0,-3.0L2.5,-0.5"/>
                </g>
                <g id="arrowDown" xlink:href="#dirArrow" transform="rotate(180) translate(-30 -48)" onmousedown="handlePan(0,1)">
                  <use xlink:href="#rim" fill="#404040">
                        <set attributeName="fill" to="#808080" begin="arrowDown.mouseover" end="arrowDown.mouseout"/>
                  </use>
                  <path fill="none" stroke="white" stroke-width="1.5" d="M0,-3.0v7 M-2.5,-0.5L0,-3.0L2.5,-0.5"/>
                </g>
                <g id="arrowLeft" xlink:href="#dirArrow" transform="rotate(270) translate(-36 17)" onmousedown="handlePan(-1,0)">
                  <use xlink:href="#rim" fill="#404040">
                        <set attributeName="fill" to="#808080" begin="arrowLeft.mouseover" end="arrowLeft.mouseout"/>
                  </use>
                  <path fill="none" stroke="white" stroke-width="1.5" d="M0,-3.0v7 M-2.5,-0.5L0,-3.0L2.5,-0.5"/>
                </g>
        </g>
        <svg viewBox="0 0 15 15" width="100%" height="30px" preserveAspectRatio="xMaxYMin meet">
         <g id="arrow_out" transform="scale(0.3 0.3)">
          <a xlink:href="group__A_org.svg" target="_base">
           <rect id="button" ry="5" rx="5" y="6" x="6" height="38" width="38"
                fill="#f2f5e9" fill-opacity="0.5" stroke="#606060" stroke-width="1.0"/>
           <path id="arrow"
             d="M 11.500037,31.436501 C 11.940474,20.09759 22.043105,11.32322 32.158766,21.979434 L 37.068811,17.246167 C 37.068811,17.246167 37.088388,32 37.088388,32 L 22.160133,31.978069 C 22.160133,31.978069 26.997745,27.140456 26.997745,27.140456 C 18.528582,18.264221 13.291696,25.230495 11.500037,31.436501 z"
             style="fill:#404040;"/>
          </a>
         </g>
        </svg>
</svg>
