<?xml version="1.0" encoding="UTF-8" standalone="no"?>
<!DOCTYPE svg PUBLIC "-//W3C//DTD SVG 1.1//EN"
 "http://www.w3.org/Graphics/SVG/1.1/DTD/svg11.dtd">
<!-- Generated by graphviz version 2.43.0 (0)
 -->
<!-- Title: algorithm library Pages: 1 -->
<!--zoomable 1108 -->

<svg id="main" version="1.1" xmlns="http://www.w3.org/2000/svg" xmlns:xlink="http://www.w3.org/1999/xlink" xml:space="preserve" onload="init(evt)">
<style type="text/css"><![CDATA[
.node, .edge {opacity: 0.7;}
.node.selected, .edge.selected {opacity: 1;}
.edge:hover path { stroke: red; }
.edge:hover polygon { stroke: red; fill: red; }
]]></style>

<defs>
  <circle id="rim" cx="0" cy="0" r="7"/>
  <circle id="rim2" cx="0" cy="0" r="3.5"/>
  <g id="zoomPlus">
    <use xlink:href="#rim" fill="#404040"><set attributeName="fill" to="#808080" begin="zoomplus.mouseover" end="zoomplus.mouseout"/></use>
    <path d="M-4,0h8M0,-4v8" fill="none" stroke="white" stroke-width="1.5" pointer-events="none"/>
  </g>
  <g id="zoomMin">
    <use xlink:href="#rim" fill="#404040"><set attributeName="fill" to="#808080" begin="zoomminus.mouseover" end="zoomminus.mouseout"/></use>
    <path d="M-4,0h8" fill="none" stroke="white" stroke-width="1.5" pointer-events="none"/>
  </g>
  <g id="arrowUp" transform="translate(30 24)">
    <use xlink:href="#rim"/>
    <path pointer-events="none" fill="none" stroke="white" stroke-width="1.5" d="M0,-3.0v7 M-2.5,-0.5L0,-3.0L2.5,-0.5"/>
  </g>
  <g id="arrowRight" transform="rotate(90) translate(36 -43)">
    <use xlink:href="#rim"/>
    <path pointer-events="none" fill="none" stroke="white" stroke-width="1.5" d="M0,-3.0v7 M-2.5,-0.5L0,-3.0L2.5,-0.5"/>
  </g>
  <g id="arrowDown" transform="rotate(180) translate(-30 -48)">
    <use xlink:href="#rim"/>
    <path pointer-events="none" fill="none" stroke="white" stroke-width="1.5" d="M0,-3.0v7 M-2.5,-0.5L0,-3.0L2.5,-0.5"/>
  </g>
  <g id="arrowLeft" transform="rotate(270) translate(-36 17)">
    <use xlink:href="#rim"/>
    <path pointer-events="none" fill="none" stroke="white" stroke-width="1.5" d="M0,-3.0v7 M-2.5,-0.5L0,-3.0L2.5,-0.5"/>
  </g>
  <g id="resetDef">
    <use xlink:href="#rim2" fill="#404040"><set attributeName="fill" to="#808080" begin="reset.mouseover" end="reset.mouseout"/></use>
  </g>
</defs>
<script type="application/ecmascript">
var viewWidth = 304;
var viewHeight = 1108;
var sectionId = 'dynsection-0';
</script>
<script type="application/ecmascript" xlink:href="../../svg.min.js"/>
<svg id="graph" class="graph">
<g id="viewport">
<title>algorithm library</title>
<!-- Node1 -->
<g id="Node000001" class="node">
<title>Node1</title>
<g id="a_Node000001"><a xlink:title=" ">
<polygon fill="#999999" stroke="#666666" points="98,-574 0,-574 0,-555 98,-555 98,-574"/>
<text text-anchor="middle" x="49" y="-562" font-family="Helvetica,sans-Serif" font-size="10.00">algorithm library</text>
</a>
</g>
</g>
<!-- Node3 -->
<g id="Node000003" class="node">
<title>Node3</title>
<g id="a_Node000003"><a xlink:href="../../d6/d8f/group__A__AVL.html" target="_top" xlink:title=" ">
<polygon fill="white" stroke="#666666" points="278,-1100 152,-1100 152,-1081 278,-1081 278,-1100"/>
<text text-anchor="middle" x="215" y="-1088" font-family="Helvetica,sans-Serif" font-size="10.00">AVL binary search tree</text>
</a>
</g>
</g>
<!-- Node1&#45;&gt;Node3 -->
<g id="edge2" class="edge">
<title>Node1&#45;&gt;Node3</title>
<path fill="none" stroke="black" d="M50.42,-584.31C52.65,-669.05 65.65,-1000.1 134,-1072.5 138.98,-1077.78 145.16,-1081.67 151.85,-1084.51"/>
<polygon fill="black" stroke="black" points="53.92,-584.14 50.18,-574.23 46.92,-584.31 53.92,-584.14"/>
</g>
<!-- Node4 -->
<g id="Node000004" class="node">
<title>Node4</title>
<g id="a_Node000004"><a xlink:href="../../d0/df8/group__A__BUF.html" target="_top" xlink:title=" ">
<polygon fill="white" stroke="#666666" points="269,-1063 161,-1063 161,-1044 269,-1044 269,-1063"/>
<text text-anchor="middle" x="215" y="-1051" font-family="Helvetica,sans-Serif" font-size="10.00">basic buffer library</text>
</a>
</g>
</g>
<!-- Node1&#45;&gt;Node4 -->
<g id="edge3" class="edge">
<title>Node1&#45;&gt;Node4</title>
<path fill="none" stroke="black" d="M50.72,-584.65C54.04,-666 70.53,-969.12 134,-1035.5 141.18,-1043.01 150.77,-1047.7 160.82,-1050.57"/>
<polygon fill="black" stroke="black" points="54.2,-584.16 50.32,-574.31 47.21,-584.43 54.2,-584.16"/>
</g>
<!-- Node5 -->
<g id="Node000005" class="node">
<title>Node5</title>
<g id="a_Node000005"><a xlink:href="../../d6/dbb/group__A__COMPLEX.html" target="_top" xlink:title=" ">
<polygon fill="white" stroke="#666666" points="264.5,-1026 165.5,-1026 165.5,-1007 264.5,-1007 264.5,-1026"/>
<text text-anchor="middle" x="215" y="-1014" font-family="Helvetica,sans-Serif" font-size="10.00">complex number</text>
</a>
</g>
</g>
<!-- Node1&#45;&gt;Node5 -->
<g id="edge4" class="edge">
<title>Node1&#45;&gt;Node5</title>
<path fill="none" stroke="black" d="M51.05,-584.53C55.48,-661.64 75.29,-937.99 134,-998.5 142.33,-1007.08 153.8,-1011.97 165.46,-1014.66"/>
<polygon fill="black" stroke="black" points="54.53,-584.08 50.48,-574.29 47.54,-584.47 54.53,-584.08"/>
</g>
<!-- Node2 -->
<g id="Node000002" class="node">
<title>Node2</title>
<g id="a_Node000002"><a xlink:href="../../d5/da3/group__A__FLOAT.html" target="_top" xlink:title=" ">
<polygon fill="white" stroke="#666666" points="276,-989 154,-989 154,-970 276,-970 276,-989"/>
<text text-anchor="middle" x="215" y="-977" font-family="Helvetica,sans-Serif" font-size="10.00">floating&#45;point number</text>
</a>
</g>
</g>
<!-- Node1&#45;&gt;Node2 -->
<g id="edge1" class="edge">
<title>Node1&#45;&gt;Node2</title>
<path fill="none" stroke="black" d="M51.41,-584.21C57,-656.66 79.97,-906.77 134,-961.5 139.5,-967.07 146.33,-971.08 153.66,-973.94"/>
<polygon fill="black" stroke="black" points="54.9,-583.88 50.66,-574.17 47.92,-584.4 54.9,-583.88"/>
</g>
<!-- Node6 -->
<g id="Node000006" class="node">
<title>Node6</title>
<g id="a_Node000006"><a xlink:href="../../d6/d0a/group__A__FUZZY.html" target="_top" xlink:title=" ">
<polygon fill="white" stroke="#666666" points="258.5,-952 171.5,-952 171.5,-933 258.5,-933 258.5,-952"/>
<text text-anchor="middle" x="215" y="-940" font-family="Helvetica,sans-Serif" font-size="10.00">fuzzy operator</text>
</a>
</g>
</g>
<!-- Node1&#45;&gt;Node6 -->
<g id="edge5" class="edge">
<title>Node1&#45;&gt;Node6</title>
<path fill="none" stroke="black" d="M51.91,-584.54C58.82,-652.95 84.79,-875.68 134,-924.5 143.8,-934.23 157.66,-939.17 171.1,-941.55"/>
<polygon fill="black" stroke="black" points="55.36,-583.89 50.9,-574.28 48.39,-584.58 55.36,-583.89"/>
</g>
<!-- Node11 -->
<g id="Node000011" class="node">
<title>Node11</title>
<g id="a_Node000011"><a xlink:href="../../dd/d71/group__A__HPF.html" target="_top" xlink:title=" ">
<polygon fill="white" stroke="#666666" points="261,-915 169,-915 169,-896 261,-896 261,-915"/>
<text text-anchor="middle" x="215" y="-903" font-family="Helvetica,sans-Serif" font-size="10.00">High Pass Filter</text>
</a>
</g>
</g>
<!-- Node1&#45;&gt;Node11 -->
<g id="edge10" class="edge">
<title>Node1&#45;&gt;Node11</title>
<path fill="none" stroke="black" d="M52.48,-584.52C60.76,-648.2 89.5,-844.45 134,-887.5 143.31,-896.51 156.11,-901.39 168.74,-903.93"/>
<polygon fill="black" stroke="black" points="55.9,-583.71 51.17,-574.24 48.96,-584.6 55.9,-583.71"/>
</g>
<!-- Node12 -->
<g id="Node000012" class="node">
<title>Node12</title>
<g id="a_Node000012"><a xlink:href="../../d8/de5/group__A__LIST.html" target="_top" xlink:title=" ">
<polygon fill="white" stroke="#666666" points="284.5,-878 145.5,-878 145.5,-859 284.5,-859 284.5,-878"/>
<text text-anchor="middle" x="215" y="-866" font-family="Helvetica,sans-Serif" font-size="10.00">circular doubly linked list</text>
</a>
</g>
</g>
<!-- Node1&#45;&gt;Node12 -->
<g id="edge11" class="edge">
<title>Node1&#45;&gt;Node12</title>
<path fill="none" stroke="black" d="M49.46,-584.33C49.2,-636.29 56.09,-777.44 134,-850.5 137.53,-853.81 141.54,-856.56 145.82,-858.84"/>
<polygon fill="black" stroke="black" points="52.97,-584.19 49.62,-574.14 45.97,-584.08 52.97,-584.19"/>
</g>
<!-- Node13 -->
<g id="Node000013" class="node">
<title>Node13</title>
<g id="a_Node000013"><a xlink:href="../../df/d27/group__A__LPF.html" target="_top" xlink:title=" ">
<polygon fill="white" stroke="#666666" points="259.5,-841 170.5,-841 170.5,-822 259.5,-822 259.5,-841"/>
<text text-anchor="middle" x="215" y="-829" font-family="Helvetica,sans-Serif" font-size="10.00">Low Pass Filter</text>
</a>
</g>
</g>
<!-- Node1&#45;&gt;Node13 -->
<g id="edge12" class="edge">
<title>Node1&#45;&gt;Node13</title>
<path fill="none" stroke="black" d="M50.55,-584.15C52.96,-631.09 65.85,-750.43 134,-812.5 143.92,-821.54 157.34,-826.5 170.36,-829.16"/>
<polygon fill="black" stroke="black" points="54.04,-583.94 50.14,-574.09 47.05,-584.22 54.04,-583.94"/>
</g>
<!-- Node14 -->
<g id="Node000014" class="node">
<title>Node14</title>
<g id="a_Node000014"><a xlink:href="../../d1/d82/group__A__MATH.html" target="_top" xlink:title=" ">
<polygon fill="white" stroke="#666666" points="282.5,-803.5 147.5,-803.5 147.5,-773.5 282.5,-773.5 282.5,-803.5"/>
<text text-anchor="start" x="155.5" y="-791.5" font-family="Helvetica,sans-Serif" font-size="10.00">mathematical algorithm</text>
<text text-anchor="middle" x="215" y="-780.5" font-family="Helvetica,sans-Serif" font-size="10.00"> library</text>
</a>
</g>
</g>
<!-- Node1&#45;&gt;Node14 -->
<g id="edge13" class="edge">
<title>Node1&#45;&gt;Node14</title>
<path fill="none" stroke="black" d="M52.62,-584.11C59.01,-624.03 79.08,-715.12 134,-764.5 137.99,-768.09 142.5,-771.14 147.29,-773.73"/>
<polygon fill="black" stroke="black" points="56.07,-583.46 51.14,-574.08 49.14,-584.49 56.07,-583.46"/>
</g>
<!-- Node15 -->
<g id="Node000015" class="node">
<title>Node15</title>
<g id="a_Node000015"><a xlink:href="../../dd/d37/group__A__MF.html" target="_top" xlink:title=" ">
<polygon fill="white" stroke="#666666" points="275.5,-755 154.5,-755 154.5,-736 275.5,-736 275.5,-755"/>
<text text-anchor="middle" x="215" y="-743" font-family="Helvetica,sans-Serif" font-size="10.00">membership function</text>
</a>
</g>
</g>
<!-- Node1&#45;&gt;Node15 -->
<g id="edge14" class="edge">
<title>Node1&#45;&gt;Node15</title>
<path fill="none" stroke="black" d="M54.27,-583.82C62.96,-618.34 86.05,-690.43 134,-727.5 139.97,-732.11 146.9,-735.59 154.13,-738.2"/>
<polygon fill="black" stroke="black" points="57.66,-582.95 51.95,-574.03 50.85,-584.57 57.66,-582.95"/>
</g>
<!-- Node16 -->
<g id="Node000016" class="node">
<title>Node16</title>
<g id="a_Node000016"><a xlink:href="../../db/ddc/group__A__NOTEFREQ.html" target="_top" xlink:title=" ">
<polygon fill="white" stroke="#666666" points="274,-718 156,-718 156,-699 274,-699 274,-718"/>
<text text-anchor="middle" x="215" y="-706" font-family="Helvetica,sans-Serif" font-size="10.00">note frequency table</text>
</a>
</g>
</g>
<!-- Node1&#45;&gt;Node16 -->
<g id="edge15" class="edge">
<title>Node1&#45;&gt;Node16</title>
<path fill="none" stroke="black" d="M57.33,-583.72C69.06,-611.79 94.8,-663.57 134,-690.5 140.57,-695.01 148.09,-698.42 155.84,-700.97"/>
<polygon fill="black" stroke="black" points="60.49,-582.2 53.52,-574.22 53.99,-584.81 60.49,-582.2"/>
</g>
<!-- Node17 -->
<g id="Node000017" class="node">
<title>Node17</title>
<g id="a_Node000017"><a xlink:href="../../df/db1/group__A__OOP.html" target="_top" xlink:title=" ">
<polygon fill="white" stroke="#666666" points="296,-681 134,-681 134,-662 296,-662 296,-681"/>
<text text-anchor="middle" x="215" y="-669" font-family="Helvetica,sans-Serif" font-size="10.00">Object Oriented Programming</text>
</a>
</g>
</g>
<!-- Node1&#45;&gt;Node17 -->
<g id="edge16" class="edge">
<title>Node1&#45;&gt;Node17</title>
<path fill="none" stroke="black" d="M61.9,-582.47C76.43,-602.93 102.94,-635.81 134,-653.5 140.06,-656.95 146.73,-659.74 153.56,-662"/>
<polygon fill="black" stroke="black" points="64.65,-580.29 56.09,-574.04 58.88,-584.26 64.65,-580.29"/>
</g>
<!-- Node18 -->
<g id="Node000018" class="node">
<title>Node18</title>
<g id="a_Node000018"><a xlink:href="../../dd/d76/group__A__OPERATOR.html" target="_top" xlink:title=" ">
<polygon fill="white" stroke="#666666" points="289,-644 141,-644 141,-625 289,-625 289,-644"/>
<text text-anchor="middle" x="215" y="-632" font-family="Helvetica,sans-Serif" font-size="10.00">algorithm library operators</text>
</a>
</g>
</g>
<!-- Node1&#45;&gt;Node18 -->
<g id="edge17" class="edge">
<title>Node1&#45;&gt;Node18</title>
<path fill="none" stroke="black" d="M71.31,-580.02C87.72,-591.32 111.36,-606.21 134,-615.5 143.24,-619.29 153.41,-622.43 163.31,-624.99"/>
<polygon fill="black" stroke="black" points="73.18,-577.06 62.99,-574.17 69.15,-582.79 73.18,-577.06"/>
</g>
<!-- Node19 -->
<g id="Node000019" class="node">
<title>Node19</title>
<g id="a_Node000019"><a xlink:href="../../d8/da8/group__A__PID.html" target="_top" xlink:title=" ">
<polygon fill="white" stroke="#666666" points="274.5,-606.5 155.5,-606.5 155.5,-576.5 274.5,-576.5 274.5,-606.5"/>
<text text-anchor="start" x="163.5" y="-594.5" font-family="Helvetica,sans-Serif" font-size="10.00">proportional integral</text>
<text text-anchor="middle" x="215" y="-583.5" font-family="Helvetica,sans-Serif" font-size="10.00"> derivative controller</text>
</a>
</g>
</g>
<!-- Node1&#45;&gt;Node19 -->
<g id="edge18" class="edge">
<title>Node1&#45;&gt;Node19</title>
<path fill="none" stroke="black" d="M108.61,-574.15C123.78,-576.65 140.12,-579.34 155.29,-581.83"/>
<polygon fill="black" stroke="black" points="108.75,-570.63 98.32,-572.45 107.62,-577.53 108.75,-570.63"/>
</g>
<!-- Node20 -->
<g id="Node000020" class="node">
<title>Node20</title>
<g id="a_Node000020"><a xlink:href="../../dc/db1/group__A__PID__FUZZY.html" target="_top" xlink:title=" ">
<polygon fill="white" stroke="#666666" points="270,-558 160,-558 160,-517 270,-517 270,-558"/>
<text text-anchor="start" x="168" y="-546" font-family="Helvetica,sans-Serif" font-size="10.00">fuzzy proportional</text>
<text text-anchor="start" x="168" y="-535" font-family="Helvetica,sans-Serif" font-size="10.00"> integral derivative</text>
<text text-anchor="middle" x="215" y="-524" font-family="Helvetica,sans-Serif" font-size="10.00"> controller</text>
</a>
</g>
</g>
<!-- Node1&#45;&gt;Node20 -->
<g id="edge19" class="edge">
<title>Node1&#45;&gt;Node20</title>
<path fill="none" stroke="black" d="M108.55,-554.86C125.32,-552.1 143.51,-549.1 159.99,-546.39"/>
<polygon fill="black" stroke="black" points="107.62,-551.47 98.32,-556.55 108.75,-558.37 107.62,-551.47"/>
</g>
<!-- Node21 -->
<g id="Node000021" class="node">
<title>Node21</title>
<g id="a_Node000021"><a xlink:href="../../df/df3/group__A__PID__NEURON.html" target="_top" xlink:title=" ">
<polygon fill="white" stroke="#666666" points="294.5,-498.5 135.5,-498.5 135.5,-468.5 294.5,-468.5 294.5,-498.5"/>
<text text-anchor="start" x="143.5" y="-486.5" font-family="Helvetica,sans-Serif" font-size="10.00">single neuron proportional</text>
<text text-anchor="middle" x="215" y="-475.5" font-family="Helvetica,sans-Serif" font-size="10.00"> integral derivative controller</text>
</a>
</g>
</g>
<!-- Node1&#45;&gt;Node21 -->
<g id="edge20" class="edge">
<title>Node1&#45;&gt;Node21</title>
<path fill="none" stroke="black" d="M70.13,-548.68C86.57,-536.37 110.78,-519.59 134,-508.5 141.75,-504.8 150.17,-501.48 158.55,-498.56"/>
<polygon fill="black" stroke="black" points="67.69,-546.14 61.86,-554.99 71.94,-551.71 67.69,-546.14"/>
</g>
<!-- Node22 -->
<g id="Node000022" class="node">
<title>Node22</title>
<g id="a_Node000022"><a xlink:href="../../d6/de7/group__A__POLY.html" target="_top" xlink:title=" ">
<polygon fill="white" stroke="#666666" points="250.5,-450 179.5,-450 179.5,-431 250.5,-431 250.5,-450"/>
<text text-anchor="middle" x="215" y="-438" font-family="Helvetica,sans-Serif" font-size="10.00">polynomial</text>
</a>
</g>
</g>
<!-- Node1&#45;&gt;Node22 -->
<g id="edge21" class="edge">
<title>Node1&#45;&gt;Node22</title>
<path fill="none" stroke="black" d="M59.74,-545.82C73.17,-521.99 99.66,-481.25 134,-459.5 147.51,-450.94 164.51,-446.24 179.36,-443.65"/>
<polygon fill="black" stroke="black" points="56.51,-544.44 54.8,-554.9 62.66,-547.79 56.51,-544.44"/>
</g>
<!-- Node23 -->
<g id="Node000023" class="node">
<title>Node23</title>
<g id="a_Node000023"><a xlink:href="../../d1/d97/group__A__POLYTRACK.html" target="_top" xlink:title=" ">
<polygon fill="white" stroke="#666666" points="276,-413 154,-413 154,-394 276,-394 276,-413"/>
<text text-anchor="middle" x="215" y="-401" font-family="Helvetica,sans-Serif" font-size="10.00">polynomial trajectory</text>
</a>
</g>
</g>
<!-- Node1&#45;&gt;Node23 -->
<g id="edge22" class="edge">
<title>Node1&#45;&gt;Node23</title>
<path fill="none" stroke="black" d="M55.93,-545.13C66.42,-514.2 91.3,-453.96 134,-422.5 139.98,-418.1 146.83,-414.7 153.95,-412.08"/>
<polygon fill="black" stroke="black" points="52.56,-544.16 52.81,-554.75 59.22,-546.32 52.56,-544.16"/>
</g>
<!-- Node7 -->
<g id="Node000007" class="node">
<title>Node7</title>
<g id="a_Node000007"><a xlink:href="../../df/d54/group__A__QUE.html" target="_top" xlink:title=" ">
<polygon fill="white" stroke="#666666" points="270,-376 160,-376 160,-357 270,-357 270,-376"/>
<text text-anchor="middle" x="215" y="-364" font-family="Helvetica,sans-Serif" font-size="10.00">basic queue library</text>
</a>
</g>
</g>
<!-- Node1&#45;&gt;Node7 -->
<g id="edge6" class="edge">
<title>Node1&#45;&gt;Node7</title>
<path fill="none" stroke="black" d="M53.41,-544.93C60.95,-507.84 82.58,-427.3 134,-385.5 141.42,-379.47 150.44,-375.29 159.71,-372.41"/>
<polygon fill="black" stroke="black" points="49.94,-544.47 51.51,-554.95 56.81,-545.78 49.94,-544.47"/>
</g>
<!-- Node24 -->
<g id="Node000024" class="node">
<title>Node24</title>
<g id="a_Node000024"><a xlink:href="../../dd/dd8/group__A__RBF.html" target="_top" xlink:title=" ">
<polygon fill="white" stroke="#666666" points="273,-339 157,-339 157,-320 273,-320 273,-339"/>
<text text-anchor="middle" x="215" y="-327" font-family="Helvetica,sans-Serif" font-size="10.00">radial basis function</text>
</a>
</g>
</g>
<!-- Node1&#45;&gt;Node24 -->
<g id="edge23" class="edge">
<title>Node1&#45;&gt;Node24</title>
<path fill="none" stroke="black" d="M51.67,-544.82C56.39,-502.21 73.69,-401.03 134,-348.5 140.57,-342.78 148.55,-338.71 156.89,-335.82"/>
<polygon fill="black" stroke="black" points="48.17,-544.69 50.67,-554.98 55.14,-545.37 48.17,-544.69"/>
</g>
<!-- Node25 -->
<g id="Node000025" class="node">
<title>Node25</title>
<g id="a_Node000025"><a xlink:href="../../d7/d06/group__A__RBT.html" target="_top" xlink:title=" ">
<polygon fill="white" stroke="#666666" points="264,-301.5 166,-301.5 166,-271.5 264,-271.5 264,-301.5"/>
<text text-anchor="start" x="174" y="-289.5" font-family="Helvetica,sans-Serif" font-size="10.00">red–black binary</text>
<text text-anchor="middle" x="215" y="-278.5" font-family="Helvetica,sans-Serif" font-size="10.00"> search tree</text>
</a>
</g>
</g>
<!-- Node1&#45;&gt;Node25 -->
<g id="edge24" class="edge">
<title>Node1&#45;&gt;Node25</title>
<path fill="none" stroke="black" d="M50.7,-544.77C53.46,-497.59 67.05,-377.27 134,-311.5 142.72,-302.93 154.33,-297.3 166,-293.59"/>
<polygon fill="black" stroke="black" points="47.2,-544.72 50.22,-554.88 54.19,-545.06 47.2,-544.72"/>
</g>
<!-- Node26 -->
<g id="Node000026" class="node">
<title>Node26</title>
<g id="a_Node000026"><a xlink:href="../../d1/dfe/group__A__SLIST.html" target="_top" xlink:title=" ">
<polygon fill="white" stroke="#666666" points="282.5,-253 147.5,-253 147.5,-234 282.5,-234 282.5,-253"/>
<text text-anchor="middle" x="215" y="-241" font-family="Helvetica,sans-Serif" font-size="10.00">circular singly linked list</text>
</a>
</g>
</g>
<!-- Node1&#45;&gt;Node26 -->
<g id="edge25" class="edge">
<title>Node1&#45;&gt;Node26</title>
<path fill="none" stroke="black" d="M49.15,-544.72C47.98,-490.95 52.54,-340.91 134,-262.5 137.91,-258.74 142.42,-255.67 147.27,-253.18"/>
<polygon fill="black" stroke="black" points="45.66,-545.05 49.47,-554.93 52.65,-544.83 45.66,-545.05"/>
</g>
<!-- Node8 -->
<g id="Node000008" class="node">
<title>Node8</title>
<g id="a_Node000008"><a xlink:href="../../db/d6c/group__A__STR.html" target="_top" xlink:title=" ">
<polygon fill="white" stroke="#666666" points="268.5,-216 161.5,-216 161.5,-197 268.5,-197 268.5,-216"/>
<text text-anchor="middle" x="215" y="-204" font-family="Helvetica,sans-Serif" font-size="10.00">basic string library</text>
</a>
</g>
</g>
<!-- Node1&#45;&gt;Node8 -->
<g id="edge7" class="edge">
<title>Node1&#45;&gt;Node8</title>
<path fill="none" stroke="black" d="M52.2,-544.81C59.89,-479.47 87.67,-271.38 134,-225.5 141.4,-218.17 151.09,-213.47 161.16,-210.5"/>
<polygon fill="black" stroke="black" points="48.7,-544.63 51.03,-554.97 55.65,-545.43 48.7,-544.63"/>
</g>
<!-- Node27 -->
<g id="Node000027" class="node">
<title>Node27</title>
<g id="a_Node000027"><a xlink:href="../../d0/ddd/group__A__TF.html" target="_top" xlink:title=" ">
<polygon fill="white" stroke="#666666" points="264,-179 166,-179 166,-160 264,-160 264,-179"/>
<text text-anchor="middle" x="215" y="-167" font-family="Helvetica,sans-Serif" font-size="10.00">transfer function</text>
</a>
</g>
</g>
<!-- Node1&#45;&gt;Node27 -->
<g id="edge26" class="edge">
<title>Node1&#45;&gt;Node27</title>
<path fill="none" stroke="black" d="M51.71,-544.5C58.13,-474.24 83.05,-240.14 134,-188.5 142.42,-179.96 153.93,-174.98 165.59,-172.15"/>
<polygon fill="black" stroke="black" points="48.21,-544.38 50.81,-554.65 55.18,-545 48.21,-544.38"/>
</g>
<!-- Node28 -->
<g id="Node000028" class="node">
<title>Node28</title>
<g id="a_Node000028"><a xlink:href="../../d9/da8/group__A__UTF.html" target="_top" xlink:title=" ">
<polygon fill="white" stroke="#666666" points="281.5,-141.5 148.5,-141.5 148.5,-111.5 281.5,-111.5 281.5,-141.5"/>
<text text-anchor="start" x="156.5" y="-129.5" font-family="Helvetica,sans-Serif" font-size="10.00">Unicode Transformation</text>
<text text-anchor="middle" x="215" y="-118.5" font-family="Helvetica,sans-Serif" font-size="10.00"> Format</text>
</a>
</g>
</g>
<!-- Node1&#45;&gt;Node28 -->
<g id="edge27" class="edge">
<title>Node1&#45;&gt;Node28</title>
<path fill="none" stroke="black" d="M51.41,-544.63C57.05,-470.45 80.37,-210.92 134,-151.5 138.1,-146.96 143,-143.24 148.34,-140.19"/>
<polygon fill="black" stroke="black" points="47.9,-544.66 50.65,-554.89 54.88,-545.17 47.9,-544.66"/>
</g>
<!-- Node9 -->
<g id="Node000009" class="node">
<title>Node9</title>
<g id="a_Node000009"><a xlink:href="../../da/d05/group__A__VEC.html" target="_top" xlink:title=" ">
<polygon fill="white" stroke="#666666" points="270,-93 160,-93 160,-74 270,-74 270,-93"/>
<text text-anchor="middle" x="215" y="-81" font-family="Helvetica,sans-Serif" font-size="10.00">basic vector library</text>
</a>
</g>
</g>
<!-- Node1&#45;&gt;Node9 -->
<g id="edge8" class="edge">
<title>Node1&#45;&gt;Node9</title>
<path fill="none" stroke="black" d="M50.8,-544.76C54.43,-465.02 71.99,-167.91 134,-102.5 140.97,-95.14 150.23,-90.41 159.97,-87.4"/>
<polygon fill="black" stroke="black" points="47.3,-544.75 50.36,-554.89 54.29,-545.05 47.3,-544.75"/>
</g>
<!-- Node10 -->
<g id="Node000010" class="node">
<title>Node10</title>
<g id="a_Node000010"><a xlink:href="../../da/df8/group__A__VECTOR.html" target="_top" xlink:title=" ">
<polygon fill="white" stroke="#666666" points="270,-56 160,-56 160,-37 270,-37 270,-56"/>
<text text-anchor="middle" x="215" y="-44" font-family="Helvetica,sans-Serif" font-size="10.00">basic vector library</text>
</a>
</g>
</g>
<!-- Node1&#45;&gt;Node10 -->
<g id="edge9" class="edge">
<title>Node1&#45;&gt;Node10</title>
<path fill="none" stroke="black" d="M50.51,-544.81C53.07,-461.22 67.21,-136.88 134,-65.5 140.92,-58.1 150.16,-53.34 159.9,-50.33"/>
<polygon fill="black" stroke="black" points="47,-544.85 50.22,-554.95 54,-545.05 47,-544.85"/>
</g>
<!-- Node29 -->
<g id="Node000029" class="node">
<title>Node29</title>
<g id="a_Node000029"><a xlink:href="../../d2/d1b/group__A__VERSION.html" target="_top" xlink:title=" ">
<polygon fill="white" stroke="#666666" points="283.5,-19 146.5,-19 146.5,0 283.5,0 283.5,-19"/>
<text text-anchor="middle" x="215" y="-7" font-family="Helvetica,sans-Serif" font-size="10.00">algorithm library version</text>
</a>
</g>
</g>
<!-- Node1&#45;&gt;Node29 -->
<g id="edge28" class="edge">
<title>Node1&#45;&gt;Node29</title>
<path fill="none" stroke="black" d="M50.26,-544.47C51.83,-456.56 62.53,-105.75 134,-28.5 137.59,-24.62 141.81,-21.47 146.41,-18.91"/>
<polygon fill="black" stroke="black" points="46.76,-544.62 50.1,-554.68 53.76,-544.73 46.76,-544.62"/>
</g>
</g>
</svg>

<g id="navigator" transform="translate(0 0)" fill="#404254">
  <rect fill="#f2f5e9" fill-opacity="0.5" stroke="#606060" stroke-width=".5" x="0" y="0" width="60" height="60"/>
  <use id="zoomplus" xlink:href="#zoomPlus" x="17" y="9" onmousedown="handleZoom(evt,'in')"/>
  <use id="zoomminus" xlink:href="#zoomMin" x="42" y="9" onmousedown="handleZoom(evt,'out')"/>
  <use id="reset" xlink:href="#resetDef" x="30" y="36" onmousedown="handleReset()"/>
   <use id="arrowup" xlink:href="#arrowUp" x="0" y="0" onmousedown="handlePan(0,-1)"/>
  <use id="arrowright" xlink:href="#arrowRight" x="0" y="0" onmousedown="handlePan(1,0)"/>
  <use id="arrowdown" xlink:href="#arrowDown" x="0" y="0" onmousedown="handlePan(0,1)"/>
  <use id="arrowleft" xlink:href="#arrowLeft" x="0" y="0" onmousedown="handlePan(-1,0)"/>
</g>
<svg viewBox="0 0 15 15" width="100%" height="30px" preserveAspectRatio="xMaxYMin meet">
 <g id="arrow_out" transform="scale(0.3 0.3)">
  <a xlink:href="group__A_org.svg" target="_base">
   <rect id="button" ry="5" rx="5" y="6" x="6" height="38" width="38"
        fill="#f2f5e9" fill-opacity="0.5" stroke="#606060" stroke-width="1.0"/>
   <path id="arrow"
     d="M 11.500037,31.436501 C 11.940474,20.09759 22.043105,11.32322 32.158766,21.979434 L 37.068811,17.246167 C 37.068811,17.246167 37.088388,32 37.088388,32 L 22.160133,31.978069 C 22.160133,31.978069 26.997745,27.140456 26.997745,27.140456 C 18.528582,18.264221 13.291696,25.230495 11.500037,31.436501 z"
     style="fill:#404040;"/>
  </a>
 </g>
</svg>

<style type='text/css'>
<![CDATA[
[data-mouse-over-selected='false'] { opacity: 0.7; }
[data-mouse-over-selected='true']  { opacity: 1.0; }
]]>
</style>
<script type="application/ecmascript"><![CDATA[
document.addEventListener('DOMContentLoaded', (event) => {
  highlightEdges();
  highlightAdjacentNodes();
});
]]></script>
</svg>
