<?xml version="1.0" encoding="UTF-8" standalone="no"?>
<!DOCTYPE svg PUBLIC "-//W3C//DTD SVG 1.1//EN"
 "http://www.w3.org/Graphics/SVG/1.1/DTD/svg11.dtd">
<!-- Generated by graphviz version 2.43.0 (0)
 -->
<!-- Title: algorithm library Pages: 1 -->
<svg width="304pt" height="1021pt"
 viewBox="0.00 0.00 304.00 1020.50" xmlns="http://www.w3.org/2000/svg" xmlns:xlink="http://www.w3.org/1999/xlink">
<g id="graph0" class="graph" transform="scale(1 1) rotate(0) translate(4 1016.5)">
<title>algorithm library</title>
<polygon fill="white" stroke="transparent" points="-4,4 -4,-1016.5 300,-1016.5 300,4 -4,4"/>
<!-- Node19 -->
<g id="node1" class="node">
<title>Node19</title>
<g id="a_node1"><a xlink:href="../../d8/da8/group__A__PID.html" target="_top" xlink:title=" ">
<polygon fill="white" stroke="black" points="274.5,-1012.5 155.5,-1012.5 155.5,-982.5 274.5,-982.5 274.5,-1012.5"/>
<text text-anchor="start" x="163.5" y="-1000.5" font-family="Helvetica,sans-Serif" font-size="10.00">proportional integral</text>
<text text-anchor="middle" x="215" y="-989.5" font-family="Helvetica,sans-Serif" font-size="10.00"> derivative controller</text>
</a>
</g>
</g>
<!-- Node1 -->
<g id="node2" class="node">
<title>Node1</title>
<g id="a_node2"><a xlink:title=" ">
<polygon fill="#bfbfbf" stroke="black" points="98,-493 0,-493 0,-474 98,-474 98,-493"/>
<text text-anchor="middle" x="49" y="-481" font-family="Helvetica,sans-Serif" font-size="10.00">algorithm library</text>
</a>
</g>
</g>
<!-- Node1&#45;&gt;Node19 -->
<g id="edge18" class="edge">
<title>Node1&#45;&gt;Node19</title>
<path fill="none" stroke="black" d="M50.69,-503.28C53.96,-585.8 70.48,-901.74 134,-973.5 139.77,-980.01 147.22,-984.79 155.26,-988.29"/>
<polygon fill="black" stroke="black" points="54.18,-503.09 50.31,-493.23 47.19,-503.35 54.18,-503.09"/>
</g>
<!-- Node11 -->
<g id="node3" class="node">
<title>Node11</title>
<g id="a_node3"><a xlink:href="../../dd/d71/group__A__HPF.html" target="_top" xlink:title=" ">
<polygon fill="white" stroke="black" points="261,-964 169,-964 169,-945 261,-945 261,-964"/>
<text text-anchor="middle" x="215" y="-952" font-family="Helvetica,sans-Serif" font-size="10.00">High Pass Filter</text>
</a>
</g>
</g>
<!-- Node1&#45;&gt;Node11 -->
<g id="edge10" class="edge">
<title>Node1&#45;&gt;Node11</title>
<path fill="none" stroke="black" d="M50.86,-503.39C54.69,-582.42 72.8,-872.93 134,-936.5 143.08,-945.94 155.97,-950.91 168.75,-953.42"/>
<polygon fill="black" stroke="black" points="54.35,-503.15 50.4,-493.32 47.36,-503.47 54.35,-503.15"/>
</g>
<!-- Node13 -->
<g id="node4" class="node">
<title>Node13</title>
<g id="a_node4"><a xlink:href="../../df/d27/group__A__LPF.html" target="_top" xlink:title=" ">
<polygon fill="white" stroke="black" points="259.5,-927 170.5,-927 170.5,-908 259.5,-908 259.5,-927"/>
<text text-anchor="middle" x="215" y="-915" font-family="Helvetica,sans-Serif" font-size="10.00">Low Pass Filter</text>
</a>
</g>
</g>
<!-- Node1&#45;&gt;Node13 -->
<g id="edge12" class="edge">
<title>Node1&#45;&gt;Node13</title>
<path fill="none" stroke="black" d="M51.24,-503.65C56.26,-578.88 77.64,-841.88 134,-899.5 143.46,-909.17 156.91,-914.14 170.1,-916.57"/>
<polygon fill="black" stroke="black" points="54.7,-503.01 50.57,-493.25 47.72,-503.46 54.7,-503.01"/>
</g>
<!-- Node24 -->
<g id="node5" class="node">
<title>Node24</title>
<g id="a_node5"><a xlink:href="../../d1/dfe/group__A__SLIST.html" target="_top" xlink:title=" ">
<polygon fill="white" stroke="black" points="282.5,-890 147.5,-890 147.5,-871 282.5,-871 282.5,-890"/>
<text text-anchor="middle" x="215" y="-878" font-family="Helvetica,sans-Serif" font-size="10.00">circular singly linked list</text>
</a>
</g>
</g>
<!-- Node1&#45;&gt;Node24 -->
<g id="edge23" class="edge">
<title>Node1&#45;&gt;Node24</title>
<path fill="none" stroke="black" d="M51.63,-503.21C57.83,-573.53 82.28,-810.62 134,-862.5 137.92,-866.43 142.5,-869.58 147.45,-872.1"/>
<polygon fill="black" stroke="black" points="55.1,-502.75 50.76,-493.08 48.12,-503.34 55.1,-502.75"/>
</g>
<!-- Node15 -->
<g id="node6" class="node">
<title>Node15</title>
<g id="a_node6"><a xlink:href="../../dd/d37/group__A__MF.html" target="_top" xlink:title=" ">
<polygon fill="white" stroke="black" points="275.5,-853 154.5,-853 154.5,-834 275.5,-834 275.5,-853"/>
<text text-anchor="middle" x="215" y="-841" font-family="Helvetica,sans-Serif" font-size="10.00">membership function</text>
</a>
</g>
</g>
<!-- Node1&#45;&gt;Node15 -->
<g id="edge14" class="edge">
<title>Node1&#45;&gt;Node15</title>
<path fill="none" stroke="black" d="M52.15,-503.39C59.7,-569.37 87.05,-779.46 134,-825.5 139.69,-831.08 146.72,-835.08 154.23,-837.93"/>
<polygon fill="black" stroke="black" points="55.6,-502.68 51.01,-493.13 48.64,-503.45 55.6,-502.68"/>
</g>
<!-- Node22 -->
<g id="node7" class="node">
<title>Node22</title>
<g id="a_node7"><a xlink:href="../../d1/d97/group__A__POLYTRACK.html" target="_top" xlink:title=" ">
<polygon fill="white" stroke="black" points="276,-816 154,-816 154,-797 276,-797 276,-816"/>
<text text-anchor="middle" x="215" y="-804" font-family="Helvetica,sans-Serif" font-size="10.00">polynomial trajectory</text>
</a>
</g>
</g>
<!-- Node1&#45;&gt;Node22 -->
<g id="edge21" class="edge">
<title>Node1&#45;&gt;Node22</title>
<path fill="none" stroke="black" d="M52.76,-503.19C61.69,-564.16 91.71,-748.17 134,-788.5 139.67,-793.9 146.59,-797.82 153.97,-800.63"/>
<polygon fill="black" stroke="black" points="56.18,-502.41 51.3,-493.01 49.25,-503.4 56.18,-502.41"/>
</g>
<!-- Node20 -->
<g id="node8" class="node">
<title>Node20</title>
<g id="a_node8"><a xlink:href="../../dc/db1/group__A__PID__FUZZY.html" target="_top" xlink:title=" ">
<polygon fill="white" stroke="black" points="270,-779 160,-779 160,-738 270,-738 270,-779"/>
<text text-anchor="start" x="168" y="-767" font-family="Helvetica,sans-Serif" font-size="10.00">fuzzy proportional</text>
<text text-anchor="start" x="168" y="-756" font-family="Helvetica,sans-Serif" font-size="10.00"> integral derivative</text>
<text text-anchor="middle" x="215" y="-745" font-family="Helvetica,sans-Serif" font-size="10.00"> controller</text>
</a>
</g>
</g>
<!-- Node1&#45;&gt;Node20 -->
<g id="edge19" class="edge">
<title>Node1&#45;&gt;Node20</title>
<path fill="none" stroke="black" d="M51.12,-503.11C54.78,-549.01 70.18,-664.47 134,-729.5 141.14,-736.78 150.24,-742.24 159.73,-746.33"/>
<polygon fill="black" stroke="black" points="54.6,-502.74 50.42,-493.01 47.62,-503.23 54.6,-502.74"/>
</g>
<!-- Node12 -->
<g id="node9" class="node">
<title>Node12</title>
<g id="a_node9"><a xlink:href="../../d8/de5/group__A__LIST.html" target="_top" xlink:title=" ">
<polygon fill="white" stroke="black" points="284.5,-720 145.5,-720 145.5,-701 284.5,-701 284.5,-720"/>
<text text-anchor="middle" x="215" y="-708" font-family="Helvetica,sans-Serif" font-size="10.00">circular doubly linked list</text>
</a>
</g>
</g>
<!-- Node1&#45;&gt;Node12 -->
<g id="edge11" class="edge">
<title>Node1&#45;&gt;Node12</title>
<path fill="none" stroke="black" d="M51.91,-503.19C57.05,-544.88 75.07,-642.36 134,-692.5 137.9,-695.82 142.29,-698.56 146.95,-700.83"/>
<polygon fill="black" stroke="black" points="55.39,-502.76 50.8,-493.2 48.43,-503.53 55.39,-502.76"/>
</g>
<!-- Node5 -->
<g id="node10" class="node">
<title>Node5</title>
<g id="a_node10"><a xlink:href="../../d6/dbb/group__A__COMPLEX.html" target="_top" xlink:title=" ">
<polygon fill="white" stroke="black" points="264.5,-683 165.5,-683 165.5,-664 264.5,-664 264.5,-683"/>
<text text-anchor="middle" x="215" y="-671" font-family="Helvetica,sans-Serif" font-size="10.00">complex number</text>
</a>
</g>
</g>
<!-- Node1&#45;&gt;Node5 -->
<g id="edge4" class="edge">
<title>Node1&#45;&gt;Node5</title>
<path fill="none" stroke="black" d="M53.91,-503.18C62.1,-539.06 84.55,-615.03 134,-654.5 142.93,-661.62 154.08,-666.15 165.21,-669.01"/>
<polygon fill="black" stroke="black" points="57.25,-502.09 51.73,-493.04 50.41,-503.55 57.25,-502.09"/>
</g>
<!-- Node14 -->
<g id="node11" class="node">
<title>Node14</title>
<g id="a_node11"><a xlink:href="../../d1/d82/group__A__MATH.html" target="_top" xlink:title=" ">
<polygon fill="white" stroke="black" points="282.5,-645.5 147.5,-645.5 147.5,-615.5 282.5,-615.5 282.5,-645.5"/>
<text text-anchor="start" x="155.5" y="-633.5" font-family="Helvetica,sans-Serif" font-size="10.00">mathematical algorithm</text>
<text text-anchor="middle" x="215" y="-622.5" font-family="Helvetica,sans-Serif" font-size="10.00"> library</text>
</a>
</g>
</g>
<!-- Node1&#45;&gt;Node14 -->
<g id="edge13" class="edge">
<title>Node1&#45;&gt;Node14</title>
<path fill="none" stroke="black" d="M57.88,-502.32C70.16,-529.37 96.43,-579.02 134,-606.5 138.68,-609.92 143.85,-612.86 149.25,-615.39"/>
<polygon fill="black" stroke="black" points="61.08,-500.9 53.86,-493.15 54.67,-503.71 61.08,-500.9"/>
</g>
<!-- Node25 -->
<g id="node12" class="node">
<title>Node25</title>
<g id="a_node12"><a xlink:href="../../d0/ddd/group__A__TF.html" target="_top" xlink:title=" ">
<polygon fill="white" stroke="black" points="264,-597 166,-597 166,-578 264,-578 264,-597"/>
<text text-anchor="middle" x="215" y="-585" font-family="Helvetica,sans-Serif" font-size="10.00">transfer function</text>
</a>
</g>
</g>
<!-- Node1&#45;&gt;Node25 -->
<g id="edge24" class="edge">
<title>Node1&#45;&gt;Node25</title>
<path fill="none" stroke="black" d="M62.5,-501.47C77.25,-521.28 103.66,-552.56 134,-569.5 143.7,-574.91 154.91,-578.7 165.82,-581.35"/>
<polygon fill="black" stroke="black" points="65.26,-499.32 56.56,-493.27 59.59,-503.43 65.26,-499.32"/>
</g>
<!-- Node3 -->
<g id="node13" class="node">
<title>Node3</title>
<g id="a_node13"><a xlink:href="../../d6/d8f/group__A__AVL.html" target="_top" xlink:title=" ">
<polygon fill="white" stroke="black" points="278,-560 152,-560 152,-541 278,-541 278,-560"/>
<text text-anchor="middle" x="215" y="-548" font-family="Helvetica,sans-Serif" font-size="10.00">AVL binary search tree</text>
</a>
</g>
</g>
<!-- Node1&#45;&gt;Node3 -->
<g id="edge2" class="edge">
<title>Node1&#45;&gt;Node3</title>
<path fill="none" stroke="black" d="M72.32,-498.61C88.76,-509.14 111.99,-522.81 134,-531.5 143.43,-535.22 153.78,-538.34 163.82,-540.91"/>
<polygon fill="black" stroke="black" points="74.23,-495.67 63.94,-493.13 70.4,-501.53 74.23,-495.67"/>
</g>
<!-- Node23 -->
<g id="node14" class="node">
<title>Node23</title>
<g id="a_node14"><a xlink:href="../../d7/d06/group__A__RBT.html" target="_top" xlink:title=" ">
<polygon fill="white" stroke="black" points="264,-522.5 166,-522.5 166,-492.5 264,-492.5 264,-522.5"/>
<text text-anchor="start" x="174" y="-510.5" font-family="Helvetica,sans-Serif" font-size="10.00">red–black binary</text>
<text text-anchor="middle" x="215" y="-499.5" font-family="Helvetica,sans-Serif" font-size="10.00"> search tree</text>
</a>
</g>
</g>
<!-- Node1&#45;&gt;Node23 -->
<g id="edge22" class="edge">
<title>Node1&#45;&gt;Node23</title>
<path fill="none" stroke="black" d="M108.26,-492.03C127.08,-494.78 147.73,-497.8 165.74,-500.44"/>
<polygon fill="black" stroke="black" points="108.72,-488.56 98.32,-490.57 107.71,-495.48 108.72,-488.56"/>
</g>
<!-- Node26 -->
<g id="node15" class="node">
<title>Node26</title>
<g id="a_node15"><a xlink:href="../../d9/da8/group__A__UTF.html" target="_top" xlink:title=" ">
<polygon fill="white" stroke="black" points="281.5,-474.5 148.5,-474.5 148.5,-444.5 281.5,-444.5 281.5,-474.5"/>
<text text-anchor="start" x="156.5" y="-462.5" font-family="Helvetica,sans-Serif" font-size="10.00">Unicode Transformation</text>
<text text-anchor="middle" x="215" y="-451.5" font-family="Helvetica,sans-Serif" font-size="10.00"> Format</text>
</a>
</g>
</g>
<!-- Node1&#45;&gt;Node26 -->
<g id="edge25" class="edge">
<title>Node1&#45;&gt;Node26</title>
<path fill="none" stroke="black" d="M108.48,-474.94C121.42,-473.05 135.2,-471.03 148.4,-469.1"/>
<polygon fill="black" stroke="black" points="107.71,-471.52 98.32,-476.43 108.72,-478.44 107.71,-471.52"/>
</g>
<!-- Node7 -->
<g id="node16" class="node">
<title>Node7</title>
<g id="a_node16"><a xlink:href="../../df/d54/group__A__QUE.html" target="_top" xlink:title=" ">
<polygon fill="white" stroke="black" points="270,-426 160,-426 160,-407 270,-407 270,-426"/>
<text text-anchor="middle" x="215" y="-414" font-family="Helvetica,sans-Serif" font-size="10.00">basic queue library</text>
</a>
</g>
</g>
<!-- Node1&#45;&gt;Node7 -->
<g id="edge6" class="edge">
<title>Node1&#45;&gt;Node7</title>
<path fill="none" stroke="black" d="M72.32,-468.39C88.76,-457.86 111.99,-444.19 134,-435.5 143.43,-431.78 153.78,-428.66 163.82,-426.09"/>
<polygon fill="black" stroke="black" points="70.4,-465.47 63.94,-473.87 74.23,-471.33 70.4,-465.47"/>
</g>
<!-- Node9 -->
<g id="node17" class="node">
<title>Node9</title>
<g id="a_node17"><a xlink:href="../../da/d05/group__A__VEC.html" target="_top" xlink:title=" ">
<polygon fill="white" stroke="black" points="270,-389 160,-389 160,-370 270,-370 270,-389"/>
<text text-anchor="middle" x="215" y="-377" font-family="Helvetica,sans-Serif" font-size="10.00">basic vector library</text>
</a>
</g>
</g>
<!-- Node1&#45;&gt;Node9 -->
<g id="edge8" class="edge">
<title>Node1&#45;&gt;Node9</title>
<path fill="none" stroke="black" d="M62.58,-465.8C77.41,-446.29 103.89,-415.43 134,-398.5 141.96,-394.02 150.95,-390.6 159.94,-387.97"/>
<polygon fill="black" stroke="black" points="59.74,-463.76 56.61,-473.88 65.37,-467.92 59.74,-463.76"/>
</g>
<!-- Node4 -->
<g id="node18" class="node">
<title>Node4</title>
<g id="a_node18"><a xlink:href="../../d0/df8/group__A__BUF.html" target="_top" xlink:title=" ">
<polygon fill="white" stroke="black" points="269,-352 161,-352 161,-333 269,-333 269,-352"/>
<text text-anchor="middle" x="215" y="-340" font-family="Helvetica,sans-Serif" font-size="10.00">basic buffer library</text>
</a>
</g>
</g>
<!-- Node1&#45;&gt;Node4 -->
<g id="edge3" class="edge">
<title>Node1&#45;&gt;Node4</title>
<path fill="none" stroke="black" d="M57.72,-464.54C69.8,-437.35 95.81,-387.66 134,-361.5 142.01,-356.01 151.41,-352.1 160.89,-349.32"/>
<polygon fill="black" stroke="black" points="54.48,-463.2 53.77,-473.77 60.92,-465.95 54.48,-463.2"/>
</g>
<!-- Node27 -->
<g id="node19" class="node">
<title>Node27</title>
<g id="a_node19"><a xlink:href="../../d2/d1b/group__A__VERSION.html" target="_top" xlink:title=" ">
<polygon fill="white" stroke="black" points="283.5,-315 146.5,-315 146.5,-296 283.5,-296 283.5,-315"/>
<text text-anchor="middle" x="215" y="-303" font-family="Helvetica,sans-Serif" font-size="10.00">algorithm library version</text>
</a>
</g>
</g>
<!-- Node1&#45;&gt;Node27 -->
<g id="edge26" class="edge">
<title>Node1&#45;&gt;Node27</title>
<path fill="none" stroke="black" d="M54.71,-463.78C63.88,-429.83 87.43,-360.57 134,-324.5 138.97,-320.65 144.59,-317.57 150.49,-315.1"/>
<polygon fill="black" stroke="black" points="51.23,-463.28 52.14,-473.83 58.01,-465.01 51.23,-463.28"/>
</g>
<!-- Node6 -->
<g id="node20" class="node">
<title>Node6</title>
<g id="a_node20"><a xlink:href="../../d6/d0a/group__A__FUZZY.html" target="_top" xlink:title=" ">
<polygon fill="white" stroke="black" points="258.5,-278 171.5,-278 171.5,-259 258.5,-259 258.5,-278"/>
<text text-anchor="middle" x="215" y="-266" font-family="Helvetica,sans-Serif" font-size="10.00">fuzzy operator</text>
</a>
</g>
</g>
<!-- Node1&#45;&gt;Node6 -->
<g id="edge5" class="edge">
<title>Node1&#45;&gt;Node6</title>
<path fill="none" stroke="black" d="M52.52,-464.01C58.72,-424.39 78.45,-334.24 134,-287.5 144.38,-278.77 158.07,-273.9 171.19,-271.23"/>
<polygon fill="black" stroke="black" points="49.05,-463.58 51.09,-473.97 55.98,-464.57 49.05,-463.58"/>
</g>
<!-- Node18 -->
<g id="node21" class="node">
<title>Node18</title>
<g id="a_node21"><a xlink:href="../../dd/d76/group__A__OPERATOR.html" target="_top" xlink:title=" ">
<polygon fill="white" stroke="black" points="289,-241 141,-241 141,-222 289,-222 289,-241"/>
<text text-anchor="middle" x="215" y="-229" font-family="Helvetica,sans-Serif" font-size="10.00">algorithm library operators</text>
</a>
</g>
</g>
<!-- Node1&#45;&gt;Node18 -->
<g id="edge17" class="edge">
<title>Node1&#45;&gt;Node18</title>
<path fill="none" stroke="black" d="M51.06,-463.52C54.59,-418.37 69.68,-307.94 134,-250.5 138.26,-246.7 143.14,-243.62 148.34,-241.13"/>
<polygon fill="black" stroke="black" points="47.55,-463.54 50.38,-473.75 54.54,-464 47.55,-463.54"/>
</g>
<!-- Node16 -->
<g id="node22" class="node">
<title>Node16</title>
<g id="a_node22"><a xlink:href="../../db/ddc/group__A__NOTEFREQ.html" target="_top" xlink:title=" ">
<polygon fill="white" stroke="black" points="274,-204 156,-204 156,-185 274,-185 274,-204"/>
<text text-anchor="middle" x="215" y="-192" font-family="Helvetica,sans-Serif" font-size="10.00">note frequency table</text>
</a>
</g>
</g>
<!-- Node1&#45;&gt;Node16 -->
<g id="edge15" class="edge">
<title>Node1&#45;&gt;Node16</title>
<path fill="none" stroke="black" d="M49.92,-463.82C50.83,-414.04 60.44,-282.19 134,-213.5 140.16,-207.75 147.72,-203.64 155.73,-200.73"/>
<polygon fill="black" stroke="black" points="46.41,-463.86 49.83,-473.89 53.41,-463.92 46.41,-463.86"/>
</g>
<!-- Node17 -->
<g id="node23" class="node">
<title>Node17</title>
<g id="a_node23"><a xlink:href="../../df/db1/group__A__OOP.html" target="_top" xlink:title=" ">
<polygon fill="white" stroke="black" points="296,-167 134,-167 134,-148 296,-148 296,-167"/>
<text text-anchor="middle" x="215" y="-155" font-family="Helvetica,sans-Serif" font-size="10.00">Object Oriented Programming</text>
</a>
</g>
</g>
<!-- Node1&#45;&gt;Node17 -->
<g id="edge16" class="edge">
<title>Node1&#45;&gt;Node17</title>
<path fill="none" stroke="black" d="M52.76,-463.7C61.69,-402.4 91.73,-217.36 134,-176.5 137.9,-172.73 142.41,-169.66 147.25,-167.17"/>
<polygon fill="black" stroke="black" points="49.25,-463.55 51.3,-473.94 56.18,-464.54 49.25,-463.55"/>
</g>
<!-- Node10 -->
<g id="node24" class="node">
<title>Node10</title>
<g id="a_node24"><a xlink:href="../../da/df8/group__A__VECTOR.html" target="_top" xlink:title=" ">
<polygon fill="white" stroke="black" points="270,-130 160,-130 160,-111 270,-111 270,-130"/>
<text text-anchor="middle" x="215" y="-118" font-family="Helvetica,sans-Serif" font-size="10.00">basic vector library</text>
</a>
</g>
</g>
<!-- Node1&#45;&gt;Node10 -->
<g id="edge9" class="edge">
<title>Node1&#45;&gt;Node10</title>
<path fill="none" stroke="black" d="M52.16,-463.52C59.71,-397.23 87.1,-186.1 134,-139.5 141.09,-132.46 150.28,-127.84 159.9,-124.86"/>
<polygon fill="black" stroke="black" points="48.64,-463.5 51.01,-473.83 55.59,-464.28 48.64,-463.5"/>
</g>
<!-- Node8 -->
<g id="node25" class="node">
<title>Node8</title>
<g id="a_node25"><a xlink:href="../../db/d6c/group__A__STR.html" target="_top" xlink:title=" ">
<polygon fill="white" stroke="black" points="268.5,-93 161.5,-93 161.5,-74 268.5,-74 268.5,-93"/>
<text text-anchor="middle" x="215" y="-81" font-family="Helvetica,sans-Serif" font-size="10.00">basic string library</text>
</a>
</g>
</g>
<!-- Node1&#45;&gt;Node8 -->
<g id="edge7" class="edge">
<title>Node1&#45;&gt;Node8</title>
<path fill="none" stroke="black" d="M51.63,-463.7C57.85,-393.09 82.36,-154.98 134,-102.5 141.41,-94.97 151.22,-90.21 161.42,-87.24"/>
<polygon fill="black" stroke="black" points="48.13,-463.62 50.76,-473.88 55.1,-464.21 48.13,-463.62"/>
</g>
<!-- Node2 -->
<g id="node26" class="node">
<title>Node2</title>
<g id="a_node26"><a xlink:href="../../d5/da3/group__A__FLOAT.html" target="_top" xlink:title=" ">
<polygon fill="white" stroke="black" points="276,-56 154,-56 154,-37 276,-37 276,-56"/>
<text text-anchor="middle" x="215" y="-44" font-family="Helvetica,sans-Serif" font-size="10.00">floating&#45;point number</text>
</a>
</g>
</g>
<!-- Node1&#45;&gt;Node2 -->
<g id="edge1" class="edge">
<title>Node1&#45;&gt;Node2</title>
<path fill="none" stroke="black" d="M51.24,-463.27C56.29,-387.76 77.75,-123.75 134,-65.5 139.55,-59.75 146.51,-55.61 153.98,-52.64"/>
<polygon fill="black" stroke="black" points="47.72,-463.51 50.57,-473.71 54.71,-463.96 47.72,-463.51"/>
</g>
<!-- Node21 -->
<g id="node27" class="node">
<title>Node21</title>
<g id="a_node27"><a xlink:href="../../d6/de7/group__A__POLY.html" target="_top" xlink:title=" ">
<polygon fill="white" stroke="black" points="250.5,-19 179.5,-19 179.5,0 250.5,0 250.5,-19"/>
<text text-anchor="middle" x="215" y="-7" font-family="Helvetica,sans-Serif" font-size="10.00">polynomial</text>
</a>
</g>
</g>
<!-- Node1&#45;&gt;Node21 -->
<g id="edge20" class="edge">
<title>Node1&#45;&gt;Node21</title>
<path fill="none" stroke="black" d="M50.87,-463.54C54.73,-384.25 72.94,-92.73 134,-28.5 145.61,-16.29 163.51,-11.3 179.44,-9.47"/>
<polygon fill="black" stroke="black" points="47.37,-463.5 50.4,-473.65 54.36,-463.82 47.37,-463.5"/>
</g>
</g>
</svg>
