<?xml version="1.0" encoding="UTF-8" standalone="no"?>
<!DOCTYPE svg PUBLIC "-//W3C//DTD SVG 1.1//EN"
 "http://www.w3.org/Graphics/SVG/1.1/DTD/svg11.dtd">
<!-- Generated by graphviz version 2.43.0 (0)
 -->
<!-- Title: algorithm library Pages: 1 -->
<svg width="301pt" height="1180pt"
 viewBox="0.00 0.00 301.00 1180.00" xmlns="http://www.w3.org/2000/svg" xmlns:xlink="http://www.w3.org/1999/xlink">
<g id="graph0" class="graph" transform="scale(1 1) rotate(0) translate(4 1176)">
<title>algorithm library</title>
<!-- Node1 -->
<g id="Node000001" class="node">
<title>Node1</title>
<g id="a_Node000001"><a xlink:title=" ">
<polygon fill="#999999" stroke="#666666" points="98,-602 0,-602 0,-583 98,-583 98,-602"/>
<text text-anchor="middle" x="49" y="-590" font-family="Helvetica,sans-Serif" font-size="10.00">algorithm library</text>
</a>
</g>
</g>
<!-- Node3 -->
<g id="Node000003" class="node">
<title>Node3</title>
<g id="a_Node000003"><a xlink:href="../../d6/d8f/group__A__AVL.html" target="_top" xlink:title=" ">
<polygon fill="white" stroke="#666666" points="276.5,-1172 150.5,-1172 150.5,-1153 276.5,-1153 276.5,-1172"/>
<text text-anchor="middle" x="213.5" y="-1160" font-family="Helvetica,sans-Serif" font-size="10.00">AVL binary search tree</text>
</a>
</g>
</g>
<!-- Node1&#45;&gt;Node3 -->
<g id="edge2" class="edge">
<title>Node1&#45;&gt;Node3</title>
<path fill="none" stroke="black" d="M50.14,-612.28C51.21,-701.42 60.08,-1064.87 134,-1144.5 138.57,-1149.42 144.18,-1153.13 150.29,-1155.9"/>
<polygon fill="black" stroke="black" points="53.64,-612.15 50.04,-602.19 46.64,-612.22 53.64,-612.15"/>
</g>
<!-- Node4 -->
<g id="Node000004" class="node">
<title>Node4</title>
<g id="a_Node000004"><a xlink:href="../../d0/df8/group__A__BUF.html" target="_top" xlink:title=" ">
<polygon fill="white" stroke="#666666" points="267.5,-1135 159.5,-1135 159.5,-1116 267.5,-1116 267.5,-1135"/>
<text text-anchor="middle" x="213.5" y="-1123" font-family="Helvetica,sans-Serif" font-size="10.00">basic buffer library</text>
</a>
</g>
</g>
<!-- Node1&#45;&gt;Node4 -->
<g id="edge3" class="edge">
<title>Node1&#45;&gt;Node4</title>
<path fill="none" stroke="black" d="M50.39,-612.57C52.47,-698.45 64.96,-1033.92 134,-1107.5 140.79,-1114.74 149.86,-1119.35 159.41,-1122.23"/>
<polygon fill="black" stroke="black" points="53.88,-612.28 50.16,-602.36 46.89,-612.44 53.88,-612.28"/>
</g>
<!-- Node5 -->
<g id="Node000005" class="node">
<title>Node5</title>
<g id="a_Node000005"><a xlink:href="../../d6/dbb/group__A__COMPLEX.html" target="_top" xlink:title=" ">
<polygon fill="white" stroke="#666666" points="263,-1098 164,-1098 164,-1079 263,-1079 263,-1098"/>
<text text-anchor="middle" x="213.5" y="-1086" font-family="Helvetica,sans-Serif" font-size="10.00">complex number</text>
</a>
</g>
</g>
<!-- Node1&#45;&gt;Node5 -->
<g id="edge4" class="edge">
<title>Node1&#45;&gt;Node5</title>
<path fill="none" stroke="black" d="M50.66,-612.41C53.78,-694.14 69.71,-1002.81 134,-1070.5 141.9,-1078.81 152.79,-1083.65 163.95,-1086.38"/>
<polygon fill="black" stroke="black" points="54.14,-611.92 50.29,-602.05 47.15,-612.17 54.14,-611.92"/>
</g>
<!-- Node2 -->
<g id="Node000002" class="node">
<title>Node2</title>
<g id="a_Node000002"><a xlink:href="../../d5/da3/group__A__FLOAT.html" target="_top" xlink:title=" ">
<polygon fill="white" stroke="#666666" points="274.5,-1061 152.5,-1061 152.5,-1042 274.5,-1042 274.5,-1061"/>
<text text-anchor="middle" x="213.5" y="-1049" font-family="Helvetica,sans-Serif" font-size="10.00">floating&#45;point number</text>
</a>
</g>
</g>
<!-- Node1&#45;&gt;Node2 -->
<g id="edge1" class="edge">
<title>Node1&#45;&gt;Node2</title>
<path fill="none" stroke="black" d="M50.98,-612.34C55.2,-689.94 74.46,-971.71 134,-1033.5 139.14,-1038.84 145.52,-1042.73 152.4,-1045.56"/>
<polygon fill="black" stroke="black" points="54.46,-611.86 50.44,-602.06 47.47,-612.23 54.46,-611.86"/>
</g>
<!-- Node6 -->
<g id="Node000006" class="node">
<title>Node6</title>
<g id="a_Node000006"><a xlink:href="../../d6/d0a/group__A__FUZZY.html" target="_top" xlink:title=" ">
<polygon fill="white" stroke="#666666" points="257,-1024 170,-1024 170,-1005 257,-1005 257,-1024"/>
<text text-anchor="middle" x="213.5" y="-1012" font-family="Helvetica,sans-Serif" font-size="10.00">fuzzy operator</text>
</a>
</g>
</g>
<!-- Node1&#45;&gt;Node6 -->
<g id="edge5" class="edge">
<title>Node1&#45;&gt;Node6</title>
<path fill="none" stroke="black" d="M51.37,-612.55C56.8,-686.23 79.27,-940.64 134,-996.5 143.39,-1006.09 156.78,-1011.02 169.85,-1013.43"/>
<polygon fill="black" stroke="black" points="54.84,-612.06 50.64,-602.33 47.86,-612.56 54.84,-612.06"/>
</g>
<!-- Node7 -->
<g id="Node000007" class="node">
<title>Node7</title>
<g id="a_Node000007"><a xlink:href="../../dd/d71/group__A__HPF.html" target="_top" xlink:title=" ">
<polygon fill="white" stroke="#666666" points="259.5,-987 167.5,-987 167.5,-968 259.5,-968 259.5,-987"/>
<text text-anchor="middle" x="213.5" y="-975" font-family="Helvetica,sans-Serif" font-size="10.00">High Pass Filter</text>
</a>
</g>
</g>
<!-- Node1&#45;&gt;Node7 -->
<g id="edge6" class="edge">
<title>Node1&#45;&gt;Node7</title>
<path fill="none" stroke="black" d="M51.81,-612.46C58.49,-681.62 83.98,-909.46 134,-959.5 142.8,-968.3 154.97,-973.16 167.1,-975.75"/>
<polygon fill="black" stroke="black" points="55.26,-611.75 50.84,-602.12 48.29,-612.4 55.26,-611.75"/>
</g>
<!-- Node8 -->
<g id="Node000008" class="node">
<title>Node8</title>
<g id="a_Node000008"><a xlink:href="../../d8/de5/group__A__LIST.html" target="_top" xlink:title=" ">
<polygon fill="white" stroke="#666666" points="283,-950 144,-950 144,-931 283,-931 283,-950"/>
<text text-anchor="middle" x="213.5" y="-938" font-family="Helvetica,sans-Serif" font-size="10.00">circular doubly linked list</text>
</a>
</g>
</g>
<!-- Node1&#45;&gt;Node8 -->
<g id="edge7" class="edge">
<title>Node1&#45;&gt;Node8</title>
<path fill="none" stroke="black" d="M52.32,-612.11C60.29,-676.24 88.61,-878.18 134,-922.5 137.4,-925.82 141.28,-928.58 145.46,-930.86"/>
<polygon fill="black" stroke="black" points="55.78,-611.62 51.1,-602.11 48.83,-612.46 55.78,-611.62"/>
</g>
<!-- Node9 -->
<g id="Node000009" class="node">
<title>Node9</title>
<g id="a_Node000009"><a xlink:href="../../df/d27/group__A__LPF.html" target="_top" xlink:title=" ">
<polygon fill="white" stroke="#666666" points="258,-913 169,-913 169,-894 258,-894 258,-913"/>
<text text-anchor="middle" x="213.5" y="-901" font-family="Helvetica,sans-Serif" font-size="10.00">Low Pass Filter</text>
</a>
</g>
</g>
<!-- Node1&#45;&gt;Node9 -->
<g id="edge8" class="edge">
<title>Node1&#45;&gt;Node9</title>
<path fill="none" stroke="black" d="M49.39,-612.3C48.91,-664.86 55.22,-809 134,-884.5 143.31,-893.43 156.07,-898.39 168.6,-901.09"/>
<polygon fill="black" stroke="black" points="52.89,-612.09 49.59,-602.02 45.89,-611.95 52.89,-612.09"/>
</g>
<!-- Node10 -->
<g id="Node000010" class="node">
<title>Node10</title>
<g id="a_Node000010"><a xlink:href="../../d1/d82/group__A__MATH.html" target="_top" xlink:title=" ">
<polygon fill="white" stroke="#666666" points="281,-875.5 146,-875.5 146,-845.5 281,-845.5 281,-875.5"/>
<text text-anchor="start" x="154" y="-863.5" font-family="Helvetica,sans-Serif" font-size="10.00">mathematical algorithm</text>
<text text-anchor="middle" x="213.5" y="-852.5" font-family="Helvetica,sans-Serif" font-size="10.00"> library</text>
</a>
</g>
</g>
<!-- Node1&#45;&gt;Node10 -->
<g id="edge9" class="edge">
<title>Node1&#45;&gt;Node10</title>
<path fill="none" stroke="black" d="M50.95,-612.17C54.25,-658.18 68.94,-773.67 134,-836.5 137.59,-839.97 141.66,-842.93 146.02,-845.47"/>
<polygon fill="black" stroke="black" points="54.44,-611.81 50.33,-602.05 47.45,-612.24 54.44,-611.81"/>
</g>
<!-- Node11 -->
<g id="Node000011" class="node">
<title>Node11</title>
<g id="a_Node000011"><a xlink:href="../../dd/d37/group__A__MF.html" target="_top" xlink:title=" ">
<polygon fill="white" stroke="#666666" points="274,-827 153,-827 153,-808 274,-808 274,-827"/>
<text text-anchor="middle" x="213.5" y="-815" font-family="Helvetica,sans-Serif" font-size="10.00">membership function</text>
</a>
</g>
</g>
<!-- Node1&#45;&gt;Node11 -->
<g id="edge10" class="edge">
<title>Node1&#45;&gt;Node11</title>
<path fill="none" stroke="black" d="M52.02,-612.25C57.36,-653.66 75.7,-749.86 134,-799.5 139.54,-804.21 146.06,-807.76 152.95,-810.41"/>
<polygon fill="black" stroke="black" points="55.48,-611.63 50.84,-602.1 48.52,-612.44 55.48,-611.63"/>
</g>
<!-- Node12 -->
<g id="Node000012" class="node">
<title>Node12</title>
<g id="a_Node000012"><a xlink:href="../../db/ddc/group__A__NOTEFREQ.html" target="_top" xlink:title=" ">
<polygon fill="white" stroke="#666666" points="272.5,-790 154.5,-790 154.5,-771 272.5,-771 272.5,-790"/>
<text text-anchor="middle" x="213.5" y="-778" font-family="Helvetica,sans-Serif" font-size="10.00">note frequency table</text>
</a>
</g>
</g>
<!-- Node1&#45;&gt;Node12 -->
<g id="edge11" class="edge">
<title>Node1&#45;&gt;Node12</title>
<path fill="none" stroke="black" d="M53.92,-612.11C62.12,-647.84 84.59,-723.46 134,-762.5 140.03,-767.27 147.1,-770.82 154.47,-773.45"/>
<polygon fill="black" stroke="black" points="57.27,-611.04 51.74,-602.01 50.42,-612.52 57.27,-611.04"/>
</g>
<!-- Node13 -->
<g id="Node000013" class="node">
<title>Node13</title>
<g id="a_Node000013"><a xlink:href="../../dd/d76/group__A__OPERATOR.html" target="_top" xlink:title=" ">
<polygon fill="white" stroke="#666666" points="287.5,-753 139.5,-753 139.5,-734 287.5,-734 287.5,-753"/>
<text text-anchor="middle" x="213.5" y="-741" font-family="Helvetica,sans-Serif" font-size="10.00">algorithm library operators</text>
</a>
</g>
</g>
<!-- Node1&#45;&gt;Node13 -->
<g id="edge12" class="edge">
<title>Node1&#45;&gt;Node13</title>
<path fill="none" stroke="black" d="M56.81,-611.73C68.13,-640.81 93.66,-695.65 134,-724.5 139.36,-728.33 145.4,-731.4 151.69,-733.85"/>
<polygon fill="black" stroke="black" points="60.06,-610.42 53.28,-602.27 53.5,-612.87 60.06,-610.42"/>
</g>
<!-- Node14 -->
<g id="Node000014" class="node">
<title>Node14</title>
<g id="a_Node000014"><a xlink:href="../../d8/da8/group__A__PID.html" target="_top" xlink:title=" ">
<polygon fill="white" stroke="#666666" points="273,-715.5 154,-715.5 154,-685.5 273,-685.5 273,-715.5"/>
<text text-anchor="start" x="162" y="-703.5" font-family="Helvetica,sans-Serif" font-size="10.00">proportional integral</text>
<text text-anchor="middle" x="213.5" y="-692.5" font-family="Helvetica,sans-Serif" font-size="10.00"> derivative controller</text>
</a>
</g>
</g>
<!-- Node1&#45;&gt;Node14 -->
<g id="edge13" class="edge">
<title>Node1&#45;&gt;Node14</title>
<path fill="none" stroke="black" d="M63.27,-610.19C78.4,-629.19 104.85,-658.99 134,-676.5 140.11,-680.17 146.82,-683.32 153.68,-686.02"/>
<polygon fill="black" stroke="black" points="65.86,-607.82 56.97,-602.07 60.33,-612.12 65.86,-607.82"/>
</g>
<!-- Node15 -->
<g id="Node000015" class="node">
<title>Node15</title>
<g id="a_Node000015"><a xlink:href="../../dc/db1/group__A__PID__FUZZY.html" target="_top" xlink:title=" ">
<polygon fill="white" stroke="#666666" points="268.5,-667 158.5,-667 158.5,-626 268.5,-626 268.5,-667"/>
<text text-anchor="start" x="166.5" y="-655" font-family="Helvetica,sans-Serif" font-size="10.00">fuzzy proportional</text>
<text text-anchor="start" x="166.5" y="-644" font-family="Helvetica,sans-Serif" font-size="10.00"> integral derivative</text>
<text text-anchor="middle" x="213.5" y="-633" font-family="Helvetica,sans-Serif" font-size="10.00"> controller</text>
</a>
</g>
</g>
<!-- Node1&#45;&gt;Node15 -->
<g id="edge14" class="edge">
<title>Node1&#45;&gt;Node15</title>
<path fill="none" stroke="black" d="M88.44,-605.27C109.25,-612.19 135.31,-620.85 158.17,-628.45"/>
<polygon fill="black" stroke="black" points="89.27,-601.86 78.68,-602.03 87.06,-608.5 89.27,-601.86"/>
</g>
<!-- Node16 -->
<g id="Node000016" class="node">
<title>Node16</title>
<g id="a_Node000016"><a xlink:href="../../db/d33/group__A__PID__NEURO.html" target="_top" xlink:title=" ">
<polygon fill="white" stroke="#666666" points="293,-607.5 134,-607.5 134,-577.5 293,-577.5 293,-607.5"/>
<text text-anchor="start" x="142" y="-595.5" font-family="Helvetica,sans-Serif" font-size="10.00">single neuron proportional</text>
<text text-anchor="middle" x="213.5" y="-584.5" font-family="Helvetica,sans-Serif" font-size="10.00"> integral derivative controller</text>
</a>
</g>
</g>
<!-- Node1&#45;&gt;Node16 -->
<g id="edge15" class="edge">
<title>Node1&#45;&gt;Node16</title>
<path fill="none" stroke="black" d="M108.55,-592.5C116.8,-592.5 125.39,-592.5 133.93,-592.5"/>
<polygon fill="black" stroke="black" points="108.32,-589 98.32,-592.5 108.32,-596 108.32,-589"/>
</g>
<!-- Node17 -->
<g id="Node000017" class="node">
<title>Node17</title>
<g id="a_Node000017"><a xlink:href="../../d6/de7/group__A__POLY.html" target="_top" xlink:title=" ">
<polygon fill="white" stroke="#666666" points="249,-559 178,-559 178,-540 249,-540 249,-559"/>
<text text-anchor="middle" x="213.5" y="-547" font-family="Helvetica,sans-Serif" font-size="10.00">polynomial</text>
</a>
</g>
</g>
<!-- Node1&#45;&gt;Node17 -->
<g id="edge16" class="edge">
<title>Node1&#45;&gt;Node17</title>
<path fill="none" stroke="black" d="M92.11,-580.1C105.47,-576.27 120.33,-572.11 134,-568.5 148.24,-564.75 164,-560.87 177.64,-557.61"/>
<polygon fill="black" stroke="black" points="90.86,-576.82 82.23,-582.96 92.8,-583.55 90.86,-576.82"/>
</g>
<!-- Node18 -->
<g id="Node000018" class="node">
<title>Node18</title>
<g id="a_Node000018"><a xlink:href="../../df/d54/group__A__QUE.html" target="_top" xlink:title=" ">
<polygon fill="white" stroke="#666666" points="268.5,-522 158.5,-522 158.5,-503 268.5,-503 268.5,-522"/>
<text text-anchor="middle" x="213.5" y="-510" font-family="Helvetica,sans-Serif" font-size="10.00">basic queue library</text>
</a>
</g>
</g>
<!-- Node1&#45;&gt;Node18 -->
<g id="edge17" class="edge">
<title>Node1&#45;&gt;Node18</title>
<path fill="none" stroke="black" d="M67.88,-576.28C84.04,-562.45 109.06,-543.02 134,-531.5 142.27,-527.68 151.41,-524.57 160.43,-522.06"/>
<polygon fill="black" stroke="black" points="65.5,-573.72 60.28,-582.94 70.11,-578.98 65.5,-573.72"/>
</g>
<!-- Node19 -->
<g id="Node000019" class="node">
<title>Node19</title>
<g id="a_Node000019"><a xlink:href="../../d7/d06/group__A__RBT.html" target="_top" xlink:title=" ">
<polygon fill="white" stroke="#666666" points="262.5,-484.5 164.5,-484.5 164.5,-454.5 262.5,-454.5 262.5,-484.5"/>
<text text-anchor="start" x="172.5" y="-472.5" font-family="Helvetica,sans-Serif" font-size="10.00">red–black binary</text>
<text text-anchor="middle" x="213.5" y="-461.5" font-family="Helvetica,sans-Serif" font-size="10.00"> search tree</text>
</a>
</g>
</g>
<!-- Node1&#45;&gt;Node19 -->
<g id="edge18" class="edge">
<title>Node1&#45;&gt;Node19</title>
<path fill="none" stroke="black" d="M61.13,-574.16C75.39,-552.17 102.11,-515.63 134,-494.5 143.18,-488.42 153.94,-483.73 164.5,-480.15"/>
<polygon fill="black" stroke="black" points="58.02,-572.55 55.65,-582.87 63.94,-576.28 58.02,-572.55"/>
</g>
<!-- Node20 -->
<g id="Node000020" class="node">
<title>Node20</title>
<g id="a_Node000020"><a xlink:href="../../d1/dfe/group__A__SLIST.html" target="_top" xlink:title=" ">
<polygon fill="white" stroke="#666666" points="261.5,-436 165.5,-436 165.5,-417 261.5,-417 261.5,-436"/>
<text text-anchor="middle" x="213.5" y="-424" font-family="Helvetica,sans-Serif" font-size="10.00">singly linked list</text>
</a>
</g>
</g>
<!-- Node1&#45;&gt;Node20 -->
<g id="edge19" class="edge">
<title>Node1&#45;&gt;Node20</title>
<path fill="none" stroke="black" d="M55.59,-572.94C65.74,-541.11 90.28,-478.36 134,-445.5 143.08,-438.68 154.27,-434.27 165.33,-431.43"/>
<polygon fill="black" stroke="black" points="52.15,-572.22 52.6,-582.81 58.85,-574.26 52.15,-572.22"/>
</g>
<!-- Node21 -->
<g id="Node000021" class="node">
<title>Node21</title>
<g id="a_Node000021"><a xlink:href="../../db/d6c/group__A__STR.html" target="_top" xlink:title=" ">
<polygon fill="white" stroke="#666666" points="267,-399 160,-399 160,-380 267,-380 267,-399"/>
<text text-anchor="middle" x="213.5" y="-387" font-family="Helvetica,sans-Serif" font-size="10.00">basic string library</text>
</a>
</g>
</g>
<!-- Node1&#45;&gt;Node21 -->
<g id="edge20" class="edge">
<title>Node1&#45;&gt;Node21</title>
<path fill="none" stroke="black" d="M53.26,-572.41C60.52,-534.34 81.72,-451.65 134,-408.5 141.46,-402.34 150.6,-398.12 159.98,-395.24"/>
<polygon fill="black" stroke="black" points="49.73,-572.24 51.43,-582.7 56.63,-573.47 49.73,-572.24"/>
</g>
<!-- Node22 -->
<g id="Node000022" class="node">
<title>Node22</title>
<g id="a_Node000022"><a xlink:href="../../d0/ddd/group__A__TF.html" target="_top" xlink:title=" ">
<polygon fill="white" stroke="#666666" points="262.5,-362 164.5,-362 164.5,-343 262.5,-343 262.5,-362"/>
<text text-anchor="middle" x="213.5" y="-350" font-family="Helvetica,sans-Serif" font-size="10.00">transfer function</text>
</a>
</g>
</g>
<!-- Node1&#45;&gt;Node22 -->
<g id="edge21" class="edge">
<title>Node1&#45;&gt;Node22</title>
<path fill="none" stroke="black" d="M51.51,-572.67C55.92,-529.3 72.67,-425.57 134,-371.5 142.41,-364.08 153.24,-359.44 164.14,-356.57"/>
<polygon fill="black" stroke="black" points="48.01,-572.5 50.6,-582.78 54.99,-573.13 48.01,-572.5"/>
</g>
<!-- Node23 -->
<g id="Node000023" class="node">
<title>Node23</title>
<g id="a_Node000023"><a xlink:href="../../d6/d1e/group__A__TRAJBELL.html" target="_top" xlink:title=" ">
<polygon fill="white" stroke="#666666" points="271.5,-324.5 155.5,-324.5 155.5,-294.5 271.5,-294.5 271.5,-324.5"/>
<text text-anchor="start" x="163.5" y="-312.5" font-family="Helvetica,sans-Serif" font-size="10.00">bell&#45;shaped velocity</text>
<text text-anchor="middle" x="213.5" y="-301.5" font-family="Helvetica,sans-Serif" font-size="10.00"> trajectory</text>
</a>
</g>
</g>
<!-- Node1&#45;&gt;Node23 -->
<g id="edge22" class="edge">
<title>Node1&#45;&gt;Node23</title>
<path fill="none" stroke="black" d="M50.58,-572.74C53.06,-524.93 66.08,-401.98 134,-334.5 139.99,-328.55 147.38,-324.02 155.22,-320.56"/>
<polygon fill="black" stroke="black" points="47.07,-572.83 50.15,-582.96 54.07,-573.12 47.07,-572.83"/>
</g>
<!-- Node24 -->
<g id="Node000024" class="node">
<title>Node24</title>
<g id="a_Node000024"><a xlink:href="../../d3/d9f/group__A__TRAJPOLY3.html" target="_top" xlink:title=" ">
<polygon fill="white" stroke="#666666" points="288.5,-276 138.5,-276 138.5,-257 288.5,-257 288.5,-276"/>
<text text-anchor="middle" x="213.5" y="-264" font-family="Helvetica,sans-Serif" font-size="10.00">cubic polynomial trajectory</text>
</a>
</g>
</g>
<!-- Node1&#45;&gt;Node24 -->
<g id="edge23" class="edge">
<title>Node1&#45;&gt;Node24</title>
<path fill="none" stroke="black" d="M52.77,-572.71C61.72,-511.43 91.82,-326.45 134,-285.5 137.92,-281.69 142.47,-278.6 147.37,-276.1"/>
<polygon fill="black" stroke="black" points="49.25,-572.55 51.3,-582.95 56.18,-573.54 49.25,-572.55"/>
</g>
<!-- Node25 -->
<g id="Node000025" class="node">
<title>Node25</title>
<g id="a_Node000025"><a xlink:href="../../d2/d61/group__A__TRAJPOLY5.html" target="_top" xlink:title=" ">
<polygon fill="white" stroke="#666666" points="267,-238.5 160,-238.5 160,-208.5 267,-208.5 267,-238.5"/>
<text text-anchor="start" x="168" y="-226.5" font-family="Helvetica,sans-Serif" font-size="10.00">quintic polynomial</text>
<text text-anchor="middle" x="213.5" y="-215.5" font-family="Helvetica,sans-Serif" font-size="10.00"> trajectory</text>
</a>
</g>
</g>
<!-- Node1&#45;&gt;Node25 -->
<g id="edge24" class="edge">
<title>Node1&#45;&gt;Node25</title>
<path fill="none" stroke="black" d="M52.29,-572.65C60.28,-506.78 88.89,-296.83 134,-248.5 140.93,-241.08 150.05,-235.85 159.62,-232.17"/>
<polygon fill="black" stroke="black" points="48.78,-572.55 51.08,-582.89 55.73,-573.38 48.78,-572.55"/>
</g>
<!-- Node26 -->
<g id="Node000026" class="node">
<title>Node26</title>
<g id="a_Node000026"><a xlink:href="../../d9/dab/group__A__TRAJPOLY7.html" target="_top" xlink:title=" ">
<polygon fill="white" stroke="#666666" points="289.5,-190 137.5,-190 137.5,-171 289.5,-171 289.5,-190"/>
<text text-anchor="middle" x="213.5" y="-178" font-family="Helvetica,sans-Serif" font-size="10.00">hepta polynomial trajectory</text>
</a>
</g>
</g>
<!-- Node1&#45;&gt;Node26 -->
<g id="edge25" class="edge">
<title>Node1&#45;&gt;Node26</title>
<path fill="none" stroke="black" d="M51.51,-572.57C57.37,-500.37 80.98,-253.96 134,-199.5 137.72,-195.68 142.06,-192.58 146.76,-190.06"/>
<polygon fill="black" stroke="black" points="47.99,-572.7 50.69,-582.94 54.96,-573.25 47.99,-572.7"/>
</g>
<!-- Node27 -->
<g id="Node000027" class="node">
<title>Node27</title>
<g id="a_Node000027"><a xlink:href="../../d7/d57/group__A__TRAJTRAP.html" target="_top" xlink:title=" ">
<polygon fill="white" stroke="#666666" points="270,-152.5 157,-152.5 157,-122.5 270,-122.5 270,-152.5"/>
<text text-anchor="start" x="165" y="-140.5" font-family="Helvetica,sans-Serif" font-size="10.00">trapezoidal velocity</text>
<text text-anchor="middle" x="213.5" y="-129.5" font-family="Helvetica,sans-Serif" font-size="10.00"> trajectory</text>
</a>
</g>
</g>
<!-- Node1&#45;&gt;Node27 -->
<g id="edge26" class="edge">
<title>Node1&#45;&gt;Node27</title>
<path fill="none" stroke="black" d="M51.23,-572.8C56.37,-496.95 78.42,-224.9 134,-162.5 140.18,-155.56 148.29,-150.53 156.94,-146.89"/>
<polygon fill="black" stroke="black" points="47.74,-572.67 50.57,-582.88 54.72,-573.13 47.74,-572.67"/>
</g>
<!-- Node28 -->
<g id="Node000028" class="node">
<title>Node28</title>
<g id="a_Node000028"><a xlink:href="../../d9/da8/group__A__UTF.html" target="_top" xlink:title=" ">
<polygon fill="white" stroke="#666666" points="280,-104.5 147,-104.5 147,-74.5 280,-74.5 280,-104.5"/>
<text text-anchor="start" x="155" y="-92.5" font-family="Helvetica,sans-Serif" font-size="10.00">Unicode Transformation</text>
<text text-anchor="middle" x="213.5" y="-81.5" font-family="Helvetica,sans-Serif" font-size="10.00"> Format</text>
</a>
</g>
</g>
<!-- Node1&#45;&gt;Node28 -->
<g id="edge27" class="edge">
<title>Node1&#45;&gt;Node28</title>
<path fill="none" stroke="black" d="M50.79,-572.68C54.41,-491.26 72.05,-183.59 134,-113.5 137.68,-109.34 142.06,-105.88 146.84,-103.02"/>
<polygon fill="black" stroke="black" points="47.28,-572.85 50.35,-582.99 54.27,-573.15 47.28,-572.85"/>
</g>
<!-- Node29 -->
<g id="Node000029" class="node">
<title>Node29</title>
<g id="a_Node000029"><a xlink:href="../../da/d05/group__A__VEC.html" target="_top" xlink:title=" ">
<polygon fill="white" stroke="#666666" points="268.5,-56 158.5,-56 158.5,-37 268.5,-37 268.5,-56"/>
<text text-anchor="middle" x="213.5" y="-44" font-family="Helvetica,sans-Serif" font-size="10.00">basic vector library</text>
</a>
</g>
</g>
<!-- Node1&#45;&gt;Node29 -->
<g id="edge28" class="edge">
<title>Node1&#45;&gt;Node29</title>
<path fill="none" stroke="black" d="M50.32,-572.81C52.14,-486.39 63.76,-141.55 134,-65.5 140.47,-58.5 149.04,-53.87 158.14,-50.86"/>
<polygon fill="black" stroke="black" points="46.82,-572.78 50.13,-582.84 53.82,-572.91 46.82,-572.78"/>
</g>
<!-- Node30 -->
<g id="Node000030" class="node">
<title>Node30</title>
<g id="a_Node000030"><a xlink:href="../../d2/d1b/group__A__VERSION.html" target="_top" xlink:title=" ">
<polygon fill="white" stroke="#666666" points="282,-19 145,-19 145,0 282,0 282,-19"/>
<text text-anchor="middle" x="213.5" y="-7" font-family="Helvetica,sans-Serif" font-size="10.00">algorithm library version</text>
</a>
</g>
</g>
<!-- Node1&#45;&gt;Node30 -->
<g id="edge29" class="edge">
<title>Node1&#45;&gt;Node30</title>
<path fill="none" stroke="black" d="M50.1,-572.59C50.96,-482.1 59.06,-110.48 134,-28.5 137.5,-24.67 141.63,-21.55 146.13,-19.02"/>
<polygon fill="black" stroke="black" points="46.6,-572.59 50.02,-582.61 53.6,-572.64 46.6,-572.59"/>
</g>
</g>
</svg>
