<?xml version="1.0" encoding="UTF-8" standalone="no"?>
<!DOCTYPE svg PUBLIC "-//W3C//DTD SVG 1.1//EN"
 "http://www.w3.org/Graphics/SVG/1.1/DTD/svg11.dtd">
<!-- Generated by graphviz version 2.43.0 (0)
 -->
<!-- Title: algorithm library Pages: 1 -->
<!--zoomable 947 -->
<svg id="main" version="1.1" xmlns="http://www.w3.org/2000/svg" xmlns:xlink="http://www.w3.org/1999/xlink" xml:space="preserve" onload="init(evt)">
<style type="text/css"><![CDATA[
.edge:hover path { stroke: red; }
.edge:hover polygon { stroke: red; fill: red; }
]]></style>
<script type="text/javascript"><![CDATA[
var edges = document.getElementsByTagName('g');
if (edges && edges.length) {
  for (var i=0;i<edges.length;i++) {
    if (edges[i].id.substr(0,4)=='edge') {
      edges[i].setAttribute('class','edge');
    }
  }
}
]]></script>
        <defs>
                <circle id="rim" cx="0" cy="0" r="7"/>
                <circle id="rim2" cx="0" cy="0" r="3.5"/>
                <g id="zoomPlus">
                        <use xlink:href="#rim" fill="#404040">
                                <set attributeName="fill" to="#808080" begin="zoomplus.mouseover" end="zoomplus.mouseout"/>
                        </use>
                        <path d="M-4,0h8M0,-4v8" fill="none" stroke="white" stroke-width="1.5" pointer-events="none"/>
                </g>
                <g id="zoomMin">
                        <use xlink:href="#rim" fill="#404040">
                                <set attributeName="fill" to="#808080" begin="zoomminus.mouseover" end="zoomminus.mouseout"/>
                        </use>
                        <path d="M-4,0h8" fill="none" stroke="white" stroke-width="1.5" pointer-events="none"/>
                </g>
                <g id="dirArrow">
                        <path fill="none" stroke="white" stroke-width="1.5" d="M0,-3.0v7 M-2.5,-0.5L0,-3.0L2.5,-0.5"/>
                </g>
               <g id="resetDef">
                       <use xlink:href="#rim2" fill="#404040">
                               <set attributeName="fill" to="#808080" begin="reset.mouseover" end="reset.mouseout"/>
                       </use>
               </g>
        </defs>

<script type="text/javascript">
var viewWidth = 304;
var viewHeight = 947;
var sectionId = 'dynsection-0';
</script>
<script xlink:href="../../svgpan.js"/>
<svg id="graph" class="graph">
<g id="viewport">
<title>algorithm library</title>
<polygon fill="white" stroke="transparent" points="-4,4 -4,-942.5 300,-942.5 300,4 -4,4"/>
<!-- Node18 -->
<g id="node1" class="node">
<title>Node18</title>
<g id="a_node1"><a xlink:href="../../d8/da8/group__A__PID.html" target="_top" xlink:title=" ">
<polygon fill="white" stroke="black" points="274.5,-938.5 155.5,-938.5 155.5,-908.5 274.5,-908.5 274.5,-938.5"/>
<text text-anchor="start" x="163.5" y="-926.5" font-family="Helvetica,sans-Serif" font-size="10.00">proportional integral</text>
<text text-anchor="middle" x="215" y="-915.5" font-family="Helvetica,sans-Serif" font-size="10.00"> derivative controller</text>
</a>
</g>
</g>
<!-- Node1 -->
<g id="node2" class="node">
<title>Node1</title>
<g id="a_node2"><a xlink:title=" ">
<polygon fill="#bfbfbf" stroke="black" points="98,-469 0,-469 0,-450 98,-450 98,-469"/>
<text text-anchor="middle" x="49" y="-457" font-family="Helvetica,sans-Serif" font-size="10.00">algorithm library</text>
</a>
</g>
</g>
<!-- Node1&#45;&gt;Node18 -->
<g id="edge17" class="edge">
<title>Node1&#45;&gt;Node18</title>
<path fill="none" stroke="black" d="M51.13,-479.68C55.9,-557.39 76.77,-836.06 134,-899.5 139.83,-905.96 147.32,-910.71 155.37,-914.2"/>
<polygon fill="black" stroke="black" points="54.61,-479.14 50.53,-469.36 47.62,-479.55 54.61,-479.14"/>
</g>
<!-- Node22 -->
<g id="node3" class="node">
<title>Node22</title>
<g id="a_node3"><a xlink:href="../../d1/dfe/group__A__SLIST.html" target="_top" xlink:title=" ">
<polygon fill="white" stroke="black" points="282.5,-890 147.5,-890 147.5,-871 282.5,-871 282.5,-890"/>
<text text-anchor="middle" x="215" y="-878" font-family="Helvetica,sans-Serif" font-size="10.00">circular singly linked list</text>
</a>
</g>
</g>
<!-- Node1&#45;&gt;Node22 -->
<g id="edge21" class="edge">
<title>Node1&#45;&gt;Node22</title>
<path fill="none" stroke="black" d="M51.37,-479.51C56.8,-553.03 79.27,-806.9 134,-862.5 137.89,-866.46 142.46,-869.63 147.4,-872.16"/>
<polygon fill="black" stroke="black" points="54.84,-479.04 50.64,-469.31 47.86,-479.54 54.84,-479.04"/>
</g>
<!-- Node14 -->
<g id="node4" class="node">
<title>Node14</title>
<g id="a_node4"><a xlink:href="../../dd/d37/group__A__MF.html" target="_top" xlink:title=" ">
<polygon fill="white" stroke="black" points="275.5,-853 154.5,-853 154.5,-834 275.5,-834 275.5,-853"/>
<text text-anchor="middle" x="215" y="-841" font-family="Helvetica,sans-Serif" font-size="10.00">membership function</text>
</a>
</g>
</g>
<!-- Node1&#45;&gt;Node14 -->
<g id="edge13" class="edge">
<title>Node1&#45;&gt;Node14</title>
<path fill="none" stroke="black" d="M51.81,-479.42C58.5,-548.41 84,-775.71 134,-825.5 139.65,-831.13 146.66,-835.15 154.15,-838.01"/>
<polygon fill="black" stroke="black" points="55.26,-478.73 50.84,-469.1 48.29,-479.38 55.26,-478.73"/>
</g>
<!-- Node20 -->
<g id="node5" class="node">
<title>Node20</title>
<g id="a_node5"><a xlink:href="../../d1/d97/group__A__POLYTRACK.html" target="_top" xlink:title=" ">
<polygon fill="white" stroke="black" points="276,-816 154,-816 154,-797 276,-797 276,-816"/>
<text text-anchor="middle" x="215" y="-804" font-family="Helvetica,sans-Serif" font-size="10.00">polynomial trajectory</text>
</a>
</g>
</g>
<!-- Node1&#45;&gt;Node20 -->
<g id="edge19" class="edge">
<title>Node1&#45;&gt;Node20</title>
<path fill="none" stroke="black" d="M52.32,-479.06C60.3,-543.02 88.63,-744.42 134,-788.5 139.62,-793.96 146.51,-797.9 153.88,-800.73"/>
<polygon fill="black" stroke="black" points="55.79,-478.59 51.1,-469.09 48.84,-479.44 55.79,-478.59"/>
</g>
<!-- Node12 -->
<g id="node6" class="node">
<title>Node12</title>
<g id="a_node6"><a xlink:href="../../d8/de5/group__A__LIST.html" target="_top" xlink:title=" ">
<polygon fill="white" stroke="black" points="284.5,-779 145.5,-779 145.5,-760 284.5,-760 284.5,-779"/>
<text text-anchor="middle" x="215" y="-767" font-family="Helvetica,sans-Serif" font-size="10.00">circular doubly linked list</text>
</a>
</g>
</g>
<!-- Node1&#45;&gt;Node12 -->
<g id="edge11" class="edge">
<title>Node1&#45;&gt;Node12</title>
<path fill="none" stroke="black" d="M49.32,-479.38C48.67,-532.11 54.61,-676.64 134,-751.5 137.52,-754.82 141.52,-757.58 145.8,-759.86"/>
<polygon fill="black" stroke="black" points="52.83,-479.13 49.55,-469.06 45.83,-478.97 52.83,-479.13"/>
</g>
<!-- Node5 -->
<g id="node7" class="node">
<title>Node5</title>
<g id="a_node7"><a xlink:href="../../d6/dbb/group__A__COMPLEX.html" target="_top" xlink:title=" ">
<polygon fill="white" stroke="black" points="264.5,-742 165.5,-742 165.5,-723 264.5,-723 264.5,-742"/>
<text text-anchor="middle" x="215" y="-730" font-family="Helvetica,sans-Serif" font-size="10.00">complex number</text>
</a>
</g>
</g>
<!-- Node1&#45;&gt;Node5 -->
<g id="edge4" class="edge">
<title>Node1&#45;&gt;Node5</title>
<path fill="none" stroke="black" d="M50.37,-479.29C52.38,-527.1 64.44,-649.69 134,-713.5 142.63,-721.41 153.93,-726.21 165.32,-729.07"/>
<polygon fill="black" stroke="black" points="53.86,-478.94 50.05,-469.06 46.86,-479.16 53.86,-478.94"/>
</g>
<!-- Node13 -->
<g id="node8" class="node">
<title>Node13</title>
<g id="a_node8"><a xlink:href="../../d1/d82/group__A__MATH.html" target="_top" xlink:title=" ">
<polygon fill="white" stroke="black" points="282.5,-704.5 147.5,-704.5 147.5,-674.5 282.5,-674.5 282.5,-704.5"/>
<text text-anchor="start" x="155.5" y="-692.5" font-family="Helvetica,sans-Serif" font-size="10.00">mathematical algorithm</text>
<text text-anchor="middle" x="215" y="-681.5" font-family="Helvetica,sans-Serif" font-size="10.00"> library</text>
</a>
</g>
</g>
<!-- Node1&#45;&gt;Node13 -->
<g id="edge12" class="edge">
<title>Node1&#45;&gt;Node13</title>
<path fill="none" stroke="black" d="M52.4,-479.43C58.39,-520.38 77.82,-614.46 134,-665.5 137.97,-669.11 142.47,-672.17 147.25,-674.78"/>
<polygon fill="black" stroke="black" points="55.85,-478.81 51.04,-469.36 48.91,-479.74 55.85,-478.81"/>
</g>
<!-- Node23 -->
<g id="node9" class="node">
<title>Node23</title>
<g id="a_node9"><a xlink:href="../../d0/ddd/group__A__TF.html" target="_top" xlink:title=" ">
<polygon fill="white" stroke="black" points="264,-656 166,-656 166,-637 264,-637 264,-656"/>
<text text-anchor="middle" x="215" y="-644" font-family="Helvetica,sans-Serif" font-size="10.00">transfer function</text>
</a>
</g>
</g>
<!-- Node1&#45;&gt;Node23 -->
<g id="edge22" class="edge">
<title>Node1&#45;&gt;Node23</title>
<path fill="none" stroke="black" d="M54.05,-479.52C62.38,-515.28 84.93,-589.99 134,-628.5 143.07,-635.62 154.41,-640.04 165.68,-642.75"/>
<polygon fill="black" stroke="black" points="57.39,-478.39 51.83,-469.37 50.55,-479.89 57.39,-478.39"/>
</g>
<!-- Node2 -->
<g id="node10" class="node">
<title>Node2</title>
<g id="a_node10"><a xlink:href="../../da/d70/group__A__REAL.html" target="_top" xlink:title=" ">
<polygon fill="white" stroke="black" points="253,-619 177,-619 177,-600 253,-600 253,-619"/>
<text text-anchor="middle" x="215" y="-607" font-family="Helvetica,sans-Serif" font-size="10.00">real number</text>
</a>
</g>
</g>
<!-- Node1&#45;&gt;Node2 -->
<g id="edge1" class="edge">
<title>Node1&#45;&gt;Node2</title>
<path fill="none" stroke="black" d="M56.75,-478.81C68,-508 93.43,-562.98 134,-591.5 146.46,-600.26 162.48,-604.84 176.91,-607.21"/>
<polygon fill="black" stroke="black" points="60,-477.49 53.25,-469.32 53.43,-479.91 60,-477.49"/>
</g>
<!-- Node3 -->
<g id="node11" class="node">
<title>Node3</title>
<g id="a_node11"><a xlink:href="../../d6/d8f/group__A__AVL.html" target="_top" xlink:title=" ">
<polygon fill="white" stroke="black" points="278,-582 152,-582 152,-563 278,-563 278,-582"/>
<text text-anchor="middle" x="215" y="-570" font-family="Helvetica,sans-Serif" font-size="10.00">AVL binary search tree</text>
</a>
</g>
</g>
<!-- Node1&#45;&gt;Node3 -->
<g id="edge2" class="edge">
<title>Node1&#45;&gt;Node3</title>
<path fill="none" stroke="black" d="M61.28,-477.8C75.53,-499.31 102.06,-534.47 134,-553.5 140.5,-557.37 147.74,-560.46 155.13,-562.91"/>
<polygon fill="black" stroke="black" points="64.14,-475.77 55.79,-469.25 58.25,-479.55 64.14,-475.77"/>
</g>
<!-- Node21 -->
<g id="node12" class="node">
<title>Node21</title>
<g id="a_node12"><a xlink:href="../../d7/d06/group__A__RBT.html" target="_top" xlink:title=" ">
<polygon fill="white" stroke="black" points="264,-544.5 166,-544.5 166,-514.5 264,-514.5 264,-544.5"/>
<text text-anchor="start" x="174" y="-532.5" font-family="Helvetica,sans-Serif" font-size="10.00">red–black binary</text>
<text text-anchor="middle" x="215" y="-521.5" font-family="Helvetica,sans-Serif" font-size="10.00"> search tree</text>
</a>
</g>
</g>
<!-- Node1&#45;&gt;Node21 -->
<g id="edge20" class="edge">
<title>Node1&#45;&gt;Node21</title>
<path fill="none" stroke="black" d="M74.22,-474.54C90.65,-484.29 113.1,-496.76 134,-505.5 144.03,-509.7 155.05,-513.5 165.62,-516.77"/>
<polygon fill="black" stroke="black" points="75.68,-471.33 65.3,-469.16 72.06,-477.32 75.68,-471.33"/>
</g>
<!-- Node24 -->
<g id="node13" class="node">
<title>Node24</title>
<g id="a_node13"><a xlink:href="../../d9/da8/group__A__UTF.html" target="_top" xlink:title=" ">
<polygon fill="white" stroke="black" points="281.5,-496.5 148.5,-496.5 148.5,-466.5 281.5,-466.5 281.5,-496.5"/>
<text text-anchor="start" x="156.5" y="-484.5" font-family="Helvetica,sans-Serif" font-size="10.00">Unicode Transformation</text>
<text text-anchor="middle" x="215" y="-473.5" font-family="Helvetica,sans-Serif" font-size="10.00"> Format</text>
</a>
</g>
</g>
<!-- Node1&#45;&gt;Node24 -->
<g id="edge23" class="edge">
<title>Node1&#45;&gt;Node24</title>
<path fill="none" stroke="black" d="M108.48,-467.35C121.42,-469.08 135.2,-470.93 148.4,-472.7"/>
<polygon fill="black" stroke="black" points="108.69,-463.84 98.32,-465.98 107.76,-470.78 108.69,-463.84"/>
</g>
<!-- Node8 -->
<g id="node14" class="node">
<title>Node8</title>
<g id="a_node14"><a xlink:href="../../df/d54/group__A__QUE.html" target="_top" xlink:title=" ">
<polygon fill="white" stroke="black" points="270,-448 160,-448 160,-429 270,-429 270,-448"/>
<text text-anchor="middle" x="215" y="-436" font-family="Helvetica,sans-Serif" font-size="10.00">basic queue library</text>
</a>
</g>
</g>
<!-- Node1&#45;&gt;Node8 -->
<g id="edge7" class="edge">
<title>Node1&#45;&gt;Node8</title>
<path fill="none" stroke="black" d="M108.55,-452C125.32,-449.86 143.51,-447.53 159.99,-445.42"/>
<polygon fill="black" stroke="black" points="107.79,-448.57 98.32,-453.31 108.68,-455.51 107.79,-448.57"/>
</g>
<!-- Node10 -->
<g id="node15" class="node">
<title>Node10</title>
<g id="a_node15"><a xlink:href="../../da/d05/group__A__VEC.html" target="_top" xlink:title=" ">
<polygon fill="white" stroke="black" points="270,-411 160,-411 160,-392 270,-392 270,-411"/>
<text text-anchor="middle" x="215" y="-399" font-family="Helvetica,sans-Serif" font-size="10.00">basic vector library</text>
</a>
</g>
</g>
<!-- Node1&#45;&gt;Node10 -->
<g id="edge9" class="edge">
<title>Node1&#45;&gt;Node10</title>
<path fill="none" stroke="black" d="M76.83,-445.36C93.04,-437.24 114.32,-427.33 134,-420.5 144.38,-416.9 155.76,-413.74 166.59,-411.09"/>
<polygon fill="black" stroke="black" points="75.24,-442.24 67.91,-449.89 78.41,-448.47 75.24,-442.24"/>
</g>
<!-- Node6 -->
<g id="node16" class="node">
<title>Node6</title>
<g id="a_node16"><a xlink:href="../../d0/d96/group__A__FPID.html" target="_top" xlink:title=" ">
<polygon fill="white" stroke="black" points="270,-374 160,-374 160,-333 270,-333 270,-374"/>
<text text-anchor="start" x="168" y="-362" font-family="Helvetica,sans-Serif" font-size="10.00">fuzzy proportional</text>
<text text-anchor="start" x="168" y="-351" font-family="Helvetica,sans-Serif" font-size="10.00"> integral derivative</text>
<text text-anchor="middle" x="215" y="-340" font-family="Helvetica,sans-Serif" font-size="10.00"> controller</text>
</a>
</g>
</g>
<!-- Node1&#45;&gt;Node6 -->
<g id="edge5" class="edge">
<title>Node1&#45;&gt;Node6</title>
<path fill="none" stroke="black" d="M65.29,-442.31C81.08,-425.41 107.15,-399.85 134,-383.5 141.98,-378.64 150.88,-374.35 159.76,-370.65"/>
<polygon fill="black" stroke="black" points="62.57,-440.09 58.4,-449.83 67.74,-444.82 62.57,-440.09"/>
</g>
<!-- Node4 -->
<g id="node17" class="node">
<title>Node4</title>
<g id="a_node17"><a xlink:href="../../d0/df8/group__A__BUF.html" target="_top" xlink:title=" ">
<polygon fill="white" stroke="black" points="269,-315 161,-315 161,-296 269,-296 269,-315"/>
<text text-anchor="middle" x="215" y="-303" font-family="Helvetica,sans-Serif" font-size="10.00">basic buffer library</text>
</a>
</g>
</g>
<!-- Node1&#45;&gt;Node4 -->
<g id="edge3" class="edge">
<title>Node1&#45;&gt;Node4</title>
<path fill="none" stroke="black" d="M56.51,-440.25C67.56,-410.6 92.89,-354.08 134,-324.5 141.88,-318.83 151.22,-314.83 160.68,-312.02"/>
<polygon fill="black" stroke="black" points="53.14,-439.27 53.08,-449.86 59.74,-441.62 53.14,-439.27"/>
</g>
<!-- Node25 -->
<g id="node18" class="node">
<title>Node25</title>
<g id="a_node18"><a xlink:href="../../d2/d1b/group__A__VERSION.html" target="_top" xlink:title=" ">
<polygon fill="white" stroke="black" points="283.5,-278 146.5,-278 146.5,-259 283.5,-259 283.5,-278"/>
<text text-anchor="middle" x="215" y="-266" font-family="Helvetica,sans-Serif" font-size="10.00">algorithm library version</text>
</a>
</g>
</g>
<!-- Node1&#45;&gt;Node25 -->
<g id="edge24" class="edge">
<title>Node1&#45;&gt;Node25</title>
<path fill="none" stroke="black" d="M53.87,-439.7C62,-403.62 84.36,-327.22 134,-287.5 138.79,-283.66 144.23,-280.58 149.97,-278.11"/>
<polygon fill="black" stroke="black" points="50.36,-439.4 51.72,-449.9 57.21,-440.84 50.36,-439.4"/>
</g>
<!-- Node7 -->
<g id="node19" class="node">
<title>Node7</title>
<g id="a_node19"><a xlink:href="../../d6/d0a/group__A__FUZZY.html" target="_top" xlink:title=" ">
<polygon fill="white" stroke="black" points="258.5,-241 171.5,-241 171.5,-222 258.5,-222 258.5,-241"/>
<text text-anchor="middle" x="215" y="-229" font-family="Helvetica,sans-Serif" font-size="10.00">fuzzy operator</text>
</a>
</g>
</g>
<!-- Node1&#45;&gt;Node7 -->
<g id="edge6" class="edge">
<title>Node1&#45;&gt;Node7</title>
<path fill="none" stroke="black" d="M51.96,-439.87C57.19,-398.28 75.37,-300.99 134,-250.5 144.38,-241.56 158.23,-236.65 171.48,-234.01"/>
<polygon fill="black" stroke="black" points="48.48,-439.49 50.82,-449.82 55.43,-440.28 48.48,-439.49"/>
</g>
<!-- Node17 -->
<g id="node20" class="node">
<title>Node17</title>
<g id="a_node20"><a xlink:href="../../dd/d76/group__A__OPERATOR.html" target="_top" xlink:title=" ">
<polygon fill="white" stroke="black" points="289,-204 141,-204 141,-185 289,-185 289,-204"/>
<text text-anchor="middle" x="215" y="-192" font-family="Helvetica,sans-Serif" font-size="10.00">algorithm library operators</text>
</a>
</g>
</g>
<!-- Node1&#45;&gt;Node17 -->
<g id="edge16" class="edge">
<title>Node1&#45;&gt;Node17</title>
<path fill="none" stroke="black" d="M50.62,-439.71C53.19,-392.93 66.41,-274.9 134,-213.5 138.23,-209.66 143.09,-206.56 148.28,-204.05"/>
<polygon fill="black" stroke="black" points="47.11,-439.84 50.16,-449.99 54.1,-440.15 47.11,-439.84"/>
</g>
<!-- Node15 -->
<g id="node21" class="node">
<title>Node15</title>
<g id="a_node21"><a xlink:href="../../db/ddc/group__A__NOTEFREQ.html" target="_top" xlink:title=" ">
<polygon fill="white" stroke="black" points="274,-167 156,-167 156,-148 274,-148 274,-167"/>
<text text-anchor="middle" x="215" y="-155" font-family="Helvetica,sans-Serif" font-size="10.00">note frequency table</text>
</a>
</g>
</g>
<!-- Node1&#45;&gt;Node15 -->
<g id="edge14" class="edge">
<title>Node1&#45;&gt;Node15</title>
<path fill="none" stroke="black" d="M49.58,-439.93C49.62,-388.62 57.16,-249.2 134,-176.5 140.12,-170.71 147.67,-166.58 155.66,-163.65"/>
<polygon fill="black" stroke="black" points="46.09,-440.02 49.68,-449.99 53.08,-439.96 46.09,-440.02"/>
</g>
<!-- Node16 -->
<g id="node22" class="node">
<title>Node16</title>
<g id="a_node22"><a xlink:href="../../df/db1/group__A__OOP.html" target="_top" xlink:title=" ">
<polygon fill="white" stroke="black" points="296,-130 134,-130 134,-111 296,-111 296,-130"/>
<text text-anchor="middle" x="215" y="-118" font-family="Helvetica,sans-Serif" font-size="10.00">Object Oriented Programming</text>
</a>
</g>
</g>
<!-- Node1&#45;&gt;Node16 -->
<g id="edge15" class="edge">
<title>Node1&#45;&gt;Node16</title>
<path fill="none" stroke="black" d="M52.53,-439.69C60.96,-376.66 90.1,-182.38 134,-139.5 137.88,-135.71 142.37,-132.63 147.21,-130.12"/>
<polygon fill="black" stroke="black" points="49.02,-439.49 51.19,-449.86 55.96,-440.4 49.02,-439.49"/>
</g>
<!-- Node11 -->
<g id="node23" class="node">
<title>Node11</title>
<g id="a_node23"><a xlink:href="../../da/df8/group__A__VECTOR.html" target="_top" xlink:title=" ">
<polygon fill="white" stroke="black" points="270,-93 160,-93 160,-74 270,-74 270,-93"/>
<text text-anchor="middle" x="215" y="-81" font-family="Helvetica,sans-Serif" font-size="10.00">basic vector library</text>
</a>
</g>
</g>
<!-- Node1&#45;&gt;Node11 -->
<g id="edge10" class="edge">
<title>Node1&#45;&gt;Node11</title>
<path fill="none" stroke="black" d="M51.95,-439.64C59.02,-371.87 85.43,-151.18 134,-102.5 141.06,-95.43 150.24,-90.8 159.85,-87.81"/>
<polygon fill="black" stroke="black" points="48.45,-439.51 50.92,-449.81 55.41,-440.21 48.45,-439.51"/>
</g>
<!-- Node9 -->
<g id="node24" class="node">
<title>Node9</title>
<g id="a_node24"><a xlink:href="../../db/d6c/group__A__STR.html" target="_top" xlink:title=" ">
<polygon fill="white" stroke="black" points="268.5,-56 161.5,-56 161.5,-37 268.5,-37 268.5,-56"/>
<text text-anchor="middle" x="215" y="-44" font-family="Helvetica,sans-Serif" font-size="10.00">basic string library</text>
</a>
</g>
</g>
<!-- Node1&#45;&gt;Node9 -->
<g id="edge8" class="edge">
<title>Node1&#45;&gt;Node9</title>
<path fill="none" stroke="black" d="M51.49,-439.51C57.3,-367.11 80.75,-119.99 134,-65.5 141.38,-57.94 151.18,-53.17 161.38,-50.2"/>
<polygon fill="black" stroke="black" points="47.97,-439.67 50.68,-449.91 54.95,-440.21 47.97,-439.67"/>
</g>
<!-- Node19 -->
<g id="node25" class="node">
<title>Node19</title>
<g id="a_node25"><a xlink:href="../../d6/de7/group__A__POLY.html" target="_top" xlink:title=" ">
<polygon fill="white" stroke="black" points="250.5,-19 179.5,-19 179.5,0 250.5,0 250.5,-19"/>
<text text-anchor="middle" x="215" y="-7" font-family="Helvetica,sans-Serif" font-size="10.00">polynomial</text>
</a>
</g>
</g>
<!-- Node1&#45;&gt;Node19 -->
<g id="edge18" class="edge">
<title>Node1&#45;&gt;Node19</title>
<path fill="none" stroke="black" d="M51.09,-439.63C55.68,-363.12 76,-88.91 134,-28.5 145.67,-16.35 163.57,-11.36 179.49,-9.52"/>
<polygon fill="black" stroke="black" points="47.58,-439.6 50.5,-449.79 54.57,-440.01 47.58,-439.6"/>
</g>
</g>
</svg>
        <g id="navigator" transform="translate(0 0)" fill="#404254">
                <rect fill="#f2f5e9" fill-opacity="0.5" stroke="#606060" stroke-width=".5" x="0" y="0" width="60" height="60"/>
                <use id="zoomplus" xlink:href="#zoomPlus" x="17" y="9" onmousedown="handleZoom(evt,'in')"/>
                <use id="zoomminus" xlink:href="#zoomMin" x="42" y="9" onmousedown="handleZoom(evt,'out')"/>
                <use id="reset" xlink:href="#resetDef" x="30" y="36" onmousedown="handleReset()"/>
                <g id="arrowUp" xlink:href="#dirArrow" transform="translate(30 24)" onmousedown="handlePan(0,-1)">
                  <use xlink:href="#rim" fill="#404040">
                        <set attributeName="fill" to="#808080" begin="arrowUp.mouseover" end="arrowUp.mouseout"/>
                  </use>
                  <path fill="none" stroke="white" stroke-width="1.5" d="M0,-3.0v7 M-2.5,-0.5L0,-3.0L2.5,-0.5"/>
                </g>
                <g id="arrowRight" xlink:href="#dirArrow" transform="rotate(90) translate(36 -43)" onmousedown="handlePan(1,0)">
                  <use xlink:href="#rim" fill="#404040">
                        <set attributeName="fill" to="#808080" begin="arrowRight.mouseover" end="arrowRight.mouseout"/>
                  </use>
                  <path fill="none" stroke="white" stroke-width="1.5" d="M0,-3.0v7 M-2.5,-0.5L0,-3.0L2.5,-0.5"/>
                </g>
                <g id="arrowDown" xlink:href="#dirArrow" transform="rotate(180) translate(-30 -48)" onmousedown="handlePan(0,1)">
                  <use xlink:href="#rim" fill="#404040">
                        <set attributeName="fill" to="#808080" begin="arrowDown.mouseover" end="arrowDown.mouseout"/>
                  </use>
                  <path fill="none" stroke="white" stroke-width="1.5" d="M0,-3.0v7 M-2.5,-0.5L0,-3.0L2.5,-0.5"/>
                </g>
                <g id="arrowLeft" xlink:href="#dirArrow" transform="rotate(270) translate(-36 17)" onmousedown="handlePan(-1,0)">
                  <use xlink:href="#rim" fill="#404040">
                        <set attributeName="fill" to="#808080" begin="arrowLeft.mouseover" end="arrowLeft.mouseout"/>
                  </use>
                  <path fill="none" stroke="white" stroke-width="1.5" d="M0,-3.0v7 M-2.5,-0.5L0,-3.0L2.5,-0.5"/>
                </g>
        </g>
        <svg viewBox="0 0 15 15" width="100%" height="30px" preserveAspectRatio="xMaxYMin meet">
         <g id="arrow_out" transform="scale(0.3 0.3)">
          <a xlink:href="group__A_org.svg" target="_base">
           <rect id="button" ry="5" rx="5" y="6" x="6" height="38" width="38"
                fill="#f2f5e9" fill-opacity="0.5" stroke="#606060" stroke-width="1.0"/>
           <path id="arrow"
             d="M 11.500037,31.436501 C 11.940474,20.09759 22.043105,11.32322 32.158766,21.979434 L 37.068811,17.246167 C 37.068811,17.246167 37.088388,32 37.088388,32 L 22.160133,31.978069 C 22.160133,31.978069 26.997745,27.140456 26.997745,27.140456 C 18.528582,18.264221 13.291696,25.230495 11.500037,31.436501 z"
             style="fill:#404040;"/>
          </a>
         </g>
        </svg>
</svg>
