<?xml version="1.0" encoding="UTF-8" standalone="no"?>
<!DOCTYPE svg PUBLIC "-//W3C//DTD SVG 1.1//EN"
 "http://www.w3.org/Graphics/SVG/1.1/DTD/svg11.dtd">
<!-- Generated by graphviz version 2.43.0 (0)
 -->
<!-- Title: algorithm library Pages: 1 -->
<!--zoomable 1071 -->

<svg id="main" version="1.1" xmlns="http://www.w3.org/2000/svg" xmlns:xlink="http://www.w3.org/1999/xlink" xml:space="preserve" onload="init(evt)">
<style type="text/css"><![CDATA[
.node, .edge {opacity: 0.7;}
.node.selected, .edge.selected {opacity: 1;}
.edge:hover path { stroke: red; }
.edge:hover polygon { stroke: red; fill: red; }
]]></style>

<defs>
  <circle id="rim" cx="0" cy="0" r="7"/>
  <circle id="rim2" cx="0" cy="0" r="3.5"/>
  <g id="zoomPlus">
    <use xlink:href="#rim" fill="#404040"><set attributeName="fill" to="#808080" begin="zoomplus.mouseover" end="zoomplus.mouseout"/></use>
    <path d="M-4,0h8M0,-4v8" fill="none" stroke="white" stroke-width="1.5" pointer-events="none"/>
  </g>
  <g id="zoomMin">
    <use xlink:href="#rim" fill="#404040"><set attributeName="fill" to="#808080" begin="zoomminus.mouseover" end="zoomminus.mouseout"/></use>
    <path d="M-4,0h8" fill="none" stroke="white" stroke-width="1.5" pointer-events="none"/>
  </g>
  <g id="arrowUp" transform="translate(30 24)">
    <use xlink:href="#rim"/>
    <path pointer-events="none" fill="none" stroke="white" stroke-width="1.5" d="M0,-3.0v7 M-2.5,-0.5L0,-3.0L2.5,-0.5"/>
  </g>
  <g id="arrowRight" transform="rotate(90) translate(36 -43)">
    <use xlink:href="#rim"/>
    <path pointer-events="none" fill="none" stroke="white" stroke-width="1.5" d="M0,-3.0v7 M-2.5,-0.5L0,-3.0L2.5,-0.5"/>
  </g>
  <g id="arrowDown" transform="rotate(180) translate(-30 -48)">
    <use xlink:href="#rim"/>
    <path pointer-events="none" fill="none" stroke="white" stroke-width="1.5" d="M0,-3.0v7 M-2.5,-0.5L0,-3.0L2.5,-0.5"/>
  </g>
  <g id="arrowLeft" transform="rotate(270) translate(-36 17)">
    <use xlink:href="#rim"/>
    <path pointer-events="none" fill="none" stroke="white" stroke-width="1.5" d="M0,-3.0v7 M-2.5,-0.5L0,-3.0L2.5,-0.5"/>
  </g>
  <g id="resetDef">
    <use xlink:href="#rim2" fill="#404040"><set attributeName="fill" to="#808080" begin="reset.mouseover" end="reset.mouseout"/></use>
  </g>
</defs>
<script type="application/ecmascript">
var viewWidth = 301;
var viewHeight = 1071;
var sectionId = 'dynsection-0';
</script>
<script type="application/ecmascript" xlink:href="../../svg.min.js"/>
<svg id="graph" class="graph">
<g id="viewport">
<title>algorithm library</title>
<!-- Node1 -->
<g id="Node000001" class="node">
<title>Node1</title>
<g id="a_Node000001"><a xlink:title=" ">
<polygon fill="#999999" stroke="#666666" points="98,-547 0,-547 0,-528 98,-528 98,-547"/>
<text text-anchor="middle" x="49" y="-535" font-family="Helvetica,sans-Serif" font-size="10.00">algorithm library</text>
</a>
</g>
</g>
<!-- Node3 -->
<g id="Node000003" class="node">
<title>Node3</title>
<g id="a_Node000003"><a xlink:href="../../d6/d8f/group__A__AVL.html" target="_top" xlink:title=" ">
<polygon fill="white" stroke="#666666" points="276.5,-1063 150.5,-1063 150.5,-1044 276.5,-1044 276.5,-1063"/>
<text text-anchor="middle" x="213.5" y="-1051" font-family="Helvetica,sans-Serif" font-size="10.00">AVL binary search tree</text>
</a>
</g>
</g>
<!-- Node1&#45;&gt;Node3 -->
<g id="edge2" class="edge">
<title>Node1&#45;&gt;Node3</title>
<path fill="none" stroke="black" d="M50.5,-557.17C53.02,-640.64 67.06,-964.53 134,-1035.5 138.61,-1040.38 144.24,-1044.07 150.37,-1046.83"/>
<polygon fill="black" stroke="black" points="53.99,-556.94 50.21,-547.04 47,-557.13 53.99,-556.94"/>
</g>
<!-- Node4 -->
<g id="Node000004" class="node">
<title>Node4</title>
<g id="a_Node000004"><a xlink:href="../../d0/df8/group__A__BUF.html" target="_top" xlink:title=" ">
<polygon fill="white" stroke="#666666" points="267.5,-1026 159.5,-1026 159.5,-1007 267.5,-1007 267.5,-1026"/>
<text text-anchor="middle" x="213.5" y="-1014" font-family="Helvetica,sans-Serif" font-size="10.00">basic buffer library</text>
</a>
</g>
</g>
<!-- Node1&#45;&gt;Node4 -->
<g id="edge3" class="edge">
<title>Node1&#45;&gt;Node4</title>
<path fill="none" stroke="black" d="M50.79,-557.22C54.39,-636.83 71.85,-933.48 134,-998.5 140.76,-1005.58 149.7,-1010.13 159.11,-1013.01"/>
<polygon fill="black" stroke="black" points="54.28,-556.94 50.36,-547.1 47.29,-557.24 54.28,-556.94"/>
</g>
<!-- Node5 -->
<g id="Node000005" class="node">
<title>Node5</title>
<g id="a_Node000005"><a xlink:href="../../d6/dbb/group__A__COMPLEX.html" target="_top" xlink:title=" ">
<polygon fill="white" stroke="#666666" points="263,-989 164,-989 164,-970 263,-970 263,-989"/>
<text text-anchor="middle" x="213.5" y="-977" font-family="Helvetica,sans-Serif" font-size="10.00">complex number</text>
</a>
</g>
</g>
<!-- Node1&#45;&gt;Node5 -->
<g id="edge4" class="edge">
<title>Node1&#45;&gt;Node5</title>
<path fill="none" stroke="black" d="M51.12,-557.07C55.85,-632.39 76.58,-902.34 134,-961.5 141.89,-969.63 152.64,-974.41 163.66,-977.16"/>
<polygon fill="black" stroke="black" points="54.62,-556.83 50.52,-547.06 47.63,-557.25 54.62,-556.83"/>
</g>
<!-- Node2 -->
<g id="Node000002" class="node">
<title>Node2</title>
<g id="a_Node000002"><a xlink:href="../../d5/da3/group__A__FLOAT.html" target="_top" xlink:title=" ">
<polygon fill="white" stroke="#666666" points="274.5,-952 152.5,-952 152.5,-933 274.5,-933 274.5,-952"/>
<text text-anchor="middle" x="213.5" y="-940" font-family="Helvetica,sans-Serif" font-size="10.00">floating&#45;point number</text>
</a>
</g>
</g>
<!-- Node1&#45;&gt;Node2 -->
<g id="edge1" class="edge">
<title>Node1&#45;&gt;Node2</title>
<path fill="none" stroke="black" d="M51.57,-557.62C57.58,-629.38 81.47,-871.35 134,-924.5 139.11,-929.67 145.38,-933.48 152.14,-936.28"/>
<polygon fill="black" stroke="black" points="55.03,-556.96 50.73,-547.28 48.05,-557.53 55.03,-556.96"/>
</g>
<!-- Node6 -->
<g id="Node000006" class="node">
<title>Node6</title>
<g id="a_Node000006"><a xlink:href="../../d6/d0a/group__A__FUZZY.html" target="_top" xlink:title=" ">
<polygon fill="white" stroke="#666666" points="257,-915 170,-915 170,-896 257,-896 257,-915"/>
<text text-anchor="middle" x="213.5" y="-903" font-family="Helvetica,sans-Serif" font-size="10.00">fuzzy operator</text>
</a>
</g>
</g>
<!-- Node1&#45;&gt;Node6 -->
<g id="edge5" class="edge">
<title>Node1&#45;&gt;Node6</title>
<path fill="none" stroke="black" d="M52,-556.98C59.21,-623.49 86.04,-840.02 134,-887.5 143.44,-896.84 156.68,-901.73 169.61,-904.18"/>
<polygon fill="black" stroke="black" points="55.48,-556.59 50.94,-547.01 48.51,-557.32 55.48,-556.59"/>
</g>
<!-- Node7 -->
<g id="Node000007" class="node">
<title>Node7</title>
<g id="a_Node000007"><a xlink:href="../../dd/d71/group__A__HPF.html" target="_top" xlink:title=" ">
<polygon fill="white" stroke="#666666" points="259.5,-878 167.5,-878 167.5,-859 259.5,-859 259.5,-878"/>
<text text-anchor="middle" x="213.5" y="-866" font-family="Helvetica,sans-Serif" font-size="10.00">High Pass Filter</text>
</a>
</g>
</g>
<!-- Node1&#45;&gt;Node7 -->
<g id="edge6" class="edge">
<title>Node1&#45;&gt;Node7</title>
<path fill="none" stroke="black" d="M52.63,-557.31C61.29,-619.44 90.81,-808.87 134,-850.5 142.96,-859.14 155.18,-863.94 167.31,-866.54"/>
<polygon fill="black" stroke="black" points="56.08,-556.68 51.26,-547.25 49.15,-557.63 56.08,-556.68"/>
</g>
<!-- Node8 -->
<g id="Node000008" class="node">
<title>Node8</title>
<g id="a_Node000008"><a xlink:href="../../d8/de5/group__A__LIST.html" target="_top" xlink:title=" ">
<polygon fill="white" stroke="#666666" points="283,-841 144,-841 144,-822 283,-822 283,-841"/>
<text text-anchor="middle" x="213.5" y="-829" font-family="Helvetica,sans-Serif" font-size="10.00">circular doubly linked list</text>
</a>
</g>
</g>
<!-- Node1&#45;&gt;Node8 -->
<g id="edge7" class="edge">
<title>Node1&#45;&gt;Node8</title>
<path fill="none" stroke="black" d="M49.73,-557.29C50.17,-607.97 58.72,-743.31 134,-813.5 137.58,-816.84 141.65,-819.6 146,-821.88"/>
<polygon fill="black" stroke="black" points="53.23,-557.07 49.74,-547.06 46.23,-557.06 53.23,-557.07"/>
</g>
<!-- Node9 -->
<g id="Node000009" class="node">
<title>Node9</title>
<g id="a_Node000009"><a xlink:href="../../df/d27/group__A__LPF.html" target="_top" xlink:title=" ">
<polygon fill="white" stroke="#666666" points="258,-804 169,-804 169,-785 258,-785 258,-804"/>
<text text-anchor="middle" x="213.5" y="-792" font-family="Helvetica,sans-Serif" font-size="10.00">Low Pass Filter</text>
</a>
</g>
</g>
<!-- Node1&#45;&gt;Node9 -->
<g id="edge8" class="edge">
<title>Node1&#45;&gt;Node9</title>
<path fill="none" stroke="black" d="M50.92,-557.58C54.13,-603.45 68.64,-716.48 134,-775.5 143.57,-784.15 156.41,-789.03 168.92,-791.74"/>
<polygon fill="black" stroke="black" points="54.4,-557.22 50.32,-547.44 47.41,-557.63 54.4,-557.22"/>
</g>
<!-- Node10 -->
<g id="Node000010" class="node">
<title>Node10</title>
<g id="a_Node000010"><a xlink:href="../../d1/d82/group__A__MATH.html" target="_top" xlink:title=" ">
<polygon fill="white" stroke="#666666" points="281,-766.5 146,-766.5 146,-736.5 281,-736.5 281,-766.5"/>
<text text-anchor="start" x="154" y="-754.5" font-family="Helvetica,sans-Serif" font-size="10.00">mathematical algorithm</text>
<text text-anchor="middle" x="213.5" y="-743.5" font-family="Helvetica,sans-Serif" font-size="10.00"> library</text>
</a>
</g>
</g>
<!-- Node1&#45;&gt;Node10 -->
<g id="edge9" class="edge">
<title>Node1&#45;&gt;Node10</title>
<path fill="none" stroke="black" d="M53.1,-556.91C60.24,-595.22 81.45,-680.88 134,-727.5 137.84,-730.9 142.15,-733.83 146.72,-736.33"/>
<polygon fill="black" stroke="black" points="56.54,-556.28 51.38,-547.03 49.65,-557.48 56.54,-556.28"/>
</g>
<!-- Node11 -->
<g id="Node000011" class="node">
<title>Node11</title>
<g id="a_Node000011"><a xlink:href="../../dd/d37/group__A__MF.html" target="_top" xlink:title=" ">
<polygon fill="white" stroke="#666666" points="274,-718 153,-718 153,-699 274,-699 274,-718"/>
<text text-anchor="middle" x="213.5" y="-706" font-family="Helvetica,sans-Serif" font-size="10.00">membership function</text>
</a>
</g>
</g>
<!-- Node1&#45;&gt;Node11 -->
<g id="edge10" class="edge">
<title>Node1&#45;&gt;Node11</title>
<path fill="none" stroke="black" d="M55.05,-557C64.61,-589.9 88.6,-656.2 134,-690.5 139.58,-694.71 145.97,-697.97 152.65,-700.48"/>
<polygon fill="black" stroke="black" points="58.38,-555.93 52.34,-547.22 51.63,-557.79 58.38,-555.93"/>
</g>
<!-- Node12 -->
<g id="Node000012" class="node">
<title>Node12</title>
<g id="a_Node000012"><a xlink:href="../../db/ddc/group__A__NOTEFREQ.html" target="_top" xlink:title=" ">
<polygon fill="white" stroke="#666666" points="272.5,-681 154.5,-681 154.5,-662 272.5,-662 272.5,-681"/>
<text text-anchor="middle" x="213.5" y="-669" font-family="Helvetica,sans-Serif" font-size="10.00">note frequency table</text>
</a>
</g>
</g>
<!-- Node1&#45;&gt;Node12 -->
<g id="edge11" class="edge">
<title>Node1&#45;&gt;Node12</title>
<path fill="none" stroke="black" d="M58.29,-556.3C70.8,-582.36 97.03,-629.03 134,-653.5 140.18,-657.59 147.16,-660.76 154.36,-663.21"/>
<polygon fill="black" stroke="black" points="61.42,-554.71 54.05,-547.11 55.07,-557.65 61.42,-554.71"/>
</g>
<!-- Node13 -->
<g id="Node000013" class="node">
<title>Node13</title>
<g id="a_Node000013"><a xlink:href="../../dd/d76/group__A__OPERATOR.html" target="_top" xlink:title=" ">
<polygon fill="white" stroke="#666666" points="287.5,-644 139.5,-644 139.5,-625 287.5,-625 287.5,-644"/>
<text text-anchor="middle" x="213.5" y="-632" font-family="Helvetica,sans-Serif" font-size="10.00">algorithm library operators</text>
</a>
</g>
</g>
<!-- Node1&#45;&gt;Node13 -->
<g id="edge12" class="edge">
<title>Node1&#45;&gt;Node13</title>
<path fill="none" stroke="black" d="M64.05,-555.02C79.37,-572.92 105.52,-600.2 134,-615.5 141.16,-619.35 149.11,-622.43 157.12,-624.89"/>
<polygon fill="black" stroke="black" points="66.53,-552.52 57.44,-547.07 61.15,-557 66.53,-552.52"/>
</g>
<!-- Node14 -->
<g id="Node000014" class="node">
<title>Node14</title>
<g id="a_Node000014"><a xlink:href="../../d8/da8/group__A__PID.html" target="_top" xlink:title=" ">
<polygon fill="white" stroke="#666666" points="273,-606.5 154,-606.5 154,-576.5 273,-576.5 273,-606.5"/>
<text text-anchor="start" x="162" y="-594.5" font-family="Helvetica,sans-Serif" font-size="10.00">proportional integral</text>
<text text-anchor="middle" x="213.5" y="-583.5" font-family="Helvetica,sans-Serif" font-size="10.00"> derivative controller</text>
</a>
</g>
</g>
<!-- Node1&#45;&gt;Node14 -->
<g id="edge13" class="edge">
<title>Node1&#45;&gt;Node14</title>
<path fill="none" stroke="black" d="M85.05,-550.43C100.07,-555.86 117.84,-562.15 134,-567.5 143.06,-570.5 152.76,-573.58 162.14,-576.48"/>
<polygon fill="black" stroke="black" points="86.22,-547.13 75.63,-547 83.83,-553.71 86.22,-547.13"/>
</g>
<!-- Node15 -->
<g id="Node000015" class="node">
<title>Node15</title>
<g id="a_Node000015"><a xlink:href="../../dc/db1/group__A__PID__FUZZY.html" target="_top" xlink:title=" ">
<polygon fill="white" stroke="#666666" points="268.5,-558 158.5,-558 158.5,-517 268.5,-517 268.5,-558"/>
<text text-anchor="start" x="166.5" y="-546" font-family="Helvetica,sans-Serif" font-size="10.00">fuzzy proportional</text>
<text text-anchor="start" x="166.5" y="-535" font-family="Helvetica,sans-Serif" font-size="10.00"> integral derivative</text>
<text text-anchor="middle" x="213.5" y="-524" font-family="Helvetica,sans-Serif" font-size="10.00"> controller</text>
</a>
</g>
</g>
<!-- Node1&#45;&gt;Node15 -->
<g id="edge14" class="edge">
<title>Node1&#45;&gt;Node15</title>
<path fill="none" stroke="black" d="M108.75,-537.5C124.96,-537.5 142.46,-537.5 158.4,-537.5"/>
<polygon fill="black" stroke="black" points="108.32,-534 98.32,-537.5 108.32,-541 108.32,-534"/>
</g>
<!-- Node16 -->
<g id="Node000016" class="node">
<title>Node16</title>
<g id="a_Node000016"><a xlink:href="../../df/df3/group__A__PID__NEURON.html" target="_top" xlink:title=" ">
<polygon fill="white" stroke="#666666" points="293,-498.5 134,-498.5 134,-468.5 293,-468.5 293,-498.5"/>
<text text-anchor="start" x="142" y="-486.5" font-family="Helvetica,sans-Serif" font-size="10.00">single neuron proportional</text>
<text text-anchor="middle" x="213.5" y="-475.5" font-family="Helvetica,sans-Serif" font-size="10.00"> integral derivative controller</text>
</a>
</g>
</g>
<!-- Node1&#45;&gt;Node16 -->
<g id="edge15" class="edge">
<title>Node1&#45;&gt;Node16</title>
<path fill="none" stroke="black" d="M86.89,-524.55C101.53,-519.47 118.53,-513.63 134,-508.5 143.91,-505.21 154.55,-501.77 164.7,-498.52"/>
<polygon fill="black" stroke="black" points="85.47,-521.34 77.18,-527.93 87.78,-527.95 85.47,-521.34"/>
</g>
<!-- Node17 -->
<g id="Node000017" class="node">
<title>Node17</title>
<g id="a_Node000017"><a xlink:href="../../d6/de7/group__A__POLY.html" target="_top" xlink:title=" ">
<polygon fill="white" stroke="#666666" points="249,-450 178,-450 178,-431 249,-431 249,-450"/>
<text text-anchor="middle" x="213.5" y="-438" font-family="Helvetica,sans-Serif" font-size="10.00">polynomial</text>
</a>
</g>
</g>
<!-- Node1&#45;&gt;Node17 -->
<g id="edge16" class="edge">
<title>Node1&#45;&gt;Node17</title>
<path fill="none" stroke="black" d="M64.05,-519.98C79.37,-502.08 105.52,-474.8 134,-459.5 147.46,-452.27 163.69,-447.75 177.89,-444.95"/>
<polygon fill="black" stroke="black" points="61.15,-518 57.44,-527.93 66.53,-522.48 61.15,-518"/>
</g>
<!-- Node18 -->
<g id="Node000018" class="node">
<title>Node18</title>
<g id="a_Node000018"><a xlink:href="../../d7/d17/group__A__POLYTRAJ.html" target="_top" xlink:title=" ">
<polygon fill="white" stroke="#666666" points="274.5,-413 152.5,-413 152.5,-394 274.5,-394 274.5,-413"/>
<text text-anchor="middle" x="213.5" y="-401" font-family="Helvetica,sans-Serif" font-size="10.00">polynomial trajectory</text>
</a>
</g>
</g>
<!-- Node1&#45;&gt;Node18 -->
<g id="edge17" class="edge">
<title>Node1&#45;&gt;Node18</title>
<path fill="none" stroke="black" d="M58.57,-518.54C71.25,-492.7 97.51,-446.86 134,-422.5 139.83,-418.61 146.38,-415.51 153.14,-413.05"/>
<polygon fill="black" stroke="black" points="55.36,-517.14 54.24,-527.68 61.68,-520.14 55.36,-517.14"/>
</g>
<!-- Node19 -->
<g id="Node000019" class="node">
<title>Node19</title>
<g id="a_Node000019"><a xlink:href="../../df/d54/group__A__QUE.html" target="_top" xlink:title=" ">
<polygon fill="white" stroke="#666666" points="268.5,-376 158.5,-376 158.5,-357 268.5,-357 268.5,-376"/>
<text text-anchor="middle" x="213.5" y="-364" font-family="Helvetica,sans-Serif" font-size="10.00">basic queue library</text>
</a>
</g>
</g>
<!-- Node1&#45;&gt;Node19 -->
<g id="edge18" class="edge">
<title>Node1&#45;&gt;Node19</title>
<path fill="none" stroke="black" d="M55.13,-518.18C64.82,-485.58 88.99,-419.84 134,-385.5 141.13,-380.06 149.61,-376.15 158.31,-373.35"/>
<polygon fill="black" stroke="black" points="51.74,-517.3 52.39,-527.88 58.48,-519.2 51.74,-517.3"/>
</g>
<!-- Node20 -->
<g id="Node000020" class="node">
<title>Node20</title>
<g id="a_Node000020"><a xlink:href="../../dd/dd8/group__A__RBF.html" target="_top" xlink:title=" ">
<polygon fill="white" stroke="#666666" points="271.5,-339 155.5,-339 155.5,-320 271.5,-320 271.5,-339"/>
<text text-anchor="middle" x="213.5" y="-327" font-family="Helvetica,sans-Serif" font-size="10.00">radial basis function</text>
</a>
</g>
</g>
<!-- Node1&#45;&gt;Node20 -->
<g id="edge19" class="edge">
<title>Node1&#45;&gt;Node20</title>
<path fill="none" stroke="black" d="M52.9,-517.92C59.68,-479.33 80.28,-393.29 134,-348.5 140.25,-343.29 147.69,-339.47 155.47,-336.67"/>
<polygon fill="black" stroke="black" points="49.43,-517.45 51.28,-527.88 56.34,-518.57 49.43,-517.45"/>
</g>
<!-- Node21 -->
<g id="Node000021" class="node">
<title>Node21</title>
<g id="a_Node000021"><a xlink:href="../../d7/d06/group__A__RBT.html" target="_top" xlink:title=" ">
<polygon fill="white" stroke="#666666" points="262.5,-301.5 164.5,-301.5 164.5,-271.5 262.5,-271.5 262.5,-301.5"/>
<text text-anchor="start" x="172.5" y="-289.5" font-family="Helvetica,sans-Serif" font-size="10.00">red–black binary</text>
<text text-anchor="middle" x="213.5" y="-278.5" font-family="Helvetica,sans-Serif" font-size="10.00"> search tree</text>
</a>
</g>
</g>
<!-- Node1&#45;&gt;Node21 -->
<g id="edge20" class="edge">
<title>Node1&#45;&gt;Node21</title>
<path fill="none" stroke="black" d="M51.66,-517.56C56.36,-473.87 73.66,-369.04 134,-311.5 142.38,-303.5 153.32,-298.07 164.36,-294.37"/>
<polygon fill="black" stroke="black" points="48.15,-517.44 50.68,-527.73 55.12,-518.11 48.15,-517.44"/>
</g>
<!-- Node22 -->
<g id="Node000022" class="node">
<title>Node22</title>
<g id="a_Node000022"><a xlink:href="../../d1/dfe/group__A__SLIST.html" target="_top" xlink:title=" ">
<polygon fill="white" stroke="#666666" points="261.5,-253 165.5,-253 165.5,-234 261.5,-234 261.5,-253"/>
<text text-anchor="middle" x="213.5" y="-241" font-family="Helvetica,sans-Serif" font-size="10.00">singly linked list</text>
</a>
</g>
</g>
<!-- Node1&#45;&gt;Node22 -->
<g id="edge21" class="edge">
<title>Node1&#45;&gt;Node22</title>
<path fill="none" stroke="black" d="M49.8,-517.83C50.42,-467.46 59.36,-332.87 134,-262.5 142.57,-254.42 153.97,-249.6 165.42,-246.76"/>
<polygon fill="black" stroke="black" points="46.3,-517.99 49.78,-528 53.3,-518 46.3,-517.99"/>
</g>
<!-- Node23 -->
<g id="Node000023" class="node">
<title>Node23</title>
<g id="a_Node000023"><a xlink:href="../../db/d6c/group__A__STR.html" target="_top" xlink:title=" ">
<polygon fill="white" stroke="#666666" points="267,-216 160,-216 160,-197 267,-197 267,-216"/>
<text text-anchor="middle" x="213.5" y="-204" font-family="Helvetica,sans-Serif" font-size="10.00">basic string library</text>
</a>
</g>
</g>
<!-- Node1&#45;&gt;Node23 -->
<g id="edge22" class="edge">
<title>Node1&#45;&gt;Node23</title>
<path fill="none" stroke="black" d="M52.66,-517.78C61.41,-455.9 91.17,-267.25 134,-225.5 141.13,-218.55 150.34,-213.99 159.93,-211.04"/>
<polygon fill="black" stroke="black" points="49.18,-517.41 51.28,-527.79 56.12,-518.37 49.18,-517.41"/>
</g>
<!-- Node24 -->
<g id="Node000024" class="node">
<title>Node24</title>
<g id="a_Node000024"><a xlink:href="../../d0/ddd/group__A__TF.html" target="_top" xlink:title=" ">
<polygon fill="white" stroke="#666666" points="262.5,-179 164.5,-179 164.5,-160 262.5,-160 262.5,-179"/>
<text text-anchor="middle" x="213.5" y="-167" font-family="Helvetica,sans-Serif" font-size="10.00">transfer function</text>
</a>
</g>
</g>
<!-- Node1&#45;&gt;Node24 -->
<g id="edge23" class="edge">
<title>Node1&#45;&gt;Node24</title>
<path fill="none" stroke="black" d="M52.08,-517.66C59.45,-450.9 86.54,-236.02 134,-188.5 142.13,-180.36 153.1,-175.49 164.26,-172.63"/>
<polygon fill="black" stroke="black" points="48.59,-517.37 50.99,-527.69 55.55,-518.13 48.59,-517.37"/>
</g>
<!-- Node25 -->
<g id="Node000025" class="node">
<title>Node25</title>
<g id="a_Node000025"><a xlink:href="../../d9/da8/group__A__UTF.html" target="_top" xlink:title=" ">
<polygon fill="white" stroke="#666666" points="280,-141.5 147,-141.5 147,-111.5 280,-111.5 280,-141.5"/>
<text text-anchor="start" x="155" y="-129.5" font-family="Helvetica,sans-Serif" font-size="10.00">Unicode Transformation</text>
<text text-anchor="middle" x="213.5" y="-118.5" font-family="Helvetica,sans-Serif" font-size="10.00"> Format</text>
</a>
</g>
</g>
<!-- Node1&#45;&gt;Node25 -->
<g id="edge24" class="edge">
<title>Node1&#45;&gt;Node25</title>
<path fill="none" stroke="black" d="M51.73,-517.58C58.29,-446.49 83.82,-206.63 134,-151.5 137.66,-147.48 141.96,-144.1 146.63,-141.27"/>
<polygon fill="black" stroke="black" points="48.22,-517.55 50.81,-527.82 55.19,-518.17 48.22,-517.55"/>
</g>
<!-- Node26 -->
<g id="Node000026" class="node">
<title>Node26</title>
<g id="a_Node000026"><a xlink:href="../../da/d05/group__A__VEC.html" target="_top" xlink:title=" ">
<polygon fill="white" stroke="#666666" points="268.5,-93 158.5,-93 158.5,-74 268.5,-74 268.5,-93"/>
<text text-anchor="middle" x="213.5" y="-81" font-family="Helvetica,sans-Serif" font-size="10.00">basic vector library</text>
</a>
</g>
</g>
<!-- Node1&#45;&gt;Node26 -->
<g id="edge25" class="edge">
<title>Node1&#45;&gt;Node26</title>
<path fill="none" stroke="black" d="M51.07,-517.45C55.59,-440.27 75.66,-163.63 134,-102.5 140.58,-95.6 149.21,-91.03 158.32,-88.03"/>
<polygon fill="black" stroke="black" points="47.56,-517.52 50.49,-527.7 54.55,-517.92 47.56,-517.52"/>
</g>
<!-- Node27 -->
<g id="Node000027" class="node">
<title>Node27</title>
<g id="a_Node000027"><a xlink:href="../../da/df8/group__A__VECTOR.html" target="_top" xlink:title=" ">
<polygon fill="white" stroke="#666666" points="268.5,-56 158.5,-56 158.5,-37 268.5,-37 268.5,-56"/>
<text text-anchor="middle" x="213.5" y="-44" font-family="Helvetica,sans-Serif" font-size="10.00">basic vector library</text>
</a>
</g>
</g>
<!-- Node1&#45;&gt;Node27 -->
<g id="edge26" class="edge">
<title>Node1&#45;&gt;Node27</title>
<path fill="none" stroke="black" d="M50.74,-517.34C54.15,-435.92 70.96,-132.54 134,-65.5 140.53,-58.55 149.13,-53.96 158.24,-50.95"/>
<polygon fill="black" stroke="black" points="47.23,-517.56 50.33,-527.69 54.23,-517.83 47.23,-517.56"/>
</g>
<!-- Node28 -->
<g id="Node000028" class="node">
<title>Node28</title>
<g id="a_Node000028"><a xlink:href="../../d2/d1b/group__A__VERSION.html" target="_top" xlink:title=" ">
<polygon fill="white" stroke="#666666" points="282,-19 145,-19 145,0 282,0 282,-19"/>
<text text-anchor="middle" x="213.5" y="-7" font-family="Helvetica,sans-Serif" font-size="10.00">algorithm library version</text>
</a>
</g>
</g>
<!-- Node1&#45;&gt;Node28 -->
<g id="edge27" class="edge">
<title>Node1&#45;&gt;Node28</title>
<path fill="none" stroke="black" d="M50.45,-517.68C52.77,-432.88 66.12,-101.6 134,-28.5 137.53,-24.7 141.68,-21.6 146.2,-19.08"/>
<polygon fill="black" stroke="black" points="46.95,-517.68 50.19,-527.76 53.94,-517.86 46.95,-517.68"/>
</g>
</g>
</svg>

<g id="navigator" transform="translate(0 0)" fill="#404254">
  <rect fill="#f2f5e9" fill-opacity="0.5" stroke="#606060" stroke-width=".5" x="0" y="0" width="60" height="60"/>
  <use id="zoomplus" xlink:href="#zoomPlus" x="17" y="9" onmousedown="handleZoom(evt,'in')"/>
  <use id="zoomminus" xlink:href="#zoomMin" x="42" y="9" onmousedown="handleZoom(evt,'out')"/>
  <use id="reset" xlink:href="#resetDef" x="30" y="36" onmousedown="handleReset()"/>
   <use id="arrowup" xlink:href="#arrowUp" x="0" y="0" onmousedown="handlePan(0,-1)"/>
  <use id="arrowright" xlink:href="#arrowRight" x="0" y="0" onmousedown="handlePan(1,0)"/>
  <use id="arrowdown" xlink:href="#arrowDown" x="0" y="0" onmousedown="handlePan(0,1)"/>
  <use id="arrowleft" xlink:href="#arrowLeft" x="0" y="0" onmousedown="handlePan(-1,0)"/>
</g>
<svg viewBox="0 0 15 15" width="100%" height="30px" preserveAspectRatio="xMaxYMin meet">
 <g id="arrow_out" transform="scale(0.3 0.3)">
  <a xlink:href="group__A_org.svg" target="_base">
   <rect id="button" ry="5" rx="5" y="6" x="6" height="38" width="38"
        fill="#f2f5e9" fill-opacity="0.5" stroke="#606060" stroke-width="1.0"/>
   <path id="arrow"
     d="M 11.500037,31.436501 C 11.940474,20.09759 22.043105,11.32322 32.158766,21.979434 L 37.068811,17.246167 C 37.068811,17.246167 37.088388,32 37.088388,32 L 22.160133,31.978069 C 22.160133,31.978069 26.997745,27.140456 26.997745,27.140456 C 18.528582,18.264221 13.291696,25.230495 11.500037,31.436501 z"
     style="fill:#404040;"/>
  </a>
 </g>
</svg>

<style type='text/css'>
<![CDATA[
[data-mouse-over-selected='false'] { opacity: 0.7; }
[data-mouse-over-selected='true']  { opacity: 1.0; }
]]>
</style>
<script type="application/ecmascript"><![CDATA[
document.addEventListener('DOMContentLoaded', (event) => {
  highlightEdges();
  highlightAdjacentNodes();
});
]]></script>
</svg>
