<?xml version="1.0" encoding="UTF-8" standalone="no"?>
<!DOCTYPE svg PUBLIC "-//W3C//DTD SVG 1.1//EN"
 "http://www.w3.org/Graphics/SVG/1.1/DTD/svg11.dtd">
<!-- Generated by graphviz version 2.43.0 (0)
 -->
<!-- Title: algorithm library Pages: 1 -->
<!--zoomable 1081 -->

<svg id="main" version="1.1" xmlns="http://www.w3.org/2000/svg" xmlns:xlink="http://www.w3.org/1999/xlink" xml:space="preserve" onload="init(evt)">
<style type="text/css"><![CDATA[
.node, .edge {opacity: 0.7;}
.node.selected, .edge.selected {opacity: 1;}
.edge:hover path { stroke: red; }
.edge:hover polygon { stroke: red; fill: red; }
]]></style>

<defs>
  <circle id="rim" cx="0" cy="0" r="7"/>
  <circle id="rim2" cx="0" cy="0" r="3.5"/>
  <g id="zoomPlus">
    <use xlink:href="#rim" fill="#404040"><set attributeName="fill" to="#808080" begin="zoomplus.mouseover" end="zoomplus.mouseout"/></use>
    <path d="M-4,0h8M0,-4v8" fill="none" stroke="white" stroke-width="1.5" pointer-events="none"/>
  </g>
  <g id="zoomMin">
    <use xlink:href="#rim" fill="#404040"><set attributeName="fill" to="#808080" begin="zoomminus.mouseover" end="zoomminus.mouseout"/></use>
    <path d="M-4,0h8" fill="none" stroke="white" stroke-width="1.5" pointer-events="none"/>
  </g>
  <g id="arrowUp" transform="translate(30 24)">
    <use xlink:href="#rim"/>
    <path pointer-events="none" fill="none" stroke="white" stroke-width="1.5" d="M0,-3.0v7 M-2.5,-0.5L0,-3.0L2.5,-0.5"/>
  </g>
  <g id="arrowRight" transform="rotate(90) translate(36 -43)">
    <use xlink:href="#rim"/>
    <path pointer-events="none" fill="none" stroke="white" stroke-width="1.5" d="M0,-3.0v7 M-2.5,-0.5L0,-3.0L2.5,-0.5"/>
  </g>
  <g id="arrowDown" transform="rotate(180) translate(-30 -48)">
    <use xlink:href="#rim"/>
    <path pointer-events="none" fill="none" stroke="white" stroke-width="1.5" d="M0,-3.0v7 M-2.5,-0.5L0,-3.0L2.5,-0.5"/>
  </g>
  <g id="arrowLeft" transform="rotate(270) translate(-36 17)">
    <use xlink:href="#rim"/>
    <path pointer-events="none" fill="none" stroke="white" stroke-width="1.5" d="M0,-3.0v7 M-2.5,-0.5L0,-3.0L2.5,-0.5"/>
  </g>
  <g id="resetDef">
    <use xlink:href="#rim2" fill="#404040"><set attributeName="fill" to="#808080" begin="reset.mouseover" end="reset.mouseout"/></use>
  </g>
</defs>
<script type="application/ecmascript">
var viewWidth = 304;
var viewHeight = 1081;
var sectionId = 'dynsection-0';
</script>
<script type="application/ecmascript" xlink:href="../../svg.min.js"/>
<svg id="graph" class="graph">
<g id="viewport">
<title>algorithm library</title>
<!-- Node1 -->
<g id="Node000001" class="node">
<title>Node1</title>
<g id="a_Node000001"><a xlink:title=" ">
<polygon fill="#999999" stroke="#666666" points="98,-574 0,-574 0,-555 98,-555 98,-574"/>
<text text-anchor="middle" x="49" y="-562" font-family="Helvetica,sans-Serif" font-size="10.00">algorithm library</text>
</a>
</g>
</g>
<!-- Node3 -->
<g id="Node000003" class="node">
<title>Node3</title>
<g id="a_Node000003"><a xlink:href="../../d6/d8f/group__A__AVL.html" target="_top" xlink:title=" ">
<polygon fill="white" stroke="#666666" points="278,-1073 152,-1073 152,-1054 278,-1054 278,-1073"/>
<text text-anchor="middle" x="215" y="-1061" font-family="Helvetica,sans-Serif" font-size="10.00">AVL binary search tree</text>
</a>
</g>
</g>
<!-- Node1&#45;&gt;Node3 -->
<g id="edge2" class="edge">
<title>Node1&#45;&gt;Node3</title>
<path fill="none" stroke="black" d="M50.63,-584.54C53.65,-666.8 69.21,-977.5 134,-1045.5 139.01,-1050.76 145.2,-1054.63 151.89,-1057.47"/>
<polygon fill="black" stroke="black" points="54.12,-583.99 50.28,-574.11 47.12,-584.23 54.12,-583.99"/>
</g>
<!-- Node4 -->
<g id="Node000004" class="node">
<title>Node4</title>
<g id="a_Node000004"><a xlink:href="../../d0/df8/group__A__BUF.html" target="_top" xlink:title=" ">
<polygon fill="white" stroke="#666666" points="269,-1036 161,-1036 161,-1017 269,-1017 269,-1036"/>
<text text-anchor="middle" x="215" y="-1024" font-family="Helvetica,sans-Serif" font-size="10.00">basic buffer library</text>
</a>
</g>
</g>
<!-- Node1&#45;&gt;Node4 -->
<g id="edge3" class="edge">
<title>Node1&#45;&gt;Node4</title>
<path fill="none" stroke="black" d="M50.95,-584.48C55.07,-662.63 73.98,-946.39 134,-1008.5 141.22,-1015.97 150.83,-1020.65 160.88,-1023.51"/>
<polygon fill="black" stroke="black" points="54.43,-583.94 50.43,-574.13 47.43,-584.29 54.43,-583.94"/>
</g>
<!-- Node5 -->
<g id="Node000005" class="node">
<title>Node5</title>
<g id="a_Node000005"><a xlink:href="../../d6/dbb/group__A__COMPLEX.html" target="_top" xlink:title=" ">
<polygon fill="white" stroke="#666666" points="264.5,-999 165.5,-999 165.5,-980 264.5,-980 264.5,-999"/>
<text text-anchor="middle" x="215" y="-987" font-family="Helvetica,sans-Serif" font-size="10.00">complex number</text>
</a>
</g>
</g>
<!-- Node1&#45;&gt;Node5 -->
<g id="edge4" class="edge">
<title>Node1&#45;&gt;Node5</title>
<path fill="none" stroke="black" d="M51.3,-584.22C56.56,-657.84 78.69,-915.19 134,-971.5 142.28,-979.93 153.6,-984.78 165.12,-987.5"/>
<polygon fill="black" stroke="black" points="54.78,-583.78 50.6,-574.04 47.8,-584.26 54.78,-583.78"/>
</g>
<!-- Node2 -->
<g id="Node000002" class="node">
<title>Node2</title>
<g id="a_Node000002"><a xlink:href="../../d5/da3/group__A__FLOAT.html" target="_top" xlink:title=" ">
<polygon fill="white" stroke="#666666" points="276,-962 154,-962 154,-943 276,-943 276,-962"/>
<text text-anchor="middle" x="215" y="-950" font-family="Helvetica,sans-Serif" font-size="10.00">floating&#45;point number</text>
</a>
</g>
</g>
<!-- Node1&#45;&gt;Node2 -->
<g id="edge1" class="edge">
<title>Node1&#45;&gt;Node2</title>
<path fill="none" stroke="black" d="M51.74,-584.2C58.25,-653.43 83.43,-884.03 134,-934.5 139.54,-940.03 146.4,-944.02 153.74,-946.86"/>
<polygon fill="black" stroke="black" points="55.22,-583.84 50.82,-574.2 48.25,-584.48 55.22,-583.84"/>
</g>
<!-- Node6 -->
<g id="Node000006" class="node">
<title>Node6</title>
<g id="a_Node000006"><a xlink:href="../../d6/d0a/group__A__FUZZY.html" target="_top" xlink:title=" ">
<polygon fill="white" stroke="#666666" points="258.5,-925 171.5,-925 171.5,-906 258.5,-906 258.5,-925"/>
<text text-anchor="middle" x="215" y="-913" font-family="Helvetica,sans-Serif" font-size="10.00">fuzzy operator</text>
</a>
</g>
</g>
<!-- Node1&#45;&gt;Node6 -->
<g id="edge5" class="edge">
<title>Node1&#45;&gt;Node6</title>
<path fill="none" stroke="black" d="M52.28,-584.29C60.15,-649.03 88.18,-852.85 134,-897.5 143.89,-907.14 157.77,-912.06 171.2,-914.45"/>
<polygon fill="black" stroke="black" points="55.74,-583.72 51.09,-574.2 48.79,-584.55 55.74,-583.72"/>
</g>
<!-- Node11 -->
<g id="Node000011" class="node">
<title>Node11</title>
<g id="a_Node000011"><a xlink:href="../../dd/d71/group__A__HPF.html" target="_top" xlink:title=" ">
<polygon fill="white" stroke="#666666" points="261,-888 169,-888 169,-869 261,-869 261,-888"/>
<text text-anchor="middle" x="215" y="-876" font-family="Helvetica,sans-Serif" font-size="10.00">High Pass Filter</text>
</a>
</g>
</g>
<!-- Node1&#45;&gt;Node11 -->
<g id="edge10" class="edge">
<title>Node1&#45;&gt;Node11</title>
<path fill="none" stroke="black" d="M49.23,-584.3C48.32,-637.46 53.57,-784.39 134,-860.5 143.41,-869.4 156.24,-874.25 168.87,-876.8"/>
<polygon fill="black" stroke="black" points="52.73,-584.27 49.5,-574.18 45.74,-584.08 52.73,-584.27"/>
</g>
<!-- Node12 -->
<g id="Node000012" class="node">
<title>Node12</title>
<g id="a_Node000012"><a xlink:href="../../d8/de5/group__A__LIST.html" target="_top" xlink:title=" ">
<polygon fill="white" stroke="#666666" points="284.5,-851 145.5,-851 145.5,-832 284.5,-832 284.5,-851"/>
<text text-anchor="middle" x="215" y="-839" font-family="Helvetica,sans-Serif" font-size="10.00">circular doubly linked list</text>
</a>
</g>
</g>
<!-- Node1&#45;&gt;Node12 -->
<g id="edge11" class="edge">
<title>Node1&#45;&gt;Node12</title>
<path fill="none" stroke="black" d="M50.17,-584.08C51.69,-632.47 62.69,-758.49 134,-823.5 137.68,-826.86 141.85,-829.63 146.31,-831.92"/>
<polygon fill="black" stroke="black" points="53.66,-583.93 49.95,-574.01 46.67,-584.08 53.66,-583.93"/>
</g>
<!-- Node13 -->
<g id="Node000013" class="node">
<title>Node13</title>
<g id="a_Node000013"><a xlink:href="../../df/d27/group__A__LPF.html" target="_top" xlink:title=" ">
<polygon fill="white" stroke="#666666" points="259.5,-814 170.5,-814 170.5,-795 259.5,-795 259.5,-814"/>
<text text-anchor="middle" x="215" y="-802" font-family="Helvetica,sans-Serif" font-size="10.00">Low Pass Filter</text>
</a>
</g>
</g>
<!-- Node1&#45;&gt;Node13 -->
<g id="edge12" class="edge">
<title>Node1&#45;&gt;Node13</title>
<path fill="none" stroke="black" d="M51.5,-584.35C55.87,-627.76 72.55,-731.56 134,-785.5 143.98,-794.26 157.26,-799.16 170.14,-801.85"/>
<polygon fill="black" stroke="black" points="54.97,-583.88 50.59,-574.23 48,-584.5 54.97,-583.88"/>
</g>
<!-- Node14 -->
<g id="Node000014" class="node">
<title>Node14</title>
<g id="a_Node000014"><a xlink:href="../../d1/d82/group__A__MATH.html" target="_top" xlink:title=" ">
<polygon fill="white" stroke="#666666" points="282.5,-776.5 147.5,-776.5 147.5,-746.5 282.5,-746.5 282.5,-776.5"/>
<text text-anchor="start" x="155.5" y="-764.5" font-family="Helvetica,sans-Serif" font-size="10.00">mathematical algorithm</text>
<text text-anchor="middle" x="215" y="-753.5" font-family="Helvetica,sans-Serif" font-size="10.00"> library</text>
</a>
</g>
</g>
<!-- Node1&#45;&gt;Node14 -->
<g id="edge13" class="edge">
<title>Node1&#45;&gt;Node14</title>
<path fill="none" stroke="black" d="M54.06,-584.13C62.51,-619.97 85.36,-696.1 134,-737.5 138.09,-740.98 142.66,-743.95 147.5,-746.49"/>
<polygon fill="black" stroke="black" points="57.4,-583.01 51.81,-574.01 50.57,-584.53 57.4,-583.01"/>
</g>
<!-- Node15 -->
<g id="Node000015" class="node">
<title>Node15</title>
<g id="a_Node000015"><a xlink:href="../../dd/d37/group__A__MF.html" target="_top" xlink:title=" ">
<polygon fill="white" stroke="#666666" points="275.5,-728 154.5,-728 154.5,-709 275.5,-709 275.5,-728"/>
<text text-anchor="middle" x="215" y="-716" font-family="Helvetica,sans-Serif" font-size="10.00">membership function</text>
</a>
</g>
</g>
<!-- Node1&#45;&gt;Node15 -->
<g id="edge14" class="edge">
<title>Node1&#45;&gt;Node15</title>
<path fill="none" stroke="black" d="M56.42,-583.95C67.36,-613.9 92.54,-670.94 134,-700.5 140.14,-704.88 147.17,-708.22 154.46,-710.76"/>
<polygon fill="black" stroke="black" points="59.64,-582.53 53.03,-574.24 53.03,-584.83 59.64,-582.53"/>
</g>
<!-- Node16 -->
<g id="Node000016" class="node">
<title>Node16</title>
<g id="a_Node000016"><a xlink:href="../../db/ddc/group__A__NOTEFREQ.html" target="_top" xlink:title=" ">
<polygon fill="white" stroke="#666666" points="274,-691 156,-691 156,-672 274,-672 274,-691"/>
<text text-anchor="middle" x="215" y="-679" font-family="Helvetica,sans-Serif" font-size="10.00">note frequency table</text>
</a>
</g>
</g>
<!-- Node1&#45;&gt;Node16 -->
<g id="edge15" class="edge">
<title>Node1&#45;&gt;Node16</title>
<path fill="none" stroke="black" d="M60.39,-582.85C74.2,-605.47 100.76,-643.38 134,-663.5 140.7,-667.55 148.21,-670.7 155.88,-673.13"/>
<polygon fill="black" stroke="black" points="63.38,-581.02 55.28,-574.19 57.35,-584.58 63.38,-581.02"/>
</g>
<!-- Node17 -->
<g id="Node000017" class="node">
<title>Node17</title>
<g id="a_Node000017"><a xlink:href="../../df/db1/group__A__OOP.html" target="_top" xlink:title=" ">
<polygon fill="white" stroke="#666666" points="296,-654 134,-654 134,-635 296,-635 296,-654"/>
<text text-anchor="middle" x="215" y="-642" font-family="Helvetica,sans-Serif" font-size="10.00">Object Oriented Programming</text>
</a>
</g>
</g>
<!-- Node1&#45;&gt;Node17 -->
<g id="edge16" class="edge">
<title>Node1&#45;&gt;Node17</title>
<path fill="none" stroke="black" d="M67.51,-580.86C83.61,-595.01 108.73,-614.95 134,-626.5 141.38,-629.87 149.44,-632.64 157.51,-634.89"/>
<polygon fill="black" stroke="black" points="69.74,-578.15 59.97,-574.06 65.06,-583.36 69.74,-578.15"/>
</g>
<!-- Node18 -->
<g id="Node000018" class="node">
<title>Node18</title>
<g id="a_Node000018"><a xlink:href="../../dd/d76/group__A__OPERATOR.html" target="_top" xlink:title=" ">
<polygon fill="white" stroke="#666666" points="289,-617 141,-617 141,-598 289,-598 289,-617"/>
<text text-anchor="middle" x="215" y="-605" font-family="Helvetica,sans-Serif" font-size="10.00">algorithm library operators</text>
</a>
</g>
</g>
<!-- Node1&#45;&gt;Node18 -->
<g id="edge17" class="edge">
<title>Node1&#45;&gt;Node18</title>
<path fill="none" stroke="black" d="M92.1,-576.93C105.46,-580.77 120.32,-584.92 134,-588.5 146.43,-591.75 160.01,-595.06 172.39,-597.99"/>
<polygon fill="black" stroke="black" points="92.8,-573.49 82.22,-574.07 90.85,-580.21 92.8,-573.49"/>
</g>
<!-- Node19 -->
<g id="Node000019" class="node">
<title>Node19</title>
<g id="a_Node000019"><a xlink:href="../../d8/da8/group__A__PID.html" target="_top" xlink:title=" ">
<polygon fill="white" stroke="#666666" points="274.5,-579.5 155.5,-579.5 155.5,-549.5 274.5,-549.5 274.5,-579.5"/>
<text text-anchor="start" x="163.5" y="-567.5" font-family="Helvetica,sans-Serif" font-size="10.00">proportional integral</text>
<text text-anchor="middle" x="215" y="-556.5" font-family="Helvetica,sans-Serif" font-size="10.00"> derivative controller</text>
</a>
</g>
</g>
<!-- Node1&#45;&gt;Node19 -->
<g id="edge18" class="edge">
<title>Node1&#45;&gt;Node19</title>
<path fill="none" stroke="black" d="M108.61,-564.5C123.78,-564.5 140.12,-564.5 155.29,-564.5"/>
<polygon fill="black" stroke="black" points="108.32,-561 98.32,-564.5 108.32,-568 108.32,-561"/>
</g>
<!-- Node20 -->
<g id="Node000020" class="node">
<title>Node20</title>
<g id="a_Node000020"><a xlink:href="../../df/db4/group__A__PID__EXPERT.html" target="_top" xlink:title=" ">
<polygon fill="white" stroke="#666666" points="270,-531 160,-531 160,-490 270,-490 270,-531"/>
<text text-anchor="start" x="168" y="-519" font-family="Helvetica,sans-Serif" font-size="10.00">expert proportional</text>
<text text-anchor="start" x="168" y="-508" font-family="Helvetica,sans-Serif" font-size="10.00"> integral derivative</text>
<text text-anchor="middle" x="215" y="-497" font-family="Helvetica,sans-Serif" font-size="10.00"> controller</text>
</a>
</g>
</g>
<!-- Node1&#45;&gt;Node20 -->
<g id="edge19" class="edge">
<title>Node1&#45;&gt;Node20</title>
<path fill="none" stroke="black" d="M88.59,-551.79C109.83,-544.8 136.53,-536.01 159.84,-528.33"/>
<polygon fill="black" stroke="black" points="87.35,-548.52 78.94,-554.97 89.54,-555.17 87.35,-548.52"/>
</g>
<!-- Node21 -->
<g id="Node000021" class="node">
<title>Node21</title>
<g id="a_Node000021"><a xlink:href="../../dc/db1/group__A__PID__FUZZY.html" target="_top" xlink:title=" ">
<polygon fill="white" stroke="#666666" points="270,-472 160,-472 160,-431 270,-431 270,-472"/>
<text text-anchor="start" x="168" y="-460" font-family="Helvetica,sans-Serif" font-size="10.00">fuzzy proportional</text>
<text text-anchor="start" x="168" y="-449" font-family="Helvetica,sans-Serif" font-size="10.00"> integral derivative</text>
<text text-anchor="middle" x="215" y="-438" font-family="Helvetica,sans-Serif" font-size="10.00"> controller</text>
</a>
</g>
</g>
<!-- Node1&#45;&gt;Node21 -->
<g id="edge20" class="edge">
<title>Node1&#45;&gt;Node21</title>
<path fill="none" stroke="black" d="M63.77,-547.07C79.16,-528.59 105.67,-499.62 134,-481.5 142,-476.38 151,-471.95 160,-468.18"/>
<polygon fill="black" stroke="black" points="60.93,-545.02 57.33,-554.98 66.36,-549.44 60.93,-545.02"/>
</g>
<!-- Node22 -->
<g id="Node000022" class="node">
<title>Node22</title>
<g id="a_Node000022"><a xlink:href="../../d6/de7/group__A__POLY.html" target="_top" xlink:title=" ">
<polygon fill="white" stroke="#666666" points="250.5,-413 179.5,-413 179.5,-394 250.5,-394 250.5,-413"/>
<text text-anchor="middle" x="215" y="-401" font-family="Helvetica,sans-Serif" font-size="10.00">polynomial</text>
</a>
</g>
</g>
<!-- Node1&#45;&gt;Node22 -->
<g id="edge21" class="edge">
<title>Node1&#45;&gt;Node22</title>
<path fill="none" stroke="black" d="M55.93,-545.13C66.42,-514.2 91.3,-453.96 134,-422.5 146.99,-412.93 164.1,-408.11 179.16,-405.71"/>
<polygon fill="black" stroke="black" points="52.56,-544.16 52.81,-554.75 59.22,-546.32 52.56,-544.16"/>
</g>
<!-- Node23 -->
<g id="Node000023" class="node">
<title>Node23</title>
<g id="a_Node000023"><a xlink:href="../../d1/d97/group__A__POLYTRACK.html" target="_top" xlink:title=" ">
<polygon fill="white" stroke="#666666" points="276,-376 154,-376 154,-357 276,-357 276,-376"/>
<text text-anchor="middle" x="215" y="-364" font-family="Helvetica,sans-Serif" font-size="10.00">polynomial trajectory</text>
</a>
</g>
</g>
<!-- Node1&#45;&gt;Node23 -->
<g id="edge22" class="edge">
<title>Node1&#45;&gt;Node23</title>
<path fill="none" stroke="black" d="M53.41,-544.93C60.95,-507.84 82.58,-427.3 134,-385.5 139.87,-380.73 146.74,-377.12 153.94,-374.39"/>
<polygon fill="black" stroke="black" points="49.94,-544.47 51.51,-554.95 56.81,-545.78 49.94,-544.47"/>
</g>
<!-- Node7 -->
<g id="Node000007" class="node">
<title>Node7</title>
<g id="a_Node000007"><a xlink:href="../../df/d54/group__A__QUE.html" target="_top" xlink:title=" ">
<polygon fill="white" stroke="#666666" points="270,-339 160,-339 160,-320 270,-320 270,-339"/>
<text text-anchor="middle" x="215" y="-327" font-family="Helvetica,sans-Serif" font-size="10.00">basic queue library</text>
</a>
</g>
</g>
<!-- Node1&#45;&gt;Node7 -->
<g id="edge6" class="edge">
<title>Node1&#45;&gt;Node7</title>
<path fill="none" stroke="black" d="M51.67,-544.82C56.39,-502.21 73.69,-401.03 134,-348.5 141.32,-342.12 150.4,-337.8 159.78,-334.88"/>
<polygon fill="black" stroke="black" points="48.17,-544.69 50.67,-554.98 55.14,-545.37 48.17,-544.69"/>
</g>
<!-- Node24 -->
<g id="Node000024" class="node">
<title>Node24</title>
<g id="a_Node000024"><a xlink:href="../../d7/d06/group__A__RBT.html" target="_top" xlink:title=" ">
<polygon fill="white" stroke="#666666" points="264,-301.5 166,-301.5 166,-271.5 264,-271.5 264,-301.5"/>
<text text-anchor="start" x="174" y="-289.5" font-family="Helvetica,sans-Serif" font-size="10.00">red–black binary</text>
<text text-anchor="middle" x="215" y="-278.5" font-family="Helvetica,sans-Serif" font-size="10.00"> search tree</text>
</a>
</g>
</g>
<!-- Node1&#45;&gt;Node24 -->
<g id="edge23" class="edge">
<title>Node1&#45;&gt;Node24</title>
<path fill="none" stroke="black" d="M50.7,-544.77C53.46,-497.59 67.05,-377.27 134,-311.5 142.72,-302.93 154.33,-297.3 166,-293.59"/>
<polygon fill="black" stroke="black" points="47.2,-544.72 50.22,-554.88 54.19,-545.06 47.2,-544.72"/>
</g>
<!-- Node25 -->
<g id="Node000025" class="node">
<title>Node25</title>
<g id="a_Node000025"><a xlink:href="../../d1/dfe/group__A__SLIST.html" target="_top" xlink:title=" ">
<polygon fill="white" stroke="#666666" points="282.5,-253 147.5,-253 147.5,-234 282.5,-234 282.5,-253"/>
<text text-anchor="middle" x="215" y="-241" font-family="Helvetica,sans-Serif" font-size="10.00">circular singly linked list</text>
</a>
</g>
</g>
<!-- Node1&#45;&gt;Node25 -->
<g id="edge24" class="edge">
<title>Node1&#45;&gt;Node25</title>
<path fill="none" stroke="black" d="M49.15,-544.72C47.98,-490.95 52.54,-340.91 134,-262.5 137.91,-258.74 142.42,-255.67 147.27,-253.18"/>
<polygon fill="black" stroke="black" points="45.66,-545.05 49.47,-554.93 52.65,-544.83 45.66,-545.05"/>
</g>
<!-- Node8 -->
<g id="Node000008" class="node">
<title>Node8</title>
<g id="a_Node000008"><a xlink:href="../../db/d6c/group__A__STR.html" target="_top" xlink:title=" ">
<polygon fill="white" stroke="#666666" points="268.5,-216 161.5,-216 161.5,-197 268.5,-197 268.5,-216"/>
<text text-anchor="middle" x="215" y="-204" font-family="Helvetica,sans-Serif" font-size="10.00">basic string library</text>
</a>
</g>
</g>
<!-- Node1&#45;&gt;Node8 -->
<g id="edge7" class="edge">
<title>Node1&#45;&gt;Node8</title>
<path fill="none" stroke="black" d="M52.2,-544.81C59.89,-479.47 87.67,-271.38 134,-225.5 141.4,-218.17 151.09,-213.47 161.16,-210.5"/>
<polygon fill="black" stroke="black" points="48.7,-544.63 51.03,-554.97 55.65,-545.43 48.7,-544.63"/>
</g>
<!-- Node26 -->
<g id="Node000026" class="node">
<title>Node26</title>
<g id="a_Node000026"><a xlink:href="../../d0/ddd/group__A__TF.html" target="_top" xlink:title=" ">
<polygon fill="white" stroke="#666666" points="264,-179 166,-179 166,-160 264,-160 264,-179"/>
<text text-anchor="middle" x="215" y="-167" font-family="Helvetica,sans-Serif" font-size="10.00">transfer function</text>
</a>
</g>
</g>
<!-- Node1&#45;&gt;Node26 -->
<g id="edge25" class="edge">
<title>Node1&#45;&gt;Node26</title>
<path fill="none" stroke="black" d="M51.71,-544.5C58.13,-474.24 83.05,-240.14 134,-188.5 142.42,-179.96 153.93,-174.98 165.59,-172.15"/>
<polygon fill="black" stroke="black" points="48.21,-544.38 50.81,-554.65 55.18,-545 48.21,-544.38"/>
</g>
<!-- Node27 -->
<g id="Node000027" class="node">
<title>Node27</title>
<g id="a_Node000027"><a xlink:href="../../d9/da8/group__A__UTF.html" target="_top" xlink:title=" ">
<polygon fill="white" stroke="#666666" points="281.5,-141.5 148.5,-141.5 148.5,-111.5 281.5,-111.5 281.5,-141.5"/>
<text text-anchor="start" x="156.5" y="-129.5" font-family="Helvetica,sans-Serif" font-size="10.00">Unicode Transformation</text>
<text text-anchor="middle" x="215" y="-118.5" font-family="Helvetica,sans-Serif" font-size="10.00"> Format</text>
</a>
</g>
</g>
<!-- Node1&#45;&gt;Node27 -->
<g id="edge26" class="edge">
<title>Node1&#45;&gt;Node27</title>
<path fill="none" stroke="black" d="M51.41,-544.63C57.05,-470.45 80.37,-210.92 134,-151.5 138.1,-146.96 143,-143.24 148.34,-140.19"/>
<polygon fill="black" stroke="black" points="47.9,-544.66 50.65,-554.89 54.88,-545.17 47.9,-544.66"/>
</g>
<!-- Node9 -->
<g id="Node000009" class="node">
<title>Node9</title>
<g id="a_Node000009"><a xlink:href="../../da/d05/group__A__VEC.html" target="_top" xlink:title=" ">
<polygon fill="white" stroke="#666666" points="270,-93 160,-93 160,-74 270,-74 270,-93"/>
<text text-anchor="middle" x="215" y="-81" font-family="Helvetica,sans-Serif" font-size="10.00">basic vector library</text>
</a>
</g>
</g>
<!-- Node1&#45;&gt;Node9 -->
<g id="edge8" class="edge">
<title>Node1&#45;&gt;Node9</title>
<path fill="none" stroke="black" d="M50.8,-544.76C54.43,-465.02 71.99,-167.91 134,-102.5 140.97,-95.14 150.23,-90.41 159.97,-87.4"/>
<polygon fill="black" stroke="black" points="47.3,-544.75 50.36,-554.89 54.29,-545.05 47.3,-544.75"/>
</g>
<!-- Node10 -->
<g id="Node000010" class="node">
<title>Node10</title>
<g id="a_Node000010"><a xlink:href="../../da/df8/group__A__VECTOR.html" target="_top" xlink:title=" ">
<polygon fill="white" stroke="#666666" points="270,-56 160,-56 160,-37 270,-37 270,-56"/>
<text text-anchor="middle" x="215" y="-44" font-family="Helvetica,sans-Serif" font-size="10.00">basic vector library</text>
</a>
</g>
</g>
<!-- Node1&#45;&gt;Node10 -->
<g id="edge9" class="edge">
<title>Node1&#45;&gt;Node10</title>
<path fill="none" stroke="black" d="M50.51,-544.81C53.07,-461.22 67.21,-136.88 134,-65.5 140.92,-58.1 150.16,-53.34 159.9,-50.33"/>
<polygon fill="black" stroke="black" points="47,-544.85 50.22,-554.95 54,-545.05 47,-544.85"/>
</g>
<!-- Node28 -->
<g id="Node000028" class="node">
<title>Node28</title>
<g id="a_Node000028"><a xlink:href="../../d2/d1b/group__A__VERSION.html" target="_top" xlink:title=" ">
<polygon fill="white" stroke="#666666" points="283.5,-19 146.5,-19 146.5,0 283.5,0 283.5,-19"/>
<text text-anchor="middle" x="215" y="-7" font-family="Helvetica,sans-Serif" font-size="10.00">algorithm library version</text>
</a>
</g>
</g>
<!-- Node1&#45;&gt;Node28 -->
<g id="edge27" class="edge">
<title>Node1&#45;&gt;Node28</title>
<path fill="none" stroke="black" d="M50.26,-544.47C51.83,-456.56 62.53,-105.75 134,-28.5 137.59,-24.62 141.81,-21.47 146.41,-18.91"/>
<polygon fill="black" stroke="black" points="46.76,-544.62 50.1,-554.68 53.76,-544.73 46.76,-544.62"/>
</g>
</g>
</svg>

<g id="navigator" transform="translate(0 0)" fill="#404254">
  <rect fill="#f2f5e9" fill-opacity="0.5" stroke="#606060" stroke-width=".5" x="0" y="0" width="60" height="60"/>
  <use id="zoomplus" xlink:href="#zoomPlus" x="17" y="9" onmousedown="handleZoom(evt,'in')"/>
  <use id="zoomminus" xlink:href="#zoomMin" x="42" y="9" onmousedown="handleZoom(evt,'out')"/>
  <use id="reset" xlink:href="#resetDef" x="30" y="36" onmousedown="handleReset()"/>
   <use id="arrowup" xlink:href="#arrowUp" x="0" y="0" onmousedown="handlePan(0,-1)"/>
  <use id="arrowright" xlink:href="#arrowRight" x="0" y="0" onmousedown="handlePan(1,0)"/>
  <use id="arrowdown" xlink:href="#arrowDown" x="0" y="0" onmousedown="handlePan(0,1)"/>
  <use id="arrowleft" xlink:href="#arrowLeft" x="0" y="0" onmousedown="handlePan(-1,0)"/>
</g>
<svg viewBox="0 0 15 15" width="100%" height="30px" preserveAspectRatio="xMaxYMin meet">
 <g id="arrow_out" transform="scale(0.3 0.3)">
  <a xlink:href="group__A_org.svg" target="_base">
   <rect id="button" ry="5" rx="5" y="6" x="6" height="38" width="38"
        fill="#f2f5e9" fill-opacity="0.5" stroke="#606060" stroke-width="1.0"/>
   <path id="arrow"
     d="M 11.500037,31.436501 C 11.940474,20.09759 22.043105,11.32322 32.158766,21.979434 L 37.068811,17.246167 C 37.068811,17.246167 37.088388,32 37.088388,32 L 22.160133,31.978069 C 22.160133,31.978069 26.997745,27.140456 26.997745,27.140456 C 18.528582,18.264221 13.291696,25.230495 11.500037,31.436501 z"
     style="fill:#404040;"/>
  </a>
 </g>
</svg>

<style type='text/css'>
<![CDATA[
[data-mouse-over-selected='false'] { opacity: 0.7; }
[data-mouse-over-selected='true']  { opacity: 1.0; }
]]>
</style>
<script type="application/ecmascript"><![CDATA[
document.addEventListener('DOMContentLoaded', (event) => {
  highlightEdges();
  highlightAdjacentNodes();
});
]]></script>
</svg>
