<?xml version="1.0" encoding="UTF-8" standalone="no"?>
<!DOCTYPE svg PUBLIC "-//W3C//DTD SVG 1.1//EN"
 "http://www.w3.org/Graphics/SVG/1.1/DTD/svg11.dtd">
<!-- Generated by graphviz version 2.43.0 (0)
 -->
<!-- Title: cubic polynomial trajectory Pages: 1 -->
<svg width="495pt" height="515pt"
 viewBox="0.00 0.00 495.00 515.00" xmlns="http://www.w3.org/2000/svg" xmlns:xlink="http://www.w3.org/1999/xlink">
<g id="graph0" class="graph" transform="scale(1 1) rotate(0) translate(4 511)">
<title>cubic polynomial trajectory</title>
<!-- Node2 -->
<g id="Node000002" class="node">
<title>Node2</title>
<g id="a_Node000002"><a xlink:href="../../df/d91/group__A.html" target="_top" xlink:title=" ">
<polygon fill="white" stroke="#666666" points="98,-257 0,-257 0,-238 98,-238 98,-257"/>
<text text-anchor="middle" x="49" y="-245" font-family="Helvetica,sans-Serif" font-size="10.00">algorithm library</text>
</a>
</g>
</g>
<!-- Node1 -->
<g id="Node000001" class="node">
<title>Node1</title>
<g id="a_Node000001"><a xlink:title=" ">
<polygon fill="#999999" stroke="#666666" points="285,-257 135,-257 135,-238 285,-238 285,-257"/>
<text text-anchor="middle" x="210" y="-245" font-family="Helvetica,sans-Serif" font-size="10.00">cubic polynomial trajectory</text>
</a>
</g>
</g>
<!-- Node2&#45;&gt;Node1 -->
<g id="edge1" class="edge">
<title>Node2&#45;&gt;Node1</title>
<path fill="none" stroke="black" d="M108.16,-247.5C116.86,-247.5 125.93,-247.5 134.91,-247.5"/>
<polygon fill="black" stroke="black" points="108.14,-244 98.14,-247.5 108.14,-251 108.14,-244"/>
</g>
<!-- Node3 -->
<g id="Node000003" class="node">
<title>Node3</title>
<g id="a_Node000003"><a xlink:href="../../dd/d71/group__A__HPF.html" target="_top" xlink:title=" ">
<polygon fill="white" stroke="#666666" points="453.5,-507 361.5,-507 361.5,-488 453.5,-488 453.5,-507"/>
<text text-anchor="middle" x="407.5" y="-495" font-family="Helvetica,sans-Serif" font-size="10.00">High Pass Filter</text>
</a>
</g>
</g>
<!-- Node4 -->
<g id="Node000004" class="node">
<title>Node4</title>
<g id="a_Node000004"><a xlink:href="../../df/d27/group__A__LPF.html" target="_top" xlink:title=" ">
<polygon fill="white" stroke="#666666" points="452,-470 363,-470 363,-451 452,-451 452,-470"/>
<text text-anchor="middle" x="407.5" y="-458" font-family="Helvetica,sans-Serif" font-size="10.00">Low Pass Filter</text>
</a>
</g>
</g>
<!-- Node5 -->
<g id="Node000005" class="node">
<title>Node5</title>
<g id="a_Node000005"><a xlink:href="../../d8/da8/group__A__PID.html" target="_top" xlink:title=" ">
<polygon fill="white" stroke="#666666" points="467,-432.5 348,-432.5 348,-402.5 467,-402.5 467,-432.5"/>
<text text-anchor="start" x="356" y="-420.5" font-family="Helvetica,sans-Serif" font-size="10.00">proportional integral</text>
<text text-anchor="middle" x="407.5" y="-409.5" font-family="Helvetica,sans-Serif" font-size="10.00"> derivative controller</text>
</a>
</g>
</g>
<!-- Node6 -->
<g id="Node000006" class="node">
<title>Node6</title>
<g id="a_Node000006"><a xlink:href="../../dc/db1/group__A__PID__FUZZY.html" target="_top" xlink:title=" ">
<polygon fill="white" stroke="#666666" points="462.5,-384 352.5,-384 352.5,-343 462.5,-343 462.5,-384"/>
<text text-anchor="start" x="360.5" y="-372" font-family="Helvetica,sans-Serif" font-size="10.00">fuzzy proportional</text>
<text text-anchor="start" x="360.5" y="-361" font-family="Helvetica,sans-Serif" font-size="10.00"> integral derivative</text>
<text text-anchor="middle" x="407.5" y="-350" font-family="Helvetica,sans-Serif" font-size="10.00"> controller</text>
</a>
</g>
</g>
<!-- Node7 -->
<g id="Node000007" class="node">
<title>Node7</title>
<g id="a_Node000007"><a xlink:href="../../db/d33/group__A__PID__NEURO.html" target="_top" xlink:title=" ">
<polygon fill="white" stroke="#666666" points="487,-324.5 328,-324.5 328,-294.5 487,-294.5 487,-324.5"/>
<text text-anchor="start" x="336" y="-312.5" font-family="Helvetica,sans-Serif" font-size="10.00">single neuron proportional</text>
<text text-anchor="middle" x="407.5" y="-301.5" font-family="Helvetica,sans-Serif" font-size="10.00"> integral derivative controller</text>
</a>
</g>
</g>
<!-- Node8 -->
<g id="Node000008" class="node">
<title>Node8</title>
<g id="a_Node000008"><a xlink:href="../../dd/dd8/group__A__RBF.html" target="_top" xlink:title=" ">
<polygon fill="white" stroke="#666666" points="465.5,-276 349.5,-276 349.5,-257 465.5,-257 465.5,-276"/>
<text text-anchor="middle" x="407.5" y="-264" font-family="Helvetica,sans-Serif" font-size="10.00">radial basis function</text>
</a>
</g>
</g>
<!-- Node9 -->
<g id="Node000009" class="node">
<title>Node9</title>
<g id="a_Node000009"><a xlink:href="../../d0/ddd/group__A__TF.html" target="_top" xlink:title=" ">
<polygon fill="white" stroke="#666666" points="456.5,-239 358.5,-239 358.5,-220 456.5,-220 456.5,-239"/>
<text text-anchor="middle" x="407.5" y="-227" font-family="Helvetica,sans-Serif" font-size="10.00">transfer function</text>
</a>
</g>
</g>
<!-- Node10 -->
<g id="Node000010" class="node">
<title>Node10</title>
<g id="a_Node000010"><a xlink:href="../../d6/d1e/group__A__TRAJBELL.html" target="_top" xlink:title=" ">
<polygon fill="white" stroke="#666666" points="465.5,-201.5 349.5,-201.5 349.5,-171.5 465.5,-171.5 465.5,-201.5"/>
<text text-anchor="start" x="357.5" y="-189.5" font-family="Helvetica,sans-Serif" font-size="10.00">bell&#45;shaped velocity</text>
<text text-anchor="middle" x="407.5" y="-178.5" font-family="Helvetica,sans-Serif" font-size="10.00"> trajectory</text>
</a>
</g>
</g>
<!-- Node1&#45;&gt;Node3 -->
<g id="edge2" class="edge">
<title>Node1&#45;&gt;Node3</title>
<path fill="none" stroke="blueviolet" stroke-dasharray="5,2" d="M212.56,-257.08C219.02,-293.29 247.2,-422.66 328,-479.5 337.72,-486.34 349.64,-490.62 361.23,-493.29"/>
<text text-anchor="middle" x="306.5" y="-464.5" font-family="Helvetica,sans-Serif" font-size="10.00">a</text>
</g>
<!-- Node1&#45;&gt;Node4 -->
<g id="edge3" class="edge">
<title>Node1&#45;&gt;Node4</title>
<path fill="none" stroke="blueviolet" stroke-dasharray="5,2" d="M213.93,-257.43C223.97,-289.6 260.13,-391.72 328,-441.5 338.06,-448.88 350.62,-453.43 362.71,-456.21"/>
<text text-anchor="middle" x="306.5" y="-428.5" font-family="Helvetica,sans-Serif" font-size="10.00">a</text>
</g>
<!-- Node1&#45;&gt;Node5 -->
<g id="edge4" class="edge">
<title>Node1&#45;&gt;Node5</title>
<path fill="none" stroke="blueviolet" stroke-dasharray="5,2" d="M216.1,-257.35C230.2,-283.59 272.35,-355.76 328,-393.5 334.02,-397.58 340.75,-400.99 347.68,-403.83"/>
<text text-anchor="middle" x="306.5" y="-380.5" font-family="Helvetica,sans-Serif" font-size="10.00">a</text>
</g>
<!-- Node1&#45;&gt;Node6 -->
<g id="edge5" class="edge">
<title>Node1&#45;&gt;Node6</title>
<path fill="none" stroke="blueviolet" stroke-dasharray="5,2" d="M221.94,-257.13C241.87,-274.3 285.95,-310.56 328,-333.5 335.68,-337.69 344.08,-341.57 352.43,-345.04"/>
<text text-anchor="middle" x="306.5" y="-323.5" font-family="Helvetica,sans-Serif" font-size="10.00">a</text>
</g>
<!-- Node1&#45;&gt;Node7 -->
<g id="edge6" class="edge">
<title>Node1&#45;&gt;Node7</title>
<path fill="none" stroke="blueviolet" stroke-dasharray="5,2" d="M239.8,-257.01C263.46,-264.78 297.85,-276 328,-285.5 337.24,-288.41 347.11,-291.47 356.63,-294.39"/>
<text text-anchor="middle" x="306.5" y="-281.5" font-family="Helvetica,sans-Serif" font-size="10.00">a</text>
</g>
<!-- Node1&#45;&gt;Node8 -->
<g id="edge7" class="edge">
<title>Node1&#45;&gt;Node8</title>
<path fill="none" stroke="blueviolet" stroke-dasharray="5,2" d="M285.19,-254.71C306.47,-256.78 329.33,-259 349.41,-260.95"/>
<text text-anchor="middle" x="306.5" y="-259.5" font-family="Helvetica,sans-Serif" font-size="10.00">a</text>
</g>
<!-- Node1&#45;&gt;Node9 -->
<g id="edge8" class="edge">
<title>Node1&#45;&gt;Node9</title>
<path fill="none" stroke="blueviolet" stroke-dasharray="5,2" d="M266.82,-237.98C278.73,-236.23 291.26,-234.62 303,-233.5 320.99,-231.79 340.81,-230.8 358.24,-230.24"/>
<text text-anchor="middle" x="306.5" y="-236.5" font-family="Helvetica,sans-Serif" font-size="10.00">a</text>
</g>
<!-- Node1&#45;&gt;Node10 -->
<g id="edge9" class="edge">
<title>Node1&#45;&gt;Node10</title>
<path fill="none" stroke="blueviolet" stroke-dasharray="5,2" d="M239.54,-238C257.68,-232.01 281.67,-224.17 303,-217.5 320.01,-212.18 338.64,-206.54 355.36,-201.55"/>
<text text-anchor="middle" x="306.5" y="-220.5" font-family="Helvetica,sans-Serif" font-size="10.00">a</text>
</g>
<!-- Node11 -->
<g id="Node000011" class="node">
<title>Node11</title>
<g id="a_Node000011"><a xlink:href="../../d2/d61/group__A__TRAJPOLY5.html" target="_top" xlink:title=" ">
<polygon fill="white" stroke="#666666" points="461,-153.5 354,-153.5 354,-123.5 461,-123.5 461,-153.5"/>
<text text-anchor="start" x="362" y="-141.5" font-family="Helvetica,sans-Serif" font-size="10.00">quintic polynomial</text>
<text text-anchor="middle" x="407.5" y="-130.5" font-family="Helvetica,sans-Serif" font-size="10.00"> trajectory</text>
</a>
</g>
</g>
<!-- Node1&#45;&gt;Node11 -->
<g id="edge10" class="edge">
<title>Node1&#45;&gt;Node11</title>
<path fill="none" stroke="blueviolet" stroke-dasharray="5,2" d="M221.5,-237.98C241.08,-220.68 285.08,-183.9 328,-162.5 336.04,-158.49 344.87,-155.01 353.62,-152.02"/>
<text text-anchor="middle" x="306.5" y="-178.5" font-family="Helvetica,sans-Serif" font-size="10.00">a</text>
</g>
<!-- Node12 -->
<g id="Node000012" class="node">
<title>Node12</title>
<g id="a_Node000012"><a xlink:href="../../d9/dab/group__A__TRAJPOLY7.html" target="_top" xlink:title=" ">
<polygon fill="white" stroke="#666666" points="483.5,-105 331.5,-105 331.5,-86 483.5,-86 483.5,-105"/>
<text text-anchor="middle" x="407.5" y="-93" font-family="Helvetica,sans-Serif" font-size="10.00">hepta polynomial trajectory</text>
</a>
</g>
</g>
<!-- Node1&#45;&gt;Node12 -->
<g id="edge11" class="edge">
<title>Node1&#45;&gt;Node12</title>
<path fill="none" stroke="blueviolet" stroke-dasharray="5,2" d="M216.66,-237.65C231.47,-212.77 274.04,-147.1 328,-114.5 334.48,-110.59 341.72,-107.48 349.11,-105.01"/>
<text text-anchor="middle" x="306.5" y="-133.5" font-family="Helvetica,sans-Serif" font-size="10.00">a</text>
</g>
<!-- Node13 -->
<g id="Node000013" class="node">
<title>Node13</title>
<g id="a_Node000013"><a xlink:href="../../d7/d57/group__A__TRAJTRAP.html" target="_top" xlink:title=" ">
<polygon fill="white" stroke="#666666" points="464,-67.5 351,-67.5 351,-37.5 464,-37.5 464,-67.5"/>
<text text-anchor="start" x="359" y="-55.5" font-family="Helvetica,sans-Serif" font-size="10.00">trapezoidal velocity</text>
<text text-anchor="middle" x="407.5" y="-44.5" font-family="Helvetica,sans-Serif" font-size="10.00"> trajectory</text>
</a>
</g>
</g>
<!-- Node1&#45;&gt;Node13 -->
<g id="edge12" class="edge">
<title>Node1&#45;&gt;Node13</title>
<path fill="none" stroke="blueviolet" stroke-dasharray="5,2" d="M214.91,-237.71C227.03,-208.63 266.89,-122 328,-77.5 334.82,-72.53 342.67,-68.53 350.71,-65.3"/>
<text text-anchor="middle" x="306.5" y="-97.5" font-family="Helvetica,sans-Serif" font-size="10.00">a</text>
</g>
<!-- Node14 -->
<g id="Node000014" class="node">
<title>Node14</title>
<g id="a_Node000014"><a xlink:href="../../d2/d1b/group__A__VERSION.html" target="_top" xlink:title=" ">
<polygon fill="white" stroke="#666666" points="476,-19 339,-19 339,0 476,0 476,-19"/>
<text text-anchor="middle" x="407.5" y="-7" font-family="Helvetica,sans-Serif" font-size="10.00">algorithm library version</text>
</a>
</g>
</g>
<!-- Node1&#45;&gt;Node14 -->
<g id="edge13" class="edge">
<title>Node1&#45;&gt;Node14</title>
<path fill="none" stroke="blueviolet" stroke-dasharray="5,2" d="M213.17,-237.79C221.4,-203.3 254.03,-85.76 328,-28.5 332.99,-24.64 338.65,-21.55 344.59,-19.07"/>
<text text-anchor="middle" x="306.5" y="-53.5" font-family="Helvetica,sans-Serif" font-size="10.00">a</text>
</g>
</g>
</svg>
