<?xml version="1.0" encoding="UTF-8" standalone="no"?>
<!DOCTYPE svg PUBLIC "-//W3C//DTD SVG 1.1//EN"
 "http://www.w3.org/Graphics/SVG/1.1/DTD/svg11.dtd">
<!-- Generated by graphviz version 2.43.0 (0)
 -->
<!-- Title: cubic polynomial trajectory Pages: 1 -->
<svg width="495pt" height="478pt"
 viewBox="0.00 0.00 495.00 478.00" xmlns="http://www.w3.org/2000/svg" xmlns:xlink="http://www.w3.org/1999/xlink">
<g id="graph0" class="graph" transform="scale(1 1) rotate(0) translate(4 474)">
<title>cubic polynomial trajectory</title>
<!-- Node2 -->
<g id="Node000002" class="node">
<title>Node2</title>
<g id="a_Node000002"><a xlink:href="../../df/d91/group__A.html" target="_top" xlink:title=" ">
<polygon fill="white" stroke="#666666" points="98,-239 0,-239 0,-220 98,-220 98,-239"/>
<text text-anchor="middle" x="49" y="-227" font-family="Helvetica,sans-Serif" font-size="10.00">algorithm library</text>
</a>
</g>
</g>
<!-- Node1 -->
<g id="Node000001" class="node">
<title>Node1</title>
<g id="a_Node000001"><a xlink:title=" ">
<polygon fill="#999999" stroke="#666666" points="285,-239 135,-239 135,-220 285,-220 285,-239"/>
<text text-anchor="middle" x="210" y="-227" font-family="Helvetica,sans-Serif" font-size="10.00">cubic polynomial trajectory</text>
</a>
</g>
</g>
<!-- Node2&#45;&gt;Node1 -->
<g id="edge1" class="edge">
<title>Node2&#45;&gt;Node1</title>
<path fill="none" stroke="black" d="M108.16,-229.5C116.86,-229.5 125.93,-229.5 134.91,-229.5"/>
<polygon fill="black" stroke="black" points="108.14,-226 98.14,-229.5 108.14,-233 108.14,-226"/>
</g>
<!-- Node3 -->
<g id="Node000003" class="node">
<title>Node3</title>
<g id="a_Node000003"><a xlink:href="../../dd/d71/group__A__HPF.html" target="_top" xlink:title=" ">
<polygon fill="white" stroke="#666666" points="453.5,-470 361.5,-470 361.5,-451 453.5,-451 453.5,-470"/>
<text text-anchor="middle" x="407.5" y="-458" font-family="Helvetica,sans-Serif" font-size="10.00">High Pass Filter</text>
</a>
</g>
</g>
<!-- Node4 -->
<g id="Node000004" class="node">
<title>Node4</title>
<g id="a_Node000004"><a xlink:href="../../df/d27/group__A__LPF.html" target="_top" xlink:title=" ">
<polygon fill="white" stroke="#666666" points="452,-433 363,-433 363,-414 452,-414 452,-433"/>
<text text-anchor="middle" x="407.5" y="-421" font-family="Helvetica,sans-Serif" font-size="10.00">Low Pass Filter</text>
</a>
</g>
</g>
<!-- Node5 -->
<g id="Node000005" class="node">
<title>Node5</title>
<g id="a_Node000005"><a xlink:href="../../d8/da8/group__A__PID.html" target="_top" xlink:title=" ">
<polygon fill="white" stroke="#666666" points="467,-395.5 348,-395.5 348,-365.5 467,-365.5 467,-395.5"/>
<text text-anchor="start" x="356" y="-383.5" font-family="Helvetica,sans-Serif" font-size="10.00">proportional integral</text>
<text text-anchor="middle" x="407.5" y="-372.5" font-family="Helvetica,sans-Serif" font-size="10.00"> derivative controller</text>
</a>
</g>
</g>
<!-- Node6 -->
<g id="Node000006" class="node">
<title>Node6</title>
<g id="a_Node000006"><a xlink:href="../../dc/db1/group__A__PID__FUZZY.html" target="_top" xlink:title=" ">
<polygon fill="white" stroke="#666666" points="462.5,-347 352.5,-347 352.5,-306 462.5,-306 462.5,-347"/>
<text text-anchor="start" x="360.5" y="-335" font-family="Helvetica,sans-Serif" font-size="10.00">fuzzy proportional</text>
<text text-anchor="start" x="360.5" y="-324" font-family="Helvetica,sans-Serif" font-size="10.00"> integral derivative</text>
<text text-anchor="middle" x="407.5" y="-313" font-family="Helvetica,sans-Serif" font-size="10.00"> controller</text>
</a>
</g>
</g>
<!-- Node7 -->
<g id="Node000007" class="node">
<title>Node7</title>
<g id="a_Node000007"><a xlink:href="../../db/d33/group__A__PID__NEURO.html" target="_top" xlink:title=" ">
<polygon fill="white" stroke="#666666" points="487,-287.5 328,-287.5 328,-257.5 487,-257.5 487,-287.5"/>
<text text-anchor="start" x="336" y="-275.5" font-family="Helvetica,sans-Serif" font-size="10.00">single neuron proportional</text>
<text text-anchor="middle" x="407.5" y="-264.5" font-family="Helvetica,sans-Serif" font-size="10.00"> integral derivative controller</text>
</a>
</g>
</g>
<!-- Node8 -->
<g id="Node000008" class="node">
<title>Node8</title>
<g id="a_Node000008"><a xlink:href="../../d0/ddd/group__A__TF.html" target="_top" xlink:title=" ">
<polygon fill="white" stroke="#666666" points="456.5,-239 358.5,-239 358.5,-220 456.5,-220 456.5,-239"/>
<text text-anchor="middle" x="407.5" y="-227" font-family="Helvetica,sans-Serif" font-size="10.00">transfer function</text>
</a>
</g>
</g>
<!-- Node9 -->
<g id="Node000009" class="node">
<title>Node9</title>
<g id="a_Node000009"><a xlink:href="../../d6/d1e/group__A__TRAJBELL.html" target="_top" xlink:title=" ">
<polygon fill="white" stroke="#666666" points="465.5,-201.5 349.5,-201.5 349.5,-171.5 465.5,-171.5 465.5,-201.5"/>
<text text-anchor="start" x="357.5" y="-189.5" font-family="Helvetica,sans-Serif" font-size="10.00">bell&#45;shaped velocity</text>
<text text-anchor="middle" x="407.5" y="-178.5" font-family="Helvetica,sans-Serif" font-size="10.00"> trajectory</text>
</a>
</g>
</g>
<!-- Node1&#45;&gt;Node3 -->
<g id="edge2" class="edge">
<title>Node1&#45;&gt;Node3</title>
<path fill="none" stroke="blueviolet" stroke-dasharray="5,2" d="M213.15,-239.1C221.3,-273.15 253.72,-388.98 328,-442.5 337.64,-449.45 349.54,-453.77 361.12,-456.43"/>
<text text-anchor="middle" x="306.5" y="-428.5" font-family="Helvetica,sans-Serif" font-size="10.00">a</text>
</g>
<!-- Node1&#45;&gt;Node4 -->
<g id="edge3" class="edge">
<title>Node1&#45;&gt;Node4</title>
<path fill="none" stroke="blueviolet" stroke-dasharray="5,2" d="M214.55,-239.3C225.92,-269.24 264.47,-360.15 328,-404.5 338.23,-411.64 350.84,-416.12 362.93,-418.91"/>
<text text-anchor="middle" x="306.5" y="-389.5" font-family="Helvetica,sans-Serif" font-size="10.00">a</text>
</g>
<!-- Node1&#45;&gt;Node5 -->
<g id="edge4" class="edge">
<title>Node1&#45;&gt;Node5</title>
<path fill="none" stroke="blueviolet" stroke-dasharray="5,2" d="M217.11,-239.06C232.67,-262.62 276.23,-323.93 328,-356.5 334.15,-360.37 340.97,-363.65 347.94,-366.42"/>
<text text-anchor="middle" x="306.5" y="-345.5" font-family="Helvetica,sans-Serif" font-size="10.00">a</text>
</g>
<!-- Node1&#45;&gt;Node6 -->
<g id="edge5" class="edge">
<title>Node1&#45;&gt;Node6</title>
<path fill="none" stroke="blueviolet" stroke-dasharray="5,2" d="M226.11,-239.17C248.02,-252.95 290.14,-278.56 328,-296.5 335.78,-300.19 344.14,-303.77 352.41,-307.09"/>
<text text-anchor="middle" x="306.5" y="-289.5" font-family="Helvetica,sans-Serif" font-size="10.00">a</text>
</g>
<!-- Node1&#45;&gt;Node7 -->
<g id="edge6" class="edge">
<title>Node1&#45;&gt;Node7</title>
<path fill="none" stroke="blueviolet" stroke-dasharray="5,2" d="M254.39,-239.04C279.02,-244.46 310.41,-251.37 338.27,-257.49"/>
<text text-anchor="middle" x="306.5" y="-253.5" font-family="Helvetica,sans-Serif" font-size="10.00">a</text>
</g>
<!-- Node1&#45;&gt;Node8 -->
<g id="edge7" class="edge">
<title>Node1&#45;&gt;Node8</title>
<path fill="none" stroke="blueviolet" stroke-dasharray="5,2" d="M285.19,-229.5C309.71,-229.5 336.33,-229.5 358.37,-229.5"/>
<text text-anchor="middle" x="306.5" y="-232.5" font-family="Helvetica,sans-Serif" font-size="10.00">a</text>
</g>
<!-- Node1&#45;&gt;Node9 -->
<g id="edge8" class="edge">
<title>Node1&#45;&gt;Node9</title>
<path fill="none" stroke="blueviolet" stroke-dasharray="5,2" d="M254.39,-219.96C282.4,-213.8 319.14,-205.71 349.5,-199.04"/>
<text text-anchor="middle" x="306.5" y="-210.5" font-family="Helvetica,sans-Serif" font-size="10.00">a</text>
</g>
<!-- Node10 -->
<g id="Node000010" class="node">
<title>Node10</title>
<g id="a_Node000010"><a xlink:href="../../d2/d61/group__A__TRAJPOLY5.html" target="_top" xlink:title=" ">
<polygon fill="white" stroke="#666666" points="461,-153.5 354,-153.5 354,-123.5 461,-123.5 461,-153.5"/>
<text text-anchor="start" x="362" y="-141.5" font-family="Helvetica,sans-Serif" font-size="10.00">quintic polynomial</text>
<text text-anchor="middle" x="407.5" y="-130.5" font-family="Helvetica,sans-Serif" font-size="10.00"> trajectory</text>
</a>
</g>
</g>
<!-- Node1&#45;&gt;Node10 -->
<g id="edge9" class="edge">
<title>Node1&#45;&gt;Node10</title>
<path fill="none" stroke="blueviolet" stroke-dasharray="5,2" d="M225.23,-219.95C246.73,-205.85 289.12,-179.33 328,-162.5 336.24,-158.93 345.18,-155.67 353.97,-152.78"/>
<text text-anchor="middle" x="306.5" y="-175.5" font-family="Helvetica,sans-Serif" font-size="10.00">a</text>
</g>
<!-- Node11 -->
<g id="Node000011" class="node">
<title>Node11</title>
<g id="a_Node000011"><a xlink:href="../../d9/dab/group__A__TRAJPOLY7.html" target="_top" xlink:title=" ">
<polygon fill="white" stroke="#666666" points="483.5,-105 331.5,-105 331.5,-86 483.5,-86 483.5,-105"/>
<text text-anchor="middle" x="407.5" y="-93" font-family="Helvetica,sans-Serif" font-size="10.00">hepta polynomial trajectory</text>
</a>
</g>
</g>
<!-- Node1&#45;&gt;Node11 -->
<g id="edge10" class="edge">
<title>Node1&#45;&gt;Node11</title>
<path fill="none" stroke="blueviolet" stroke-dasharray="5,2" d="M217.95,-219.71C234.37,-197.34 277.96,-142.3 328,-114.5 334.99,-110.62 342.75,-107.52 350.61,-105.06"/>
<text text-anchor="middle" x="306.5" y="-131.5" font-family="Helvetica,sans-Serif" font-size="10.00">a</text>
</g>
<!-- Node12 -->
<g id="Node000012" class="node">
<title>Node12</title>
<g id="a_Node000012"><a xlink:href="../../d7/d57/group__A__TRAJTRAP.html" target="_top" xlink:title=" ">
<polygon fill="white" stroke="#666666" points="464,-67.5 351,-67.5 351,-37.5 464,-37.5 464,-67.5"/>
<text text-anchor="start" x="359" y="-55.5" font-family="Helvetica,sans-Serif" font-size="10.00">trapezoidal velocity</text>
<text text-anchor="middle" x="407.5" y="-44.5" font-family="Helvetica,sans-Serif" font-size="10.00"> trajectory</text>
</a>
</g>
</g>
<!-- Node1&#45;&gt;Node12 -->
<g id="edge11" class="edge">
<title>Node1&#45;&gt;Node12</title>
<path fill="none" stroke="blueviolet" stroke-dasharray="5,2" d="M215.82,-219.67C229.49,-192.76 271.29,-117.27 328,-77.5 334.91,-72.66 342.8,-68.72 350.86,-65.52"/>
<text text-anchor="middle" x="306.5" y="-99.5" font-family="Helvetica,sans-Serif" font-size="10.00">a</text>
</g>
<!-- Node13 -->
<g id="Node000013" class="node">
<title>Node13</title>
<g id="a_Node000013"><a xlink:href="../../d2/d1b/group__A__VERSION.html" target="_top" xlink:title=" ">
<polygon fill="white" stroke="#666666" points="476,-19 339,-19 339,0 476,0 476,-19"/>
<text text-anchor="middle" x="407.5" y="-7" font-family="Helvetica,sans-Serif" font-size="10.00">algorithm library version</text>
</a>
</g>
</g>
<!-- Node1&#45;&gt;Node13 -->
<g id="edge12" class="edge">
<title>Node1&#45;&gt;Node13</title>
<path fill="none" stroke="blueviolet" stroke-dasharray="5,2" d="M213.69,-219.68C223.18,-186.89 258.4,-80.38 328,-28.5 333.17,-24.65 339.02,-21.56 345.13,-19.1"/>
<text text-anchor="middle" x="306.5" y="-51.5" font-family="Helvetica,sans-Serif" font-size="10.00">a</text>
</g>
</g>
</svg>
