<?xml version="1.0" encoding="UTF-8" standalone="no"?>
<!DOCTYPE svg PUBLIC "-//W3C//DTD SVG 1.1//EN"
 "http://www.w3.org/Graphics/SVG/1.1/DTD/svg11.dtd">
<!-- Generated by graphviz version 2.43.0 (0)
 -->
<!-- Title: stimeslice_s Pages: 1 -->
<svg width="114pt" height="95pt"
 viewBox="0.00 0.00 113.50 95.00" xmlns="http://www.w3.org/2000/svg" xmlns:xlink="http://www.w3.org/1999/xlink">
<g id="graph0" class="graph" transform="scale(1 1) rotate(0) translate(4 91)">
<title>stimeslice_s</title>
<polygon fill="white" stroke="transparent" points="-4,4 -4,-91 109.5,-91 109.5,4 -4,4"/>
<!-- Node1 -->
<g id="node1" class="node">
<title>Node1</title>
<g id="a_node1"><a xlink:title="Instance structure for timeslice.">
<polygon fill="#bfbfbf" stroke="black" points="0,-0.5 0,-19.5 77,-19.5 77,-0.5 0,-0.5"/>
<text text-anchor="middle" x="38.5" y="-7.5" font-family="Helvetica,sans-Serif" font-size="10.00">stimeslice_s</text>
</a>
</g>
</g>
<!-- Node2 -->
<g id="node2" class="node">
<title>Node2</title>
<g id="a_node2"><a xlink:href="../../d3/da3/unionslist__u.html" target="_top" xlink:title="Instance structure for circular singly linked list node.">
<polygon fill="white" stroke="black" points="14.5,-67.5 14.5,-86.5 62.5,-86.5 62.5,-67.5 14.5,-67.5"/>
<text text-anchor="middle" x="38.5" y="-74.5" font-family="Helvetica,sans-Serif" font-size="10.00">slist_u</text>
</a>
</g>
</g>
<!-- Node2&#45;&gt;Node1 -->
<g id="edge1" class="edge">
<title>Node2&#45;&gt;Node1</title>
<path fill="none" stroke="#9a32cd" stroke-dasharray="5,2" d="M38.5,-57.04C38.5,-44.67 38.5,-29.12 38.5,-19.63"/>
<polygon fill="#9a32cd" stroke="#9a32cd" points="35,-57.23 38.5,-67.23 42,-57.23 35,-57.23"/>
<text text-anchor="middle" x="52.5" y="-41" font-family="Helvetica,sans-Serif" font-size="10.00"> node</text>
</g>
<!-- Node2&#45;&gt;Node2 -->
<g id="edge2" class="edge">
<title>Node2&#45;&gt;Node2</title>
<path fill="none" stroke="#9a32cd" stroke-dasharray="5,2" d="M72.92,-82.29C77.48,-81.39 80.5,-79.63 80.5,-77 80.5,-72.69 72.36,-70.7 62.67,-71.04"/>
<polygon fill="#9a32cd" stroke="#9a32cd" points="72.42,-78.82 62.67,-82.96 72.88,-85.8 72.42,-78.82"/>
<text text-anchor="middle" x="93" y="-74.5" font-family="Helvetica,sans-Serif" font-size="10.00"> next</text>
</g>
</g>
</svg>
