<?xml version="1.0" encoding="UTF-8" standalone="no"?>
<!DOCTYPE svg PUBLIC "-//W3C//DTD SVG 1.1//EN"
 "http://www.w3.org/Graphics/SVG/1.1/DTD/svg11.dtd">
<!-- Generated by graphviz version 2.43.0 (0)
 -->
<!-- Title: a_que_node Pages: 1 -->
<svg width="110pt" height="96pt"
 viewBox="0.00 0.00 110.00 96.00" xmlns="http://www.w3.org/2000/svg" xmlns:xlink="http://www.w3.org/1999/xlink">
<g id="graph0" class="graph" transform="scale(1 1) rotate(0) translate(4 92)">
<title>a_que_node</title>
<!-- Node1 -->
<g id="Node000001" class="node">
<title>Node1</title>
<g id="a_Node000001"><a xlink:title="instance structure for basic queue node">
<polygon fill="#999999" stroke="#666666" points="75,-19 0,-19 0,0 75,0 75,-19"/>
<text text-anchor="middle" x="37.5" y="-7" font-family="Helvetica,sans-Serif" font-size="10.00">a_que_node</text>
</a>
</g>
</g>
<!-- Node2 -->
<g id="Node000002" class="node">
<title>Node2</title>
<g id="a_Node000002"><a xlink:href="../../d1/d8c/structa__list.html" target="_top" xlink:title="instance structure for circular doubly linked list">
<polygon fill="white" stroke="#666666" points="59,-86.5 16,-86.5 16,-67.5 59,-67.5 59,-86.5"/>
<text text-anchor="middle" x="37.5" y="-74.5" font-family="Helvetica,sans-Serif" font-size="10.00">a_list</text>
</a>
</g>
</g>
<!-- Node2&#45;&gt;Node1 -->
<g id="edge1_Node000001_Node000002" class="edge">
<title>Node2&#45;&gt;Node1</title>
<g id="a_edge1_Node000001_Node000002"><a xlink:title=" ">
<path fill="none" stroke="#9a32cd" stroke-dasharray="5,2" d="M37.5,-57.18C37.5,-44.71 37.5,-28.92 37.5,-19.27"/>
<polygon fill="#9a32cd" stroke="#9a32cd" points="34,-57.44 37.5,-67.44 41,-57.44 34,-57.44"/>
</a>
</g>
<text text-anchor="middle" x="54" y="-40" font-family="Helvetica,sans-Serif" font-size="10.00" fill="grey"> _node</text>
</g>
<!-- Node2&#45;&gt;Node2 -->
<g id="edge2_Node000002_Node000002" class="edge">
<title>Node2&#45;&gt;Node2</title>
<g id="a_edge2_Node000002_Node000002"><a xlink:title=" ">
<path fill="none" stroke="#9a32cd" stroke-dasharray="5,2" d="M69.31,-82.74C73.91,-81.83 77,-79.91 77,-77 77,-72.22 68.67,-70.13 59.03,-70.72"/>
<polygon fill="#9a32cd" stroke="#9a32cd" points="68.84,-79.26 59.03,-83.28 69.2,-86.25 68.84,-79.26"/>
</a>
</g>
<text text-anchor="middle" x="89.5" y="-80" font-family="Helvetica,sans-Serif" font-size="10.00" fill="grey"> next</text>
<text text-anchor="middle" x="89.5" y="-69" font-family="Helvetica,sans-Serif" font-size="10.00" fill="grey">prev</text>
</g>
</g>
</svg>
