<?xml version="1.0" encoding="UTF-8" standalone="no"?>
<!DOCTYPE svg PUBLIC "-//W3C//DTD SVG 1.1//EN"
 "http://www.w3.org/Graphics/SVG/1.1/DTD/svg11.dtd">
<!-- Generated by graphviz version 2.43.0 (0)
 -->
<!-- Title: a_pid_fuzzy_s Pages: 1 -->
<svg width="93pt" height="206pt"
 viewBox="0.00 0.00 93.00 206.00" xmlns="http://www.w3.org/2000/svg" xmlns:xlink="http://www.w3.org/1999/xlink">
<g id="graph0" class="graph" transform="scale(1 1) rotate(0) translate(4 202)">
<title>a_pid_fuzzy_s</title>
<polygon fill="white" stroke="transparent" points="-4,4 -4,-202 89,-202 89,4 -4,4"/>
<!-- Node1 -->
<g id="node1" class="node">
<title>Node1</title>
<g id="a_node1"><a xlink:title="instance structure for fuzzy PID controller">
<polygon fill="#bfbfbf" stroke="black" points="0,-0.5 0,-19.5 85,-19.5 85,-0.5 0,-0.5"/>
<text text-anchor="middle" x="42.5" y="-7.5" font-family="Helvetica,sans-Serif" font-size="10.00">a_pid_fuzzy_s</text>
</a>
</g>
</g>
<!-- Node2 -->
<g id="node2" class="node">
<title>Node2</title>
<g id="a_node2"><a xlink:href="../../de/def/structa__pid__s.html" target="_top" xlink:title="instance structure for PID controller">
<polygon fill="white" stroke="black" points="16,-67.5 16,-86.5 69,-86.5 69,-67.5 16,-67.5"/>
<text text-anchor="middle" x="42.5" y="-74.5" font-family="Helvetica,sans-Serif" font-size="10.00">a_pid_s</text>
</a>
</g>
</g>
<!-- Node2&#45;&gt;Node1 -->
<g id="edge1" class="edge">
<title>Node2&#45;&gt;Node1</title>
<path fill="none" stroke="#9a32cd" stroke-dasharray="5,2" d="M42.5,-57.04C42.5,-44.67 42.5,-29.12 42.5,-19.63"/>
<polygon fill="#9a32cd" stroke="#9a32cd" points="39,-57.23 42.5,-67.23 46,-57.23 39,-57.23"/>
<text text-anchor="middle" x="52" y="-41" font-family="Helvetica,sans-Serif" font-size="10.00"> pid</text>
</g>
<!-- Node3 -->
<g id="node3" class="node">
<title>Node3</title>
<g id="a_node3"><a xlink:href="../../d2/d53/uniona__float__u.html" target="_top" xlink:title=" ">
<polygon fill="white" stroke="black" points="12,-178.5 12,-197.5 73,-197.5 73,-178.5 12,-178.5"/>
<text text-anchor="middle" x="42.5" y="-185.5" font-family="Helvetica,sans-Serif" font-size="10.00">a_float_u</text>
</a>
</g>
</g>
<!-- Node3&#45;&gt;Node2 -->
<g id="edge2" class="edge">
<title>Node3&#45;&gt;Node2</title>
<path fill="none" stroke="#9a32cd" stroke-dasharray="5,2" d="M42.5,-168.19C42.5,-144.28 42.5,-103.99 42.5,-86.51"/>
<polygon fill="#9a32cd" stroke="#9a32cd" points="39,-168.45 42.5,-178.45 46,-168.45 39,-168.45"/>
<text text-anchor="middle" x="53.5" y="-152" font-family="Helvetica,sans-Serif" font-size="10.00"> e</text>
<text text-anchor="middle" x="53.5" y="-141" font-family="Helvetica,sans-Serif" font-size="10.00">ec</text>
<text text-anchor="middle" x="53.5" y="-130" font-family="Helvetica,sans-Serif" font-size="10.00">fdb</text>
<text text-anchor="middle" x="53.5" y="-119" font-family="Helvetica,sans-Serif" font-size="10.00">out</text>
<text text-anchor="middle" x="53.5" y="-108" font-family="Helvetica,sans-Serif" font-size="10.00">sum</text>
</g>
</g>
</svg>
