<?xml version="1.0" encoding="UTF-8" standalone="no"?>
<!DOCTYPE svg PUBLIC "-//W3C//DTD SVG 1.1//EN"
 "http://www.w3.org/Graphics/SVG/1.1/DTD/svg11.dtd">
<!-- Generated by graphviz version 2.43.0 (0)
 -->
<!-- Title: a_que Pages: 1 -->
<svg width="140pt" height="162pt"
 viewBox="0.00 0.00 140.00 162.00" xmlns="http://www.w3.org/2000/svg" xmlns:xlink="http://www.w3.org/1999/xlink">
<g id="graph0" class="graph" transform="scale(1 1) rotate(0) translate(4 158)">
<title>a_que</title>
<!-- Node1 -->
<g id="Node000001" class="node">
<title>Node1</title>
<g id="a_Node000001"><a xlink:title="instance structure for basic queue">
<polygon fill="#999999" stroke="#666666" points="58.5,-19 12.5,-19 12.5,0 58.5,0 58.5,-19"/>
<text text-anchor="middle" x="35.5" y="-7" font-family="Helvetica,sans-Serif" font-size="10.00">a_que</text>
</a>
</g>
</g>
<!-- Node2 -->
<g id="Node000002" class="node">
<title>Node2</title>
<g id="a_Node000002"><a xlink:href="../../d4/de7/structa__que__node.html" target="_top" xlink:title="instance structure for basic queue node">
<polygon fill="white" stroke="#666666" points="132,-85 57,-85 57,-66 132,-66 132,-85"/>
<text text-anchor="middle" x="94.5" y="-73" font-family="Helvetica,sans-Serif" font-size="10.00">a_que_node</text>
</a>
</g>
</g>
<!-- Node2&#45;&gt;Node1 -->
<g id="edge1_Node000001_Node000002" class="edge">
<title>Node2&#45;&gt;Node1</title>
<g id="a_edge1_Node000001_Node000002"><a xlink:title=" ">
<path fill="none" stroke="#9a32cd" stroke-dasharray="5,2" d="M79.73,-58.48C68.34,-46.12 53.01,-29.49 43.71,-19.41"/>
<polygon fill="#9a32cd" stroke="#9a32cd" points="77.19,-60.89 86.54,-65.87 82.34,-56.14 77.19,-60.89"/>
</a>
</g>
<text text-anchor="middle" x="79.5" y="-40" font-family="Helvetica,sans-Serif" font-size="10.00" fill="grey"> _ptr</text>
</g>
<!-- Node3 -->
<g id="Node000003" class="node">
<title>Node3</title>
<g id="a_Node000003"><a xlink:href="../../d1/d8c/structa__list.html" target="_top" xlink:title="instance structure for circular doubly linked list">
<polygon fill="white" stroke="#666666" points="43,-152.5 0,-152.5 0,-133.5 43,-133.5 43,-152.5"/>
<text text-anchor="middle" x="21.5" y="-140.5" font-family="Helvetica,sans-Serif" font-size="10.00">a_list</text>
</a>
</g>
</g>
<!-- Node3&#45;&gt;Node1 -->
<g id="edge4_Node000001_Node000003" class="edge">
<title>Node3&#45;&gt;Node1</title>
<g id="a_edge4_Node000001_Node000003"><a xlink:title=" ">
<path fill="none" stroke="#9a32cd" stroke-dasharray="5,2" d="M17.49,-123.66C14.72,-108.19 12.09,-85.51 15.5,-66 18.5,-48.85 26.33,-30 31.26,-19.28"/>
<polygon fill="#9a32cd" stroke="#9a32cd" points="14.06,-124.38 19.45,-133.5 20.93,-123.01 14.06,-124.38"/>
</a>
</g>
<text text-anchor="middle" x="32" y="-73" font-family="Helvetica,sans-Serif" font-size="10.00" fill="grey"> _head</text>
</g>
<!-- Node3&#45;&gt;Node2 -->
<g id="edge2_Node000002_Node000003" class="edge">
<title>Node3&#45;&gt;Node2</title>
<g id="a_edge2_Node000002_Node000003"><a xlink:title=" ">
<path fill="none" stroke="#9a32cd" stroke-dasharray="5,2" d="M38.74,-126.53C53.08,-113.66 72.98,-95.81 84.72,-85.27"/>
<polygon fill="#9a32cd" stroke="#9a32cd" points="36.15,-124.15 31.04,-133.44 40.82,-129.36 36.15,-124.15"/>
</a>
</g>
<text text-anchor="middle" x="81" y="-106" font-family="Helvetica,sans-Serif" font-size="10.00" fill="grey"> _node</text>
</g>
<!-- Node3&#45;&gt;Node3 -->
<g id="edge3_Node000003_Node000003" class="edge">
<title>Node3&#45;&gt;Node3</title>
<g id="a_edge3_Node000003_Node000003"><a xlink:title=" ">
<path fill="none" stroke="#9a32cd" stroke-dasharray="5,2" d="M53.31,-148.74C57.91,-147.83 61,-145.91 61,-143 61,-138.22 52.67,-136.13 43.03,-136.72"/>
<polygon fill="#9a32cd" stroke="#9a32cd" points="52.84,-145.26 43.03,-149.28 53.2,-152.25 52.84,-145.26"/>
</a>
</g>
<text text-anchor="middle" x="73.5" y="-146" font-family="Helvetica,sans-Serif" font-size="10.00" fill="grey"> next</text>
<text text-anchor="middle" x="73.5" y="-135" font-family="Helvetica,sans-Serif" font-size="10.00" fill="grey">prev</text>
</g>
</g>
</svg>
