<?xml version="1.0" encoding="UTF-8" standalone="no"?>
<!DOCTYPE svg PUBLIC "-//W3C//DTD SVG 1.1//EN"
 "http://www.w3.org/Graphics/SVG/1.1/DTD/svg11.dtd">
<!-- Generated by graphviz version 2.43.0 (0)
 -->
<!-- Title: a_slist_s Pages: 1 -->
<svg width="110pt" height="104pt"
 viewBox="0.00 0.00 110.00 104.00" xmlns="http://www.w3.org/2000/svg" xmlns:xlink="http://www.w3.org/1999/xlink">
<g id="graph0" class="graph" transform="scale(1 1) rotate(0) translate(4 100)">
<title>a_slist_s</title>
<!-- Node1 -->
<g id="Node000001" class="node">
<title>Node1</title>
<g id="a_Node000001"><a xlink:title="instance structure for circular singly linked list head">
<polygon fill="#999999" stroke="#666666" points="59,-19 0,-19 0,0 59,0 59,-19"/>
<text text-anchor="middle" x="29.5" y="-7" font-family="Helvetica,sans-Serif" font-size="10.00">a_slist_s</text>
</a>
</g>
</g>
<!-- Node2 -->
<g id="Node000002" class="node">
<title>Node2</title>
<g id="a_Node000002"><a xlink:href="../../d2/dd0/uniona__slist__u.html" target="_top" xlink:title="instance structure for circular singly linked list node">
<polygon fill="white" stroke="#666666" points="59,-96 0,-96 0,-77 59,-77 59,-96"/>
<text text-anchor="middle" x="29.5" y="-84" font-family="Helvetica,sans-Serif" font-size="10.00">a_slist_u</text>
</a>
</g>
</g>
<!-- Node2&#45;&gt;Node1 -->
<g id="edge1_Node000001_Node000002" class="edge">
<title>Node2&#45;&gt;Node1</title>
<g id="a_edge1_Node000001_Node000002"><a xlink:title=" ">
<path fill="none" stroke="#9a32cd" stroke-dasharray="5,2" d="M29.5,-66.52C29.5,-51.24 29.5,-30.48 29.5,-19"/>
<polygon fill="#9a32cd" stroke="#9a32cd" points="26,-66.9 29.5,-76.9 33,-66.9 26,-66.9"/>
</a>
</g>
<text text-anchor="middle" x="43.5" y="-51" font-family="Helvetica,sans-Serif" font-size="10.00" fill="grey"> head</text>
<text text-anchor="middle" x="43.5" y="-40" font-family="Helvetica,sans-Serif" font-size="10.00" fill="grey">tail</text>
</g>
<!-- Node2&#45;&gt;Node2 -->
<g id="edge2_Node000002_Node000002" class="edge">
<title>Node2&#45;&gt;Node2</title>
<g id="a_edge2_Node000002_Node000002"><a xlink:title=" ">
<path fill="none" stroke="#9a32cd" stroke-dasharray="5,2" d="M69.17,-92.62C73.91,-91.51 77,-89.47 77,-86.5 77,-81.75 69.08,-79.38 59.19,-79.38"/>
<polygon fill="#9a32cd" stroke="#9a32cd" points="68.79,-89.14 59.19,-93.62 69.49,-96.11 68.79,-89.14"/>
</a>
</g>
<text text-anchor="middle" x="89.5" y="-84" font-family="Helvetica,sans-Serif" font-size="10.00" fill="grey"> next</text>
</g>
</g>
</svg>
