<?xml version="1.0" encoding="UTF-8" standalone="no"?>
<!DOCTYPE svg PUBLIC "-//W3C//DTD SVG 1.1//EN"
 "http://www.w3.org/Graphics/SVG/1.1/DTD/svg11.dtd">
<!-- Generated by graphviz version 2.43.0 (0)
 -->
<!-- Title: a_pid_neuron_s Pages: 1 -->
<svg width="118pt" height="217pt"
 viewBox="0.00 0.00 117.50 217.00" xmlns="http://www.w3.org/2000/svg" xmlns:xlink="http://www.w3.org/1999/xlink">
<g id="graph0" class="graph" transform="scale(1 1) rotate(0) translate(4 213)">
<title>a_pid_neuron_s</title>
<!-- Node1 -->
<g id="Node000001" class="node">
<title>Node1</title>
<g id="a_Node000001"><a xlink:title="instance structure for single neuron PID controller">
<polygon fill="#999999" stroke="#666666" points="92,-19 0,-19 0,0 92,0 92,-19"/>
<text text-anchor="middle" x="46" y="-7" font-family="Helvetica,sans-Serif" font-size="10.00">a_pid_neuron_s</text>
</a>
</g>
</g>
<!-- Node2 -->
<g id="Node000002" class="node">
<title>Node2</title>
<g id="a_Node000002"><a xlink:href="../../de/def/structa__pid__s.html" target="_top" xlink:title="instance structure for PID controller">
<polygon fill="white" stroke="#666666" points="109.5,-97.5 56.5,-97.5 56.5,-78.5 109.5,-78.5 109.5,-97.5"/>
<text text-anchor="middle" x="83" y="-85.5" font-family="Helvetica,sans-Serif" font-size="10.00">a_pid_s</text>
</a>
</g>
</g>
<!-- Node2&#45;&gt;Node1 -->
<g id="edge1_Node000001_Node000002" class="edge">
<title>Node2&#45;&gt;Node1</title>
<g id="a_edge1_Node000001_Node000002"><a xlink:title=" ">
<path fill="none" stroke="#9a32cd" stroke-dasharray="5,2" d="M74.3,-69C66.71,-53.31 56.02,-31.22 50.19,-19.17"/>
<polygon fill="#9a32cd" stroke="#9a32cd" points="71.25,-70.75 78.76,-78.22 77.55,-67.7 71.25,-70.75"/>
</a>
</g>
<text text-anchor="middle" x="72.5" y="-40" font-family="Helvetica,sans-Serif" font-size="10.00" fill="grey"> pid</text>
</g>
<!-- Node3 -->
<g id="Node000003" class="node">
<title>Node3</title>
<g id="a_Node000003"><a xlink:href="../../d2/d53/uniona__float__u.html" target="_top" xlink:title=" ">
<polygon fill="white" stroke="#bfbfbf" points="69.5,-209 8.5,-209 8.5,-190 69.5,-190 69.5,-209"/>
<text text-anchor="middle" x="39" y="-197" font-family="Helvetica,sans-Serif" font-size="10.00">a_float_u</text>
</a>
</g>
</g>
<!-- Node3&#45;&gt;Node1 -->
<g id="edge3_Node000001_Node000003" class="edge">
<title>Node3&#45;&gt;Node1</title>
<g id="a_edge3_Node000001_Node000003"><a xlink:title=" ">
<path fill="none" stroke="#9a32cd" stroke-dasharray="5,2" d="M36.25,-179.58C32.93,-153.81 28.35,-106.27 33,-66 34.95,-49.09 40.15,-29.85 43.35,-19.04"/>
<polygon fill="#9a32cd" stroke="#9a32cd" points="32.82,-180.35 37.65,-189.78 39.76,-179.4 32.82,-180.35"/>
</a>
</g>
<text text-anchor="middle" x="40.5" y="-102" font-family="Helvetica,sans-Serif" font-size="10.00" fill="grey"> ec</text>
<text text-anchor="middle" x="40.5" y="-91" font-family="Helvetica,sans-Serif" font-size="10.00" fill="grey">wd</text>
<text text-anchor="middle" x="40.5" y="-80" font-family="Helvetica,sans-Serif" font-size="10.00" fill="grey">wi</text>
<text text-anchor="middle" x="40.5" y="-69" font-family="Helvetica,sans-Serif" font-size="10.00" fill="grey">wp</text>
</g>
<!-- Node3&#45;&gt;Node2 -->
<g id="edge2_Node000002_Node000003" class="edge">
<title>Node3&#45;&gt;Node2</title>
<g id="a_edge2_Node000002_Node000003"><a xlink:title=" ">
<path fill="none" stroke="#9a32cd" stroke-dasharray="5,2" d="M46.2,-180.58C55.8,-156.69 72.41,-115.35 79.56,-97.55"/>
<polygon fill="#9a32cd" stroke="#9a32cd" points="42.93,-179.32 42.45,-189.91 49.43,-181.93 42.93,-179.32"/>
</a>
</g>
<text text-anchor="middle" x="76" y="-164" font-family="Helvetica,sans-Serif" font-size="10.00" fill="grey"> err</text>
<text text-anchor="middle" x="76" y="-153" font-family="Helvetica,sans-Serif" font-size="10.00" fill="grey">fdb</text>
<text text-anchor="middle" x="76" y="-142" font-family="Helvetica,sans-Serif" font-size="10.00" fill="grey">out</text>
<text text-anchor="middle" x="76" y="-131" font-family="Helvetica,sans-Serif" font-size="10.00" fill="grey">tmp</text>
</g>
</g>
</svg>
