<?xml version="1.0" encoding="UTF-8" standalone="no"?>
<!DOCTYPE svg PUBLIC "-//W3C//DTD SVG 1.1//EN"
 "http://www.w3.org/Graphics/SVG/1.1/DTD/svg11.dtd">
<!-- Generated by graphviz version 2.43.0 (0)
 -->
<!-- Title: a.h Pages: 1 -->
<svg width="1505pt" height="137pt"
 viewBox="0.00 0.00 1504.50 137.00" xmlns="http://www.w3.org/2000/svg" xmlns:xlink="http://www.w3.org/1999/xlink">
<g id="graph0" class="graph" transform="scale(1 1) rotate(0) translate(4 133)">
<title>a.h</title>
<!-- Node1 -->
<g id="Node000001" class="node">
<title>Node1</title>
<g id="a_Node000001"><a xlink:title="algorithm library">
<polygon fill="#999999" stroke="#666666" points="715.5,-129 683.5,-129 683.5,-110 715.5,-110 715.5,-129"/>
<text text-anchor="middle" x="699.5" y="-117" font-family="Helvetica,sans-Serif" font-size="10.00">a.h</text>
</a>
</g>
</g>
<!-- Node2 -->
<g id="Node000002" class="node">
<title>Node2</title>
<g id="a_Node000002"><a xlink:href="../../d3/d51/avl_8h.html" target="_top" xlink:title="Adelson&#45;Velsky and Landis self&#45;balancing binary search tree.">
<polygon fill="white" stroke="#666666" points="41,-74 0,-74 0,-55 41,-55 41,-74"/>
<text text-anchor="middle" x="20.5" y="-62" font-family="Helvetica,sans-Serif" font-size="10.00">avl.h</text>
</a>
</g>
</g>
<!-- Node1&#45;&gt;Node2 -->
<g id="edge1_Node000001_Node000002" class="edge">
<title>Node1&#45;&gt;Node2</title>
<g id="a_edge1_Node000001_Node000002"><a xlink:title=" ">
<path fill="none" stroke="#63b8ff" d="M673.01,-118.73C584.14,-119.08 288.69,-116.72 49.5,-74 46.81,-73.52 44.02,-72.88 41.28,-72.18"/>
<polygon fill="#63b8ff" stroke="#63b8ff" points="673.28,-122.23 683.26,-118.68 673.24,-115.23 673.28,-122.23"/>
</a>
</g>
</g>
<!-- Node3 -->
<g id="Node000003" class="node">
<title>Node3</title>
<g id="a_Node000003"><a xlink:href="../../d6/d6d/buf_8h.html" target="_top" xlink:title="basic buffer library">
<polygon fill="white" stroke="#666666" points="100,-74 59,-74 59,-55 100,-55 100,-74"/>
<text text-anchor="middle" x="79.5" y="-62" font-family="Helvetica,sans-Serif" font-size="10.00">buf.h</text>
</a>
</g>
</g>
<!-- Node1&#45;&gt;Node3 -->
<g id="edge2_Node000001_Node000003" class="edge">
<title>Node1&#45;&gt;Node3</title>
<g id="a_edge2_Node000001_Node000003"><a xlink:title=" ">
<path fill="none" stroke="#63b8ff" d="M673.32,-118.39C590.16,-117.65 324.87,-112.23 109.5,-74 106.41,-73.45 103.18,-72.71 100.03,-71.9"/>
<polygon fill="#63b8ff" stroke="#63b8ff" points="673.37,-121.89 683.4,-118.47 673.42,-114.89 673.37,-121.89"/>
</a>
</g>
</g>
<!-- Node4 -->
<g id="Node000004" class="node">
<title>Node4</title>
<g id="a_Node000004"><a xlink:href="../../d7/d3b/complex_8h.html" target="_top" xlink:title="complex number">
<polygon fill="white" stroke="#666666" points="186.5,-74 118.5,-74 118.5,-55 186.5,-55 186.5,-74"/>
<text text-anchor="middle" x="152.5" y="-62" font-family="Helvetica,sans-Serif" font-size="10.00">complex.h</text>
</a>
</g>
</g>
<!-- Node1&#45;&gt;Node4 -->
<g id="edge3_Node000001_Node000004" class="edge">
<title>Node1&#45;&gt;Node4</title>
<g id="a_edge3_Node000001_Node000004"><a xlink:title=" ">
<path fill="none" stroke="#63b8ff" d="M672.92,-117.16C597.7,-113.15 377.06,-99.88 195.5,-74 192.64,-73.59 189.68,-73.12 186.71,-72.61"/>
<polygon fill="#63b8ff" stroke="#63b8ff" points="673.16,-120.68 683.33,-117.7 673.52,-113.69 673.16,-120.68"/>
</a>
</g>
</g>
<!-- Node5 -->
<g id="Node000005" class="node">
<title>Node5</title>
<g id="a_Node000005"><a xlink:href="../../dc/de6/crc_8h.html" target="_top" xlink:title="Cyclic Redundancy Check.">
<polygon fill="white" stroke="#666666" points="244.5,-74 204.5,-74 204.5,-55 244.5,-55 244.5,-74"/>
<text text-anchor="middle" x="224.5" y="-62" font-family="Helvetica,sans-Serif" font-size="10.00">crc.h</text>
</a>
</g>
</g>
<!-- Node1&#45;&gt;Node5 -->
<g id="edge4_Node000001_Node000005" class="edge">
<title>Node1&#45;&gt;Node5</title>
<g id="a_edge4_Node000001_Node000005"><a xlink:title=" ">
<path fill="none" stroke="#63b8ff" d="M673.09,-117.58C603.72,-114.78 410.83,-104.63 253.5,-74 250.62,-73.44 247.61,-72.72 244.66,-71.93"/>
<polygon fill="#63b8ff" stroke="#63b8ff" points="673.01,-121.07 683.14,-117.96 673.28,-114.08 673.01,-121.07"/>
</a>
</g>
</g>
<!-- Node6 -->
<g id="Node000006" class="node">
<title>Node6</title>
<g id="a_Node000006"><a xlink:href="../../df/d2a/fuzzy_8h.html" target="_top" xlink:title="fuzzy operator">
<polygon fill="white" stroke="#666666" points="312.5,-74 262.5,-74 262.5,-55 312.5,-55 312.5,-74"/>
<text text-anchor="middle" x="287.5" y="-62" font-family="Helvetica,sans-Serif" font-size="10.00">fuzzy.h</text>
</a>
</g>
</g>
<!-- Node1&#45;&gt;Node6 -->
<g id="edge5_Node000001_Node000006" class="edge">
<title>Node1&#45;&gt;Node6</title>
<g id="a_edge5_Node000001_Node000006"><a xlink:title=" ">
<path fill="none" stroke="#63b8ff" d="M673.12,-116.56C611.3,-111.77 452.41,-97.97 321.5,-74 318.63,-73.47 315.64,-72.85 312.67,-72.17"/>
<polygon fill="#63b8ff" stroke="#63b8ff" points="672.94,-120.06 683.18,-117.33 673.47,-113.08 672.94,-120.06"/>
</a>
</g>
</g>
<!-- Node7 -->
<g id="Node000007" class="node">
<title>Node7</title>
<g id="a_Node000007"><a xlink:href="../../d1/df9/hpf_8h.html" target="_top" xlink:title="High Pass Filter.">
<polygon fill="white" stroke="#666666" points="459,-19 418,-19 418,0 459,0 459,-19"/>
<text text-anchor="middle" x="438.5" y="-7" font-family="Helvetica,sans-Serif" font-size="10.00">hpf.h</text>
</a>
</g>
</g>
<!-- Node1&#45;&gt;Node7 -->
<g id="edge6_Node000001_Node000007" class="edge">
<title>Node1&#45;&gt;Node7</title>
<g id="a_edge6_Node000001_Node000007"><a xlink:title=" ">
<path fill="none" stroke="#63b8ff" d="M673.35,-117.07C617.5,-113.5 489.11,-102.34 457.5,-74 441.74,-59.87 438.82,-33.24 438.42,-19.39"/>
<polygon fill="#63b8ff" stroke="#63b8ff" points="673.3,-120.57 683.5,-117.69 673.73,-113.59 673.3,-120.57"/>
</a>
</g>
</g>
<!-- Node8 -->
<g id="Node000008" class="node">
<title>Node8</title>
<g id="a_Node000008"><a xlink:href="../../da/d23/list_8h.html" target="_top" xlink:title="circular doubly linked list implementation">
<polygon fill="white" stroke="#666666" points="372,-74 331,-74 331,-55 372,-55 372,-74"/>
<text text-anchor="middle" x="351.5" y="-62" font-family="Helvetica,sans-Serif" font-size="10.00">list.h</text>
</a>
</g>
</g>
<!-- Node1&#45;&gt;Node8 -->
<g id="edge7_Node000001_Node000008" class="edge">
<title>Node1&#45;&gt;Node8</title>
<g id="a_edge7_Node000001_Node000008"><a xlink:title=" ">
<path fill="none" stroke="#63b8ff" d="M673.39,-115.66C619.49,-109.6 492.15,-94.29 386.5,-74 381.83,-73.1 376.85,-71.99 372.16,-70.87"/>
<polygon fill="#63b8ff" stroke="#63b8ff" points="673.12,-119.15 683.45,-116.78 673.9,-112.19 673.12,-119.15"/>
</a>
</g>
</g>
<!-- Node9 -->
<g id="Node000009" class="node">
<title>Node9</title>
<g id="a_Node000009"><a xlink:href="../../d9/dc9/que_8h.html" target="_top" xlink:title="basic queue library">
<polygon fill="white" stroke="#666666" points="386.5,-19 342.5,-19 342.5,0 386.5,0 386.5,-19"/>
<text text-anchor="middle" x="364.5" y="-7" font-family="Helvetica,sans-Serif" font-size="10.00">que.h</text>
</a>
</g>
</g>
<!-- Node1&#45;&gt;Node9 -->
<g id="edge22_Node000001_Node000009" class="edge">
<title>Node1&#45;&gt;Node9</title>
<g id="a_edge22_Node000001_Node000009"><a xlink:title=" ">
<path fill="none" stroke="#63b8ff" d="M673.17,-118.28C625.15,-116.95 521.07,-109.78 442.5,-74 412.94,-60.54 385.16,-33.12 372.18,-19.13"/>
<polygon fill="#63b8ff" stroke="#63b8ff" points="673.26,-121.78 683.33,-118.49 673.41,-114.78 673.26,-121.78"/>
</a>
</g>
</g>
<!-- Node10 -->
<g id="Node000010" class="node">
<title>Node10</title>
<g id="a_Node000010"><a xlink:href="../../db/d80/lpf_8h.html" target="_top" xlink:title="Low Pass Filter.">
<polygon fill="white" stroke="#666666" points="549.5,-19 511.5,-19 511.5,0 549.5,0 549.5,-19"/>
<text text-anchor="middle" x="530.5" y="-7" font-family="Helvetica,sans-Serif" font-size="10.00">lpf.h</text>
</a>
</g>
</g>
<!-- Node1&#45;&gt;Node10 -->
<g id="edge9_Node000001_Node000010" class="edge">
<title>Node1&#45;&gt;Node10</title>
<g id="a_edge9_Node000001_Node000010"><a xlink:title=" ">
<path fill="none" stroke="#63b8ff" d="M673.47,-112.58C648.67,-106.05 611.13,-93.76 583.5,-74 562.01,-58.63 544.03,-32.55 535.62,-19.1"/>
<polygon fill="#63b8ff" stroke="#63b8ff" points="672.7,-116 683.25,-115.03 674.4,-109.21 672.7,-116"/>
</a>
</g>
</g>
<!-- Node11 -->
<g id="Node000011" class="node">
<title>Node11</title>
<g id="a_Node000011"><a xlink:href="../../df/db1/math_8h.html" target="_top" xlink:title="mathematical algorithm library">
<polygon fill="white" stroke="#666666" points="518,-74 467,-74 467,-55 518,-55 518,-74"/>
<text text-anchor="middle" x="492.5" y="-62" font-family="Helvetica,sans-Serif" font-size="10.00">math.h</text>
</a>
</g>
</g>
<!-- Node1&#45;&gt;Node11 -->
<g id="edge10_Node000001_Node000011" class="edge">
<title>Node1&#45;&gt;Node11</title>
<g id="a_edge10_Node000001_Node000011"><a xlink:title=" ">
<path fill="none" stroke="#63b8ff" d="M673.48,-111.84C633.59,-101.62 557.8,-82.22 518.14,-72.07"/>
<polygon fill="#63b8ff" stroke="#63b8ff" points="672.7,-115.25 683.26,-114.34 674.44,-108.47 672.7,-115.25"/>
</a>
</g>
</g>
<!-- Node12 -->
<g id="Node000012" class="node">
<title>Node12</title>
<g id="a_Node000012"><a xlink:href="../../d6/dea/mf_8h.html" target="_top" xlink:title="membership function">
<polygon fill="white" stroke="#666666" points="630.5,-74 592.5,-74 592.5,-55 630.5,-55 630.5,-74"/>
<text text-anchor="middle" x="611.5" y="-62" font-family="Helvetica,sans-Serif" font-size="10.00">mf.h</text>
</a>
</g>
</g>
<!-- Node1&#45;&gt;Node12 -->
<g id="edge14_Node000001_Node000012" class="edge">
<title>Node1&#45;&gt;Node12</title>
<g id="a_edge14_Node000001_Node000012"><a xlink:title=" ">
<path fill="none" stroke="#63b8ff" d="M676.58,-104.7C660.55,-95.04 639.63,-82.44 625.9,-74.17"/>
<polygon fill="#63b8ff" stroke="#63b8ff" points="674.99,-107.82 685.36,-109.98 678.6,-101.83 674.99,-107.82"/>
</a>
</g>
</g>
<!-- Node13 -->
<g id="Node000013" class="node">
<title>Node13</title>
<g id="a_Node000013"><a xlink:href="../../da/df0/pid_8h.html" target="_top" xlink:title="proportional integral derivative controller">
<polygon fill="white" stroke="#666666" points="690,-74 649,-74 649,-55 690,-55 690,-74"/>
<text text-anchor="middle" x="669.5" y="-62" font-family="Helvetica,sans-Serif" font-size="10.00">pid.h</text>
</a>
</g>
</g>
<!-- Node1&#45;&gt;Node13 -->
<g id="edge15_Node000001_Node000013" class="edge">
<title>Node1&#45;&gt;Node13</title>
<g id="a_edge15_Node000001_Node000013"><a xlink:title=" ">
<path fill="none" stroke="#63b8ff" d="M689.49,-100.82C684.4,-91.82 678.44,-81.29 674.36,-74.09"/>
<polygon fill="#63b8ff" stroke="#63b8ff" points="686.57,-102.77 694.55,-109.75 692.67,-99.32 686.57,-102.77"/>
</a>
</g>
</g>
<!-- Node16 -->
<g id="Node000016" class="node">
<title>Node16</title>
<g id="a_Node000016"><a xlink:href="../../db/d57/poly_8h.html" target="_top" xlink:title="polynomial">
<polygon fill="white" stroke="#666666" points="753,-74 708,-74 708,-55 753,-55 753,-74"/>
<text text-anchor="middle" x="730.5" y="-62" font-family="Helvetica,sans-Serif" font-size="10.00">poly.h</text>
</a>
</g>
</g>
<!-- Node1&#45;&gt;Node16 -->
<g id="edge18_Node000001_Node000016" class="edge">
<title>Node1&#45;&gt;Node16</title>
<g id="a_edge18_Node000001_Node000016"><a xlink:title=" ">
<path fill="none" stroke="#63b8ff" d="M709.68,-101.1C714.97,-92.04 721.22,-81.37 725.48,-74.09"/>
<polygon fill="#63b8ff" stroke="#63b8ff" points="706.65,-99.35 704.62,-109.75 712.69,-102.88 706.65,-99.35"/>
</a>
</g>
</g>
<!-- Node17 -->
<g id="Node000017" class="node">
<title>Node17</title>
<g id="a_Node000017"><a xlink:href="../../dd/d56/polytraj3_8h.html" target="_top" xlink:title="cubic polynomial trajectory">
<polygon fill="white" stroke="#666666" points="840,-74 771,-74 771,-55 840,-55 840,-74"/>
<text text-anchor="middle" x="805.5" y="-62" font-family="Helvetica,sans-Serif" font-size="10.00">polytraj3.h</text>
</a>
</g>
</g>
<!-- Node1&#45;&gt;Node17 -->
<g id="edge19_Node000001_Node000017" class="edge">
<title>Node1&#45;&gt;Node17</title>
<g id="a_edge19_Node000001_Node000017"><a xlink:title=" ">
<path fill="none" stroke="#63b8ff" d="M724.58,-105.96C744.18,-96.16 770.91,-82.79 788.19,-74.15"/>
<polygon fill="#63b8ff" stroke="#63b8ff" points="722.98,-102.85 715.6,-110.45 726.11,-109.11 722.98,-102.85"/>
</a>
</g>
</g>
<!-- Node18 -->
<g id="Node000018" class="node">
<title>Node18</title>
<g id="a_Node000018"><a xlink:href="../../dd/d93/polytraj5_8h.html" target="_top" xlink:title="quintic polynomial trajectory">
<polygon fill="white" stroke="#666666" points="927,-74 858,-74 858,-55 927,-55 927,-74"/>
<text text-anchor="middle" x="892.5" y="-62" font-family="Helvetica,sans-Serif" font-size="10.00">polytraj5.h</text>
</a>
</g>
</g>
<!-- Node1&#45;&gt;Node18 -->
<g id="edge20_Node000001_Node000018" class="edge">
<title>Node1&#45;&gt;Node18</title>
<g id="a_edge20_Node000001_Node000018"><a xlink:title=" ">
<path fill="none" stroke="#63b8ff" d="M725.64,-111.32C760.98,-101.62 823.87,-84.35 861.53,-74.01"/>
<polygon fill="#63b8ff" stroke="#63b8ff" points="724.34,-108.05 715.62,-114.07 726.19,-114.8 724.34,-108.05"/>
</a>
</g>
</g>
<!-- Node19 -->
<g id="Node000019" class="node">
<title>Node19</title>
<g id="a_Node000019"><a xlink:href="../../df/d16/polytraj7_8h.html" target="_top" xlink:title="hepta polynomial trajectory">
<polygon fill="white" stroke="#666666" points="1014,-74 945,-74 945,-55 1014,-55 1014,-74"/>
<text text-anchor="middle" x="979.5" y="-62" font-family="Helvetica,sans-Serif" font-size="10.00">polytraj7.h</text>
</a>
</g>
</g>
<!-- Node1&#45;&gt;Node19 -->
<g id="edge21_Node000001_Node000019" class="edge">
<title>Node1&#45;&gt;Node19</title>
<g id="a_edge21_Node000001_Node000019"><a xlink:title=" ">
<path fill="none" stroke="#63b8ff" d="M725.66,-113.67C769.36,-105.59 859.95,-88.75 936.5,-74 939.19,-73.48 941.97,-72.94 944.77,-72.39"/>
<polygon fill="#63b8ff" stroke="#63b8ff" points="724.8,-110.27 715.6,-115.53 726.07,-117.16 724.8,-110.27"/>
</a>
</g>
</g>
<!-- Node20 -->
<g id="Node000020" class="node">
<title>Node20</title>
<g id="a_Node000020"><a xlink:href="../../d8/dfc/rbf_8h.html" target="_top" xlink:title="radial basis function">
<polygon fill="white" stroke="#666666" points="1070.5,-74 1032.5,-74 1032.5,-55 1070.5,-55 1070.5,-74"/>
<text text-anchor="middle" x="1051.5" y="-62" font-family="Helvetica,sans-Serif" font-size="10.00">rbf.h</text>
</a>
</g>
</g>
<!-- Node1&#45;&gt;Node20 -->
<g id="edge23_Node000001_Node000020" class="edge">
<title>Node1&#45;&gt;Node20</title>
<g id="a_edge23_Node000001_Node000020"><a xlink:title=" ">
<path fill="none" stroke="#63b8ff" d="M725.5,-116.34C780.81,-111.43 914.05,-97.97 1023.5,-74 1026.38,-73.37 1029.39,-72.59 1032.33,-71.76"/>
<polygon fill="#63b8ff" stroke="#63b8ff" points="725.16,-112.85 715.5,-117.21 725.77,-119.83 725.16,-112.85"/>
</a>
</g>
</g>
<!-- Node21 -->
<g id="Node000021" class="node">
<title>Node21</title>
<g id="a_Node000021"><a xlink:href="../../d6/d1b/rbt_8h.html" target="_top" xlink:title="red–black self&#45;balancing binary search tree">
<polygon fill="white" stroke="#666666" points="1128,-74 1089,-74 1089,-55 1128,-55 1128,-74"/>
<text text-anchor="middle" x="1108.5" y="-62" font-family="Helvetica,sans-Serif" font-size="10.00">rbt.h</text>
</a>
</g>
</g>
<!-- Node1&#45;&gt;Node21 -->
<g id="edge24_Node000001_Node000021" class="edge">
<title>Node1&#45;&gt;Node21</title>
<g id="a_edge24_Node000001_Node000021"><a xlink:title=" ">
<path fill="none" stroke="#63b8ff" d="M725.65,-116.96C787.63,-112.98 948.1,-100.75 1079.5,-74 1082.58,-73.37 1085.82,-72.57 1088.96,-71.71"/>
<polygon fill="#63b8ff" stroke="#63b8ff" points="725.34,-113.47 715.58,-117.59 725.78,-120.46 725.34,-113.47"/>
</a>
</g>
</g>
<!-- Node22 -->
<g id="Node000022" class="node">
<title>Node22</title>
<g id="a_Node000022"><a xlink:href="../../d1/dad/slist_8h.html" target="_top" xlink:title="singly linked list implementation">
<polygon fill="white" stroke="#666666" points="1192.5,-74 1146.5,-74 1146.5,-55 1192.5,-55 1192.5,-74"/>
<text text-anchor="middle" x="1169.5" y="-62" font-family="Helvetica,sans-Serif" font-size="10.00">slist.h</text>
</a>
</g>
</g>
<!-- Node1&#45;&gt;Node22 -->
<g id="edge25_Node000001_Node000022" class="edge">
<title>Node1&#45;&gt;Node22</title>
<g id="a_edge25_Node000001_Node000022"><a xlink:title=" ">
<path fill="none" stroke="#63b8ff" d="M725.81,-117.28C794.19,-113.8 982.94,-102.2 1137.5,-74 1140.33,-73.48 1143.27,-72.85 1146.18,-72.15"/>
<polygon fill="#63b8ff" stroke="#63b8ff" points="725.35,-113.8 715.54,-117.79 725.7,-120.79 725.35,-113.8"/>
</a>
</g>
</g>
<!-- Node23 -->
<g id="Node000023" class="node">
<title>Node23</title>
<g id="a_Node000023"><a xlink:href="../../d1/d93/str_8h.html" target="_top" xlink:title="basic string library">
<polygon fill="white" stroke="#666666" points="1248.5,-74 1210.5,-74 1210.5,-55 1248.5,-55 1248.5,-74"/>
<text text-anchor="middle" x="1229.5" y="-62" font-family="Helvetica,sans-Serif" font-size="10.00">str.h</text>
</a>
</g>
</g>
<!-- Node1&#45;&gt;Node23 -->
<g id="edge26_Node000001_Node000023" class="edge">
<title>Node1&#45;&gt;Node23</title>
<g id="a_edge26_Node000001_Node000023"><a xlink:title=" ">
<path fill="none" stroke="#63b8ff" d="M726.13,-118.07C801.45,-116.43 1022.17,-108.78 1201.5,-74 1204.39,-73.44 1207.41,-72.7 1210.35,-71.88"/>
<polygon fill="#63b8ff" stroke="#63b8ff" points="725.64,-114.58 715.71,-118.27 725.77,-121.57 725.64,-114.58"/>
</a>
</g>
</g>
<!-- Node24 -->
<g id="Node000024" class="node">
<title>Node24</title>
<g id="a_Node000024"><a xlink:href="../../d2/d16/tf_8h.html" target="_top" xlink:title="transfer function">
<polygon fill="white" stroke="#666666" points="1298.5,-74 1266.5,-74 1266.5,-55 1298.5,-55 1298.5,-74"/>
<text text-anchor="middle" x="1282.5" y="-62" font-family="Helvetica,sans-Serif" font-size="10.00">tf.h</text>
</a>
</g>
</g>
<!-- Node1&#45;&gt;Node24 -->
<g id="edge27_Node000001_Node000024" class="edge">
<title>Node1&#45;&gt;Node24</title>
<g id="a_edge27_Node000001_Node000024"><a xlink:title=" ">
<path fill="none" stroke="#63b8ff" d="M725.92,-118.7C806.53,-118.83 1056.16,-115.58 1257.5,-74 1260.37,-73.41 1263.37,-72.58 1266.25,-71.67"/>
<polygon fill="#63b8ff" stroke="#63b8ff" points="725.7,-115.2 715.69,-118.67 725.67,-122.2 725.7,-115.2"/>
</a>
</g>
</g>
<!-- Node25 -->
<g id="Node000025" class="node">
<title>Node25</title>
<g id="a_Node000025"><a xlink:href="../../de/db7/utf_8h.html" target="_top" xlink:title="Unicode Transformation Format.">
<polygon fill="white" stroke="#666666" points="1354.5,-74 1316.5,-74 1316.5,-55 1354.5,-55 1354.5,-74"/>
<text text-anchor="middle" x="1335.5" y="-62" font-family="Helvetica,sans-Serif" font-size="10.00">utf.h</text>
</a>
</g>
</g>
<!-- Node1&#45;&gt;Node25 -->
<g id="edge28_Node000001_Node000025" class="edge">
<title>Node1&#45;&gt;Node25</title>
<g id="a_edge28_Node000001_Node000025"><a xlink:title=" ">
<path fill="none" stroke="#63b8ff" d="M725.68,-118.64C810.51,-118.67 1085.2,-115.35 1307.5,-74 1310.4,-73.46 1313.42,-72.73 1316.36,-71.92"/>
<polygon fill="#63b8ff" stroke="#63b8ff" points="725.64,-115.14 715.64,-118.62 725.63,-122.14 725.64,-115.14"/>
</a>
</g>
</g>
<!-- Node26 -->
<g id="Node000026" class="node">
<title>Node26</title>
<g id="a_Node000026"><a xlink:href="../../db/d65/vec_8h.html" target="_top" xlink:title="basic vector library">
<polygon fill="white" stroke="#666666" points="1416,-74 1373,-74 1373,-55 1416,-55 1416,-74"/>
<text text-anchor="middle" x="1394.5" y="-62" font-family="Helvetica,sans-Serif" font-size="10.00">vec.h</text>
</a>
</g>
</g>
<!-- Node1&#45;&gt;Node26 -->
<g id="edge29_Node000001_Node000026" class="edge">
<title>Node1&#45;&gt;Node26</title>
<g id="a_edge29_Node000001_Node000026"><a xlink:title=" ">
<path fill="none" stroke="#63b8ff" d="M725.65,-118.62C815.26,-118.65 1117.98,-115.45 1363.5,-74 1366.58,-73.48 1369.8,-72.78 1372.94,-72.01"/>
<polygon fill="#63b8ff" stroke="#63b8ff" points="725.58,-115.12 715.57,-118.61 725.56,-122.12 725.58,-115.12"/>
</a>
</g>
</g>
<!-- Node27 -->
<g id="Node000027" class="node">
<title>Node27</title>
<g id="a_Node000027"><a xlink:href="../../df/dfc/version_8h.html" target="_top" xlink:title="algorithm library version">
<polygon fill="white" stroke="#666666" points="1496.5,-74 1434.5,-74 1434.5,-55 1496.5,-55 1496.5,-74"/>
<text text-anchor="middle" x="1465.5" y="-62" font-family="Helvetica,sans-Serif" font-size="10.00">version.h</text>
</a>
</g>
</g>
<!-- Node1&#45;&gt;Node27 -->
<g id="edge30_Node000001_Node000027" class="edge">
<title>Node1&#45;&gt;Node27</title>
<g id="a_edge30_Node000001_Node000027"><a xlink:title=" ">
<path fill="none" stroke="#63b8ff" d="M725.81,-118.29C820.66,-117.25 1153.79,-110.99 1425.5,-74 1428.31,-73.62 1431.22,-73.15 1434.13,-72.62"/>
<polygon fill="#63b8ff" stroke="#63b8ff" points="725.65,-114.79 715.68,-118.39 725.72,-121.79 725.65,-114.79"/>
</a>
</g>
</g>
<!-- Node8&#45;&gt;Node9 -->
<g id="edge8_Node000008_Node000009" class="edge">
<title>Node8&#45;&gt;Node9</title>
<g id="a_edge8_Node000008_Node000009"><a xlink:title=" ">
<path fill="none" stroke="#63b8ff" d="M356.05,-44.95C358.21,-36.15 360.68,-26.06 362.39,-19.09"/>
<polygon fill="#63b8ff" stroke="#63b8ff" points="352.63,-44.2 353.65,-54.75 359.43,-45.87 352.63,-44.2"/>
</a>
</g>
</g>
<!-- Node11&#45;&gt;Node7 -->
<g id="edge11_Node000011_Node000007" class="edge">
<title>Node11&#45;&gt;Node7</title>
<g id="a_edge11_Node000011_Node000007"><a xlink:title=" ">
<path fill="none" stroke="#63b8ff" d="M476.22,-47.52C466.7,-38.18 455.06,-26.75 447.25,-19.09"/>
<polygon fill="#63b8ff" stroke="#63b8ff" points="473.99,-50.24 483.58,-54.75 478.9,-45.25 473.99,-50.24"/>
</a>
</g>
</g>
<!-- Node11&#45;&gt;Node10 -->
<g id="edge12_Node000011_Node000010" class="edge">
<title>Node11&#45;&gt;Node10</title>
<g id="a_edge12_Node000011_Node000010"><a xlink:title=" ">
<path fill="none" stroke="#63b8ff" d="M504.77,-46.39C511.31,-37.27 519.07,-26.45 524.34,-19.09"/>
<polygon fill="#63b8ff" stroke="#63b8ff" points="501.76,-44.58 498.77,-54.75 507.45,-48.66 501.76,-44.58"/>
</a>
</g>
</g>
<!-- Node11&#45;&gt;Node11 -->
<g id="edge13_Node000011_Node000011" class="edge">
<title>Node11&#45;&gt;Node11</title>
<g id="a_edge13_Node000011_Node000011"><a xlink:title=" ">
<path fill="none" stroke="#63b8ff" d="M523.17,-74.45C530.54,-73.67 536,-70.36 536,-64.5 536,-56.17 524.95,-52.98 513.09,-54.93"/>
<polygon fill="#63b8ff" stroke="#63b8ff" points="523.21,-70.95 513.09,-74.07 522.95,-77.94 523.21,-70.95"/>
</a>
</g>
</g>
<!-- Node14 -->
<g id="Node000014" class="node">
<title>Node14</title>
<g id="a_Node000014"><a xlink:href="../../d7/d30/pid__fuzzy_8h.html" target="_top" xlink:title="fuzzy proportional integral derivative controller">
<polygon fill="white" stroke="#666666" points="738,-19 667,-19 667,0 738,0 738,-19"/>
<text text-anchor="middle" x="702.5" y="-7" font-family="Helvetica,sans-Serif" font-size="10.00">pid_fuzzy.h</text>
</a>
</g>
</g>
<!-- Node13&#45;&gt;Node14 -->
<g id="edge16_Node000013_Node000014" class="edge">
<title>Node13&#45;&gt;Node14</title>
<g id="a_edge16_Node000013_Node000014"><a xlink:title=" ">
<path fill="none" stroke="#63b8ff" d="M680.33,-46.1C685.97,-37.04 692.62,-26.37 697.15,-19.09"/>
<polygon fill="#63b8ff" stroke="#63b8ff" points="677.26,-44.41 674.95,-54.75 683.21,-48.11 677.26,-44.41"/>
</a>
</g>
</g>
<!-- Node15 -->
<g id="Node000015" class="node">
<title>Node15</title>
<g id="a_Node000015"><a xlink:href="../../df/da9/pid__neuron_8h.html" target="_top" xlink:title="single neuron proportional integral derivative controller">
<polygon fill="white" stroke="#666666" points="648.5,-19 568.5,-19 568.5,0 648.5,0 648.5,-19"/>
<text text-anchor="middle" x="608.5" y="-7" font-family="Helvetica,sans-Serif" font-size="10.00">pid_neuron.h</text>
</a>
</g>
</g>
<!-- Node13&#45;&gt;Node15 -->
<g id="edge17_Node000013_Node000015" class="edge">
<title>Node13&#45;&gt;Node15</title>
<g id="a_edge17_Node000013_Node000015"><a xlink:title=" ">
<path fill="none" stroke="#63b8ff" d="M652.03,-48.32C641.16,-38.87 627.56,-27.06 618.48,-19.17"/>
<polygon fill="#63b8ff" stroke="#63b8ff" points="649.85,-51.07 659.7,-54.98 654.45,-45.78 649.85,-51.07"/>
</a>
</g>
</g>
</g>
</svg>
