<?xml version="1.0" encoding="UTF-8" standalone="no"?>
<!DOCTYPE svg PUBLIC "-//W3C//DTD SVG 1.1//EN"
 "http://www.w3.org/Graphics/SVG/1.1/DTD/svg11.dtd">
<!-- Generated by graphviz version 2.43.0 (0)
 -->
<!-- Title: a.h Pages: 1 -->
<svg width="1256pt" height="140pt"
 viewBox="0.00 0.00 1255.50 140.00" xmlns="http://www.w3.org/2000/svg" xmlns:xlink="http://www.w3.org/1999/xlink">
<g id="graph0" class="graph" transform="scale(1 1) rotate(0) translate(4 136)">
<title>a.h</title>
<polygon fill="white" stroke="transparent" points="-4,4 -4,-136 1251.5,-136 1251.5,4 -4,4"/>
<!-- Node1 -->
<g id="node1" class="node">
<title>Node1</title>
<g id="a_node1"><a xlink:title="algorithm library">
<polygon fill="#bfbfbf" stroke="black" points="600.5,-112.5 600.5,-131.5 632.5,-131.5 632.5,-112.5 600.5,-112.5"/>
<text text-anchor="middle" x="616.5" y="-119.5" font-family="Helvetica,sans-Serif" font-size="10.00">a.h</text>
</a>
</g>
</g>
<!-- Node2 -->
<g id="node2" class="node">
<title>Node2</title>
<g id="a_node2"><a xlink:href="../../d3/d51/avl_8h.html" target="_top" xlink:title="Adelson&#45;Velsky and Landis self&#45;balancing binary search tree.">
<polygon fill="white" stroke="black" points="0,-56.5 0,-75.5 41,-75.5 41,-56.5 0,-56.5"/>
<text text-anchor="middle" x="20.5" y="-63.5" font-family="Helvetica,sans-Serif" font-size="10.00">avl.h</text>
</a>
</g>
</g>
<!-- Node1&#45;&gt;Node2 -->
<g id="edge1" class="edge">
<title>Node1&#45;&gt;Node2</title>
<path fill="none" stroke="midnightblue" d="M589.71,-120.97C507.93,-120.43 254.64,-115.46 49.5,-76 46.81,-75.48 44.01,-74.8 41.27,-74.05"/>
<polygon fill="midnightblue" stroke="midnightblue" points="590.07,-124.47 600.09,-121.02 590.1,-117.47 590.07,-124.47"/>
</g>
<!-- Node3 -->
<g id="node3" class="node">
<title>Node3</title>
<g id="a_node3"><a xlink:href="../../d6/d6d/buf_8h.html" target="_top" xlink:title="basic buffer library">
<polygon fill="white" stroke="black" points="59,-56.5 59,-75.5 100,-75.5 100,-56.5 59,-56.5"/>
<text text-anchor="middle" x="79.5" y="-63.5" font-family="Helvetica,sans-Serif" font-size="10.00">buf.h</text>
</a>
</g>
</g>
<!-- Node1&#45;&gt;Node3 -->
<g id="edge2" class="edge">
<title>Node1&#45;&gt;Node3</title>
<path fill="none" stroke="midnightblue" d="M590.08,-120.54C514.47,-118.82 291.05,-110.91 109.5,-76 106.4,-75.4 103.17,-74.62 100.02,-73.75"/>
<polygon fill="midnightblue" stroke="midnightblue" points="590.06,-124.04 600.14,-120.75 590.21,-117.04 590.06,-124.04"/>
</g>
<!-- Node4 -->
<g id="node4" class="node">
<title>Node4</title>
<g id="a_node4"><a xlink:href="../../d7/d3b/complex_8h.html" target="_top" xlink:title="complex number">
<polygon fill="white" stroke="black" points="118.5,-56.5 118.5,-75.5 186.5,-75.5 186.5,-56.5 118.5,-56.5"/>
<text text-anchor="middle" x="152.5" y="-63.5" font-family="Helvetica,sans-Serif" font-size="10.00">complex.h</text>
</a>
</g>
</g>
<!-- Node1&#45;&gt;Node4 -->
<g id="edge3" class="edge">
<title>Node1&#45;&gt;Node4</title>
<path fill="none" stroke="midnightblue" d="M590.38,-119.12C524.09,-114.15 344.07,-99.43 195.5,-76 192.64,-75.55 189.68,-75.03 186.71,-74.48"/>
<polygon fill="midnightblue" stroke="midnightblue" points="590.13,-122.61 600.36,-119.86 590.65,-115.63 590.13,-122.61"/>
</g>
<!-- Node5 -->
<g id="node5" class="node">
<title>Node5</title>
<g id="a_node5"><a xlink:href="../../dc/de6/crc_8h.html" target="_top" xlink:title="Cyclic Redundancy Check.">
<polygon fill="white" stroke="black" points="204.5,-56.5 204.5,-75.5 244.5,-75.5 244.5,-56.5 204.5,-56.5"/>
<text text-anchor="middle" x="224.5" y="-63.5" font-family="Helvetica,sans-Serif" font-size="10.00">crc.h</text>
</a>
</g>
</g>
<!-- Node1&#45;&gt;Node5 -->
<g id="edge4" class="edge">
<title>Node1&#45;&gt;Node5</title>
<path fill="none" stroke="midnightblue" d="M590.28,-119.35C530.17,-115.23 377.98,-102.81 253.5,-76 250.61,-75.38 247.6,-74.6 244.66,-73.76"/>
<polygon fill="midnightblue" stroke="midnightblue" points="590.2,-122.86 600.41,-120.03 590.66,-115.87 590.2,-122.86"/>
</g>
<!-- Node6 -->
<g id="node6" class="node">
<title>Node6</title>
<g id="a_node6"><a xlink:href="../../df/d2a/fuzzy_8h.html" target="_top" xlink:title="fuzzy operator">
<polygon fill="white" stroke="black" points="560.5,-56.5 560.5,-75.5 610.5,-75.5 610.5,-56.5 560.5,-56.5"/>
<text text-anchor="middle" x="585.5" y="-63.5" font-family="Helvetica,sans-Serif" font-size="10.00">fuzzy.h</text>
</a>
</g>
</g>
<!-- Node1&#45;&gt;Node6 -->
<g id="edge5" class="edge">
<title>Node1&#45;&gt;Node6</title>
<path fill="none" stroke="midnightblue" d="M606.32,-103.27C601.03,-94.05 594.78,-83.17 590.52,-75.75"/>
<polygon fill="midnightblue" stroke="midnightblue" points="603.37,-105.15 611.38,-112.08 609.44,-101.67 603.37,-105.15"/>
</g>
<!-- Node8 -->
<g id="node8" class="node">
<title>Node8</title>
<g id="a_node8"><a xlink:href="../../d0/d97/host_2a_8h.html" target="_top" xlink:title="algorithm library on host">
<polygon fill="white" stroke="black" points="262.5,-56.5 262.5,-75.5 318.5,-75.5 318.5,-56.5 262.5,-56.5"/>
<text text-anchor="middle" x="290.5" y="-63.5" font-family="Helvetica,sans-Serif" font-size="10.00">host/a.h</text>
</a>
</g>
</g>
<!-- Node1&#45;&gt;Node8 -->
<g id="edge7" class="edge">
<title>Node1&#45;&gt;Node8</title>
<path fill="none" stroke="midnightblue" d="M590.32,-117.67C539.44,-111.05 423.77,-95.17 327.5,-76 324.65,-75.43 321.68,-74.79 318.73,-74.13"/>
<polygon fill="midnightblue" stroke="midnightblue" points="590.07,-121.17 600.44,-118.98 590.97,-114.23 590.07,-121.17"/>
</g>
<!-- Node13 -->
<g id="node13" class="node">
<title>Node13</title>
<g id="a_node13"><a xlink:href="../../d1/df9/hpf_8h.html" target="_top" xlink:title="High Pass Filter.">
<polygon fill="white" stroke="black" points="433,-0.5 433,-19.5 474,-19.5 474,-0.5 433,-0.5"/>
<text text-anchor="middle" x="453.5" y="-7.5" font-family="Helvetica,sans-Serif" font-size="10.00">hpf.h</text>
</a>
</g>
</g>
<!-- Node1&#45;&gt;Node13 -->
<g id="edge12" class="edge">
<title>Node1&#45;&gt;Node13</title>
<path fill="none" stroke="midnightblue" d="M590.29,-118.72C543.04,-114.02 446.64,-101.47 426.5,-76 412.7,-58.56 432.17,-33.06 444.58,-19.78"/>
<polygon fill="midnightblue" stroke="midnightblue" points="590.08,-122.22 600.37,-119.68 590.75,-115.25 590.08,-122.22"/>
</g>
<!-- Node14 -->
<g id="node14" class="node">
<title>Node14</title>
<g id="a_node14"><a xlink:href="../../da/d23/list_8h.html" target="_top" xlink:title="circular doubly linked list implementation">
<polygon fill="white" stroke="black" points="337,-56.5 337,-75.5 378,-75.5 378,-56.5 337,-56.5"/>
<text text-anchor="middle" x="357.5" y="-63.5" font-family="Helvetica,sans-Serif" font-size="10.00">list.h</text>
</a>
</g>
</g>
<!-- Node1&#45;&gt;Node14 -->
<g id="edge13" class="edge">
<title>Node1&#45;&gt;Node14</title>
<path fill="none" stroke="midnightblue" d="M590.5,-116.24C548.65,-108.48 463.82,-92.32 392.5,-76 387.85,-74.94 382.88,-73.71 378.18,-72.51"/>
<polygon fill="midnightblue" stroke="midnightblue" points="589.94,-119.7 600.41,-118.07 591.21,-112.82 589.94,-119.7"/>
</g>
<!-- Node15 -->
<g id="node15" class="node">
<title>Node15</title>
<g id="a_node15"><a xlink:href="../../db/d80/lpf_8h.html" target="_top" xlink:title="Low Pass Filter.">
<polygon fill="white" stroke="black" points="506.5,-0.5 506.5,-19.5 544.5,-19.5 544.5,-0.5 506.5,-0.5"/>
<text text-anchor="middle" x="525.5" y="-7.5" font-family="Helvetica,sans-Serif" font-size="10.00">lpf.h</text>
</a>
</g>
</g>
<!-- Node1&#45;&gt;Node15 -->
<g id="edge15" class="edge">
<title>Node1&#45;&gt;Node15</title>
<path fill="none" stroke="midnightblue" d="M591.56,-108.42C578.18,-100.63 562.27,-89.52 551.5,-76 537.71,-58.7 530.39,-33.15 527.31,-19.82"/>
<polygon fill="midnightblue" stroke="midnightblue" points="589.88,-111.5 600.32,-113.28 593.27,-105.37 589.88,-111.5"/>
</g>
<!-- Node16 -->
<g id="node16" class="node">
<title>Node16</title>
<g id="a_node16"><a xlink:href="../../df/db1/math_8h.html" target="_top" xlink:title="mathematical algorithm library">
<polygon fill="white" stroke="black" points="435,-56.5 435,-75.5 486,-75.5 486,-56.5 435,-56.5"/>
<text text-anchor="middle" x="460.5" y="-63.5" font-family="Helvetica,sans-Serif" font-size="10.00">math.h</text>
</a>
</g>
</g>
<!-- Node1&#45;&gt;Node16 -->
<g id="edge16" class="edge">
<title>Node1&#45;&gt;Node16</title>
<path fill="none" stroke="midnightblue" d="M590.86,-112.13C561.6,-102 514.06,-85.54 485.19,-75.55"/>
<polygon fill="midnightblue" stroke="midnightblue" points="589.8,-115.46 600.39,-115.42 592.09,-108.85 589.8,-115.46"/>
</g>
<!-- Node17 -->
<g id="node17" class="node">
<title>Node17</title>
<g id="a_node17"><a xlink:href="../../d6/dea/mf_8h.html" target="_top" xlink:title="membership function">
<polygon fill="white" stroke="black" points="628.5,-56.5 628.5,-75.5 666.5,-75.5 666.5,-56.5 628.5,-56.5"/>
<text text-anchor="middle" x="647.5" y="-63.5" font-family="Helvetica,sans-Serif" font-size="10.00">mf.h</text>
</a>
</g>
</g>
<!-- Node1&#45;&gt;Node17 -->
<g id="edge20" class="edge">
<title>Node1&#45;&gt;Node17</title>
<path fill="none" stroke="midnightblue" d="M626.68,-103.27C631.97,-94.05 638.22,-83.17 642.48,-75.75"/>
<polygon fill="midnightblue" stroke="midnightblue" points="623.56,-101.67 621.62,-112.08 629.63,-105.15 623.56,-101.67"/>
</g>
<!-- Node18 -->
<g id="node18" class="node">
<title>Node18</title>
<g id="a_node18"><a xlink:href="../../d4/ddc/oop_8h.html" target="_top" xlink:title="Object Oriented Programming Macros.">
<polygon fill="white" stroke="black" points="684.5,-56.5 684.5,-75.5 728.5,-75.5 728.5,-56.5 684.5,-56.5"/>
<text text-anchor="middle" x="706.5" y="-63.5" font-family="Helvetica,sans-Serif" font-size="10.00">oop.h</text>
</a>
</g>
</g>
<!-- Node1&#45;&gt;Node18 -->
<g id="edge22" class="edge">
<title>Node1&#45;&gt;Node18</title>
<path fill="none" stroke="midnightblue" d="M639.54,-107.18C656.1,-97.24 677.92,-84.15 692.08,-75.65"/>
<polygon fill="midnightblue" stroke="midnightblue" points="637.73,-104.18 630.96,-112.32 641.34,-110.18 637.73,-104.18"/>
</g>
<!-- Node19 -->
<g id="node19" class="node">
<title>Node19</title>
<g id="a_node19"><a xlink:href="../../da/df0/pid_8h.html" target="_top" xlink:title="proportional integral derivative controller">
<polygon fill="white" stroke="black" points="747,-56.5 747,-75.5 788,-75.5 788,-56.5 747,-56.5"/>
<text text-anchor="middle" x="767.5" y="-63.5" font-family="Helvetica,sans-Serif" font-size="10.00">pid.h</text>
</a>
</g>
</g>
<!-- Node1&#45;&gt;Node19 -->
<g id="edge23" class="edge">
<title>Node1&#45;&gt;Node19</title>
<path fill="none" stroke="midnightblue" d="M642.29,-111.78C671.85,-101.21 719.72,-84.09 746.9,-74.37"/>
<polygon fill="midnightblue" stroke="midnightblue" points="640.9,-108.56 632.66,-115.22 643.25,-115.15 640.9,-108.56"/>
</g>
<!-- Node20 -->
<g id="node20" class="node">
<title>Node20</title>
<g id="a_node20"><a xlink:href="../../db/d57/poly_8h.html" target="_top" xlink:title="polynomial">
<polygon fill="white" stroke="black" points="806,-56.5 806,-75.5 851,-75.5 851,-56.5 806,-56.5"/>
<text text-anchor="middle" x="828.5" y="-63.5" font-family="Helvetica,sans-Serif" font-size="10.00">poly.h</text>
</a>
</g>
</g>
<!-- Node1&#45;&gt;Node20 -->
<g id="edge25" class="edge">
<title>Node1&#45;&gt;Node20</title>
<path fill="none" stroke="midnightblue" d="M642.47,-114.88C677.7,-106.5 742.53,-90.81 797.5,-76 800.21,-75.27 803.04,-74.48 805.84,-73.69"/>
<polygon fill="midnightblue" stroke="midnightblue" points="641.46,-111.52 632.53,-117.24 643.07,-118.33 641.46,-111.52"/>
</g>
<!-- Node21 -->
<g id="node21" class="node">
<title>Node21</title>
<g id="a_node21"><a xlink:href="../../dc/d23/polytrack_8h.html" target="_top" xlink:title="polynomial trajectory">
<polygon fill="white" stroke="black" points="869,-56.5 869,-75.5 940,-75.5 940,-56.5 869,-56.5"/>
<text text-anchor="middle" x="904.5" y="-63.5" font-family="Helvetica,sans-Serif" font-size="10.00">polytrack.h</text>
</a>
</g>
</g>
<!-- Node1&#45;&gt;Node21 -->
<g id="edge26" class="edge">
<title>Node1&#45;&gt;Node21</title>
<path fill="none" stroke="midnightblue" d="M642.5,-116.37C687.14,-108.4 781.2,-91.42 860.5,-76 863.26,-75.46 866.11,-74.9 868.97,-74.33"/>
<polygon fill="midnightblue" stroke="midnightblue" points="641.74,-112.96 632.51,-118.16 642.97,-119.85 641.74,-112.96"/>
</g>
<!-- Node22 -->
<g id="node22" class="node">
<title>Node22</title>
<g id="a_node22"><a xlink:href="../../d6/d1b/rbt_8h.html" target="_top" xlink:title="red–black self&#45;balancing binary search tree">
<polygon fill="white" stroke="black" points="958,-56.5 958,-75.5 997,-75.5 997,-56.5 958,-56.5"/>
<text text-anchor="middle" x="977.5" y="-63.5" font-family="Helvetica,sans-Serif" font-size="10.00">rbt.h</text>
</a>
</g>
</g>
<!-- Node1&#45;&gt;Node22 -->
<g id="edge27" class="edge">
<title>Node1&#45;&gt;Node22</title>
<path fill="none" stroke="midnightblue" d="M642.85,-119.03C699.51,-114.45 836.95,-101.48 949.5,-76 952.19,-75.39 954.99,-74.64 957.74,-73.83"/>
<polygon fill="midnightblue" stroke="midnightblue" points="642.32,-115.56 632.62,-119.84 642.87,-122.54 642.32,-115.56"/>
</g>
<!-- Node23 -->
<g id="node23" class="node">
<title>Node23</title>
<g id="a_node23"><a xlink:href="../../d1/dad/slist_8h.html" target="_top" xlink:title="circular singly linked list implementation">
<polygon fill="white" stroke="black" points="1015.5,-56.5 1015.5,-75.5 1061.5,-75.5 1061.5,-56.5 1015.5,-56.5"/>
<text text-anchor="middle" x="1038.5" y="-63.5" font-family="Helvetica,sans-Serif" font-size="10.00">slist.h</text>
</a>
</g>
</g>
<!-- Node1&#45;&gt;Node23 -->
<g id="edge28" class="edge">
<title>Node1&#45;&gt;Node23</title>
<path fill="none" stroke="midnightblue" d="M642.88,-119.41C706.12,-115.29 871.18,-102.66 1006.5,-76 1009.33,-75.44 1012.28,-74.76 1015.18,-74.02"/>
<polygon fill="midnightblue" stroke="midnightblue" points="642.37,-115.94 632.62,-120.06 642.82,-122.92 642.37,-115.94"/>
</g>
<!-- Node24 -->
<g id="node24" class="node">
<title>Node24</title>
<g id="a_node24"><a xlink:href="../../d2/d16/tf_8h.html" target="_top" xlink:title="transfer function">
<polygon fill="white" stroke="black" points="1079.5,-56.5 1079.5,-75.5 1111.5,-75.5 1111.5,-56.5 1079.5,-56.5"/>
<text text-anchor="middle" x="1095.5" y="-63.5" font-family="Helvetica,sans-Serif" font-size="10.00">tf.h</text>
</a>
</g>
</g>
<!-- Node1&#45;&gt;Node24 -->
<g id="edge29" class="edge">
<title>Node1&#45;&gt;Node24</title>
<path fill="none" stroke="midnightblue" d="M643.01,-120.64C713.49,-119.21 911,-112.03 1070.5,-76 1073.38,-75.35 1076.38,-74.46 1079.27,-73.5"/>
<polygon fill="midnightblue" stroke="midnightblue" points="642.75,-117.15 632.81,-120.83 642.88,-124.15 642.75,-117.15"/>
</g>
<!-- Node25 -->
<g id="node25" class="node">
<title>Node25</title>
<g id="a_node25"><a xlink:href="../../de/db7/utf_8h.html" target="_top" xlink:title="Unicode Transformation Format.">
<polygon fill="white" stroke="black" points="1129.5,-56.5 1129.5,-75.5 1167.5,-75.5 1167.5,-56.5 1129.5,-56.5"/>
<text text-anchor="middle" x="1148.5" y="-63.5" font-family="Helvetica,sans-Serif" font-size="10.00">utf.h</text>
</a>
</g>
</g>
<!-- Node1&#45;&gt;Node25 -->
<g id="edge30" class="edge">
<title>Node1&#45;&gt;Node25</title>
<path fill="none" stroke="midnightblue" d="M642.8,-120.7C718.05,-119.4 940.38,-112.52 1120.5,-76 1123.4,-75.41 1126.43,-74.63 1129.37,-73.77"/>
<polygon fill="midnightblue" stroke="midnightblue" points="642.74,-117.2 632.79,-120.85 642.84,-124.2 642.74,-117.2"/>
</g>
<!-- Node26 -->
<g id="node26" class="node">
<title>Node26</title>
<g id="a_node26"><a xlink:href="../../df/dfc/version_8h.html" target="_top" xlink:title="algorithm library version">
<polygon fill="white" stroke="black" points="1185.5,-56.5 1185.5,-75.5 1247.5,-75.5 1247.5,-56.5 1185.5,-56.5"/>
<text text-anchor="middle" x="1216.5" y="-63.5" font-family="Helvetica,sans-Serif" font-size="10.00">version.h</text>
</a>
</g>
</g>
<!-- Node1&#45;&gt;Node26 -->
<g id="edge31" class="edge">
<title>Node1&#45;&gt;Node26</title>
<path fill="none" stroke="midnightblue" d="M642.84,-120.2C723.25,-117.49 972.5,-106.99 1176.5,-76 1179.31,-75.57 1182.23,-75.06 1185.14,-74.5"/>
<polygon fill="midnightblue" stroke="midnightblue" points="642.51,-116.71 632.63,-120.54 642.74,-123.71 642.51,-116.71"/>
</g>
<!-- Node7 -->
<g id="node7" class="node">
<title>Node7</title>
<g id="a_node7"><a xlink:href="../../d7/d30/pid__fuzzy_8h.html" target="_top" xlink:title="fuzzy proportional integral derivative controller">
<polygon fill="white" stroke="black" points="612,-0.5 612,-19.5 683,-19.5 683,-0.5 612,-0.5"/>
<text text-anchor="middle" x="647.5" y="-7.5" font-family="Helvetica,sans-Serif" font-size="10.00">pid_fuzzy.h</text>
</a>
</g>
</g>
<!-- Node6&#45;&gt;Node7 -->
<g id="edge6" class="edge">
<title>Node6&#45;&gt;Node7</title>
<path fill="none" stroke="midnightblue" d="M603.25,-49.54C614.31,-39.91 628.13,-27.87 637.36,-19.83"/>
<polygon fill="midnightblue" stroke="midnightblue" points="600.7,-47.12 595.46,-56.32 605.3,-52.4 600.7,-47.12"/>
</g>
<!-- Node9 -->
<g id="node9" class="node">
<title>Node9</title>
<g id="a_node9"><a xlink:href="../../d9/dc9/que_8h.html" target="_top" xlink:title="basic queue library">
<polygon fill="white" stroke="black" points="339.5,-0.5 339.5,-19.5 407.5,-19.5 407.5,-0.5 339.5,-0.5"/>
<text text-anchor="middle" x="373.5" y="-7.5" font-family="Helvetica,sans-Serif" font-size="10.00">host/que.h</text>
</a>
</g>
</g>
<!-- Node8&#45;&gt;Node9 -->
<g id="edge8" class="edge">
<title>Node8&#45;&gt;Node9</title>
<path fill="none" stroke="midnightblue" d="M312.6,-50.62C327.76,-40.76 347.38,-27.99 360.2,-19.65"/>
<polygon fill="midnightblue" stroke="midnightblue" points="310.31,-47.94 303.84,-56.32 314.13,-53.8 310.31,-47.94"/>
</g>
<!-- Node10 -->
<g id="node10" class="node">
<title>Node10</title>
<g id="a_node10"><a xlink:href="../../d1/d93/str_8h.html" target="_top" xlink:title="basic string library">
<polygon fill="white" stroke="black" points="259.5,-0.5 259.5,-19.5 321.5,-19.5 321.5,-0.5 259.5,-0.5"/>
<text text-anchor="middle" x="290.5" y="-7.5" font-family="Helvetica,sans-Serif" font-size="10.00">host/str.h</text>
</a>
</g>
</g>
<!-- Node8&#45;&gt;Node10 -->
<g id="edge9" class="edge">
<title>Node8&#45;&gt;Node10</title>
<path fill="none" stroke="midnightblue" d="M290.5,-45.8C290.5,-36.91 290.5,-26.78 290.5,-19.75"/>
<polygon fill="midnightblue" stroke="midnightblue" points="287,-46.08 290.5,-56.08 294,-46.08 287,-46.08"/>
</g>
<!-- Node11 -->
<g id="node11" class="node">
<title>Node11</title>
<g id="a_node11"><a xlink:href="../../db/d65/vec_8h.html" target="_top" xlink:title="basic vector library">
<polygon fill="white" stroke="black" points="76,-0.5 76,-19.5 143,-19.5 143,-0.5 76,-0.5"/>
<text text-anchor="middle" x="109.5" y="-7.5" font-family="Helvetica,sans-Serif" font-size="10.00">host/vec.h</text>
</a>
</g>
</g>
<!-- Node8&#45;&gt;Node11 -->
<g id="edge10" class="edge">
<title>Node8&#45;&gt;Node11</title>
<path fill="none" stroke="midnightblue" d="M252.6,-53.69C218.49,-43.52 169.11,-28.78 138.18,-19.56"/>
<polygon fill="midnightblue" stroke="midnightblue" points="251.64,-57.06 262.22,-56.56 253.64,-50.35 251.64,-57.06"/>
</g>
<!-- Node12 -->
<g id="node12" class="node">
<title>Node12</title>
<g id="a_node12"><a xlink:href="../../d6/d68/vector_8h.html" target="_top" xlink:title="basic vector library">
<polygon fill="white" stroke="black" points="161.5,-0.5 161.5,-19.5 241.5,-19.5 241.5,-0.5 161.5,-0.5"/>
<text text-anchor="middle" x="201.5" y="-7.5" font-family="Helvetica,sans-Serif" font-size="10.00">host/vector.h</text>
</a>
</g>
</g>
<!-- Node8&#45;&gt;Node12 -->
<g id="edge11" class="edge">
<title>Node8&#45;&gt;Node12</title>
<path fill="none" stroke="midnightblue" d="M267.26,-50.9C250.94,-41 229.63,-28.07 215.76,-19.65"/>
<polygon fill="midnightblue" stroke="midnightblue" points="265.84,-54.13 276.2,-56.32 269.47,-48.14 265.84,-54.13"/>
</g>
<!-- Node14&#45;&gt;Node9 -->
<g id="edge14" class="edge">
<title>Node14&#45;&gt;Node9</title>
<path fill="none" stroke="midnightblue" d="M363.01,-46.4C365.69,-37.36 368.78,-26.94 370.91,-19.75"/>
<polygon fill="midnightblue" stroke="midnightblue" points="359.63,-45.5 360.14,-56.08 366.34,-47.49 359.63,-45.5"/>
</g>
<!-- Node16&#45;&gt;Node13 -->
<g id="edge17" class="edge">
<title>Node16&#45;&gt;Node13</title>
<path fill="none" stroke="midnightblue" d="M458.05,-46.1C456.89,-37.14 455.56,-26.86 454.63,-19.75"/>
<polygon fill="midnightblue" stroke="midnightblue" points="454.59,-46.62 459.34,-56.08 461.53,-45.72 454.59,-46.62"/>
</g>
<!-- Node16&#45;&gt;Node15 -->
<g id="edge18" class="edge">
<title>Node16&#45;&gt;Node15</title>
<path fill="none" stroke="midnightblue" d="M478.77,-49.82C490.42,-40.15 505.1,-27.95 514.87,-19.83"/>
<polygon fill="midnightblue" stroke="midnightblue" points="476.4,-47.24 470.94,-56.32 480.87,-52.63 476.4,-47.24"/>
</g>
<!-- Node16&#45;&gt;Node16 -->
<g id="edge19" class="edge">
<title>Node16&#45;&gt;Node16</title>
<path fill="none" stroke="midnightblue" d="M489.51,-76.45C497.7,-76.01 504,-72.52 504,-66 504,-56.92 491.81,-53.73 479.28,-56.43"/>
<polygon fill="midnightblue" stroke="midnightblue" points="489.54,-72.94 479.28,-75.57 488.94,-79.92 489.54,-72.94"/>
</g>
<!-- Node17&#45;&gt;Node7 -->
<g id="edge21" class="edge">
<title>Node17&#45;&gt;Node7</title>
<path fill="none" stroke="midnightblue" d="M647.5,-45.8C647.5,-36.91 647.5,-26.78 647.5,-19.75"/>
<polygon fill="midnightblue" stroke="midnightblue" points="644,-46.08 647.5,-56.08 651,-46.08 644,-46.08"/>
</g>
<!-- Node19&#45;&gt;Node7 -->
<g id="edge24" class="edge">
<title>Node19&#45;&gt;Node7</title>
<path fill="none" stroke="midnightblue" d="M739.13,-52.23C716.68,-42.13 685.96,-28.31 666.43,-19.52"/>
<polygon fill="midnightblue" stroke="midnightblue" points="737.93,-55.53 748.49,-56.44 740.8,-49.15 737.93,-55.53"/>
</g>
</g>
</svg>
