<?xml version="1.0" encoding="UTF-8" standalone="no"?>
<!DOCTYPE svg PUBLIC "-//W3C//DTD SVG 1.1//EN"
 "http://www.w3.org/Graphics/SVG/1.1/DTD/svg11.dtd">
<!-- Generated by graphviz version 2.43.0 (0)
 -->
<!-- Title: a.h Pages: 1 -->
<svg width="1163pt" height="140pt"
 viewBox="0.00 0.00 1162.50 140.00" xmlns="http://www.w3.org/2000/svg" xmlns:xlink="http://www.w3.org/1999/xlink">
<g id="graph0" class="graph" transform="scale(1 1) rotate(0) translate(4 136)">
<title>a.h</title>
<polygon fill="white" stroke="transparent" points="-4,4 -4,-136 1158.5,-136 1158.5,4 -4,4"/>
<!-- Node1 -->
<g id="node1" class="node">
<title>Node1</title>
<g id="a_node1"><a xlink:title="algorithm library">
<polygon fill="#bfbfbf" stroke="black" points="555.5,-112.5 555.5,-131.5 587.5,-131.5 587.5,-112.5 555.5,-112.5"/>
<text text-anchor="middle" x="571.5" y="-119.5" font-family="Helvetica,sans-Serif" font-size="10.00">a.h</text>
</a>
</g>
</g>
<!-- Node2 -->
<g id="node2" class="node">
<title>Node2</title>
<g id="a_node2"><a xlink:href="../../d3/d51/avl_8h.html" target="_top" xlink:title="Adelson&#45;Velsky and Landis self&#45;balancing binary search tree.">
<polygon fill="white" stroke="black" points="0,-56.5 0,-75.5 41,-75.5 41,-56.5 0,-56.5"/>
<text text-anchor="middle" x="20.5" y="-63.5" font-family="Helvetica,sans-Serif" font-size="10.00">avl.h</text>
</a>
</g>
</g>
<!-- Node1&#45;&gt;Node2 -->
<g id="edge1" class="edge">
<title>Node1&#45;&gt;Node2</title>
<path fill="none" stroke="midnightblue" d="M544.81,-120.71C467.44,-119.46 236.68,-112.67 49.5,-76 46.81,-75.47 44.02,-74.79 41.27,-74.03"/>
<polygon fill="midnightblue" stroke="midnightblue" points="545.04,-124.22 555.09,-120.86 545.14,-117.22 545.04,-124.22"/>
</g>
<!-- Node3 -->
<g id="node3" class="node">
<title>Node3</title>
<g id="a_node3"><a xlink:href="../../d6/d6d/buf_8h.html" target="_top" xlink:title="basic buffer library">
<polygon fill="white" stroke="black" points="59,-56.5 59,-75.5 100,-75.5 100,-56.5 59,-56.5"/>
<text text-anchor="middle" x="79.5" y="-63.5" font-family="Helvetica,sans-Serif" font-size="10.00">buf.h</text>
</a>
</g>
</g>
<!-- Node1&#45;&gt;Node3 -->
<g id="edge2" class="edge">
<title>Node1&#45;&gt;Node3</title>
<path fill="none" stroke="midnightblue" d="M545.12,-120.22C474.09,-117.74 273.12,-108.19 109.5,-76 106.41,-75.39 103.17,-74.6 100.02,-73.73"/>
<polygon fill="midnightblue" stroke="midnightblue" points="545.27,-123.73 555.38,-120.56 545.5,-116.73 545.27,-123.73"/>
</g>
<!-- Node4 -->
<g id="node4" class="node">
<title>Node4</title>
<g id="a_node4"><a xlink:href="../../d7/d3b/complex_8h.html" target="_top" xlink:title="complex number">
<polygon fill="white" stroke="black" points="118.5,-56.5 118.5,-75.5 186.5,-75.5 186.5,-56.5 118.5,-56.5"/>
<text text-anchor="middle" x="152.5" y="-63.5" font-family="Helvetica,sans-Serif" font-size="10.00">complex.h</text>
</a>
</g>
</g>
<!-- Node1&#45;&gt;Node4 -->
<g id="edge3" class="edge">
<title>Node1&#45;&gt;Node4</title>
<path fill="none" stroke="midnightblue" d="M545.32,-118.66C483.96,-113 326.16,-97.45 195.5,-76 192.64,-75.53 189.68,-75 186.72,-74.44"/>
<polygon fill="midnightblue" stroke="midnightblue" points="545.03,-122.15 555.3,-119.57 545.66,-115.18 545.03,-122.15"/>
</g>
<!-- Node5 -->
<g id="node5" class="node">
<title>Node5</title>
<g id="a_node5"><a xlink:href="../../dc/de6/crc_8h.html" target="_top" xlink:title="Cyclic Redundancy Check.">
<polygon fill="white" stroke="black" points="204.5,-56.5 204.5,-75.5 244.5,-75.5 244.5,-56.5 204.5,-56.5"/>
<text text-anchor="middle" x="224.5" y="-63.5" font-family="Helvetica,sans-Serif" font-size="10.00">crc.h</text>
</a>
</g>
</g>
<!-- Node1&#45;&gt;Node5 -->
<g id="edge4" class="edge">
<title>Node1&#45;&gt;Node5</title>
<path fill="none" stroke="midnightblue" d="M545.25,-118.72C490.51,-113.66 360.39,-99.99 253.5,-76 250.62,-75.35 247.61,-74.56 244.67,-73.71"/>
<polygon fill="midnightblue" stroke="midnightblue" points="545.18,-122.23 555.45,-119.65 545.81,-115.26 545.18,-122.23"/>
</g>
<!-- Node6 -->
<g id="node6" class="node">
<title>Node6</title>
<g id="a_node6"><a xlink:href="../../df/d2a/fuzzy_8h.html" target="_top" xlink:title="fuzzy operator">
<polygon fill="white" stroke="black" points="512.5,-56.5 512.5,-75.5 562.5,-75.5 562.5,-56.5 512.5,-56.5"/>
<text text-anchor="middle" x="537.5" y="-63.5" font-family="Helvetica,sans-Serif" font-size="10.00">fuzzy.h</text>
</a>
</g>
</g>
<!-- Node1&#45;&gt;Node6 -->
<g id="edge5" class="edge">
<title>Node1&#45;&gt;Node6</title>
<path fill="none" stroke="midnightblue" d="M560.52,-103.57C554.67,-94.27 547.73,-83.25 543.01,-75.75"/>
<polygon fill="midnightblue" stroke="midnightblue" points="557.6,-105.49 565.89,-112.08 563.52,-101.76 557.6,-105.49"/>
</g>
<!-- Node8 -->
<g id="node8" class="node">
<title>Node8</title>
<g id="a_node8"><a xlink:href="../../d0/d97/host_2a_8h.html" target="_top" xlink:title="algorithm library on host">
<polygon fill="white" stroke="black" points="322.5,-56.5 322.5,-75.5 378.5,-75.5 378.5,-56.5 322.5,-56.5"/>
<text text-anchor="middle" x="350.5" y="-63.5" font-family="Helvetica,sans-Serif" font-size="10.00">host/a.h</text>
</a>
</g>
</g>
<!-- Node1&#45;&gt;Node8 -->
<g id="edge7" class="edge">
<title>Node1&#45;&gt;Node8</title>
<path fill="none" stroke="midnightblue" d="M545.53,-114.65C503.7,-104.43 421.75,-84.41 378.6,-73.87"/>
<polygon fill="midnightblue" stroke="midnightblue" points="544.7,-118.06 555.25,-117.03 546.37,-111.26 544.7,-118.06"/>
</g>
<!-- Node13 -->
<g id="node13" class="node">
<title>Node13</title>
<g id="a_node13"><a xlink:href="../../da/d23/list_8h.html" target="_top" xlink:title="circular doubly linked list implementation">
<polygon fill="white" stroke="black" points="263,-56.5 263,-75.5 304,-75.5 304,-56.5 263,-56.5"/>
<text text-anchor="middle" x="283.5" y="-63.5" font-family="Helvetica,sans-Serif" font-size="10.00">list.h</text>
</a>
</g>
</g>
<!-- Node1&#45;&gt;Node13 -->
<g id="edge12" class="edge">
<title>Node1&#45;&gt;Node13</title>
<path fill="none" stroke="midnightblue" d="M545.46,-117.5C498.67,-110.99 397.45,-95.84 313.5,-76 310.43,-75.27 307.21,-74.42 304.07,-73.52"/>
<polygon fill="midnightblue" stroke="midnightblue" points="544.98,-120.97 555.36,-118.87 545.93,-114.04 544.98,-120.97"/>
</g>
<!-- Node14 -->
<g id="node14" class="node">
<title>Node14</title>
<g id="a_node14"><a xlink:href="../../df/db1/math_8h.html" target="_top" xlink:title="mathematical algorithm library">
<polygon fill="white" stroke="black" points="581,-56.5 581,-75.5 632,-75.5 632,-56.5 581,-56.5"/>
<text text-anchor="middle" x="606.5" y="-63.5" font-family="Helvetica,sans-Serif" font-size="10.00">math.h</text>
</a>
</g>
</g>
<!-- Node1&#45;&gt;Node14 -->
<g id="edge14" class="edge">
<title>Node1&#45;&gt;Node14</title>
<path fill="none" stroke="midnightblue" d="M582.8,-103.57C588.82,-94.27 595.97,-83.25 600.83,-75.75"/>
<polygon fill="midnightblue" stroke="midnightblue" points="579.78,-101.79 577.28,-112.08 585.66,-105.6 579.78,-101.79"/>
</g>
<!-- Node15 -->
<g id="node15" class="node">
<title>Node15</title>
<g id="a_node15"><a xlink:href="../../d5/d1e/real_8h.html" target="_top" xlink:title="real number">
<polygon fill="white" stroke="black" points="651.5,-0.5 651.5,-19.5 695.5,-19.5 695.5,-0.5 651.5,-0.5"/>
<text text-anchor="middle" x="673.5" y="-7.5" font-family="Helvetica,sans-Serif" font-size="10.00">real.h</text>
</a>
</g>
</g>
<!-- Node1&#45;&gt;Node15 -->
<g id="edge25" class="edge">
<title>Node1&#45;&gt;Node15</title>
<path fill="none" stroke="midnightblue" d="M597.95,-121.81C632.78,-121.26 692.94,-114.38 721.5,-76 736.49,-55.85 707.05,-32.1 687.98,-19.64"/>
<polygon fill="midnightblue" stroke="midnightblue" points="597.6,-118.31 587.6,-121.8 597.6,-125.31 597.6,-118.31"/>
</g>
<!-- Node16 -->
<g id="node16" class="node">
<title>Node16</title>
<g id="a_node16"><a xlink:href="../../d6/dea/mf_8h.html" target="_top" xlink:title="membership function">
<polygon fill="white" stroke="black" points="396.5,-56.5 396.5,-75.5 434.5,-75.5 434.5,-56.5 396.5,-56.5"/>
<text text-anchor="middle" x="415.5" y="-63.5" font-family="Helvetica,sans-Serif" font-size="10.00">mf.h</text>
</a>
</g>
</g>
<!-- Node1&#45;&gt;Node16 -->
<g id="edge17" class="edge">
<title>Node1&#45;&gt;Node16</title>
<path fill="none" stroke="midnightblue" d="M545.65,-112.05C514.4,-101.24 462.55,-83.29 434.66,-73.63"/>
<polygon fill="midnightblue" stroke="midnightblue" points="544.8,-115.46 555.39,-115.42 547.09,-108.85 544.8,-115.46"/>
</g>
<!-- Node17 -->
<g id="node17" class="node">
<title>Node17</title>
<g id="a_node17"><a xlink:href="../../d4/ddc/oop_8h.html" target="_top" xlink:title="Object Oriented Programming Macros.">
<polygon fill="white" stroke="black" points="668.5,-56.5 668.5,-75.5 712.5,-75.5 712.5,-56.5 668.5,-56.5"/>
<text text-anchor="middle" x="690.5" y="-63.5" font-family="Helvetica,sans-Serif" font-size="10.00">oop.h</text>
</a>
</g>
</g>
<!-- Node1&#45;&gt;Node17 -->
<g id="edge19" class="edge">
<title>Node1&#45;&gt;Node17</title>
<path fill="none" stroke="midnightblue" d="M596.77,-109.53C619.16,-99.37 651.34,-84.77 671.57,-75.59"/>
<polygon fill="midnightblue" stroke="midnightblue" points="595.21,-106.4 587.55,-113.72 598.1,-112.77 595.21,-106.4"/>
</g>
<!-- Node18 -->
<g id="node18" class="node">
<title>Node18</title>
<g id="a_node18"><a xlink:href="../../da/df0/pid_8h.html" target="_top" xlink:title="proportional integral derivative controller">
<polygon fill="white" stroke="black" points="453,-56.5 453,-75.5 494,-75.5 494,-56.5 453,-56.5"/>
<text text-anchor="middle" x="473.5" y="-63.5" font-family="Helvetica,sans-Serif" font-size="10.00">pid.h</text>
</a>
</g>
</g>
<!-- Node1&#45;&gt;Node18 -->
<g id="edge20" class="edge">
<title>Node1&#45;&gt;Node18</title>
<path fill="none" stroke="midnightblue" d="M546.91,-107.45C528.82,-97.48 504.77,-84.23 489.21,-75.65"/>
<polygon fill="midnightblue" stroke="midnightblue" points="545.31,-110.56 555.75,-112.32 548.69,-104.43 545.31,-110.56"/>
</g>
<!-- Node19 -->
<g id="node19" class="node">
<title>Node19</title>
<g id="a_node19"><a xlink:href="../../db/d57/poly_8h.html" target="_top" xlink:title="polynomial">
<polygon fill="white" stroke="black" points="769,-56.5 769,-75.5 814,-75.5 814,-56.5 769,-56.5"/>
<text text-anchor="middle" x="791.5" y="-63.5" font-family="Helvetica,sans-Serif" font-size="10.00">poly.h</text>
</a>
</g>
</g>
<!-- Node1&#45;&gt;Node19 -->
<g id="edge22" class="edge">
<title>Node1&#45;&gt;Node19</title>
<path fill="none" stroke="midnightblue" d="M597.5,-114.62C641,-103.94 727.77,-82.64 768.89,-72.55"/>
<polygon fill="midnightblue" stroke="midnightblue" points="596.55,-111.25 587.68,-117.03 598.22,-118.04 596.55,-111.25"/>
</g>
<!-- Node20 -->
<g id="node20" class="node">
<title>Node20</title>
<g id="a_node20"><a xlink:href="../../dc/d23/polytrack_8h.html" target="_top" xlink:title="polynomial trajectory">
<polygon fill="white" stroke="black" points="832,-56.5 832,-75.5 903,-75.5 903,-56.5 832,-56.5"/>
<text text-anchor="middle" x="867.5" y="-63.5" font-family="Helvetica,sans-Serif" font-size="10.00">polytrack.h</text>
</a>
</g>
</g>
<!-- Node1&#45;&gt;Node20 -->
<g id="edge23" class="edge">
<title>Node1&#45;&gt;Node20</title>
<path fill="none" stroke="midnightblue" d="M597.74,-116.54C643.59,-108.69 741.27,-91.75 823.5,-76 826.26,-75.47 829.11,-74.91 831.97,-74.35"/>
<polygon fill="midnightblue" stroke="midnightblue" points="597.01,-113.11 587.74,-118.25 598.19,-120.01 597.01,-113.11"/>
</g>
<!-- Node21 -->
<g id="node21" class="node">
<title>Node21</title>
<g id="a_node21"><a xlink:href="../../d6/d1b/rbt_8h.html" target="_top" xlink:title="red–black self&#45;balancing binary search tree">
<polygon fill="white" stroke="black" points="921,-56.5 921,-75.5 960,-75.5 960,-56.5 921,-56.5"/>
<text text-anchor="middle" x="940.5" y="-63.5" font-family="Helvetica,sans-Serif" font-size="10.00">rbt.h</text>
</a>
</g>
</g>
<!-- Node1&#45;&gt;Node21 -->
<g id="edge24" class="edge">
<title>Node1&#45;&gt;Node21</title>
<path fill="none" stroke="midnightblue" d="M597.71,-119.16C655.25,-114.76 796.74,-102.02 912.5,-76 915.19,-75.4 917.99,-74.65 920.74,-73.84"/>
<polygon fill="midnightblue" stroke="midnightblue" points="597.37,-115.67 587.66,-119.9 597.89,-122.65 597.37,-115.67"/>
</g>
<!-- Node22 -->
<g id="node22" class="node">
<title>Node22</title>
<g id="a_node22"><a xlink:href="../../d1/dad/slist_8h.html" target="_top" xlink:title="circular singly linked list implementation">
<polygon fill="white" stroke="black" points="978.5,-56.5 978.5,-75.5 1024.5,-75.5 1024.5,-56.5 978.5,-56.5"/>
<text text-anchor="middle" x="1001.5" y="-63.5" font-family="Helvetica,sans-Serif" font-size="10.00">slist.h</text>
</a>
</g>
</g>
<!-- Node1&#45;&gt;Node22 -->
<g id="edge26" class="edge">
<title>Node1&#45;&gt;Node22</title>
<path fill="none" stroke="midnightblue" d="M597.57,-119.51C661.47,-115.56 830.8,-103.16 969.5,-76 972.33,-75.45 975.28,-74.76 978.19,-74.03"/>
<polygon fill="midnightblue" stroke="midnightblue" points="597.34,-116.02 587.57,-120.12 597.76,-123.01 597.34,-116.02"/>
</g>
<!-- Node23 -->
<g id="node23" class="node">
<title>Node23</title>
<g id="a_node23"><a xlink:href="../../d2/d16/tf_8h.html" target="_top" xlink:title="transfer function">
<polygon fill="white" stroke="black" points="1042.5,-56.5 1042.5,-75.5 1074.5,-75.5 1074.5,-56.5 1042.5,-56.5"/>
<text text-anchor="middle" x="1058.5" y="-63.5" font-family="Helvetica,sans-Serif" font-size="10.00">tf.h</text>
</a>
</g>
</g>
<!-- Node1&#45;&gt;Node23 -->
<g id="edge27" class="edge">
<title>Node1&#45;&gt;Node23</title>
<path fill="none" stroke="midnightblue" d="M597.98,-120.71C669.27,-119.44 870.81,-112.61 1033.5,-76 1036.38,-75.35 1039.38,-74.47 1042.27,-73.5"/>
<polygon fill="midnightblue" stroke="midnightblue" points="597.63,-117.21 587.69,-120.87 597.74,-124.21 597.63,-117.21"/>
</g>
<!-- Node24 -->
<g id="node24" class="node">
<title>Node24</title>
<g id="a_node24"><a xlink:href="../../df/dfc/version_8h.html" target="_top" xlink:title="algorithm library version">
<polygon fill="white" stroke="black" points="1092.5,-56.5 1092.5,-75.5 1154.5,-75.5 1154.5,-56.5 1092.5,-56.5"/>
<text text-anchor="middle" x="1123.5" y="-63.5" font-family="Helvetica,sans-Serif" font-size="10.00">version.h</text>
</a>
</g>
</g>
<!-- Node1&#45;&gt;Node24 -->
<g id="edge28" class="edge">
<title>Node1&#45;&gt;Node24</title>
<path fill="none" stroke="midnightblue" d="M597.56,-119.94C673.1,-116.61 898.62,-104.79 1083.5,-76 1086.31,-75.56 1089.22,-75.04 1092.13,-74.47"/>
<polygon fill="midnightblue" stroke="midnightblue" points="597.36,-116.45 587.52,-120.37 597.66,-123.44 597.36,-116.45"/>
</g>
<!-- Node7 -->
<g id="node7" class="node">
<title>Node7</title>
<g id="a_node7"><a xlink:href="../../d4/d05/fpid_8h.html" target="_top" xlink:title="fuzzy proportional integral derivative controller">
<polygon fill="white" stroke="black" points="508.5,-0.5 508.5,-19.5 552.5,-19.5 552.5,-0.5 508.5,-0.5"/>
<text text-anchor="middle" x="530.5" y="-7.5" font-family="Helvetica,sans-Serif" font-size="10.00">fpid.h</text>
</a>
</g>
</g>
<!-- Node6&#45;&gt;Node7 -->
<g id="edge6" class="edge">
<title>Node6&#45;&gt;Node7</title>
<path fill="none" stroke="midnightblue" d="M535.05,-46.1C533.89,-37.14 532.56,-26.86 531.63,-19.75"/>
<polygon fill="midnightblue" stroke="midnightblue" points="531.59,-46.62 536.34,-56.08 538.53,-45.72 531.59,-46.62"/>
</g>
<!-- Node9 -->
<g id="node9" class="node">
<title>Node9</title>
<g id="a_node9"><a xlink:href="../../d9/dc9/que_8h.html" target="_top" xlink:title="basic queue library">
<polygon fill="white" stroke="black" points="158.5,-0.5 158.5,-19.5 226.5,-19.5 226.5,-0.5 158.5,-0.5"/>
<text text-anchor="middle" x="192.5" y="-7.5" font-family="Helvetica,sans-Serif" font-size="10.00">host/que.h</text>
</a>
</g>
</g>
<!-- Node8&#45;&gt;Node9 -->
<g id="edge8" class="edge">
<title>Node8&#45;&gt;Node9</title>
<path fill="none" stroke="midnightblue" d="M315.89,-53.17C286.14,-43 243.95,-28.59 217.42,-19.52"/>
<polygon fill="midnightblue" stroke="midnightblue" points="314.87,-56.52 325.46,-56.44 317.13,-49.9 314.87,-56.52"/>
</g>
<!-- Node10 -->
<g id="node10" class="node">
<title>Node10</title>
<g id="a_node10"><a xlink:href="../../d1/d93/str_8h.html" target="_top" xlink:title="basic string library">
<polygon fill="white" stroke="black" points="244.5,-0.5 244.5,-19.5 306.5,-19.5 306.5,-0.5 244.5,-0.5"/>
<text text-anchor="middle" x="275.5" y="-7.5" font-family="Helvetica,sans-Serif" font-size="10.00">host/str.h</text>
</a>
</g>
</g>
<!-- Node8&#45;&gt;Node10 -->
<g id="edge9" class="edge">
<title>Node8&#45;&gt;Node10</title>
<path fill="none" stroke="midnightblue" d="M330.19,-50.38C316.64,-40.62 299.26,-28.11 287.77,-19.83"/>
<polygon fill="midnightblue" stroke="midnightblue" points="328.29,-53.32 338.45,-56.32 332.38,-47.64 328.29,-53.32"/>
</g>
<!-- Node11 -->
<g id="node11" class="node">
<title>Node11</title>
<g id="a_node11"><a xlink:href="../../db/d65/vec_8h.html" target="_top" xlink:title="basic vector library">
<polygon fill="white" stroke="black" points="325,-0.5 325,-19.5 392,-19.5 392,-0.5 325,-0.5"/>
<text text-anchor="middle" x="358.5" y="-7.5" font-family="Helvetica,sans-Serif" font-size="10.00">host/vec.h</text>
</a>
</g>
</g>
<!-- Node8&#45;&gt;Node11 -->
<g id="edge10" class="edge">
<title>Node8&#45;&gt;Node11</title>
<path fill="none" stroke="midnightblue" d="M353.3,-46.1C354.63,-37.14 356.15,-26.86 357.2,-19.75"/>
<polygon fill="midnightblue" stroke="midnightblue" points="349.82,-45.68 351.82,-56.08 356.75,-46.7 349.82,-45.68"/>
</g>
<!-- Node12 -->
<g id="node12" class="node">
<title>Node12</title>
<g id="a_node12"><a xlink:href="../../d6/d68/vector_8h.html" target="_top" xlink:title="basic vector library">
<polygon fill="white" stroke="black" points="410.5,-0.5 410.5,-19.5 490.5,-19.5 490.5,-0.5 410.5,-0.5"/>
<text text-anchor="middle" x="450.5" y="-7.5" font-family="Helvetica,sans-Serif" font-size="10.00">host/vector.h</text>
</a>
</g>
</g>
<!-- Node8&#45;&gt;Node12 -->
<g id="edge11" class="edge">
<title>Node8&#45;&gt;Node12</title>
<path fill="none" stroke="midnightblue" d="M375.59,-51.45C394.05,-41.48 418.6,-28.23 434.47,-19.65"/>
<polygon fill="midnightblue" stroke="midnightblue" points="373.7,-48.49 366.57,-56.32 377.03,-54.65 373.7,-48.49"/>
</g>
<!-- Node13&#45;&gt;Node9 -->
<g id="edge13" class="edge">
<title>Node13&#45;&gt;Node9</title>
<path fill="none" stroke="midnightblue" d="M260.21,-51.18C243.46,-41.24 221.4,-28.15 207.08,-19.65"/>
<polygon fill="midnightblue" stroke="midnightblue" points="258.49,-54.23 268.88,-56.32 262.07,-48.21 258.49,-54.23"/>
</g>
<!-- Node14&#45;&gt;Node14 -->
<g id="edge15" class="edge">
<title>Node14&#45;&gt;Node14</title>
<path fill="none" stroke="midnightblue" d="M635.51,-76.45C643.7,-76.01 650,-72.52 650,-66 650,-56.92 637.81,-53.73 625.28,-56.43"/>
<polygon fill="midnightblue" stroke="midnightblue" points="635.54,-72.94 625.28,-75.57 634.94,-79.92 635.54,-72.94"/>
</g>
<!-- Node14&#45;&gt;Node15 -->
<g id="edge16" class="edge">
<title>Node14&#45;&gt;Node15</title>
<path fill="none" stroke="midnightblue" d="M625.33,-49.82C637.34,-40.15 652.47,-27.95 662.54,-19.83"/>
<polygon fill="midnightblue" stroke="midnightblue" points="622.85,-47.32 617.26,-56.32 627.25,-52.77 622.85,-47.32"/>
</g>
<!-- Node16&#45;&gt;Node7 -->
<g id="edge18" class="edge">
<title>Node16&#45;&gt;Node7</title>
<path fill="none" stroke="midnightblue" d="M442.98,-52.1C464.47,-42.01 493.72,-28.27 512.36,-19.52"/>
<polygon fill="midnightblue" stroke="midnightblue" points="441.29,-49.02 433.72,-56.44 444.26,-55.36 441.29,-49.02"/>
</g>
<!-- Node18&#45;&gt;Node7 -->
<g id="edge21" class="edge">
<title>Node18&#45;&gt;Node7</title>
<path fill="none" stroke="midnightblue" d="M490.12,-49.25C500.23,-39.67 512.78,-27.79 521.18,-19.83"/>
<polygon fill="midnightblue" stroke="midnightblue" points="487.51,-46.91 482.66,-56.32 492.32,-51.99 487.51,-46.91"/>
</g>
</g>
</svg>
