<?xml version="1.0" encoding="UTF-8" standalone="no"?>
<!DOCTYPE svg PUBLIC "-//W3C//DTD SVG 1.1//EN"
 "http://www.w3.org/Graphics/SVG/1.1/DTD/svg11.dtd">
<!-- Generated by graphviz version 2.43.0 (0)
 -->
<!-- Title: a.h Pages: 1 -->
<svg width="1664pt" height="137pt"
 viewBox="0.00 0.00 1663.50 137.00" xmlns="http://www.w3.org/2000/svg" xmlns:xlink="http://www.w3.org/1999/xlink">
<g id="graph0" class="graph" transform="scale(1 1) rotate(0) translate(4 133)">
<title>a.h</title>
<!-- Node1 -->
<g id="Node000001" class="node">
<title>Node1</title>
<g id="a_Node000001"><a xlink:title="algorithm library">
<polygon fill="#999999" stroke="#666666" points="776.5,-129 744.5,-129 744.5,-110 776.5,-110 776.5,-129"/>
<text text-anchor="middle" x="760.5" y="-117" font-family="Helvetica,sans-Serif" font-size="10.00">a.h</text>
</a>
</g>
</g>
<!-- Node2 -->
<g id="Node000002" class="node">
<title>Node2</title>
<g id="a_Node000002"><a xlink:href="../../d3/d51/avl_8h.html" target="_top" xlink:title="Adelson&#45;Velsky and Landis self&#45;balancing binary search tree.">
<polygon fill="white" stroke="#666666" points="41,-74 0,-74 0,-55 41,-55 41,-74"/>
<text text-anchor="middle" x="20.5" y="-62" font-family="Helvetica,sans-Serif" font-size="10.00">avl.h</text>
</a>
</g>
</g>
<!-- Node1&#45;&gt;Node2 -->
<g id="edge1_Node000001_Node000002" class="edge">
<title>Node1&#45;&gt;Node2</title>
<g id="a_edge1_Node000001_Node000002"><a xlink:title=" ">
<path fill="none" stroke="#63b8ff" d="M734.31,-118.95C640.64,-120.12 313.73,-120.39 49.5,-74 46.81,-73.53 44.02,-72.9 41.28,-72.19"/>
<polygon fill="#63b8ff" stroke="#63b8ff" points="734.38,-122.45 744.33,-118.81 734.28,-115.45 734.38,-122.45"/>
</a>
</g>
</g>
<!-- Node3 -->
<g id="Node000003" class="node">
<title>Node3</title>
<g id="a_Node000003"><a xlink:href="../../d6/d6d/buf_8h.html" target="_top" xlink:title="basic buffer library">
<polygon fill="white" stroke="#666666" points="100,-74 59,-74 59,-55 100,-55 100,-74"/>
<text text-anchor="middle" x="79.5" y="-62" font-family="Helvetica,sans-Serif" font-size="10.00">buf.h</text>
</a>
</g>
</g>
<!-- Node1&#45;&gt;Node3 -->
<g id="edge2_Node000001_Node000003" class="edge">
<title>Node1&#45;&gt;Node3</title>
<g id="a_edge2_Node000001_Node000003"><a xlink:title=" ">
<path fill="none" stroke="#63b8ff" d="M733.99,-118.65C645.02,-118.75 349.25,-115.69 109.5,-74 106.41,-73.46 103.18,-72.73 100.03,-71.92"/>
<polygon fill="#63b8ff" stroke="#63b8ff" points="734.26,-122.15 744.25,-118.63 734.24,-115.15 734.26,-122.15"/>
</a>
</g>
</g>
<!-- Node4 -->
<g id="Node000004" class="node">
<title>Node4</title>
<g id="a_Node000004"><a xlink:href="../../d7/d3b/complex_8h.html" target="_top" xlink:title="complex number">
<polygon fill="white" stroke="#666666" points="186.5,-74 118.5,-74 118.5,-55 186.5,-55 186.5,-74"/>
<text text-anchor="middle" x="152.5" y="-62" font-family="Helvetica,sans-Serif" font-size="10.00">complex.h</text>
</a>
</g>
</g>
<!-- Node1&#45;&gt;Node4 -->
<g id="edge3_Node000001_Node000004" class="edge">
<title>Node1&#45;&gt;Node4</title>
<g id="a_edge3_Node000001_Node000004"><a xlink:title=" ">
<path fill="none" stroke="#63b8ff" d="M733.96,-117.51C652.94,-114.25 401.71,-102.4 195.5,-74 192.64,-73.61 189.67,-73.14 186.71,-72.64"/>
<polygon fill="#63b8ff" stroke="#63b8ff" points="734.12,-121.02 744.25,-117.91 734.39,-114.02 734.12,-121.02"/>
</a>
</g>
</g>
<!-- Node5 -->
<g id="Node000005" class="node">
<title>Node5</title>
<g id="a_Node000005"><a xlink:href="../../dc/de6/crc_8h.html" target="_top" xlink:title="Cyclic Redundancy Check.">
<polygon fill="white" stroke="#666666" points="244.5,-74 204.5,-74 204.5,-55 244.5,-55 244.5,-74"/>
<text text-anchor="middle" x="224.5" y="-62" font-family="Helvetica,sans-Serif" font-size="10.00">crc.h</text>
</a>
</g>
</g>
<!-- Node1&#45;&gt;Node5 -->
<g id="edge4_Node000001_Node000005" class="edge">
<title>Node1&#45;&gt;Node5</title>
<g id="a_edge4_Node000001_Node000005"><a xlink:title=" ">
<path fill="none" stroke="#63b8ff" d="M734.09,-118.02C658.51,-116.24 435.16,-108.25 253.5,-74 250.61,-73.46 247.6,-72.74 244.66,-71.96"/>
<polygon fill="#63b8ff" stroke="#63b8ff" points="734.07,-121.52 744.14,-118.24 734.22,-114.52 734.07,-121.52"/>
</a>
</g>
</g>
<!-- Node6 -->
<g id="Node000006" class="node">
<title>Node6</title>
<g id="a_Node000006"><a xlink:href="../../df/d2a/fuzzy_8h.html" target="_top" xlink:title="fuzzy operator">
<polygon fill="white" stroke="#666666" points="312.5,-74 262.5,-74 262.5,-55 312.5,-55 312.5,-74"/>
<text text-anchor="middle" x="287.5" y="-62" font-family="Helvetica,sans-Serif" font-size="10.00">fuzzy.h</text>
</a>
</g>
</g>
<!-- Node1&#45;&gt;Node6 -->
<g id="edge5_Node000001_Node000006" class="edge">
<title>Node1&#45;&gt;Node6</title>
<g id="a_edge5_Node000001_Node000006"><a xlink:title=" ">
<path fill="none" stroke="#63b8ff" d="M734.15,-117.15C665.67,-113.37 476.62,-101.11 321.5,-74 318.62,-73.5 315.63,-72.88 312.66,-72.22"/>
<polygon fill="#63b8ff" stroke="#63b8ff" points="734.27,-120.67 744.44,-117.71 734.64,-113.68 734.27,-120.67"/>
</a>
</g>
</g>
<!-- Node7 -->
<g id="Node000007" class="node">
<title>Node7</title>
<g id="a_Node000007"><a xlink:href="../../d1/df9/hpf_8h.html" target="_top" xlink:title="High Pass Filter.">
<polygon fill="white" stroke="#666666" points="461,-19 420,-19 420,0 461,0 461,-19"/>
<text text-anchor="middle" x="440.5" y="-7" font-family="Helvetica,sans-Serif" font-size="10.00">hpf.h</text>
</a>
</g>
</g>
<!-- Node1&#45;&gt;Node7 -->
<g id="edge6_Node000001_Node000007" class="edge">
<title>Node1&#45;&gt;Node7</title>
<g id="a_edge6_Node000001_Node000007"><a xlink:title=" ">
<path fill="none" stroke="#63b8ff" d="M734.14,-118.22C668.15,-116.98 498.22,-110.26 457.5,-74 441.82,-60.04 439.9,-33.34 440.06,-19.43"/>
<polygon fill="#63b8ff" stroke="#63b8ff" points="734.1,-121.72 744.16,-118.38 734.21,-114.72 734.1,-121.72"/>
</a>
</g>
</g>
<!-- Node8 -->
<g id="Node000008" class="node">
<title>Node8</title>
<g id="a_Node000008"><a xlink:href="../../da/d23/list_8h.html" target="_top" xlink:title="circular doubly linked list implementation">
<polygon fill="white" stroke="#666666" points="372,-74 331,-74 331,-55 372,-55 372,-74"/>
<text text-anchor="middle" x="351.5" y="-62" font-family="Helvetica,sans-Serif" font-size="10.00">list.h</text>
</a>
</g>
</g>
<!-- Node1&#45;&gt;Node8 -->
<g id="edge7_Node000001_Node000008" class="edge">
<title>Node1&#45;&gt;Node8</title>
<g id="a_edge7_Node000001_Node000008"><a xlink:title=" ">
<path fill="none" stroke="#63b8ff" d="M734.03,-116.45C672.62,-111.45 515.84,-97.31 386.5,-74 381.82,-73.16 376.84,-72.07 372.14,-70.95"/>
<polygon fill="#63b8ff" stroke="#63b8ff" points="734.11,-119.97 744.36,-117.28 734.67,-112.99 734.11,-119.97"/>
</a>
</g>
</g>
<!-- Node9 -->
<g id="Node000009" class="node">
<title>Node9</title>
<g id="a_Node000009"><a xlink:href="../../d9/dc9/que_8h.html" target="_top" xlink:title="basic queue library">
<polygon fill="white" stroke="#666666" points="388.5,-19 344.5,-19 344.5,0 388.5,0 388.5,-19"/>
<text text-anchor="middle" x="366.5" y="-7" font-family="Helvetica,sans-Serif" font-size="10.00">que.h</text>
</a>
</g>
</g>
<!-- Node1&#45;&gt;Node9 -->
<g id="edge19_Node000001_Node000009" class="edge">
<title>Node1&#45;&gt;Node9</title>
<g id="a_edge19_Node000001_Node000009"><a xlink:title=" ">
<path fill="none" stroke="#63b8ff" d="M734.33,-116.73C667.85,-111.94 493.96,-97.47 441.5,-74 412.53,-61.04 386.07,-33.39 373.76,-19.24"/>
<polygon fill="#63b8ff" stroke="#63b8ff" points="734.18,-120.23 744.4,-117.44 734.67,-113.25 734.18,-120.23"/>
</a>
</g>
</g>
<!-- Node10 -->
<g id="Node000010" class="node">
<title>Node10</title>
<g id="a_Node000010"><a xlink:href="../../db/d80/lpf_8h.html" target="_top" xlink:title="Low Pass Filter.">
<polygon fill="white" stroke="#666666" points="551.5,-19 513.5,-19 513.5,0 551.5,0 551.5,-19"/>
<text text-anchor="middle" x="532.5" y="-7" font-family="Helvetica,sans-Serif" font-size="10.00">lpf.h</text>
</a>
</g>
</g>
<!-- Node1&#45;&gt;Node10 -->
<g id="edge9_Node000001_Node000010" class="edge">
<title>Node1&#45;&gt;Node10</title>
<g id="a_edge9_Node000001_Node000010"><a xlink:title=" ">
<path fill="none" stroke="#63b8ff" d="M733.93,-117.06C697.38,-113.98 630.76,-104.3 583.5,-74 561.6,-59.96 544.83,-33.3 537.14,-19.41"/>
<polygon fill="#63b8ff" stroke="#63b8ff" points="734.02,-120.58 744.25,-117.82 734.54,-113.6 734.02,-120.58"/>
</a>
</g>
</g>
<!-- Node11 -->
<g id="Node000011" class="node">
<title>Node11</title>
<g id="a_Node000011"><a xlink:href="../../df/db1/math_8h.html" target="_top" xlink:title="mathematical algorithm library">
<polygon fill="white" stroke="#666666" points="518,-74 467,-74 467,-55 518,-55 518,-74"/>
<text text-anchor="middle" x="492.5" y="-62" font-family="Helvetica,sans-Serif" font-size="10.00">math.h</text>
</a>
</g>
</g>
<!-- Node1&#45;&gt;Node11 -->
<g id="edge10_Node000001_Node000011" class="edge">
<title>Node1&#45;&gt;Node11</title>
<g id="a_edge10_Node000001_Node000011"><a xlink:title=" ">
<path fill="none" stroke="#63b8ff" d="M734.12,-113.28C682.55,-103.08 568.96,-80.62 518.05,-70.55"/>
<polygon fill="#63b8ff" stroke="#63b8ff" points="733.65,-116.76 744.14,-115.26 735.01,-109.89 733.65,-116.76"/>
</a>
</g>
</g>
<!-- Node12 -->
<g id="Node000012" class="node">
<title>Node12</title>
<g id="a_Node000012"><a xlink:href="../../d6/dea/mf_8h.html" target="_top" xlink:title="membership function">
<polygon fill="white" stroke="#666666" points="630.5,-74 592.5,-74 592.5,-55 630.5,-55 630.5,-74"/>
<text text-anchor="middle" x="611.5" y="-62" font-family="Helvetica,sans-Serif" font-size="10.00">mf.h</text>
</a>
</g>
</g>
<!-- Node1&#45;&gt;Node12 -->
<g id="edge14_Node000001_Node000012" class="edge">
<title>Node1&#45;&gt;Node12</title>
<g id="a_edge14_Node000001_Node000012"><a xlink:title=" ">
<path fill="none" stroke="#63b8ff" d="M734.6,-109.29C704.91,-98.73 656.95,-81.67 630.51,-72.26"/>
<polygon fill="#63b8ff" stroke="#63b8ff" points="733.68,-112.67 744.27,-112.73 736.02,-106.08 733.68,-112.67"/>
</a>
</g>
</g>
<!-- Node13 -->
<g id="Node000013" class="node">
<title>Node13</title>
<g id="a_Node000013"><a xlink:href="../../da/df0/pid_8h.html" target="_top" xlink:title="proportional integral derivative controller">
<polygon fill="white" stroke="#666666" points="690,-74 649,-74 649,-55 690,-55 690,-74"/>
<text text-anchor="middle" x="669.5" y="-62" font-family="Helvetica,sans-Serif" font-size="10.00">pid.h</text>
</a>
</g>
</g>
<!-- Node1&#45;&gt;Node13 -->
<g id="edge15_Node000001_Node000013" class="edge">
<title>Node1&#45;&gt;Node13</title>
<g id="a_edge15_Node000001_Node000013"><a xlink:title=" ">
<path fill="none" stroke="#63b8ff" d="M736.8,-104.7C720.22,-95.04 698.59,-82.44 684.39,-74.17"/>
<polygon fill="#63b8ff" stroke="#63b8ff" points="735.48,-107.98 745.88,-109.98 739,-101.93 735.48,-107.98"/>
</a>
</g>
</g>
<!-- Node16 -->
<g id="Node000016" class="node">
<title>Node16</title>
<g id="a_Node000016"><a xlink:href="../../db/d57/poly_8h.html" target="_top" xlink:title="polynomial">
<polygon fill="white" stroke="#666666" points="753,-74 708,-74 708,-55 753,-55 753,-74"/>
<text text-anchor="middle" x="730.5" y="-62" font-family="Helvetica,sans-Serif" font-size="10.00">poly.h</text>
</a>
</g>
</g>
<!-- Node1&#45;&gt;Node16 -->
<g id="edge18_Node000001_Node000016" class="edge">
<title>Node1&#45;&gt;Node16</title>
<g id="a_edge18_Node000001_Node000016"><a xlink:title=" ">
<path fill="none" stroke="#63b8ff" d="M750.49,-100.82C745.4,-91.82 739.44,-81.29 735.36,-74.09"/>
<polygon fill="#63b8ff" stroke="#63b8ff" points="747.57,-102.77 755.55,-109.75 753.67,-99.32 747.57,-102.77"/>
</a>
</g>
</g>
<!-- Node17 -->
<g id="Node000017" class="node">
<title>Node17</title>
<g id="a_Node000017"><a xlink:href="../../d8/dfc/rbf_8h.html" target="_top" xlink:title="radial basis function">
<polygon fill="white" stroke="#666666" points="809.5,-74 771.5,-74 771.5,-55 809.5,-55 809.5,-74"/>
<text text-anchor="middle" x="790.5" y="-62" font-family="Helvetica,sans-Serif" font-size="10.00">rbf.h</text>
</a>
</g>
</g>
<!-- Node1&#45;&gt;Node17 -->
<g id="edge20_Node000001_Node000017" class="edge">
<title>Node1&#45;&gt;Node17</title>
<g id="a_edge20_Node000001_Node000017"><a xlink:title=" ">
<path fill="none" stroke="#63b8ff" d="M770.51,-100.82C775.6,-91.82 781.56,-81.29 785.64,-74.09"/>
<polygon fill="#63b8ff" stroke="#63b8ff" points="767.33,-99.32 765.45,-109.75 773.43,-102.77 767.33,-99.32"/>
</a>
</g>
</g>
<!-- Node18 -->
<g id="Node000018" class="node">
<title>Node18</title>
<g id="a_Node000018"><a xlink:href="../../d6/d1b/rbt_8h.html" target="_top" xlink:title="red–black self&#45;balancing binary search tree">
<polygon fill="white" stroke="#666666" points="867,-74 828,-74 828,-55 867,-55 867,-74"/>
<text text-anchor="middle" x="847.5" y="-62" font-family="Helvetica,sans-Serif" font-size="10.00">rbt.h</text>
</a>
</g>
</g>
<!-- Node1&#45;&gt;Node18 -->
<g id="edge21_Node000001_Node000018" class="edge">
<title>Node1&#45;&gt;Node18</title>
<g id="a_edge21_Node000001_Node000018"><a xlink:title=" ">
<path fill="none" stroke="#63b8ff" d="M783.16,-104.7C799.01,-95.04 819.69,-82.44 833.27,-74.17"/>
<polygon fill="#63b8ff" stroke="#63b8ff" points="781.2,-101.79 774.48,-109.98 784.84,-107.77 781.2,-101.79"/>
</a>
</g>
</g>
<!-- Node19 -->
<g id="Node000019" class="node">
<title>Node19</title>
<g id="a_Node000019"><a xlink:href="../../d1/dad/slist_8h.html" target="_top" xlink:title="singly linked list implementation">
<polygon fill="white" stroke="#666666" points="931.5,-74 885.5,-74 885.5,-55 931.5,-55 931.5,-74"/>
<text text-anchor="middle" x="908.5" y="-62" font-family="Helvetica,sans-Serif" font-size="10.00">slist.h</text>
</a>
</g>
</g>
<!-- Node1&#45;&gt;Node19 -->
<g id="edge22_Node000001_Node000019" class="edge">
<title>Node1&#45;&gt;Node19</title>
<g id="a_edge22_Node000001_Node000019"><a xlink:title=" ">
<path fill="none" stroke="#63b8ff" d="M786.12,-109.33C814.08,-99.31 858.45,-83.42 885.38,-73.78"/>
<polygon fill="#63b8ff" stroke="#63b8ff" points="784.85,-106.06 776.62,-112.73 787.21,-112.65 784.85,-106.06"/>
</a>
</g>
</g>
<!-- Node20 -->
<g id="Node000020" class="node">
<title>Node20</title>
<g id="a_Node000020"><a xlink:href="../../d1/d93/str_8h.html" target="_top" xlink:title="basic string library">
<polygon fill="white" stroke="#666666" points="987.5,-74 949.5,-74 949.5,-55 987.5,-55 987.5,-74"/>
<text text-anchor="middle" x="968.5" y="-62" font-family="Helvetica,sans-Serif" font-size="10.00">str.h</text>
</a>
</g>
</g>
<!-- Node1&#45;&gt;Node20 -->
<g id="edge23_Node000001_Node000020" class="edge">
<title>Node1&#45;&gt;Node20</title>
<g id="a_edge23_Node000001_Node000020"><a xlink:title=" ">
<path fill="none" stroke="#63b8ff" d="M786.9,-112.43C822.08,-104.24 886.21,-88.94 940.5,-74 943.34,-73.22 946.33,-72.35 949.26,-71.49"/>
<polygon fill="#63b8ff" stroke="#63b8ff" points="785.91,-109.07 776.95,-114.74 787.49,-115.89 785.91,-109.07"/>
</a>
</g>
</g>
<!-- Node21 -->
<g id="Node000021" class="node">
<title>Node21</title>
<g id="a_Node000021"><a xlink:href="../../d2/d16/tf_8h.html" target="_top" xlink:title="transfer function">
<polygon fill="white" stroke="#666666" points="1037.5,-74 1005.5,-74 1005.5,-55 1037.5,-55 1037.5,-74"/>
<text text-anchor="middle" x="1021.5" y="-62" font-family="Helvetica,sans-Serif" font-size="10.00">tf.h</text>
</a>
</g>
</g>
<!-- Node1&#45;&gt;Node21 -->
<g id="edge24_Node000001_Node000021" class="edge">
<title>Node1&#45;&gt;Node21</title>
<g id="a_edge24_Node000001_Node000021"><a xlink:title=" ">
<path fill="none" stroke="#63b8ff" d="M786.81,-114.78C830.69,-108.31 921.41,-93.74 996.5,-74 999.43,-73.23 1002.51,-72.29 1005.46,-71.33"/>
<polygon fill="#63b8ff" stroke="#63b8ff" points="786.09,-111.35 776.7,-116.25 787.1,-118.28 786.09,-111.35"/>
</a>
</g>
</g>
<!-- Node22 -->
<g id="Node000022" class="node">
<title>Node22</title>
<g id="a_Node000022"><a xlink:href="../../dc/de1/trajbell_8h.html" target="_top" xlink:title="bell&#45;shaped velocity trajectory">
<polygon fill="white" stroke="#666666" points="1115.5,-74 1055.5,-74 1055.5,-55 1115.5,-55 1115.5,-74"/>
<text text-anchor="middle" x="1085.5" y="-62" font-family="Helvetica,sans-Serif" font-size="10.00">trajbell.h</text>
</a>
</g>
</g>
<!-- Node1&#45;&gt;Node22 -->
<g id="edge25_Node000001_Node000022" class="edge">
<title>Node1&#45;&gt;Node22</title>
<g id="a_edge25_Node000001_Node000022"><a xlink:title=" ">
<path fill="none" stroke="#63b8ff" d="M786.73,-114.96C837.2,-108.02 951.24,-91.78 1046.5,-74 1049.36,-73.47 1052.33,-72.88 1055.3,-72.27"/>
<polygon fill="#63b8ff" stroke="#63b8ff" points="786.12,-111.51 776.68,-116.33 787.07,-118.44 786.12,-111.51"/>
</a>
</g>
</g>
<!-- Node23 -->
<g id="Node000023" class="node">
<title>Node23</title>
<g id="a_Node000023"><a xlink:href="../../d2/dce/trajpoly3_8h.html" target="_top" xlink:title="cubic polynomial trajectory">
<polygon fill="white" stroke="#666666" points="1203,-74 1134,-74 1134,-55 1203,-55 1203,-74"/>
<text text-anchor="middle" x="1168.5" y="-62" font-family="Helvetica,sans-Serif" font-size="10.00">trajpoly3.h</text>
</a>
</g>
</g>
<!-- Node1&#45;&gt;Node23 -->
<g id="edge26_Node000001_Node000023" class="edge">
<title>Node1&#45;&gt;Node23</title>
<g id="a_edge26_Node000001_Node000023"><a xlink:title=" ">
<path fill="none" stroke="#63b8ff" d="M786.61,-115.93C846.52,-109.91 998.39,-93.86 1124.5,-74 1127.57,-73.52 1130.76,-72.98 1133.95,-72.41"/>
<polygon fill="#63b8ff" stroke="#63b8ff" points="786.12,-112.47 776.52,-116.94 786.82,-119.43 786.12,-112.47"/>
</a>
</g>
</g>
<!-- Node24 -->
<g id="Node000024" class="node">
<title>Node24</title>
<g id="a_Node000024"><a xlink:href="../../de/d02/trajpoly5_8h.html" target="_top" xlink:title="quintic polynomial trajectory">
<polygon fill="white" stroke="#666666" points="1290,-74 1221,-74 1221,-55 1290,-55 1290,-74"/>
<text text-anchor="middle" x="1255.5" y="-62" font-family="Helvetica,sans-Serif" font-size="10.00">trajpoly5.h</text>
</a>
</g>
</g>
<!-- Node1&#45;&gt;Node24 -->
<g id="edge27_Node000001_Node000024" class="edge">
<title>Node1&#45;&gt;Node24</title>
<g id="a_edge27_Node000001_Node000024"><a xlink:title=" ">
<path fill="none" stroke="#63b8ff" d="M786.64,-116.82C856.19,-112.15 1051.45,-97.79 1212.5,-74 1215.21,-73.6 1218.01,-73.14 1220.82,-72.66"/>
<polygon fill="#63b8ff" stroke="#63b8ff" points="786.33,-113.33 776.58,-117.48 786.79,-120.32 786.33,-113.33"/>
</a>
</g>
</g>
<!-- Node25 -->
<g id="Node000025" class="node">
<title>Node25</title>
<g id="a_Node000025"><a xlink:href="../../d4/d90/trajpoly7_8h.html" target="_top" xlink:title="hepta polynomial trajectory">
<polygon fill="white" stroke="#666666" points="1377,-74 1308,-74 1308,-55 1377,-55 1377,-74"/>
<text text-anchor="middle" x="1342.5" y="-62" font-family="Helvetica,sans-Serif" font-size="10.00">trajpoly7.h</text>
</a>
</g>
</g>
<!-- Node1&#45;&gt;Node25 -->
<g id="edge28_Node000001_Node000025" class="edge">
<title>Node1&#45;&gt;Node25</title>
<g id="a_edge28_Node000001_Node000025"><a xlink:title=" ">
<path fill="none" stroke="#63b8ff" d="M787.35,-117.36C866.25,-113.77 1104.06,-101.3 1299.5,-74 1302.21,-73.62 1305.01,-73.18 1307.82,-72.7"/>
<polygon fill="#63b8ff" stroke="#63b8ff" points="786.73,-113.88 776.89,-117.82 787.04,-120.87 786.73,-113.88"/>
</a>
</g>
</g>
<!-- Node26 -->
<g id="Node000026" class="node">
<title>Node26</title>
<g id="a_Node000026"><a xlink:href="../../de/d3b/trajtrap_8h.html" target="_top" xlink:title="trapezoidal velocity trajectory">
<polygon fill="white" stroke="#666666" points="1457.5,-74 1395.5,-74 1395.5,-55 1457.5,-55 1457.5,-74"/>
<text text-anchor="middle" x="1426.5" y="-62" font-family="Helvetica,sans-Serif" font-size="10.00">trajtrap.h</text>
</a>
</g>
</g>
<!-- Node1&#45;&gt;Node26 -->
<g id="edge29_Node000001_Node000026" class="edge">
<title>Node1&#45;&gt;Node26</title>
<g id="a_edge29_Node000001_Node000026"><a xlink:title=" ">
<path fill="none" stroke="#63b8ff" d="M786.74,-117.93C873,-115.8 1155.5,-106.59 1386.5,-74 1389.31,-73.6 1392.22,-73.12 1395.13,-72.59"/>
<polygon fill="#63b8ff" stroke="#63b8ff" points="786.46,-114.44 776.55,-118.18 786.63,-121.44 786.46,-114.44"/>
</a>
</g>
</g>
<!-- Node27 -->
<g id="Node000027" class="node">
<title>Node27</title>
<g id="a_Node000027"><a xlink:href="../../de/db7/utf_8h.html" target="_top" xlink:title="Unicode Transformation Format.">
<polygon fill="white" stroke="#666666" points="1513.5,-74 1475.5,-74 1475.5,-55 1513.5,-55 1513.5,-74"/>
<text text-anchor="middle" x="1494.5" y="-62" font-family="Helvetica,sans-Serif" font-size="10.00">utf.h</text>
</a>
</g>
</g>
<!-- Node1&#45;&gt;Node27 -->
<g id="edge30_Node000001_Node000027" class="edge">
<title>Node1&#45;&gt;Node27</title>
<g id="a_edge30_Node000001_Node000027"><a xlink:title=" ">
<path fill="none" stroke="#63b8ff" d="M786.8,-119.02C880.24,-120.42 1204.62,-121.34 1466.5,-74 1469.4,-73.48 1472.42,-72.75 1475.36,-71.95"/>
<polygon fill="#63b8ff" stroke="#63b8ff" points="786.63,-115.52 776.57,-118.85 786.51,-122.52 786.63,-115.52"/>
</a>
</g>
</g>
<!-- Node28 -->
<g id="Node000028" class="node">
<title>Node28</title>
<g id="a_Node000028"><a xlink:href="../../db/d65/vec_8h.html" target="_top" xlink:title="basic vector library">
<polygon fill="white" stroke="#666666" points="1575,-74 1532,-74 1532,-55 1575,-55 1575,-74"/>
<text text-anchor="middle" x="1553.5" y="-62" font-family="Helvetica,sans-Serif" font-size="10.00">vec.h</text>
</a>
</g>
</g>
<!-- Node1&#45;&gt;Node28 -->
<g id="edge31_Node000001_Node000028" class="edge">
<title>Node1&#45;&gt;Node28</title>
<g id="a_edge31_Node000001_Node000028"><a xlink:title=" ">
<path fill="none" stroke="#63b8ff" d="M786.91,-118.95C885,-120.18 1237.32,-120.89 1522.5,-74 1525.58,-73.49 1528.8,-72.8 1531.95,-72.03"/>
<polygon fill="#63b8ff" stroke="#63b8ff" points="786.77,-115.44 776.73,-118.8 786.67,-122.44 786.77,-115.44"/>
</a>
</g>
</g>
<!-- Node29 -->
<g id="Node000029" class="node">
<title>Node29</title>
<g id="a_Node000029"><a xlink:href="../../df/dfc/version_8h.html" target="_top" xlink:title="algorithm library version">
<polygon fill="white" stroke="#666666" points="1655.5,-74 1593.5,-74 1593.5,-55 1655.5,-55 1655.5,-74"/>
<text text-anchor="middle" x="1624.5" y="-62" font-family="Helvetica,sans-Serif" font-size="10.00">version.h</text>
</a>
</g>
</g>
<!-- Node1&#45;&gt;Node29 -->
<g id="edge32_Node000001_Node000029" class="edge">
<title>Node1&#45;&gt;Node29</title>
<g id="a_edge32_Node000001_Node000029"><a xlink:title=" ">
<path fill="none" stroke="#63b8ff" d="M786.62,-118.56C888.97,-118.5 1272.41,-115.33 1584.5,-74 1587.32,-73.63 1590.23,-73.16 1593.14,-72.65"/>
<polygon fill="#63b8ff" stroke="#63b8ff" points="786.57,-115.06 776.57,-118.56 786.57,-122.06 786.57,-115.06"/>
</a>
</g>
</g>
<!-- Node8&#45;&gt;Node9 -->
<g id="edge8_Node000008_Node000009" class="edge">
<title>Node8&#45;&gt;Node9</title>
<g id="a_edge8_Node000008_Node000009"><a xlink:title=" ">
<path fill="none" stroke="#63b8ff" d="M356.75,-44.95C359.24,-36.15 362.1,-26.06 364.07,-19.09"/>
<polygon fill="#63b8ff" stroke="#63b8ff" points="353.33,-44.17 353.98,-54.75 360.07,-46.08 353.33,-44.17"/>
</a>
</g>
</g>
<!-- Node11&#45;&gt;Node7 -->
<g id="edge11_Node000011_Node000007" class="edge">
<title>Node11&#45;&gt;Node7</title>
<g id="a_edge11_Node000011_Node000007"><a xlink:title=" ">
<path fill="none" stroke="#63b8ff" d="M476.82,-47.52C467.66,-38.18 456.45,-26.75 448.93,-19.09"/>
<polygon fill="#63b8ff" stroke="#63b8ff" points="474.41,-50.06 483.91,-54.75 479.41,-45.16 474.41,-50.06"/>
</a>
</g>
</g>
<!-- Node11&#45;&gt;Node10 -->
<g id="edge12_Node000011_Node000010" class="edge">
<title>Node11&#45;&gt;Node10</title>
<g id="a_edge12_Node000011_Node000010"><a xlink:title=" ">
<path fill="none" stroke="#63b8ff" d="M505.2,-46.67C512.13,-37.5 520.41,-26.52 526.02,-19.09"/>
<polygon fill="#63b8ff" stroke="#63b8ff" points="502.34,-44.66 499.11,-54.75 507.92,-48.87 502.34,-44.66"/>
</a>
</g>
</g>
<!-- Node11&#45;&gt;Node11 -->
<g id="edge13_Node000011_Node000011" class="edge">
<title>Node11&#45;&gt;Node11</title>
<g id="a_edge13_Node000011_Node000011"><a xlink:title=" ">
<path fill="none" stroke="#63b8ff" d="M523.17,-74.45C530.54,-73.67 536,-70.36 536,-64.5 536,-56.17 524.95,-52.98 513.09,-54.93"/>
<polygon fill="#63b8ff" stroke="#63b8ff" points="523.21,-70.95 513.09,-74.07 522.95,-77.94 523.21,-70.95"/>
</a>
</g>
</g>
<!-- Node14 -->
<g id="Node000014" class="node">
<title>Node14</title>
<g id="a_Node000014"><a xlink:href="../../d7/d30/pid__fuzzy_8h.html" target="_top" xlink:title="fuzzy proportional integral derivative controller">
<polygon fill="white" stroke="#666666" points="737,-19 666,-19 666,0 737,0 737,-19"/>
<text text-anchor="middle" x="701.5" y="-7" font-family="Helvetica,sans-Serif" font-size="10.00">pid_fuzzy.h</text>
</a>
</g>
</g>
<!-- Node13&#45;&gt;Node14 -->
<g id="edge16_Node000013_Node000014" class="edge">
<title>Node13&#45;&gt;Node14</title>
<g id="a_edge16_Node000013_Node000014"><a xlink:title=" ">
<path fill="none" stroke="#63b8ff" d="M680,-46.1C685.47,-37.04 691.92,-26.37 696.31,-19.09"/>
<polygon fill="#63b8ff" stroke="#63b8ff" points="676.96,-44.38 674.78,-54.75 682.95,-48 676.96,-44.38"/>
</a>
</g>
</g>
<!-- Node15 -->
<g id="Node000015" class="node">
<title>Node15</title>
<g id="a_Node000015"><a xlink:href="../../d5/d25/pid__neuro_8h.html" target="_top" xlink:title="single neuron proportional integral derivative controller">
<polygon fill="white" stroke="#666666" points="647.5,-19 573.5,-19 573.5,0 647.5,0 647.5,-19"/>
<text text-anchor="middle" x="610.5" y="-7" font-family="Helvetica,sans-Serif" font-size="10.00">pid_neuro.h</text>
</a>
</g>
</g>
<!-- Node13&#45;&gt;Node15 -->
<g id="edge17_Node000013_Node000015" class="edge">
<title>Node13&#45;&gt;Node15</title>
<g id="a_edge17_Node000013_Node000015"><a xlink:title=" ">
<path fill="none" stroke="#63b8ff" d="M652.3,-48.04C641.83,-38.64 628.85,-26.98 620.15,-19.17"/>
<polygon fill="#63b8ff" stroke="#63b8ff" points="650.24,-50.91 660.02,-54.98 654.92,-45.7 650.24,-50.91"/>
</a>
</g>
</g>
</g>
</svg>
