<?xml version="1.0" encoding="UTF-8" standalone="no"?>
<!DOCTYPE svg PUBLIC "-//W3C//DTD SVG 1.1//EN"
 "http://www.w3.org/Graphics/SVG/1.1/DTD/svg11.dtd">
<!-- Generated by graphviz version 2.43.0 (0)
 -->
<!-- Title: a.h Pages: 1 -->
<svg width="1251pt" height="137pt"
 viewBox="0.00 0.00 1250.50 137.00" xmlns="http://www.w3.org/2000/svg" xmlns:xlink="http://www.w3.org/1999/xlink">
<g id="graph0" class="graph" transform="scale(1 1) rotate(0) translate(4 133)">
<title>a.h</title>
<!-- Node1 -->
<g id="Node000001" class="node">
<title>Node1</title>
<g id="a_Node000001"><a xlink:title="algorithm library">
<polygon fill="#999999" stroke="#666666" points="632.5,-129 600.5,-129 600.5,-110 632.5,-110 632.5,-129"/>
<text text-anchor="middle" x="616.5" y="-117" font-family="Helvetica,sans-Serif" font-size="10.00">a.h</text>
</a>
</g>
</g>
<!-- Node2 -->
<g id="Node000002" class="node">
<title>Node2</title>
<g id="a_Node000002"><a xlink:href="../../d3/d51/avl_8h.html" target="_top" xlink:title="Adelson&#45;Velsky and Landis self&#45;balancing binary search tree.">
<polygon fill="white" stroke="#666666" points="41,-74 0,-74 0,-55 41,-55 41,-74"/>
<text text-anchor="middle" x="20.5" y="-62" font-family="Helvetica,sans-Serif" font-size="10.00">avl.h</text>
</a>
</g>
</g>
<!-- Node1&#45;&gt;Node2 -->
<g id="edge1_Node000001_Node000002" class="edge">
<title>Node1&#45;&gt;Node2</title>
<g id="a_edge1_Node000001_Node000002"><a xlink:title=" ">
<path fill="none" stroke="#63b8ff" d="M589.74,-118.36C508.04,-117.5 254.95,-111.75 49.5,-74 46.82,-73.51 44.03,-72.86 41.28,-72.15"/>
<polygon fill="#63b8ff" stroke="#63b8ff" points="590.07,-121.86 600.1,-118.45 590.13,-114.86 590.07,-121.86"/>
</a>
</g>
</g>
<!-- Node3 -->
<g id="Node000003" class="node">
<title>Node3</title>
<g id="a_Node000003"><a xlink:href="../../d6/d6d/buf_8h.html" target="_top" xlink:title="basic buffer library">
<polygon fill="white" stroke="#666666" points="100,-74 59,-74 59,-55 100,-55 100,-74"/>
<text text-anchor="middle" x="79.5" y="-62" font-family="Helvetica,sans-Serif" font-size="10.00">buf.h</text>
</a>
</g>
</g>
<!-- Node1&#45;&gt;Node3 -->
<g id="edge2_Node000001_Node000003" class="edge">
<title>Node1&#45;&gt;Node3</title>
<g id="a_edge2_Node000001_Node000003"><a xlink:title=" ">
<path fill="none" stroke="#63b8ff" d="M590.1,-117.93C514.57,-115.94 291.31,-107.43 109.5,-74 106.41,-73.43 103.18,-72.69 100.04,-71.87"/>
<polygon fill="#63b8ff" stroke="#63b8ff" points="590.07,-121.43 600.15,-118.18 590.24,-114.44 590.07,-121.43"/>
</a>
</g>
</g>
<!-- Node4 -->
<g id="Node000004" class="node">
<title>Node4</title>
<g id="a_Node000004"><a xlink:href="../../d7/d3b/complex_8h.html" target="_top" xlink:title="complex number">
<polygon fill="white" stroke="#666666" points="186.5,-74 118.5,-74 118.5,-55 186.5,-55 186.5,-74"/>
<text text-anchor="middle" x="152.5" y="-62" font-family="Helvetica,sans-Serif" font-size="10.00">complex.h</text>
</a>
</g>
</g>
<!-- Node1&#45;&gt;Node4 -->
<g id="edge3_Node000001_Node000004" class="edge">
<title>Node1&#45;&gt;Node4</title>
<g id="a_edge3_Node000001_Node000004"><a xlink:title=" ">
<path fill="none" stroke="#63b8ff" d="M590.39,-116.56C524.14,-111.46 344.19,-96.51 195.5,-74 192.64,-73.57 189.68,-73.08 186.72,-72.55"/>
<polygon fill="#63b8ff" stroke="#63b8ff" points="590.14,-120.05 600.37,-117.32 590.67,-113.07 590.14,-120.05"/>
</a>
</g>
</g>
<!-- Node5 -->
<g id="Node000005" class="node">
<title>Node5</title>
<g id="a_Node000005"><a xlink:href="../../dc/de6/crc_8h.html" target="_top" xlink:title="Cyclic Redundancy Check.">
<polygon fill="white" stroke="#666666" points="244.5,-74 204.5,-74 204.5,-55 244.5,-55 244.5,-74"/>
<text text-anchor="middle" x="224.5" y="-62" font-family="Helvetica,sans-Serif" font-size="10.00">crc.h</text>
</a>
</g>
</g>
<!-- Node1&#45;&gt;Node5 -->
<g id="edge4_Node000001_Node000005" class="edge">
<title>Node1&#45;&gt;Node5</title>
<g id="a_edge4_Node000001_Node000005"><a xlink:title=" ">
<path fill="none" stroke="#63b8ff" d="M590.31,-116.76C530.25,-112.46 378.19,-99.74 253.5,-74 250.62,-73.41 247.62,-72.67 244.68,-71.87"/>
<polygon fill="#63b8ff" stroke="#63b8ff" points="590.21,-120.26 600.43,-117.47 590.69,-113.28 590.21,-120.26"/>
</a>
</g>
</g>
<!-- Node6 -->
<g id="Node000006" class="node">
<title>Node6</title>
<g id="a_Node000006"><a xlink:href="../../df/d2a/fuzzy_8h.html" target="_top" xlink:title="fuzzy operator">
<polygon fill="white" stroke="#666666" points="312.5,-74 262.5,-74 262.5,-55 312.5,-55 312.5,-74"/>
<text text-anchor="middle" x="287.5" y="-62" font-family="Helvetica,sans-Serif" font-size="10.00">fuzzy.h</text>
</a>
</g>
</g>
<!-- Node1&#45;&gt;Node6 -->
<g id="edge5_Node000001_Node000006" class="edge">
<title>Node1&#45;&gt;Node6</title>
<g id="a_edge5_Node000001_Node000006"><a xlink:title=" ">
<path fill="none" stroke="#63b8ff" d="M590.46,-115.42C538.87,-109.13 420.13,-93.72 321.5,-74 318.64,-73.43 315.65,-72.77 312.69,-72.08"/>
<polygon fill="#63b8ff" stroke="#63b8ff" points="590.07,-118.9 600.42,-116.62 590.91,-111.95 590.07,-118.9"/>
</a>
</g>
</g>
<!-- Node8 -->
<g id="Node000008" class="node">
<title>Node8</title>
<g id="a_Node000008"><a xlink:href="../../d0/d97/host_2a_8h.html" target="_top" xlink:title="algorithm library on host">
<polygon fill="white" stroke="#666666" points="561.5,-74 505.5,-74 505.5,-55 561.5,-55 561.5,-74"/>
<text text-anchor="middle" x="533.5" y="-62" font-family="Helvetica,sans-Serif" font-size="10.00">host/a.h</text>
</a>
</g>
</g>
<!-- Node1&#45;&gt;Node8 -->
<g id="edge7_Node000001_Node000008" class="edge">
<title>Node1&#45;&gt;Node8</title>
<g id="a_edge7_Node000001_Node000008"><a xlink:title=" ">
<path fill="none" stroke="#63b8ff" d="M594.46,-104.42C579.39,-94.81 559.91,-82.37 547.08,-74.17"/>
<polygon fill="#63b8ff" stroke="#63b8ff" points="592.85,-107.55 603.16,-109.98 596.62,-101.65 592.85,-107.55"/>
</a>
</g>
</g>
<!-- Node13 -->
<g id="Node000013" class="node">
<title>Node13</title>
<g id="a_Node000013"><a xlink:href="../../d1/df9/hpf_8h.html" target="_top" xlink:title="High Pass Filter.">
<polygon fill="white" stroke="#666666" points="808,-19 767,-19 767,0 808,0 808,-19"/>
<text text-anchor="middle" x="787.5" y="-7" font-family="Helvetica,sans-Serif" font-size="10.00">hpf.h</text>
</a>
</g>
</g>
<!-- Node1&#45;&gt;Node13 -->
<g id="edge12_Node000001_Node000013" class="edge">
<title>Node1&#45;&gt;Node13</title>
<g id="a_edge12_Node000001_Node000013"><a xlink:title=" ">
<path fill="none" stroke="#63b8ff" d="M607.67,-100.19C602.43,-86.36 598.53,-67.66 608.5,-55 650.64,-1.47 691.6,-36.29 757.5,-19 760.54,-18.2 763.74,-17.33 766.87,-16.46"/>
<polygon fill="#63b8ff" stroke="#63b8ff" points="604.57,-101.83 611.75,-109.63 611,-99.06 604.57,-101.83"/>
</a>
</g>
</g>
<!-- Node14 -->
<g id="Node000014" class="node">
<title>Node14</title>
<g id="a_Node000014"><a xlink:href="../../da/d23/list_8h.html" target="_top" xlink:title="circular doubly linked list implementation">
<polygon fill="white" stroke="#666666" points="487,-74 446,-74 446,-55 487,-55 487,-74"/>
<text text-anchor="middle" x="466.5" y="-62" font-family="Helvetica,sans-Serif" font-size="10.00">list.h</text>
</a>
</g>
</g>
<!-- Node1&#45;&gt;Node14 -->
<g id="edge13_Node000001_Node000014" class="edge">
<title>Node1&#45;&gt;Node14</title>
<g id="a_edge13_Node000001_Node000014"><a xlink:title=" ">
<path fill="none" stroke="#63b8ff" d="M590.91,-109.46C561.64,-99.11 514.27,-82.38 487.21,-72.82"/>
<polygon fill="#63b8ff" stroke="#63b8ff" points="589.85,-112.8 600.45,-112.83 592.18,-106.2 589.85,-112.8"/>
</a>
</g>
</g>
<!-- Node15 -->
<g id="Node000015" class="node">
<title>Node15</title>
<g id="a_Node000015"><a xlink:href="../../db/d80/lpf_8h.html" target="_top" xlink:title="Low Pass Filter.">
<polygon fill="white" stroke="#666666" points="864.5,-19 826.5,-19 826.5,0 864.5,0 864.5,-19"/>
<text text-anchor="middle" x="845.5" y="-7" font-family="Helvetica,sans-Serif" font-size="10.00">lpf.h</text>
</a>
</g>
</g>
<!-- Node1&#45;&gt;Node15 -->
<g id="edge15_Node000001_Node000015" class="edge">
<title>Node1&#45;&gt;Node15</title>
<g id="a_edge15_Node000001_Node000015"><a xlink:title=" ">
<path fill="none" stroke="#63b8ff" d="M640.24,-104.87C664,-91.47 701.75,-70.78 735.5,-55 766.67,-40.43 803.98,-25.93 826.16,-17.61"/>
<polygon fill="#63b8ff" stroke="#63b8ff" points="638.24,-101.98 631.27,-109.96 641.69,-108.07 638.24,-101.98"/>
</a>
</g>
</g>
<!-- Node16 -->
<g id="Node000016" class="node">
<title>Node16</title>
<g id="a_Node000016"><a xlink:href="../../df/db1/math_8h.html" target="_top" xlink:title="mathematical algorithm library">
<polygon fill="white" stroke="#666666" points="669,-74 618,-74 618,-55 669,-55 669,-74"/>
<text text-anchor="middle" x="643.5" y="-62" font-family="Helvetica,sans-Serif" font-size="10.00">math.h</text>
</a>
</g>
</g>
<!-- Node1&#45;&gt;Node16 -->
<g id="edge16_Node000001_Node000016" class="edge">
<title>Node1&#45;&gt;Node16</title>
<g id="a_edge16_Node000001_Node000016"><a xlink:title=" ">
<path fill="none" stroke="#63b8ff" d="M625.51,-100.82C630.09,-91.82 635.45,-81.29 639.12,-74.09"/>
<polygon fill="#63b8ff" stroke="#63b8ff" points="622.38,-99.25 620.96,-109.75 628.62,-102.43 622.38,-99.25"/>
</a>
</g>
</g>
<!-- Node17 -->
<g id="Node000017" class="node">
<title>Node17</title>
<g id="a_Node000017"><a xlink:href="../../d6/dea/mf_8h.html" target="_top" xlink:title="membership function">
<polygon fill="white" stroke="#666666" points="368.5,-74 330.5,-74 330.5,-55 368.5,-55 368.5,-74"/>
<text text-anchor="middle" x="349.5" y="-62" font-family="Helvetica,sans-Serif" font-size="10.00">mf.h</text>
</a>
</g>
</g>
<!-- Node1&#45;&gt;Node17 -->
<g id="edge20_Node000001_Node000017" class="edge">
<title>Node1&#45;&gt;Node17</title>
<g id="a_edge20_Node000001_Node000017"><a xlink:title=" ">
<path fill="none" stroke="#63b8ff" d="M590.54,-114.63C546.43,-107.85 454.21,-92.72 377.5,-74 374.64,-73.3 371.63,-72.48 368.7,-71.63"/>
<polygon fill="#63b8ff" stroke="#63b8ff" points="590.01,-118.09 600.43,-116.14 591.07,-111.17 590.01,-118.09"/>
</a>
</g>
</g>
<!-- Node18 -->
<g id="Node000018" class="node">
<title>Node18</title>
<g id="a_Node000018"><a xlink:href="../../da/df0/pid_8h.html" target="_top" xlink:title="proportional integral derivative controller">
<polygon fill="white" stroke="#666666" points="428,-74 387,-74 387,-55 428,-55 428,-74"/>
<text text-anchor="middle" x="407.5" y="-62" font-family="Helvetica,sans-Serif" font-size="10.00">pid.h</text>
</a>
</g>
</g>
<!-- Node1&#45;&gt;Node18 -->
<g id="edge22_Node000001_Node000018" class="edge">
<title>Node1&#45;&gt;Node18</title>
<g id="a_edge22_Node000001_Node000018"><a xlink:title=" ">
<path fill="none" stroke="#63b8ff" d="M590.12,-112.35C554.96,-104.07 490.86,-88.68 436.5,-74 433.76,-73.26 430.89,-72.46 428.06,-71.65"/>
<polygon fill="#63b8ff" stroke="#63b8ff" points="589.52,-115.81 600.06,-114.68 591.12,-108.99 589.52,-115.81"/>
</a>
</g>
</g>
<!-- Node20 -->
<g id="Node000020" class="node">
<title>Node20</title>
<g id="a_Node000020"><a xlink:href="../../db/d57/poly_8h.html" target="_top" xlink:title="polynomial">
<polygon fill="white" stroke="#666666" points="789,-74 744,-74 744,-55 789,-55 789,-74"/>
<text text-anchor="middle" x="766.5" y="-62" font-family="Helvetica,sans-Serif" font-size="10.00">poly.h</text>
</a>
</g>
</g>
<!-- Node1&#45;&gt;Node20 -->
<g id="edge25_Node000001_Node000020" class="edge">
<title>Node1&#45;&gt;Node20</title>
<g id="a_edge25_Node000001_Node000020"><a xlink:title=" ">
<path fill="none" stroke="#63b8ff" d="M642.24,-109.41C670.8,-99.32 716.45,-83.18 743.75,-73.54"/>
<polygon fill="#63b8ff" stroke="#63b8ff" points="640.82,-106.2 632.55,-112.83 643.15,-112.8 640.82,-106.2"/>
</a>
</g>
</g>
<!-- Node21 -->
<g id="Node000021" class="node">
<title>Node21</title>
<g id="a_Node000021"><a xlink:href="../../dc/d23/polytrack_8h.html" target="_top" xlink:title="polynomial trajectory">
<polygon fill="white" stroke="#666666" points="878,-74 807,-74 807,-55 878,-55 878,-74"/>
<text text-anchor="middle" x="842.5" y="-62" font-family="Helvetica,sans-Serif" font-size="10.00">polytrack.h</text>
</a>
</g>
</g>
<!-- Node1&#45;&gt;Node21 -->
<g id="edge26_Node000001_Node000021" class="edge">
<title>Node1&#45;&gt;Node21</title>
<g id="a_edge26_Node000001_Node000021"><a xlink:title=" ">
<path fill="none" stroke="#63b8ff" d="M642.67,-112.36C683.18,-102.86 761.18,-84.57 806.82,-73.87"/>
<polygon fill="#63b8ff" stroke="#63b8ff" points="641.69,-109 632.75,-114.69 643.29,-115.81 641.69,-109"/>
</a>
</g>
</g>
<!-- Node22 -->
<g id="Node000022" class="node">
<title>Node22</title>
<g id="a_Node000022"><a xlink:href="../../d8/dfc/rbf_8h.html" target="_top" xlink:title="radial basis function">
<polygon fill="white" stroke="#666666" points="934.5,-74 896.5,-74 896.5,-55 934.5,-55 934.5,-74"/>
<text text-anchor="middle" x="915.5" y="-62" font-family="Helvetica,sans-Serif" font-size="10.00">rbf.h</text>
</a>
</g>
</g>
<!-- Node1&#45;&gt;Node22 -->
<g id="edge27_Node000001_Node000022" class="edge">
<title>Node1&#45;&gt;Node22</title>
<g id="a_edge27_Node000001_Node000022"><a xlink:title=" ">
<path fill="none" stroke="#63b8ff" d="M642.49,-115.39C691.03,-109.34 798.57,-94.71 887.5,-74 890.37,-73.33 893.38,-72.53 896.31,-71.69"/>
<polygon fill="#63b8ff" stroke="#63b8ff" points="642.03,-111.92 632.53,-116.62 642.88,-118.87 642.03,-111.92"/>
</a>
</g>
</g>
<!-- Node23 -->
<g id="Node000023" class="node">
<title>Node23</title>
<g id="a_Node000023"><a xlink:href="../../d6/d1b/rbt_8h.html" target="_top" xlink:title="red–black self&#45;balancing binary search tree">
<polygon fill="white" stroke="#666666" points="992,-74 953,-74 953,-55 992,-55 992,-74"/>
<text text-anchor="middle" x="972.5" y="-62" font-family="Helvetica,sans-Serif" font-size="10.00">rbt.h</text>
</a>
</g>
</g>
<!-- Node1&#45;&gt;Node23 -->
<g id="edge28_Node000001_Node000023" class="edge">
<title>Node1&#45;&gt;Node23</title>
<g id="a_edge28_Node000001_Node000023"><a xlink:title=" ">
<path fill="none" stroke="#63b8ff" d="M642.72,-116.28C698.51,-111.25 832.92,-97.59 943.5,-74 946.58,-73.34 949.81,-72.53 952.95,-71.66"/>
<polygon fill="#63b8ff" stroke="#63b8ff" points="642.29,-112.8 632.64,-117.17 642.91,-119.77 642.29,-112.8"/>
</a>
</g>
</g>
<!-- Node24 -->
<g id="Node000024" class="node">
<title>Node24</title>
<g id="a_Node000024"><a xlink:href="../../d1/dad/slist_8h.html" target="_top" xlink:title="singly linked list implementation">
<polygon fill="white" stroke="#666666" points="1056.5,-74 1010.5,-74 1010.5,-55 1056.5,-55 1056.5,-74"/>
<text text-anchor="middle" x="1033.5" y="-62" font-family="Helvetica,sans-Serif" font-size="10.00">slist.h</text>
</a>
</g>
</g>
<!-- Node1&#45;&gt;Node24 -->
<g id="edge29_Node000001_Node000024" class="edge">
<title>Node1&#45;&gt;Node24</title>
<g id="a_edge29_Node000001_Node000024"><a xlink:title=" ">
<path fill="none" stroke="#63b8ff" d="M642.95,-116.77C705.65,-112.37 868.04,-99.3 1001.5,-74 1004.32,-73.46 1007.27,-72.81 1010.17,-72.11"/>
<polygon fill="#63b8ff" stroke="#63b8ff" points="642.5,-113.29 632.76,-117.47 642.98,-120.27 642.5,-113.29"/>
</a>
</g>
</g>
<!-- Node25 -->
<g id="Node000025" class="node">
<title>Node25</title>
<g id="a_Node000025"><a xlink:href="../../d2/d16/tf_8h.html" target="_top" xlink:title="transfer function">
<polygon fill="white" stroke="#666666" points="1106.5,-74 1074.5,-74 1074.5,-55 1106.5,-55 1106.5,-74"/>
<text text-anchor="middle" x="1090.5" y="-62" font-family="Helvetica,sans-Serif" font-size="10.00">tf.h</text>
</a>
</g>
</g>
<!-- Node1&#45;&gt;Node25 -->
<g id="edge30_Node000001_Node000025" class="edge">
<title>Node1&#45;&gt;Node25</title>
<g id="a_edge30_Node000001_Node000025"><a xlink:title=" ">
<path fill="none" stroke="#63b8ff" d="M642.68,-117.99C712.3,-116.19 907.44,-108.23 1065.5,-74 1068.37,-73.38 1071.36,-72.54 1074.25,-71.62"/>
<polygon fill="#63b8ff" stroke="#63b8ff" points="642.53,-114.49 632.61,-118.23 642.69,-121.49 642.53,-114.49"/>
</a>
</g>
</g>
<!-- Node26 -->
<g id="Node000026" class="node">
<title>Node26</title>
<g id="a_Node000026"><a xlink:href="../../de/db7/utf_8h.html" target="_top" xlink:title="Unicode Transformation Format.">
<polygon fill="white" stroke="#666666" points="1162.5,-74 1124.5,-74 1124.5,-55 1162.5,-55 1162.5,-74"/>
<text text-anchor="middle" x="1143.5" y="-62" font-family="Helvetica,sans-Serif" font-size="10.00">utf.h</text>
</a>
</g>
</g>
<!-- Node1&#45;&gt;Node26 -->
<g id="edge31_Node000001_Node000026" class="edge">
<title>Node1&#45;&gt;Node26</title>
<g id="a_edge31_Node000001_Node000026"><a xlink:title=" ">
<path fill="none" stroke="#63b8ff" d="M642.97,-118.05C717.84,-116.37 937.24,-108.62 1115.5,-74 1118.39,-73.44 1121.41,-72.69 1124.35,-71.88"/>
<polygon fill="#63b8ff" stroke="#63b8ff" points="642.54,-114.56 632.61,-118.26 642.68,-121.56 642.54,-114.56"/>
</a>
</g>
</g>
<!-- Node27 -->
<g id="Node000027" class="node">
<title>Node27</title>
<g id="a_Node000027"><a xlink:href="../../df/dfc/version_8h.html" target="_top" xlink:title="algorithm library version">
<polygon fill="white" stroke="#666666" points="1242.5,-74 1180.5,-74 1180.5,-55 1242.5,-55 1242.5,-74"/>
<text text-anchor="middle" x="1211.5" y="-62" font-family="Helvetica,sans-Serif" font-size="10.00">version.h</text>
</a>
</g>
</g>
<!-- Node1&#45;&gt;Node27 -->
<g id="edge32_Node000001_Node000027" class="edge">
<title>Node1&#45;&gt;Node27</title>
<g id="a_edge32_Node000001_Node000027"><a xlink:title=" ">
<path fill="none" stroke="#63b8ff" d="M643.13,-117.59C723.34,-114.58 969.6,-103.42 1171.5,-74 1174.31,-73.59 1177.22,-73.1 1180.13,-72.57"/>
<polygon fill="#63b8ff" stroke="#63b8ff" points="642.8,-114.1 632.93,-117.96 643.05,-121.09 642.8,-114.1"/>
</a>
</g>
</g>
<!-- Node7 -->
<g id="Node000007" class="node">
<title>Node7</title>
<g id="a_Node000007"><a xlink:href="../../d2/d03/pid_2fuzzy_8h.html" target="_top" xlink:title="fuzzy proportional integral derivative controller">
<polygon fill="white" stroke="#666666" points="302.5,-19 234.5,-19 234.5,0 302.5,0 302.5,-19"/>
<text text-anchor="middle" x="268.5" y="-7" font-family="Helvetica,sans-Serif" font-size="10.00">pid/fuzzy.h</text>
</a>
</g>
</g>
<!-- Node6&#45;&gt;Node7 -->
<g id="edge6_Node000006_Node000007" class="edge">
<title>Node6&#45;&gt;Node7</title>
<g id="a_edge6_Node000006_Node000007"><a xlink:title=" ">
<path fill="none" stroke="#63b8ff" d="M280.95,-45.24C277.78,-36.37 274.11,-26.14 271.58,-19.09"/>
<polygon fill="#63b8ff" stroke="#63b8ff" points="277.69,-46.52 284.36,-54.75 284.28,-44.15 277.69,-46.52"/>
</a>
</g>
</g>
<!-- Node9 -->
<g id="Node000009" class="node">
<title>Node9</title>
<g id="a_Node000009"><a xlink:href="../../d9/dc9/que_8h.html" target="_top" xlink:title="basic queue library">
<polygon fill="white" stroke="#666666" points="484.5,-19 416.5,-19 416.5,0 484.5,0 484.5,-19"/>
<text text-anchor="middle" x="450.5" y="-7" font-family="Helvetica,sans-Serif" font-size="10.00">host/que.h</text>
</a>
</g>
</g>
<!-- Node8&#45;&gt;Node9 -->
<g id="edge8_Node000008_Node000009" class="edge">
<title>Node8&#45;&gt;Node9</title>
<g id="a_edge8_Node000008_Node000009"><a xlink:title=" ">
<path fill="none" stroke="#63b8ff" d="M511.46,-49.42C496.39,-39.81 476.91,-27.37 464.08,-19.17"/>
<polygon fill="#63b8ff" stroke="#63b8ff" points="509.85,-52.55 520.16,-54.98 513.62,-46.65 509.85,-52.55"/>
</a>
</g>
</g>
<!-- Node10 -->
<g id="Node000010" class="node">
<title>Node10</title>
<g id="a_Node000010"><a xlink:href="../../d1/d93/str_8h.html" target="_top" xlink:title="basic string library">
<polygon fill="white" stroke="#666666" points="564.5,-19 502.5,-19 502.5,0 564.5,0 564.5,-19"/>
<text text-anchor="middle" x="533.5" y="-7" font-family="Helvetica,sans-Serif" font-size="10.00">host/str.h</text>
</a>
</g>
</g>
<!-- Node8&#45;&gt;Node10 -->
<g id="edge9_Node000008_Node000010" class="edge">
<title>Node8&#45;&gt;Node10</title>
<g id="a_edge9_Node000008_Node000010"><a xlink:title=" ">
<path fill="none" stroke="#63b8ff" d="M533.5,-44.66C533.5,-35.93 533.5,-25.99 533.5,-19.09"/>
<polygon fill="#63b8ff" stroke="#63b8ff" points="530,-44.75 533.5,-54.75 537,-44.75 530,-44.75"/>
</a>
</g>
</g>
<!-- Node11 -->
<g id="Node000011" class="node">
<title>Node11</title>
<g id="a_Node000011"><a xlink:href="../../db/d65/vec_8h.html" target="_top" xlink:title="basic vector library">
<polygon fill="white" stroke="#666666" points="650,-19 583,-19 583,0 650,0 650,-19"/>
<text text-anchor="middle" x="616.5" y="-7" font-family="Helvetica,sans-Serif" font-size="10.00">host/vec.h</text>
</a>
</g>
</g>
<!-- Node8&#45;&gt;Node11 -->
<g id="edge10_Node000008_Node000011" class="edge">
<title>Node8&#45;&gt;Node11</title>
<g id="a_edge10_Node000008_Node000011"><a xlink:title=" ">
<path fill="none" stroke="#63b8ff" d="M555.54,-49.42C570.61,-39.81 590.09,-27.37 602.92,-19.17"/>
<polygon fill="#63b8ff" stroke="#63b8ff" points="553.38,-46.65 546.84,-54.98 557.15,-52.55 553.38,-46.65"/>
</a>
</g>
</g>
<!-- Node12 -->
<g id="Node000012" class="node">
<title>Node12</title>
<g id="a_Node000012"><a xlink:href="../../d6/d68/vector_8h.html" target="_top" xlink:title="basic vector library">
<polygon fill="white" stroke="#666666" points="748.5,-19 668.5,-19 668.5,0 748.5,0 748.5,-19"/>
<text text-anchor="middle" x="708.5" y="-7" font-family="Helvetica,sans-Serif" font-size="10.00">host/vector.h</text>
</a>
</g>
</g>
<!-- Node8&#45;&gt;Node12 -->
<g id="edge11_Node000008_Node000012" class="edge">
<title>Node8&#45;&gt;Node12</title>
<g id="a_edge11_Node000008_Node000012"><a xlink:title=" ">
<path fill="none" stroke="#63b8ff" d="M571.29,-52.06C604,-42.15 650.57,-28.04 680.16,-19.08"/>
<polygon fill="#63b8ff" stroke="#63b8ff" points="570.17,-48.74 561.62,-54.98 572.2,-55.44 570.17,-48.74"/>
</a>
</g>
</g>
<!-- Node14&#45;&gt;Node9 -->
<g id="edge14_Node000014_Node000009" class="edge">
<title>Node14&#45;&gt;Node9</title>
<g id="a_edge14_Node000014_Node000009"><a xlink:title=" ">
<path fill="none" stroke="#63b8ff" d="M460.9,-44.95C458.24,-36.15 455.2,-26.06 453.09,-19.09"/>
<polygon fill="#63b8ff" stroke="#63b8ff" points="457.62,-46.19 463.86,-54.75 464.32,-44.16 457.62,-46.19"/>
</a>
</g>
</g>
<!-- Node16&#45;&gt;Node13 -->
<g id="edge17_Node000016_Node000013" class="edge">
<title>Node16&#45;&gt;Node13</title>
<g id="a_edge17_Node000016_Node000013"><a xlink:title=" ">
<path fill="none" stroke="#63b8ff" d="M676.32,-51.42C704.11,-41.19 743.1,-26.84 766.76,-18.13"/>
<polygon fill="#63b8ff" stroke="#63b8ff" points="674.81,-48.25 666.64,-54.98 677.23,-54.82 674.81,-48.25"/>
</a>
</g>
</g>
<!-- Node16&#45;&gt;Node15 -->
<g id="edge18_Node000016_Node000015" class="edge">
<title>Node16&#45;&gt;Node15</title>
<g id="a_edge18_Node000016_Node000015"><a xlink:title=" ">
<path fill="none" stroke="#63b8ff" d="M679.07,-54.89C714.32,-46.25 769.81,-32.33 817.5,-19 820.34,-18.21 823.33,-17.34 826.25,-16.47"/>
<polygon fill="#63b8ff" stroke="#63b8ff" points="678.13,-51.52 669.24,-57.29 679.79,-58.32 678.13,-51.52"/>
</a>
</g>
</g>
<!-- Node16&#45;&gt;Node16 -->
<g id="edge19_Node000016_Node000016" class="edge">
<title>Node16&#45;&gt;Node16</title>
<g id="a_edge19_Node000016_Node000016"><a xlink:title=" ">
<path fill="none" stroke="#63b8ff" d="M674.17,-74.45C681.54,-73.67 687,-70.36 687,-64.5 687,-56.17 675.95,-52.98 664.09,-54.93"/>
<polygon fill="#63b8ff" stroke="#63b8ff" points="674.21,-70.95 664.09,-74.07 673.95,-77.94 674.21,-70.95"/>
</a>
</g>
</g>
<!-- Node17&#45;&gt;Node7 -->
<g id="edge21_Node000017_Node000007" class="edge">
<title>Node17&#45;&gt;Node7</title>
<g id="a_edge21_Node000017_Node000007"><a xlink:title=" ">
<path fill="none" stroke="#63b8ff" d="M327.99,-49.42C313.29,-39.81 294.28,-27.37 281.75,-19.17"/>
<polygon fill="#63b8ff" stroke="#63b8ff" points="326.2,-52.44 336.49,-54.98 330.03,-46.58 326.2,-52.44"/>
</a>
</g>
</g>
<!-- Node18&#45;&gt;Node7 -->
<g id="edge23_Node000018_Node000007" class="edge">
<title>Node18&#45;&gt;Node7</title>
<g id="a_edge23_Node000018_Node000007"><a xlink:title=" ">
<path fill="none" stroke="#63b8ff" d="M377.62,-52.11C351.61,-42.19 314.48,-28.03 290.94,-19.06"/>
<polygon fill="#63b8ff" stroke="#63b8ff" points="376.4,-55.39 386.99,-55.68 378.89,-48.85 376.4,-55.39"/>
</a>
</g>
</g>
<!-- Node19 -->
<g id="Node000019" class="node">
<title>Node19</title>
<g id="a_Node000019"><a xlink:href="../../de/d38/neuron_8h.html" target="_top" xlink:title="single neuron proportional integral derivative controller">
<polygon fill="white" stroke="#666666" points="398,-19 321,-19 321,0 398,0 398,-19"/>
<text text-anchor="middle" x="359.5" y="-7" font-family="Helvetica,sans-Serif" font-size="10.00">pid/neuron.h</text>
</a>
</g>
</g>
<!-- Node18&#45;&gt;Node19 -->
<g id="edge24_Node000018_Node000019" class="edge">
<title>Node18&#45;&gt;Node19</title>
<g id="a_edge24_Node000018_Node000019"><a xlink:title=" ">
<path fill="none" stroke="#63b8ff" d="M392.77,-47.24C384.36,-37.95 374.15,-26.68 367.28,-19.09"/>
<polygon fill="#63b8ff" stroke="#63b8ff" points="390.27,-49.69 399.57,-54.75 395.46,-44.99 390.27,-49.69"/>
</a>
</g>
</g>
</g>
</svg>
