<?xml version="1.0" encoding="UTF-8" standalone="no"?>
<!DOCTYPE svg PUBLIC "-//W3C//DTD SVG 1.1//EN"
 "http://www.w3.org/Graphics/SVG/1.1/DTD/svg11.dtd">
<!-- Generated by graphviz version 2.43.0 (0)
 -->
<!-- Title: a.h Pages: 1 -->
<svg width="1218pt" height="140pt"
 viewBox="0.00 0.00 1217.50 140.00" xmlns="http://www.w3.org/2000/svg" xmlns:xlink="http://www.w3.org/1999/xlink">
<g id="graph0" class="graph" transform="scale(1 1) rotate(0) translate(4 136)">
<title>a.h</title>
<polygon fill="white" stroke="transparent" points="-4,4 -4,-136 1213.5,-136 1213.5,4 -4,4"/>
<!-- Node1 -->
<g id="node1" class="node">
<title>Node1</title>
<g id="a_node1"><a xlink:title="algorithm library">
<polygon fill="#bfbfbf" stroke="black" points="574.5,-112.5 574.5,-131.5 606.5,-131.5 606.5,-112.5 574.5,-112.5"/>
<text text-anchor="middle" x="590.5" y="-119.5" font-family="Helvetica,sans-Serif" font-size="10.00">a.h</text>
</a>
</g>
</g>
<!-- Node2 -->
<g id="node2" class="node">
<title>Node2</title>
<g id="a_node2"><a xlink:href="../../d3/d51/avl_8h.html" target="_top" xlink:title="Adelson&#45;Velsky and Landis self&#45;balancing binary search tree.">
<polygon fill="white" stroke="black" points="0,-56.5 0,-75.5 41,-75.5 41,-56.5 0,-56.5"/>
<text text-anchor="middle" x="20.5" y="-63.5" font-family="Helvetica,sans-Serif" font-size="10.00">avl.h</text>
</a>
</g>
</g>
<!-- Node1&#45;&gt;Node2 -->
<g id="edge1" class="edge">
<title>Node1&#45;&gt;Node2</title>
<path fill="none" stroke="midnightblue" d="M563.92,-120.83C484.83,-119.89 244.38,-113.87 49.5,-76 46.81,-75.48 44.01,-74.8 41.27,-74.04"/>
<polygon fill="midnightblue" stroke="midnightblue" points="564.36,-124.33 574.39,-120.93 564.43,-117.33 564.36,-124.33"/>
</g>
<!-- Node3 -->
<g id="node3" class="node">
<title>Node3</title>
<g id="a_node3"><a xlink:href="../../d6/d6d/buf_8h.html" target="_top" xlink:title="basic buffer library">
<polygon fill="white" stroke="black" points="59,-56.5 59,-75.5 100,-75.5 100,-56.5 59,-56.5"/>
<text text-anchor="middle" x="79.5" y="-63.5" font-family="Helvetica,sans-Serif" font-size="10.00">buf.h</text>
</a>
</g>
</g>
<!-- Node1&#45;&gt;Node3 -->
<g id="edge2" class="edge">
<title>Node1&#45;&gt;Node3</title>
<path fill="none" stroke="midnightblue" d="M563.99,-120.36C490.91,-118.2 280.6,-109.33 109.5,-76 106.4,-75.4 103.17,-74.61 100.02,-73.74"/>
<polygon fill="midnightblue" stroke="midnightblue" points="564.05,-123.86 574.14,-120.64 564.24,-116.87 564.05,-123.86"/>
</g>
<!-- Node4 -->
<g id="node4" class="node">
<title>Node4</title>
<g id="a_node4"><a xlink:href="../../d7/d3b/complex_8h.html" target="_top" xlink:title="complex number">
<polygon fill="white" stroke="black" points="118.5,-56.5 118.5,-75.5 186.5,-75.5 186.5,-56.5 118.5,-56.5"/>
<text text-anchor="middle" x="152.5" y="-63.5" font-family="Helvetica,sans-Serif" font-size="10.00">complex.h</text>
</a>
</g>
</g>
<!-- Node1&#45;&gt;Node4 -->
<g id="edge3" class="edge">
<title>Node1&#45;&gt;Node4</title>
<path fill="none" stroke="midnightblue" d="M563.89,-118.83C500.08,-113.43 333.38,-98.23 195.5,-76 192.64,-75.54 189.68,-75.02 186.71,-74.46"/>
<polygon fill="midnightblue" stroke="midnightblue" points="563.99,-122.35 574.25,-119.69 564.57,-115.37 563.99,-122.35"/>
</g>
<!-- Node5 -->
<g id="node5" class="node">
<title>Node5</title>
<g id="a_node5"><a xlink:href="../../dc/de6/crc_8h.html" target="_top" xlink:title="Cyclic Redundancy Check.">
<polygon fill="white" stroke="black" points="204.5,-56.5 204.5,-75.5 244.5,-75.5 244.5,-56.5 204.5,-56.5"/>
<text text-anchor="middle" x="224.5" y="-63.5" font-family="Helvetica,sans-Serif" font-size="10.00">crc.h</text>
</a>
</g>
</g>
<!-- Node1&#45;&gt;Node5 -->
<g id="edge4" class="edge">
<title>Node1&#45;&gt;Node5</title>
<path fill="none" stroke="midnightblue" d="M564.21,-119C507.13,-114.34 367.76,-101.17 253.5,-76 250.62,-75.36 247.61,-74.58 244.67,-73.73"/>
<polygon fill="midnightblue" stroke="midnightblue" points="563.95,-122.49 574.2,-119.8 564.51,-115.52 563.95,-122.49"/>
</g>
<!-- Node6 -->
<g id="node6" class="node">
<title>Node6</title>
<g id="a_node6"><a xlink:href="../../df/d2a/fuzzy_8h.html" target="_top" xlink:title="fuzzy operator">
<polygon fill="white" stroke="black" points="456.5,-56.5 456.5,-75.5 506.5,-75.5 506.5,-56.5 456.5,-56.5"/>
<text text-anchor="middle" x="481.5" y="-63.5" font-family="Helvetica,sans-Serif" font-size="10.00">fuzzy.h</text>
</a>
</g>
</g>
<!-- Node1&#45;&gt;Node6 -->
<g id="edge5" class="edge">
<title>Node1&#45;&gt;Node6</title>
<path fill="none" stroke="midnightblue" d="M565.37,-108.55C544.95,-98.43 516.67,-84.42 498.73,-75.54"/>
<polygon fill="midnightblue" stroke="midnightblue" points="563.9,-111.73 574.42,-113.03 567.01,-105.46 563.9,-111.73"/>
</g>
<!-- Node8 -->
<g id="node8" class="node">
<title>Node8</title>
<g id="a_node8"><a xlink:href="../../d0/d97/host_2a_8h.html" target="_top" xlink:title="algorithm library on host">
<polygon fill="white" stroke="black" points="322.5,-56.5 322.5,-75.5 378.5,-75.5 378.5,-56.5 322.5,-56.5"/>
<text text-anchor="middle" x="350.5" y="-63.5" font-family="Helvetica,sans-Serif" font-size="10.00">host/a.h</text>
</a>
</g>
</g>
<!-- Node1&#45;&gt;Node8 -->
<g id="edge7" class="edge">
<title>Node1&#45;&gt;Node8</title>
<path fill="none" stroke="midnightblue" d="M564.52,-115.42C525.88,-107.08 450.98,-90.75 387.5,-76 384.67,-75.34 381.71,-74.64 378.77,-73.94"/>
<polygon fill="midnightblue" stroke="midnightblue" points="563.91,-118.87 574.42,-117.55 565.38,-112.02 563.91,-118.87"/>
</g>
<!-- Node13 -->
<g id="node13" class="node">
<title>Node13</title>
<g id="a_node13"><a xlink:href="../../da/d23/list_8h.html" target="_top" xlink:title="circular doubly linked list implementation">
<polygon fill="white" stroke="black" points="263,-56.5 263,-75.5 304,-75.5 304,-56.5 263,-56.5"/>
<text text-anchor="middle" x="283.5" y="-63.5" font-family="Helvetica,sans-Serif" font-size="10.00">list.h</text>
</a>
</g>
</g>
<!-- Node1&#45;&gt;Node13 -->
<g id="edge12" class="edge">
<title>Node1&#45;&gt;Node13</title>
<path fill="none" stroke="midnightblue" d="M564.3,-117.9C514.87,-111.8 404.65,-96.98 313.5,-76 310.43,-75.29 307.21,-74.44 304.06,-73.55"/>
<polygon fill="midnightblue" stroke="midnightblue" points="564.08,-121.4 574.43,-119.13 564.93,-114.45 564.08,-121.4"/>
</g>
<!-- Node14 -->
<g id="node14" class="node">
<title>Node14</title>
<g id="a_node14"><a xlink:href="../../df/db1/math_8h.html" target="_top" xlink:title="mathematical algorithm library">
<polygon fill="white" stroke="black" points="681,-56.5 681,-75.5 732,-75.5 732,-56.5 681,-56.5"/>
<text text-anchor="middle" x="706.5" y="-63.5" font-family="Helvetica,sans-Serif" font-size="10.00">math.h</text>
</a>
</g>
</g>
<!-- Node1&#45;&gt;Node14 -->
<g id="edge14" class="edge">
<title>Node1&#45;&gt;Node14</title>
<path fill="none" stroke="midnightblue" d="M615.95,-109.15C637.79,-98.98 668.75,-84.57 688.22,-75.51"/>
<polygon fill="midnightblue" stroke="midnightblue" points="614.22,-106.1 606.63,-113.49 617.17,-112.44 614.22,-106.1"/>
</g>
<!-- Node15 -->
<g id="node15" class="node">
<title>Node15</title>
<g id="a_node15"><a xlink:href="../../d5/d1e/real_8h.html" target="_top" xlink:title="real number">
<polygon fill="white" stroke="black" points="577.5,-0.5 577.5,-19.5 621.5,-19.5 621.5,-0.5 577.5,-0.5"/>
<text text-anchor="middle" x="599.5" y="-7.5" font-family="Helvetica,sans-Serif" font-size="10.00">real.h</text>
</a>
</g>
</g>
<!-- Node1&#45;&gt;Node15 -->
<g id="edge25" class="edge">
<title>Node1&#45;&gt;Node15</title>
<path fill="none" stroke="midnightblue" d="M592.03,-102.35C594,-78.25 597.35,-37.31 598.8,-19.59"/>
<polygon fill="midnightblue" stroke="midnightblue" points="588.53,-102.12 591.21,-112.37 595.51,-102.69 588.53,-102.12"/>
</g>
<!-- Node16 -->
<g id="node16" class="node">
<title>Node16</title>
<g id="a_node16"><a xlink:href="../../d6/dea/mf_8h.html" target="_top" xlink:title="membership function">
<polygon fill="white" stroke="black" points="524.5,-56.5 524.5,-75.5 562.5,-75.5 562.5,-56.5 524.5,-56.5"/>
<text text-anchor="middle" x="543.5" y="-63.5" font-family="Helvetica,sans-Serif" font-size="10.00">mf.h</text>
</a>
</g>
</g>
<!-- Node1&#45;&gt;Node16 -->
<g id="edge17" class="edge">
<title>Node1&#45;&gt;Node16</title>
<path fill="none" stroke="midnightblue" d="M576.08,-104.43C567.84,-94.97 557.85,-83.48 551.12,-75.75"/>
<polygon fill="midnightblue" stroke="midnightblue" points="573.53,-106.84 582.74,-112.08 578.81,-102.24 573.53,-106.84"/>
</g>
<!-- Node17 -->
<g id="node17" class="node">
<title>Node17</title>
<g id="a_node17"><a xlink:href="../../d4/ddc/oop_8h.html" target="_top" xlink:title="Object Oriented Programming Macros.">
<polygon fill="white" stroke="black" points="618.5,-56.5 618.5,-75.5 662.5,-75.5 662.5,-56.5 618.5,-56.5"/>
<text text-anchor="middle" x="640.5" y="-63.5" font-family="Helvetica,sans-Serif" font-size="10.00">oop.h</text>
</a>
</g>
</g>
<!-- Node1&#45;&gt;Node17 -->
<g id="edge19" class="edge">
<title>Node1&#45;&gt;Node17</title>
<path fill="none" stroke="midnightblue" d="M605.58,-104.72C614.39,-95.2 625.17,-83.56 632.4,-75.75"/>
<polygon fill="midnightblue" stroke="midnightblue" points="602.98,-102.37 598.76,-112.08 608.12,-107.12 602.98,-102.37"/>
</g>
<!-- Node18 -->
<g id="node18" class="node">
<title>Node18</title>
<g id="a_node18"><a xlink:href="../../da/df0/pid_8h.html" target="_top" xlink:title="proportional integral derivative controller">
<polygon fill="white" stroke="black" points="397,-56.5 397,-75.5 438,-75.5 438,-56.5 397,-56.5"/>
<text text-anchor="middle" x="417.5" y="-63.5" font-family="Helvetica,sans-Serif" font-size="10.00">pid.h</text>
</a>
</g>
</g>
<!-- Node1&#45;&gt;Node18 -->
<g id="edge20" class="edge">
<title>Node1&#45;&gt;Node18</title>
<path fill="none" stroke="midnightblue" d="M564.39,-112.85C529.84,-102.06 469.64,-83.27 438.1,-73.43"/>
<polygon fill="midnightblue" stroke="midnightblue" points="563.64,-116.28 574.22,-115.92 565.72,-109.6 563.64,-116.28"/>
</g>
<!-- Node19 -->
<g id="node19" class="node">
<title>Node19</title>
<g id="a_node19"><a xlink:href="../../db/d57/poly_8h.html" target="_top" xlink:title="polynomial">
<polygon fill="white" stroke="black" points="768,-56.5 768,-75.5 813,-75.5 813,-56.5 768,-56.5"/>
<text text-anchor="middle" x="790.5" y="-63.5" font-family="Helvetica,sans-Serif" font-size="10.00">poly.h</text>
</a>
</g>
</g>
<!-- Node1&#45;&gt;Node19 -->
<g id="edge22" class="edge">
<title>Node1&#45;&gt;Node19</title>
<path fill="none" stroke="midnightblue" d="M616.69,-114.22C649.95,-105.56 709.09,-90.03 759.5,-76 762.2,-75.25 765.03,-74.45 767.83,-73.64"/>
<polygon fill="midnightblue" stroke="midnightblue" points="615.65,-110.87 606.85,-116.78 617.41,-117.65 615.65,-110.87"/>
</g>
<!-- Node20 -->
<g id="node20" class="node">
<title>Node20</title>
<g id="a_node20"><a xlink:href="../../dc/d23/polytrack_8h.html" target="_top" xlink:title="polynomial trajectory">
<polygon fill="white" stroke="black" points="831,-56.5 831,-75.5 902,-75.5 902,-56.5 831,-56.5"/>
<text text-anchor="middle" x="866.5" y="-63.5" font-family="Helvetica,sans-Serif" font-size="10.00">polytrack.h</text>
</a>
</g>
</g>
<!-- Node1&#45;&gt;Node20 -->
<g id="edge23" class="edge">
<title>Node1&#45;&gt;Node20</title>
<path fill="none" stroke="midnightblue" d="M616.43,-116.06C659.33,-107.87 747.76,-90.89 822.5,-76 825.25,-75.45 828.1,-74.88 830.96,-74.3"/>
<polygon fill="midnightblue" stroke="midnightblue" points="615.71,-112.63 606.54,-117.95 617.02,-119.51 615.71,-112.63"/>
</g>
<!-- Node21 -->
<g id="node21" class="node">
<title>Node21</title>
<g id="a_node21"><a xlink:href="../../d6/d1b/rbt_8h.html" target="_top" xlink:title="red–black self&#45;balancing binary search tree">
<polygon fill="white" stroke="black" points="920,-56.5 920,-75.5 959,-75.5 959,-56.5 920,-56.5"/>
<text text-anchor="middle" x="939.5" y="-63.5" font-family="Helvetica,sans-Serif" font-size="10.00">rbt.h</text>
</a>
</g>
</g>
<!-- Node1&#45;&gt;Node21 -->
<g id="edge24" class="edge">
<title>Node1&#45;&gt;Node21</title>
<path fill="none" stroke="midnightblue" d="M616.68,-118.87C671.77,-114.04 803.51,-100.73 911.5,-76 914.19,-75.38 916.99,-74.63 919.73,-73.82"/>
<polygon fill="midnightblue" stroke="midnightblue" points="616.38,-115.38 606.71,-119.72 616.97,-122.35 616.38,-115.38"/>
</g>
<!-- Node22 -->
<g id="node22" class="node">
<title>Node22</title>
<g id="a_node22"><a xlink:href="../../d1/dad/slist_8h.html" target="_top" xlink:title="circular singly linked list implementation">
<polygon fill="white" stroke="black" points="977.5,-56.5 977.5,-75.5 1023.5,-75.5 1023.5,-56.5 977.5,-56.5"/>
<text text-anchor="middle" x="1000.5" y="-63.5" font-family="Helvetica,sans-Serif" font-size="10.00">slist.h</text>
</a>
</g>
</g>
<!-- Node1&#45;&gt;Node22 -->
<g id="edge26" class="edge">
<title>Node1&#45;&gt;Node22</title>
<path fill="none" stroke="midnightblue" d="M616.93,-119.28C678.85,-114.93 837.95,-101.97 968.5,-76 971.33,-75.44 974.28,-74.75 977.18,-74.01"/>
<polygon fill="midnightblue" stroke="midnightblue" points="616.59,-115.79 606.85,-119.97 617.07,-122.77 616.59,-115.79"/>
</g>
<!-- Node23 -->
<g id="node23" class="node">
<title>Node23</title>
<g id="a_node23"><a xlink:href="../../d2/d16/tf_8h.html" target="_top" xlink:title="transfer function">
<polygon fill="white" stroke="black" points="1041.5,-56.5 1041.5,-75.5 1073.5,-75.5 1073.5,-56.5 1041.5,-56.5"/>
<text text-anchor="middle" x="1057.5" y="-63.5" font-family="Helvetica,sans-Serif" font-size="10.00">tf.h</text>
</a>
</g>
</g>
<!-- Node1&#45;&gt;Node23 -->
<g id="edge27" class="edge">
<title>Node1&#45;&gt;Node23</title>
<path fill="none" stroke="midnightblue" d="M616.78,-120.55C685.81,-118.89 877.57,-111.22 1032.5,-76 1035.38,-75.35 1038.38,-74.46 1041.26,-73.49"/>
<polygon fill="midnightblue" stroke="midnightblue" points="616.71,-117.05 606.79,-120.77 616.86,-124.05 616.71,-117.05"/>
</g>
<!-- Node24 -->
<g id="node24" class="node">
<title>Node24</title>
<g id="a_node24"><a xlink:href="../../de/db7/utf_8h.html" target="_top" xlink:title="Unicode Transformation Format.">
<polygon fill="white" stroke="black" points="1091.5,-56.5 1091.5,-75.5 1129.5,-75.5 1129.5,-56.5 1091.5,-56.5"/>
<text text-anchor="middle" x="1110.5" y="-63.5" font-family="Helvetica,sans-Serif" font-size="10.00">utf.h</text>
</a>
</g>
</g>
<!-- Node1&#45;&gt;Node24 -->
<g id="edge28" class="edge">
<title>Node1&#45;&gt;Node24</title>
<path fill="none" stroke="midnightblue" d="M617.14,-120.61C691.51,-119.09 907.43,-111.69 1082.5,-76 1085.4,-75.41 1088.43,-74.62 1091.37,-73.76"/>
<polygon fill="midnightblue" stroke="midnightblue" points="616.76,-117.12 606.83,-120.8 616.89,-124.12 616.76,-117.12"/>
</g>
<!-- Node25 -->
<g id="node25" class="node">
<title>Node25</title>
<g id="a_node25"><a xlink:href="../../df/dfc/version_8h.html" target="_top" xlink:title="algorithm library version">
<polygon fill="white" stroke="black" points="1147.5,-56.5 1147.5,-75.5 1209.5,-75.5 1209.5,-56.5 1147.5,-56.5"/>
<text text-anchor="middle" x="1178.5" y="-63.5" font-family="Helvetica,sans-Serif" font-size="10.00">version.h</text>
</a>
</g>
</g>
<!-- Node1&#45;&gt;Node25 -->
<g id="edge29" class="edge">
<title>Node1&#45;&gt;Node25</title>
<path fill="none" stroke="midnightblue" d="M616.81,-120.14C696.06,-117.27 939.32,-106.43 1138.5,-76 1141.31,-75.57 1144.23,-75.05 1147.14,-74.49"/>
<polygon fill="midnightblue" stroke="midnightblue" points="616.61,-116.65 606.73,-120.49 616.85,-123.64 616.61,-116.65"/>
</g>
<!-- Node7 -->
<g id="node7" class="node">
<title>Node7</title>
<g id="a_node7"><a xlink:href="../../d4/d05/fpid_8h.html" target="_top" xlink:title="fuzzy proportional integral derivative controller">
<polygon fill="white" stroke="black" points="512.5,-0.5 512.5,-19.5 556.5,-19.5 556.5,-0.5 512.5,-0.5"/>
<text text-anchor="middle" x="534.5" y="-7.5" font-family="Helvetica,sans-Serif" font-size="10.00">fpid.h</text>
</a>
</g>
</g>
<!-- Node6&#45;&gt;Node7 -->
<g id="edge6" class="edge">
<title>Node6&#45;&gt;Node7</title>
<path fill="none" stroke="midnightblue" d="M497.48,-48.72C506.82,-39.2 518.25,-27.56 525.91,-19.75"/>
<polygon fill="midnightblue" stroke="midnightblue" points="494.76,-46.49 490.25,-56.08 499.75,-51.4 494.76,-46.49"/>
</g>
<!-- Node9 -->
<g id="node9" class="node">
<title>Node9</title>
<g id="a_node9"><a xlink:href="../../d9/dc9/que_8h.html" target="_top" xlink:title="basic queue library">
<polygon fill="white" stroke="black" points="162.5,-0.5 162.5,-19.5 230.5,-19.5 230.5,-0.5 162.5,-0.5"/>
<text text-anchor="middle" x="196.5" y="-7.5" font-family="Helvetica,sans-Serif" font-size="10.00">host/que.h</text>
</a>
</g>
</g>
<!-- Node8&#45;&gt;Node9 -->
<g id="edge8" class="edge">
<title>Node8&#45;&gt;Node9</title>
<path fill="none" stroke="midnightblue" d="M316.39,-53.04C287.41,-42.88 246.54,-28.55 220.79,-19.52"/>
<polygon fill="midnightblue" stroke="midnightblue" points="315.5,-56.44 326.1,-56.44 317.82,-49.83 315.5,-56.44"/>
</g>
<!-- Node10 -->
<g id="node10" class="node">
<title>Node10</title>
<g id="a_node10"><a xlink:href="../../d1/d93/str_8h.html" target="_top" xlink:title="basic string library">
<polygon fill="white" stroke="black" points="248.5,-0.5 248.5,-19.5 310.5,-19.5 310.5,-0.5 248.5,-0.5"/>
<text text-anchor="middle" x="279.5" y="-7.5" font-family="Helvetica,sans-Serif" font-size="10.00">host/str.h</text>
</a>
</g>
</g>
<!-- Node8&#45;&gt;Node10 -->
<g id="edge9" class="edge">
<title>Node8&#45;&gt;Node10</title>
<path fill="none" stroke="midnightblue" d="M330.91,-50.1C318.13,-40.38 301.89,-28.03 291.11,-19.83"/>
<polygon fill="midnightblue" stroke="midnightblue" points="329.01,-53.06 339.09,-56.32 333.25,-47.48 329.01,-53.06"/>
</g>
<!-- Node11 -->
<g id="node11" class="node">
<title>Node11</title>
<g id="a_node11"><a xlink:href="../../db/d65/vec_8h.html" target="_top" xlink:title="basic vector library">
<polygon fill="white" stroke="black" points="329,-0.5 329,-19.5 396,-19.5 396,-0.5 329,-0.5"/>
<text text-anchor="middle" x="362.5" y="-7.5" font-family="Helvetica,sans-Serif" font-size="10.00">host/vec.h</text>
</a>
</g>
</g>
<!-- Node8&#45;&gt;Node11 -->
<g id="edge10" class="edge">
<title>Node8&#45;&gt;Node11</title>
<path fill="none" stroke="midnightblue" d="M354.7,-46.1C356.69,-37.14 358.98,-26.86 360.56,-19.75"/>
<polygon fill="midnightblue" stroke="midnightblue" points="351.23,-45.56 352.48,-56.08 358.07,-47.08 351.23,-45.56"/>
</g>
<!-- Node12 -->
<g id="node12" class="node">
<title>Node12</title>
<g id="a_node12"><a xlink:href="../../d6/d68/vector_8h.html" target="_top" xlink:title="basic vector library">
<polygon fill="white" stroke="black" points="414.5,-0.5 414.5,-19.5 494.5,-19.5 494.5,-0.5 414.5,-0.5"/>
<text text-anchor="middle" x="454.5" y="-7.5" font-family="Helvetica,sans-Serif" font-size="10.00">host/vector.h</text>
</a>
</g>
</g>
<!-- Node8&#45;&gt;Node12 -->
<g id="edge11" class="edge">
<title>Node8&#45;&gt;Node12</title>
<path fill="none" stroke="midnightblue" d="M376.33,-51.59C395.56,-41.61 421.24,-28.27 437.83,-19.65"/>
<polygon fill="midnightblue" stroke="midnightblue" points="374.47,-48.61 367.21,-56.32 377.7,-54.82 374.47,-48.61"/>
</g>
<!-- Node13&#45;&gt;Node9 -->
<g id="edge13" class="edge">
<title>Node13&#45;&gt;Node9</title>
<path fill="none" stroke="midnightblue" d="M260.78,-50.9C244.83,-41 224,-28.07 210.44,-19.65"/>
<polygon fill="midnightblue" stroke="midnightblue" points="259.18,-54.02 269.52,-56.32 262.87,-48.08 259.18,-54.02"/>
</g>
<!-- Node14&#45;&gt;Node14 -->
<g id="edge15" class="edge">
<title>Node14&#45;&gt;Node14</title>
<path fill="none" stroke="midnightblue" d="M735.51,-76.45C743.7,-76.01 750,-72.52 750,-66 750,-56.92 737.81,-53.73 725.28,-56.43"/>
<polygon fill="midnightblue" stroke="midnightblue" points="735.54,-72.94 725.28,-75.57 734.94,-79.92 735.54,-72.94"/>
</g>
<!-- Node14&#45;&gt;Node15 -->
<g id="edge16" class="edge">
<title>Node14&#45;&gt;Node15</title>
<path fill="none" stroke="midnightblue" d="M680.2,-51.73C660.39,-41.73 633.79,-28.31 616.65,-19.65"/>
<polygon fill="midnightblue" stroke="midnightblue" points="678.8,-54.94 689.31,-56.32 681.96,-48.69 678.8,-54.94"/>
</g>
<!-- Node16&#45;&gt;Node7 -->
<g id="edge18" class="edge">
<title>Node16&#45;&gt;Node7</title>
<path fill="none" stroke="midnightblue" d="M540.35,-46.1C538.86,-37.14 537.14,-26.86 535.96,-19.75"/>
<polygon fill="midnightblue" stroke="midnightblue" points="536.92,-46.79 542.01,-56.08 543.82,-45.64 536.92,-46.79"/>
</g>
<!-- Node18&#45;&gt;Node7 -->
<g id="edge21" class="edge">
<title>Node18&#45;&gt;Node7</title>
<path fill="none" stroke="midnightblue" d="M445.16,-52.23C467.05,-42.13 497,-28.31 516.05,-19.52"/>
<polygon fill="midnightblue" stroke="midnightblue" points="443.65,-49.08 436.04,-56.44 446.59,-55.43 443.65,-49.08"/>
</g>
</g>
</svg>
