<?xml version="1.0" encoding="UTF-8" standalone="no"?>
<!DOCTYPE svg PUBLIC "-//W3C//DTD SVG 1.1//EN"
 "http://www.w3.org/Graphics/SVG/1.1/DTD/svg11.dtd">
<!-- Generated by graphviz version 2.43.0 (0)
 -->
<!-- Title: a.h Pages: 1 -->
<svg width="1256pt" height="137pt"
 viewBox="0.00 0.00 1255.50 137.00" xmlns="http://www.w3.org/2000/svg" xmlns:xlink="http://www.w3.org/1999/xlink">
<g id="graph0" class="graph" transform="scale(1 1) rotate(0) translate(4 133)">
<title>a.h</title>
<!-- Node1 -->
<g id="Node000001" class="node">
<title>Node1</title>
<g id="a_Node000001"><a xlink:title="algorithm library">
<polygon fill="#999999" stroke="#666666" points="632.5,-129 600.5,-129 600.5,-110 632.5,-110 632.5,-129"/>
<text text-anchor="middle" x="616.5" y="-117" font-family="Helvetica,sans-Serif" font-size="10.00">a.h</text>
</a>
</g>
</g>
<!-- Node2 -->
<g id="Node000002" class="node">
<title>Node2</title>
<g id="a_Node000002"><a xlink:href="../../d3/d51/avl_8h.html" target="_top" xlink:title="Adelson&#45;Velsky and Landis self&#45;balancing binary search tree.">
<polygon fill="white" stroke="#666666" points="41,-74 0,-74 0,-55 41,-55 41,-74"/>
<text text-anchor="middle" x="20.5" y="-62" font-family="Helvetica,sans-Serif" font-size="10.00">avl.h</text>
</a>
</g>
</g>
<!-- Node1&#45;&gt;Node2 -->
<g id="edge1_Node000001_Node000002" class="edge">
<title>Node1&#45;&gt;Node2</title>
<g id="a_edge1_Node000001_Node000002"><a xlink:title=" ">
<path fill="none" stroke="#63b8ff" d="M589.74,-118.36C508.04,-117.5 254.95,-111.75 49.5,-74 46.82,-73.51 44.03,-72.86 41.28,-72.15"/>
<polygon fill="#63b8ff" stroke="#63b8ff" points="590.07,-121.86 600.1,-118.45 590.13,-114.86 590.07,-121.86"/>
</a>
</g>
</g>
<!-- Node3 -->
<g id="Node000003" class="node">
<title>Node3</title>
<g id="a_Node000003"><a xlink:href="../../d6/d6d/buf_8h.html" target="_top" xlink:title="basic buffer library">
<polygon fill="white" stroke="#666666" points="100,-74 59,-74 59,-55 100,-55 100,-74"/>
<text text-anchor="middle" x="79.5" y="-62" font-family="Helvetica,sans-Serif" font-size="10.00">buf.h</text>
</a>
</g>
</g>
<!-- Node1&#45;&gt;Node3 -->
<g id="edge2_Node000001_Node000003" class="edge">
<title>Node1&#45;&gt;Node3</title>
<g id="a_edge2_Node000001_Node000003"><a xlink:title=" ">
<path fill="none" stroke="#63b8ff" d="M590.1,-117.93C514.57,-115.94 291.31,-107.43 109.5,-74 106.41,-73.43 103.18,-72.69 100.04,-71.87"/>
<polygon fill="#63b8ff" stroke="#63b8ff" points="590.07,-121.43 600.15,-118.18 590.24,-114.44 590.07,-121.43"/>
</a>
</g>
</g>
<!-- Node4 -->
<g id="Node000004" class="node">
<title>Node4</title>
<g id="a_Node000004"><a xlink:href="../../d7/d3b/complex_8h.html" target="_top" xlink:title="complex number">
<polygon fill="white" stroke="#666666" points="186.5,-74 118.5,-74 118.5,-55 186.5,-55 186.5,-74"/>
<text text-anchor="middle" x="152.5" y="-62" font-family="Helvetica,sans-Serif" font-size="10.00">complex.h</text>
</a>
</g>
</g>
<!-- Node1&#45;&gt;Node4 -->
<g id="edge3_Node000001_Node000004" class="edge">
<title>Node1&#45;&gt;Node4</title>
<g id="a_edge3_Node000001_Node000004"><a xlink:title=" ">
<path fill="none" stroke="#63b8ff" d="M590.39,-116.56C524.14,-111.46 344.19,-96.51 195.5,-74 192.64,-73.57 189.68,-73.08 186.72,-72.55"/>
<polygon fill="#63b8ff" stroke="#63b8ff" points="590.14,-120.05 600.37,-117.32 590.67,-113.07 590.14,-120.05"/>
</a>
</g>
</g>
<!-- Node5 -->
<g id="Node000005" class="node">
<title>Node5</title>
<g id="a_Node000005"><a xlink:href="../../dc/de6/crc_8h.html" target="_top" xlink:title="Cyclic Redundancy Check.">
<polygon fill="white" stroke="#666666" points="244.5,-74 204.5,-74 204.5,-55 244.5,-55 244.5,-74"/>
<text text-anchor="middle" x="224.5" y="-62" font-family="Helvetica,sans-Serif" font-size="10.00">crc.h</text>
</a>
</g>
</g>
<!-- Node1&#45;&gt;Node5 -->
<g id="edge4_Node000001_Node000005" class="edge">
<title>Node1&#45;&gt;Node5</title>
<g id="a_edge4_Node000001_Node000005"><a xlink:title=" ">
<path fill="none" stroke="#63b8ff" d="M590.31,-116.76C530.25,-112.46 378.19,-99.74 253.5,-74 250.62,-73.41 247.62,-72.67 244.68,-71.87"/>
<polygon fill="#63b8ff" stroke="#63b8ff" points="590.21,-120.26 600.43,-117.47 590.69,-113.28 590.21,-120.26"/>
</a>
</g>
</g>
<!-- Node6 -->
<g id="Node000006" class="node">
<title>Node6</title>
<g id="a_Node000006"><a xlink:href="../../df/d2a/fuzzy_8h.html" target="_top" xlink:title="fuzzy operator">
<polygon fill="white" stroke="#666666" points="610.5,-74 560.5,-74 560.5,-55 610.5,-55 610.5,-74"/>
<text text-anchor="middle" x="585.5" y="-62" font-family="Helvetica,sans-Serif" font-size="10.00">fuzzy.h</text>
</a>
</g>
</g>
<!-- Node1&#45;&gt;Node6 -->
<g id="edge5_Node000001_Node000006" class="edge">
<title>Node1&#45;&gt;Node6</title>
<g id="a_edge5_Node000001_Node000006"><a xlink:title=" ">
<path fill="none" stroke="#63b8ff" d="M606.32,-101.1C601.03,-92.04 594.78,-81.37 590.52,-74.09"/>
<polygon fill="#63b8ff" stroke="#63b8ff" points="603.31,-102.88 611.38,-109.75 609.35,-99.35 603.31,-102.88"/>
</a>
</g>
</g>
<!-- Node8 -->
<g id="Node000008" class="node">
<title>Node8</title>
<g id="a_Node000008"><a xlink:href="../../d0/d97/host_2a_8h.html" target="_top" xlink:title="algorithm library on host">
<polygon fill="white" stroke="#666666" points="318.5,-74 262.5,-74 262.5,-55 318.5,-55 318.5,-74"/>
<text text-anchor="middle" x="290.5" y="-62" font-family="Helvetica,sans-Serif" font-size="10.00">host/a.h</text>
</a>
</g>
</g>
<!-- Node1&#45;&gt;Node8 -->
<g id="edge7_Node000001_Node000008" class="edge">
<title>Node1&#45;&gt;Node8</title>
<g id="a_edge7_Node000001_Node000008"><a xlink:title=" ">
<path fill="none" stroke="#63b8ff" d="M590.34,-115.12C539.5,-108.42 423.88,-92.47 327.5,-74 324.65,-73.45 321.69,-72.85 318.74,-72.21"/>
<polygon fill="#63b8ff" stroke="#63b8ff" points="590.08,-118.62 600.45,-116.45 590.99,-111.68 590.08,-118.62"/>
</a>
</g>
</g>
<!-- Node13 -->
<g id="Node000013" class="node">
<title>Node13</title>
<g id="a_Node000013"><a xlink:href="../../d1/df9/hpf_8h.html" target="_top" xlink:title="High Pass Filter.">
<polygon fill="white" stroke="#666666" points="474,-19 433,-19 433,0 474,0 474,-19"/>
<text text-anchor="middle" x="453.5" y="-7" font-family="Helvetica,sans-Serif" font-size="10.00">hpf.h</text>
</a>
</g>
</g>
<!-- Node1&#45;&gt;Node13 -->
<g id="edge12_Node000001_Node000013" class="edge">
<title>Node1&#45;&gt;Node13</title>
<g id="a_edge12_Node000001_Node000013"><a xlink:title=" ">
<path fill="none" stroke="#63b8ff" d="M590.29,-116.3C543.05,-111.72 446.66,-99.43 426.5,-74 412.95,-56.92 432.32,-32.03 444.64,-19.07"/>
<polygon fill="#63b8ff" stroke="#63b8ff" points="590.09,-119.79 600.37,-117.23 590.74,-112.82 590.09,-119.79"/>
</a>
</g>
</g>
<!-- Node14 -->
<g id="Node000014" class="node">
<title>Node14</title>
<g id="a_Node000014"><a xlink:href="../../da/d23/list_8h.html" target="_top" xlink:title="circular doubly linked list implementation">
<polygon fill="white" stroke="#666666" points="378,-74 337,-74 337,-55 378,-55 378,-74"/>
<text text-anchor="middle" x="357.5" y="-62" font-family="Helvetica,sans-Serif" font-size="10.00">list.h</text>
</a>
</g>
</g>
<!-- Node1&#45;&gt;Node14 -->
<g id="edge13_Node000001_Node000014" class="edge">
<title>Node1&#45;&gt;Node14</title>
<g id="a_edge13_Node000001_Node000014"><a xlink:title=" ">
<path fill="none" stroke="#63b8ff" d="M590.52,-113.71C548.7,-105.91 463.91,-89.76 392.5,-74 387.86,-72.98 382.89,-71.81 378.19,-70.68"/>
<polygon fill="#63b8ff" stroke="#63b8ff" points="589.96,-117.16 600.43,-115.55 591.23,-110.28 589.96,-117.16"/>
</a>
</g>
</g>
<!-- Node15 -->
<g id="Node000015" class="node">
<title>Node15</title>
<g id="a_Node000015"><a xlink:href="../../db/d80/lpf_8h.html" target="_top" xlink:title="Low Pass Filter.">
<polygon fill="white" stroke="#666666" points="544.5,-19 506.5,-19 506.5,0 544.5,0 544.5,-19"/>
<text text-anchor="middle" x="525.5" y="-7" font-family="Helvetica,sans-Serif" font-size="10.00">lpf.h</text>
</a>
</g>
</g>
<!-- Node1&#45;&gt;Node15 -->
<g id="edge15_Node000001_Node000015" class="edge">
<title>Node1&#45;&gt;Node15</title>
<g id="a_edge15_Node000001_Node000015"><a xlink:title=" ">
<path fill="none" stroke="#63b8ff" d="M591.21,-105.86C577.92,-98.17 562.22,-87.27 551.5,-74 537.87,-57.14 530.48,-32.16 527.35,-19.12"/>
<polygon fill="#63b8ff" stroke="#63b8ff" points="589.9,-109.14 600.35,-110.89 593.27,-103 589.9,-109.14"/>
</a>
</g>
</g>
<!-- Node16 -->
<g id="Node000016" class="node">
<title>Node16</title>
<g id="a_Node000016"><a xlink:href="../../df/db1/math_8h.html" target="_top" xlink:title="mathematical algorithm library">
<polygon fill="white" stroke="#666666" points="486,-74 435,-74 435,-55 486,-55 486,-74"/>
<text text-anchor="middle" x="460.5" y="-62" font-family="Helvetica,sans-Serif" font-size="10.00">math.h</text>
</a>
</g>
</g>
<!-- Node1&#45;&gt;Node16 -->
<g id="edge16_Node000001_Node000016" class="edge">
<title>Node1&#45;&gt;Node16</title>
<g id="a_edge16_Node000001_Node000016"><a xlink:title=" ">
<path fill="none" stroke="#63b8ff" d="M590.92,-109.81C561.85,-99.93 514.68,-83.91 485.75,-74.08"/>
<polygon fill="#63b8ff" stroke="#63b8ff" points="589.8,-113.12 600.39,-113.03 592.05,-106.5 589.8,-113.12"/>
</a>
</g>
</g>
<!-- Node17 -->
<g id="Node000017" class="node">
<title>Node17</title>
<g id="a_Node000017"><a xlink:href="../../d6/dea/mf_8h.html" target="_top" xlink:title="membership function">
<polygon fill="white" stroke="#666666" points="666.5,-74 628.5,-74 628.5,-55 666.5,-55 666.5,-74"/>
<text text-anchor="middle" x="647.5" y="-62" font-family="Helvetica,sans-Serif" font-size="10.00">mf.h</text>
</a>
</g>
</g>
<!-- Node1&#45;&gt;Node17 -->
<g id="edge20_Node000001_Node000017" class="edge">
<title>Node1&#45;&gt;Node17</title>
<g id="a_edge20_Node000001_Node000017"><a xlink:title=" ">
<path fill="none" stroke="#63b8ff" d="M626.68,-101.1C631.97,-92.04 638.22,-81.37 642.48,-74.09"/>
<polygon fill="#63b8ff" stroke="#63b8ff" points="623.65,-99.35 621.62,-109.75 629.69,-102.88 623.65,-99.35"/>
</a>
</g>
</g>
<!-- Node18 -->
<g id="Node000018" class="node">
<title>Node18</title>
<g id="a_Node000018"><a xlink:href="../../d4/ddc/oop_8h.html" target="_top" xlink:title="Object Oriented Programming Macros.">
<polygon fill="white" stroke="#666666" points="728.5,-74 684.5,-74 684.5,-55 728.5,-55 728.5,-74"/>
<text text-anchor="middle" x="706.5" y="-62" font-family="Helvetica,sans-Serif" font-size="10.00">oop.h</text>
</a>
</g>
</g>
<!-- Node1&#45;&gt;Node18 -->
<g id="edge22_Node000001_Node000018" class="edge">
<title>Node1&#45;&gt;Node18</title>
<g id="a_edge22_Node000001_Node000018"><a xlink:title=" ">
<path fill="none" stroke="#63b8ff" d="M639.94,-104.7C656.34,-95.04 677.73,-82.44 691.78,-74.17"/>
<polygon fill="#63b8ff" stroke="#63b8ff" points="637.8,-101.89 630.96,-109.98 641.35,-107.93 637.8,-101.89"/>
</a>
</g>
</g>
<!-- Node19 -->
<g id="Node000019" class="node">
<title>Node19</title>
<g id="a_Node000019"><a xlink:href="../../da/df0/pid_8h.html" target="_top" xlink:title="proportional integral derivative controller">
<polygon fill="white" stroke="#666666" points="788,-74 747,-74 747,-55 788,-55 788,-74"/>
<text text-anchor="middle" x="767.5" y="-62" font-family="Helvetica,sans-Serif" font-size="10.00">pid.h</text>
</a>
</g>
</g>
<!-- Node1&#45;&gt;Node19 -->
<g id="edge23_Node000001_Node000019" class="edge">
<title>Node1&#45;&gt;Node19</title>
<g id="a_edge23_Node000001_Node000019"><a xlink:title=" ">
<path fill="none" stroke="#63b8ff" d="M642.29,-109.45C671.85,-99.07 719.72,-82.27 746.9,-72.73"/>
<polygon fill="#63b8ff" stroke="#63b8ff" points="640.94,-106.21 632.66,-112.83 643.25,-112.82 640.94,-106.21"/>
</a>
</g>
</g>
<!-- Node20 -->
<g id="Node000020" class="node">
<title>Node20</title>
<g id="a_Node000020"><a xlink:href="../../db/d57/poly_8h.html" target="_top" xlink:title="polynomial">
<polygon fill="white" stroke="#666666" points="851,-74 806,-74 806,-55 851,-55 851,-74"/>
<text text-anchor="middle" x="828.5" y="-62" font-family="Helvetica,sans-Serif" font-size="10.00">poly.h</text>
</a>
</g>
</g>
<!-- Node1&#45;&gt;Node20 -->
<g id="edge25_Node000001_Node000020" class="edge">
<title>Node1&#45;&gt;Node20</title>
<g id="a_edge25_Node000001_Node000020"><a xlink:title=" ">
<path fill="none" stroke="#63b8ff" d="M642.44,-112.35C677.64,-103.96 742.44,-88.31 797.5,-74 800.2,-73.3 803.03,-72.55 805.83,-71.79"/>
<polygon fill="#63b8ff" stroke="#63b8ff" points="641.43,-108.99 632.52,-114.71 643.05,-115.8 641.43,-108.99"/>
</a>
</g>
</g>
<!-- Node21 -->
<g id="Node000021" class="node">
<title>Node21</title>
<g id="a_Node000021"><a xlink:href="../../dc/d23/polytrack_8h.html" target="_top" xlink:title="polynomial trajectory">
<polygon fill="white" stroke="#666666" points="940,-74 869,-74 869,-55 940,-55 940,-74"/>
<text text-anchor="middle" x="904.5" y="-62" font-family="Helvetica,sans-Serif" font-size="10.00">polytrack.h</text>
</a>
</g>
</g>
<!-- Node1&#45;&gt;Node21 -->
<g id="edge26_Node000001_Node000021" class="edge">
<title>Node1&#45;&gt;Node21</title>
<g id="a_edge26_Node000001_Node000021"><a xlink:title=" ">
<path fill="none" stroke="#63b8ff" d="M642.82,-113.79C687.57,-105.77 781.33,-88.87 860.5,-74 863.25,-73.48 866.1,-72.94 868.96,-72.4"/>
<polygon fill="#63b8ff" stroke="#63b8ff" points="642.01,-110.38 632.79,-115.59 643.25,-117.27 642.01,-110.38"/>
</a>
</g>
</g>
<!-- Node22 -->
<g id="Node000022" class="node">
<title>Node22</title>
<g id="a_Node000022"><a xlink:href="../../d6/d1b/rbt_8h.html" target="_top" xlink:title="red–black self&#45;balancing binary search tree">
<polygon fill="white" stroke="#666666" points="997,-74 958,-74 958,-55 997,-55 997,-74"/>
<text text-anchor="middle" x="977.5" y="-62" font-family="Helvetica,sans-Serif" font-size="10.00">rbt.h</text>
</a>
</g>
</g>
<!-- Node1&#45;&gt;Node22 -->
<g id="edge27_Node000001_Node000022" class="edge">
<title>Node1&#45;&gt;Node22</title>
<g id="a_edge27_Node000001_Node000022"><a xlink:title=" ">
<path fill="none" stroke="#63b8ff" d="M642.82,-116.44C699.42,-111.7 836.75,-98.48 949.5,-74 952.18,-73.42 954.98,-72.7 957.72,-71.94"/>
<polygon fill="#63b8ff" stroke="#63b8ff" points="642.28,-112.97 632.6,-117.28 642.85,-119.95 642.28,-112.97"/>
</a>
</g>
</g>
<!-- Node23 -->
<g id="Node000023" class="node">
<title>Node23</title>
<g id="a_Node000023"><a xlink:href="../../d1/dad/slist_8h.html" target="_top" xlink:title="circular singly linked list implementation">
<polygon fill="white" stroke="#666666" points="1061.5,-74 1015.5,-74 1015.5,-55 1061.5,-55 1061.5,-74"/>
<text text-anchor="middle" x="1038.5" y="-62" font-family="Helvetica,sans-Serif" font-size="10.00">slist.h</text>
</a>
</g>
</g>
<!-- Node1&#45;&gt;Node23 -->
<g id="edge28_Node000001_Node000023" class="edge">
<title>Node1&#45;&gt;Node23</title>
<g id="a_edge28_Node000001_Node000023"><a xlink:title=" ">
<path fill="none" stroke="#63b8ff" d="M642.85,-116.83C706.04,-112.53 871,-99.59 1006.5,-74 1009.32,-73.47 1012.27,-72.82 1015.17,-72.12"/>
<polygon fill="#63b8ff" stroke="#63b8ff" points="642.35,-113.35 632.6,-117.51 642.81,-120.34 642.35,-113.35"/>
</a>
</g>
</g>
<!-- Node24 -->
<g id="Node000024" class="node">
<title>Node24</title>
<g id="a_Node000024"><a xlink:href="../../d2/d16/tf_8h.html" target="_top" xlink:title="transfer function">
<polygon fill="white" stroke="#666666" points="1111.5,-74 1079.5,-74 1079.5,-55 1111.5,-55 1111.5,-74"/>
<text text-anchor="middle" x="1095.5" y="-62" font-family="Helvetica,sans-Serif" font-size="10.00">tf.h</text>
</a>
</g>
</g>
<!-- Node1&#45;&gt;Node24 -->
<g id="edge29_Node000001_Node000024" class="edge">
<title>Node1&#45;&gt;Node24</title>
<g id="a_edge29_Node000001_Node000024"><a xlink:title=" ">
<path fill="none" stroke="#63b8ff" d="M642.97,-118.02C713.36,-116.3 910.68,-108.52 1070.5,-74 1073.37,-73.38 1076.36,-72.54 1079.25,-71.63"/>
<polygon fill="#63b8ff" stroke="#63b8ff" points="642.71,-114.53 632.79,-118.25 642.87,-121.53 642.71,-114.53"/>
</a>
</g>
</g>
<!-- Node25 -->
<g id="Node000025" class="node">
<title>Node25</title>
<g id="a_Node000025"><a xlink:href="../../de/db7/utf_8h.html" target="_top" xlink:title="Unicode Transformation Format.">
<polygon fill="white" stroke="#666666" points="1167.5,-74 1129.5,-74 1129.5,-55 1167.5,-55 1167.5,-74"/>
<text text-anchor="middle" x="1148.5" y="-62" font-family="Helvetica,sans-Serif" font-size="10.00">utf.h</text>
</a>
</g>
</g>
<!-- Node1&#45;&gt;Node25 -->
<g id="edge30_Node000001_Node000025" class="edge">
<title>Node1&#45;&gt;Node25</title>
<g id="a_edge30_Node000001_Node000025"><a xlink:title=" ">
<path fill="none" stroke="#63b8ff" d="M642.77,-118.09C717.95,-116.5 940.08,-108.96 1120.5,-74 1123.39,-73.44 1126.41,-72.7 1129.35,-71.88"/>
<polygon fill="#63b8ff" stroke="#63b8ff" points="642.7,-114.59 632.77,-118.28 642.84,-121.59 642.7,-114.59"/>
</a>
</g>
</g>
<!-- Node26 -->
<g id="Node000026" class="node">
<title>Node26</title>
<g id="a_Node000026"><a xlink:href="../../df/dfc/version_8h.html" target="_top" xlink:title="algorithm library version">
<polygon fill="white" stroke="#666666" points="1247.5,-74 1185.5,-74 1185.5,-55 1247.5,-55 1247.5,-74"/>
<text text-anchor="middle" x="1216.5" y="-62" font-family="Helvetica,sans-Serif" font-size="10.00">version.h</text>
</a>
</g>
</g>
<!-- Node1&#45;&gt;Node26 -->
<g id="edge31_Node000001_Node000026" class="edge">
<title>Node1&#45;&gt;Node26</title>
<g id="a_edge31_Node000001_Node000026"><a xlink:title=" ">
<path fill="none" stroke="#63b8ff" d="M642.82,-117.63C723.18,-114.69 972.32,-103.68 1176.5,-74 1179.31,-73.59 1182.22,-73.1 1185.13,-72.57"/>
<polygon fill="#63b8ff" stroke="#63b8ff" points="642.49,-114.13 632.62,-117.99 642.74,-121.13 642.49,-114.13"/>
</a>
</g>
</g>
<!-- Node7 -->
<g id="Node000007" class="node">
<title>Node7</title>
<g id="a_Node000007"><a xlink:href="../../d7/d30/pid__fuzzy_8h.html" target="_top" xlink:title="fuzzy proportional integral derivative controller">
<polygon fill="white" stroke="#666666" points="683,-19 612,-19 612,0 683,0 683,-19"/>
<text text-anchor="middle" x="647.5" y="-7" font-family="Helvetica,sans-Serif" font-size="10.00">pid_fuzzy.h</text>
</a>
</g>
</g>
<!-- Node6&#45;&gt;Node7 -->
<g id="edge6_Node000006_Node000007" class="edge">
<title>Node6&#45;&gt;Node7</title>
<g id="a_edge6_Node000006_Node000007"><a xlink:title=" ">
<path fill="none" stroke="#63b8ff" d="M603.25,-48.32C614.31,-38.87 628.13,-27.06 637.36,-19.17"/>
<polygon fill="#63b8ff" stroke="#63b8ff" points="600.79,-45.83 595.46,-54.98 605.34,-51.15 600.79,-45.83"/>
</a>
</g>
</g>
<!-- Node9 -->
<g id="Node000009" class="node">
<title>Node9</title>
<g id="a_Node000009"><a xlink:href="../../d9/dc9/que_8h.html" target="_top" xlink:title="basic queue library">
<polygon fill="white" stroke="#666666" points="407.5,-19 339.5,-19 339.5,0 407.5,0 407.5,-19"/>
<text text-anchor="middle" x="373.5" y="-7" font-family="Helvetica,sans-Serif" font-size="10.00">host/que.h</text>
</a>
</g>
</g>
<!-- Node8&#45;&gt;Node9 -->
<g id="edge8_Node000008_Node000009" class="edge">
<title>Node8&#45;&gt;Node9</title>
<g id="a_edge8_Node000008_Node000009"><a xlink:title=" ">
<path fill="none" stroke="#63b8ff" d="M312.54,-49.42C327.61,-39.81 347.09,-27.37 359.92,-19.17"/>
<polygon fill="#63b8ff" stroke="#63b8ff" points="310.38,-46.65 303.84,-54.98 314.15,-52.55 310.38,-46.65"/>
</a>
</g>
</g>
<!-- Node10 -->
<g id="Node000010" class="node">
<title>Node10</title>
<g id="a_Node000010"><a xlink:href="../../d1/d93/str_8h.html" target="_top" xlink:title="basic string library">
<polygon fill="white" stroke="#666666" points="321.5,-19 259.5,-19 259.5,0 321.5,0 321.5,-19"/>
<text text-anchor="middle" x="290.5" y="-7" font-family="Helvetica,sans-Serif" font-size="10.00">host/str.h</text>
</a>
</g>
</g>
<!-- Node8&#45;&gt;Node10 -->
<g id="edge9_Node000008_Node000010" class="edge">
<title>Node8&#45;&gt;Node10</title>
<g id="a_edge9_Node000008_Node000010"><a xlink:title=" ">
<path fill="none" stroke="#63b8ff" d="M290.5,-44.66C290.5,-35.93 290.5,-25.99 290.5,-19.09"/>
<polygon fill="#63b8ff" stroke="#63b8ff" points="287,-44.75 290.5,-54.75 294,-44.75 287,-44.75"/>
</a>
</g>
</g>
<!-- Node11 -->
<g id="Node000011" class="node">
<title>Node11</title>
<g id="a_Node000011"><a xlink:href="../../db/d65/vec_8h.html" target="_top" xlink:title="basic vector library">
<polygon fill="white" stroke="#666666" points="143,-19 76,-19 76,0 143,0 143,-19"/>
<text text-anchor="middle" x="109.5" y="-7" font-family="Helvetica,sans-Serif" font-size="10.00">host/vec.h</text>
</a>
</g>
</g>
<!-- Node8&#45;&gt;Node11 -->
<g id="edge10_Node000008_Node000011" class="edge">
<title>Node8&#45;&gt;Node11</title>
<g id="a_edge10_Node000008_Node000011"><a xlink:title=" ">
<path fill="none" stroke="#63b8ff" d="M252.22,-52.29C218.34,-42.37 169.63,-28.11 138.78,-19.07"/>
<polygon fill="#63b8ff" stroke="#63b8ff" points="251.64,-55.77 262.22,-55.22 253.61,-49.05 251.64,-55.77"/>
</a>
</g>
</g>
<!-- Node12 -->
<g id="Node000012" class="node">
<title>Node12</title>
<g id="a_Node000012"><a xlink:href="../../d6/d68/vector_8h.html" target="_top" xlink:title="basic vector library">
<polygon fill="white" stroke="#666666" points="241.5,-19 161.5,-19 161.5,0 241.5,0 241.5,-19"/>
<text text-anchor="middle" x="201.5" y="-7" font-family="Helvetica,sans-Serif" font-size="10.00">host/vector.h</text>
</a>
</g>
</g>
<!-- Node8&#45;&gt;Node12 -->
<g id="edge11_Node000008_Node000012" class="edge">
<title>Node8&#45;&gt;Node12</title>
<g id="a_edge11_Node000008_Node000012"><a xlink:title=" ">
<path fill="none" stroke="#63b8ff" d="M267.32,-49.7C251.11,-40.04 229.95,-27.44 216.06,-19.17"/>
<polygon fill="#63b8ff" stroke="#63b8ff" points="265.82,-52.88 276.2,-54.98 269.4,-46.86 265.82,-52.88"/>
</a>
</g>
</g>
<!-- Node14&#45;&gt;Node9 -->
<g id="edge14_Node000014_Node000009" class="edge">
<title>Node14&#45;&gt;Node9</title>
<g id="a_edge14_Node000014_Node000009"><a xlink:title=" ">
<path fill="none" stroke="#63b8ff" d="M363.1,-44.95C365.76,-36.15 368.8,-26.06 370.91,-19.09"/>
<polygon fill="#63b8ff" stroke="#63b8ff" points="359.68,-44.16 360.14,-54.75 366.38,-46.19 359.68,-44.16"/>
</a>
</g>
</g>
<!-- Node16&#45;&gt;Node13 -->
<g id="edge17_Node000016_Node000013" class="edge">
<title>Node16&#45;&gt;Node13</title>
<g id="a_edge17_Node000016_Node000013"><a xlink:title=" ">
<path fill="none" stroke="#63b8ff" d="M458.01,-44.66C456.86,-35.93 455.55,-25.99 454.63,-19.09"/>
<polygon fill="#63b8ff" stroke="#63b8ff" points="454.56,-45.29 459.34,-54.75 461.5,-44.38 454.56,-45.29"/>
</a>
</g>
</g>
<!-- Node16&#45;&gt;Node15 -->
<g id="edge18_Node000016_Node000015" class="edge">
<title>Node16&#45;&gt;Node15</title>
<g id="a_edge18_Node000016_Node000015"><a xlink:title=" ">
<path fill="none" stroke="#63b8ff" d="M478.77,-48.6C490.42,-39.11 505.1,-27.13 514.87,-19.17"/>
<polygon fill="#63b8ff" stroke="#63b8ff" points="476.48,-45.95 470.94,-54.98 480.91,-51.38 476.48,-45.95"/>
</a>
</g>
</g>
<!-- Node16&#45;&gt;Node16 -->
<g id="edge19_Node000016_Node000016" class="edge">
<title>Node16&#45;&gt;Node16</title>
<g id="a_edge19_Node000016_Node000016"><a xlink:title=" ">
<path fill="none" stroke="#63b8ff" d="M491.17,-74.45C498.54,-73.67 504,-70.36 504,-64.5 504,-56.17 492.95,-52.98 481.09,-54.93"/>
<polygon fill="#63b8ff" stroke="#63b8ff" points="491.21,-70.95 481.09,-74.07 490.95,-77.94 491.21,-70.95"/>
</a>
</g>
</g>
<!-- Node17&#45;&gt;Node7 -->
<g id="edge21_Node000017_Node000007" class="edge">
<title>Node17&#45;&gt;Node7</title>
<g id="a_edge21_Node000017_Node000007"><a xlink:title=" ">
<path fill="none" stroke="#63b8ff" d="M647.5,-44.66C647.5,-35.93 647.5,-25.99 647.5,-19.09"/>
<polygon fill="#63b8ff" stroke="#63b8ff" points="644,-44.75 647.5,-54.75 651,-44.75 644,-44.75"/>
</a>
</g>
</g>
<!-- Node19&#45;&gt;Node7 -->
<g id="edge24_Node000019_Node000007" class="edge">
<title>Node19&#45;&gt;Node7</title>
<g id="a_edge24_Node000019_Node000007"><a xlink:title=" ">
<path fill="none" stroke="#63b8ff" d="M738.97,-50.9C716.8,-41.11 686.65,-27.79 667.13,-19.17"/>
<polygon fill="#63b8ff" stroke="#63b8ff" points="737.66,-54.15 748.22,-54.98 740.49,-47.74 737.66,-54.15"/>
</a>
</g>
</g>
</g>
</svg>
