<?xml version="1.0" encoding="UTF-8" standalone="no"?>
<!DOCTYPE svg PUBLIC "-//W3C//DTD SVG 1.1//EN"
 "http://www.w3.org/Graphics/SVG/1.1/DTD/svg11.dtd">
<!-- Generated by graphviz version 2.43.0 (0)
 -->
<!-- Title: a.h Pages: 1 -->
<!--zoomable 137 -->

<svg id="main" version="1.1" xmlns="http://www.w3.org/2000/svg" xmlns:xlink="http://www.w3.org/1999/xlink" xml:space="preserve" onload="init(evt)">
<style type="text/css"><![CDATA[
.node, .edge {opacity: 0.7;}
.node.selected, .edge.selected {opacity: 1;}
.edge:hover path { stroke: red; }
.edge:hover polygon { stroke: red; fill: red; }
]]></style>

<defs>
  <circle id="rim" cx="0" cy="0" r="7"/>
  <circle id="rim2" cx="0" cy="0" r="3.5"/>
  <g id="zoomPlus">
    <use xlink:href="#rim" fill="#404040"><set attributeName="fill" to="#808080" begin="zoomplus.mouseover" end="zoomplus.mouseout"/></use>
    <path d="M-4,0h8M0,-4v8" fill="none" stroke="white" stroke-width="1.5" pointer-events="none"/>
  </g>
  <g id="zoomMin">
    <use xlink:href="#rim" fill="#404040"><set attributeName="fill" to="#808080" begin="zoomminus.mouseover" end="zoomminus.mouseout"/></use>
    <path d="M-4,0h8" fill="none" stroke="white" stroke-width="1.5" pointer-events="none"/>
  </g>
  <g id="arrowUp" transform="translate(30 24)">
    <use xlink:href="#rim"/>
    <path pointer-events="none" fill="none" stroke="white" stroke-width="1.5" d="M0,-3.0v7 M-2.5,-0.5L0,-3.0L2.5,-0.5"/>
  </g>
  <g id="arrowRight" transform="rotate(90) translate(36 -43)">
    <use xlink:href="#rim"/>
    <path pointer-events="none" fill="none" stroke="white" stroke-width="1.5" d="M0,-3.0v7 M-2.5,-0.5L0,-3.0L2.5,-0.5"/>
  </g>
  <g id="arrowDown" transform="rotate(180) translate(-30 -48)">
    <use xlink:href="#rim"/>
    <path pointer-events="none" fill="none" stroke="white" stroke-width="1.5" d="M0,-3.0v7 M-2.5,-0.5L0,-3.0L2.5,-0.5"/>
  </g>
  <g id="arrowLeft" transform="rotate(270) translate(-36 17)">
    <use xlink:href="#rim"/>
    <path pointer-events="none" fill="none" stroke="white" stroke-width="1.5" d="M0,-3.0v7 M-2.5,-0.5L0,-3.0L2.5,-0.5"/>
  </g>
  <g id="resetDef">
    <use xlink:href="#rim2" fill="#404040"><set attributeName="fill" to="#808080" begin="reset.mouseover" end="reset.mouseout"/></use>
  </g>
</defs>
<script type="application/ecmascript">
var viewWidth = 1608;
var viewHeight = 137;
var sectionId = 'dynsection-1';
</script>
<script type="application/ecmascript" xlink:href="../../svg.min.js"/>
<svg id="graph" class="graph">
<g id="viewport">
<title>a.h</title>
<!-- Node1 -->
<g id="Node000001" class="node">
<title>Node1</title>
<g id="a_Node000001"><a xlink:title="algorithm library">
<polygon fill="#999999" stroke="#666666" points="747.5,-129 715.5,-129 715.5,-110 747.5,-110 747.5,-129"/>
<text text-anchor="middle" x="731.5" y="-117" font-family="Helvetica,sans-Serif" font-size="10.00">a.h</text>
</a>
</g>
</g>
<!-- Node2 -->
<g id="Node000002" class="node">
<title>Node2</title>
<g id="a_Node000002"><a xlink:href="../../d3/d51/avl_8h.html" target="_top" xlink:title="Adelson&#45;Velsky and Landis self&#45;balancing binary search tree.">
<polygon fill="white" stroke="#666666" points="41,-74 0,-74 0,-55 41,-55 41,-74"/>
<text text-anchor="middle" x="20.5" y="-62" font-family="Helvetica,sans-Serif" font-size="10.00">avl.h</text>
</a>
</g>
</g>
<!-- Node1&#45;&gt;Node2 -->
<g id="edge1_Node000001_Node000002" class="edge">
<title>Node1&#45;&gt;Node2</title>
<g id="a_edge1_Node000001_Node000002"><a xlink:title=" ">
<path fill="none" stroke="#63b8ff" d="M705.23,-118.85C613.87,-119.64 301.86,-118.66 49.5,-74 46.81,-73.52 44.02,-72.89 41.28,-72.18"/>
<polygon fill="#63b8ff" stroke="#63b8ff" points="705.52,-122.35 715.48,-118.75 705.45,-115.35 705.52,-122.35"/>
</a>
</g>
</g>
<!-- Node3 -->
<g id="Node000003" class="node">
<title>Node3</title>
<g id="a_Node000003"><a xlink:href="../../d6/d6d/buf_8h.html" target="_top" xlink:title="basic buffer library">
<polygon fill="white" stroke="#666666" points="100,-74 59,-74 59,-55 100,-55 100,-74"/>
<text text-anchor="middle" x="79.5" y="-62" font-family="Helvetica,sans-Serif" font-size="10.00">buf.h</text>
</a>
</g>
</g>
<!-- Node1&#45;&gt;Node3 -->
<g id="edge2_Node000001_Node000003" class="edge">
<title>Node1&#45;&gt;Node3</title>
<g id="a_edge2_Node000001_Node000003"><a xlink:title=" ">
<path fill="none" stroke="#63b8ff" d="M705.33,-118.53C619.33,-118.24 337.81,-114.08 109.5,-74 106.41,-73.46 103.18,-72.72 100.03,-71.91"/>
<polygon fill="#63b8ff" stroke="#63b8ff" points="705.49,-122.03 715.49,-118.55 705.5,-115.03 705.49,-122.03"/>
</a>
</g>
</g>
<!-- Node4 -->
<g id="Node000004" class="node">
<title>Node4</title>
<g id="a_Node000004"><a xlink:href="../../d7/d3b/complex_8h.html" target="_top" xlink:title="complex number">
<polygon fill="white" stroke="#666666" points="186.5,-74 118.5,-74 118.5,-55 186.5,-55 186.5,-74"/>
<text text-anchor="middle" x="152.5" y="-62" font-family="Helvetica,sans-Serif" font-size="10.00">complex.h</text>
</a>
</g>
</g>
<!-- Node1&#45;&gt;Node4 -->
<g id="edge3_Node000001_Node000004" class="edge">
<title>Node1&#45;&gt;Node4</title>
<g id="a_edge3_Node000001_Node000004"><a xlink:title=" ">
<path fill="none" stroke="#63b8ff" d="M704.8,-117.35C626.34,-113.73 389.85,-101.19 195.5,-74 192.64,-73.6 189.68,-73.13 186.71,-72.62"/>
<polygon fill="#63b8ff" stroke="#63b8ff" points="705.05,-120.86 715.2,-117.82 705.37,-113.87 705.05,-120.86"/>
</a>
</g>
</g>
<!-- Node5 -->
<g id="Node000005" class="node">
<title>Node5</title>
<g id="a_Node000005"><a xlink:href="../../dc/de6/crc_8h.html" target="_top" xlink:title="Cyclic Redundancy Check.">
<polygon fill="white" stroke="#666666" points="244.5,-74 204.5,-74 204.5,-55 244.5,-55 244.5,-74"/>
<text text-anchor="middle" x="224.5" y="-62" font-family="Helvetica,sans-Serif" font-size="10.00">crc.h</text>
</a>
</g>
</g>
<!-- Node1&#45;&gt;Node5 -->
<g id="edge4_Node000001_Node000005" class="edge">
<title>Node1&#45;&gt;Node5</title>
<g id="a_edge4_Node000001_Node000005"><a xlink:title=" ">
<path fill="none" stroke="#63b8ff" d="M705.17,-117.82C632.57,-115.57 423.63,-106.54 253.5,-74 250.61,-73.45 247.6,-72.73 244.66,-71.95"/>
<polygon fill="#63b8ff" stroke="#63b8ff" points="705.15,-121.32 715.25,-118.12 705.36,-114.33 705.15,-121.32"/>
</a>
</g>
</g>
<!-- Node6 -->
<g id="Node000006" class="node">
<title>Node6</title>
<g id="a_Node000006"><a xlink:href="../../df/d2a/fuzzy_8h.html" target="_top" xlink:title="fuzzy operator">
<polygon fill="white" stroke="#666666" points="312.5,-74 262.5,-74 262.5,-55 312.5,-55 312.5,-74"/>
<text text-anchor="middle" x="287.5" y="-62" font-family="Helvetica,sans-Serif" font-size="10.00">fuzzy.h</text>
</a>
</g>
</g>
<!-- Node1&#45;&gt;Node6 -->
<g id="edge5_Node000001_Node000006" class="edge">
<title>Node1&#45;&gt;Node6</title>
<g id="a_edge5_Node000001_Node000006"><a xlink:title=" ">
<path fill="none" stroke="#63b8ff" d="M705.15,-116.9C639.78,-112.64 465.09,-99.62 321.5,-74 318.62,-73.49 315.63,-72.87 312.67,-72.2"/>
<polygon fill="#63b8ff" stroke="#63b8ff" points="705.17,-120.4 715.37,-117.55 705.61,-113.42 705.17,-120.4"/>
</a>
</g>
</g>
<!-- Node8 -->
<g id="Node000008" class="node">
<title>Node8</title>
<g id="a_Node000008"><a xlink:href="../../d1/df9/hpf_8h.html" target="_top" xlink:title="High Pass Filter.">
<polygon fill="white" stroke="#666666" points="475,-19 434,-19 434,0 475,0 475,-19"/>
<text text-anchor="middle" x="454.5" y="-7" font-family="Helvetica,sans-Serif" font-size="10.00">hpf.h</text>
</a>
</g>
</g>
<!-- Node1&#45;&gt;Node8 -->
<g id="edge7_Node000001_Node000008" class="edge">
<title>Node1&#45;&gt;Node8</title>
<g id="a_edge7_Node000001_Node000008"><a xlink:title=" ">
<path fill="none" stroke="#63b8ff" d="M704.7,-118.94C636.01,-119.44 456.43,-116.58 419.5,-74 404.49,-56.69 428.51,-31.9 443.65,-19.01"/>
<polygon fill="#63b8ff" stroke="#63b8ff" points="705.14,-122.44 715.1,-118.83 705.06,-115.44 705.14,-122.44"/>
</a>
</g>
</g>
<!-- Node9 -->
<g id="Node000009" class="node">
<title>Node9</title>
<g id="a_Node000009"><a xlink:href="../../da/d23/list_8h.html" target="_top" xlink:title="circular doubly linked list implementation">
<polygon fill="white" stroke="#666666" points="634,-74 593,-74 593,-55 634,-55 634,-74"/>
<text text-anchor="middle" x="613.5" y="-62" font-family="Helvetica,sans-Serif" font-size="10.00">list.h</text>
</a>
</g>
</g>
<!-- Node1&#45;&gt;Node9 -->
<g id="edge8_Node000001_Node000009" class="edge">
<title>Node1&#45;&gt;Node9</title>
<g id="a_edge8_Node000001_Node000009"><a xlink:title=" ">
<path fill="none" stroke="#63b8ff" d="M705.97,-107.03C683.88,-97.11 652.43,-82.99 632.5,-74.03"/>
<polygon fill="#63b8ff" stroke="#63b8ff" points="704.54,-110.23 715.09,-111.13 707.4,-103.84 704.54,-110.23"/>
</a>
</g>
</g>
<!-- Node10 -->
<g id="Node000010" class="node">
<title>Node10</title>
<g id="a_Node000010"><a xlink:href="../../d9/dc9/que_8h.html" target="_top" xlink:title="basic queue library">
<polygon fill="white" stroke="#666666" points="617.5,-19 573.5,-19 573.5,0 617.5,0 617.5,-19"/>
<text text-anchor="middle" x="595.5" y="-7" font-family="Helvetica,sans-Serif" font-size="10.00">que.h</text>
</a>
</g>
</g>
<!-- Node1&#45;&gt;Node10 -->
<g id="edge20_Node000001_Node000010" class="edge">
<title>Node1&#45;&gt;Node10</title>
<g id="a_edge20_Node000001_Node000010"><a xlink:title=" ">
<path fill="none" stroke="#63b8ff" d="M705.05,-119.21C670.83,-118.51 612.32,-111.48 584.5,-74 572.37,-57.65 583.04,-32.45 590.23,-19.25"/>
<polygon fill="#63b8ff" stroke="#63b8ff" points="705.22,-122.71 715.23,-119.24 705.25,-115.71 705.22,-122.71"/>
</a>
</g>
</g>
<!-- Node11 -->
<g id="Node000011" class="node">
<title>Node11</title>
<g id="a_Node000011"><a xlink:href="../../db/d80/lpf_8h.html" target="_top" xlink:title="Low Pass Filter.">
<polygon fill="white" stroke="#666666" points="538.5,-19 500.5,-19 500.5,0 538.5,0 538.5,-19"/>
<text text-anchor="middle" x="519.5" y="-7" font-family="Helvetica,sans-Serif" font-size="10.00">lpf.h</text>
</a>
</g>
</g>
<!-- Node1&#45;&gt;Node11 -->
<g id="edge10_Node000001_Node000011" class="edge">
<title>Node1&#45;&gt;Node11</title>
<g id="a_edge10_Node000001_Node000011"><a xlink:title=" ">
<path fill="none" stroke="#63b8ff" d="M704.93,-115.69C672.09,-111.2 615.52,-100.1 574.5,-74 551.86,-59.6 533.35,-33.09 524.73,-19.33"/>
<polygon fill="#63b8ff" stroke="#63b8ff" points="704.75,-119.19 715.11,-116.97 705.62,-112.25 704.75,-119.19"/>
</a>
</g>
</g>
<!-- Node12 -->
<g id="Node000012" class="node">
<title>Node12</title>
<g id="a_Node000012"><a xlink:href="../../df/db1/math_8h.html" target="_top" xlink:title="mathematical algorithm library">
<polygon fill="white" stroke="#666666" points="480,-74 429,-74 429,-55 480,-55 480,-74"/>
<text text-anchor="middle" x="454.5" y="-62" font-family="Helvetica,sans-Serif" font-size="10.00">math.h</text>
</a>
</g>
</g>
<!-- Node1&#45;&gt;Node12 -->
<g id="edge11_Node000001_Node000012" class="edge">
<title>Node1&#45;&gt;Node12</title>
<g id="a_edge11_Node000001_Node000012"><a xlink:title=" ">
<path fill="none" stroke="#63b8ff" d="M705.47,-113.52C652.55,-103.39 532.99,-80.52 480.28,-70.43"/>
<polygon fill="#63b8ff" stroke="#63b8ff" points="704.93,-116.98 715.41,-115.42 706.25,-110.1 704.93,-116.98"/>
</a>
</g>
</g>
<!-- Node13 -->
<g id="Node000013" class="node">
<title>Node13</title>
<g id="a_Node000013"><a xlink:href="../../d6/dea/mf_8h.html" target="_top" xlink:title="membership function">
<polygon fill="white" stroke="#666666" points="690.5,-74 652.5,-74 652.5,-55 690.5,-55 690.5,-74"/>
<text text-anchor="middle" x="671.5" y="-62" font-family="Helvetica,sans-Serif" font-size="10.00">mf.h</text>
</a>
</g>
</g>
<!-- Node1&#45;&gt;Node13 -->
<g id="edge15_Node000001_Node000013" class="edge">
<title>Node1&#45;&gt;Node13</title>
<g id="a_edge15_Node000001_Node000013"><a xlink:title=" ">
<path fill="none" stroke="#63b8ff" d="M714.32,-103.32C703.62,-93.87 690.24,-82.06 681.32,-74.17"/>
<polygon fill="#63b8ff" stroke="#63b8ff" points="712.05,-105.99 721.86,-109.98 716.68,-100.74 712.05,-105.99"/>
</a>
</g>
</g>
<!-- Node14 -->
<g id="Node000014" class="node">
<title>Node14</title>
<g id="a_Node000014"><a xlink:href="../../da/df0/pid_8h.html" target="_top" xlink:title="proportional integral derivative controller">
<polygon fill="white" stroke="#666666" points="372,-74 331,-74 331,-55 372,-55 372,-74"/>
<text text-anchor="middle" x="351.5" y="-62" font-family="Helvetica,sans-Serif" font-size="10.00">pid.h</text>
</a>
</g>
</g>
<!-- Node1&#45;&gt;Node14 -->
<g id="edge16_Node000001_Node000014" class="edge">
<title>Node1&#45;&gt;Node14</title>
<g id="a_edge16_Node000001_Node000014"><a xlink:title=" ">
<path fill="none" stroke="#63b8ff" d="M705.11,-116.1C647.15,-110.6 504.49,-95.87 386.5,-74 381.83,-73.13 376.84,-72.03 372.15,-70.91"/>
<polygon fill="#63b8ff" stroke="#63b8ff" points="704.95,-119.6 715.23,-117.04 705.6,-112.63 704.95,-119.6"/>
</a>
</g>
</g>
<!-- Node16 -->
<g id="Node000016" class="node">
<title>Node16</title>
<g id="a_Node000016"><a xlink:href="../../db/d57/poly_8h.html" target="_top" xlink:title="polynomial">
<polygon fill="white" stroke="#666666" points="754,-74 709,-74 709,-55 754,-55 754,-74"/>
<text text-anchor="middle" x="731.5" y="-62" font-family="Helvetica,sans-Serif" font-size="10.00">poly.h</text>
</a>
</g>
</g>
<!-- Node1&#45;&gt;Node16 -->
<g id="edge19_Node000001_Node000016" class="edge">
<title>Node1&#45;&gt;Node16</title>
<g id="a_edge19_Node000001_Node000016"><a xlink:title=" ">
<path fill="none" stroke="#63b8ff" d="M731.5,-99.66C731.5,-90.93 731.5,-80.99 731.5,-74.09"/>
<polygon fill="#63b8ff" stroke="#63b8ff" points="728,-99.75 731.5,-109.75 735,-99.75 728,-99.75"/>
</a>
</g>
</g>
<!-- Node17 -->
<g id="Node000017" class="node">
<title>Node17</title>
<g id="a_Node000017"><a xlink:href="../../d6/d1b/rbt_8h.html" target="_top" xlink:title="red–black self&#45;balancing binary search tree">
<polygon fill="white" stroke="#666666" points="811,-74 772,-74 772,-55 811,-55 811,-74"/>
<text text-anchor="middle" x="791.5" y="-62" font-family="Helvetica,sans-Serif" font-size="10.00">rbt.h</text>
</a>
</g>
</g>
<!-- Node1&#45;&gt;Node17 -->
<g id="edge21_Node000001_Node000017" class="edge">
<title>Node1&#45;&gt;Node17</title>
<g id="a_edge21_Node000001_Node000017"><a xlink:title=" ">
<path fill="none" stroke="#63b8ff" d="M748.68,-103.32C759.38,-93.87 772.76,-82.06 781.68,-74.17"/>
<polygon fill="#63b8ff" stroke="#63b8ff" points="746.32,-100.74 741.14,-109.98 750.95,-105.99 746.32,-100.74"/>
</a>
</g>
</g>
<!-- Node18 -->
<g id="Node000018" class="node">
<title>Node18</title>
<g id="a_Node000018"><a xlink:href="../../d1/dad/slist_8h.html" target="_top" xlink:title="singly linked list implementation">
<polygon fill="white" stroke="#666666" points="875.5,-74 829.5,-74 829.5,-55 875.5,-55 875.5,-74"/>
<text text-anchor="middle" x="852.5" y="-62" font-family="Helvetica,sans-Serif" font-size="10.00">slist.h</text>
</a>
</g>
</g>
<!-- Node1&#45;&gt;Node18 -->
<g id="edge22_Node000001_Node000018" class="edge">
<title>Node1&#45;&gt;Node18</title>
<g id="a_edge22_Node000001_Node000018"><a xlink:title=" ">
<path fill="none" stroke="#63b8ff" d="M757.14,-107.27C779.75,-97.37 812.23,-83.14 832.84,-74.11"/>
<polygon fill="#63b8ff" stroke="#63b8ff" points="755.57,-104.13 747.82,-111.35 758.38,-110.55 755.57,-104.13"/>
</a>
</g>
</g>
<!-- Node19 -->
<g id="Node000019" class="node">
<title>Node19</title>
<g id="a_Node000019"><a xlink:href="../../d1/d93/str_8h.html" target="_top" xlink:title="basic string library">
<polygon fill="white" stroke="#666666" points="931.5,-74 893.5,-74 893.5,-55 931.5,-55 931.5,-74"/>
<text text-anchor="middle" x="912.5" y="-62" font-family="Helvetica,sans-Serif" font-size="10.00">str.h</text>
</a>
</g>
</g>
<!-- Node1&#45;&gt;Node19 -->
<g id="edge23_Node000001_Node000019" class="edge">
<title>Node1&#45;&gt;Node19</title>
<g id="a_edge23_Node000001_Node000019"><a xlink:title=" ">
<path fill="none" stroke="#63b8ff" d="M757.42,-111.06C787.88,-102.3 839.91,-87.25 884.5,-74 887.32,-73.16 890.31,-72.27 893.23,-71.38"/>
<polygon fill="#63b8ff" stroke="#63b8ff" points="756.24,-107.76 747.6,-113.88 758.18,-114.49 756.24,-107.76"/>
</a>
</g>
</g>
<!-- Node20 -->
<g id="Node000020" class="node">
<title>Node20</title>
<g id="a_Node000020"><a xlink:href="../../d2/d16/tf_8h.html" target="_top" xlink:title="transfer function">
<polygon fill="white" stroke="#666666" points="981.5,-74 949.5,-74 949.5,-55 981.5,-55 981.5,-74"/>
<text text-anchor="middle" x="965.5" y="-62" font-family="Helvetica,sans-Serif" font-size="10.00">tf.h</text>
</a>
</g>
</g>
<!-- Node1&#45;&gt;Node20 -->
<g id="edge24_Node000001_Node000020" class="edge">
<title>Node1&#45;&gt;Node20</title>
<g id="a_edge24_Node000001_Node000020"><a xlink:title=" ">
<path fill="none" stroke="#63b8ff" d="M757.59,-113.97C797.38,-106.83 875.47,-91.91 940.5,-74 943.42,-73.2 946.49,-72.24 949.45,-71.27"/>
<polygon fill="#63b8ff" stroke="#63b8ff" points="756.88,-110.54 747.65,-115.73 758.11,-117.43 756.88,-110.54"/>
</a>
</g>
</g>
<!-- Node21 -->
<g id="Node000021" class="node">
<title>Node21</title>
<g id="a_Node000021"><a xlink:href="../../dc/de1/trajbell_8h.html" target="_top" xlink:title="bell&#45;shaped velocity trajectory">
<polygon fill="white" stroke="#666666" points="1059.5,-74 999.5,-74 999.5,-55 1059.5,-55 1059.5,-74"/>
<text text-anchor="middle" x="1029.5" y="-62" font-family="Helvetica,sans-Serif" font-size="10.00">trajbell.h</text>
</a>
</g>
</g>
<!-- Node1&#45;&gt;Node21 -->
<g id="edge25_Node000001_Node000021" class="edge">
<title>Node1&#45;&gt;Node21</title>
<g id="a_edge25_Node000001_Node000021"><a xlink:title=" ">
<path fill="none" stroke="#63b8ff" d="M757.51,-114.42C804.26,-107.01 905.54,-90.55 990.5,-74 993.36,-73.44 996.33,-72.84 999.29,-72.22"/>
<polygon fill="#63b8ff" stroke="#63b8ff" points="756.94,-110.97 747.61,-115.99 758.03,-117.88 756.94,-110.97"/>
</a>
</g>
</g>
<!-- Node22 -->
<g id="Node000022" class="node">
<title>Node22</title>
<g id="a_Node000022"><a xlink:href="../../d2/dce/trajpoly3_8h.html" target="_top" xlink:title="cubic polynomial trajectory">
<polygon fill="white" stroke="#666666" points="1147,-74 1078,-74 1078,-55 1147,-55 1147,-74"/>
<text text-anchor="middle" x="1112.5" y="-62" font-family="Helvetica,sans-Serif" font-size="10.00">trajpoly3.h</text>
</a>
</g>
</g>
<!-- Node1&#45;&gt;Node22 -->
<g id="edge26_Node000001_Node000022" class="edge">
<title>Node1&#45;&gt;Node22</title>
<g id="a_edge26_Node000001_Node000022"><a xlink:title=" ">
<path fill="none" stroke="#63b8ff" d="M757.96,-115.55C814.9,-109.08 953.27,-92.72 1068.5,-74 1071.57,-73.5 1074.76,-72.95 1077.95,-72.38"/>
<polygon fill="#63b8ff" stroke="#63b8ff" points="757.23,-112.11 747.68,-116.71 758.01,-119.07 757.23,-112.11"/>
</a>
</g>
</g>
<!-- Node23 -->
<g id="Node000023" class="node">
<title>Node23</title>
<g id="a_Node000023"><a xlink:href="../../de/d02/trajpoly5_8h.html" target="_top" xlink:title="quintic polynomial trajectory">
<polygon fill="white" stroke="#666666" points="1234,-74 1165,-74 1165,-55 1234,-55 1234,-74"/>
<text text-anchor="middle" x="1199.5" y="-62" font-family="Helvetica,sans-Serif" font-size="10.00">trajpoly5.h</text>
</a>
</g>
</g>
<!-- Node1&#45;&gt;Node23 -->
<g id="edge27_Node000001_Node000023" class="edge">
<title>Node1&#45;&gt;Node23</title>
<g id="a_edge27_Node000001_Node000023"><a xlink:title=" ">
<path fill="none" stroke="#63b8ff" d="M757.86,-116.58C824.74,-111.52 1006.4,-96.65 1156.5,-74 1159.21,-73.59 1162.01,-73.13 1164.81,-72.64"/>
<polygon fill="#63b8ff" stroke="#63b8ff" points="757.49,-113.1 747.78,-117.33 758.01,-120.08 757.49,-113.1"/>
</a>
</g>
</g>
<!-- Node24 -->
<g id="Node000024" class="node">
<title>Node24</title>
<g id="a_Node000024"><a xlink:href="../../d4/d90/trajpoly7_8h.html" target="_top" xlink:title="hepta polynomial trajectory">
<polygon fill="white" stroke="#666666" points="1321,-74 1252,-74 1252,-55 1321,-55 1321,-74"/>
<text text-anchor="middle" x="1286.5" y="-62" font-family="Helvetica,sans-Serif" font-size="10.00">trajpoly7.h</text>
</a>
</g>
</g>
<!-- Node1&#45;&gt;Node24 -->
<g id="edge28_Node000001_Node000024" class="edge">
<title>Node1&#45;&gt;Node24</title>
<g id="a_edge28_Node000001_Node000024"><a xlink:title=" ">
<path fill="none" stroke="#63b8ff" d="M758.04,-117.21C834,-113.3 1058.68,-100.22 1243.5,-74 1246.21,-73.62 1249.01,-73.17 1251.82,-72.69"/>
<polygon fill="#63b8ff" stroke="#63b8ff" points="757.74,-113.72 747.93,-117.72 758.1,-120.71 757.74,-113.72"/>
</a>
</g>
</g>
<!-- Node25 -->
<g id="Node000025" class="node">
<title>Node25</title>
<g id="a_Node000025"><a xlink:href="../../de/d3b/trajtrap_8h.html" target="_top" xlink:title="trapezoidal velocity trajectory">
<polygon fill="white" stroke="#666666" points="1401.5,-74 1339.5,-74 1339.5,-55 1401.5,-55 1401.5,-74"/>
<text text-anchor="middle" x="1370.5" y="-62" font-family="Helvetica,sans-Serif" font-size="10.00">trajtrap.h</text>
</a>
</g>
</g>
<!-- Node1&#45;&gt;Node25 -->
<g id="edge29_Node000001_Node000025" class="edge">
<title>Node1&#45;&gt;Node25</title>
<g id="a_edge29_Node000001_Node000025"><a xlink:title=" ">
<path fill="none" stroke="#63b8ff" d="M757.98,-117.81C842.11,-115.34 1110.68,-105.37 1330.5,-74 1333.31,-73.6 1336.22,-73.12 1339.13,-72.59"/>
<polygon fill="#63b8ff" stroke="#63b8ff" points="757.68,-114.32 747.79,-118.1 757.88,-121.31 757.68,-114.32"/>
</a>
</g>
</g>
<!-- Node26 -->
<g id="Node000026" class="node">
<title>Node26</title>
<g id="a_Node000026"><a xlink:href="../../de/db7/utf_8h.html" target="_top" xlink:title="Unicode Transformation Format.">
<polygon fill="white" stroke="#666666" points="1457.5,-74 1419.5,-74 1419.5,-55 1457.5,-55 1457.5,-74"/>
<text text-anchor="middle" x="1438.5" y="-62" font-family="Helvetica,sans-Serif" font-size="10.00">utf.h</text>
</a>
</g>
</g>
<!-- Node1&#45;&gt;Node26 -->
<g id="edge30_Node000001_Node000026" class="edge">
<title>Node1&#45;&gt;Node26</title>
<g id="a_edge30_Node000001_Node000026"><a xlink:title=" ">
<path fill="none" stroke="#63b8ff" d="M757.98,-118.93C849.37,-119.96 1159.74,-119.65 1410.5,-74 1413.4,-73.47 1416.42,-72.75 1419.36,-71.94"/>
<polygon fill="#63b8ff" stroke="#63b8ff" points="757.75,-115.43 747.71,-118.8 757.66,-122.43 757.75,-115.43"/>
</a>
</g>
</g>
<!-- Node27 -->
<g id="Node000027" class="node">
<title>Node27</title>
<g id="a_Node000027"><a xlink:href="../../db/d65/vec_8h.html" target="_top" xlink:title="basic vector library">
<polygon fill="white" stroke="#666666" points="1519,-74 1476,-74 1476,-55 1519,-55 1519,-74"/>
<text text-anchor="middle" x="1497.5" y="-62" font-family="Helvetica,sans-Serif" font-size="10.00">vec.h</text>
</a>
</g>
</g>
<!-- Node1&#45;&gt;Node27 -->
<g id="edge31_Node000001_Node000027" class="edge">
<title>Node1&#45;&gt;Node27</title>
<g id="a_edge31_Node000001_Node000027"><a xlink:title=" ">
<path fill="none" stroke="#63b8ff" d="M757.9,-118.87C853.78,-119.78 1192.32,-119.39 1466.5,-74 1469.58,-73.49 1472.8,-72.8 1475.95,-72.02"/>
<polygon fill="#63b8ff" stroke="#63b8ff" points="757.71,-115.36 747.67,-118.75 757.63,-122.36 757.71,-115.36"/>
</a>
</g>
</g>
<!-- Node28 -->
<g id="Node000028" class="node">
<title>Node28</title>
<g id="a_Node000028"><a xlink:href="../../df/dfc/version_8h.html" target="_top" xlink:title="algorithm library version">
<polygon fill="white" stroke="#666666" points="1599.5,-74 1537.5,-74 1537.5,-55 1599.5,-55 1599.5,-74"/>
<text text-anchor="middle" x="1568.5" y="-62" font-family="Helvetica,sans-Serif" font-size="10.00">version.h</text>
</a>
</g>
</g>
<!-- Node1&#45;&gt;Node28 -->
<g id="edge32_Node000001_Node000028" class="edge">
<title>Node1&#45;&gt;Node28</title>
<g id="a_edge32_Node000001_Node000028"><a xlink:title=" ">
<path fill="none" stroke="#63b8ff" d="M757.73,-118.49C858.14,-118.16 1227.61,-114.13 1528.5,-74 1531.31,-73.62 1534.23,-73.16 1537.14,-72.64"/>
<polygon fill="#63b8ff" stroke="#63b8ff" points="757.58,-114.99 747.59,-118.52 757.59,-121.99 757.58,-114.99"/>
</a>
</g>
</g>
<!-- Node7 -->
<g id="Node000007" class="node">
<title>Node7</title>
<g id="a_Node000007"><a xlink:href="../../d7/d30/pid__fuzzy_8h.html" target="_top" xlink:title="fuzzy proportional integral derivative controller">
<polygon fill="white" stroke="#666666" points="323,-19 252,-19 252,0 323,0 323,-19"/>
<text text-anchor="middle" x="287.5" y="-7" font-family="Helvetica,sans-Serif" font-size="10.00">pid_fuzzy.h</text>
</a>
</g>
</g>
<!-- Node6&#45;&gt;Node7 -->
<g id="edge6_Node000006_Node000007" class="edge">
<title>Node6&#45;&gt;Node7</title>
<g id="a_edge6_Node000006_Node000007"><a xlink:title=" ">
<path fill="none" stroke="#63b8ff" d="M287.5,-44.66C287.5,-35.93 287.5,-25.99 287.5,-19.09"/>
<polygon fill="#63b8ff" stroke="#63b8ff" points="284,-44.75 287.5,-54.75 291,-44.75 284,-44.75"/>
</a>
</g>
</g>
<!-- Node9&#45;&gt;Node10 -->
<g id="edge9_Node000009_Node000010" class="edge">
<title>Node9&#45;&gt;Node10</title>
<g id="a_edge9_Node000009_Node000010"><a xlink:title=" ">
<path fill="none" stroke="#63b8ff" d="M607.3,-45.24C604.29,-36.37 600.81,-26.14 598.42,-19.09"/>
<polygon fill="#63b8ff" stroke="#63b8ff" points="604,-46.4 610.53,-54.75 610.63,-44.15 604,-46.4"/>
</a>
</g>
</g>
<!-- Node12&#45;&gt;Node8 -->
<g id="edge12_Node000012_Node000008" class="edge">
<title>Node12&#45;&gt;Node8</title>
<g id="a_edge12_Node000012_Node000008"><a xlink:title=" ">
<path fill="none" stroke="#63b8ff" d="M454.5,-44.66C454.5,-35.93 454.5,-25.99 454.5,-19.09"/>
<polygon fill="#63b8ff" stroke="#63b8ff" points="451,-44.75 454.5,-54.75 458,-44.75 451,-44.75"/>
</a>
</g>
</g>
<!-- Node12&#45;&gt;Node11 -->
<g id="edge13_Node000012_Node000011" class="edge">
<title>Node12&#45;&gt;Node11</title>
<g id="a_edge13_Node000012_Node000011"><a xlink:title=" ">
<path fill="none" stroke="#63b8ff" d="M472.77,-48.6C484.42,-39.11 499.1,-27.13 508.87,-19.17"/>
<polygon fill="#63b8ff" stroke="#63b8ff" points="470.48,-45.95 464.94,-54.98 474.91,-51.38 470.48,-45.95"/>
</a>
</g>
</g>
<!-- Node12&#45;&gt;Node12 -->
<g id="edge14_Node000012_Node000012" class="edge">
<title>Node12&#45;&gt;Node12</title>
<g id="a_edge14_Node000012_Node000012"><a xlink:title=" ">
<path fill="none" stroke="#63b8ff" d="M485.17,-74.45C492.54,-73.67 498,-70.36 498,-64.5 498,-56.17 486.95,-52.98 475.09,-54.93"/>
<polygon fill="#63b8ff" stroke="#63b8ff" points="485.21,-70.95 475.09,-74.07 484.95,-77.94 485.21,-70.95"/>
</a>
</g>
</g>
<!-- Node14&#45;&gt;Node7 -->
<g id="edge17_Node000014_Node000007" class="edge">
<title>Node14&#45;&gt;Node7</title>
<g id="a_edge17_Node000014_Node000007"><a xlink:title=" ">
<path fill="none" stroke="#63b8ff" d="M333.51,-48.6C322.04,-39.11 307.59,-27.13 297.97,-19.17"/>
<polygon fill="#63b8ff" stroke="#63b8ff" points="331.28,-51.3 341.22,-54.98 335.75,-45.91 331.28,-51.3"/>
</a>
</g>
</g>
<!-- Node15 -->
<g id="Node000015" class="node">
<title>Node15</title>
<g id="a_Node000015"><a xlink:href="../../d5/d25/pid__neuro_8h.html" target="_top" xlink:title="single neuron proportional integral derivative controller">
<polygon fill="white" stroke="#666666" points="415.5,-19 341.5,-19 341.5,0 415.5,0 415.5,-19"/>
<text text-anchor="middle" x="378.5" y="-7" font-family="Helvetica,sans-Serif" font-size="10.00">pid_neuro.h</text>
</a>
</g>
</g>
<!-- Node14&#45;&gt;Node15 -->
<g id="edge18_Node000014_Node000015" class="edge">
<title>Node14&#45;&gt;Node15</title>
<g id="a_edge18_Node000014_Node000015"><a xlink:title=" ">
<path fill="none" stroke="#63b8ff" d="M360.51,-45.82C365.09,-36.82 370.45,-26.29 374.12,-19.09"/>
<polygon fill="#63b8ff" stroke="#63b8ff" points="357.38,-44.25 355.96,-54.75 363.62,-47.43 357.38,-44.25"/>
</a>
</g>
</g>
</g>
</svg>

<g id="navigator" transform="translate(0 0)" fill="#404254">
  <rect fill="#f2f5e9" fill-opacity="0.5" stroke="#606060" stroke-width=".5" x="0" y="0" width="60" height="60"/>
  <use id="zoomplus" xlink:href="#zoomPlus" x="17" y="9" onmousedown="handleZoom(evt,'in')"/>
  <use id="zoomminus" xlink:href="#zoomMin" x="42" y="9" onmousedown="handleZoom(evt,'out')"/>
  <use id="reset" xlink:href="#resetDef" x="30" y="36" onmousedown="handleReset()"/>
   <use id="arrowup" xlink:href="#arrowUp" x="0" y="0" onmousedown="handlePan(0,-1)"/>
  <use id="arrowright" xlink:href="#arrowRight" x="0" y="0" onmousedown="handlePan(1,0)"/>
  <use id="arrowdown" xlink:href="#arrowDown" x="0" y="0" onmousedown="handlePan(0,1)"/>
  <use id="arrowleft" xlink:href="#arrowLeft" x="0" y="0" onmousedown="handlePan(-1,0)"/>
</g>
<svg viewBox="0 0 15 15" width="100%" height="30px" preserveAspectRatio="xMaxYMin meet">
 <g id="arrow_out" transform="scale(0.3 0.3)">
  <a xlink:href="a_8h__dep__incl_org.svg" target="_base">
   <rect id="button" ry="5" rx="5" y="6" x="6" height="38" width="38"
        fill="#f2f5e9" fill-opacity="0.5" stroke="#606060" stroke-width="1.0"/>
   <path id="arrow"
     d="M 11.500037,31.436501 C 11.940474,20.09759 22.043105,11.32322 32.158766,21.979434 L 37.068811,17.246167 C 37.068811,17.246167 37.088388,32 37.088388,32 L 22.160133,31.978069 C 22.160133,31.978069 26.997745,27.140456 26.997745,27.140456 C 18.528582,18.264221 13.291696,25.230495 11.500037,31.436501 z"
     style="fill:#404040;"/>
  </a>
 </g>
</svg>

<style type='text/css'>
<![CDATA[
[data-mouse-over-selected='false'] { opacity: 0.7; }
[data-mouse-over-selected='true']  { opacity: 1.0; }
]]>
</style>
<script type="application/ecmascript"><![CDATA[
document.addEventListener('DOMContentLoaded', (event) => {
  highlightEdges();
  highlightAdjacentNodes();
});
]]></script>
</svg>
