<?xml version="1.0" encoding="UTF-8" standalone="no"?>
<!DOCTYPE svg PUBLIC "-//W3C//DTD SVG 1.1//EN"
 "http://www.w3.org/Graphics/SVG/1.1/DTD/svg11.dtd">
<!-- Generated by graphviz version 2.43.0 (0)
 -->
<!-- Title: a.h Pages: 1 -->
<!--zoomable 137 -->

<svg id="main" version="1.1" xmlns="http://www.w3.org/2000/svg" xmlns:xlink="http://www.w3.org/1999/xlink" xml:space="preserve" onload="init(evt)">
<style type="text/css"><![CDATA[
.node, .edge {opacity: 0.7;}
.node.selected, .edge.selected {opacity: 1;}
.edge:hover path { stroke: red; }
.edge:hover polygon { stroke: red; fill: red; }
]]></style>

<defs>
  <circle id="rim" cx="0" cy="0" r="7"/>
  <circle id="rim2" cx="0" cy="0" r="3.5"/>
  <g id="zoomPlus">
    <use xlink:href="#rim" fill="#404040"><set attributeName="fill" to="#808080" begin="zoomplus.mouseover" end="zoomplus.mouseout"/></use>
    <path d="M-4,0h8M0,-4v8" fill="none" stroke="white" stroke-width="1.5" pointer-events="none"/>
  </g>
  <g id="zoomMin">
    <use xlink:href="#rim" fill="#404040"><set attributeName="fill" to="#808080" begin="zoomminus.mouseover" end="zoomminus.mouseout"/></use>
    <path d="M-4,0h8" fill="none" stroke="white" stroke-width="1.5" pointer-events="none"/>
  </g>
  <g id="arrowUp" transform="translate(30 24)">
    <use xlink:href="#rim"/>
    <path pointer-events="none" fill="none" stroke="white" stroke-width="1.5" d="M0,-3.0v7 M-2.5,-0.5L0,-3.0L2.5,-0.5"/>
  </g>
  <g id="arrowRight" transform="rotate(90) translate(36 -43)">
    <use xlink:href="#rim"/>
    <path pointer-events="none" fill="none" stroke="white" stroke-width="1.5" d="M0,-3.0v7 M-2.5,-0.5L0,-3.0L2.5,-0.5"/>
  </g>
  <g id="arrowDown" transform="rotate(180) translate(-30 -48)">
    <use xlink:href="#rim"/>
    <path pointer-events="none" fill="none" stroke="white" stroke-width="1.5" d="M0,-3.0v7 M-2.5,-0.5L0,-3.0L2.5,-0.5"/>
  </g>
  <g id="arrowLeft" transform="rotate(270) translate(-36 17)">
    <use xlink:href="#rim"/>
    <path pointer-events="none" fill="none" stroke="white" stroke-width="1.5" d="M0,-3.0v7 M-2.5,-0.5L0,-3.0L2.5,-0.5"/>
  </g>
  <g id="resetDef">
    <use xlink:href="#rim2" fill="#404040"><set attributeName="fill" to="#808080" begin="reset.mouseover" end="reset.mouseout"/></use>
  </g>
</defs>
<script type="application/ecmascript">
var viewWidth = 1607;
var viewHeight = 137;
var sectionId = 'dynsection-1';
</script>
<script type="application/ecmascript" xlink:href="../../svg.min.js"/>
<svg id="graph" class="graph">
<g id="viewport">
<title>a.h</title>
<!-- Node1 -->
<g id="Node000001" class="node">
<title>Node1</title>
<g id="a_Node000001"><a xlink:title="algorithm library">
<polygon fill="#999999" stroke="#666666" points="746.5,-129 714.5,-129 714.5,-110 746.5,-110 746.5,-129"/>
<text text-anchor="middle" x="730.5" y="-117" font-family="Helvetica,sans-Serif" font-size="10.00">a.h</text>
</a>
</g>
</g>
<!-- Node2 -->
<g id="Node000002" class="node">
<title>Node2</title>
<g id="a_Node000002"><a xlink:href="../../d3/d51/avl_8h.html" target="_top" xlink:title="Adelson&#45;Velsky and Landis self&#45;balancing binary search tree.">
<polygon fill="white" stroke="#666666" points="41,-74 0,-74 0,-55 41,-55 41,-74"/>
<text text-anchor="middle" x="20.5" y="-62" font-family="Helvetica,sans-Serif" font-size="10.00">avl.h</text>
</a>
</g>
</g>
<!-- Node1&#45;&gt;Node2 -->
<g id="edge1_Node000001_Node000002" class="edge">
<title>Node1&#45;&gt;Node2</title>
<g id="a_edge1_Node000001_Node000002"><a xlink:title=" ">
<path fill="none" stroke="#63b8ff" d="M704.24,-118.85C612.98,-119.62 301.47,-118.6 49.5,-74 46.81,-73.52 44.02,-72.89 41.28,-72.18"/>
<polygon fill="#63b8ff" stroke="#63b8ff" points="704.29,-122.35 714.26,-118.75 704.22,-115.35 704.29,-122.35"/>
</a>
</g>
</g>
<!-- Node3 -->
<g id="Node000003" class="node">
<title>Node3</title>
<g id="a_Node000003"><a xlink:href="../../d6/d6d/buf_8h.html" target="_top" xlink:title="basic buffer library">
<polygon fill="white" stroke="#666666" points="100,-74 59,-74 59,-55 100,-55 100,-74"/>
<text text-anchor="middle" x="79.5" y="-62" font-family="Helvetica,sans-Serif" font-size="10.00">buf.h</text>
</a>
</g>
</g>
<!-- Node1&#45;&gt;Node3 -->
<g id="edge2_Node000001_Node000003" class="edge">
<title>Node1&#45;&gt;Node3</title>
<g id="a_edge2_Node000001_Node000003"><a xlink:title=" ">
<path fill="none" stroke="#63b8ff" d="M703.79,-118.53C617.25,-118.21 336.94,-113.94 109.5,-74 106.41,-73.46 103.18,-72.72 100.03,-71.91"/>
<polygon fill="#63b8ff" stroke="#63b8ff" points="704.03,-122.03 714.04,-118.55 704.05,-115.03 704.03,-122.03"/>
</a>
</g>
</g>
<!-- Node4 -->
<g id="Node000004" class="node">
<title>Node4</title>
<g id="a_Node000004"><a xlink:href="../../d7/d3b/complex_8h.html" target="_top" xlink:title="complex number">
<polygon fill="white" stroke="#666666" points="186.5,-74 118.5,-74 118.5,-55 186.5,-55 186.5,-74"/>
<text text-anchor="middle" x="152.5" y="-62" font-family="Helvetica,sans-Serif" font-size="10.00">complex.h</text>
</a>
</g>
</g>
<!-- Node1&#45;&gt;Node4 -->
<g id="edge3_Node000001_Node000004" class="edge">
<title>Node1&#45;&gt;Node4</title>
<g id="a_edge3_Node000001_Node000004"><a xlink:title=" ">
<path fill="none" stroke="#63b8ff" d="M703.85,-117.34C625.54,-113.71 389.49,-101.15 195.5,-74 192.64,-73.6 189.68,-73.13 186.71,-72.62"/>
<polygon fill="#63b8ff" stroke="#63b8ff" points="704.08,-120.86 714.23,-117.81 704.4,-113.86 704.08,-120.86"/>
</a>
</g>
</g>
<!-- Node5 -->
<g id="Node000005" class="node">
<title>Node5</title>
<g id="a_Node000005"><a xlink:href="../../dc/de6/crc_8h.html" target="_top" xlink:title="Cyclic Redundancy Check.">
<polygon fill="white" stroke="#666666" points="244.5,-74 204.5,-74 204.5,-55 244.5,-55 244.5,-74"/>
<text text-anchor="middle" x="224.5" y="-62" font-family="Helvetica,sans-Serif" font-size="10.00">crc.h</text>
</a>
</g>
</g>
<!-- Node1&#45;&gt;Node5 -->
<g id="edge4_Node000001_Node000005" class="edge">
<title>Node1&#45;&gt;Node5</title>
<g id="a_edge4_Node000001_Node000005"><a xlink:title=" ">
<path fill="none" stroke="#63b8ff" d="M704.22,-117.82C631.77,-115.56 423.28,-106.49 253.5,-74 250.61,-73.45 247.6,-72.73 244.66,-71.95"/>
<polygon fill="#63b8ff" stroke="#63b8ff" points="704.18,-121.32 714.28,-118.11 704.39,-114.32 704.18,-121.32"/>
</a>
</g>
</g>
<!-- Node6 -->
<g id="Node000006" class="node">
<title>Node6</title>
<g id="a_Node000006"><a xlink:href="../../df/d2a/fuzzy_8h.html" target="_top" xlink:title="fuzzy operator">
<polygon fill="white" stroke="#666666" points="312.5,-74 262.5,-74 262.5,-55 312.5,-55 312.5,-74"/>
<text text-anchor="middle" x="287.5" y="-62" font-family="Helvetica,sans-Serif" font-size="10.00">fuzzy.h</text>
</a>
</g>
</g>
<!-- Node1&#45;&gt;Node6 -->
<g id="edge5_Node000001_Node000006" class="edge">
<title>Node1&#45;&gt;Node6</title>
<g id="a_edge5_Node000001_Node000006"><a xlink:title=" ">
<path fill="none" stroke="#63b8ff" d="M704.21,-116.89C639,-112.63 464.74,-99.57 321.5,-74 318.62,-73.49 315.63,-72.87 312.67,-72.2"/>
<polygon fill="#63b8ff" stroke="#63b8ff" points="704.2,-120.4 714.41,-117.54 704.65,-113.41 704.2,-120.4"/>
</a>
</g>
</g>
<!-- Node7 -->
<g id="Node000007" class="node">
<title>Node7</title>
<g id="a_Node000007"><a xlink:href="../../d1/df9/hpf_8h.html" target="_top" xlink:title="High Pass Filter.">
<polygon fill="white" stroke="#666666" points="461,-19 420,-19 420,0 461,0 461,-19"/>
<text text-anchor="middle" x="440.5" y="-7" font-family="Helvetica,sans-Serif" font-size="10.00">hpf.h</text>
</a>
</g>
</g>
<!-- Node1&#45;&gt;Node7 -->
<g id="edge6_Node000001_Node000007" class="edge">
<title>Node1&#45;&gt;Node7</title>
<g id="a_edge6_Node000001_Node000007"><a xlink:title=" ">
<path fill="none" stroke="#63b8ff" d="M704.3,-117.75C643.17,-115.46 493.53,-106.6 457.5,-74 441.93,-59.91 439.96,-33.27 440.08,-19.4"/>
<polygon fill="#63b8ff" stroke="#63b8ff" points="704.2,-121.25 714.31,-118.09 704.44,-114.25 704.2,-121.25"/>
</a>
</g>
</g>
<!-- Node8 -->
<g id="Node000008" class="node">
<title>Node8</title>
<g id="a_Node000008"><a xlink:href="../../da/d23/list_8h.html" target="_top" xlink:title="circular doubly linked list implementation">
<polygon fill="white" stroke="#666666" points="372,-74 331,-74 331,-55 372,-55 372,-74"/>
<text text-anchor="middle" x="351.5" y="-62" font-family="Helvetica,sans-Serif" font-size="10.00">list.h</text>
</a>
</g>
</g>
<!-- Node1&#45;&gt;Node8 -->
<g id="edge7_Node000001_Node000008" class="edge">
<title>Node1&#45;&gt;Node8</title>
<g id="a_edge7_Node000001_Node000008"><a xlink:title=" ">
<path fill="none" stroke="#63b8ff" d="M704.19,-116.09C646.4,-110.58 504.15,-95.83 386.5,-74 381.83,-73.13 376.84,-72.03 372.15,-70.91"/>
<polygon fill="#63b8ff" stroke="#63b8ff" points="704,-119.59 714.28,-117.04 704.65,-112.62 704,-119.59"/>
</a>
</g>
</g>
<!-- Node9 -->
<g id="Node000009" class="node">
<title>Node9</title>
<g id="a_Node000009"><a xlink:href="../../d9/dc9/que_8h.html" target="_top" xlink:title="basic queue library">
<polygon fill="white" stroke="#666666" points="388.5,-19 344.5,-19 344.5,0 388.5,0 388.5,-19"/>
<text text-anchor="middle" x="366.5" y="-7" font-family="Helvetica,sans-Serif" font-size="10.00">que.h</text>
</a>
</g>
</g>
<!-- Node1&#45;&gt;Node9 -->
<g id="edge19_Node000001_Node000009" class="edge">
<title>Node1&#45;&gt;Node9</title>
<g id="a_edge19_Node000001_Node000009"><a xlink:title=" ">
<path fill="none" stroke="#63b8ff" d="M704.27,-119.05C652.02,-119.17 532.23,-114.58 442.5,-74 413.36,-60.82 386.44,-33.27 373.9,-19.19"/>
<polygon fill="#63b8ff" stroke="#63b8ff" points="704.39,-122.55 714.36,-118.96 704.33,-115.55 704.39,-122.55"/>
</a>
</g>
</g>
<!-- Node10 -->
<g id="Node000010" class="node">
<title>Node10</title>
<g id="a_Node000010"><a xlink:href="../../db/d80/lpf_8h.html" target="_top" xlink:title="Low Pass Filter.">
<polygon fill="white" stroke="#666666" points="551.5,-19 513.5,-19 513.5,0 551.5,0 551.5,-19"/>
<text text-anchor="middle" x="532.5" y="-7" font-family="Helvetica,sans-Serif" font-size="10.00">lpf.h</text>
</a>
</g>
</g>
<!-- Node1&#45;&gt;Node10 -->
<g id="edge9_Node000001_Node000010" class="edge">
<title>Node1&#45;&gt;Node10</title>
<g id="a_edge9_Node000001_Node000010"><a xlink:title=" ">
<path fill="none" stroke="#63b8ff" d="M704.08,-115.32C672.99,-110.55 620.86,-99.23 583.5,-74 561.94,-59.44 545.03,-33 537.22,-19.29"/>
<polygon fill="#63b8ff" stroke="#63b8ff" points="703.75,-118.81 714.15,-116.75 704.74,-111.88 703.75,-118.81"/>
</a>
</g>
</g>
<!-- Node11 -->
<g id="Node000011" class="node">
<title>Node11</title>
<g id="a_Node000011"><a xlink:href="../../df/db1/math_8h.html" target="_top" xlink:title="mathematical algorithm library">
<polygon fill="white" stroke="#666666" points="518,-74 467,-74 467,-55 518,-55 518,-74"/>
<text text-anchor="middle" x="492.5" y="-62" font-family="Helvetica,sans-Serif" font-size="10.00">math.h</text>
</a>
</g>
</g>
<!-- Node1&#45;&gt;Node11 -->
<g id="edge10_Node000001_Node000011" class="edge">
<title>Node1&#45;&gt;Node11</title>
<g id="a_edge10_Node000001_Node000011"><a xlink:title=" ">
<path fill="none" stroke="#63b8ff" d="M704.33,-112.67C658.33,-102.43 563.57,-81.33 518.03,-71.19"/>
<polygon fill="#63b8ff" stroke="#63b8ff" points="703.62,-116.1 714.14,-114.86 705.14,-109.27 703.62,-116.1"/>
</a>
</g>
</g>
<!-- Node12 -->
<g id="Node000012" class="node">
<title>Node12</title>
<g id="a_Node000012"><a xlink:href="../../d6/dea/mf_8h.html" target="_top" xlink:title="membership function">
<polygon fill="white" stroke="#666666" points="630.5,-74 592.5,-74 592.5,-55 630.5,-55 630.5,-74"/>
<text text-anchor="middle" x="611.5" y="-62" font-family="Helvetica,sans-Serif" font-size="10.00">mf.h</text>
</a>
</g>
</g>
<!-- Node1&#45;&gt;Node12 -->
<g id="edge14_Node000001_Node000012" class="edge">
<title>Node1&#45;&gt;Node12</title>
<g id="a_edge14_Node000001_Node000012"><a xlink:title=" ">
<path fill="none" stroke="#63b8ff" d="M705.28,-107.27C683.05,-97.37 651.11,-83.14 630.84,-74.11"/>
<polygon fill="#63b8ff" stroke="#63b8ff" points="703.89,-110.48 714.45,-111.35 706.74,-104.09 703.89,-110.48"/>
</a>
</g>
</g>
<!-- Node13 -->
<g id="Node000013" class="node">
<title>Node13</title>
<g id="a_Node000013"><a xlink:href="../../da/df0/pid_8h.html" target="_top" xlink:title="proportional integral derivative controller">
<polygon fill="white" stroke="#666666" points="690,-74 649,-74 649,-55 690,-55 690,-74"/>
<text text-anchor="middle" x="669.5" y="-62" font-family="Helvetica,sans-Serif" font-size="10.00">pid.h</text>
</a>
</g>
</g>
<!-- Node1&#45;&gt;Node13 -->
<g id="edge15_Node000001_Node000013" class="edge">
<title>Node1&#45;&gt;Node13</title>
<g id="a_edge15_Node000001_Node000013"><a xlink:title=" ">
<path fill="none" stroke="#63b8ff" d="M713.03,-103.32C702.16,-93.87 688.56,-82.06 679.48,-74.17"/>
<polygon fill="#63b8ff" stroke="#63b8ff" points="710.85,-106.07 720.7,-109.98 715.45,-100.78 710.85,-106.07"/>
</a>
</g>
</g>
<!-- Node16 -->
<g id="Node000016" class="node">
<title>Node16</title>
<g id="a_Node000016"><a xlink:href="../../db/d57/poly_8h.html" target="_top" xlink:title="polynomial">
<polygon fill="white" stroke="#666666" points="753,-74 708,-74 708,-55 753,-55 753,-74"/>
<text text-anchor="middle" x="730.5" y="-62" font-family="Helvetica,sans-Serif" font-size="10.00">poly.h</text>
</a>
</g>
</g>
<!-- Node1&#45;&gt;Node16 -->
<g id="edge18_Node000001_Node000016" class="edge">
<title>Node1&#45;&gt;Node16</title>
<g id="a_edge18_Node000001_Node000016"><a xlink:title=" ">
<path fill="none" stroke="#63b8ff" d="M730.5,-99.66C730.5,-90.93 730.5,-80.99 730.5,-74.09"/>
<polygon fill="#63b8ff" stroke="#63b8ff" points="727,-99.75 730.5,-109.75 734,-99.75 727,-99.75"/>
</a>
</g>
</g>
<!-- Node17 -->
<g id="Node000017" class="node">
<title>Node17</title>
<g id="a_Node000017"><a xlink:href="../../d6/d1b/rbt_8h.html" target="_top" xlink:title="red–black self&#45;balancing binary search tree">
<polygon fill="white" stroke="#666666" points="810,-74 771,-74 771,-55 810,-55 810,-74"/>
<text text-anchor="middle" x="790.5" y="-62" font-family="Helvetica,sans-Serif" font-size="10.00">rbt.h</text>
</a>
</g>
</g>
<!-- Node1&#45;&gt;Node17 -->
<g id="edge20_Node000001_Node000017" class="edge">
<title>Node1&#45;&gt;Node17</title>
<g id="a_edge20_Node000001_Node000017"><a xlink:title=" ">
<path fill="none" stroke="#63b8ff" d="M747.68,-103.32C758.38,-93.87 771.76,-82.06 780.68,-74.17"/>
<polygon fill="#63b8ff" stroke="#63b8ff" points="745.32,-100.74 740.14,-109.98 749.95,-105.99 745.32,-100.74"/>
</a>
</g>
</g>
<!-- Node18 -->
<g id="Node000018" class="node">
<title>Node18</title>
<g id="a_Node000018"><a xlink:href="../../d1/dad/slist_8h.html" target="_top" xlink:title="singly linked list implementation">
<polygon fill="white" stroke="#666666" points="874.5,-74 828.5,-74 828.5,-55 874.5,-55 874.5,-74"/>
<text text-anchor="middle" x="851.5" y="-62" font-family="Helvetica,sans-Serif" font-size="10.00">slist.h</text>
</a>
</g>
</g>
<!-- Node1&#45;&gt;Node18 -->
<g id="edge21_Node000001_Node000018" class="edge">
<title>Node1&#45;&gt;Node18</title>
<g id="a_edge21_Node000001_Node000018"><a xlink:title=" ">
<path fill="none" stroke="#63b8ff" d="M756.14,-107.27C778.75,-97.37 811.23,-83.14 831.84,-74.11"/>
<polygon fill="#63b8ff" stroke="#63b8ff" points="754.57,-104.13 746.82,-111.35 757.38,-110.55 754.57,-104.13"/>
</a>
</g>
</g>
<!-- Node19 -->
<g id="Node000019" class="node">
<title>Node19</title>
<g id="a_Node000019"><a xlink:href="../../d1/d93/str_8h.html" target="_top" xlink:title="basic string library">
<polygon fill="white" stroke="#666666" points="930.5,-74 892.5,-74 892.5,-55 930.5,-55 930.5,-74"/>
<text text-anchor="middle" x="911.5" y="-62" font-family="Helvetica,sans-Serif" font-size="10.00">str.h</text>
</a>
</g>
</g>
<!-- Node1&#45;&gt;Node19 -->
<g id="edge22_Node000001_Node000019" class="edge">
<title>Node1&#45;&gt;Node19</title>
<g id="a_edge22_Node000001_Node000019"><a xlink:title=" ">
<path fill="none" stroke="#63b8ff" d="M756.42,-111.06C786.88,-102.3 838.91,-87.25 883.5,-74 886.32,-73.16 889.31,-72.27 892.23,-71.38"/>
<polygon fill="#63b8ff" stroke="#63b8ff" points="755.24,-107.76 746.6,-113.88 757.18,-114.49 755.24,-107.76"/>
</a>
</g>
</g>
<!-- Node20 -->
<g id="Node000020" class="node">
<title>Node20</title>
<g id="a_Node000020"><a xlink:href="../../d2/d16/tf_8h.html" target="_top" xlink:title="transfer function">
<polygon fill="white" stroke="#666666" points="980.5,-74 948.5,-74 948.5,-55 980.5,-55 980.5,-74"/>
<text text-anchor="middle" x="964.5" y="-62" font-family="Helvetica,sans-Serif" font-size="10.00">tf.h</text>
</a>
</g>
</g>
<!-- Node1&#45;&gt;Node20 -->
<g id="edge23_Node000001_Node000020" class="edge">
<title>Node1&#45;&gt;Node20</title>
<g id="a_edge23_Node000001_Node000020"><a xlink:title=" ">
<path fill="none" stroke="#63b8ff" d="M756.59,-113.97C796.38,-106.83 874.47,-91.91 939.5,-74 942.42,-73.2 945.49,-72.24 948.45,-71.27"/>
<polygon fill="#63b8ff" stroke="#63b8ff" points="755.88,-110.54 746.65,-115.73 757.11,-117.43 755.88,-110.54"/>
</a>
</g>
</g>
<!-- Node21 -->
<g id="Node000021" class="node">
<title>Node21</title>
<g id="a_Node000021"><a xlink:href="../../dc/de1/trajbell_8h.html" target="_top" xlink:title="bell&#45;shaped velocity trajectory">
<polygon fill="white" stroke="#666666" points="1058.5,-74 998.5,-74 998.5,-55 1058.5,-55 1058.5,-74"/>
<text text-anchor="middle" x="1028.5" y="-62" font-family="Helvetica,sans-Serif" font-size="10.00">trajbell.h</text>
</a>
</g>
</g>
<!-- Node1&#45;&gt;Node21 -->
<g id="edge24_Node000001_Node000021" class="edge">
<title>Node1&#45;&gt;Node21</title>
<g id="a_edge24_Node000001_Node000021"><a xlink:title=" ">
<path fill="none" stroke="#63b8ff" d="M756.51,-114.42C803.26,-107.01 904.54,-90.55 989.5,-74 992.36,-73.44 995.33,-72.84 998.29,-72.22"/>
<polygon fill="#63b8ff" stroke="#63b8ff" points="755.94,-110.97 746.61,-115.99 757.03,-117.88 755.94,-110.97"/>
</a>
</g>
</g>
<!-- Node22 -->
<g id="Node000022" class="node">
<title>Node22</title>
<g id="a_Node000022"><a xlink:href="../../d2/dce/trajpoly3_8h.html" target="_top" xlink:title="cubic polynomial trajectory">
<polygon fill="white" stroke="#666666" points="1146,-74 1077,-74 1077,-55 1146,-55 1146,-74"/>
<text text-anchor="middle" x="1111.5" y="-62" font-family="Helvetica,sans-Serif" font-size="10.00">trajpoly3.h</text>
</a>
</g>
</g>
<!-- Node1&#45;&gt;Node22 -->
<g id="edge25_Node000001_Node000022" class="edge">
<title>Node1&#45;&gt;Node22</title>
<g id="a_edge25_Node000001_Node000022"><a xlink:title=" ">
<path fill="none" stroke="#63b8ff" d="M756.96,-115.55C813.9,-109.08 952.27,-92.72 1067.5,-74 1070.57,-73.5 1073.76,-72.95 1076.95,-72.38"/>
<polygon fill="#63b8ff" stroke="#63b8ff" points="756.23,-112.11 746.68,-116.71 757.01,-119.07 756.23,-112.11"/>
</a>
</g>
</g>
<!-- Node23 -->
<g id="Node000023" class="node">
<title>Node23</title>
<g id="a_Node000023"><a xlink:href="../../de/d02/trajpoly5_8h.html" target="_top" xlink:title="quintic polynomial trajectory">
<polygon fill="white" stroke="#666666" points="1233,-74 1164,-74 1164,-55 1233,-55 1233,-74"/>
<text text-anchor="middle" x="1198.5" y="-62" font-family="Helvetica,sans-Serif" font-size="10.00">trajpoly5.h</text>
</a>
</g>
</g>
<!-- Node1&#45;&gt;Node23 -->
<g id="edge26_Node000001_Node000023" class="edge">
<title>Node1&#45;&gt;Node23</title>
<g id="a_edge26_Node000001_Node000023"><a xlink:title=" ">
<path fill="none" stroke="#63b8ff" d="M756.86,-116.58C823.74,-111.52 1005.4,-96.65 1155.5,-74 1158.21,-73.59 1161.01,-73.13 1163.81,-72.64"/>
<polygon fill="#63b8ff" stroke="#63b8ff" points="756.49,-113.1 746.78,-117.33 757.01,-120.08 756.49,-113.1"/>
</a>
</g>
</g>
<!-- Node24 -->
<g id="Node000024" class="node">
<title>Node24</title>
<g id="a_Node000024"><a xlink:href="../../d4/d90/trajpoly7_8h.html" target="_top" xlink:title="hepta polynomial trajectory">
<polygon fill="white" stroke="#666666" points="1320,-74 1251,-74 1251,-55 1320,-55 1320,-74"/>
<text text-anchor="middle" x="1285.5" y="-62" font-family="Helvetica,sans-Serif" font-size="10.00">trajpoly7.h</text>
</a>
</g>
</g>
<!-- Node1&#45;&gt;Node24 -->
<g id="edge27_Node000001_Node000024" class="edge">
<title>Node1&#45;&gt;Node24</title>
<g id="a_edge27_Node000001_Node000024"><a xlink:title=" ">
<path fill="none" stroke="#63b8ff" d="M757.04,-117.21C833,-113.3 1057.68,-100.22 1242.5,-74 1245.21,-73.62 1248.01,-73.17 1250.82,-72.69"/>
<polygon fill="#63b8ff" stroke="#63b8ff" points="756.74,-113.72 746.93,-117.72 757.1,-120.71 756.74,-113.72"/>
</a>
</g>
</g>
<!-- Node25 -->
<g id="Node000025" class="node">
<title>Node25</title>
<g id="a_Node000025"><a xlink:href="../../de/d3b/trajtrap_8h.html" target="_top" xlink:title="trapezoidal velocity trajectory">
<polygon fill="white" stroke="#666666" points="1400.5,-74 1338.5,-74 1338.5,-55 1400.5,-55 1400.5,-74"/>
<text text-anchor="middle" x="1369.5" y="-62" font-family="Helvetica,sans-Serif" font-size="10.00">trajtrap.h</text>
</a>
</g>
</g>
<!-- Node1&#45;&gt;Node25 -->
<g id="edge28_Node000001_Node000025" class="edge">
<title>Node1&#45;&gt;Node25</title>
<g id="a_edge28_Node000001_Node000025"><a xlink:title=" ">
<path fill="none" stroke="#63b8ff" d="M756.98,-117.81C841.11,-115.34 1109.68,-105.37 1329.5,-74 1332.31,-73.6 1335.22,-73.12 1338.13,-72.59"/>
<polygon fill="#63b8ff" stroke="#63b8ff" points="756.68,-114.32 746.79,-118.1 756.88,-121.31 756.68,-114.32"/>
</a>
</g>
</g>
<!-- Node26 -->
<g id="Node000026" class="node">
<title>Node26</title>
<g id="a_Node000026"><a xlink:href="../../de/db7/utf_8h.html" target="_top" xlink:title="Unicode Transformation Format.">
<polygon fill="white" stroke="#666666" points="1456.5,-74 1418.5,-74 1418.5,-55 1456.5,-55 1456.5,-74"/>
<text text-anchor="middle" x="1437.5" y="-62" font-family="Helvetica,sans-Serif" font-size="10.00">utf.h</text>
</a>
</g>
</g>
<!-- Node1&#45;&gt;Node26 -->
<g id="edge29_Node000001_Node000026" class="edge">
<title>Node1&#45;&gt;Node26</title>
<g id="a_edge29_Node000001_Node000026"><a xlink:title=" ">
<path fill="none" stroke="#63b8ff" d="M756.98,-118.93C848.37,-119.96 1158.74,-119.65 1409.5,-74 1412.4,-73.47 1415.42,-72.75 1418.36,-71.94"/>
<polygon fill="#63b8ff" stroke="#63b8ff" points="756.75,-115.43 746.71,-118.8 756.66,-122.43 756.75,-115.43"/>
</a>
</g>
</g>
<!-- Node27 -->
<g id="Node000027" class="node">
<title>Node27</title>
<g id="a_Node000027"><a xlink:href="../../db/d65/vec_8h.html" target="_top" xlink:title="basic vector library">
<polygon fill="white" stroke="#666666" points="1518,-74 1475,-74 1475,-55 1518,-55 1518,-74"/>
<text text-anchor="middle" x="1496.5" y="-62" font-family="Helvetica,sans-Serif" font-size="10.00">vec.h</text>
</a>
</g>
</g>
<!-- Node1&#45;&gt;Node27 -->
<g id="edge30_Node000001_Node000027" class="edge">
<title>Node1&#45;&gt;Node27</title>
<g id="a_edge30_Node000001_Node000027"><a xlink:title=" ">
<path fill="none" stroke="#63b8ff" d="M756.9,-118.87C852.78,-119.78 1191.32,-119.39 1465.5,-74 1468.58,-73.49 1471.8,-72.8 1474.95,-72.02"/>
<polygon fill="#63b8ff" stroke="#63b8ff" points="756.71,-115.36 746.67,-118.75 756.63,-122.36 756.71,-115.36"/>
</a>
</g>
</g>
<!-- Node28 -->
<g id="Node000028" class="node">
<title>Node28</title>
<g id="a_Node000028"><a xlink:href="../../df/dfc/version_8h.html" target="_top" xlink:title="algorithm library version">
<polygon fill="white" stroke="#666666" points="1598.5,-74 1536.5,-74 1536.5,-55 1598.5,-55 1598.5,-74"/>
<text text-anchor="middle" x="1567.5" y="-62" font-family="Helvetica,sans-Serif" font-size="10.00">version.h</text>
</a>
</g>
</g>
<!-- Node1&#45;&gt;Node28 -->
<g id="edge31_Node000001_Node000028" class="edge">
<title>Node1&#45;&gt;Node28</title>
<g id="a_edge31_Node000001_Node000028"><a xlink:title=" ">
<path fill="none" stroke="#63b8ff" d="M756.73,-118.49C857.14,-118.16 1226.61,-114.13 1527.5,-74 1530.31,-73.62 1533.23,-73.16 1536.14,-72.64"/>
<polygon fill="#63b8ff" stroke="#63b8ff" points="756.58,-114.99 746.59,-118.52 756.59,-121.99 756.58,-114.99"/>
</a>
</g>
</g>
<!-- Node8&#45;&gt;Node9 -->
<g id="edge8_Node000008_Node000009" class="edge">
<title>Node8&#45;&gt;Node9</title>
<g id="a_edge8_Node000008_Node000009"><a xlink:title=" ">
<path fill="none" stroke="#63b8ff" d="M356.75,-44.95C359.24,-36.15 362.1,-26.06 364.07,-19.09"/>
<polygon fill="#63b8ff" stroke="#63b8ff" points="353.33,-44.17 353.98,-54.75 360.07,-46.08 353.33,-44.17"/>
</a>
</g>
</g>
<!-- Node11&#45;&gt;Node7 -->
<g id="edge11_Node000011_Node000007" class="edge">
<title>Node11&#45;&gt;Node7</title>
<g id="a_edge11_Node000011_Node000007"><a xlink:title=" ">
<path fill="none" stroke="#63b8ff" d="M476.82,-47.52C467.66,-38.18 456.45,-26.75 448.93,-19.09"/>
<polygon fill="#63b8ff" stroke="#63b8ff" points="474.41,-50.06 483.91,-54.75 479.41,-45.16 474.41,-50.06"/>
</a>
</g>
</g>
<!-- Node11&#45;&gt;Node10 -->
<g id="edge12_Node000011_Node000010" class="edge">
<title>Node11&#45;&gt;Node10</title>
<g id="a_edge12_Node000011_Node000010"><a xlink:title=" ">
<path fill="none" stroke="#63b8ff" d="M505.2,-46.67C512.13,-37.5 520.41,-26.52 526.02,-19.09"/>
<polygon fill="#63b8ff" stroke="#63b8ff" points="502.34,-44.66 499.11,-54.75 507.92,-48.87 502.34,-44.66"/>
</a>
</g>
</g>
<!-- Node11&#45;&gt;Node11 -->
<g id="edge13_Node000011_Node000011" class="edge">
<title>Node11&#45;&gt;Node11</title>
<g id="a_edge13_Node000011_Node000011"><a xlink:title=" ">
<path fill="none" stroke="#63b8ff" d="M523.17,-74.45C530.54,-73.67 536,-70.36 536,-64.5 536,-56.17 524.95,-52.98 513.09,-54.93"/>
<polygon fill="#63b8ff" stroke="#63b8ff" points="523.21,-70.95 513.09,-74.07 522.95,-77.94 523.21,-70.95"/>
</a>
</g>
</g>
<!-- Node14 -->
<g id="Node000014" class="node">
<title>Node14</title>
<g id="a_Node000014"><a xlink:href="../../d7/d30/pid__fuzzy_8h.html" target="_top" xlink:title="fuzzy proportional integral derivative controller">
<polygon fill="white" stroke="#666666" points="737,-19 666,-19 666,0 737,0 737,-19"/>
<text text-anchor="middle" x="701.5" y="-7" font-family="Helvetica,sans-Serif" font-size="10.00">pid_fuzzy.h</text>
</a>
</g>
</g>
<!-- Node13&#45;&gt;Node14 -->
<g id="edge16_Node000013_Node000014" class="edge">
<title>Node13&#45;&gt;Node14</title>
<g id="a_edge16_Node000013_Node000014"><a xlink:title=" ">
<path fill="none" stroke="#63b8ff" d="M680,-46.1C685.47,-37.04 691.92,-26.37 696.31,-19.09"/>
<polygon fill="#63b8ff" stroke="#63b8ff" points="676.96,-44.38 674.78,-54.75 682.95,-48 676.96,-44.38"/>
</a>
</g>
</g>
<!-- Node15 -->
<g id="Node000015" class="node">
<title>Node15</title>
<g id="a_Node000015"><a xlink:href="../../d5/d25/pid__neuro_8h.html" target="_top" xlink:title="single neuron proportional integral derivative controller">
<polygon fill="white" stroke="#666666" points="647.5,-19 573.5,-19 573.5,0 647.5,0 647.5,-19"/>
<text text-anchor="middle" x="610.5" y="-7" font-family="Helvetica,sans-Serif" font-size="10.00">pid_neuro.h</text>
</a>
</g>
</g>
<!-- Node13&#45;&gt;Node15 -->
<g id="edge17_Node000013_Node000015" class="edge">
<title>Node13&#45;&gt;Node15</title>
<g id="a_edge17_Node000013_Node000015"><a xlink:title=" ">
<path fill="none" stroke="#63b8ff" d="M652.3,-48.04C641.83,-38.64 628.85,-26.98 620.15,-19.17"/>
<polygon fill="#63b8ff" stroke="#63b8ff" points="650.24,-50.91 660.02,-54.98 654.92,-45.7 650.24,-50.91"/>
</a>
</g>
</g>
</g>
</svg>

<g id="navigator" transform="translate(0 0)" fill="#404254">
  <rect fill="#f2f5e9" fill-opacity="0.5" stroke="#606060" stroke-width=".5" x="0" y="0" width="60" height="60"/>
  <use id="zoomplus" xlink:href="#zoomPlus" x="17" y="9" onmousedown="handleZoom(evt,'in')"/>
  <use id="zoomminus" xlink:href="#zoomMin" x="42" y="9" onmousedown="handleZoom(evt,'out')"/>
  <use id="reset" xlink:href="#resetDef" x="30" y="36" onmousedown="handleReset()"/>
   <use id="arrowup" xlink:href="#arrowUp" x="0" y="0" onmousedown="handlePan(0,-1)"/>
  <use id="arrowright" xlink:href="#arrowRight" x="0" y="0" onmousedown="handlePan(1,0)"/>
  <use id="arrowdown" xlink:href="#arrowDown" x="0" y="0" onmousedown="handlePan(0,1)"/>
  <use id="arrowleft" xlink:href="#arrowLeft" x="0" y="0" onmousedown="handlePan(-1,0)"/>
</g>
<svg viewBox="0 0 15 15" width="100%" height="30px" preserveAspectRatio="xMaxYMin meet">
 <g id="arrow_out" transform="scale(0.3 0.3)">
  <a xlink:href="a_8h__dep__incl_org.svg" target="_base">
   <rect id="button" ry="5" rx="5" y="6" x="6" height="38" width="38"
        fill="#f2f5e9" fill-opacity="0.5" stroke="#606060" stroke-width="1.0"/>
   <path id="arrow"
     d="M 11.500037,31.436501 C 11.940474,20.09759 22.043105,11.32322 32.158766,21.979434 L 37.068811,17.246167 C 37.068811,17.246167 37.088388,32 37.088388,32 L 22.160133,31.978069 C 22.160133,31.978069 26.997745,27.140456 26.997745,27.140456 C 18.528582,18.264221 13.291696,25.230495 11.500037,31.436501 z"
     style="fill:#404040;"/>
  </a>
 </g>
</svg>

<style type='text/css'>
<![CDATA[
[data-mouse-over-selected='false'] { opacity: 0.7; }
[data-mouse-over-selected='true']  { opacity: 1.0; }
]]>
</style>
<script type="application/ecmascript"><![CDATA[
document.addEventListener('DOMContentLoaded', (event) => {
  highlightEdges();
  highlightAdjacentNodes();
});
]]></script>
</svg>
