<?xml version="1.0" encoding="UTF-8" standalone="no"?>
<!DOCTYPE svg PUBLIC "-//W3C//DTD SVG 1.1//EN"
 "http://www.w3.org/Graphics/SVG/1.1/DTD/svg11.dtd">
<!-- Generated by graphviz version 2.43.0 (0)
 -->
<!-- Title: a.h Pages: 1 -->
<svg width="1256pt" height="137pt"
 viewBox="0.00 0.00 1255.50 137.00" xmlns="http://www.w3.org/2000/svg" xmlns:xlink="http://www.w3.org/1999/xlink">
<g id="graph0" class="graph" transform="scale(1 1) rotate(0) translate(4 133)">
<title>a.h</title>
<!-- Node1 -->
<g id="Node000001" class="node">
<title>Node1</title>
<g id="a_Node000001"><a xlink:title="algorithm library">
<polygon fill="#999999" stroke="#666666" points="626.5,-129 594.5,-129 594.5,-110 626.5,-110 626.5,-129"/>
<text text-anchor="middle" x="610.5" y="-117" font-family="Helvetica,sans-Serif" font-size="10.00">a.h</text>
</a>
</g>
</g>
<!-- Node2 -->
<g id="Node000002" class="node">
<title>Node2</title>
<g id="a_Node000002"><a xlink:href="../../d3/d51/avl_8h.html" target="_top" xlink:title="Adelson&#45;Velsky and Landis self&#45;balancing binary search tree.">
<polygon fill="white" stroke="#666666" points="41,-74 0,-74 0,-55 41,-55 41,-74"/>
<text text-anchor="middle" x="20.5" y="-62" font-family="Helvetica,sans-Serif" font-size="10.00">avl.h</text>
</a>
</g>
</g>
<!-- Node1&#45;&gt;Node2 -->
<g id="edge1_Node000001_Node000002" class="edge">
<title>Node1&#45;&gt;Node2</title>
<g id="a_edge1_Node000001_Node000002"><a xlink:title=" ">
<path fill="none" stroke="#63b8ff" d="M584.02,-118.33C503.19,-117.39 252.77,-111.44 49.5,-74 46.82,-73.51 44.03,-72.86 41.29,-72.15"/>
<polygon fill="#63b8ff" stroke="#63b8ff" points="584.24,-121.83 594.28,-118.43 584.31,-114.83 584.24,-121.83"/>
</a>
</g>
</g>
<!-- Node3 -->
<g id="Node000003" class="node">
<title>Node3</title>
<g id="a_Node000003"><a xlink:href="../../d6/d6d/buf_8h.html" target="_top" xlink:title="basic buffer library">
<polygon fill="white" stroke="#666666" points="100,-74 59,-74 59,-55 100,-55 100,-74"/>
<text text-anchor="middle" x="79.5" y="-62" font-family="Helvetica,sans-Serif" font-size="10.00">buf.h</text>
</a>
</g>
</g>
<!-- Node1&#45;&gt;Node3 -->
<g id="edge2_Node000001_Node000003" class="edge">
<title>Node1&#45;&gt;Node3</title>
<g id="a_edge2_Node000001_Node000003"><a xlink:title=" ">
<path fill="none" stroke="#63b8ff" d="M583.95,-117.89C508.87,-115.79 288.79,-107.06 109.5,-74 106.41,-73.43 103.18,-72.68 100.04,-71.87"/>
<polygon fill="#63b8ff" stroke="#63b8ff" points="584.26,-121.4 594.35,-118.16 584.44,-114.4 584.26,-121.4"/>
</a>
</g>
</g>
<!-- Node4 -->
<g id="Node000004" class="node">
<title>Node4</title>
<g id="a_Node000004"><a xlink:href="../../d7/d3b/complex_8h.html" target="_top" xlink:title="complex number">
<polygon fill="white" stroke="#666666" points="186.5,-74 118.5,-74 118.5,-55 186.5,-55 186.5,-74"/>
<text text-anchor="middle" x="152.5" y="-62" font-family="Helvetica,sans-Serif" font-size="10.00">complex.h</text>
</a>
</g>
</g>
<!-- Node1&#45;&gt;Node4 -->
<g id="edge3_Node000001_Node000004" class="edge">
<title>Node1&#45;&gt;Node4</title>
<g id="a_edge3_Node000001_Node000004"><a xlink:title=" ">
<path fill="none" stroke="#63b8ff" d="M583.9,-116.47C517.9,-111.25 341.44,-96.2 195.5,-74 192.64,-73.57 189.68,-73.07 186.72,-72.55"/>
<polygon fill="#63b8ff" stroke="#63b8ff" points="583.98,-119.98 594.22,-117.27 584.52,-113.01 583.98,-119.98"/>
</a>
</g>
</g>
<!-- Node5 -->
<g id="Node000005" class="node">
<title>Node5</title>
<g id="a_Node000005"><a xlink:href="../../dc/de6/crc_8h.html" target="_top" xlink:title="Cyclic Redundancy Check.">
<polygon fill="white" stroke="#666666" points="244.5,-74 204.5,-74 204.5,-55 244.5,-55 244.5,-74"/>
<text text-anchor="middle" x="224.5" y="-62" font-family="Helvetica,sans-Serif" font-size="10.00">crc.h</text>
</a>
</g>
</g>
<!-- Node1&#45;&gt;Node5 -->
<g id="edge4_Node000001_Node000005" class="edge">
<title>Node1&#45;&gt;Node5</title>
<g id="a_edge4_Node000001_Node000005"><a xlink:title=" ">
<path fill="none" stroke="#63b8ff" d="M584.33,-116.69C524.98,-112.27 375.84,-99.38 253.5,-74 250.62,-73.4 247.62,-72.66 244.68,-71.86"/>
<polygon fill="#63b8ff" stroke="#63b8ff" points="584.11,-120.18 594.34,-117.42 584.62,-113.2 584.11,-120.18"/>
</a>
</g>
</g>
<!-- Node6 -->
<g id="Node000006" class="node">
<title>Node6</title>
<g id="a_Node000006"><a xlink:href="../../df/d2a/fuzzy_8h.html" target="_top" xlink:title="fuzzy operator">
<polygon fill="white" stroke="#666666" points="666.5,-74 616.5,-74 616.5,-55 666.5,-55 666.5,-74"/>
<text text-anchor="middle" x="641.5" y="-62" font-family="Helvetica,sans-Serif" font-size="10.00">fuzzy.h</text>
</a>
</g>
</g>
<!-- Node1&#45;&gt;Node6 -->
<g id="edge5_Node000001_Node000006" class="edge">
<title>Node1&#45;&gt;Node6</title>
<g id="a_edge5_Node000001_Node000006"><a xlink:title=" ">
<path fill="none" stroke="#63b8ff" d="M620.68,-101.1C625.97,-92.04 632.22,-81.37 636.48,-74.09"/>
<polygon fill="#63b8ff" stroke="#63b8ff" points="617.65,-99.35 615.62,-109.75 623.69,-102.88 617.65,-99.35"/>
</a>
</g>
</g>
<!-- Node8 -->
<g id="Node000008" class="node">
<title>Node8</title>
<g id="a_Node000008"><a xlink:href="../../d0/d97/host_2a_8h.html" target="_top" xlink:title="algorithm library on host">
<polygon fill="white" stroke="#666666" points="318.5,-74 262.5,-74 262.5,-55 318.5,-55 318.5,-74"/>
<text text-anchor="middle" x="290.5" y="-62" font-family="Helvetica,sans-Serif" font-size="10.00">host/a.h</text>
</a>
</g>
</g>
<!-- Node1&#45;&gt;Node8 -->
<g id="edge7_Node000001_Node000008" class="edge">
<title>Node1&#45;&gt;Node8</title>
<g id="a_edge7_Node000001_Node000008"><a xlink:title=" ">
<path fill="none" stroke="#63b8ff" d="M584.52,-115.03C534.56,-108.23 421.67,-92.2 327.5,-74 324.65,-73.45 321.69,-72.84 318.74,-72.2"/>
<polygon fill="#63b8ff" stroke="#63b8ff" points="584.1,-118.51 594.47,-116.38 585.03,-111.57 584.1,-118.51"/>
</a>
</g>
</g>
<!-- Node13 -->
<g id="Node000013" class="node">
<title>Node13</title>
<g id="a_Node000013"><a xlink:href="../../d1/df9/hpf_8h.html" target="_top" xlink:title="High Pass Filter.">
<polygon fill="white" stroke="#666666" points="476,-19 435,-19 435,0 476,0 476,-19"/>
<text text-anchor="middle" x="455.5" y="-7" font-family="Helvetica,sans-Serif" font-size="10.00">hpf.h</text>
</a>
</g>
</g>
<!-- Node1&#45;&gt;Node13 -->
<g id="edge12_Node000001_Node000013" class="edge">
<title>Node1&#45;&gt;Node13</title>
<g id="a_edge12_Node000001_Node000013"><a xlink:title=" ">
<path fill="none" stroke="#63b8ff" d="M584.15,-116.06C538.05,-111.2 445.83,-98.57 426.5,-74 412.86,-56.67 433.27,-31.88 446.21,-19.01"/>
<polygon fill="#63b8ff" stroke="#63b8ff" points="583.98,-119.56 594.28,-117.09 584.68,-112.6 583.98,-119.56"/>
</a>
</g>
</g>
<!-- Node14 -->
<g id="Node000014" class="node">
<title>Node14</title>
<g id="a_Node000014"><a xlink:href="../../da/d23/list_8h.html" target="_top" xlink:title="circular doubly linked list implementation">
<polygon fill="white" stroke="#666666" points="378,-74 337,-74 337,-55 378,-55 378,-74"/>
<text text-anchor="middle" x="357.5" y="-62" font-family="Helvetica,sans-Serif" font-size="10.00">list.h</text>
</a>
</g>
</g>
<!-- Node1&#45;&gt;Node14 -->
<g id="edge13_Node000001_Node000014" class="edge">
<title>Node1&#45;&gt;Node14</title>
<g id="a_edge13_Node000001_Node000014"><a xlink:title=" ">
<path fill="none" stroke="#63b8ff" d="M584.35,-113.49C543.36,-105.55 461.54,-89.42 392.5,-74 387.86,-72.96 382.89,-71.79 378.2,-70.66"/>
<polygon fill="#63b8ff" stroke="#63b8ff" points="583.84,-116.95 594.32,-115.41 585.17,-110.08 583.84,-116.95"/>
</a>
</g>
</g>
<!-- Node15 -->
<g id="Node000015" class="node">
<title>Node15</title>
<g id="a_Node000015"><a xlink:href="../../db/d80/lpf_8h.html" target="_top" xlink:title="Low Pass Filter.">
<polygon fill="white" stroke="#666666" points="544.5,-19 506.5,-19 506.5,0 544.5,0 544.5,-19"/>
<text text-anchor="middle" x="525.5" y="-7" font-family="Helvetica,sans-Serif" font-size="10.00">lpf.h</text>
</a>
</g>
</g>
<!-- Node1&#45;&gt;Node15 -->
<g id="edge15_Node000001_Node000015" class="edge">
<title>Node1&#45;&gt;Node15</title>
<g id="a_edge15_Node000001_Node000015"><a xlink:title=" ">
<path fill="none" stroke="#63b8ff" d="M586.29,-104.56C574.52,-96.79 560.92,-86.23 551.5,-74 538.27,-56.83 530.71,-31.98 527.44,-19.05"/>
<polygon fill="#63b8ff" stroke="#63b8ff" points="584.51,-107.57 594.83,-109.93 588.23,-101.64 584.51,-107.57"/>
</a>
</g>
</g>
<!-- Node16 -->
<g id="Node000016" class="node">
<title>Node16</title>
<g id="a_Node000016"><a xlink:href="../../df/db1/math_8h.html" target="_top" xlink:title="mathematical algorithm library">
<polygon fill="white" stroke="#666666" points="486,-74 435,-74 435,-55 486,-55 486,-74"/>
<text text-anchor="middle" x="460.5" y="-62" font-family="Helvetica,sans-Serif" font-size="10.00">math.h</text>
</a>
</g>
</g>
<!-- Node1&#45;&gt;Node16 -->
<g id="edge16_Node000001_Node000016" class="edge">
<title>Node1&#45;&gt;Node16</title>
<g id="a_edge16_Node000001_Node000016"><a xlink:title=" ">
<path fill="none" stroke="#63b8ff" d="M584.91,-109.46C556.81,-99.53 512.04,-83.71 484.56,-74"/>
<polygon fill="#63b8ff" stroke="#63b8ff" points="583.85,-112.8 594.45,-112.83 586.18,-106.2 583.85,-112.8"/>
</a>
</g>
</g>
<!-- Node17 -->
<g id="Node000017" class="node">
<title>Node17</title>
<g id="a_Node000017"><a xlink:href="../../d6/dea/mf_8h.html" target="_top" xlink:title="membership function">
<polygon fill="white" stroke="#666666" points="598.5,-74 560.5,-74 560.5,-55 598.5,-55 598.5,-74"/>
<text text-anchor="middle" x="579.5" y="-62" font-family="Helvetica,sans-Serif" font-size="10.00">mf.h</text>
</a>
</g>
</g>
<!-- Node1&#45;&gt;Node17 -->
<g id="edge20_Node000001_Node000017" class="edge">
<title>Node1&#45;&gt;Node17</title>
<g id="a_edge20_Node000001_Node000017"><a xlink:title=" ">
<path fill="none" stroke="#63b8ff" d="M600.32,-101.1C595.03,-92.04 588.78,-81.37 584.52,-74.09"/>
<polygon fill="#63b8ff" stroke="#63b8ff" points="597.31,-102.88 605.38,-109.75 603.35,-99.35 597.31,-102.88"/>
</a>
</g>
</g>
<!-- Node18 -->
<g id="Node000018" class="node">
<title>Node18</title>
<g id="a_Node000018"><a xlink:href="../../d4/ddc/oop_8h.html" target="_top" xlink:title="Object Oriented Programming Macros.">
<polygon fill="white" stroke="#666666" points="728.5,-74 684.5,-74 684.5,-55 728.5,-55 728.5,-74"/>
<text text-anchor="middle" x="706.5" y="-62" font-family="Helvetica,sans-Serif" font-size="10.00">oop.h</text>
</a>
</g>
</g>
<!-- Node1&#45;&gt;Node18 -->
<g id="edge22_Node000001_Node000018" class="edge">
<title>Node1&#45;&gt;Node18</title>
<g id="a_edge22_Node000001_Node000018"><a xlink:title=" ">
<path fill="none" stroke="#63b8ff" d="M635.02,-104.97C652.56,-95.28 675.67,-82.52 690.8,-74.17"/>
<polygon fill="#63b8ff" stroke="#63b8ff" points="632.99,-102.09 625.92,-109.98 636.37,-108.22 632.99,-102.09"/>
</a>
</g>
</g>
<!-- Node19 -->
<g id="Node000019" class="node">
<title>Node19</title>
<g id="a_Node000019"><a xlink:href="../../da/df0/pid_8h.html" target="_top" xlink:title="proportional integral derivative controller">
<polygon fill="white" stroke="#666666" points="788,-74 747,-74 747,-55 788,-55 788,-74"/>
<text text-anchor="middle" x="767.5" y="-62" font-family="Helvetica,sans-Serif" font-size="10.00">pid.h</text>
</a>
</g>
</g>
<!-- Node1&#45;&gt;Node19 -->
<g id="edge23_Node000001_Node000019" class="edge">
<title>Node1&#45;&gt;Node19</title>
<g id="a_edge23_Node000001_Node000019"><a xlink:title=" ">
<path fill="none" stroke="#63b8ff" d="M636.37,-109.77C667.33,-99.31 718.54,-82.03 746.94,-72.44"/>
<polygon fill="#63b8ff" stroke="#63b8ff" points="635.07,-106.51 626.71,-113.03 637.3,-113.15 635.07,-106.51"/>
</a>
</g>
</g>
<!-- Node21 -->
<g id="Node000021" class="node">
<title>Node21</title>
<g id="a_Node000021"><a xlink:href="../../db/d57/poly_8h.html" target="_top" xlink:title="polynomial">
<polygon fill="white" stroke="#666666" points="851,-74 806,-74 806,-55 851,-55 851,-74"/>
<text text-anchor="middle" x="828.5" y="-62" font-family="Helvetica,sans-Serif" font-size="10.00">poly.h</text>
</a>
</g>
</g>
<!-- Node1&#45;&gt;Node21 -->
<g id="edge26_Node000001_Node000021" class="edge">
<title>Node1&#45;&gt;Node21</title>
<g id="a_edge26_Node000001_Node000021"><a xlink:title=" ">
<path fill="none" stroke="#63b8ff" d="M636.76,-112.55C673,-104.26 740.37,-88.63 797.5,-74 800.2,-73.31 803.03,-72.56 805.84,-71.81"/>
<polygon fill="#63b8ff" stroke="#63b8ff" points="635.53,-109.24 626.55,-114.87 637.08,-116.06 635.53,-109.24"/>
</a>
</g>
</g>
<!-- Node22 -->
<g id="Node000022" class="node">
<title>Node22</title>
<g id="a_Node000022"><a xlink:href="../../dc/d23/polytrack_8h.html" target="_top" xlink:title="polynomial trajectory">
<polygon fill="white" stroke="#666666" points="940,-74 869,-74 869,-55 940,-55 940,-74"/>
<text text-anchor="middle" x="904.5" y="-62" font-family="Helvetica,sans-Serif" font-size="10.00">polytrack.h</text>
</a>
</g>
</g>
<!-- Node1&#45;&gt;Node22 -->
<g id="edge27_Node000001_Node000022" class="edge">
<title>Node1&#45;&gt;Node22</title>
<g id="a_edge27_Node000001_Node000022"><a xlink:title=" ">
<path fill="none" stroke="#63b8ff" d="M636.51,-114C681.97,-106.1 778.84,-89.15 860.5,-74 863.25,-73.49 866.1,-72.95 868.97,-72.41"/>
<polygon fill="#63b8ff" stroke="#63b8ff" points="635.86,-110.56 626.6,-115.72 637.05,-117.46 635.86,-110.56"/>
</a>
</g>
</g>
<!-- Node23 -->
<g id="Node000023" class="node">
<title>Node23</title>
<g id="a_Node000023"><a xlink:href="../../d6/d1b/rbt_8h.html" target="_top" xlink:title="red–black self&#45;balancing binary search tree">
<polygon fill="white" stroke="#666666" points="997,-74 958,-74 958,-55 997,-55 997,-74"/>
<text text-anchor="middle" x="977.5" y="-62" font-family="Helvetica,sans-Serif" font-size="10.00">rbt.h</text>
</a>
</g>
</g>
<!-- Node1&#45;&gt;Node23 -->
<g id="edge28_Node000001_Node000023" class="edge">
<title>Node1&#45;&gt;Node23</title>
<g id="a_edge28_Node000001_Node000023"><a xlink:title=" ">
<path fill="none" stroke="#63b8ff" d="M636.52,-116.55C693.67,-111.95 834.21,-98.89 949.5,-74 952.18,-73.42 954.98,-72.71 957.72,-71.94"/>
<polygon fill="#63b8ff" stroke="#63b8ff" points="636.24,-113.06 626.54,-117.34 636.79,-120.04 636.24,-113.06"/>
</a>
</g>
</g>
<!-- Node24 -->
<g id="Node000024" class="node">
<title>Node24</title>
<g id="a_Node000024"><a xlink:href="../../d1/dad/slist_8h.html" target="_top" xlink:title="circular singly linked list implementation">
<polygon fill="white" stroke="#666666" points="1061.5,-74 1015.5,-74 1015.5,-55 1061.5,-55 1061.5,-74"/>
<text text-anchor="middle" x="1038.5" y="-62" font-family="Helvetica,sans-Serif" font-size="10.00">slist.h</text>
</a>
</g>
</g>
<!-- Node1&#45;&gt;Node24 -->
<g id="edge29_Node000001_Node000024" class="edge">
<title>Node1&#45;&gt;Node24</title>
<g id="a_edge29_Node000001_Node000024"><a xlink:title=" ">
<path fill="none" stroke="#63b8ff" d="M636.86,-116.89C700.73,-112.69 868.63,-99.91 1006.5,-74 1009.32,-73.47 1012.27,-72.82 1015.17,-72.12"/>
<polygon fill="#63b8ff" stroke="#63b8ff" points="636.6,-113.4 626.85,-117.53 637.05,-120.38 636.6,-113.4"/>
</a>
</g>
</g>
<!-- Node25 -->
<g id="Node000025" class="node">
<title>Node25</title>
<g id="a_Node000025"><a xlink:href="../../d2/d16/tf_8h.html" target="_top" xlink:title="transfer function">
<polygon fill="white" stroke="#666666" points="1111.5,-74 1079.5,-74 1079.5,-55 1111.5,-55 1111.5,-74"/>
<text text-anchor="middle" x="1095.5" y="-62" font-family="Helvetica,sans-Serif" font-size="10.00">tf.h</text>
</a>
</g>
</g>
<!-- Node1&#45;&gt;Node25 -->
<g id="edge30_Node000001_Node000025" class="edge">
<title>Node1&#45;&gt;Node25</title>
<g id="a_edge30_Node000001_Node000025"><a xlink:title=" ">
<path fill="none" stroke="#63b8ff" d="M636.83,-118.07C707.72,-116.47 908.19,-108.95 1070.5,-74 1073.37,-73.38 1076.36,-72.54 1079.25,-71.63"/>
<polygon fill="#63b8ff" stroke="#63b8ff" points="636.52,-114.58 626.59,-118.28 636.66,-121.58 636.52,-114.58"/>
</a>
</g>
</g>
<!-- Node26 -->
<g id="Node000026" class="node">
<title>Node26</title>
<g id="a_Node000026"><a xlink:href="../../de/db7/utf_8h.html" target="_top" xlink:title="Unicode Transformation Format.">
<polygon fill="white" stroke="#666666" points="1167.5,-74 1129.5,-74 1129.5,-55 1167.5,-55 1167.5,-74"/>
<text text-anchor="middle" x="1148.5" y="-62" font-family="Helvetica,sans-Serif" font-size="10.00">utf.h</text>
</a>
</g>
</g>
<!-- Node1&#45;&gt;Node26 -->
<g id="edge31_Node000001_Node000026" class="edge">
<title>Node1&#45;&gt;Node26</title>
<g id="a_edge31_Node000001_Node000026"><a xlink:title=" ">
<path fill="none" stroke="#63b8ff" d="M636.57,-118.13C712.13,-116.65 937.52,-109.36 1120.5,-74 1123.39,-73.44 1126.41,-72.7 1129.35,-71.89"/>
<polygon fill="#63b8ff" stroke="#63b8ff" points="636.47,-114.63 626.53,-118.31 636.59,-121.63 636.47,-114.63"/>
</a>
</g>
</g>
<!-- Node27 -->
<g id="Node000027" class="node">
<title>Node27</title>
<g id="a_Node000027"><a xlink:href="../../df/dfc/version_8h.html" target="_top" xlink:title="algorithm library version">
<polygon fill="white" stroke="#666666" points="1247.5,-74 1185.5,-74 1185.5,-55 1247.5,-55 1247.5,-74"/>
<text text-anchor="middle" x="1216.5" y="-62" font-family="Helvetica,sans-Serif" font-size="10.00">version.h</text>
</a>
</g>
</g>
<!-- Node1&#45;&gt;Node27 -->
<g id="edge32_Node000001_Node000027" class="edge">
<title>Node1&#45;&gt;Node27</title>
<g id="a_edge32_Node000001_Node000027"><a xlink:title=" ">
<path fill="none" stroke="#63b8ff" d="M637.1,-117.65C718.33,-114.77 970.14,-103.91 1176.5,-74 1179.31,-73.59 1182.22,-73.11 1185.13,-72.57"/>
<polygon fill="#63b8ff" stroke="#63b8ff" points="636.67,-114.16 626.8,-118 636.91,-121.15 636.67,-114.16"/>
</a>
</g>
</g>
<!-- Node7 -->
<g id="Node000007" class="node">
<title>Node7</title>
<g id="a_Node000007"><a xlink:href="../../d7/d30/pid__fuzzy_8h.html" target="_top" xlink:title="fuzzy proportional integral derivative controller">
<polygon fill="white" stroke="#666666" points="677,-19 606,-19 606,0 677,0 677,-19"/>
<text text-anchor="middle" x="641.5" y="-7" font-family="Helvetica,sans-Serif" font-size="10.00">pid_fuzzy.h</text>
</a>
</g>
</g>
<!-- Node6&#45;&gt;Node7 -->
<g id="edge6_Node000006_Node000007" class="edge">
<title>Node6&#45;&gt;Node7</title>
<g id="a_edge6_Node000006_Node000007"><a xlink:title=" ">
<path fill="none" stroke="#63b8ff" d="M641.5,-44.66C641.5,-35.93 641.5,-25.99 641.5,-19.09"/>
<polygon fill="#63b8ff" stroke="#63b8ff" points="638,-44.75 641.5,-54.75 645,-44.75 638,-44.75"/>
</a>
</g>
</g>
<!-- Node9 -->
<g id="Node000009" class="node">
<title>Node9</title>
<g id="a_Node000009"><a xlink:href="../../d9/dc9/que_8h.html" target="_top" xlink:title="basic queue library">
<polygon fill="white" stroke="#666666" points="410.5,-19 342.5,-19 342.5,0 410.5,0 410.5,-19"/>
<text text-anchor="middle" x="376.5" y="-7" font-family="Helvetica,sans-Serif" font-size="10.00">host/que.h</text>
</a>
</g>
</g>
<!-- Node8&#45;&gt;Node9 -->
<g id="edge8_Node000008_Node000009" class="edge">
<title>Node8&#45;&gt;Node9</title>
<g id="a_edge8_Node000008_Node000009"><a xlink:title=" ">
<path fill="none" stroke="#63b8ff" d="M312.9,-49.7C328.57,-40.04 349.01,-27.44 362.43,-19.17"/>
<polygon fill="#63b8ff" stroke="#63b8ff" points="310.99,-46.76 304.32,-54.98 314.67,-52.72 310.99,-46.76"/>
</a>
</g>
</g>
<!-- Node10 -->
<g id="Node000010" class="node">
<title>Node10</title>
<g id="a_Node000010"><a xlink:href="../../d1/d93/str_8h.html" target="_top" xlink:title="basic string library">
<polygon fill="white" stroke="#666666" points="238.5,-19 176.5,-19 176.5,0 238.5,0 238.5,-19"/>
<text text-anchor="middle" x="207.5" y="-7" font-family="Helvetica,sans-Serif" font-size="10.00">host/str.h</text>
</a>
</g>
</g>
<!-- Node8&#45;&gt;Node10 -->
<g id="edge9_Node000008_Node000010" class="edge">
<title>Node8&#45;&gt;Node10</title>
<g id="a_edge9_Node000008_Node000010"><a xlink:title=" ">
<path fill="none" stroke="#63b8ff" d="M268.46,-49.42C253.39,-39.81 233.91,-27.37 221.08,-19.17"/>
<polygon fill="#63b8ff" stroke="#63b8ff" points="266.85,-52.55 277.16,-54.98 270.62,-46.65 266.85,-52.55"/>
</a>
</g>
</g>
<!-- Node11 -->
<g id="Node000011" class="node">
<title>Node11</title>
<g id="a_Node000011"><a xlink:href="../../db/d65/vec_8h.html" target="_top" xlink:title="basic vector library">
<polygon fill="white" stroke="#666666" points="324,-19 257,-19 257,0 324,0 324,-19"/>
<text text-anchor="middle" x="290.5" y="-7" font-family="Helvetica,sans-Serif" font-size="10.00">host/vec.h</text>
</a>
</g>
</g>
<!-- Node8&#45;&gt;Node11 -->
<g id="edge10_Node000008_Node000011" class="edge">
<title>Node8&#45;&gt;Node11</title>
<g id="a_edge10_Node000008_Node000011"><a xlink:title=" ">
<path fill="none" stroke="#63b8ff" d="M290.5,-44.66C290.5,-35.93 290.5,-25.99 290.5,-19.09"/>
<polygon fill="#63b8ff" stroke="#63b8ff" points="287,-44.75 290.5,-54.75 294,-44.75 287,-44.75"/>
</a>
</g>
</g>
<!-- Node12 -->
<g id="Node000012" class="node">
<title>Node12</title>
<g id="a_Node000012"><a xlink:href="../../d6/d68/vector_8h.html" target="_top" xlink:title="basic vector library">
<polygon fill="white" stroke="#666666" points="158.5,-19 78.5,-19 78.5,0 158.5,0 158.5,-19"/>
<text text-anchor="middle" x="118.5" y="-7" font-family="Helvetica,sans-Serif" font-size="10.00">host/vector.h</text>
</a>
</g>
</g>
<!-- Node8&#45;&gt;Node12 -->
<g id="edge11_Node000008_Node000012" class="edge">
<title>Node8&#45;&gt;Node12</title>
<g id="a_edge11_Node000008_Node000012"><a xlink:title=" ">
<path fill="none" stroke="#63b8ff" d="M252.94,-51.93C220.82,-42.03 175.31,-28.01 146.35,-19.08"/>
<polygon fill="#63b8ff" stroke="#63b8ff" points="252.28,-55.38 262.87,-54.98 254.34,-48.69 252.28,-55.38"/>
</a>
</g>
</g>
<!-- Node14&#45;&gt;Node9 -->
<g id="edge14_Node000014_Node000009" class="edge">
<title>Node14&#45;&gt;Node9</title>
<g id="a_edge14_Node000014_Node000009"><a xlink:title=" ">
<path fill="none" stroke="#63b8ff" d="M364.05,-45.24C367.22,-36.37 370.89,-26.14 373.42,-19.09"/>
<polygon fill="#63b8ff" stroke="#63b8ff" points="360.72,-44.15 360.64,-54.75 367.31,-46.52 360.72,-44.15"/>
</a>
</g>
</g>
<!-- Node16&#45;&gt;Node13 -->
<g id="edge17_Node000016_Node000013" class="edge">
<title>Node16&#45;&gt;Node13</title>
<g id="a_edge17_Node000016_Node000013"><a xlink:title=" ">
<path fill="none" stroke="#63b8ff" d="M458.72,-44.66C457.9,-35.93 456.96,-25.99 456.31,-19.09"/>
<polygon fill="#63b8ff" stroke="#63b8ff" points="455.25,-45.12 459.67,-54.75 462.22,-44.46 455.25,-45.12"/>
</a>
</g>
</g>
<!-- Node16&#45;&gt;Node15 -->
<g id="edge18_Node000016_Node000015" class="edge">
<title>Node16&#45;&gt;Node15</title>
<g id="a_edge18_Node000016_Node000015"><a xlink:title=" ">
<path fill="none" stroke="#63b8ff" d="M478.77,-48.6C490.42,-39.11 505.1,-27.13 514.87,-19.17"/>
<polygon fill="#63b8ff" stroke="#63b8ff" points="476.48,-45.95 470.94,-54.98 480.91,-51.38 476.48,-45.95"/>
</a>
</g>
</g>
<!-- Node16&#45;&gt;Node16 -->
<g id="edge19_Node000016_Node000016" class="edge">
<title>Node16&#45;&gt;Node16</title>
<g id="a_edge19_Node000016_Node000016"><a xlink:title=" ">
<path fill="none" stroke="#63b8ff" d="M491.17,-74.45C498.54,-73.67 504,-70.36 504,-64.5 504,-56.17 492.95,-52.98 481.09,-54.93"/>
<polygon fill="#63b8ff" stroke="#63b8ff" points="491.21,-70.95 481.09,-74.07 490.95,-77.94 491.21,-70.95"/>
</a>
</g>
</g>
<!-- Node17&#45;&gt;Node7 -->
<g id="edge21_Node000017_Node000007" class="edge">
<title>Node17&#45;&gt;Node7</title>
<g id="a_edge21_Node000017_Node000007"><a xlink:title=" ">
<path fill="none" stroke="#63b8ff" d="M597.25,-48.32C608.31,-38.87 622.13,-27.06 631.36,-19.17"/>
<polygon fill="#63b8ff" stroke="#63b8ff" points="594.79,-45.83 589.46,-54.98 599.34,-51.15 594.79,-45.83"/>
</a>
</g>
</g>
<!-- Node19&#45;&gt;Node7 -->
<g id="edge25_Node000019_Node000007" class="edge">
<title>Node19&#45;&gt;Node7</title>
<g id="a_edge25_Node000019_Node000007"><a xlink:title=" ">
<path fill="none" stroke="#63b8ff" d="M737.85,-51.03C714.55,-41.23 682.7,-27.83 662.11,-19.17"/>
<polygon fill="#63b8ff" stroke="#63b8ff" points="736.68,-54.33 747.26,-54.98 739.4,-47.88 736.68,-54.33"/>
</a>
</g>
</g>
<!-- Node20 -->
<g id="Node000020" class="node">
<title>Node20</title>
<g id="a_Node000020"><a xlink:href="../../dd/d53/pid__expert_8h.html" target="_top" xlink:title="expert proportional integral derivative controller">
<polygon fill="white" stroke="#666666" points="806,-19 729,-19 729,0 806,0 806,-19"/>
<text text-anchor="middle" x="767.5" y="-7" font-family="Helvetica,sans-Serif" font-size="10.00">pid_expert.h</text>
</a>
</g>
</g>
<!-- Node19&#45;&gt;Node20 -->
<g id="edge24_Node000019_Node000020" class="edge">
<title>Node19&#45;&gt;Node20</title>
<g id="a_edge24_Node000019_Node000020"><a xlink:title=" ">
<path fill="none" stroke="#63b8ff" d="M767.5,-44.66C767.5,-35.93 767.5,-25.99 767.5,-19.09"/>
<polygon fill="#63b8ff" stroke="#63b8ff" points="764,-44.75 767.5,-54.75 771,-44.75 764,-44.75"/>
</a>
</g>
</g>
</g>
</svg>
