<?xml version="1.0" encoding="UTF-8" standalone="no"?>
<!DOCTYPE svg PUBLIC "-//W3C//DTD SVG 1.1//EN"
 "http://www.w3.org/Graphics/SVG/1.1/DTD/svg11.dtd">
<!-- Generated by graphviz version 2.43.0 (0)
 -->
<!-- Title: a.h Pages: 1 -->
<svg width="1585pt" height="137pt"
 viewBox="0.00 0.00 1584.50 137.00" xmlns="http://www.w3.org/2000/svg" xmlns:xlink="http://www.w3.org/1999/xlink">
<g id="graph0" class="graph" transform="scale(1 1) rotate(0) translate(4 133)">
<title>a.h</title>
<!-- Node1 -->
<g id="Node000001" class="node">
<title>Node1</title>
<g id="a_Node000001"><a xlink:title="algorithm library">
<polygon fill="#999999" stroke="#666666" points="746.5,-129 714.5,-129 714.5,-110 746.5,-110 746.5,-129"/>
<text text-anchor="middle" x="730.5" y="-117" font-family="Helvetica,sans-Serif" font-size="10.00">a.h</text>
</a>
</g>
</g>
<!-- Node2 -->
<g id="Node000002" class="node">
<title>Node2</title>
<g id="a_Node000002"><a xlink:href="../../d3/d51/avl_8h.html" target="_top" xlink:title="Adelson&#45;Velsky and Landis self&#45;balancing binary search tree.">
<polygon fill="white" stroke="#666666" points="41,-74 0,-74 0,-55 41,-55 41,-74"/>
<text text-anchor="middle" x="20.5" y="-62" font-family="Helvetica,sans-Serif" font-size="10.00">avl.h</text>
</a>
</g>
</g>
<!-- Node1&#45;&gt;Node2 -->
<g id="edge1_Node000001_Node000002" class="edge">
<title>Node1&#45;&gt;Node2</title>
<g id="a_edge1_Node000001_Node000002"><a xlink:title=" ">
<path fill="none" stroke="#63b8ff" d="M704.24,-118.85C612.98,-119.62 301.47,-118.6 49.5,-74 46.81,-73.52 44.02,-72.89 41.28,-72.18"/>
<polygon fill="#63b8ff" stroke="#63b8ff" points="704.29,-122.35 714.26,-118.75 704.22,-115.35 704.29,-122.35"/>
</a>
</g>
</g>
<!-- Node3 -->
<g id="Node000003" class="node">
<title>Node3</title>
<g id="a_Node000003"><a xlink:href="../../d6/d6d/buf_8h.html" target="_top" xlink:title="basic buffer library">
<polygon fill="white" stroke="#666666" points="100,-74 59,-74 59,-55 100,-55 100,-74"/>
<text text-anchor="middle" x="79.5" y="-62" font-family="Helvetica,sans-Serif" font-size="10.00">buf.h</text>
</a>
</g>
</g>
<!-- Node1&#45;&gt;Node3 -->
<g id="edge2_Node000001_Node000003" class="edge">
<title>Node1&#45;&gt;Node3</title>
<g id="a_edge2_Node000001_Node000003"><a xlink:title=" ">
<path fill="none" stroke="#63b8ff" d="M703.79,-118.53C617.25,-118.21 336.94,-113.94 109.5,-74 106.41,-73.46 103.18,-72.72 100.03,-71.91"/>
<polygon fill="#63b8ff" stroke="#63b8ff" points="704.03,-122.03 714.04,-118.55 704.05,-115.03 704.03,-122.03"/>
</a>
</g>
</g>
<!-- Node4 -->
<g id="Node000004" class="node">
<title>Node4</title>
<g id="a_Node000004"><a xlink:href="../../d7/d3b/complex_8h.html" target="_top" xlink:title="complex number">
<polygon fill="white" stroke="#666666" points="186.5,-74 118.5,-74 118.5,-55 186.5,-55 186.5,-74"/>
<text text-anchor="middle" x="152.5" y="-62" font-family="Helvetica,sans-Serif" font-size="10.00">complex.h</text>
</a>
</g>
</g>
<!-- Node1&#45;&gt;Node4 -->
<g id="edge3_Node000001_Node000004" class="edge">
<title>Node1&#45;&gt;Node4</title>
<g id="a_edge3_Node000001_Node000004"><a xlink:title=" ">
<path fill="none" stroke="#63b8ff" d="M703.85,-117.34C625.54,-113.71 389.49,-101.15 195.5,-74 192.64,-73.6 189.68,-73.13 186.71,-72.62"/>
<polygon fill="#63b8ff" stroke="#63b8ff" points="704.08,-120.86 714.23,-117.81 704.4,-113.86 704.08,-120.86"/>
</a>
</g>
</g>
<!-- Node5 -->
<g id="Node000005" class="node">
<title>Node5</title>
<g id="a_Node000005"><a xlink:href="../../dc/de6/crc_8h.html" target="_top" xlink:title="Cyclic Redundancy Check.">
<polygon fill="white" stroke="#666666" points="244.5,-74 204.5,-74 204.5,-55 244.5,-55 244.5,-74"/>
<text text-anchor="middle" x="224.5" y="-62" font-family="Helvetica,sans-Serif" font-size="10.00">crc.h</text>
</a>
</g>
</g>
<!-- Node1&#45;&gt;Node5 -->
<g id="edge4_Node000001_Node000005" class="edge">
<title>Node1&#45;&gt;Node5</title>
<g id="a_edge4_Node000001_Node000005"><a xlink:title=" ">
<path fill="none" stroke="#63b8ff" d="M704.22,-117.82C631.77,-115.56 423.28,-106.49 253.5,-74 250.61,-73.45 247.6,-72.73 244.66,-71.95"/>
<polygon fill="#63b8ff" stroke="#63b8ff" points="704.18,-121.32 714.28,-118.11 704.39,-114.32 704.18,-121.32"/>
</a>
</g>
</g>
<!-- Node6 -->
<g id="Node000006" class="node">
<title>Node6</title>
<g id="a_Node000006"><a xlink:href="../../df/d2a/fuzzy_8h.html" target="_top" xlink:title="fuzzy operator">
<polygon fill="white" stroke="#666666" points="312.5,-74 262.5,-74 262.5,-55 312.5,-55 312.5,-74"/>
<text text-anchor="middle" x="287.5" y="-62" font-family="Helvetica,sans-Serif" font-size="10.00">fuzzy.h</text>
</a>
</g>
</g>
<!-- Node1&#45;&gt;Node6 -->
<g id="edge5_Node000001_Node000006" class="edge">
<title>Node1&#45;&gt;Node6</title>
<g id="a_edge5_Node000001_Node000006"><a xlink:title=" ">
<path fill="none" stroke="#63b8ff" d="M704.21,-116.89C639,-112.63 464.74,-99.57 321.5,-74 318.62,-73.49 315.63,-72.87 312.67,-72.2"/>
<polygon fill="#63b8ff" stroke="#63b8ff" points="704.2,-120.4 714.41,-117.54 704.65,-113.41 704.2,-120.4"/>
</a>
</g>
</g>
<!-- Node7 -->
<g id="Node000007" class="node">
<title>Node7</title>
<g id="a_Node000007"><a xlink:href="../../d1/df9/hpf_8h.html" target="_top" xlink:title="High Pass Filter.">
<polygon fill="white" stroke="#666666" points="461,-19 420,-19 420,0 461,0 461,-19"/>
<text text-anchor="middle" x="440.5" y="-7" font-family="Helvetica,sans-Serif" font-size="10.00">hpf.h</text>
</a>
</g>
</g>
<!-- Node1&#45;&gt;Node7 -->
<g id="edge6_Node000001_Node000007" class="edge">
<title>Node1&#45;&gt;Node7</title>
<g id="a_edge6_Node000001_Node000007"><a xlink:title=" ">
<path fill="none" stroke="#63b8ff" d="M704.3,-117.75C643.17,-115.46 493.53,-106.6 457.5,-74 441.93,-59.91 439.96,-33.27 440.08,-19.4"/>
<polygon fill="#63b8ff" stroke="#63b8ff" points="704.2,-121.25 714.31,-118.09 704.44,-114.25 704.2,-121.25"/>
</a>
</g>
</g>
<!-- Node8 -->
<g id="Node000008" class="node">
<title>Node8</title>
<g id="a_Node000008"><a xlink:href="../../da/d23/list_8h.html" target="_top" xlink:title="circular doubly linked list implementation">
<polygon fill="white" stroke="#666666" points="372,-74 331,-74 331,-55 372,-55 372,-74"/>
<text text-anchor="middle" x="351.5" y="-62" font-family="Helvetica,sans-Serif" font-size="10.00">list.h</text>
</a>
</g>
</g>
<!-- Node1&#45;&gt;Node8 -->
<g id="edge7_Node000001_Node000008" class="edge">
<title>Node1&#45;&gt;Node8</title>
<g id="a_edge7_Node000001_Node000008"><a xlink:title=" ">
<path fill="none" stroke="#63b8ff" d="M704.19,-116.09C646.4,-110.58 504.15,-95.83 386.5,-74 381.83,-73.13 376.84,-72.03 372.15,-70.91"/>
<polygon fill="#63b8ff" stroke="#63b8ff" points="704,-119.59 714.28,-117.04 704.65,-112.62 704,-119.59"/>
</a>
</g>
</g>
<!-- Node9 -->
<g id="Node000009" class="node">
<title>Node9</title>
<g id="a_Node000009"><a xlink:href="../../d9/dc9/que_8h.html" target="_top" xlink:title="basic queue library">
<polygon fill="white" stroke="#666666" points="388.5,-19 344.5,-19 344.5,0 388.5,0 388.5,-19"/>
<text text-anchor="middle" x="366.5" y="-7" font-family="Helvetica,sans-Serif" font-size="10.00">que.h</text>
</a>
</g>
</g>
<!-- Node1&#45;&gt;Node9 -->
<g id="edge22_Node000001_Node000009" class="edge">
<title>Node1&#45;&gt;Node9</title>
<g id="a_edge22_Node000001_Node000009"><a xlink:title=" ">
<path fill="none" stroke="#63b8ff" d="M704.27,-119.05C652.02,-119.17 532.23,-114.58 442.5,-74 413.36,-60.82 386.44,-33.27 373.9,-19.19"/>
<polygon fill="#63b8ff" stroke="#63b8ff" points="704.39,-122.55 714.36,-118.96 704.33,-115.55 704.39,-122.55"/>
</a>
</g>
</g>
<!-- Node10 -->
<g id="Node000010" class="node">
<title>Node10</title>
<g id="a_Node000010"><a xlink:href="../../db/d80/lpf_8h.html" target="_top" xlink:title="Low Pass Filter.">
<polygon fill="white" stroke="#666666" points="551.5,-19 513.5,-19 513.5,0 551.5,0 551.5,-19"/>
<text text-anchor="middle" x="532.5" y="-7" font-family="Helvetica,sans-Serif" font-size="10.00">lpf.h</text>
</a>
</g>
</g>
<!-- Node1&#45;&gt;Node10 -->
<g id="edge9_Node000001_Node000010" class="edge">
<title>Node1&#45;&gt;Node10</title>
<g id="a_edge9_Node000001_Node000010"><a xlink:title=" ">
<path fill="none" stroke="#63b8ff" d="M704.08,-115.32C672.99,-110.55 620.86,-99.23 583.5,-74 561.94,-59.44 545.03,-33 537.22,-19.29"/>
<polygon fill="#63b8ff" stroke="#63b8ff" points="703.75,-118.81 714.15,-116.75 704.74,-111.88 703.75,-118.81"/>
</a>
</g>
</g>
<!-- Node11 -->
<g id="Node000011" class="node">
<title>Node11</title>
<g id="a_Node000011"><a xlink:href="../../df/db1/math_8h.html" target="_top" xlink:title="mathematical algorithm library">
<polygon fill="white" stroke="#666666" points="518,-74 467,-74 467,-55 518,-55 518,-74"/>
<text text-anchor="middle" x="492.5" y="-62" font-family="Helvetica,sans-Serif" font-size="10.00">math.h</text>
</a>
</g>
</g>
<!-- Node1&#45;&gt;Node11 -->
<g id="edge10_Node000001_Node000011" class="edge">
<title>Node1&#45;&gt;Node11</title>
<g id="a_edge10_Node000001_Node000011"><a xlink:title=" ">
<path fill="none" stroke="#63b8ff" d="M704.33,-112.67C658.33,-102.43 563.57,-81.33 518.03,-71.19"/>
<polygon fill="#63b8ff" stroke="#63b8ff" points="703.62,-116.1 714.14,-114.86 705.14,-109.27 703.62,-116.1"/>
</a>
</g>
</g>
<!-- Node12 -->
<g id="Node000012" class="node">
<title>Node12</title>
<g id="a_Node000012"><a xlink:href="../../d6/dea/mf_8h.html" target="_top" xlink:title="membership function">
<polygon fill="white" stroke="#666666" points="630.5,-74 592.5,-74 592.5,-55 630.5,-55 630.5,-74"/>
<text text-anchor="middle" x="611.5" y="-62" font-family="Helvetica,sans-Serif" font-size="10.00">mf.h</text>
</a>
</g>
</g>
<!-- Node1&#45;&gt;Node12 -->
<g id="edge14_Node000001_Node000012" class="edge">
<title>Node1&#45;&gt;Node12</title>
<g id="a_edge14_Node000001_Node000012"><a xlink:title=" ">
<path fill="none" stroke="#63b8ff" d="M705.28,-107.27C683.05,-97.37 651.11,-83.14 630.84,-74.11"/>
<polygon fill="#63b8ff" stroke="#63b8ff" points="703.89,-110.48 714.45,-111.35 706.74,-104.09 703.89,-110.48"/>
</a>
</g>
</g>
<!-- Node13 -->
<g id="Node000013" class="node">
<title>Node13</title>
<g id="a_Node000013"><a xlink:href="../../da/df0/pid_8h.html" target="_top" xlink:title="proportional integral derivative controller">
<polygon fill="white" stroke="#666666" points="690,-74 649,-74 649,-55 690,-55 690,-74"/>
<text text-anchor="middle" x="669.5" y="-62" font-family="Helvetica,sans-Serif" font-size="10.00">pid.h</text>
</a>
</g>
</g>
<!-- Node1&#45;&gt;Node13 -->
<g id="edge15_Node000001_Node000013" class="edge">
<title>Node1&#45;&gt;Node13</title>
<g id="a_edge15_Node000001_Node000013"><a xlink:title=" ">
<path fill="none" stroke="#63b8ff" d="M713.03,-103.32C702.16,-93.87 688.56,-82.06 679.48,-74.17"/>
<polygon fill="#63b8ff" stroke="#63b8ff" points="710.85,-106.07 720.7,-109.98 715.45,-100.78 710.85,-106.07"/>
</a>
</g>
</g>
<!-- Node16 -->
<g id="Node000016" class="node">
<title>Node16</title>
<g id="a_Node000016"><a xlink:href="../../db/d57/poly_8h.html" target="_top" xlink:title="polynomial">
<polygon fill="white" stroke="#666666" points="753,-74 708,-74 708,-55 753,-55 753,-74"/>
<text text-anchor="middle" x="730.5" y="-62" font-family="Helvetica,sans-Serif" font-size="10.00">poly.h</text>
</a>
</g>
</g>
<!-- Node1&#45;&gt;Node16 -->
<g id="edge18_Node000001_Node000016" class="edge">
<title>Node1&#45;&gt;Node16</title>
<g id="a_edge18_Node000001_Node000016"><a xlink:title=" ">
<path fill="none" stroke="#63b8ff" d="M730.5,-99.66C730.5,-90.93 730.5,-80.99 730.5,-74.09"/>
<polygon fill="#63b8ff" stroke="#63b8ff" points="727,-99.75 730.5,-109.75 734,-99.75 727,-99.75"/>
</a>
</g>
</g>
<!-- Node17 -->
<g id="Node000017" class="node">
<title>Node17</title>
<g id="a_Node000017"><a xlink:href="../../dd/d56/polytraj3_8h.html" target="_top" xlink:title="cubic polynomial trajectory">
<polygon fill="white" stroke="#666666" points="840,-74 771,-74 771,-55 840,-55 840,-74"/>
<text text-anchor="middle" x="805.5" y="-62" font-family="Helvetica,sans-Serif" font-size="10.00">polytraj3.h</text>
</a>
</g>
</g>
<!-- Node1&#45;&gt;Node17 -->
<g id="edge19_Node000001_Node000017" class="edge">
<title>Node1&#45;&gt;Node17</title>
<g id="a_edge19_Node000001_Node000017"><a xlink:title=" ">
<path fill="none" stroke="#63b8ff" d="M750.81,-104.15C764.36,-94.57 781.74,-82.29 793.23,-74.17"/>
<polygon fill="#63b8ff" stroke="#63b8ff" points="748.7,-101.36 742.55,-109.98 752.74,-107.07 748.7,-101.36"/>
</a>
</g>
</g>
<!-- Node18 -->
<g id="Node000018" class="node">
<title>Node18</title>
<g id="a_Node000018"><a xlink:href="../../dd/d93/polytraj5_8h.html" target="_top" xlink:title="quintic polynomial trajectory">
<polygon fill="white" stroke="#666666" points="927,-74 858,-74 858,-55 927,-55 927,-74"/>
<text text-anchor="middle" x="892.5" y="-62" font-family="Helvetica,sans-Serif" font-size="10.00">polytraj5.h</text>
</a>
</g>
</g>
<!-- Node1&#45;&gt;Node18 -->
<g id="edge20_Node000001_Node000018" class="edge">
<title>Node1&#45;&gt;Node18</title>
<g id="a_edge20_Node000001_Node000018"><a xlink:title=" ">
<path fill="none" stroke="#63b8ff" d="M756.42,-110.02C786.58,-100.15 836.09,-83.96 866.34,-74.06"/>
<polygon fill="#63b8ff" stroke="#63b8ff" points="755.04,-106.79 746.63,-113.22 757.22,-113.44 755.04,-106.79"/>
</a>
</g>
</g>
<!-- Node19 -->
<g id="Node000019" class="node">
<title>Node19</title>
<g id="a_Node000019"><a xlink:href="../../df/d16/polytraj7_8h.html" target="_top" xlink:title="hepta polynomial trajectory">
<polygon fill="white" stroke="#666666" points="1014,-74 945,-74 945,-55 1014,-55 1014,-74"/>
<text text-anchor="middle" x="979.5" y="-62" font-family="Helvetica,sans-Serif" font-size="10.00">polytraj7.h</text>
</a>
</g>
</g>
<!-- Node1&#45;&gt;Node19 -->
<g id="edge21_Node000001_Node000019" class="edge">
<title>Node1&#45;&gt;Node19</title>
<g id="a_edge21_Node000001_Node000019"><a xlink:title=" ">
<path fill="none" stroke="#63b8ff" d="M756.76,-112.91C801.99,-103.28 894.59,-83.57 944.98,-72.85"/>
<polygon fill="#63b8ff" stroke="#63b8ff" points="755.89,-109.52 746.84,-115.02 757.35,-116.36 755.89,-109.52"/>
</a>
</g>
</g>
<!-- Node20 -->
<g id="Node000020" class="node">
<title>Node20</title>
<g id="a_Node000020"><a xlink:href="../../d8/dfc/rbf_8h.html" target="_top" xlink:title="radial basis function">
<polygon fill="white" stroke="#666666" points="1070.5,-74 1032.5,-74 1032.5,-55 1070.5,-55 1070.5,-74"/>
<text text-anchor="middle" x="1051.5" y="-62" font-family="Helvetica,sans-Serif" font-size="10.00">rbf.h</text>
</a>
</g>
</g>
<!-- Node1&#45;&gt;Node20 -->
<g id="edge23_Node000001_Node000020" class="edge">
<title>Node1&#45;&gt;Node20</title>
<g id="a_edge23_Node000001_Node000020"><a xlink:title=" ">
<path fill="none" stroke="#63b8ff" d="M756.78,-115.79C808.35,-110.2 926.26,-96.02 1023.5,-74 1026.37,-73.35 1029.38,-72.56 1032.32,-71.72"/>
<polygon fill="#63b8ff" stroke="#63b8ff" points="756.1,-112.35 746.53,-116.89 756.85,-119.31 756.1,-112.35"/>
</a>
</g>
</g>
<!-- Node21 -->
<g id="Node000021" class="node">
<title>Node21</title>
<g id="a_Node000021"><a xlink:href="../../d6/d1b/rbt_8h.html" target="_top" xlink:title="red–black self&#45;balancing binary search tree">
<polygon fill="white" stroke="#666666" points="1128,-74 1089,-74 1089,-55 1128,-55 1128,-74"/>
<text text-anchor="middle" x="1108.5" y="-62" font-family="Helvetica,sans-Serif" font-size="10.00">rbt.h</text>
</a>
</g>
</g>
<!-- Node1&#45;&gt;Node21 -->
<g id="edge24_Node000001_Node000021" class="edge">
<title>Node1&#45;&gt;Node21</title>
<g id="a_edge24_Node000001_Node000021"><a xlink:title=" ">
<path fill="none" stroke="#63b8ff" d="M756.86,-116.57C815.39,-111.98 960.42,-98.88 1079.5,-74 1082.58,-73.36 1085.81,-72.55 1088.95,-71.69"/>
<polygon fill="#63b8ff" stroke="#63b8ff" points="756.36,-113.1 746.65,-117.36 756.89,-120.08 756.36,-113.1"/>
</a>
</g>
</g>
<!-- Node22 -->
<g id="Node000022" class="node">
<title>Node22</title>
<g id="a_Node000022"><a xlink:href="../../d1/dad/slist_8h.html" target="_top" xlink:title="singly linked list implementation">
<polygon fill="white" stroke="#666666" points="1192.5,-74 1146.5,-74 1146.5,-55 1192.5,-55 1192.5,-74"/>
<text text-anchor="middle" x="1169.5" y="-62" font-family="Helvetica,sans-Serif" font-size="10.00">slist.h</text>
</a>
</g>
</g>
<!-- Node1&#45;&gt;Node22 -->
<g id="edge25_Node000001_Node000022" class="edge">
<title>Node1&#45;&gt;Node22</title>
<g id="a_edge25_Node000001_Node000022"><a xlink:title=" ">
<path fill="none" stroke="#63b8ff" d="M756.68,-117.01C821.63,-113.02 995.15,-100.53 1137.5,-74 1140.33,-73.47 1143.27,-72.83 1146.17,-72.13"/>
<polygon fill="#63b8ff" stroke="#63b8ff" points="756.3,-113.53 746.53,-117.62 756.72,-120.51 756.3,-113.53"/>
</a>
</g>
</g>
<!-- Node23 -->
<g id="Node000023" class="node">
<title>Node23</title>
<g id="a_Node000023"><a xlink:href="../../d1/d93/str_8h.html" target="_top" xlink:title="basic string library">
<polygon fill="white" stroke="#666666" points="1248.5,-74 1210.5,-74 1210.5,-55 1248.5,-55 1248.5,-74"/>
<text text-anchor="middle" x="1229.5" y="-62" font-family="Helvetica,sans-Serif" font-size="10.00">str.h</text>
</a>
</g>
</g>
<!-- Node1&#45;&gt;Node23 -->
<g id="edge26_Node000001_Node000023" class="edge">
<title>Node1&#45;&gt;Node23</title>
<g id="a_edge26_Node000001_Node000023"><a xlink:title=" ">
<path fill="none" stroke="#63b8ff" d="M756.9,-117.86C828.89,-115.71 1034.36,-106.92 1201.5,-74 1204.39,-73.43 1207.41,-72.68 1210.35,-71.87"/>
<polygon fill="#63b8ff" stroke="#63b8ff" points="756.42,-114.37 746.52,-118.15 756.62,-121.37 756.42,-114.37"/>
</a>
</g>
</g>
<!-- Node24 -->
<g id="Node000024" class="node">
<title>Node24</title>
<g id="a_Node000024"><a xlink:href="../../d2/d16/tf_8h.html" target="_top" xlink:title="transfer function">
<polygon fill="white" stroke="#666666" points="1298.5,-74 1266.5,-74 1266.5,-55 1298.5,-55 1298.5,-74"/>
<text text-anchor="middle" x="1282.5" y="-62" font-family="Helvetica,sans-Serif" font-size="10.00">tf.h</text>
</a>
</g>
</g>
<!-- Node1&#45;&gt;Node24 -->
<g id="edge27_Node000001_Node000024" class="edge">
<title>Node1&#45;&gt;Node24</title>
<g id="a_edge27_Node000001_Node000024"><a xlink:title=" ">
<path fill="none" stroke="#63b8ff" d="M756.97,-118.53C834.68,-118.13 1068.61,-113.47 1257.5,-74 1260.37,-73.4 1263.37,-72.57 1266.25,-71.66"/>
<polygon fill="#63b8ff" stroke="#63b8ff" points="756.65,-115.03 746.66,-118.56 756.67,-122.03 756.65,-115.03"/>
</a>
</g>
</g>
<!-- Node25 -->
<g id="Node000025" class="node">
<title>Node25</title>
<g id="a_Node000025"><a xlink:href="../../d7/d2b/traptraj_8h.html" target="_top" xlink:title="trapezoidal velocity profile trajectory">
<polygon fill="white" stroke="#666666" points="1378.5,-74 1316.5,-74 1316.5,-55 1378.5,-55 1378.5,-74"/>
<text text-anchor="middle" x="1347.5" y="-62" font-family="Helvetica,sans-Serif" font-size="10.00">traptraj.h</text>
</a>
</g>
</g>
<!-- Node1&#45;&gt;Node25 -->
<g id="edge28_Node000001_Node000025" class="edge">
<title>Node1&#45;&gt;Node25</title>
<g id="a_edge28_Node000001_Node000025"><a xlink:title=" ">
<path fill="none" stroke="#63b8ff" d="M756.81,-117.71C838.74,-114.99 1096.44,-104.43 1307.5,-74 1310.31,-73.59 1313.22,-73.11 1316.13,-72.58"/>
<polygon fill="#63b8ff" stroke="#63b8ff" points="756.53,-114.22 746.65,-118.04 756.76,-121.21 756.53,-114.22"/>
</a>
</g>
</g>
<!-- Node26 -->
<g id="Node000026" class="node">
<title>Node26</title>
<g id="a_Node000026"><a xlink:href="../../de/db7/utf_8h.html" target="_top" xlink:title="Unicode Transformation Format.">
<polygon fill="white" stroke="#666666" points="1434.5,-74 1396.5,-74 1396.5,-55 1434.5,-55 1434.5,-74"/>
<text text-anchor="middle" x="1415.5" y="-62" font-family="Helvetica,sans-Serif" font-size="10.00">utf.h</text>
</a>
</g>
</g>
<!-- Node1&#45;&gt;Node26 -->
<g id="edge29_Node000001_Node000026" class="edge">
<title>Node1&#45;&gt;Node26</title>
<g id="a_edge29_Node000001_Node000026"><a xlink:title=" ">
<path fill="none" stroke="#63b8ff" d="M757.01,-118.85C846.56,-119.57 1145.69,-118.3 1387.5,-74 1390.4,-73.47 1393.42,-72.74 1396.36,-71.94"/>
<polygon fill="#63b8ff" stroke="#63b8ff" points="756.96,-115.35 746.92,-118.75 756.89,-122.35 756.96,-115.35"/>
</a>
</g>
</g>
<!-- Node27 -->
<g id="Node000027" class="node">
<title>Node27</title>
<g id="a_Node000027"><a xlink:href="../../db/d65/vec_8h.html" target="_top" xlink:title="basic vector library">
<polygon fill="white" stroke="#666666" points="1496,-74 1453,-74 1453,-55 1496,-55 1496,-74"/>
<text text-anchor="middle" x="1474.5" y="-62" font-family="Helvetica,sans-Serif" font-size="10.00">vec.h</text>
</a>
</g>
</g>
<!-- Node1&#45;&gt;Node27 -->
<g id="edge30_Node000001_Node000027" class="edge">
<title>Node1&#45;&gt;Node27</title>
<g id="a_edge30_Node000001_Node000027"><a xlink:title=" ">
<path fill="none" stroke="#63b8ff" d="M756.73,-118.79C850.57,-119.44 1178.13,-118.18 1443.5,-74 1446.58,-73.49 1449.8,-72.79 1452.95,-72.02"/>
<polygon fill="#63b8ff" stroke="#63b8ff" points="756.73,-115.29 746.7,-118.71 756.67,-122.29 756.73,-115.29"/>
</a>
</g>
</g>
<!-- Node28 -->
<g id="Node000028" class="node">
<title>Node28</title>
<g id="a_Node000028"><a xlink:href="../../df/dfc/version_8h.html" target="_top" xlink:title="algorithm library version">
<polygon fill="white" stroke="#666666" points="1576.5,-74 1514.5,-74 1514.5,-55 1576.5,-55 1576.5,-74"/>
<text text-anchor="middle" x="1545.5" y="-62" font-family="Helvetica,sans-Serif" font-size="10.00">version.h</text>
</a>
</g>
</g>
<!-- Node1&#45;&gt;Node28 -->
<g id="edge31_Node000001_Node000028" class="edge">
<title>Node1&#45;&gt;Node28</title>
<g id="a_edge31_Node000001_Node000028"><a xlink:title=" ">
<path fill="none" stroke="#63b8ff" d="M756.95,-118.43C855.96,-117.88 1213.86,-113.13 1505.5,-74 1508.31,-73.62 1511.23,-73.16 1514.14,-72.64"/>
<polygon fill="#63b8ff" stroke="#63b8ff" points="756.66,-114.94 746.68,-118.48 756.69,-121.94 756.66,-114.94"/>
</a>
</g>
</g>
<!-- Node8&#45;&gt;Node9 -->
<g id="edge8_Node000008_Node000009" class="edge">
<title>Node8&#45;&gt;Node9</title>
<g id="a_edge8_Node000008_Node000009"><a xlink:title=" ">
<path fill="none" stroke="#63b8ff" d="M356.75,-44.95C359.24,-36.15 362.1,-26.06 364.07,-19.09"/>
<polygon fill="#63b8ff" stroke="#63b8ff" points="353.33,-44.17 353.98,-54.75 360.07,-46.08 353.33,-44.17"/>
</a>
</g>
</g>
<!-- Node11&#45;&gt;Node7 -->
<g id="edge11_Node000011_Node000007" class="edge">
<title>Node11&#45;&gt;Node7</title>
<g id="a_edge11_Node000011_Node000007"><a xlink:title=" ">
<path fill="none" stroke="#63b8ff" d="M476.82,-47.52C467.66,-38.18 456.45,-26.75 448.93,-19.09"/>
<polygon fill="#63b8ff" stroke="#63b8ff" points="474.41,-50.06 483.91,-54.75 479.41,-45.16 474.41,-50.06"/>
</a>
</g>
</g>
<!-- Node11&#45;&gt;Node10 -->
<g id="edge12_Node000011_Node000010" class="edge">
<title>Node11&#45;&gt;Node10</title>
<g id="a_edge12_Node000011_Node000010"><a xlink:title=" ">
<path fill="none" stroke="#63b8ff" d="M505.2,-46.67C512.13,-37.5 520.41,-26.52 526.02,-19.09"/>
<polygon fill="#63b8ff" stroke="#63b8ff" points="502.34,-44.66 499.11,-54.75 507.92,-48.87 502.34,-44.66"/>
</a>
</g>
</g>
<!-- Node11&#45;&gt;Node11 -->
<g id="edge13_Node000011_Node000011" class="edge">
<title>Node11&#45;&gt;Node11</title>
<g id="a_edge13_Node000011_Node000011"><a xlink:title=" ">
<path fill="none" stroke="#63b8ff" d="M523.17,-74.45C530.54,-73.67 536,-70.36 536,-64.5 536,-56.17 524.95,-52.98 513.09,-54.93"/>
<polygon fill="#63b8ff" stroke="#63b8ff" points="523.21,-70.95 513.09,-74.07 522.95,-77.94 523.21,-70.95"/>
</a>
</g>
</g>
<!-- Node14 -->
<g id="Node000014" class="node">
<title>Node14</title>
<g id="a_Node000014"><a xlink:href="../../d7/d30/pid__fuzzy_8h.html" target="_top" xlink:title="fuzzy proportional integral derivative controller">
<polygon fill="white" stroke="#666666" points="737,-19 666,-19 666,0 737,0 737,-19"/>
<text text-anchor="middle" x="701.5" y="-7" font-family="Helvetica,sans-Serif" font-size="10.00">pid_fuzzy.h</text>
</a>
</g>
</g>
<!-- Node13&#45;&gt;Node14 -->
<g id="edge16_Node000013_Node000014" class="edge">
<title>Node13&#45;&gt;Node14</title>
<g id="a_edge16_Node000013_Node000014"><a xlink:title=" ">
<path fill="none" stroke="#63b8ff" d="M680,-46.1C685.47,-37.04 691.92,-26.37 696.31,-19.09"/>
<polygon fill="#63b8ff" stroke="#63b8ff" points="676.96,-44.38 674.78,-54.75 682.95,-48 676.96,-44.38"/>
</a>
</g>
</g>
<!-- Node15 -->
<g id="Node000015" class="node">
<title>Node15</title>
<g id="a_Node000015"><a xlink:href="../../d5/d25/pid__neuro_8h.html" target="_top" xlink:title="single neuron proportional integral derivative controller">
<polygon fill="white" stroke="#666666" points="647.5,-19 573.5,-19 573.5,0 647.5,0 647.5,-19"/>
<text text-anchor="middle" x="610.5" y="-7" font-family="Helvetica,sans-Serif" font-size="10.00">pid_neuro.h</text>
</a>
</g>
</g>
<!-- Node13&#45;&gt;Node15 -->
<g id="edge17_Node000013_Node000015" class="edge">
<title>Node13&#45;&gt;Node15</title>
<g id="a_edge17_Node000013_Node000015"><a xlink:title=" ">
<path fill="none" stroke="#63b8ff" d="M652.3,-48.04C641.83,-38.64 628.85,-26.98 620.15,-19.17"/>
<polygon fill="#63b8ff" stroke="#63b8ff" points="650.24,-50.91 660.02,-54.98 654.92,-45.7 650.24,-50.91"/>
</a>
</g>
</g>
</g>
</svg>
