<?xml version="1.0" encoding="UTF-8" standalone="no"?>
<!DOCTYPE svg PUBLIC "-//W3C//DTD SVG 1.1//EN"
 "http://www.w3.org/Graphics/SVG/1.1/DTD/svg11.dtd">
<!-- Generated by graphviz version 2.43.0 (0)
 -->
<!-- Title: a.h Pages: 1 -->
<svg width="1180pt" height="140pt"
 viewBox="0.00 0.00 1179.50 140.00" xmlns="http://www.w3.org/2000/svg" xmlns:xlink="http://www.w3.org/1999/xlink">
<g id="graph0" class="graph" transform="scale(1 1) rotate(0) translate(4 136)">
<title>a.h</title>
<polygon fill="white" stroke="transparent" points="-4,4 -4,-136 1175.5,-136 1175.5,4 -4,4"/>
<!-- Node1 -->
<g id="node1" class="node">
<title>Node1</title>
<g id="a_node1"><a xlink:title="algorithm library">
<polygon fill="#bfbfbf" stroke="black" points="584.5,-112.5 584.5,-131.5 616.5,-131.5 616.5,-112.5 584.5,-112.5"/>
<text text-anchor="middle" x="600.5" y="-119.5" font-family="Helvetica,sans-Serif" font-size="10.00">a.h</text>
</a>
</g>
</g>
<!-- Node2 -->
<g id="node2" class="node">
<title>Node2</title>
<g id="a_node2"><a xlink:href="../../d3/d51/avl_8h.html" target="_top" xlink:title="Adelson&#45;Velsky and Landis self&#45;balancing binary search tree.">
<polygon fill="white" stroke="black" points="0,-56.5 0,-75.5 41,-75.5 41,-56.5 0,-56.5"/>
<text text-anchor="middle" x="20.5" y="-63.5" font-family="Helvetica,sans-Serif" font-size="10.00">avl.h</text>
</a>
</g>
</g>
<!-- Node1&#45;&gt;Node2 -->
<g id="edge1" class="edge">
<title>Node1&#45;&gt;Node2</title>
<path fill="none" stroke="midnightblue" d="M573.92,-120.89C493.88,-120.1 248.39,-114.5 49.5,-76 46.81,-75.48 44.01,-74.8 41.27,-74.04"/>
<polygon fill="midnightblue" stroke="midnightblue" points="574.07,-124.39 584.1,-120.97 574.12,-117.39 574.07,-124.39"/>
</g>
<!-- Node3 -->
<g id="node3" class="node">
<title>Node3</title>
<g id="a_node3"><a xlink:href="../../d6/d6d/buf_8h.html" target="_top" xlink:title="basic buffer library">
<polygon fill="white" stroke="black" points="59,-56.5 59,-75.5 100,-75.5 100,-56.5 59,-56.5"/>
<text text-anchor="middle" x="79.5" y="-63.5" font-family="Helvetica,sans-Serif" font-size="10.00">buf.h</text>
</a>
</g>
</g>
<!-- Node1&#45;&gt;Node3 -->
<g id="edge2" class="edge">
<title>Node1&#45;&gt;Node3</title>
<path fill="none" stroke="midnightblue" d="M573.95,-120.43C499.82,-118.44 284.55,-109.93 109.5,-76 106.4,-75.4 103.17,-74.61 100.02,-73.75"/>
<polygon fill="midnightblue" stroke="midnightblue" points="574.14,-123.93 584.23,-120.69 574.32,-116.94 574.14,-123.93"/>
</g>
<!-- Node4 -->
<g id="node4" class="node">
<title>Node4</title>
<g id="a_node4"><a xlink:href="../../d7/d3b/complex_8h.html" target="_top" xlink:title="complex number">
<polygon fill="white" stroke="black" points="118.5,-56.5 118.5,-75.5 186.5,-75.5 186.5,-56.5 118.5,-56.5"/>
<text text-anchor="middle" x="152.5" y="-63.5" font-family="Helvetica,sans-Serif" font-size="10.00">complex.h</text>
</a>
</g>
</g>
<!-- Node1&#45;&gt;Node4 -->
<g id="edge3" class="edge">
<title>Node1&#45;&gt;Node4</title>
<path fill="none" stroke="midnightblue" d="M574.08,-118.95C509.29,-113.72 337.48,-98.69 195.5,-76 192.64,-75.54 189.68,-75.02 186.71,-74.47"/>
<polygon fill="midnightblue" stroke="midnightblue" points="573.97,-122.45 584.22,-119.75 574.53,-115.47 573.97,-122.45"/>
</g>
<!-- Node5 -->
<g id="node5" class="node">
<title>Node5</title>
<g id="a_node5"><a xlink:href="../../dc/de6/crc_8h.html" target="_top" xlink:title="Cyclic Redundancy Check.">
<polygon fill="white" stroke="black" points="204.5,-56.5 204.5,-75.5 244.5,-75.5 244.5,-56.5 204.5,-56.5"/>
<text text-anchor="middle" x="224.5" y="-63.5" font-family="Helvetica,sans-Serif" font-size="10.00">crc.h</text>
</a>
</g>
</g>
<!-- Node1&#45;&gt;Node5 -->
<g id="edge4" class="edge">
<title>Node1&#45;&gt;Node5</title>
<path fill="none" stroke="midnightblue" d="M574.26,-119.15C516.01,-114.7 371.7,-101.81 253.5,-76 250.62,-75.37 247.61,-74.59 244.66,-73.74"/>
<polygon fill="midnightblue" stroke="midnightblue" points="574.19,-122.65 584.42,-119.9 574.71,-115.67 574.19,-122.65"/>
</g>
<!-- Node6 -->
<g id="node6" class="node">
<title>Node6</title>
<g id="a_node6"><a xlink:href="../../df/d2a/fuzzy_8h.html" target="_top" xlink:title="fuzzy operator">
<polygon fill="white" stroke="black" points="396.5,-56.5 396.5,-75.5 446.5,-75.5 446.5,-56.5 396.5,-56.5"/>
<text text-anchor="middle" x="421.5" y="-63.5" font-family="Helvetica,sans-Serif" font-size="10.00">fuzzy.h</text>
</a>
</g>
</g>
<!-- Node1&#45;&gt;Node6 -->
<g id="edge5" class="edge">
<title>Node1&#45;&gt;Node6</title>
<path fill="none" stroke="midnightblue" d="M574.55,-113.17C540.3,-102.84 480.41,-84.77 446.59,-74.57"/>
<polygon fill="midnightblue" stroke="midnightblue" points="573.71,-116.58 584.3,-116.11 575.74,-109.87 573.71,-116.58"/>
</g>
<!-- Node8 -->
<g id="node8" class="node">
<title>Node8</title>
<g id="a_node8"><a xlink:href="../../d0/d97/host_2a_8h.html" target="_top" xlink:title="algorithm library on host">
<polygon fill="white" stroke="black" points="322.5,-56.5 322.5,-75.5 378.5,-75.5 378.5,-56.5 322.5,-56.5"/>
<text text-anchor="middle" x="350.5" y="-63.5" font-family="Helvetica,sans-Serif" font-size="10.00">host/a.h</text>
</a>
</g>
</g>
<!-- Node1&#45;&gt;Node8 -->
<g id="edge7" class="edge">
<title>Node1&#45;&gt;Node8</title>
<path fill="none" stroke="midnightblue" d="M574.4,-115.75C534.19,-107.61 454.68,-91.26 387.5,-76 384.66,-75.36 381.71,-74.67 378.76,-73.97"/>
<polygon fill="midnightblue" stroke="midnightblue" points="573.94,-119.23 584.43,-117.78 575.32,-112.37 573.94,-119.23"/>
</g>
<!-- Node13 -->
<g id="node13" class="node">
<title>Node13</title>
<g id="a_node13"><a xlink:href="../../da/d23/list_8h.html" target="_top" xlink:title="circular doubly linked list implementation">
<polygon fill="white" stroke="black" points="263,-56.5 263,-75.5 304,-75.5 304,-56.5 263,-56.5"/>
<text text-anchor="middle" x="283.5" y="-63.5" font-family="Helvetica,sans-Serif" font-size="10.00">list.h</text>
</a>
</g>
</g>
<!-- Node1&#45;&gt;Node13 -->
<g id="edge12" class="edge">
<title>Node1&#45;&gt;Node13</title>
<path fill="none" stroke="midnightblue" d="M574.4,-118.11C523.72,-112.24 408.57,-97.61 313.5,-76 310.42,-75.3 307.2,-74.46 304.06,-73.57"/>
<polygon fill="midnightblue" stroke="midnightblue" points="574.16,-121.61 584.49,-119.26 574.95,-114.65 574.16,-121.61"/>
</g>
<!-- Node14 -->
<g id="node14" class="node">
<title>Node14</title>
<g id="a_node14"><a xlink:href="../../df/db1/math_8h.html" target="_top" xlink:title="mathematical algorithm library">
<polygon fill="white" stroke="black" points="465,-56.5 465,-75.5 516,-75.5 516,-56.5 465,-56.5"/>
<text text-anchor="middle" x="490.5" y="-63.5" font-family="Helvetica,sans-Serif" font-size="10.00">math.h</text>
</a>
</g>
</g>
<!-- Node1&#45;&gt;Node14 -->
<g id="edge14" class="edge">
<title>Node1&#45;&gt;Node14</title>
<path fill="none" stroke="midnightblue" d="M575.14,-108.55C554.53,-98.43 525.99,-84.42 507.89,-75.54"/>
<polygon fill="midnightblue" stroke="midnightblue" points="573.75,-111.77 584.27,-113.03 576.83,-105.48 573.75,-111.77"/>
</g>
<!-- Node15 -->
<g id="node15" class="node">
<title>Node15</title>
<g id="a_node15"><a xlink:href="../../d6/dea/mf_8h.html" target="_top" xlink:title="membership function">
<polygon fill="white" stroke="black" points="552.5,-56.5 552.5,-75.5 590.5,-75.5 590.5,-56.5 552.5,-56.5"/>
<text text-anchor="middle" x="571.5" y="-63.5" font-family="Helvetica,sans-Serif" font-size="10.00">mf.h</text>
</a>
</g>
</g>
<!-- Node1&#45;&gt;Node15 -->
<g id="edge16" class="edge">
<title>Node1&#45;&gt;Node15</title>
<path fill="none" stroke="midnightblue" d="M590.82,-102.98C585.9,-93.82 580.14,-83.09 576.2,-75.75"/>
<polygon fill="midnightblue" stroke="midnightblue" points="587.9,-104.93 595.71,-112.08 594.06,-101.62 587.9,-104.93"/>
</g>
<!-- Node16 -->
<g id="node16" class="node">
<title>Node16</title>
<g id="a_node16"><a xlink:href="../../d4/ddc/oop_8h.html" target="_top" xlink:title="Object Oriented Programming Macros.">
<polygon fill="white" stroke="black" points="608.5,-56.5 608.5,-75.5 652.5,-75.5 652.5,-56.5 608.5,-56.5"/>
<text text-anchor="middle" x="630.5" y="-63.5" font-family="Helvetica,sans-Serif" font-size="10.00">oop.h</text>
</a>
</g>
</g>
<!-- Node1&#45;&gt;Node16 -->
<g id="edge18" class="edge">
<title>Node1&#45;&gt;Node16</title>
<path fill="none" stroke="midnightblue" d="M610.35,-103.27C615.47,-94.05 621.52,-83.17 625.64,-75.75"/>
<polygon fill="midnightblue" stroke="midnightblue" points="607.25,-101.64 605.45,-112.08 613.37,-105.04 607.25,-101.64"/>
</g>
<!-- Node17 -->
<g id="node17" class="node">
<title>Node17</title>
<g id="a_node17"><a xlink:href="../../da/df0/pid_8h.html" target="_top" xlink:title="proportional integral derivative controller">
<polygon fill="white" stroke="black" points="671,-56.5 671,-75.5 712,-75.5 712,-56.5 671,-56.5"/>
<text text-anchor="middle" x="691.5" y="-63.5" font-family="Helvetica,sans-Serif" font-size="10.00">pid.h</text>
</a>
</g>
</g>
<!-- Node1&#45;&gt;Node17 -->
<g id="edge19" class="edge">
<title>Node1&#45;&gt;Node17</title>
<path fill="none" stroke="midnightblue" d="M623.79,-107.18C640.54,-97.24 662.6,-84.15 676.92,-75.65"/>
<polygon fill="midnightblue" stroke="midnightblue" points="621.93,-104.21 615.12,-112.32 625.51,-110.23 621.93,-104.21"/>
</g>
<!-- Node18 -->
<g id="node18" class="node">
<title>Node18</title>
<g id="a_node18"><a xlink:href="../../db/d57/poly_8h.html" target="_top" xlink:title="polynomial">
<polygon fill="white" stroke="black" points="730,-56.5 730,-75.5 775,-75.5 775,-56.5 730,-56.5"/>
<text text-anchor="middle" x="752.5" y="-63.5" font-family="Helvetica,sans-Serif" font-size="10.00">poly.h</text>
</a>
</g>
</g>
<!-- Node1&#45;&gt;Node18 -->
<g id="edge21" class="edge">
<title>Node1&#45;&gt;Node18</title>
<path fill="none" stroke="midnightblue" d="M626.26,-111.85C655.36,-101.51 702.27,-84.85 729.97,-75"/>
<polygon fill="midnightblue" stroke="midnightblue" points="625.02,-108.58 616.77,-115.22 627.36,-115.17 625.02,-108.58"/>
</g>
<!-- Node19 -->
<g id="node19" class="node">
<title>Node19</title>
<g id="a_node19"><a xlink:href="../../dc/d23/polytrack_8h.html" target="_top" xlink:title="polynomial trajectory">
<polygon fill="white" stroke="black" points="793,-56.5 793,-75.5 864,-75.5 864,-56.5 793,-56.5"/>
<text text-anchor="middle" x="828.5" y="-63.5" font-family="Helvetica,sans-Serif" font-size="10.00">polytrack.h</text>
</a>
</g>
</g>
<!-- Node1&#45;&gt;Node19 -->
<g id="edge22" class="edge">
<title>Node1&#45;&gt;Node19</title>
<path fill="none" stroke="midnightblue" d="M626.51,-114.84C667.35,-105.17 746.62,-86.39 792.78,-75.46"/>
<polygon fill="midnightblue" stroke="midnightblue" points="625.46,-111.49 616.53,-117.2 627.07,-118.3 625.46,-111.49"/>
</g>
<!-- Node20 -->
<g id="node20" class="node">
<title>Node20</title>
<g id="a_node20"><a xlink:href="../../d6/d1b/rbt_8h.html" target="_top" xlink:title="red–black self&#45;balancing binary search tree">
<polygon fill="white" stroke="black" points="882,-56.5 882,-75.5 921,-75.5 921,-56.5 882,-56.5"/>
<text text-anchor="middle" x="901.5" y="-63.5" font-family="Helvetica,sans-Serif" font-size="10.00">rbt.h</text>
</a>
</g>
</g>
<!-- Node1&#45;&gt;Node20 -->
<g id="edge23" class="edge">
<title>Node1&#45;&gt;Node20</title>
<path fill="none" stroke="midnightblue" d="M626.72,-117.99C675.66,-112.07 784.08,-97.62 873.5,-76 876.18,-75.35 878.98,-74.58 881.72,-73.76"/>
<polygon fill="midnightblue" stroke="midnightblue" points="626.18,-114.53 616.67,-119.18 627.01,-121.48 626.18,-114.53"/>
</g>
<!-- Node21 -->
<g id="node21" class="node">
<title>Node21</title>
<g id="a_node21"><a xlink:href="../../d1/dad/slist_8h.html" target="_top" xlink:title="circular singly linked list implementation">
<polygon fill="white" stroke="black" points="939.5,-56.5 939.5,-75.5 985.5,-75.5 985.5,-56.5 939.5,-56.5"/>
<text text-anchor="middle" x="962.5" y="-63.5" font-family="Helvetica,sans-Serif" font-size="10.00">slist.h</text>
</a>
</g>
</g>
<!-- Node1&#45;&gt;Node21 -->
<g id="edge24" class="edge">
<title>Node1&#45;&gt;Node21</title>
<path fill="none" stroke="midnightblue" d="M626.94,-118.65C683.2,-113.38 818.78,-99.21 930.5,-76 933.33,-75.41 936.27,-74.71 939.17,-73.96"/>
<polygon fill="midnightblue" stroke="midnightblue" points="626.41,-115.18 616.77,-119.59 627.05,-122.16 626.41,-115.18"/>
</g>
<!-- Node22 -->
<g id="node22" class="node">
<title>Node22</title>
<g id="a_node22"><a xlink:href="../../d2/d16/tf_8h.html" target="_top" xlink:title="transfer function">
<polygon fill="white" stroke="black" points="1003.5,-56.5 1003.5,-75.5 1035.5,-75.5 1035.5,-56.5 1003.5,-56.5"/>
<text text-anchor="middle" x="1019.5" y="-63.5" font-family="Helvetica,sans-Serif" font-size="10.00">tf.h</text>
</a>
</g>
</g>
<!-- Node1&#45;&gt;Node22 -->
<g id="edge25" class="edge">
<title>Node1&#45;&gt;Node22</title>
<path fill="none" stroke="midnightblue" d="M626.89,-120.09C690.78,-117.45 858.56,-107.78 994.5,-76 997.37,-75.33 1000.37,-74.43 1003.26,-73.46"/>
<polygon fill="midnightblue" stroke="midnightblue" points="626.72,-116.6 616.87,-120.49 627,-123.59 626.72,-116.6"/>
</g>
<!-- Node23 -->
<g id="node23" class="node">
<title>Node23</title>
<g id="a_node23"><a xlink:href="../../de/db7/utf_8h.html" target="_top" xlink:title="Unicode Transformation Format.">
<polygon fill="white" stroke="black" points="1053.5,-56.5 1053.5,-75.5 1091.5,-75.5 1091.5,-56.5 1053.5,-56.5"/>
<text text-anchor="middle" x="1072.5" y="-63.5" font-family="Helvetica,sans-Serif" font-size="10.00">utf.h</text>
</a>
</g>
</g>
<!-- Node1&#45;&gt;Node23 -->
<g id="edge26" class="edge">
<title>Node1&#45;&gt;Node23</title>
<path fill="none" stroke="midnightblue" d="M626.84,-120.26C696.01,-117.89 888.28,-108.64 1044.5,-76 1047.4,-75.39 1050.42,-74.6 1053.36,-73.74"/>
<polygon fill="midnightblue" stroke="midnightblue" points="626.7,-116.76 616.82,-120.58 626.92,-123.76 626.7,-116.76"/>
</g>
<!-- Node24 -->
<g id="node24" class="node">
<title>Node24</title>
<g id="a_node24"><a xlink:href="../../df/dfc/version_8h.html" target="_top" xlink:title="algorithm library version">
<polygon fill="white" stroke="black" points="1109.5,-56.5 1109.5,-75.5 1171.5,-75.5 1171.5,-56.5 1109.5,-56.5"/>
<text text-anchor="middle" x="1140.5" y="-63.5" font-family="Helvetica,sans-Serif" font-size="10.00">version.h</text>
</a>
</g>
</g>
<!-- Node1&#45;&gt;Node24 -->
<g id="edge27" class="edge">
<title>Node1&#45;&gt;Node24</title>
<path fill="none" stroke="midnightblue" d="M626.91,-119.85C701.62,-116.33 920.73,-104.19 1100.5,-76 1103.31,-75.56 1106.22,-75.04 1109.13,-74.47"/>
<polygon fill="midnightblue" stroke="midnightblue" points="626.4,-116.37 616.57,-120.32 626.72,-123.36 626.4,-116.37"/>
</g>
<!-- Node7 -->
<g id="node7" class="node">
<title>Node7</title>
<g id="a_node7"><a xlink:href="../../d7/d30/pid__fuzzy_8h.html" target="_top" xlink:title="fuzzy proportional integral derivative controller">
<polygon fill="white" stroke="black" points="560,-0.5 560,-19.5 631,-19.5 631,-0.5 560,-0.5"/>
<text text-anchor="middle" x="595.5" y="-7.5" font-family="Helvetica,sans-Serif" font-size="10.00">pid_fuzzy.h</text>
</a>
</g>
</g>
<!-- Node6&#45;&gt;Node7 -->
<g id="edge6" class="edge">
<title>Node6&#45;&gt;Node7</title>
<path fill="none" stroke="midnightblue" d="M456.44,-54.16C489.25,-43.97 537.68,-28.95 567.87,-19.58"/>
<polygon fill="midnightblue" stroke="midnightblue" points="455.31,-50.84 446.8,-57.15 457.39,-57.53 455.31,-50.84"/>
</g>
<!-- Node9 -->
<g id="node9" class="node">
<title>Node9</title>
<g id="a_node9"><a xlink:href="../../d9/dc9/que_8h.html" target="_top" xlink:title="basic queue library">
<polygon fill="white" stroke="black" points="209.5,-0.5 209.5,-19.5 277.5,-19.5 277.5,-0.5 209.5,-0.5"/>
<text text-anchor="middle" x="243.5" y="-7.5" font-family="Helvetica,sans-Serif" font-size="10.00">host/que.h</text>
</a>
</g>
</g>
<!-- Node8&#45;&gt;Node9 -->
<g id="edge8" class="edge">
<title>Node8&#45;&gt;Node9</title>
<path fill="none" stroke="midnightblue" d="M324.2,-51.73C304.39,-41.73 277.79,-28.31 260.65,-19.65"/>
<polygon fill="midnightblue" stroke="midnightblue" points="322.8,-54.94 333.31,-56.32 325.96,-48.69 322.8,-54.94"/>
</g>
<!-- Node10 -->
<g id="node10" class="node">
<title>Node10</title>
<g id="a_node10"><a xlink:href="../../d1/d93/str_8h.html" target="_top" xlink:title="basic string library">
<polygon fill="white" stroke="black" points="295.5,-0.5 295.5,-19.5 357.5,-19.5 357.5,-0.5 295.5,-0.5"/>
<text text-anchor="middle" x="326.5" y="-7.5" font-family="Helvetica,sans-Serif" font-size="10.00">host/str.h</text>
</a>
</g>
</g>
<!-- Node8&#45;&gt;Node10 -->
<g id="edge9" class="edge">
<title>Node8&#45;&gt;Node10</title>
<path fill="none" stroke="midnightblue" d="M342.36,-46.69C338.32,-37.59 333.62,-27.01 330.39,-19.75"/>
<polygon fill="midnightblue" stroke="midnightblue" points="339.28,-48.37 346.54,-56.08 345.67,-45.52 339.28,-48.37"/>
</g>
<!-- Node11 -->
<g id="node11" class="node">
<title>Node11</title>
<g id="a_node11"><a xlink:href="../../db/d65/vec_8h.html" target="_top" xlink:title="basic vector library">
<polygon fill="white" stroke="black" points="376,-0.5 376,-19.5 443,-19.5 443,-0.5 376,-0.5"/>
<text text-anchor="middle" x="409.5" y="-7.5" font-family="Helvetica,sans-Serif" font-size="10.00">host/vec.h</text>
</a>
</g>
</g>
<!-- Node8&#45;&gt;Node11 -->
<g id="edge10" class="edge">
<title>Node8&#45;&gt;Node11</title>
<path fill="none" stroke="midnightblue" d="M367.39,-49.54C377.91,-39.91 391.07,-27.87 399.85,-19.83"/>
<polygon fill="midnightblue" stroke="midnightblue" points="364.99,-46.99 359.98,-56.32 369.72,-52.15 364.99,-46.99"/>
</g>
<!-- Node12 -->
<g id="node12" class="node">
<title>Node12</title>
<g id="a_node12"><a xlink:href="../../d6/d68/vector_8h.html" target="_top" xlink:title="basic vector library">
<polygon fill="white" stroke="black" points="461.5,-0.5 461.5,-19.5 541.5,-19.5 541.5,-0.5 461.5,-0.5"/>
<text text-anchor="middle" x="501.5" y="-7.5" font-family="Helvetica,sans-Serif" font-size="10.00">host/vector.h</text>
</a>
</g>
</g>
<!-- Node8&#45;&gt;Node12 -->
<g id="edge11" class="edge">
<title>Node8&#45;&gt;Node12</title>
<path fill="none" stroke="midnightblue" d="M383.95,-53.04C412.36,-42.88 452.44,-28.55 477.69,-19.52"/>
<polygon fill="midnightblue" stroke="midnightblue" points="382.66,-49.78 374.43,-56.44 385.02,-56.37 382.66,-49.78"/>
</g>
<!-- Node13&#45;&gt;Node9 -->
<g id="edge13" class="edge">
<title>Node13&#45;&gt;Node9</title>
<path fill="none" stroke="midnightblue" d="M270.8,-47.86C263.87,-38.5 255.59,-27.33 249.98,-19.75"/>
<polygon fill="midnightblue" stroke="midnightblue" points="268.13,-50.13 276.89,-56.08 273.75,-45.96 268.13,-50.13"/>
</g>
<!-- Node14&#45;&gt;Node14 -->
<g id="edge15" class="edge">
<title>Node14&#45;&gt;Node14</title>
<path fill="none" stroke="midnightblue" d="M519.51,-76.45C527.7,-76.01 534,-72.52 534,-66 534,-56.92 521.81,-53.73 509.28,-56.43"/>
<polygon fill="midnightblue" stroke="midnightblue" points="519.54,-72.94 509.28,-75.57 518.94,-79.92 519.54,-72.94"/>
</g>
<!-- Node15&#45;&gt;Node7 -->
<g id="edge17" class="edge">
<title>Node15&#45;&gt;Node7</title>
<path fill="none" stroke="midnightblue" d="M579.64,-46.69C583.68,-37.59 588.38,-27.01 591.61,-19.75"/>
<polygon fill="midnightblue" stroke="midnightblue" points="576.33,-45.52 575.46,-56.08 582.72,-48.37 576.33,-45.52"/>
</g>
<!-- Node17&#45;&gt;Node7 -->
<g id="edge20" class="edge">
<title>Node17&#45;&gt;Node7</title>
<path fill="none" stroke="midnightblue" d="M666.93,-51.18C649.26,-41.24 625.99,-28.15 610.89,-19.65"/>
<polygon fill="midnightblue" stroke="midnightblue" points="665.64,-54.47 676.08,-56.32 669.08,-48.37 665.64,-54.47"/>
</g>
</g>
</svg>
