<?xml version="1.0" encoding="UTF-8" standalone="no"?>
<!DOCTYPE svg PUBLIC "-//W3C//DTD SVG 1.1//EN"
 "http://www.w3.org/Graphics/SVG/1.1/DTD/svg11.dtd">
<!-- Generated by graphviz version 2.43.0 (0)
 -->
<!-- Title: a_avl Pages: 1 -->
<svg width="121pt" height="96pt"
 viewBox="0.00 0.00 121.00 96.00" xmlns="http://www.w3.org/2000/svg" xmlns:xlink="http://www.w3.org/1999/xlink">
<g id="graph0" class="graph" transform="scale(1 1) rotate(0) translate(4 92)">
<title>a_avl</title>
<!-- Node1 -->
<g id="Node000001" class="node">
<title>Node1</title>
<g id="a_Node000001"><a xlink:title="instance structure for AVL binary search tree root">
<polygon fill="#999999" stroke="#666666" points="57.5,-19 14.5,-19 14.5,0 57.5,0 57.5,-19"/>
<text text-anchor="middle" x="36" y="-7" font-family="Helvetica,sans-Serif" font-size="10.00">a_avl</text>
</a>
</g>
</g>
<!-- Node2 -->
<g id="Node000002" class="node">
<title>Node2</title>
<g id="a_Node000002"><a xlink:href="../../d1/d0e/structa__avl__node.html" target="_top" xlink:title="instance structure for AVL binary search tree node">
<polygon fill="white" stroke="#666666" points="72,-86.5 0,-86.5 0,-67.5 72,-67.5 72,-86.5"/>
<text text-anchor="middle" x="36" y="-74.5" font-family="Helvetica,sans-Serif" font-size="10.00">a_avl_node</text>
</a>
</g>
</g>
<!-- Node2&#45;&gt;Node1 -->
<g id="edge1_Node000001_Node000002" class="edge">
<title>Node2&#45;&gt;Node1</title>
<g id="a_edge1_Node000001_Node000002"><a xlink:title=" ">
<path fill="none" stroke="#9a32cd" stroke-dasharray="5,2" d="M36,-57.18C36,-44.71 36,-28.92 36,-19.27"/>
<polygon fill="#9a32cd" stroke="#9a32cd" points="32.5,-57.44 36,-67.44 39.5,-57.44 32.5,-57.44"/>
</a>
</g>
<text text-anchor="middle" x="50" y="-40" font-family="Helvetica,sans-Serif" font-size="10.00" fill="grey"> node</text>
</g>
<!-- Node2&#45;&gt;Node2 -->
<g id="edge2_Node000002_Node000002" class="edge">
<title>Node2&#45;&gt;Node2</title>
<g id="a_edge2_Node000002_Node000002"><a xlink:title=" ">
<path fill="none" stroke="#9a32cd" stroke-dasharray="5,2" d="M82.21,-82.26C86.96,-81.22 90,-79.47 90,-77 90,-73.05 82.22,-70.93 72.09,-70.66"/>
<polygon fill="#9a32cd" stroke="#9a32cd" points="81.66,-78.8 72.09,-83.34 82.4,-85.76 81.66,-78.8"/>
</a>
</g>
<text text-anchor="middle" x="101.5" y="-80" font-family="Helvetica,sans-Serif" font-size="10.00" fill="grey"> left</text>
<text text-anchor="middle" x="101.5" y="-69" font-family="Helvetica,sans-Serif" font-size="10.00" fill="grey">right</text>
</g>
</g>
</svg>
