<?xml version="1.0" encoding="UTF-8" standalone="no"?>
<!DOCTYPE svg PUBLIC "-//W3C//DTD SVG 1.1//EN"
 "http://www.w3.org/Graphics/SVG/1.1/DTD/svg11.dtd">
<!-- Generated by graphviz version 2.43.0 (0)
 -->
<!-- Title: High Pass Filter Pages: 1 -->
<svg width="437pt" height="479pt"
 viewBox="0.00 0.00 437.00 479.00" xmlns="http://www.w3.org/2000/svg" xmlns:xlink="http://www.w3.org/1999/xlink">
<g id="graph0" class="graph" transform="scale(1 1) rotate(0) translate(4 475)">
<title>High Pass Filter</title>
<!-- Node2 -->
<g id="Node000002" class="node">
<title>Node2</title>
<g id="a_Node000002"><a xlink:href="../../df/d91/group__A.html" target="_top" xlink:title=" ">
<polygon fill="white" stroke="#666666" points="98,-234 0,-234 0,-215 98,-215 98,-234"/>
<text text-anchor="middle" x="49" y="-222" font-family="Helvetica,sans-Serif" font-size="10.00">algorithm library</text>
</a>
</g>
</g>
<!-- Node1 -->
<g id="Node000001" class="node">
<title>Node1</title>
<g id="a_Node000001"><a xlink:title=" ">
<polygon fill="#999999" stroke="#666666" points="227,-234 135,-234 135,-215 227,-215 227,-234"/>
<text text-anchor="middle" x="181" y="-222" font-family="Helvetica,sans-Serif" font-size="10.00">High Pass Filter</text>
</a>
</g>
</g>
<!-- Node2&#45;&gt;Node1 -->
<g id="edge1" class="edge">
<title>Node2&#45;&gt;Node1</title>
<path fill="none" stroke="black" d="M108.33,-224.5C117.19,-224.5 126.22,-224.5 134.75,-224.5"/>
<polygon fill="black" stroke="black" points="108.04,-221 98.04,-224.5 108.04,-228 108.04,-221"/>
</g>
<!-- Node3 -->
<g id="Node000003" class="node">
<title>Node3</title>
<g id="a_Node000003"><a xlink:href="../../df/d27/group__A__LPF.html" target="_top" xlink:title=" ">
<polygon fill="white" stroke="#666666" points="394,-471 305,-471 305,-452 394,-452 394,-471"/>
<text text-anchor="middle" x="349.5" y="-459" font-family="Helvetica,sans-Serif" font-size="10.00">Low Pass Filter</text>
</a>
</g>
</g>
<!-- Node1&#45;&gt;Node3 -->
<g id="edge2" class="edge">
<title>Node1&#45;&gt;Node3</title>
<path fill="none" stroke="blueviolet" stroke-dasharray="5,2" d="M182.7,-234.28C185.72,-268.97 200.92,-387.07 270,-442.5 279.84,-450.4 292.47,-455.09 304.7,-457.86"/>
<text text-anchor="middle" x="248.5" y="-427.5" font-family="Helvetica,sans-Serif" font-size="10.00">a</text>
</g>
<!-- Node4 -->
<g id="Node000004" class="node">
<title>Node4</title>
<g id="a_Node000004"><a xlink:href="../../d8/da8/group__A__PID.html" target="_top" xlink:title=" ">
<polygon fill="white" stroke="#666666" points="409,-433.5 290,-433.5 290,-403.5 409,-403.5 409,-433.5"/>
<text text-anchor="start" x="298" y="-421.5" font-family="Helvetica,sans-Serif" font-size="10.00">proportional integral</text>
<text text-anchor="middle" x="349.5" y="-410.5" font-family="Helvetica,sans-Serif" font-size="10.00"> derivative controller</text>
</a>
</g>
</g>
<!-- Node1&#45;&gt;Node4 -->
<g id="edge3" class="edge">
<title>Node1&#45;&gt;Node4</title>
<path fill="none" stroke="blueviolet" stroke-dasharray="5,2" d="M184.21,-234.25C191.28,-263.23 216.14,-349.6 270,-394.5 275.8,-399.34 282.57,-403.2 289.64,-406.28"/>
<text text-anchor="middle" x="248.5" y="-379.5" font-family="Helvetica,sans-Serif" font-size="10.00">a</text>
</g>
<!-- Node5 -->
<g id="Node000005" class="node">
<title>Node5</title>
<g id="a_Node000005"><a xlink:href="../../dc/db1/group__A__PID__FUZZY.html" target="_top" xlink:title=" ">
<polygon fill="white" stroke="#666666" points="404.5,-385 294.5,-385 294.5,-344 404.5,-344 404.5,-385"/>
<text text-anchor="start" x="302.5" y="-373" font-family="Helvetica,sans-Serif" font-size="10.00">fuzzy proportional</text>
<text text-anchor="start" x="302.5" y="-362" font-family="Helvetica,sans-Serif" font-size="10.00"> integral derivative</text>
<text text-anchor="middle" x="349.5" y="-351" font-family="Helvetica,sans-Serif" font-size="10.00"> controller</text>
</a>
</g>
</g>
<!-- Node1&#45;&gt;Node5 -->
<g id="edge4" class="edge">
<title>Node1&#45;&gt;Node5</title>
<path fill="none" stroke="blueviolet" stroke-dasharray="5,2" d="M187.3,-234.16C199.32,-255.25 230.69,-305.81 270,-334.5 277.31,-339.83 285.68,-344.34 294.17,-348.11"/>
<text text-anchor="middle" x="248.5" y="-319.5" font-family="Helvetica,sans-Serif" font-size="10.00">a</text>
</g>
<!-- Node6 -->
<g id="Node000006" class="node">
<title>Node6</title>
<g id="a_Node000006"><a xlink:href="../../db/d33/group__A__PID__NEURO.html" target="_top" xlink:title=" ">
<polygon fill="white" stroke="#666666" points="429,-325.5 270,-325.5 270,-295.5 429,-295.5 429,-325.5"/>
<text text-anchor="start" x="278" y="-313.5" font-family="Helvetica,sans-Serif" font-size="10.00">single neuron proportional</text>
<text text-anchor="middle" x="349.5" y="-302.5" font-family="Helvetica,sans-Serif" font-size="10.00"> integral derivative controller</text>
</a>
</g>
</g>
<!-- Node1&#45;&gt;Node6 -->
<g id="edge5" class="edge">
<title>Node1&#45;&gt;Node6</title>
<path fill="none" stroke="blueviolet" stroke-dasharray="5,2" d="M193.21,-234.19C209.25,-247.61 240.12,-271.87 270,-286.5 276.78,-289.82 284.12,-292.8 291.5,-295.42"/>
<text text-anchor="middle" x="248.5" y="-279.5" font-family="Helvetica,sans-Serif" font-size="10.00">a</text>
</g>
<!-- Node7 -->
<g id="Node000007" class="node">
<title>Node7</title>
<g id="a_Node000007"><a xlink:href="../../d0/ddd/group__A__TF.html" target="_top" xlink:title=" ">
<polygon fill="white" stroke="#666666" points="398.5,-277 300.5,-277 300.5,-258 398.5,-258 398.5,-277"/>
<text text-anchor="middle" x="349.5" y="-265" font-family="Helvetica,sans-Serif" font-size="10.00">transfer function</text>
</a>
</g>
</g>
<!-- Node1&#45;&gt;Node7 -->
<g id="edge6" class="edge">
<title>Node1&#45;&gt;Node7</title>
<path fill="none" stroke="blueviolet" stroke-dasharray="5,2" d="M216.21,-234.08C232.47,-238.57 252.21,-243.92 270,-248.5 282.36,-251.68 295.85,-255 308.11,-257.96"/>
<text text-anchor="middle" x="248.5" y="-245.5" font-family="Helvetica,sans-Serif" font-size="10.00">a</text>
</g>
<!-- Node8 -->
<g id="Node000008" class="node">
<title>Node8</title>
<g id="a_Node000008"><a xlink:href="../../d6/d1e/group__A__TRAJBELL.html" target="_top" xlink:title=" ">
<polygon fill="white" stroke="#666666" points="407.5,-239.5 291.5,-239.5 291.5,-209.5 407.5,-209.5 407.5,-239.5"/>
<text text-anchor="start" x="299.5" y="-227.5" font-family="Helvetica,sans-Serif" font-size="10.00">bell&#45;shaped velocity</text>
<text text-anchor="middle" x="349.5" y="-216.5" font-family="Helvetica,sans-Serif" font-size="10.00"> trajectory</text>
</a>
</g>
</g>
<!-- Node1&#45;&gt;Node8 -->
<g id="edge7" class="edge">
<title>Node1&#45;&gt;Node8</title>
<path fill="none" stroke="blueviolet" stroke-dasharray="5,2" d="M227.06,-224.5C246.9,-224.5 270.43,-224.5 291.47,-224.5"/>
<text text-anchor="middle" x="248.5" y="-227.5" font-family="Helvetica,sans-Serif" font-size="10.00">a</text>
</g>
<!-- Node9 -->
<g id="Node000009" class="node">
<title>Node9</title>
<g id="a_Node000009"><a xlink:href="../../d3/d9f/group__A__TRAJPOLY3.html" target="_top" xlink:title=" ">
<polygon fill="white" stroke="#666666" points="424.5,-191 274.5,-191 274.5,-172 424.5,-172 424.5,-191"/>
<text text-anchor="middle" x="349.5" y="-179" font-family="Helvetica,sans-Serif" font-size="10.00">cubic polynomial trajectory</text>
</a>
</g>
</g>
<!-- Node1&#45;&gt;Node9 -->
<g id="edge8" class="edge">
<title>Node1&#45;&gt;Node9</title>
<path fill="none" stroke="blueviolet" stroke-dasharray="5,2" d="M216.21,-214.92C232.47,-210.43 252.21,-205.08 270,-200.5 282.36,-197.32 295.85,-194 308.11,-191.04"/>
<text text-anchor="middle" x="248.5" y="-209.5" font-family="Helvetica,sans-Serif" font-size="10.00">a</text>
</g>
<!-- Node10 -->
<g id="Node000010" class="node">
<title>Node10</title>
<g id="a_Node000010"><a xlink:href="../../d2/d61/group__A__TRAJPOLY5.html" target="_top" xlink:title=" ">
<polygon fill="white" stroke="#666666" points="403,-153.5 296,-153.5 296,-123.5 403,-123.5 403,-153.5"/>
<text text-anchor="start" x="304" y="-141.5" font-family="Helvetica,sans-Serif" font-size="10.00">quintic polynomial</text>
<text text-anchor="middle" x="349.5" y="-130.5" font-family="Helvetica,sans-Serif" font-size="10.00"> trajectory</text>
</a>
</g>
</g>
<!-- Node1&#45;&gt;Node10 -->
<g id="edge9" class="edge">
<title>Node1&#45;&gt;Node10</title>
<path fill="none" stroke="blueviolet" stroke-dasharray="5,2" d="M193.53,-214.81C209.71,-201.63 240.48,-178.03 270,-163.5 278.09,-159.52 286.95,-155.99 295.71,-152.92"/>
<text text-anchor="middle" x="248.5" y="-178.5" font-family="Helvetica,sans-Serif" font-size="10.00">a</text>
</g>
<!-- Node11 -->
<g id="Node000011" class="node">
<title>Node11</title>
<g id="a_Node000011"><a xlink:href="../../d9/dab/group__A__TRAJPOLY7.html" target="_top" xlink:title=" ">
<polygon fill="white" stroke="#666666" points="425.5,-105 273.5,-105 273.5,-86 425.5,-86 425.5,-105"/>
<text text-anchor="middle" x="349.5" y="-93" font-family="Helvetica,sans-Serif" font-size="10.00">hepta polynomial trajectory</text>
</a>
</g>
</g>
<!-- Node1&#45;&gt;Node11 -->
<g id="edge10" class="edge">
<title>Node1&#45;&gt;Node11</title>
<path fill="none" stroke="blueviolet" stroke-dasharray="5,2" d="M186.87,-214.78C198.24,-193.13 228.74,-140.76 270,-114.5 276.15,-110.59 283.04,-107.48 290.12,-105.01"/>
<text text-anchor="middle" x="248.5" y="-135.5" font-family="Helvetica,sans-Serif" font-size="10.00">a</text>
</g>
<!-- Node12 -->
<g id="Node000012" class="node">
<title>Node12</title>
<g id="a_Node000012"><a xlink:href="../../d7/d57/group__A__TRAJTRAP.html" target="_top" xlink:title=" ">
<polygon fill="white" stroke="#666666" points="406,-67.5 293,-67.5 293,-37.5 406,-37.5 406,-67.5"/>
<text text-anchor="start" x="301" y="-55.5" font-family="Helvetica,sans-Serif" font-size="10.00">trapezoidal velocity</text>
<text text-anchor="middle" x="349.5" y="-44.5" font-family="Helvetica,sans-Serif" font-size="10.00"> trajectory</text>
</a>
</g>
</g>
<!-- Node1&#45;&gt;Node12 -->
<g id="edge11" class="edge">
<title>Node1&#45;&gt;Node12</title>
<path fill="none" stroke="blueviolet" stroke-dasharray="5,2" d="M184.85,-214.78C193.15,-188.2 219.99,-113.92 270,-77.5 276.82,-72.53 284.67,-68.53 292.71,-65.3"/>
<text text-anchor="middle" x="248.5" y="-101.5" font-family="Helvetica,sans-Serif" font-size="10.00">a</text>
</g>
<!-- Node13 -->
<g id="Node000013" class="node">
<title>Node13</title>
<g id="a_Node000013"><a xlink:href="../../d2/d1b/group__A__VERSION.html" target="_top" xlink:title=" ">
<polygon fill="white" stroke="#666666" points="418,-19 281,-19 281,0 418,0 418,-19"/>
<text text-anchor="middle" x="349.5" y="-7" font-family="Helvetica,sans-Serif" font-size="10.00">algorithm library version</text>
</a>
</g>
</g>
<!-- Node1&#45;&gt;Node13 -->
<g id="edge12" class="edge">
<title>Node1&#45;&gt;Node13</title>
<path fill="none" stroke="blueviolet" stroke-dasharray="5,2" d="M183.25,-214.91C187.96,-182.9 207.65,-78.93 270,-28.5 274.8,-24.62 280.26,-21.51 286.03,-19.03"/>
<text text-anchor="middle" x="248.5" y="-55.5" font-family="Helvetica,sans-Serif" font-size="10.00">a</text>
</g>
</g>
</svg>
