<?xml version="1.0" encoding="UTF-8" standalone="no"?>
<!DOCTYPE svg PUBLIC "-//W3C//DTD SVG 1.1//EN"
 "http://www.w3.org/Graphics/SVG/1.1/DTD/svg11.dtd">
<!-- Generated by graphviz version 2.43.0 (0)
 -->
<!-- Title: High Pass Filter Pages: 1 -->
<svg width="437pt" height="467pt"
 viewBox="0.00 0.00 437.00 467.00" xmlns="http://www.w3.org/2000/svg" xmlns:xlink="http://www.w3.org/1999/xlink">
<g id="graph0" class="graph" transform="scale(1 1) rotate(0) translate(4 463)">
<title>High Pass Filter</title>
<!-- Node2 -->
<g id="Node000002" class="node">
<title>Node2</title>
<g id="a_Node000002"><a xlink:href="../../df/d91/group__A.html" target="_top" xlink:title=" ">
<polygon fill="white" stroke="#666666" points="98,-222 0,-222 0,-203 98,-203 98,-222"/>
<text text-anchor="middle" x="49" y="-210" font-family="Helvetica,sans-Serif" font-size="10.00">algorithm library</text>
</a>
</g>
</g>
<!-- Node1 -->
<g id="Node000001" class="node">
<title>Node1</title>
<g id="a_Node000001"><a xlink:title=" ">
<polygon fill="#999999" stroke="#666666" points="227,-222 135,-222 135,-203 227,-203 227,-222"/>
<text text-anchor="middle" x="181" y="-210" font-family="Helvetica,sans-Serif" font-size="10.00">High Pass Filter</text>
</a>
</g>
</g>
<!-- Node2&#45;&gt;Node1 -->
<g id="edge1" class="edge">
<title>Node2&#45;&gt;Node1</title>
<path fill="none" stroke="black" d="M108.33,-212.5C117.19,-212.5 126.22,-212.5 134.75,-212.5"/>
<polygon fill="black" stroke="black" points="108.04,-209 98.04,-212.5 108.04,-216 108.04,-209"/>
</g>
<!-- Node3 -->
<g id="Node000003" class="node">
<title>Node3</title>
<g id="a_Node000003"><a xlink:href="../../df/d27/group__A__LPF.html" target="_top" xlink:title=" ">
<polygon fill="white" stroke="#666666" points="394,-459 305,-459 305,-440 394,-440 394,-459"/>
<text text-anchor="middle" x="349.5" y="-447" font-family="Helvetica,sans-Serif" font-size="10.00">Low Pass Filter</text>
</a>
</g>
</g>
<!-- Node1&#45;&gt;Node3 -->
<g id="edge2" class="edge">
<title>Node1&#45;&gt;Node3</title>
<path fill="none" stroke="blueviolet" stroke-dasharray="5,2" d="M182.7,-222.28C185.72,-256.97 200.92,-375.07 270,-430.5 279.84,-438.4 292.47,-443.09 304.7,-445.86"/>
<text text-anchor="middle" x="248.5" y="-415.5" font-family="Helvetica,sans-Serif" font-size="10.00">a</text>
</g>
<!-- Node4 -->
<g id="Node000004" class="node">
<title>Node4</title>
<g id="a_Node000004"><a xlink:href="../../d8/da8/group__A__PID.html" target="_top" xlink:title=" ">
<polygon fill="white" stroke="#666666" points="409,-421.5 290,-421.5 290,-391.5 409,-391.5 409,-421.5"/>
<text text-anchor="start" x="298" y="-409.5" font-family="Helvetica,sans-Serif" font-size="10.00">proportional integral</text>
<text text-anchor="middle" x="349.5" y="-398.5" font-family="Helvetica,sans-Serif" font-size="10.00"> derivative controller</text>
</a>
</g>
</g>
<!-- Node1&#45;&gt;Node4 -->
<g id="edge3" class="edge">
<title>Node1&#45;&gt;Node4</title>
<path fill="none" stroke="blueviolet" stroke-dasharray="5,2" d="M184.21,-222.25C191.28,-251.23 216.14,-337.6 270,-382.5 275.8,-387.34 282.57,-391.2 289.64,-394.28"/>
<text text-anchor="middle" x="248.5" y="-367.5" font-family="Helvetica,sans-Serif" font-size="10.00">a</text>
</g>
<!-- Node5 -->
<g id="Node000005" class="node">
<title>Node5</title>
<g id="a_Node000005"><a xlink:href="../../dc/db1/group__A__PID__FUZZY.html" target="_top" xlink:title=" ">
<polygon fill="white" stroke="#666666" points="404.5,-373 294.5,-373 294.5,-332 404.5,-332 404.5,-373"/>
<text text-anchor="start" x="302.5" y="-361" font-family="Helvetica,sans-Serif" font-size="10.00">fuzzy proportional</text>
<text text-anchor="start" x="302.5" y="-350" font-family="Helvetica,sans-Serif" font-size="10.00"> integral derivative</text>
<text text-anchor="middle" x="349.5" y="-339" font-family="Helvetica,sans-Serif" font-size="10.00"> controller</text>
</a>
</g>
</g>
<!-- Node1&#45;&gt;Node5 -->
<g id="edge4" class="edge">
<title>Node1&#45;&gt;Node5</title>
<path fill="none" stroke="blueviolet" stroke-dasharray="5,2" d="M187.3,-222.16C199.32,-243.25 230.69,-293.81 270,-322.5 277.31,-327.83 285.68,-332.34 294.17,-336.11"/>
<text text-anchor="middle" x="248.5" y="-307.5" font-family="Helvetica,sans-Serif" font-size="10.00">a</text>
</g>
<!-- Node6 -->
<g id="Node000006" class="node">
<title>Node6</title>
<g id="a_Node000006"><a xlink:href="../../db/d33/group__A__PID__NEURO.html" target="_top" xlink:title=" ">
<polygon fill="white" stroke="#666666" points="429,-313.5 270,-313.5 270,-283.5 429,-283.5 429,-313.5"/>
<text text-anchor="start" x="278" y="-301.5" font-family="Helvetica,sans-Serif" font-size="10.00">single neuron proportional</text>
<text text-anchor="middle" x="349.5" y="-290.5" font-family="Helvetica,sans-Serif" font-size="10.00"> integral derivative controller</text>
</a>
</g>
</g>
<!-- Node1&#45;&gt;Node6 -->
<g id="edge5" class="edge">
<title>Node1&#45;&gt;Node6</title>
<path fill="none" stroke="blueviolet" stroke-dasharray="5,2" d="M193.21,-222.19C209.25,-235.61 240.12,-259.87 270,-274.5 276.78,-277.82 284.12,-280.8 291.5,-283.42"/>
<text text-anchor="middle" x="248.5" y="-267.5" font-family="Helvetica,sans-Serif" font-size="10.00">a</text>
</g>
<!-- Node7 -->
<g id="Node000007" class="node">
<title>Node7</title>
<g id="a_Node000007"><a xlink:href="../../d4/d5e/group__A__POLYTRAJ3.html" target="_top" xlink:title=" ">
<polygon fill="white" stroke="#666666" points="424.5,-265 274.5,-265 274.5,-246 424.5,-246 424.5,-265"/>
<text text-anchor="middle" x="349.5" y="-253" font-family="Helvetica,sans-Serif" font-size="10.00">cubic polynomial trajectory</text>
</a>
</g>
</g>
<!-- Node1&#45;&gt;Node7 -->
<g id="edge6" class="edge">
<title>Node1&#45;&gt;Node7</title>
<path fill="none" stroke="blueviolet" stroke-dasharray="5,2" d="M216.21,-222.08C232.47,-226.57 252.21,-231.92 270,-236.5 282.36,-239.68 295.85,-243 308.11,-245.96"/>
<text text-anchor="middle" x="248.5" y="-233.5" font-family="Helvetica,sans-Serif" font-size="10.00">a</text>
</g>
<!-- Node8 -->
<g id="Node000008" class="node">
<title>Node8</title>
<g id="a_Node000008"><a xlink:href="../../d5/d8e/group__A__POLYTRAJ5.html" target="_top" xlink:title=" ">
<polygon fill="white" stroke="#666666" points="403,-227.5 296,-227.5 296,-197.5 403,-197.5 403,-227.5"/>
<text text-anchor="start" x="304" y="-215.5" font-family="Helvetica,sans-Serif" font-size="10.00">quintic polynomial</text>
<text text-anchor="middle" x="349.5" y="-204.5" font-family="Helvetica,sans-Serif" font-size="10.00"> trajectory</text>
</a>
</g>
</g>
<!-- Node1&#45;&gt;Node8 -->
<g id="edge7" class="edge">
<title>Node1&#45;&gt;Node8</title>
<path fill="none" stroke="blueviolet" stroke-dasharray="5,2" d="M227.06,-212.5C248.25,-212.5 273.65,-212.5 295.73,-212.5"/>
<text text-anchor="middle" x="248.5" y="-215.5" font-family="Helvetica,sans-Serif" font-size="10.00">a</text>
</g>
<!-- Node9 -->
<g id="Node000009" class="node">
<title>Node9</title>
<g id="a_Node000009"><a xlink:href="../../de/d6e/group__A__POLYTRAJ7.html" target="_top" xlink:title=" ">
<polygon fill="white" stroke="#666666" points="425.5,-179 273.5,-179 273.5,-160 425.5,-160 425.5,-179"/>
<text text-anchor="middle" x="349.5" y="-167" font-family="Helvetica,sans-Serif" font-size="10.00">hepta polynomial trajectory</text>
</a>
</g>
</g>
<!-- Node1&#45;&gt;Node9 -->
<g id="edge8" class="edge">
<title>Node1&#45;&gt;Node9</title>
<path fill="none" stroke="blueviolet" stroke-dasharray="5,2" d="M216.21,-202.92C232.47,-198.43 252.21,-193.08 270,-188.5 282.36,-185.32 295.85,-182 308.11,-179.04"/>
<text text-anchor="middle" x="248.5" y="-197.5" font-family="Helvetica,sans-Serif" font-size="10.00">a</text>
</g>
<!-- Node10 -->
<g id="Node000010" class="node">
<title>Node10</title>
<g id="a_Node000010"><a xlink:href="../../dd/dd8/group__A__RBF.html" target="_top" xlink:title=" ">
<polygon fill="white" stroke="#666666" points="407.5,-142 291.5,-142 291.5,-123 407.5,-123 407.5,-142"/>
<text text-anchor="middle" x="349.5" y="-130" font-family="Helvetica,sans-Serif" font-size="10.00">radial basis function</text>
</a>
</g>
</g>
<!-- Node1&#45;&gt;Node10 -->
<g id="edge9" class="edge">
<title>Node1&#45;&gt;Node10</title>
<path fill="none" stroke="blueviolet" stroke-dasharray="5,2" d="M192.86,-202.96C208.71,-189.52 239.64,-165.12 270,-151.5 278.44,-147.71 287.75,-144.61 296.92,-142.1"/>
<text text-anchor="middle" x="248.5" y="-166.5" font-family="Helvetica,sans-Serif" font-size="10.00">a</text>
</g>
<!-- Node11 -->
<g id="Node000011" class="node">
<title>Node11</title>
<g id="a_Node000011"><a xlink:href="../../d0/ddd/group__A__TF.html" target="_top" xlink:title=" ">
<polygon fill="white" stroke="#666666" points="398.5,-105 300.5,-105 300.5,-86 398.5,-86 398.5,-105"/>
<text text-anchor="middle" x="349.5" y="-93" font-family="Helvetica,sans-Serif" font-size="10.00">transfer function</text>
</a>
</g>
</g>
<!-- Node1&#45;&gt;Node11 -->
<g id="edge10" class="edge">
<title>Node1&#45;&gt;Node11</title>
<path fill="none" stroke="blueviolet" stroke-dasharray="5,2" d="M187.7,-202.96C200.06,-183.18 231.32,-137.59 270,-114.5 279.15,-109.04 289.79,-105.14 300.22,-102.37"/>
<text text-anchor="middle" x="248.5" y="-133.5" font-family="Helvetica,sans-Serif" font-size="10.00">a</text>
</g>
<!-- Node12 -->
<g id="Node000012" class="node">
<title>Node12</title>
<g id="a_Node000012"><a xlink:href="../../db/d75/group__A__TRAPTRAJ.html" target="_top" xlink:title=" ">
<polygon fill="white" stroke="#666666" points="406,-67.5 293,-67.5 293,-37.5 406,-37.5 406,-67.5"/>
<text text-anchor="start" x="301" y="-55.5" font-family="Helvetica,sans-Serif" font-size="10.00">trapezoidal velocity</text>
<text text-anchor="middle" x="349.5" y="-44.5" font-family="Helvetica,sans-Serif" font-size="10.00"> profile trajectory</text>
</a>
</g>
</g>
<!-- Node1&#45;&gt;Node12 -->
<g id="edge11" class="edge">
<title>Node1&#45;&gt;Node12</title>
<path fill="none" stroke="blueviolet" stroke-dasharray="5,2" d="M185.45,-202.98C194.91,-178.29 223.64,-111.74 270,-77.5 276.79,-72.49 284.62,-68.46 292.65,-65.22"/>
<text text-anchor="middle" x="248.5" y="-100.5" font-family="Helvetica,sans-Serif" font-size="10.00">a</text>
</g>
<!-- Node13 -->
<g id="Node000013" class="node">
<title>Node13</title>
<g id="a_Node000013"><a xlink:href="../../d2/d1b/group__A__VERSION.html" target="_top" xlink:title=" ">
<polygon fill="white" stroke="#666666" points="418,-19 281,-19 281,0 418,0 418,-19"/>
<text text-anchor="middle" x="349.5" y="-7" font-family="Helvetica,sans-Serif" font-size="10.00">algorithm library version</text>
</a>
</g>
</g>
<!-- Node1&#45;&gt;Node13 -->
<g id="edge12" class="edge">
<title>Node1&#45;&gt;Node13</title>
<path fill="none" stroke="blueviolet" stroke-dasharray="5,2" d="M183.64,-202.67C189.32,-171.74 211.18,-75.71 270,-28.5 274.81,-24.64 280.29,-21.54 286.06,-19.06"/>
<text text-anchor="middle" x="248.5" y="-54.5" font-family="Helvetica,sans-Serif" font-size="10.00">a</text>
</g>
</g>
</svg>
