<?xml version="1.0" encoding="UTF-8" standalone="no"?>
<!DOCTYPE svg PUBLIC "-//W3C//DTD SVG 1.1//EN"
 "http://www.w3.org/Graphics/SVG/1.1/DTD/svg11.dtd">
<!-- Generated by graphviz version 2.43.0 (0)
 -->
<!-- Title: a_avl_u Pages: 1 -->
<svg width="112pt" height="108pt"
 viewBox="0.00 0.00 111.50 108.00" xmlns="http://www.w3.org/2000/svg" xmlns:xlink="http://www.w3.org/1999/xlink">
<g id="graph0" class="graph" transform="scale(1 1) rotate(0) translate(4 104)">
<title>a_avl_u</title>
<polygon fill="white" stroke="transparent" points="-4,4 -4,-104 107.5,-104 107.5,4 -4,4"/>
<!-- Node1 -->
<g id="node1" class="node">
<title>Node1</title>
<g id="a_node1"><a xlink:title="instance structure for AVL binary search tree root">
<polygon fill="#bfbfbf" stroke="black" points="0,-0.5 0,-19.5 54,-19.5 54,-0.5 0,-0.5"/>
<text text-anchor="middle" x="27" y="-7.5" font-family="Helvetica,sans-Serif" font-size="10.00">a_avl_u</text>
</a>
</g>
</g>
<!-- Node2 -->
<g id="node2" class="node">
<title>Node2</title>
<g id="a_node2"><a xlink:href="../../d3/d18/structa__avl__s.html" target="_top" xlink:title="instance structure for AVL binary search tree node">
<polygon fill="white" stroke="black" points="0.5,-74 0.5,-93 53.5,-93 53.5,-74 0.5,-74"/>
<text text-anchor="middle" x="27" y="-81" font-family="Helvetica,sans-Serif" font-size="10.00">a_avl_s</text>
</a>
</g>
</g>
<!-- Node2&#45;&gt;Node1 -->
<g id="edge1" class="edge">
<title>Node2&#45;&gt;Node1</title>
<path fill="none" stroke="#9a32cd" stroke-dasharray="5,2" d="M27,-63.59C27,-49.43 27,-30.7 27,-19.84"/>
<polygon fill="#9a32cd" stroke="#9a32cd" points="23.5,-63.73 27,-73.73 30.5,-63.73 23.5,-63.73"/>
<text text-anchor="middle" x="41" y="-41" font-family="Helvetica,sans-Serif" font-size="10.00"> node</text>
</g>
<!-- Node2&#45;&gt;Node2 -->
<g id="edge2" class="edge">
<title>Node2&#45;&gt;Node2</title>
<path fill="none" stroke="#9a32cd" stroke-dasharray="5,2" d="M64.09,-89.96C68.57,-88.8 71.5,-86.64 71.5,-83.5 71.5,-78.34 63.61,-75.85 53.94,-76.01"/>
<polygon fill="#9a32cd" stroke="#9a32cd" points="63.53,-86.5 53.94,-90.99 64.24,-93.47 63.53,-86.5"/>
<text text-anchor="middle" x="87.5" y="-92" font-family="Helvetica,sans-Serif" font-size="10.00"> left</text>
<text text-anchor="middle" x="87.5" y="-81" font-family="Helvetica,sans-Serif" font-size="10.00">parent</text>
<text text-anchor="middle" x="87.5" y="-70" font-family="Helvetica,sans-Serif" font-size="10.00">right</text>
</g>
</g>
</svg>
