<?xml version="1.0" encoding="UTF-8" standalone="no"?>
<!DOCTYPE svg PUBLIC "-//W3C//DTD SVG 1.1//EN"
 "http://www.w3.org/Graphics/SVG/1.1/DTD/svg11.dtd">
<!-- Generated by graphviz version 2.43.0 (0)
 -->
<!-- Title: a_rbt_u Pages: 1 -->
<svg width="111pt" height="108pt"
 viewBox="0.00 0.00 110.50 108.00" xmlns="http://www.w3.org/2000/svg" xmlns:xlink="http://www.w3.org/1999/xlink">
<g id="graph0" class="graph" transform="scale(1 1) rotate(0) translate(4 104)">
<title>a_rbt_u</title>
<polygon fill="white" stroke="transparent" points="-4,4 -4,-104 106.5,-104 106.5,4 -4,4"/>
<!-- Node1 -->
<g id="node1" class="node">
<title>Node1</title>
<g id="a_node1"><a xlink:title="instance structure for red–black binary search tree root">
<polygon fill="#bfbfbf" stroke="black" points="0,-0.5 0,-19.5 53,-19.5 53,-0.5 0,-0.5"/>
<text text-anchor="middle" x="26.5" y="-7.5" font-family="Helvetica,sans-Serif" font-size="10.00">a_rbt_u</text>
</a>
</g>
</g>
<!-- Node2 -->
<g id="node2" class="node">
<title>Node2</title>
<g id="a_node2"><a xlink:href="../../dc/dad/structa__rbt__s.html" target="_top" xlink:title="instance structure for red–black binary search tree node">
<polygon fill="white" stroke="black" points="0.5,-74 0.5,-93 52.5,-93 52.5,-74 0.5,-74"/>
<text text-anchor="middle" x="26.5" y="-81" font-family="Helvetica,sans-Serif" font-size="10.00">a_rbt_s</text>
</a>
</g>
</g>
<!-- Node2&#45;&gt;Node1 -->
<g id="edge1" class="edge">
<title>Node2&#45;&gt;Node1</title>
<path fill="none" stroke="#9a32cd" stroke-dasharray="5,2" d="M26.5,-63.59C26.5,-49.43 26.5,-30.7 26.5,-19.84"/>
<polygon fill="#9a32cd" stroke="#9a32cd" points="23,-63.73 26.5,-73.73 30,-63.73 23,-63.73"/>
<text text-anchor="middle" x="40.5" y="-41" font-family="Helvetica,sans-Serif" font-size="10.00"> node</text>
</g>
<!-- Node2&#45;&gt;Node2 -->
<g id="edge2" class="edge">
<title>Node2&#45;&gt;Node2</title>
<path fill="none" stroke="#9a32cd" stroke-dasharray="5,2" d="M62.97,-90.02C67.52,-88.86 70.5,-86.69 70.5,-83.5 70.5,-78.27 62.46,-75.77 52.7,-76.02"/>
<polygon fill="#9a32cd" stroke="#9a32cd" points="62.33,-86.56 52.7,-90.98 62.98,-93.53 62.33,-86.56"/>
<text text-anchor="middle" x="86.5" y="-92" font-family="Helvetica,sans-Serif" font-size="10.00"> left</text>
<text text-anchor="middle" x="86.5" y="-81" font-family="Helvetica,sans-Serif" font-size="10.00">parent</text>
<text text-anchor="middle" x="86.5" y="-70" font-family="Helvetica,sans-Serif" font-size="10.00">right</text>
</g>
</g>
</svg>
