<?xml version="1.0" encoding="UTF-8" standalone="no"?>
<!DOCTYPE svg PUBLIC "-//W3C//DTD SVG 1.1//EN"
 "http://www.w3.org/Graphics/SVG/1.1/DTD/svg11.dtd">
<!-- Generated by graphviz version 2.43.0 (0)
 -->
<!-- Title: a_rbt_u Pages: 1 -->
<svg width="102pt" height="96pt"
 viewBox="0.00 0.00 101.50 96.00" xmlns="http://www.w3.org/2000/svg" xmlns:xlink="http://www.w3.org/1999/xlink">
<g id="graph0" class="graph" transform="scale(1 1) rotate(0) translate(4 92)">
<title>a_rbt_u</title>
<!-- Node1 -->
<g id="Node000001" class="node">
<title>Node1</title>
<g id="a_Node000001"><a xlink:title="instance structure for red–black binary search tree root">
<polygon fill="#999999" stroke="#666666" points="53,-19 0,-19 0,0 53,0 53,-19"/>
<text text-anchor="middle" x="26.5" y="-7" font-family="Helvetica,sans-Serif" font-size="10.00">a_rbt_u</text>
</a>
</g>
</g>
<!-- Node2 -->
<g id="Node000002" class="node">
<title>Node2</title>
<g id="a_Node000002"><a xlink:href="../../dc/dad/structa__rbt__s.html" target="_top" xlink:title="instance structure for red–black binary search tree node">
<polygon fill="white" stroke="#666666" points="52.5,-86.5 0.5,-86.5 0.5,-67.5 52.5,-67.5 52.5,-86.5"/>
<text text-anchor="middle" x="26.5" y="-74.5" font-family="Helvetica,sans-Serif" font-size="10.00">a_rbt_s</text>
</a>
</g>
</g>
<!-- Node2&#45;&gt;Node1 -->
<g id="edge1_Node000001_Node000002" class="edge">
<title>Node2&#45;&gt;Node1</title>
<g id="a_edge1_Node000001_Node000002"><a xlink:title=" ">
<path fill="none" stroke="#9a32cd" stroke-dasharray="5,2" d="M26.5,-57.18C26.5,-44.71 26.5,-28.92 26.5,-19.27"/>
<polygon fill="#9a32cd" stroke="#9a32cd" points="23,-57.44 26.5,-67.44 30,-57.44 23,-57.44"/>
</a>
</g>
<text text-anchor="middle" x="40.5" y="-40" font-family="Helvetica,sans-Serif" font-size="10.00" fill="grey"> node</text>
</g>
<!-- Node2&#45;&gt;Node2 -->
<g id="edge2_Node000002_Node000002" class="edge">
<title>Node2&#45;&gt;Node2</title>
<g id="a_edge2_Node000002_Node000002"><a xlink:title=" ">
<path fill="none" stroke="#9a32cd" stroke-dasharray="5,2" d="M62.97,-82.54C67.52,-81.56 70.5,-79.71 70.5,-77 70.5,-72.55 62.46,-70.43 52.7,-70.64"/>
<polygon fill="#9a32cd" stroke="#9a32cd" points="62.39,-79.07 52.7,-83.36 62.95,-86.05 62.39,-79.07"/>
</a>
</g>
<text text-anchor="middle" x="82" y="-80" font-family="Helvetica,sans-Serif" font-size="10.00" fill="grey"> left</text>
<text text-anchor="middle" x="82" y="-69" font-family="Helvetica,sans-Serif" font-size="10.00" fill="grey">right</text>
</g>
</g>
</svg>
