<?xml version="1.0" encoding="UTF-8" standalone="no"?>
<!DOCTYPE svg PUBLIC "-//W3C//DTD SVG 1.1//EN"
 "http://www.w3.org/Graphics/SVG/1.1/DTD/svg11.dtd">
<!-- Generated by graphviz version 2.43.0 (0)
 -->
<!-- Title: a_que_node_s Pages: 1 -->
<svg width="121pt" height="97pt"
 viewBox="0.00 0.00 120.50 97.00" xmlns="http://www.w3.org/2000/svg" xmlns:xlink="http://www.w3.org/1999/xlink">
<g id="graph0" class="graph" transform="scale(1 1) rotate(0) translate(4 93)">
<title>a_que_node_s</title>
<polygon fill="white" stroke="transparent" points="-4,4 -4,-93 116.5,-93 116.5,4 -4,4"/>
<!-- Node1 -->
<g id="node1" class="node">
<title>Node1</title>
<g id="a_node1"><a xlink:title="instance structure for basic queue node">
<polygon fill="#bfbfbf" stroke="black" points="0,-0.5 0,-19.5 86,-19.5 86,-0.5 0,-0.5"/>
<text text-anchor="middle" x="43" y="-7.5" font-family="Helvetica,sans-Serif" font-size="10.00">a_que_node_s</text>
</a>
</g>
</g>
<!-- Node2 -->
<g id="node2" class="node">
<title>Node2</title>
<g id="a_node2"><a xlink:href="../../d7/d8e/structa__list__s.html" target="_top" xlink:title="instance structure for circular doubly linked list">
<polygon fill="white" stroke="black" points="16.5,-68.5 16.5,-87.5 69.5,-87.5 69.5,-68.5 16.5,-68.5"/>
<text text-anchor="middle" x="43" y="-75.5" font-family="Helvetica,sans-Serif" font-size="10.00">a_list_s</text>
</a>
</g>
</g>
<!-- Node2&#45;&gt;Node1 -->
<g id="edge1" class="edge">
<title>Node2&#45;&gt;Node1</title>
<path fill="none" stroke="#9a32cd" stroke-dasharray="5,2" d="M43,-58.04C43,-45.47 43,-29.56 43,-19.84"/>
<polygon fill="#9a32cd" stroke="#9a32cd" points="39.5,-58.37 43,-68.37 46.5,-58.37 39.5,-58.37"/>
<text text-anchor="middle" x="59.5" y="-41" font-family="Helvetica,sans-Serif" font-size="10.00"> _node</text>
</g>
<!-- Node2&#45;&gt;Node2 -->
<g id="edge2" class="edge">
<title>Node2&#45;&gt;Node2</title>
<path fill="none" stroke="#9a32cd" stroke-dasharray="5,2" d="M80.09,-83.49C84.57,-82.5 87.5,-80.67 87.5,-78 87.5,-73.62 79.61,-71.49 69.94,-71.63"/>
<polygon fill="#9a32cd" stroke="#9a32cd" points="79.6,-80.02 69.94,-84.37 80.2,-87 79.6,-80.02"/>
<text text-anchor="middle" x="100" y="-81" font-family="Helvetica,sans-Serif" font-size="10.00"> next</text>
<text text-anchor="middle" x="100" y="-70" font-family="Helvetica,sans-Serif" font-size="10.00">prev</text>
</g>
</g>
</svg>
