<?xml version="1.0" encoding="UTF-8" standalone="no"?>
<!DOCTYPE svg PUBLIC "-//W3C//DTD SVG 1.1//EN"
 "http://www.w3.org/Graphics/SVG/1.1/DTD/svg11.dtd">
<!-- Generated by graphviz version 2.43.0 (0)
 -->
<!-- Title: fpid.h Pages: 1 -->
<svg width="272pt" height="196pt"
 viewBox="0.00 0.00 271.50 196.00" xmlns="http://www.w3.org/2000/svg" xmlns:xlink="http://www.w3.org/1999/xlink">
<g id="graph0" class="graph" transform="scale(1 1) rotate(0) translate(4 192)">
<title>fpid.h</title>
<polygon fill="white" stroke="transparent" points="-4,4 -4,-192 267.5,-192 267.5,4 -4,4"/>
<!-- Node1 -->
<g id="node1" class="node">
<title>Node1</title>
<g id="a_node1"><a xlink:title="fuzzy proportional integral derivative controller">
<polygon fill="#bfbfbf" stroke="black" points="114,-168.5 114,-187.5 158,-187.5 158,-168.5 114,-168.5"/>
<text text-anchor="middle" x="136" y="-175.5" font-family="Helvetica,sans-Serif" font-size="10.00">fpid.h</text>
</a>
</g>
</g>
<!-- Node2 -->
<g id="node2" class="node">
<title>Node2</title>
<g id="a_node2"><a xlink:href="../../d6/dea/mf_8h.html" target="_top" xlink:title="membership function">
<polygon fill="white" stroke="black" points="59,-112.5 59,-131.5 97,-131.5 97,-112.5 59,-112.5"/>
<text text-anchor="middle" x="78" y="-119.5" font-family="Helvetica,sans-Serif" font-size="10.00">mf.h</text>
</a>
</g>
</g>
<!-- Node1&#45;&gt;Node2 -->
<g id="edge1" class="edge">
<title>Node1&#45;&gt;Node2</title>
<path fill="none" stroke="midnightblue" d="M126.68,-168.32C118.11,-160.34 105.19,-148.31 94.81,-138.65"/>
<polygon fill="midnightblue" stroke="midnightblue" points="97.19,-136.09 87.49,-131.83 92.42,-141.21 97.19,-136.09"/>
</g>
<!-- Node8 -->
<g id="node8" class="node">
<title>Node8</title>
<g id="a_node8"><a xlink:href="../../da/df0/pid_8h.html" target="_top" xlink:title="proportional integral derivative controller">
<polygon fill="white" stroke="black" points="115.5,-112.5 115.5,-131.5 156.5,-131.5 156.5,-112.5 115.5,-112.5"/>
<text text-anchor="middle" x="136" y="-119.5" font-family="Helvetica,sans-Serif" font-size="10.00">pid.h</text>
</a>
</g>
</g>
<!-- Node1&#45;&gt;Node8 -->
<g id="edge7" class="edge">
<title>Node1&#45;&gt;Node8</title>
<path fill="none" stroke="midnightblue" d="M136,-168.08C136,-161.01 136,-150.86 136,-141.99"/>
<polygon fill="midnightblue" stroke="midnightblue" points="139.5,-141.75 136,-131.75 132.5,-141.75 139.5,-141.75"/>
</g>
<!-- Node9 -->
<g id="node9" class="node">
<title>Node9</title>
<g id="a_node9"><a xlink:href="../../df/d2a/fuzzy_8h.html" target="_top" xlink:title="fuzzy operator">
<polygon fill="white" stroke="black" points="175,-112.5 175,-131.5 225,-131.5 225,-112.5 175,-112.5"/>
<text text-anchor="middle" x="200" y="-119.5" font-family="Helvetica,sans-Serif" font-size="10.00">fuzzy.h</text>
</a>
</g>
</g>
<!-- Node1&#45;&gt;Node9 -->
<g id="edge9" class="edge">
<title>Node1&#45;&gt;Node9</title>
<path fill="none" stroke="midnightblue" d="M146.28,-168.32C155.84,-160.26 170.28,-148.08 181.78,-138.37"/>
<polygon fill="midnightblue" stroke="midnightblue" points="184.14,-140.96 189.53,-131.83 179.63,-135.61 184.14,-140.96"/>
</g>
<!-- Node3 -->
<g id="node3" class="node">
<title>Node3</title>
<g id="a_node3"><a xlink:href="../../d2/d62/a_8h.html" target="_top" xlink:title="algorithm library">
<polygon fill="white" stroke="black" points="120,-56.5 120,-75.5 152,-75.5 152,-56.5 120,-56.5"/>
<text text-anchor="middle" x="136" y="-63.5" font-family="Helvetica,sans-Serif" font-size="10.00">a.h</text>
</a>
</g>
</g>
<!-- Node2&#45;&gt;Node3 -->
<g id="edge2" class="edge">
<title>Node2&#45;&gt;Node3</title>
<path fill="none" stroke="midnightblue" d="M87.32,-112.32C95.89,-104.34 108.81,-92.31 119.19,-82.65"/>
<polygon fill="midnightblue" stroke="midnightblue" points="121.58,-85.21 126.51,-75.83 116.81,-80.09 121.58,-85.21"/>
</g>
<!-- Node4 -->
<g id="node4" class="node">
<title>Node4</title>
<g id="a_node4"><a xlink:title=" ">
<polygon fill="white" stroke="#bfbfbf" points="0,-0.5 0,-19.5 56,-19.5 56,-0.5 0,-0.5"/>
<text text-anchor="middle" x="28" y="-7.5" font-family="Helvetica,sans-Serif" font-size="10.00">stddef.h</text>
</a>
</g>
</g>
<!-- Node3&#45;&gt;Node4 -->
<g id="edge3" class="edge">
<title>Node3&#45;&gt;Node4</title>
<path fill="none" stroke="midnightblue" d="M119.6,-56.8C102.28,-48.14 74.71,-34.36 54.34,-24.17"/>
<polygon fill="midnightblue" stroke="midnightblue" points="55.78,-20.98 45.27,-19.64 52.65,-27.24 55.78,-20.98"/>
</g>
<!-- Node5 -->
<g id="node5" class="node">
<title>Node5</title>
<g id="a_node5"><a xlink:title=" ">
<polygon fill="white" stroke="#bfbfbf" points="74.5,-0.5 74.5,-19.5 127.5,-19.5 127.5,-0.5 74.5,-0.5"/>
<text text-anchor="middle" x="101" y="-7.5" font-family="Helvetica,sans-Serif" font-size="10.00">stdint.h</text>
</a>
</g>
</g>
<!-- Node3&#45;&gt;Node5 -->
<g id="edge4" class="edge">
<title>Node3&#45;&gt;Node5</title>
<path fill="none" stroke="midnightblue" d="M130.22,-56.08C125.33,-48.53 118.17,-37.49 112.17,-28.23"/>
<polygon fill="midnightblue" stroke="midnightblue" points="115.05,-26.24 106.67,-19.75 109.17,-30.05 115.05,-26.24"/>
</g>
<!-- Node6 -->
<g id="node6" class="node">
<title>Node6</title>
<g id="a_node6"><a xlink:title=" ">
<polygon fill="white" stroke="#bfbfbf" points="145.5,-0.5 145.5,-19.5 198.5,-19.5 198.5,-0.5 145.5,-0.5"/>
<text text-anchor="middle" x="172" y="-7.5" font-family="Helvetica,sans-Serif" font-size="10.00">limits.h</text>
</a>
</g>
</g>
<!-- Node3&#45;&gt;Node6 -->
<g id="edge5" class="edge">
<title>Node3&#45;&gt;Node6</title>
<path fill="none" stroke="midnightblue" d="M141.94,-56.08C146.98,-48.53 154.34,-37.49 160.51,-28.23"/>
<polygon fill="midnightblue" stroke="midnightblue" points="163.53,-30.01 166.17,-19.75 157.71,-26.13 163.53,-30.01"/>
</g>
<!-- Node7 -->
<g id="node7" class="node">
<title>Node7</title>
<g id="a_node7"><a xlink:title=" ">
<polygon fill="white" stroke="#bfbfbf" points="216.5,-0.5 216.5,-19.5 263.5,-19.5 263.5,-0.5 216.5,-0.5"/>
<text text-anchor="middle" x="240" y="-7.5" font-family="Helvetica,sans-Serif" font-size="10.00">float.h</text>
</a>
</g>
</g>
<!-- Node3&#45;&gt;Node7 -->
<g id="edge6" class="edge">
<title>Node3&#45;&gt;Node7</title>
<path fill="none" stroke="midnightblue" d="M152.25,-56.56C168.94,-47.9 195.16,-34.28 214.6,-24.19"/>
<polygon fill="midnightblue" stroke="midnightblue" points="216.26,-27.27 223.52,-19.56 213.03,-21.06 216.26,-27.27"/>
</g>
<!-- Node8&#45;&gt;Node3 -->
<g id="edge8" class="edge">
<title>Node8&#45;&gt;Node3</title>
<path fill="none" stroke="midnightblue" d="M136,-112.08C136,-105.01 136,-94.86 136,-85.99"/>
<polygon fill="midnightblue" stroke="midnightblue" points="139.5,-85.75 136,-75.75 132.5,-85.75 139.5,-85.75"/>
</g>
<!-- Node9&#45;&gt;Node3 -->
<g id="edge10" class="edge">
<title>Node9&#45;&gt;Node3</title>
<path fill="none" stroke="midnightblue" d="M189.72,-112.32C180.16,-104.26 165.72,-92.08 154.22,-82.37"/>
<polygon fill="midnightblue" stroke="midnightblue" points="156.37,-79.61 146.47,-75.83 151.86,-84.96 156.37,-79.61"/>
</g>
</g>
</svg>
