<?xml version="1.0" encoding="UTF-8" standalone="no"?>
<!DOCTYPE svg PUBLIC "-//W3C//DTD SVG 1.1//EN"
 "http://www.w3.org/Graphics/SVG/1.1/DTD/svg11.dtd">
<!-- Generated by graphviz version 2.43.0 (0)
 -->
<!-- Title: a_que_s Pages: 1 -->
<svg width="156pt" height="164pt"
 viewBox="0.00 0.00 155.50 164.00" xmlns="http://www.w3.org/2000/svg" xmlns:xlink="http://www.w3.org/1999/xlink">
<g id="graph0" class="graph" transform="scale(1 1) rotate(0) translate(4 160)">
<title>a_que_s</title>
<polygon fill="white" stroke="transparent" points="-4,4 -4,-160 151.5,-160 151.5,4 -4,4"/>
<!-- Node1 -->
<g id="node1" class="node">
<title>Node1</title>
<g id="a_node1"><a xlink:title="instance structure for basic queue">
<polygon fill="#bfbfbf" stroke="black" points="13.5,-0.5 13.5,-19.5 69.5,-19.5 69.5,-0.5 13.5,-0.5"/>
<text text-anchor="middle" x="41.5" y="-7.5" font-family="Helvetica,sans-Serif" font-size="10.00">a_que_s</text>
</a>
</g>
</g>
<!-- Node2 -->
<g id="node2" class="node">
<title>Node2</title>
<g id="a_node2"><a xlink:href="../../d0/d01/structa__que__node__s.html" target="_top" xlink:title="instance structure for basic queue node">
<polygon fill="white" stroke="black" points="61.5,-67.5 61.5,-86.5 147.5,-86.5 147.5,-67.5 61.5,-67.5"/>
<text text-anchor="middle" x="104.5" y="-74.5" font-family="Helvetica,sans-Serif" font-size="10.00">a_que_node_s</text>
</a>
</g>
</g>
<!-- Node2&#45;&gt;Node1 -->
<g id="edge1" class="edge">
<title>Node2&#45;&gt;Node1</title>
<path fill="none" stroke="#9a32cd" stroke-dasharray="5,2" d="M88.99,-60C76.63,-47.25 59.81,-29.89 49.86,-19.63"/>
<polygon fill="#9a32cd" stroke="#9a32cd" points="86.53,-62.49 96,-67.23 91.56,-57.62 86.53,-62.49"/>
<text text-anchor="middle" x="87.5" y="-41" font-family="Helvetica,sans-Serif" font-size="10.00"> _ptr</text>
</g>
<!-- Node3 -->
<g id="node3" class="node">
<title>Node3</title>
<g id="a_node3"><a xlink:href="../../d7/d8e/structa__list__s.html" target="_top" xlink:title="instance structure for circular doubly linked list">
<polygon fill="white" stroke="black" points="0,-135.5 0,-154.5 53,-154.5 53,-135.5 0,-135.5"/>
<text text-anchor="middle" x="26.5" y="-142.5" font-family="Helvetica,sans-Serif" font-size="10.00">a_list_s</text>
</a>
</g>
</g>
<!-- Node3&#45;&gt;Node1 -->
<g id="edge4" class="edge">
<title>Node3&#45;&gt;Node1</title>
<path fill="none" stroke="#9a32cd" stroke-dasharray="5,2" d="M21.95,-125.4C18.79,-109.72 15.76,-86.74 19.5,-67 22.8,-49.55 31.42,-30.58 36.84,-19.81"/>
<polygon fill="#9a32cd" stroke="#9a32cd" points="18.58,-126.38 24.17,-135.38 25.41,-124.86 18.58,-126.38"/>
<text text-anchor="middle" x="36" y="-74.5" font-family="Helvetica,sans-Serif" font-size="10.00"> _head</text>
</g>
<!-- Node3&#45;&gt;Node2 -->
<g id="edge2" class="edge">
<title>Node3&#45;&gt;Node2</title>
<path fill="none" stroke="#9a32cd" stroke-dasharray="5,2" d="M44.49,-128.77C59.85,-115.78 81.39,-97.56 94.05,-86.84"/>
<polygon fill="#9a32cd" stroke="#9a32cd" points="42.07,-126.24 36.7,-135.37 46.59,-131.58 42.07,-126.24"/>
<text text-anchor="middle" x="88" y="-108" font-family="Helvetica,sans-Serif" font-size="10.00"> _node</text>
</g>
<!-- Node3&#45;&gt;Node3 -->
<g id="edge3" class="edge">
<title>Node3&#45;&gt;Node3</title>
<path fill="none" stroke="#9a32cd" stroke-dasharray="5,2" d="M63.59,-150.49C68.07,-149.5 71,-147.67 71,-145 71,-140.62 63.11,-138.49 53.44,-138.63"/>
<polygon fill="#9a32cd" stroke="#9a32cd" points="63.1,-147.02 53.44,-151.37 63.7,-154 63.1,-147.02"/>
<text text-anchor="middle" x="83.5" y="-148" font-family="Helvetica,sans-Serif" font-size="10.00"> next</text>
<text text-anchor="middle" x="83.5" y="-137" font-family="Helvetica,sans-Serif" font-size="10.00">prev</text>
</g>
</g>
</svg>
