<?xml version="1.0" encoding="UTF-8" standalone="no"?>
<!DOCTYPE svg PUBLIC "-//W3C//DTD SVG 1.1//EN"
 "http://www.w3.org/Graphics/SVG/1.1/DTD/svg11.dtd">
<!-- Generated by graphviz version 2.43.0 (0)
 -->
<!-- Title: a_que_s Pages: 1 -->
<svg width="156pt" height="162pt"
 viewBox="0.00 0.00 155.50 162.00" xmlns="http://www.w3.org/2000/svg" xmlns:xlink="http://www.w3.org/1999/xlink">

<svg id="main" version="1.1" xmlns="http://www.w3.org/2000/svg" xmlns:xlink="http://www.w3.org/1999/xlink" xml:space="preserve" onload="init(evt)">
<style type="text/css"><![CDATA[
.node, .edge {opacity: 0.7;}
.node.selected, .edge.selected {opacity: 1;}
.edge:hover path { stroke: red; }
.edge:hover polygon { stroke: red; fill: red; }
]]></style>
<script type="application/ecmascript" xlink:href="../../svg.min.js"/>
<svg id="graph" class="graph">
<g id="graph0" class="graph" transform="scale(1 1) rotate(0) translate(4 158)">
<title>a_que_s</title>
<!-- Node1 -->
<g id="Node000001" class="node">
<title>Node1</title>
<g id="a_Node000001"><a xlink:title="instance structure for basic queue">
<polygon fill="#999999" stroke="#666666" points="69.5,-19 13.5,-19 13.5,0 69.5,0 69.5,-19"/>
<text text-anchor="middle" x="41.5" y="-7" font-family="Helvetica,sans-Serif" font-size="10.00">a_que_s</text>
</a>
</g>
</g>
<!-- Node2 -->
<g id="Node000002" class="node">
<title>Node2</title>
<g id="a_Node000002"><a xlink:href="../../d0/d01/structa__que__node__s.html" target="_top" xlink:title="instance structure for basic queue node">
<polygon fill="white" stroke="#666666" points="147.5,-85 61.5,-85 61.5,-66 147.5,-66 147.5,-85"/>
<text text-anchor="middle" x="104.5" y="-73" font-family="Helvetica,sans-Serif" font-size="10.00">a_que_node_s</text>
</a>
</g>
</g>
<!-- Node2&#45;&gt;Node1 -->
<g id="edge1_Node000001_Node000002" class="edge">
<title>Node2&#45;&gt;Node1</title>
<g id="a_edge1_Node000001_Node000002"><a xlink:title=" ">
<path fill="none" stroke="#9a32cd" stroke-dasharray="5,2" d="M88.73,-58.48C76.56,-46.12 60.19,-29.49 50.27,-19.41"/>
<polygon fill="#9a32cd" stroke="#9a32cd" points="86.49,-61.2 96,-65.87 91.48,-56.29 86.49,-61.2"/>
</a>
</g>
<text text-anchor="middle" x="87.5" y="-40" font-family="Helvetica,sans-Serif" font-size="10.00" fill="grey"> _ptr</text>
</g>
<!-- Node3 -->
<g id="Node000003" class="node">
<title>Node3</title>
<g id="a_Node000003"><a xlink:href="../../d7/d8e/structa__list__s.html" target="_top" xlink:title="instance structure for circular doubly linked list">
<polygon fill="white" stroke="#666666" points="53,-152.5 0,-152.5 0,-133.5 53,-133.5 53,-152.5"/>
<text text-anchor="middle" x="26.5" y="-140.5" font-family="Helvetica,sans-Serif" font-size="10.00">a_list_s</text>
</a>
</g>
</g>
<!-- Node3&#45;&gt;Node1 -->
<g id="edge4_Node000001_Node000003" class="edge">
<title>Node3&#45;&gt;Node1</title>
<g id="a_edge4_Node000001_Node000003"><a xlink:title=" ">
<path fill="none" stroke="#9a32cd" stroke-dasharray="5,2" d="M21.96,-123.64C18.8,-108.16 15.78,-85.48 19.5,-66 22.81,-48.69 31.42,-29.9 36.84,-19.22"/>
<polygon fill="#9a32cd" stroke="#9a32cd" points="18.56,-124.51 24.18,-133.49 25.39,-122.97 18.56,-124.51"/>
</a>
</g>
<text text-anchor="middle" x="36" y="-73" font-family="Helvetica,sans-Serif" font-size="10.00" fill="grey"> _head</text>
</g>
<!-- Node3&#45;&gt;Node2 -->
<g id="edge2_Node000002_Node000003" class="edge">
<title>Node3&#45;&gt;Node2</title>
<g id="a_edge2_Node000002_Node000003"><a xlink:title=" ">
<path fill="none" stroke="#9a32cd" stroke-dasharray="5,2" d="M44.49,-126.89C59.85,-114 81.39,-95.91 94.05,-85.27"/>
<polygon fill="#9a32cd" stroke="#9a32cd" points="42.1,-124.33 36.7,-133.44 46.61,-129.69 42.1,-124.33"/>
</a>
</g>
<text text-anchor="middle" x="88" y="-106" font-family="Helvetica,sans-Serif" font-size="10.00" fill="grey"> _node</text>
</g>
<!-- Node3&#45;&gt;Node3 -->
<g id="edge3_Node000003_Node000003" class="edge">
<title>Node3&#45;&gt;Node3</title>
<g id="a_edge3_Node000003_Node000003"><a xlink:title=" ">
<path fill="none" stroke="#9a32cd" stroke-dasharray="5,2" d="M63.59,-148.49C68.07,-147.5 71,-145.67 71,-143 71,-138.62 63.11,-136.49 53.44,-136.63"/>
<polygon fill="#9a32cd" stroke="#9a32cd" points="63.1,-145.02 53.44,-149.37 63.7,-152 63.1,-145.02"/>
</a>
</g>
<text text-anchor="middle" x="83.5" y="-146" font-family="Helvetica,sans-Serif" font-size="10.00" fill="grey"> next</text>
<text text-anchor="middle" x="83.5" y="-135" font-family="Helvetica,sans-Serif" font-size="10.00" fill="grey">prev</text>
</g>
</g>
</svg>
</svg>

<style type='text/css'>
<![CDATA[
[data-mouse-over-selected='false'] { opacity: 0.7; }
[data-mouse-over-selected='true']  { opacity: 1.0; }
]]>
</style>
<script type="application/ecmascript"><![CDATA[
document.addEventListener('DOMContentLoaded', (event) => {
  highlightEdges();
  highlightAdjacentNodes();
});
]]></script>
</svg>
