<?xml version="1.0" encoding="UTF-8" standalone="no"?>
<!DOCTYPE svg PUBLIC "-//W3C//DTD SVG 1.1//EN"
 "http://www.w3.org/Graphics/SVG/1.1/DTD/svg11.dtd">
<!-- Generated by graphviz version 2.43.0 (0)
 -->
<!-- Title: radial basis function Pages: 1 -->
<svg width="461pt" height="418pt"
 viewBox="0.00 0.00 461.00 418.00" xmlns="http://www.w3.org/2000/svg" xmlns:xlink="http://www.w3.org/1999/xlink">

<svg id="main" version="1.1" xmlns="http://www.w3.org/2000/svg" xmlns:xlink="http://www.w3.org/1999/xlink" xml:space="preserve" onload="init(evt)">
<style type="text/css"><![CDATA[
.node, .edge {opacity: 0.7;}
.node.selected, .edge.selected {opacity: 1;}
.edge:hover path { stroke: red; }
.edge:hover polygon { stroke: red; fill: red; }
]]></style>
<script type="application/ecmascript" xlink:href="../../svg.min.js"/>
<svg id="graph" class="graph">
<g id="graph0" class="graph" transform="scale(1 1) rotate(0) translate(4 414)">
<title>radial basis function</title>
<!-- Node2 -->
<g id="Node000002" class="node">
<title>Node2</title>
<g id="a_Node000002"><a xlink:href="../../df/d91/group__A.html" target="_top" xlink:title=" ">
<polygon fill="white" stroke="#666666" points="98,-200 0,-200 0,-181 98,-181 98,-200"/>
<text text-anchor="middle" x="49" y="-188" font-family="Helvetica,sans-Serif" font-size="10.00">algorithm library</text>
</a>
</g>
</g>
<!-- Node1 -->
<g id="Node000001" class="node">
<title>Node1</title>
<g id="a_Node000001"><a xlink:title=" ">
<polygon fill="#999999" stroke="#666666" points="251,-200 135,-200 135,-181 251,-181 251,-200"/>
<text text-anchor="middle" x="193" y="-188" font-family="Helvetica,sans-Serif" font-size="10.00">radial basis function</text>
</a>
</g>
</g>
<!-- Node2&#45;&gt;Node1 -->
<g id="edge1" class="edge">
<title>Node2&#45;&gt;Node1</title>
<path fill="none" stroke="black" d="M108.18,-190.5C116.91,-190.5 125.92,-190.5 134.64,-190.5"/>
<polygon fill="black" stroke="black" points="108.07,-187 98.07,-190.5 108.07,-194 108.07,-187"/>
</g>
<!-- Node3 -->
<g id="Node000003" class="node">
<title>Node3</title>
<g id="a_Node000003"><a xlink:href="../../dd/d71/group__A__HPF.html" target="_top" xlink:title=" ">
<polygon fill="white" stroke="#666666" points="419.5,-410 327.5,-410 327.5,-391 419.5,-391 419.5,-410"/>
<text text-anchor="middle" x="373.5" y="-398" font-family="Helvetica,sans-Serif" font-size="10.00">High Pass Filter</text>
</a>
</g>
</g>
<!-- Node4 -->
<g id="Node000004" class="node">
<title>Node4</title>
<g id="a_Node000004"><a xlink:href="../../df/d27/group__A__LPF.html" target="_top" xlink:title=" ">
<polygon fill="white" stroke="#666666" points="418,-373 329,-373 329,-354 418,-354 418,-373"/>
<text text-anchor="middle" x="373.5" y="-361" font-family="Helvetica,sans-Serif" font-size="10.00">Low Pass Filter</text>
</a>
</g>
</g>
<!-- Node5 -->
<g id="Node000005" class="node">
<title>Node5</title>
<g id="a_Node000005"><a xlink:href="../../d8/da8/group__A__PID.html" target="_top" xlink:title=" ">
<polygon fill="white" stroke="#666666" points="433,-335.5 314,-335.5 314,-305.5 433,-305.5 433,-335.5"/>
<text text-anchor="start" x="322" y="-323.5" font-family="Helvetica,sans-Serif" font-size="10.00">proportional integral</text>
<text text-anchor="middle" x="373.5" y="-312.5" font-family="Helvetica,sans-Serif" font-size="10.00"> derivative controller</text>
</a>
</g>
</g>
<!-- Node6 -->
<g id="Node000006" class="node">
<title>Node6</title>
<g id="a_Node000006"><a xlink:href="../../dc/db1/group__A__PID__FUZZY.html" target="_top" xlink:title=" ">
<polygon fill="white" stroke="#666666" points="428.5,-287 318.5,-287 318.5,-246 428.5,-246 428.5,-287"/>
<text text-anchor="start" x="326.5" y="-275" font-family="Helvetica,sans-Serif" font-size="10.00">fuzzy proportional</text>
<text text-anchor="start" x="326.5" y="-264" font-family="Helvetica,sans-Serif" font-size="10.00"> integral derivative</text>
<text text-anchor="middle" x="373.5" y="-253" font-family="Helvetica,sans-Serif" font-size="10.00"> controller</text>
</a>
</g>
</g>
<!-- Node7 -->
<g id="Node000007" class="node">
<title>Node7</title>
<g id="a_Node000007"><a xlink:href="../../db/d33/group__A__PID__NEURO.html" target="_top" xlink:title=" ">
<polygon fill="white" stroke="#666666" points="453,-227.5 294,-227.5 294,-197.5 453,-197.5 453,-227.5"/>
<text text-anchor="start" x="302" y="-215.5" font-family="Helvetica,sans-Serif" font-size="10.00">single neuron proportional</text>
<text text-anchor="middle" x="373.5" y="-204.5" font-family="Helvetica,sans-Serif" font-size="10.00"> integral derivative controller</text>
</a>
</g>
</g>
<!-- Node8 -->
<g id="Node000008" class="node">
<title>Node8</title>
<g id="a_Node000008"><a xlink:href="../../d4/d5e/group__A__POLYTRAJ3.html" target="_top" xlink:title=" ">
<polygon fill="white" stroke="#666666" points="448.5,-179 298.5,-179 298.5,-160 448.5,-160 448.5,-179"/>
<text text-anchor="middle" x="373.5" y="-167" font-family="Helvetica,sans-Serif" font-size="10.00">cubic polynomial trajectory</text>
</a>
</g>
</g>
<!-- Node9 -->
<g id="Node000009" class="node">
<title>Node9</title>
<g id="a_Node000009"><a xlink:href="../../d5/d8e/group__A__POLYTRAJ5.html" target="_top" xlink:title=" ">
<polygon fill="white" stroke="#666666" points="427,-141.5 320,-141.5 320,-111.5 427,-111.5 427,-141.5"/>
<text text-anchor="start" x="328" y="-129.5" font-family="Helvetica,sans-Serif" font-size="10.00">quintic polynomial</text>
<text text-anchor="middle" x="373.5" y="-118.5" font-family="Helvetica,sans-Serif" font-size="10.00"> trajectory</text>
</a>
</g>
</g>
<!-- Node10 -->
<g id="Node000010" class="node">
<title>Node10</title>
<g id="a_Node000010"><a xlink:href="../../de/d6e/group__A__POLYTRAJ7.html" target="_top" xlink:title=" ">
<polygon fill="white" stroke="#666666" points="449.5,-93 297.5,-93 297.5,-74 449.5,-74 449.5,-93"/>
<text text-anchor="middle" x="373.5" y="-81" font-family="Helvetica,sans-Serif" font-size="10.00">hepta polynomial trajectory</text>
</a>
</g>
</g>
<!-- Node1&#45;&gt;Node3 -->
<g id="edge2" class="edge">
<title>Node1&#45;&gt;Node3</title>
<path fill="none" stroke="blueviolet" stroke-dasharray="5,2" d="M195.79,-200.12C202.3,-232.18 227.91,-336.01 294,-382.5 303.72,-389.34 315.64,-393.62 327.23,-396.29"/>
<text text-anchor="middle" x="272.5" y="-366.5" font-family="Helvetica,sans-Serif" font-size="10.00">a</text>
</g>
<!-- Node1&#45;&gt;Node4 -->
<g id="edge3" class="edge">
<title>Node1&#45;&gt;Node4</title>
<path fill="none" stroke="blueviolet" stroke-dasharray="5,2" d="M197.38,-200.27C207.38,-227.72 239.63,-306 294,-344.5 304.18,-351.71 316.78,-356.21 328.87,-359"/>
<text text-anchor="middle" x="272.5" y="-331.5" font-family="Helvetica,sans-Serif" font-size="10.00">a</text>
</g>
<!-- Node1&#45;&gt;Node5 -->
<g id="edge4" class="edge">
<title>Node1&#45;&gt;Node5</title>
<path fill="none" stroke="blueviolet" stroke-dasharray="5,2" d="M200.52,-200.29C214.9,-221.12 251.44,-270.08 294,-296.5 300.17,-300.33 307,-303.59 313.98,-306.35"/>
<text text-anchor="middle" x="272.5" y="-285.5" font-family="Helvetica,sans-Serif" font-size="10.00">a</text>
</g>
<!-- Node1&#45;&gt;Node6 -->
<g id="edge5" class="edge">
<title>Node1&#45;&gt;Node6</title>
<path fill="none" stroke="blueviolet" stroke-dasharray="5,2" d="M213.75,-200.05C233.8,-209.64 265.82,-224.65 294,-236.5 301.8,-239.78 310.1,-243.11 318.26,-246.31"/>
<text text-anchor="middle" x="272.5" y="-230.5" font-family="Helvetica,sans-Serif" font-size="10.00">a</text>
</g>
<!-- Node1&#45;&gt;Node7 -->
<g id="edge6" class="edge">
<title>Node1&#45;&gt;Node7</title>
<path fill="none" stroke="blueviolet" stroke-dasharray="5,2" d="M251.46,-197.58C264.91,-199.24 279.48,-201.03 293.68,-202.79"/>
<text text-anchor="middle" x="272.5" y="-202.5" font-family="Helvetica,sans-Serif" font-size="10.00">a</text>
</g>
<!-- Node1&#45;&gt;Node8 -->
<g id="edge7" class="edge">
<title>Node1&#45;&gt;Node8</title>
<path fill="none" stroke="blueviolet" stroke-dasharray="5,2" d="M251.29,-181.8C257.26,-180.98 263.25,-180.2 269,-179.5 278.5,-178.35 288.5,-177.24 298.39,-176.21"/>
<text text-anchor="middle" x="272.5" y="-182.5" font-family="Helvetica,sans-Serif" font-size="10.00">a</text>
</g>
<!-- Node1&#45;&gt;Node9 -->
<g id="edge8" class="edge">
<title>Node1&#45;&gt;Node9</title>
<path fill="none" stroke="blueviolet" stroke-dasharray="5,2" d="M217.28,-180.94C237.45,-172.77 267.47,-160.89 294,-151.5 303.44,-148.16 313.58,-144.78 323.35,-141.63"/>
<text text-anchor="middle" x="272.5" y="-163.5" font-family="Helvetica,sans-Serif" font-size="10.00">a</text>
</g>
<!-- Node1&#45;&gt;Node10 -->
<g id="edge9" class="edge">
<title>Node1&#45;&gt;Node10</title>
<path fill="none" stroke="blueviolet" stroke-dasharray="5,2" d="M201.99,-180.88C217.67,-162.65 254.4,-123.09 294,-102.5 301.46,-98.62 309.74,-95.51 318.04,-93.03"/>
<text text-anchor="middle" x="272.5" y="-120.5" font-family="Helvetica,sans-Serif" font-size="10.00">a</text>
</g>
<!-- Node11 -->
<g id="Node000011" class="node">
<title>Node11</title>
<g id="a_Node000011"><a xlink:href="../../d0/ddd/group__A__TF.html" target="_top" xlink:title=" ">
<polygon fill="white" stroke="#666666" points="422.5,-56 324.5,-56 324.5,-37 422.5,-37 422.5,-56"/>
<text text-anchor="middle" x="373.5" y="-44" font-family="Helvetica,sans-Serif" font-size="10.00">transfer function</text>
</a>
</g>
</g>
<!-- Node1&#45;&gt;Node11 -->
<g id="edge10" class="edge">
<title>Node1&#45;&gt;Node11</title>
<path fill="none" stroke="blueviolet" stroke-dasharray="5,2" d="M198.78,-180.89C211.07,-157.24 246.17,-95.94 294,-65.5 303.11,-59.7 313.84,-55.67 324.39,-52.87"/>
<text text-anchor="middle" x="272.5" y="-86.5" font-family="Helvetica,sans-Serif" font-size="10.00">a</text>
</g>
<!-- Node12 -->
<g id="Node000012" class="node">
<title>Node12</title>
<g id="a_Node000012"><a xlink:href="../../d2/d1b/group__A__VERSION.html" target="_top" xlink:title=" ">
<polygon fill="white" stroke="#666666" points="442,-19 305,-19 305,0 442,0 442,-19"/>
<text text-anchor="middle" x="373.5" y="-7" font-family="Helvetica,sans-Serif" font-size="10.00">algorithm library version</text>
</a>
</g>
</g>
<!-- Node1&#45;&gt;Node12 -->
<g id="edge11" class="edge">
<title>Node1&#45;&gt;Node12</title>
<path fill="none" stroke="blueviolet" stroke-dasharray="5,2" d="M196.85,-180.87C205.84,-152.28 236.47,-67.47 294,-27.5 298.94,-24.07 304.43,-21.28 310.16,-19.02"/>
<text text-anchor="middle" x="272.5" y="-49.5" font-family="Helvetica,sans-Serif" font-size="10.00">a</text>
</g>
</g>
</svg>
</svg>

<style type='text/css'>
<![CDATA[
[data-mouse-over-selected='false'] { opacity: 0.7; }
[data-mouse-over-selected='true']  { opacity: 1.0; }
]]>
</style>
<script type="application/ecmascript"><![CDATA[
document.addEventListener('DOMContentLoaded', (event) => {
  highlightEdges();
  highlightAdjacentNodes();
});
]]></script>
</svg>
