<?xml version="1.0" encoding="UTF-8" standalone="no"?>
<!DOCTYPE svg PUBLIC "-//W3C//DTD SVG 1.1//EN"
 "http://www.w3.org/Graphics/SVG/1.1/DTD/svg11.dtd">
<!-- Generated by graphviz version 2.43.0 (0)
 -->
<!-- Title: slist_s Pages: 1 -->
<svg width="99pt" height="106pt"
 viewBox="0.00 0.00 99.00 106.00" xmlns="http://www.w3.org/2000/svg" xmlns:xlink="http://www.w3.org/1999/xlink">
<g id="graph0" class="graph" transform="scale(1 1) rotate(0) translate(4 102)">
<title>slist_s</title>
<polygon fill="white" stroke="transparent" points="-4,4 -4,-102 95,-102 95,4 -4,4"/>
<!-- Node1 -->
<g id="node1" class="node">
<title>Node1</title>
<g id="a_node1"><a xlink:title="Instance structure for circular singly linked list head.">
<polygon fill="#bfbfbf" stroke="black" points="0.5,-0.5 0.5,-19.5 47.5,-19.5 47.5,-0.5 0.5,-0.5"/>
<text text-anchor="middle" x="24" y="-7.5" font-family="Helvetica,sans-Serif" font-size="10.00">slist_s</text>
</a>
</g>
</g>
<!-- Node2 -->
<g id="node2" class="node">
<title>Node2</title>
<g id="a_node2"><a xlink:href="../../d3/da3/unionslist__u.html" target="_top" xlink:title="Instance structure for circular singly linked list node.">
<polygon fill="white" stroke="black" points="0,-78.5 0,-97.5 48,-97.5 48,-78.5 0,-78.5"/>
<text text-anchor="middle" x="24" y="-85.5" font-family="Helvetica,sans-Serif" font-size="10.00">slist_u</text>
</a>
</g>
</g>
<!-- Node2&#45;&gt;Node1 -->
<g id="edge1" class="edge">
<title>Node2&#45;&gt;Node1</title>
<path fill="none" stroke="#9a32cd" stroke-dasharray="5,2" d="M24,-68.22C24,-52.7 24,-31.36 24,-19.62"/>
<polygon fill="#9a32cd" stroke="#9a32cd" points="20.5,-68.28 24,-78.28 27.5,-68.28 20.5,-68.28"/>
<text text-anchor="middle" x="38" y="-52" font-family="Helvetica,sans-Serif" font-size="10.00"> head</text>
<text text-anchor="middle" x="38" y="-41" font-family="Helvetica,sans-Serif" font-size="10.00">tail</text>
</g>
<!-- Node2&#45;&gt;Node2 -->
<g id="edge2" class="edge">
<title>Node2&#45;&gt;Node2</title>
<path fill="none" stroke="#9a32cd" stroke-dasharray="5,2" d="M58.42,-94.29C62.98,-93.22 66,-91.12 66,-88 66,-82.88 57.86,-80.52 48.17,-80.92"/>
<polygon fill="#9a32cd" stroke="#9a32cd" points="57.87,-90.82 48.17,-95.08 58.41,-97.8 57.87,-90.82"/>
<text text-anchor="middle" x="78.5" y="-85.5" font-family="Helvetica,sans-Serif" font-size="10.00"> next</text>
</g>
</g>
</svg>
