<?xml version="1.0" encoding="UTF-8" standalone="no"?>
<!DOCTYPE svg PUBLIC "-//W3C//DTD SVG 1.1//EN"
 "http://www.w3.org/Graphics/SVG/1.1/DTD/svg11.dtd">
<!-- Generated by graphviz version 2.43.0 (0)
 -->
<!-- Title: math.h Pages: 1 -->
<svg width="266pt" height="247pt"
 viewBox="0.00 0.00 265.50 247.45" xmlns="http://www.w3.org/2000/svg" xmlns:xlink="http://www.w3.org/1999/xlink">
<g id="graph0" class="graph" transform="scale(1 1) rotate(0) translate(4 243.45)">
<title>math.h</title>
<!-- Node1 -->
<g id="Node000001" class="node">
<title>Node1</title>
<g id="a_Node000001"><a xlink:title="mathematical algorithm library">
<polygon fill="#999999" stroke="#666666" points="138,-239 87,-239 87,-220 138,-220 138,-239"/>
<text text-anchor="middle" x="112.5" y="-227" font-family="Helvetica,sans-Serif" font-size="10.00">math.h</text>
</a>
</g>
</g>
<!-- Node1&#45;&gt;Node1 -->
<g id="edge3_Node000001_Node000001" class="edge">
<title>Node1&#45;&gt;Node1</title>
<g id="a_edge3_Node000001_Node000001"><a xlink:title=" ">
<path fill="none" stroke="#63b8ff" d="M143.17,-239.45C150.54,-238.67 156,-235.36 156,-229.5 156,-221.17 144.95,-217.98 133.09,-219.93"/>
<polygon fill="#63b8ff" stroke="#63b8ff" points="143.21,-235.95 133.09,-239.07 142.95,-242.94 143.21,-235.95"/>
</a>
</g>
</g>
<!-- Node2 -->
<g id="Node000002" class="node">
<title>Node2</title>
<g id="a_Node000002"><a xlink:href="../../d1/df9/hpf_8h.html" target="_top" xlink:title="High Pass Filter.">
<polygon fill="white" stroke="#666666" points="41,-184 0,-184 0,-165 41,-165 41,-184"/>
<text text-anchor="middle" x="20.5" y="-172" font-family="Helvetica,sans-Serif" font-size="10.00">hpf.h</text>
</a>
</g>
</g>
<!-- Node1&#45;&gt;Node2 -->
<g id="edge1_Node000001_Node000002" class="edge">
<title>Node1&#45;&gt;Node2</title>
<g id="a_edge1_Node000001_Node000002"><a xlink:title=" ">
<path fill="none" stroke="#63b8ff" d="M89.01,-214.97C72.19,-205.28 50.05,-192.52 35.55,-184.17"/>
<polygon fill="#63b8ff" stroke="#63b8ff" points="87.31,-218.03 97.72,-219.98 90.8,-211.96 87.31,-218.03"/>
</a>
</g>
</g>
<!-- Node3 -->
<g id="Node000003" class="node">
<title>Node3</title>
<g id="a_Node000003"><a xlink:href="../../db/d80/lpf_8h.html" target="_top" xlink:title="Low Pass Filter.">
<polygon fill="white" stroke="#666666" points="97.5,-184 59.5,-184 59.5,-165 97.5,-165 97.5,-184"/>
<text text-anchor="middle" x="78.5" y="-172" font-family="Helvetica,sans-Serif" font-size="10.00">lpf.h</text>
</a>
</g>
</g>
<!-- Node1&#45;&gt;Node3 -->
<g id="edge2_Node000001_Node000003" class="edge">
<title>Node1&#45;&gt;Node3</title>
<g id="a_edge2_Node000001_Node000003"><a xlink:title=" ">
<path fill="none" stroke="#63b8ff" d="M101.34,-211.1C95.53,-202.04 88.68,-191.37 84.01,-184.09"/>
<polygon fill="#63b8ff" stroke="#63b8ff" points="98.54,-213.22 106.89,-219.75 104.43,-209.44 98.54,-213.22"/>
</a>
</g>
</g>
<!-- Node4 -->
<g id="Node000004" class="node">
<title>Node4</title>
<g id="a_Node000004"><a xlink:href="../../d1/d03/vector2_8h.html" target="_top" xlink:title="two&#45;dimensional vector">
<polygon fill="white" stroke="#666666" points="177.5,-184 115.5,-184 115.5,-165 177.5,-165 177.5,-184"/>
<text text-anchor="middle" x="146.5" y="-172" font-family="Helvetica,sans-Serif" font-size="10.00">vector2.h</text>
</a>
</g>
</g>
<!-- Node1&#45;&gt;Node4 -->
<g id="edge4_Node000001_Node000004" class="edge">
<title>Node1&#45;&gt;Node4</title>
<g id="a_edge4_Node000001_Node000004"><a xlink:title=" ">
<path fill="none" stroke="#63b8ff" d="M123.66,-211.1C129.47,-202.04 136.32,-191.37 140.99,-184.09"/>
<polygon fill="#63b8ff" stroke="#63b8ff" points="120.57,-209.44 118.11,-219.75 126.46,-213.22 120.57,-209.44"/>
</a>
</g>
</g>
<!-- Node7 -->
<g id="Node000007" class="node">
<title>Node7</title>
<g id="a_Node000007"><a xlink:href="../../d0/d7e/vector3_8h.html" target="_top" xlink:title="three&#45;dimensional vector">
<polygon fill="white" stroke="#666666" points="257.5,-184 195.5,-184 195.5,-165 257.5,-165 257.5,-184"/>
<text text-anchor="middle" x="226.5" y="-172" font-family="Helvetica,sans-Serif" font-size="10.00">vector3.h</text>
</a>
</g>
</g>
<!-- Node1&#45;&gt;Node7 -->
<g id="edge7_Node000001_Node000007" class="edge">
<title>Node1&#45;&gt;Node7</title>
<g id="a_edge7_Node000001_Node000007"><a xlink:title=" ">
<path fill="none" stroke="#63b8ff" d="M139.89,-215.77C160.92,-205.99 189.39,-192.75 207.85,-184.17"/>
<polygon fill="#63b8ff" stroke="#63b8ff" points="138.41,-212.6 130.82,-219.98 141.36,-218.94 138.41,-212.6"/>
</a>
</g>
</g>
<!-- Node5 -->
<g id="Node000005" class="node">
<title>Node5</title>
<g id="a_Node000005"><a xlink:href="../../df/d7b/point2_8h.html" target="_top" xlink:title="two&#45;dimensional point">
<polygon fill="white" stroke="#666666" points="174.5,-129 118.5,-129 118.5,-110 174.5,-110 174.5,-129"/>
<text text-anchor="middle" x="146.5" y="-117" font-family="Helvetica,sans-Serif" font-size="10.00">point2.h</text>
</a>
</g>
</g>
<!-- Node4&#45;&gt;Node5 -->
<g id="edge5_Node000004_Node000005" class="edge">
<title>Node4&#45;&gt;Node5</title>
<g id="a_edge5_Node000004_Node000005"><a xlink:title=" ">
<path fill="none" stroke="#63b8ff" d="M146.5,-154.66C146.5,-145.93 146.5,-135.99 146.5,-129.09"/>
<polygon fill="#63b8ff" stroke="#63b8ff" points="143,-154.75 146.5,-164.75 150,-154.75 143,-154.75"/>
</a>
</g>
</g>
<!-- Node6 -->
<g id="Node000006" class="node">
<title>Node6</title>
<g id="a_Node000006"><a xlink:href="../../de/d8d/line2_8h.html" target="_top" xlink:title="two&#45;dimensional line">
<polygon fill="white" stroke="#666666" points="171.5,-74 121.5,-74 121.5,-55 171.5,-55 171.5,-74"/>
<text text-anchor="middle" x="146.5" y="-62" font-family="Helvetica,sans-Serif" font-size="10.00">line2.h</text>
</a>
</g>
</g>
<!-- Node5&#45;&gt;Node6 -->
<g id="edge6_Node000005_Node000006" class="edge">
<title>Node5&#45;&gt;Node6</title>
<g id="a_edge6_Node000005_Node000006"><a xlink:title=" ">
<path fill="none" stroke="#63b8ff" d="M146.5,-99.66C146.5,-90.93 146.5,-80.99 146.5,-74.09"/>
<polygon fill="#63b8ff" stroke="#63b8ff" points="143,-99.75 146.5,-109.75 150,-99.75 143,-99.75"/>
</a>
</g>
</g>
<!-- Node8 -->
<g id="Node000008" class="node">
<title>Node8</title>
<g id="a_Node000008"><a xlink:href="../../d1/d0b/point3_8h.html" target="_top" xlink:title="three&#45;dimensional point">
<polygon fill="white" stroke="#666666" points="254.5,-129 198.5,-129 198.5,-110 254.5,-110 254.5,-129"/>
<text text-anchor="middle" x="226.5" y="-117" font-family="Helvetica,sans-Serif" font-size="10.00">point3.h</text>
</a>
</g>
</g>
<!-- Node7&#45;&gt;Node8 -->
<g id="edge8_Node000007_Node000008" class="edge">
<title>Node7&#45;&gt;Node8</title>
<g id="a_edge8_Node000007_Node000008"><a xlink:title=" ">
<path fill="none" stroke="#63b8ff" d="M226.5,-154.66C226.5,-145.93 226.5,-135.99 226.5,-129.09"/>
<polygon fill="#63b8ff" stroke="#63b8ff" points="223,-154.75 226.5,-164.75 230,-154.75 223,-154.75"/>
</a>
</g>
</g>
<!-- Node9 -->
<g id="Node000009" class="node">
<title>Node9</title>
<g id="a_Node000009"><a xlink:href="../../d2/de1/line3_8h.html" target="_top" xlink:title="three&#45;dimensional line">
<polygon fill="white" stroke="#666666" points="251.5,-74 201.5,-74 201.5,-55 251.5,-55 251.5,-74"/>
<text text-anchor="middle" x="226.5" y="-62" font-family="Helvetica,sans-Serif" font-size="10.00">line3.h</text>
</a>
</g>
</g>
<!-- Node8&#45;&gt;Node9 -->
<g id="edge9_Node000008_Node000009" class="edge">
<title>Node8&#45;&gt;Node9</title>
<g id="a_edge9_Node000008_Node000009"><a xlink:title=" ">
<path fill="none" stroke="#63b8ff" d="M226.5,-99.66C226.5,-90.93 226.5,-80.99 226.5,-74.09"/>
<polygon fill="#63b8ff" stroke="#63b8ff" points="223,-99.75 226.5,-109.75 230,-99.75 223,-99.75"/>
</a>
</g>
</g>
<!-- Node10 -->
<g id="Node000010" class="node">
<title>Node10</title>
<g id="a_Node000010"><a xlink:href="../../db/d8b/plane_8h.html" target="_top" xlink:title="three&#45;dimensional plane">
<polygon fill="white" stroke="#666666" points="253,-19 200,-19 200,0 253,0 253,-19"/>
<text text-anchor="middle" x="226.5" y="-7" font-family="Helvetica,sans-Serif" font-size="10.00">plane.h</text>
</a>
</g>
</g>
<!-- Node9&#45;&gt;Node10 -->
<g id="edge10_Node000009_Node000010" class="edge">
<title>Node9&#45;&gt;Node10</title>
<g id="a_edge10_Node000009_Node000010"><a xlink:title=" ">
<path fill="none" stroke="#63b8ff" d="M226.5,-44.66C226.5,-35.93 226.5,-25.99 226.5,-19.09"/>
<polygon fill="#63b8ff" stroke="#63b8ff" points="223,-44.75 226.5,-54.75 230,-44.75 223,-44.75"/>
</a>
</g>
</g>
</g>
</svg>
