<?xml version="1.0" encoding="UTF-8" standalone="no"?>
<!DOCTYPE svg PUBLIC "-//W3C//DTD SVG 1.1//EN"
 "http://www.w3.org/Graphics/SVG/1.1/DTD/svg11.dtd">
<!-- Generated by graphviz version 2.43.0 (0)
 -->
<!-- Title: math.h Pages: 1 -->
<svg width="77pt" height="84pt"
 viewBox="0.00 0.00 77.00 84.45" xmlns="http://www.w3.org/2000/svg" xmlns:xlink="http://www.w3.org/1999/xlink">
<g id="graph0" class="graph" transform="scale(1 1) rotate(0) translate(4 80.45)">
<title>math.h</title>
<polygon fill="white" stroke="transparent" points="-4,4 -4,-80.45 73,-80.45 73,4 -4,4"/>
<!-- Node1 -->
<g id="node1" class="node">
<title>Node1</title>
<g id="a_node1"><a xlink:title="mathematical algorithm library">
<polygon fill="#bfbfbf" stroke="black" points="0,-56.5 0,-75.5 51,-75.5 51,-56.5 0,-56.5"/>
<text text-anchor="middle" x="25.5" y="-63.5" font-family="Helvetica,sans-Serif" font-size="10.00">math.h</text>
</a>
</g>
</g>
<!-- Node1&#45;&gt;Node1 -->
<g id="edge1" class="edge">
<title>Node1&#45;&gt;Node1</title>
<path fill="none" stroke="midnightblue" d="M54.51,-76.45C62.7,-76.01 69,-72.52 69,-66 69,-56.92 56.81,-53.73 44.28,-56.43"/>
<polygon fill="midnightblue" stroke="midnightblue" points="54.54,-72.94 44.28,-75.57 53.94,-79.92 54.54,-72.94"/>
</g>
<!-- Node2 -->
<g id="node2" class="node">
<title>Node2</title>
<g id="a_node2"><a xlink:href="../../d5/d1e/real_8h.html" target="_top" xlink:title="real number">
<polygon fill="white" stroke="black" points="3.5,-0.5 3.5,-19.5 47.5,-19.5 47.5,-0.5 3.5,-0.5"/>
<text text-anchor="middle" x="25.5" y="-7.5" font-family="Helvetica,sans-Serif" font-size="10.00">real.h</text>
</a>
</g>
</g>
<!-- Node1&#45;&gt;Node2 -->
<g id="edge2" class="edge">
<title>Node1&#45;&gt;Node2</title>
<path fill="none" stroke="midnightblue" d="M25.5,-45.8C25.5,-36.91 25.5,-26.78 25.5,-19.75"/>
<polygon fill="midnightblue" stroke="midnightblue" points="22,-46.08 25.5,-56.08 29,-46.08 22,-46.08"/>
</g>
</g>
</svg>
