<?xml version="1.0" encoding="UTF-8" standalone="no"?>
<!DOCTYPE svg PUBLIC "-//W3C//DTD SVG 1.1//EN"
 "http://www.w3.org/Graphics/SVG/1.1/DTD/svg11.dtd">
<!-- Generated by graphviz version 2.43.0 (0)
 -->
<!-- Title: math.h Pages: 1 -->
<svg width="106pt" height="84pt"
 viewBox="0.00 0.00 105.50 84.45" xmlns="http://www.w3.org/2000/svg" xmlns:xlink="http://www.w3.org/1999/xlink">
<g id="graph0" class="graph" transform="scale(1 1) rotate(0) translate(4 80.45)">
<title>math.h</title>
<polygon fill="white" stroke="transparent" points="-4,4 -4,-80.45 101.5,-80.45 101.5,4 -4,4"/>
<!-- Node1 -->
<g id="node1" class="node">
<title>Node1</title>
<g id="a_node1"><a xlink:title="mathematical algorithm library">
<polygon fill="#bfbfbf" stroke="black" points="24,-56.5 24,-75.5 75,-75.5 75,-56.5 24,-56.5"/>
<text text-anchor="middle" x="49.5" y="-63.5" font-family="Helvetica,sans-Serif" font-size="10.00">math.h</text>
</a>
</g>
</g>
<!-- Node1&#45;&gt;Node1 -->
<g id="edge3" class="edge">
<title>Node1&#45;&gt;Node1</title>
<path fill="none" stroke="midnightblue" d="M78.51,-76.45C86.7,-76.01 93,-72.52 93,-66 93,-56.92 80.81,-53.73 68.28,-56.43"/>
<polygon fill="midnightblue" stroke="midnightblue" points="78.54,-72.94 68.28,-75.57 77.94,-79.92 78.54,-72.94"/>
</g>
<!-- Node2 -->
<g id="node2" class="node">
<title>Node2</title>
<g id="a_node2"><a xlink:href="../../d1/df9/hpf_8h.html" target="_top" xlink:title="High Pass Filter.">
<polygon fill="white" stroke="black" points="0,-0.5 0,-19.5 41,-19.5 41,-0.5 0,-0.5"/>
<text text-anchor="middle" x="20.5" y="-7.5" font-family="Helvetica,sans-Serif" font-size="10.00">hpf.h</text>
</a>
</g>
</g>
<!-- Node1&#45;&gt;Node2 -->
<g id="edge1" class="edge">
<title>Node1&#45;&gt;Node2</title>
<path fill="none" stroke="midnightblue" d="M39.82,-46.98C34.9,-37.82 29.14,-27.09 25.2,-19.75"/>
<polygon fill="midnightblue" stroke="midnightblue" points="36.9,-48.93 44.71,-56.08 43.06,-45.62 36.9,-48.93"/>
</g>
<!-- Node3 -->
<g id="node3" class="node">
<title>Node3</title>
<g id="a_node3"><a xlink:href="../../db/d80/lpf_8h.html" target="_top" xlink:title="Low Pass Filter.">
<polygon fill="white" stroke="black" points="59.5,-0.5 59.5,-19.5 97.5,-19.5 97.5,-0.5 59.5,-0.5"/>
<text text-anchor="middle" x="78.5" y="-7.5" font-family="Helvetica,sans-Serif" font-size="10.00">lpf.h</text>
</a>
</g>
</g>
<!-- Node1&#45;&gt;Node3 -->
<g id="edge2" class="edge">
<title>Node1&#45;&gt;Node3</title>
<path fill="none" stroke="midnightblue" d="M59.18,-46.98C64.1,-37.82 69.86,-27.09 73.8,-19.75"/>
<polygon fill="midnightblue" stroke="midnightblue" points="55.94,-45.62 54.29,-56.08 62.1,-48.93 55.94,-45.62"/>
</g>
</g>
</svg>
