<?xml version="1.0" encoding="UTF-8" standalone="no"?>
<!DOCTYPE svg PUBLIC "-//W3C//DTD SVG 1.1//EN"
 "http://www.w3.org/Graphics/SVG/1.1/DTD/svg11.dtd">
<!-- Generated by graphviz version 2.43.0 (0)
 -->
<!-- Title: a_list_del_prev Pages: 1 -->
<svg width="273pt" height="150pt"
 viewBox="0.00 0.00 273.00 150.00" xmlns="http://www.w3.org/2000/svg" xmlns:xlink="http://www.w3.org/1999/xlink">

<svg id="main" version="1.1" xmlns="http://www.w3.org/2000/svg" xmlns:xlink="http://www.w3.org/1999/xlink" xml:space="preserve" onload="init(evt)">
<style type="text/css"><![CDATA[
.node, .edge {opacity: 0.7;}
.node.selected, .edge.selected {opacity: 1;}
.edge:hover path { stroke: red; }
.edge:hover polygon { stroke: red; fill: red; }
]]></style>
<script type="application/ecmascript" xlink:href="svg.min.js"/>
<svg id="graph" class="graph">
<g id="graph0" class="graph" transform="scale(1 1) rotate(0) translate(4 146)">
<title>a_list_del_prev</title>
<polygon fill="white" stroke="transparent" points="-4,4 -4,-146 269,-146 269,4 -4,4"/>
<g id="clust1" class="cluster">
<title>cluster0</title>
<polygon fill="none" stroke="black" points="67,-81 67,-134 257,-134 257,-81 67,-81"/>
</g>
<g id="clust2" class="cluster">
<title>cluster1</title>
<polygon fill="none" stroke="black" points="8,-8 8,-61 244,-61 244,-8 8,-8"/>
</g>
<!-- 1 -->
<g id="node1" class="node">
<title>1</title>
<polygon fill="none" stroke="black" points="75,-89.5 75,-125.5 249,-125.5 249,-89.5 75,-89.5"/>
<text text-anchor="middle" x="88" y="-103.8" font-family="Times,serif" font-size="14.00">0</text>
<polyline fill="none" stroke="black" points="101,-89.5 101,-125.5 "/>
<text text-anchor="middle" x="125.5" y="-103.8" font-family="Times,serif" font-size="14.00">prev</text>
<polyline fill="none" stroke="black" points="150,-89.5 150,-125.5 "/>
<text text-anchor="middle" x="175.5" y="-103.8" font-family="Times,serif" font-size="14.00">node</text>
<polyline fill="none" stroke="black" points="201,-89.5 201,-125.5 "/>
<text text-anchor="middle" x="225" y="-103.8" font-family="Times,serif" font-size="14.00">next</text>
</g>
<!-- 2 -->
<g id="node2" class="node">
<title>2</title>
<polygon fill="none" stroke="black" points="88,-16.5 88,-52.5 236,-52.5 236,-16.5 88,-16.5"/>
<text text-anchor="middle" x="112.5" y="-30.8" font-family="Times,serif" font-size="14.00">prev</text>
<polyline fill="none" stroke="black" points="137,-16.5 137,-52.5 "/>
<text text-anchor="middle" x="162.5" y="-30.8" font-family="Times,serif" font-size="14.00">node</text>
<polyline fill="none" stroke="black" points="188,-16.5 188,-52.5 "/>
<text text-anchor="middle" x="212" y="-30.8" font-family="Times,serif" font-size="14.00">next</text>
</g>
<!-- 1&#45;&gt;2 -->
<g id="edge1" class="edge">
<title>1&#45;&gt;2</title>
<path fill="none" stroke="black" d="M162,-89.31C162,-81.29 162,-71.55 162,-62.57"/>
<polygon fill="black" stroke="black" points="165.5,-62.53 162,-52.53 158.5,-62.53 165.5,-62.53"/>
</g>
<!-- 0 -->
<g id="node3" class="node">
<title>0</title>
<polygon fill="none" stroke="black" points="16,-16.5 16,-52.5 70,-52.5 70,-16.5 16,-16.5"/>
<text text-anchor="middle" x="43" y="-30.8" font-family="Times,serif" font-size="14.00">0</text>
</g>
</g>
</svg>
</svg>

<style type='text/css'>
<![CDATA[
[data-mouse-over-selected='false'] { opacity: 0.7; }
[data-mouse-over-selected='true']  { opacity: 1.0; }
]]>
</style>
<script type="application/ecmascript"><![CDATA[
document.addEventListener('DOMContentLoaded', (event) => {
  highlightEdges();
  highlightAdjacentNodes();
});
]]></script>
</svg>
