<?xml version="1.0" encoding="UTF-8" standalone="no"?>
<!DOCTYPE svg PUBLIC "-//W3C//DTD SVG 1.1//EN"
 "http://www.w3.org/Graphics/SVG/1.1/DTD/svg11.dtd">
<!-- Generated by graphviz version 2.43.0 (0)
 -->
<!-- Title: a_list_del_next Pages: 1 -->
<svg width="273pt" height="150pt"
 viewBox="0.00 0.00 273.00 150.00" xmlns="http://www.w3.org/2000/svg" xmlns:xlink="http://www.w3.org/1999/xlink">
<g id="graph0" class="graph" transform="scale(1 1) rotate(0) translate(4 146)">
<title>a_list_del_next</title>
<polygon fill="white" stroke="transparent" points="-4,4 -4,-146 269,-146 269,4 -4,4"/>
<g id="clust1" class="cluster">
<title>cluster0</title>
<polygon fill="none" stroke="black" points="8,-81 8,-134 198,-134 198,-81 8,-81"/>
</g>
<g id="clust2" class="cluster">
<title>cluster1</title>
<polygon fill="none" stroke="black" points="21,-8 21,-61 257,-61 257,-8 21,-8"/>
</g>
<!-- 1 -->
<g id="node1" class="node">
<title>1</title>
<polygon fill="none" stroke="black" points="16,-89.5 16,-125.5 190,-125.5 190,-89.5 16,-89.5"/>
<text text-anchor="middle" x="40.5" y="-103.8" font-family="Times,serif" font-size="14.00">prev</text>
<polyline fill="none" stroke="black" points="65,-89.5 65,-125.5 "/>
<text text-anchor="middle" x="90.5" y="-103.8" font-family="Times,serif" font-size="14.00">node</text>
<polyline fill="none" stroke="black" points="116,-89.5 116,-125.5 "/>
<text text-anchor="middle" x="140" y="-103.8" font-family="Times,serif" font-size="14.00">next</text>
<polyline fill="none" stroke="black" points="164,-89.5 164,-125.5 "/>
<text text-anchor="middle" x="177" y="-103.8" font-family="Times,serif" font-size="14.00">0</text>
</g>
<!-- 2 -->
<g id="node3" class="node">
<title>2</title>
<polygon fill="none" stroke="black" points="29,-16.5 29,-52.5 177,-52.5 177,-16.5 29,-16.5"/>
<text text-anchor="middle" x="53.5" y="-30.8" font-family="Times,serif" font-size="14.00">prev</text>
<polyline fill="none" stroke="black" points="78,-16.5 78,-52.5 "/>
<text text-anchor="middle" x="103.5" y="-30.8" font-family="Times,serif" font-size="14.00">node</text>
<polyline fill="none" stroke="black" points="129,-16.5 129,-52.5 "/>
<text text-anchor="middle" x="153" y="-30.8" font-family="Times,serif" font-size="14.00">next</text>
</g>
<!-- 1&#45;&gt;2 -->
<g id="edge1" class="edge">
<title>1&#45;&gt;2</title>
<path fill="none" stroke="black" d="M103,-89.31C103,-81.29 103,-71.55 103,-62.57"/>
<polygon fill="black" stroke="black" points="106.5,-62.53 103,-52.53 99.5,-62.53 106.5,-62.53"/>
</g>
<!-- 0 -->
<g id="node2" class="node">
<title>0</title>
<polygon fill="none" stroke="black" points="195,-16.5 195,-52.5 249,-52.5 249,-16.5 195,-16.5"/>
<text text-anchor="middle" x="222" y="-30.8" font-family="Times,serif" font-size="14.00">0</text>
</g>
</g>
</svg>
