<?xml version="1.0" encoding="UTF-8" standalone="no"?>
<!DOCTYPE svg PUBLIC "-//W3C//DTD SVG 1.1//EN"
 "http://www.w3.org/Graphics/SVG/1.1/DTD/svg11.dtd">
<!-- Generated by graphviz version 2.43.0 (0)
 -->
<!-- Title: a_list_rot_next Pages: 1 -->
<svg width="310pt" height="170pt"
 viewBox="0.00 0.00 310.00 170.00" xmlns="http://www.w3.org/2000/svg" xmlns:xlink="http://www.w3.org/1999/xlink">
<g id="graph0" class="graph" transform="scale(1 1) rotate(0) translate(4 166)">
<title>a_list_rot_next</title>
<polygon fill="white" stroke="transparent" points="-4,4 -4,-166 306,-166 306,4 -4,4"/>
<g id="clust1" class="cluster">
<title>cluster0</title>
<polygon fill="none" stroke="black" points="8,-81 8,-134 276,-134 276,-81 8,-81"/>
</g>
<g id="clust2" class="cluster">
<title>cluster1</title>
<polygon fill="none" stroke="black" points="8,-8 8,-61 294,-61 294,-8 8,-8"/>
</g>
<!-- 1 -->
<g id="node1" class="node">
<title>1</title>
<polygon fill="none" stroke="black" points="16,-89.5 16,-125.5 268,-125.5 268,-89.5 16,-89.5"/>
<text text-anchor="middle" x="29" y="-103.8" font-family="Times,serif" font-size="14.00">0</text>
<polyline fill="none" stroke="black" points="42,-89.5 42,-125.5 "/>
<text text-anchor="middle" x="55" y="-103.8" font-family="Times,serif" font-size="14.00">1</text>
<polyline fill="none" stroke="black" points="68,-89.5 68,-125.5 "/>
<text text-anchor="middle" x="81" y="-103.8" font-family="Times,serif" font-size="14.00">2</text>
<polyline fill="none" stroke="black" points="94,-89.5 94,-125.5 "/>
<text text-anchor="middle" x="107" y="-103.8" font-family="Times,serif" font-size="14.00">3</text>
<polyline fill="none" stroke="black" points="120,-89.5 120,-125.5 "/>
<text text-anchor="middle" x="144.5" y="-103.8" font-family="Times,serif" font-size="14.00">prev</text>
<polyline fill="none" stroke="black" points="169,-89.5 169,-125.5 "/>
<text text-anchor="middle" x="194.5" y="-103.8" font-family="Times,serif" font-size="14.00">node</text>
<polyline fill="none" stroke="black" points="220,-89.5 220,-125.5 "/>
<text text-anchor="middle" x="244" y="-103.8" font-family="Times,serif" font-size="14.00">next</text>
</g>
<!-- 1&#45;&gt;1 -->
<g id="edge1" class="edge">
<title>1:prev&#45;&gt;1:3</title>
<path fill="none" stroke="green" d="M150.01,-125.64C151.85,-143.03 146.23,-162 126,-162 109.72,-162 102.9,-149.71 101.82,-135.86"/>
<polygon fill="green" stroke="green" points="105.32,-135.7 101.99,-125.64 98.33,-135.58 105.32,-135.7"/>
</g>
<!-- 1&#45;&gt;1 -->
<g id="edge2" class="edge">
<title>1:next&#45;&gt;1:0</title>
<path fill="none" stroke="green" d="M247.12,-125.64C244.04,-143.03 220.69,-162 136.5,-162 67.44,-162 39.32,-149.23 29.74,-135.05"/>
<polygon fill="green" stroke="green" points="32.92,-133.57 25.88,-125.64 26.44,-136.22 32.92,-133.57"/>
</g>
<!-- 2 -->
<g id="node2" class="node">
<title>2</title>
<polygon fill="none" stroke="black" points="16,-16.5 16,-52.5 268,-52.5 268,-16.5 16,-16.5"/>
<text text-anchor="middle" x="29" y="-30.8" font-family="Times,serif" font-size="14.00">0</text>
<polyline fill="none" stroke="black" points="42,-16.5 42,-52.5 "/>
<text text-anchor="middle" x="55" y="-30.8" font-family="Times,serif" font-size="14.00">1</text>
<polyline fill="none" stroke="black" points="68,-16.5 68,-52.5 "/>
<text text-anchor="middle" x="81" y="-30.8" font-family="Times,serif" font-size="14.00">2</text>
<polyline fill="none" stroke="black" points="94,-16.5 94,-52.5 "/>
<text text-anchor="middle" x="118.5" y="-30.8" font-family="Times,serif" font-size="14.00">prev</text>
<polyline fill="none" stroke="black" points="143,-16.5 143,-52.5 "/>
<text text-anchor="middle" x="168.5" y="-30.8" font-family="Times,serif" font-size="14.00">node</text>
<polyline fill="none" stroke="black" points="194,-16.5 194,-52.5 "/>
<text text-anchor="middle" x="218" y="-30.8" font-family="Times,serif" font-size="14.00">next</text>
<polyline fill="none" stroke="black" points="242,-16.5 242,-52.5 "/>
<text text-anchor="middle" x="255" y="-30.8" font-family="Times,serif" font-size="14.00">3</text>
</g>
<!-- 1&#45;&gt;2 -->
<g id="edge5" class="edge">
<title>1&#45;&gt;2</title>
<path fill="none" stroke="black" d="M142,-89.31C142,-81.29 142,-71.55 142,-62.57"/>
<polygon fill="black" stroke="black" points="145.5,-62.53 142,-52.53 138.5,-62.53 145.5,-62.53"/>
</g>
<!-- 2&#45;&gt;2 -->
<g id="edge3" class="edge">
<title>2:prev&#45;&gt;2:2</title>
<path fill="none" stroke="blue" d="M123.02,-52.64C124.88,-70.03 119.37,-89 99.5,-89 83.51,-89 76.82,-76.71 75.79,-62.86"/>
<polygon fill="blue" stroke="blue" points="79.29,-62.71 75.98,-52.64 72.29,-62.57 79.29,-62.71"/>
</g>
<!-- 2&#45;&gt;2 -->
<g id="edge4" class="edge">
<title>2:next&#45;&gt;2:3</title>
<path fill="none" stroke="blue" d="M242.1,-42.73C272.8,-51.87 286,-49.12 286,-34.5 286,-25.73 283.15,-21.24 278.04,-21.01"/>
<polygon fill="blue" stroke="blue" points="276.66,-17.77 268.21,-24.17 278.81,-24.44 276.66,-17.77"/>
</g>
</g>
</svg>
