<?xml version="1.0" encoding="UTF-8" standalone="no"?>
<!DOCTYPE svg PUBLIC "-//W3C//DTD SVG 1.1//EN"
 "http://www.w3.org/Graphics/SVG/1.1/DTD/svg11.dtd">
<!-- Generated by graphviz version 2.43.0 (0)
 -->
<!-- Title: a_list_rot_prev Pages: 1 -->
<svg width="294pt" height="170pt"
 viewBox="0.00 0.00 294.00 170.00" xmlns="http://www.w3.org/2000/svg" xmlns:xlink="http://www.w3.org/1999/xlink">

<svg id="main" version="1.1" xmlns="http://www.w3.org/2000/svg" xmlns:xlink="http://www.w3.org/1999/xlink" xml:space="preserve" onload="init(evt)">
<style type="text/css"><![CDATA[
.node, .edge {opacity: 0.7;}
.node.selected, .edge.selected {opacity: 1;}
.edge:hover path { stroke: red; }
.edge:hover polygon { stroke: red; fill: red; }
]]></style>
<script type="application/ecmascript" xlink:href="svg.min.js"/>
<svg id="graph" class="graph">
<g id="graph0" class="graph" transform="scale(1 1) rotate(0) translate(4 166)">
<title>a_list_rot_prev</title>
<polygon fill="white" stroke="transparent" points="-4,4 -4,-166 290,-166 290,4 -4,4"/>
<g id="clust1" class="cluster">
<title>cluster0</title>
<polygon fill="none" stroke="black" points="10,-81 10,-134 278,-134 278,-81 10,-81"/>
</g>
<g id="clust2" class="cluster">
<title>cluster1</title>
<polygon fill="none" stroke="black" points="10,-8 10,-61 278,-61 278,-8 10,-8"/>
</g>
<!-- 1 -->
<g id="node1" class="node">
<title>1</title>
<polygon fill="none" stroke="black" points="18,-89.5 18,-125.5 270,-125.5 270,-89.5 18,-89.5"/>
<text text-anchor="middle" x="42.5" y="-103.8" font-family="Times,serif" font-size="14.00">prev</text>
<polyline fill="none" stroke="black" points="67,-89.5 67,-125.5 "/>
<text text-anchor="middle" x="92.5" y="-103.8" font-family="Times,serif" font-size="14.00">node</text>
<polyline fill="none" stroke="black" points="118,-89.5 118,-125.5 "/>
<text text-anchor="middle" x="142" y="-103.8" font-family="Times,serif" font-size="14.00">next</text>
<polyline fill="none" stroke="black" points="166,-89.5 166,-125.5 "/>
<text text-anchor="middle" x="179" y="-103.8" font-family="Times,serif" font-size="14.00">0</text>
<polyline fill="none" stroke="black" points="192,-89.5 192,-125.5 "/>
<text text-anchor="middle" x="205" y="-103.8" font-family="Times,serif" font-size="14.00">1</text>
<polyline fill="none" stroke="black" points="218,-89.5 218,-125.5 "/>
<text text-anchor="middle" x="231" y="-103.8" font-family="Times,serif" font-size="14.00">2</text>
<polyline fill="none" stroke="black" points="244,-89.5 244,-125.5 "/>
<text text-anchor="middle" x="257" y="-103.8" font-family="Times,serif" font-size="14.00">3</text>
</g>
<!-- 1&#45;&gt;1 -->
<g id="edge1" class="edge">
<title>1:prev&#45;&gt;1:3</title>
<path fill="none" stroke="green" d="M38.88,-125.64C41.96,-143.03 65.31,-162 149.5,-162 218.56,-162 246.68,-149.23 256.26,-135.05"/>
<polygon fill="green" stroke="green" points="259.56,-136.22 260.12,-125.64 253.08,-133.57 259.56,-136.22"/>
</g>
<!-- 1&#45;&gt;1 -->
<g id="edge2" class="edge">
<title>1:next&#45;&gt;1:0</title>
<path fill="none" stroke="green" d="M136.98,-125.64C135.12,-143.03 140.63,-162 160.5,-162 176.49,-162 183.18,-149.71 184.21,-135.86"/>
<polygon fill="green" stroke="green" points="187.71,-135.57 184.02,-125.64 180.71,-135.71 187.71,-135.57"/>
</g>
<!-- 2 -->
<g id="node2" class="node">
<title>2</title>
<polygon fill="none" stroke="black" points="18,-16.5 18,-52.5 270,-52.5 270,-16.5 18,-16.5"/>
<text text-anchor="middle" x="31" y="-30.8" font-family="Times,serif" font-size="14.00">0</text>
<polyline fill="none" stroke="black" points="44,-16.5 44,-52.5 "/>
<text text-anchor="middle" x="68.5" y="-30.8" font-family="Times,serif" font-size="14.00">prev</text>
<polyline fill="none" stroke="black" points="93,-16.5 93,-52.5 "/>
<text text-anchor="middle" x="118.5" y="-30.8" font-family="Times,serif" font-size="14.00">node</text>
<polyline fill="none" stroke="black" points="144,-16.5 144,-52.5 "/>
<text text-anchor="middle" x="168" y="-30.8" font-family="Times,serif" font-size="14.00">next</text>
<polyline fill="none" stroke="black" points="192,-16.5 192,-52.5 "/>
<text text-anchor="middle" x="205" y="-30.8" font-family="Times,serif" font-size="14.00">1</text>
<polyline fill="none" stroke="black" points="218,-16.5 218,-52.5 "/>
<text text-anchor="middle" x="231" y="-30.8" font-family="Times,serif" font-size="14.00">2</text>
<polyline fill="none" stroke="black" points="244,-16.5 244,-52.5 "/>
<text text-anchor="middle" x="257" y="-30.8" font-family="Times,serif" font-size="14.00">3</text>
</g>
<!-- 1&#45;&gt;2 -->
<g id="edge5" class="edge">
<title>1&#45;&gt;2</title>
<path fill="none" stroke="black" d="M144,-89.31C144,-81.29 144,-71.55 144,-62.57"/>
<polygon fill="black" stroke="black" points="147.5,-62.53 144,-52.53 140.5,-62.53 147.5,-62.53"/>
</g>
<!-- 2&#45;&gt;2 -->
<g id="edge3" class="edge">
<title>2:prev&#45;&gt;2:0</title>
<path fill="none" stroke="blue" d="M43.9,-42.73C13.2,-51.87 0,-49.12 0,-34.5 0,-25.73 2.85,-21.24 7.96,-21.01"/>
<polygon fill="blue" stroke="blue" points="7.19,-24.44 17.79,-24.17 9.34,-17.77 7.19,-24.44"/>
</g>
<!-- 2&#45;&gt;2 -->
<g id="edge4" class="edge">
<title>2:next&#45;&gt;2:1</title>
<path fill="none" stroke="blue" d="M162.98,-52.64C161.12,-70.03 166.63,-89 186.5,-89 202.49,-89 209.18,-76.71 210.21,-62.86"/>
<polygon fill="blue" stroke="blue" points="213.71,-62.57 210.02,-52.64 206.71,-62.71 213.71,-62.57"/>
</g>
</g>
</svg>
</svg>

<style type='text/css'>
<![CDATA[
[data-mouse-over-selected='false'] { opacity: 0.7; }
[data-mouse-over-selected='true']  { opacity: 1.0; }
]]>
</style>
<script type="application/ecmascript"><![CDATA[
document.addEventListener('DOMContentLoaded', (event) => {
  highlightEdges();
  highlightAdjacentNodes();
});
]]></script>
</svg>
