<?xml version="1.0" encoding="UTF-8" standalone="no"?>
<!DOCTYPE svg PUBLIC "-//W3C//DTD SVG 1.1//EN"
 "http://www.w3.org/Graphics/SVG/1.1/DTD/svg11.dtd">
<!-- Generated by graphviz version 2.43.0 (0)
 -->
<!-- Title: a_list_shift_ Pages: 1 -->
<svg width="241pt" height="150pt"
 viewBox="0.00 0.00 241.00 150.00" xmlns="http://www.w3.org/2000/svg" xmlns:xlink="http://www.w3.org/1999/xlink">
<g id="graph0" class="graph" transform="scale(1 1) rotate(0) translate(4 146)">
<title>a_list_shift_</title>
<polygon fill="white" stroke="transparent" points="-4,4 -4,-146 237,-146 237,4 -4,4"/>
<g id="clust1" class="cluster">
<title>cluster0</title>
<polygon fill="none" stroke="black" points="21,-81 21,-134 225,-134 225,-81 21,-81"/>
</g>
<g id="clust2" class="cluster">
<title>cluster1</title>
<polygon fill="none" stroke="black" points="8,-8 8,-61 212,-61 212,-8 8,-8"/>
</g>
<!-- 1 -->
<g id="node1" class="node">
<title>1</title>
<polygon fill="none" stroke="black" points="29,-89.5 29,-125.5 217,-125.5 217,-89.5 29,-89.5"/>
<text text-anchor="middle" x="53.5" y="-103.8" font-family="Times,serif" font-size="14.00">prev</text>
<polyline fill="none" stroke="black" points="78,-89.5 78,-125.5 "/>
<text text-anchor="middle" x="103.5" y="-103.8" font-family="Times,serif" font-size="14.00">head</text>
<polyline fill="none" stroke="black" points="129,-89.5 129,-125.5 "/>
<text text-anchor="middle" x="149" y="-103.8" font-family="Times,serif" font-size="14.00">tail</text>
<polyline fill="none" stroke="black" points="169,-89.5 169,-125.5 "/>
<text text-anchor="middle" x="193" y="-103.8" font-family="Times,serif" font-size="14.00">next</text>
</g>
<!-- 2 -->
<g id="node2" class="node">
<title>2</title>
<polygon fill="none" stroke="black" points="16,-16.5 16,-52.5 204,-52.5 204,-16.5 16,-16.5"/>
<text text-anchor="middle" x="40.5" y="-30.8" font-family="Times,serif" font-size="14.00">prev</text>
<polyline fill="none" stroke="black" points="65,-16.5 65,-52.5 "/>
<text text-anchor="middle" x="90.5" y="-30.8" font-family="Times,serif" font-size="14.00">head</text>
<polyline fill="none" stroke="black" points="116,-16.5 116,-52.5 "/>
<text text-anchor="middle" x="136" y="-30.8" font-family="Times,serif" font-size="14.00">tail</text>
<polyline fill="none" stroke="black" points="156,-16.5 156,-52.5 "/>
<text text-anchor="middle" x="180" y="-30.8" font-family="Times,serif" font-size="14.00">next</text>
</g>
<!-- 1&#45;&gt;2 -->
<g id="edge1" class="edge">
<title>1:prev&#45;&gt;2:head</title>
<path fill="none" stroke="green" d="M53,-88.5C53,-70.11 77.43,-73.44 86.59,-63.2"/>
<polygon fill="green" stroke="green" points="89.98,-64.09 90,-53.5 83.38,-61.77 89.98,-64.09"/>
</g>
<!-- 2&#45;&gt;1 -->
<g id="edge2" class="edge">
<title>2:tail&#45;&gt;1:next</title>
<path fill="none" stroke="green" d="M136,-53.5C136,-79.05 178.1,-64.58 189.94,-78.87"/>
<polygon fill="green" stroke="green" points="186.63,-80.03 193,-88.5 193.3,-77.91 186.63,-80.03"/>
</g>
</g>
</svg>
