<?xml version="1.0" encoding="UTF-8" standalone="no"?>
<!DOCTYPE svg PUBLIC "-//W3C//DTD SVG 1.1//EN"
 "http://www.w3.org/Graphics/SVG/1.1/DTD/svg11.dtd">
<!-- Generated by graphviz version 2.43.0 (0)
 -->
<!-- Title: a_list_add_node Pages: 1 -->
<svg width="229pt" height="150pt"
 viewBox="0.00 0.00 229.00 150.00" xmlns="http://www.w3.org/2000/svg" xmlns:xlink="http://www.w3.org/1999/xlink">

<svg id="main" version="1.1" xmlns="http://www.w3.org/2000/svg" xmlns:xlink="http://www.w3.org/1999/xlink" xml:space="preserve" onload="init(evt)">
<style type="text/css"><![CDATA[
.node, .edge {opacity: 0.7;}
.node.selected, .edge.selected {opacity: 1;}
.edge:hover path { stroke: red; }
.edge:hover polygon { stroke: red; fill: red; }
]]></style>
<script type="application/ecmascript" xlink:href="svg.min.js"/>
<svg id="graph" class="graph">
<g id="graph0" class="graph" transform="scale(1 1) rotate(0) translate(4 146)">
<title>a_list_add_node</title>
<polygon fill="white" stroke="transparent" points="-4,4 -4,-146 225,-146 225,4 -4,4"/>
<g id="clust1" class="cluster">
<title>cluster0</title>
<polygon fill="none" stroke="black" points="33,-81 33,-134 213,-134 213,-81 33,-81"/>
</g>
<g id="clust2" class="cluster">
<title>cluster1</title>
<polygon fill="none" stroke="black" points="8,-8 8,-61 166,-61 166,-8 8,-8"/>
</g>
<!-- 0 -->
<g id="node1" class="node">
<title>0</title>
<polygon fill="none" stroke="black" points="151,-89.5 151,-125.5 205,-125.5 205,-89.5 151,-89.5"/>
<text text-anchor="middle" x="178" y="-103.8" font-family="Times,serif" font-size="14.00">node</text>
</g>
<!-- 1 -->
<g id="node2" class="node">
<title>1</title>
<polygon fill="none" stroke="black" points="41.5,-89.5 41.5,-125.5 132.5,-125.5 132.5,-89.5 41.5,-89.5"/>
<text text-anchor="middle" x="67" y="-103.8" font-family="Times,serif" font-size="14.00">head</text>
<polyline fill="none" stroke="black" points="92.5,-89.5 92.5,-125.5 "/>
<text text-anchor="middle" x="112.5" y="-103.8" font-family="Times,serif" font-size="14.00">tail</text>
</g>
<!-- 2 -->
<g id="node3" class="node">
<title>2</title>
<polygon fill="none" stroke="black" points="16,-16.5 16,-52.5 158,-52.5 158,-16.5 16,-16.5"/>
<text text-anchor="middle" x="41.5" y="-30.8" font-family="Times,serif" font-size="14.00">head</text>
<polyline fill="none" stroke="black" points="67,-16.5 67,-52.5 "/>
<text text-anchor="middle" x="87" y="-30.8" font-family="Times,serif" font-size="14.00">tail</text>
<polyline fill="none" stroke="black" points="107,-16.5 107,-52.5 "/>
<text text-anchor="middle" x="132.5" y="-30.8" font-family="Times,serif" font-size="14.00">node</text>
</g>
<!-- 1&#45;&gt;2 -->
<g id="edge1" class="edge">
<title>1&#45;&gt;2</title>
<path fill="none" stroke="black" d="M87,-89.31C87,-81.29 87,-71.55 87,-62.57"/>
<polygon fill="black" stroke="black" points="90.5,-62.53 87,-52.53 83.5,-62.53 90.5,-62.53"/>
</g>
</g>
</svg>
</svg>

<style type='text/css'>
<![CDATA[
[data-mouse-over-selected='false'] { opacity: 0.7; }
[data-mouse-over-selected='true']  { opacity: 1.0; }
]]>
</style>
<script type="application/ecmascript"><![CDATA[
document.addEventListener('DOMContentLoaded', (event) => {
  highlightEdges();
  highlightAdjacentNodes();
});
]]></script>
</svg>
