<?xml version="1.0" encoding="UTF-8" standalone="no"?>
<!DOCTYPE svg PUBLIC "-//W3C//DTD SVG 1.1//EN"
 "http://www.w3.org/Graphics/SVG/1.1/DTD/svg11.dtd">
<!-- Generated by graphviz version 2.43.0 (0)
 -->
<!-- Title: a_list_swap_ Pages: 1 -->
<svg width="239pt" height="150pt"
 viewBox="0.00 0.00 239.00 150.00" xmlns="http://www.w3.org/2000/svg" xmlns:xlink="http://www.w3.org/1999/xlink">

<svg id="main" version="1.1" xmlns="http://www.w3.org/2000/svg" xmlns:xlink="http://www.w3.org/1999/xlink" xml:space="preserve" onload="init(evt)">
<style type="text/css"><![CDATA[
.node, .edge {opacity: 0.7;}
.node.selected, .edge.selected {opacity: 1;}
.edge:hover path { stroke: red; }
.edge:hover polygon { stroke: red; fill: red; }
]]></style>
<script type="application/ecmascript" xlink:href="svg.min.js"/>
<svg id="graph" class="graph">
<g id="graph0" class="graph" transform="scale(1 1) rotate(0) translate(4 146)">
<title>a_list_swap_</title>
<polygon fill="white" stroke="transparent" points="-4,4 -4,-146 235,-146 235,4 -4,4"/>
<g id="clust1" class="cluster">
<title>cluster0</title>
<polygon fill="none" stroke="black" points="19,-81 19,-134 223,-134 223,-81 19,-81"/>
</g>
<g id="clust2" class="cluster">
<title>cluster1</title>
<polygon fill="none" stroke="black" points="8,-8 8,-61 212,-61 212,-8 8,-8"/>
</g>
<!-- 1 -->
<g id="node1" class="node">
<title>1</title>
<polygon fill="none" stroke="black" points="27,-89.5 27,-125.5 215,-125.5 215,-89.5 27,-89.5"/>
<text text-anchor="middle" x="51.5" y="-103.8" font-family="Times,serif" font-size="14.00">prev</text>
<polyline fill="none" stroke="black" points="76,-89.5 76,-125.5 "/>
<text text-anchor="middle" x="101.5" y="-103.8" font-family="Times,serif" font-size="14.00">head</text>
<polyline fill="none" stroke="black" points="127,-89.5 127,-125.5 "/>
<text text-anchor="middle" x="147" y="-103.8" font-family="Times,serif" font-size="14.00">tail</text>
<polyline fill="none" stroke="black" points="167,-89.5 167,-125.5 "/>
<text text-anchor="middle" x="191" y="-103.8" font-family="Times,serif" font-size="14.00">next</text>
</g>
<!-- 2 -->
<g id="node2" class="node">
<title>2</title>
<polygon fill="none" stroke="black" points="16,-16.5 16,-52.5 204,-52.5 204,-16.5 16,-16.5"/>
<text text-anchor="middle" x="40.5" y="-30.8" font-family="Times,serif" font-size="14.00">prev</text>
<polyline fill="none" stroke="black" points="65,-16.5 65,-52.5 "/>
<text text-anchor="middle" x="90.5" y="-30.8" font-family="Times,serif" font-size="14.00">head</text>
<polyline fill="none" stroke="black" points="116,-16.5 116,-52.5 "/>
<text text-anchor="middle" x="136" y="-30.8" font-family="Times,serif" font-size="14.00">tail</text>
<polyline fill="none" stroke="black" points="156,-16.5 156,-52.5 "/>
<text text-anchor="middle" x="180" y="-30.8" font-family="Times,serif" font-size="14.00">next</text>
</g>
<!-- 1&#45;&gt;2 -->
<g id="edge1" class="edge">
<title>1:prev&#45;&gt;2:head</title>
<path fill="none" stroke="green" d="M51,-88.5C51,-69.39 77.24,-73.75 86.67,-63.08"/>
<polygon fill="green" stroke="green" points="90.03,-64.09 90,-53.5 83.41,-61.8 90.03,-64.09"/>
</g>
<!-- 1&#45;&gt;2 -->
<g id="edge4" class="edge">
<title>1:tail&#45;&gt;2:next</title>
<path fill="none" stroke="blue" d="M147,-88.5C147,-71.3 168.37,-72.96 176.72,-63.13"/>
<polygon fill="blue" stroke="blue" points="180.08,-64.09 180,-53.5 173.46,-61.83 180.08,-64.09"/>
</g>
<!-- 2&#45;&gt;1 -->
<g id="edge2" class="edge">
<title>2:tail&#45;&gt;1:next</title>
<path fill="none" stroke="green" d="M136,-53.5C136,-78.17 175.88,-65.19 187.72,-78.69"/>
<polygon fill="green" stroke="green" points="184.51,-80.12 191,-88.5 191.15,-77.91 184.51,-80.12"/>
</g>
<!-- 2&#45;&gt;1 -->
<g id="edge3" class="edge">
<title>2:prev&#45;&gt;1:head</title>
<path fill="none" stroke="blue" d="M40,-53.5C40,-80.61 85.87,-63.51 98.06,-78.88"/>
<polygon fill="blue" stroke="blue" points="94.73,-79.96 101,-88.5 101.42,-77.91 94.73,-79.96"/>
</g>
</g>
</svg>
</svg>

<style type='text/css'>
<![CDATA[
[data-mouse-over-selected='false'] { opacity: 0.7; }
[data-mouse-over-selected='true']  { opacity: 1.0; }
]]>
</style>
<script type="application/ecmascript"><![CDATA[
document.addEventListener('DOMContentLoaded', (event) => {
  highlightEdges();
  highlightAdjacentNodes();
});
]]></script>
</svg>
