<?xml version="1.0" encoding="UTF-8" standalone="no"?>
<!DOCTYPE svg PUBLIC "-//W3C//DTD SVG 1.1//EN"
 "http://www.w3.org/Graphics/SVG/1.1/DTD/svg11.dtd">
<!-- Generated by graphviz version 2.43.0 (0)
 -->
<!-- Title: Low Pass Filter Pages: 1 -->
<svg width="434pt" height="467pt"
 viewBox="0.00 0.00 434.00 467.00" xmlns="http://www.w3.org/2000/svg" xmlns:xlink="http://www.w3.org/1999/xlink">
<g id="graph0" class="graph" transform="scale(1 1) rotate(0) translate(4 463)">
<title>Low Pass Filter</title>
<!-- Node2 -->
<g id="Node000002" class="node">
<title>Node2</title>
<g id="a_Node000002"><a xlink:href="../../df/d91/group__A.html" target="_top" xlink:title=" ">
<polygon fill="white" stroke="#666666" points="98,-222 0,-222 0,-203 98,-203 98,-222"/>
<text text-anchor="middle" x="49" y="-210" font-family="Helvetica,sans-Serif" font-size="10.00">algorithm library</text>
</a>
</g>
</g>
<!-- Node1 -->
<g id="Node000001" class="node">
<title>Node1</title>
<g id="a_Node000001"><a xlink:title=" ">
<polygon fill="#999999" stroke="#666666" points="224,-222 135,-222 135,-203 224,-203 224,-222"/>
<text text-anchor="middle" x="179.5" y="-210" font-family="Helvetica,sans-Serif" font-size="10.00">Low Pass Filter</text>
</a>
</g>
</g>
<!-- Node2&#45;&gt;Node1 -->
<g id="edge1" class="edge">
<title>Node2&#45;&gt;Node1</title>
<path fill="none" stroke="black" d="M108.46,-212.5C117.27,-212.5 126.24,-212.5 134.68,-212.5"/>
<polygon fill="black" stroke="black" points="108.21,-209 98.21,-212.5 108.21,-216 108.21,-209"/>
</g>
<!-- Node3 -->
<g id="Node000003" class="node">
<title>Node3</title>
<g id="a_Node000003"><a xlink:href="../../dd/d71/group__A__HPF.html" target="_top" xlink:title=" ">
<polygon fill="white" stroke="#666666" points="392.5,-459 300.5,-459 300.5,-440 392.5,-440 392.5,-459"/>
<text text-anchor="middle" x="346.5" y="-447" font-family="Helvetica,sans-Serif" font-size="10.00">High Pass Filter</text>
</a>
</g>
</g>
<!-- Node1&#45;&gt;Node3 -->
<g id="edge2" class="edge">
<title>Node1&#45;&gt;Node3</title>
<path fill="none" stroke="blueviolet" stroke-dasharray="5,2" d="M181.13,-222.27C183.92,-256.93 198.3,-374.94 267,-430.5 276.49,-438.17 288.59,-442.82 300.44,-445.62"/>
<text text-anchor="middle" x="245.5" y="-415.5" font-family="Helvetica,sans-Serif" font-size="10.00">a</text>
</g>
<!-- Node4 -->
<g id="Node000004" class="node">
<title>Node4</title>
<g id="a_Node000004"><a xlink:href="../../d8/da8/group__A__PID.html" target="_top" xlink:title=" ">
<polygon fill="white" stroke="#666666" points="406,-421.5 287,-421.5 287,-391.5 406,-391.5 406,-421.5"/>
<text text-anchor="start" x="295" y="-409.5" font-family="Helvetica,sans-Serif" font-size="10.00">proportional integral</text>
<text text-anchor="middle" x="346.5" y="-398.5" font-family="Helvetica,sans-Serif" font-size="10.00"> derivative controller</text>
</a>
</g>
</g>
<!-- Node1&#45;&gt;Node4 -->
<g id="edge3" class="edge">
<title>Node1&#45;&gt;Node4</title>
<path fill="none" stroke="blueviolet" stroke-dasharray="5,2" d="M182.62,-222.25C189.42,-251.22 213.49,-337.57 267,-382.5 272.78,-387.36 279.54,-391.23 286.61,-394.32"/>
<text text-anchor="middle" x="245.5" y="-366.5" font-family="Helvetica,sans-Serif" font-size="10.00">a</text>
</g>
<!-- Node5 -->
<g id="Node000005" class="node">
<title>Node5</title>
<g id="a_Node000005"><a xlink:href="../../dc/db1/group__A__PID__FUZZY.html" target="_top" xlink:title=" ">
<polygon fill="white" stroke="#666666" points="401.5,-373 291.5,-373 291.5,-332 401.5,-332 401.5,-373"/>
<text text-anchor="start" x="299.5" y="-361" font-family="Helvetica,sans-Serif" font-size="10.00">fuzzy proportional</text>
<text text-anchor="start" x="299.5" y="-350" font-family="Helvetica,sans-Serif" font-size="10.00"> integral derivative</text>
<text text-anchor="middle" x="346.5" y="-339" font-family="Helvetica,sans-Serif" font-size="10.00"> controller</text>
</a>
</g>
</g>
<!-- Node1&#45;&gt;Node5 -->
<g id="edge4" class="edge">
<title>Node1&#45;&gt;Node5</title>
<path fill="none" stroke="blueviolet" stroke-dasharray="5,2" d="M185.67,-222.17C197.4,-243.27 228.07,-293.83 267,-322.5 274.28,-327.86 282.64,-332.39 291.13,-336.17"/>
<text text-anchor="middle" x="245.5" y="-307.5" font-family="Helvetica,sans-Serif" font-size="10.00">a</text>
</g>
<!-- Node6 -->
<g id="Node000006" class="node">
<title>Node6</title>
<g id="a_Node000006"><a xlink:href="../../db/d33/group__A__PID__NEURO.html" target="_top" xlink:title=" ">
<polygon fill="white" stroke="#666666" points="426,-313.5 267,-313.5 267,-283.5 426,-283.5 426,-313.5"/>
<text text-anchor="start" x="275" y="-301.5" font-family="Helvetica,sans-Serif" font-size="10.00">single neuron proportional</text>
<text text-anchor="middle" x="346.5" y="-290.5" font-family="Helvetica,sans-Serif" font-size="10.00"> integral derivative controller</text>
</a>
</g>
</g>
<!-- Node1&#45;&gt;Node6 -->
<g id="edge5" class="edge">
<title>Node1&#45;&gt;Node6</title>
<path fill="none" stroke="blueviolet" stroke-dasharray="5,2" d="M191.49,-222.2C207.22,-235.64 237.52,-259.92 267,-274.5 273.77,-277.85 281.1,-280.84 288.47,-283.48"/>
<text text-anchor="middle" x="245.5" y="-265.5" font-family="Helvetica,sans-Serif" font-size="10.00">a</text>
</g>
<!-- Node7 -->
<g id="Node000007" class="node">
<title>Node7</title>
<g id="a_Node000007"><a xlink:href="../../d4/d5e/group__A__POLYTRAJ3.html" target="_top" xlink:title=" ">
<polygon fill="white" stroke="#666666" points="421.5,-265 271.5,-265 271.5,-246 421.5,-246 421.5,-265"/>
<text text-anchor="middle" x="346.5" y="-253" font-family="Helvetica,sans-Serif" font-size="10.00">cubic polynomial trajectory</text>
</a>
</g>
</g>
<!-- Node1&#45;&gt;Node7 -->
<g id="edge6" class="edge">
<title>Node1&#45;&gt;Node7</title>
<path fill="none" stroke="blueviolet" stroke-dasharray="5,2" d="M214.11,-222.11C230.1,-226.6 249.5,-231.96 267,-236.5 279.35,-239.71 292.84,-243.03 305.1,-245.99"/>
<text text-anchor="middle" x="245.5" y="-233.5" font-family="Helvetica,sans-Serif" font-size="10.00">a</text>
</g>
<!-- Node8 -->
<g id="Node000008" class="node">
<title>Node8</title>
<g id="a_Node000008"><a xlink:href="../../d5/d8e/group__A__POLYTRAJ5.html" target="_top" xlink:title=" ">
<polygon fill="white" stroke="#666666" points="400,-227.5 293,-227.5 293,-197.5 400,-197.5 400,-227.5"/>
<text text-anchor="start" x="301" y="-215.5" font-family="Helvetica,sans-Serif" font-size="10.00">quintic polynomial</text>
<text text-anchor="middle" x="346.5" y="-204.5" font-family="Helvetica,sans-Serif" font-size="10.00"> trajectory</text>
</a>
</g>
</g>
<!-- Node1&#45;&gt;Node8 -->
<g id="edge7" class="edge">
<title>Node1&#45;&gt;Node8</title>
<path fill="none" stroke="blueviolet" stroke-dasharray="5,2" d="M224.28,-212.5C245.38,-212.5 270.85,-212.5 292.99,-212.5"/>
<text text-anchor="middle" x="245.5" y="-215.5" font-family="Helvetica,sans-Serif" font-size="10.00">a</text>
</g>
<!-- Node9 -->
<g id="Node000009" class="node">
<title>Node9</title>
<g id="a_Node000009"><a xlink:href="../../de/d6e/group__A__POLYTRAJ7.html" target="_top" xlink:title=" ">
<polygon fill="white" stroke="#666666" points="422.5,-179 270.5,-179 270.5,-160 422.5,-160 422.5,-179"/>
<text text-anchor="middle" x="346.5" y="-167" font-family="Helvetica,sans-Serif" font-size="10.00">hepta polynomial trajectory</text>
</a>
</g>
</g>
<!-- Node1&#45;&gt;Node9 -->
<g id="edge8" class="edge">
<title>Node1&#45;&gt;Node9</title>
<path fill="none" stroke="blueviolet" stroke-dasharray="5,2" d="M214.11,-202.89C230.1,-198.4 249.5,-193.04 267,-188.5 279.35,-185.29 292.84,-181.97 305.1,-179.01"/>
<text text-anchor="middle" x="245.5" y="-197.5" font-family="Helvetica,sans-Serif" font-size="10.00">a</text>
</g>
<!-- Node10 -->
<g id="Node000010" class="node">
<title>Node10</title>
<g id="a_Node000010"><a xlink:href="../../dd/dd8/group__A__RBF.html" target="_top" xlink:title=" ">
<polygon fill="white" stroke="#666666" points="404.5,-142 288.5,-142 288.5,-123 404.5,-123 404.5,-142"/>
<text text-anchor="middle" x="346.5" y="-130" font-family="Helvetica,sans-Serif" font-size="10.00">radial basis function</text>
</a>
</g>
</g>
<!-- Node1&#45;&gt;Node10 -->
<g id="edge9" class="edge">
<title>Node1&#45;&gt;Node10</title>
<path fill="none" stroke="blueviolet" stroke-dasharray="5,2" d="M191.14,-202.95C206.69,-189.5 237.04,-165.09 267,-151.5 275.43,-147.68 284.73,-144.56 293.89,-142.05"/>
<text text-anchor="middle" x="245.5" y="-166.5" font-family="Helvetica,sans-Serif" font-size="10.00">a</text>
</g>
<!-- Node11 -->
<g id="Node000011" class="node">
<title>Node11</title>
<g id="a_Node000011"><a xlink:href="../../d0/ddd/group__A__TF.html" target="_top" xlink:title=" ">
<polygon fill="white" stroke="#666666" points="395.5,-105 297.5,-105 297.5,-86 395.5,-86 395.5,-105"/>
<text text-anchor="middle" x="346.5" y="-93" font-family="Helvetica,sans-Serif" font-size="10.00">transfer function</text>
</a>
</g>
</g>
<!-- Node1&#45;&gt;Node11 -->
<g id="edge10" class="edge">
<title>Node1&#45;&gt;Node11</title>
<path fill="none" stroke="blueviolet" stroke-dasharray="5,2" d="M186.07,-202.96C198.13,-183.17 228.71,-137.58 267,-114.5 276.13,-109 286.75,-105.09 297.18,-102.31"/>
<text text-anchor="middle" x="245.5" y="-133.5" font-family="Helvetica,sans-Serif" font-size="10.00">a</text>
</g>
<!-- Node12 -->
<g id="Node000012" class="node">
<title>Node12</title>
<g id="a_Node000012"><a xlink:href="../../db/d75/group__A__TRAPTRAJ.html" target="_top" xlink:title=" ">
<polygon fill="white" stroke="#666666" points="403,-67.5 290,-67.5 290,-37.5 403,-37.5 403,-67.5"/>
<text text-anchor="start" x="298" y="-55.5" font-family="Helvetica,sans-Serif" font-size="10.00">trapezoidal velocity</text>
<text text-anchor="middle" x="346.5" y="-44.5" font-family="Helvetica,sans-Serif" font-size="10.00"> profile trajectory</text>
</a>
</g>
</g>
<!-- Node1&#45;&gt;Node12 -->
<g id="edge11" class="edge">
<title>Node1&#45;&gt;Node12</title>
<path fill="none" stroke="blueviolet" stroke-dasharray="5,2" d="M183.83,-202.96C192.97,-178.22 220.87,-111.56 267,-77.5 273.79,-72.49 281.62,-68.46 289.65,-65.22"/>
<text text-anchor="middle" x="245.5" y="-100.5" font-family="Helvetica,sans-Serif" font-size="10.00">a</text>
</g>
<!-- Node13 -->
<g id="Node000013" class="node">
<title>Node13</title>
<g id="a_Node000013"><a xlink:href="../../d2/d1b/group__A__VERSION.html" target="_top" xlink:title=" ">
<polygon fill="white" stroke="#666666" points="415,-19 278,-19 278,0 415,0 415,-19"/>
<text text-anchor="middle" x="346.5" y="-7" font-family="Helvetica,sans-Serif" font-size="10.00">algorithm library version</text>
</a>
</g>
</g>
<!-- Node1&#45;&gt;Node13 -->
<g id="edge12" class="edge">
<title>Node1&#45;&gt;Node13</title>
<path fill="none" stroke="blueviolet" stroke-dasharray="5,2" d="M182.04,-202.65C187.42,-171.69 208.36,-75.56 267,-28.5 271.81,-24.64 277.29,-21.54 283.06,-19.06"/>
<text text-anchor="middle" x="245.5" y="-54.5" font-family="Helvetica,sans-Serif" font-size="10.00">a</text>
</g>
</g>
</svg>
