<?xml version="1.0" encoding="UTF-8" standalone="no"?>
<!DOCTYPE svg PUBLIC "-//W3C//DTD SVG 1.1//EN"
 "http://www.w3.org/Graphics/SVG/1.1/DTD/svg11.dtd">
<!-- Generated by graphviz version 2.43.0 (0)
 -->
<!-- Title: simple linear regression Pages: 1 -->
<!--zoomable 861 -->

<svg id="main" version="1.1" xmlns="http://www.w3.org/2000/svg" xmlns:xlink="http://www.w3.org/1999/xlink" xml:space="preserve" onload="init(evt)">

<style type="text/css"><![CDATA[
.node, .edge {opacity: 0.7;}
.node.selected, .edge.selected {opacity: 1;}
.edge:hover path { stroke: red; }
.edge:hover polygon { stroke: red; fill: red; }
]]></style>

<defs>
  <circle id="rim" cx="0" cy="0" r="7"/>
  <circle id="rim2" cx="0" cy="0" r="3.5"/>
  <g id="zoomPlus">
    <use xlink:href="#rim" fill="#404040"><set attributeName="fill" to="#808080" begin="zoomplus.mouseover" end="zoomplus.mouseout"/></use>
    <path d="M-4,0h8M0,-4v8" fill="none" stroke="white" stroke-width="1.5" pointer-events="none"/>
  </g>
  <g id="zoomMin">
    <use xlink:href="#rim" fill="#404040"><set attributeName="fill" to="#808080" begin="zoomminus.mouseover" end="zoomminus.mouseout"/></use>
    <path d="M-4,0h8" fill="none" stroke="white" stroke-width="1.5" pointer-events="none"/>
  </g>
  <g id="arrowUp" transform="translate(30 24)">
    <use xlink:href="#rim"/>
    <path pointer-events="none" fill="none" stroke="white" stroke-width="1.5" d="M0,-3.0v7 M-2.5,-0.5L0,-3.0L2.5,-0.5"/>
  </g>
  <g id="arrowRight" transform="rotate(90) translate(36 -43)">
    <use xlink:href="#rim"/>
    <path pointer-events="none" fill="none" stroke="white" stroke-width="1.5" d="M0,-3.0v7 M-2.5,-0.5L0,-3.0L2.5,-0.5"/>
  </g>
  <g id="arrowDown" transform="rotate(180) translate(-30 -48)">
    <use xlink:href="#rim"/>
    <path pointer-events="none" fill="none" stroke="white" stroke-width="1.5" d="M0,-3.0v7 M-2.5,-0.5L0,-3.0L2.5,-0.5"/>
  </g>
  <g id="arrowLeft" transform="rotate(270) translate(-36 17)">
    <use xlink:href="#rim"/>
    <path pointer-events="none" fill="none" stroke="white" stroke-width="1.5" d="M0,-3.0v7 M-2.5,-0.5L0,-3.0L2.5,-0.5"/>
  </g>
  <g id="resetDef">
    <use xlink:href="#rim2" fill="#404040"><set attributeName="fill" to="#808080" begin="reset.mouseover" end="reset.mouseout"/></use>
  </g>
</defs>
<script type="application/ecmascript">
var viewWidth = 449;
var viewHeight = 861;
var sectionId = 'dynsection-0';
</script>
<script type="application/ecmascript" xlink:href="../../svg.min.js"/>
<svg id="graph" class="graph">
<g id="viewport">
<title>simple linear regression</title>
<!-- Node3 -->
<g id="Node000003" class="node">
<title>Node3</title>
<g id="a_Node000003"><a xlink:href="../../d5/d49/group__a__hpf.html" target="_top" xlink:title=" ">
<polygon fill="white" stroke="#666666" points="407.5,-853 315.5,-853 315.5,-834 407.5,-834 407.5,-853"/>
<text text-anchor="middle" x="361.5" y="-841" font-family="Helvetica,sans-Serif" font-size="10.00">High Pass Filter</text>
</a>
</g>
</g>
<!-- Node4 -->
<g id="Node000004" class="node">
<title>Node4</title>
<g id="a_Node000004"><a xlink:href="../../dd/d35/group__a__line2.html" target="_top" xlink:title=" ">
<polygon fill="white" stroke="#666666" points="421,-816 302,-816 302,-797 421,-797 421,-816"/>
<text text-anchor="middle" x="361.5" y="-804" font-family="Helvetica,sans-Serif" font-size="10.00">two&#45;dimensional line</text>
</a>
</g>
</g>
<!-- Node5 -->
<g id="Node000005" class="node">
<title>Node5</title>
<g id="a_Node000005"><a xlink:href="../../d8/ddb/group__a__line3.html" target="_top" xlink:title=" ">
<polygon fill="white" stroke="#666666" points="425,-779 298,-779 298,-760 425,-760 425,-779"/>
<text text-anchor="middle" x="361.5" y="-767" font-family="Helvetica,sans-Serif" font-size="10.00">three&#45;dimensional line</text>
</a>
</g>
</g>
<!-- Node6 -->
<g id="Node000006" class="node">
<title>Node6</title>
<g id="a_Node000006"><a xlink:href="../../d0/dae/group__a__lpf.html" target="_top" xlink:title=" ">
<polygon fill="white" stroke="#666666" points="406,-742 317,-742 317,-723 406,-723 406,-742"/>
<text text-anchor="middle" x="361.5" y="-730" font-family="Helvetica,sans-Serif" font-size="10.00">Low Pass Filter</text>
</a>
</g>
</g>
<!-- Node7 -->
<g id="Node000007" class="node">
<title>Node7</title>
<g id="a_Node000007"><a xlink:href="../../dd/d81/group__a__pid.html" target="_top" xlink:title=" ">
<polygon fill="white" stroke="#666666" points="421,-704.5 302,-704.5 302,-674.5 421,-674.5 421,-704.5"/>
<text text-anchor="start" x="310" y="-692.5" font-family="Helvetica,sans-Serif" font-size="10.00">proportional integral</text>
<text text-anchor="middle" x="361.5" y="-681.5" font-family="Helvetica,sans-Serif" font-size="10.00"> derivative controller</text>
</a>
</g>
</g>
<!-- Node8 -->
<g id="Node000008" class="node">
<title>Node8</title>
<g id="a_Node000008"><a xlink:href="../../d9/da5/group__a__pid__fuzzy.html" target="_top" xlink:title=" ">
<polygon fill="white" stroke="#666666" points="416.5,-656 306.5,-656 306.5,-615 416.5,-615 416.5,-656"/>
<text text-anchor="start" x="314.5" y="-644" font-family="Helvetica,sans-Serif" font-size="10.00">fuzzy proportional</text>
<text text-anchor="start" x="314.5" y="-633" font-family="Helvetica,sans-Serif" font-size="10.00"> integral derivative</text>
<text text-anchor="middle" x="361.5" y="-622" font-family="Helvetica,sans-Serif" font-size="10.00"> controller</text>
</a>
</g>
</g>
<!-- Node9 -->
<g id="Node000009" class="node">
<title>Node9</title>
<g id="a_Node000009"><a xlink:href="../../d1/da2/group__a__pid__neuro.html" target="_top" xlink:title=" ">
<polygon fill="white" stroke="#666666" points="441,-596.5 282,-596.5 282,-566.5 441,-566.5 441,-596.5"/>
<text text-anchor="start" x="290" y="-584.5" font-family="Helvetica,sans-Serif" font-size="10.00">single neuron proportional</text>
<text text-anchor="middle" x="361.5" y="-573.5" font-family="Helvetica,sans-Serif" font-size="10.00"> integral derivative controller</text>
</a>
</g>
</g>
<!-- Node10 -->
<g id="Node000010" class="node">
<title>Node10</title>
<g id="a_Node000010"><a xlink:href="../../db/d44/group__a__plane.html" target="_top" xlink:title=" ">
<polygon fill="white" stroke="#666666" points="429.5,-548 293.5,-548 293.5,-529 429.5,-529 429.5,-548"/>
<text text-anchor="middle" x="361.5" y="-536" font-family="Helvetica,sans-Serif" font-size="10.00">three&#45;dimensional plane</text>
</a>
</g>
</g>
<!-- Node11 -->
<g id="Node000011" class="node">
<title>Node11</title>
<g id="a_Node000011"><a xlink:href="../../d2/d21/group__a__point2.html" target="_top" xlink:title=" ">
<polygon fill="white" stroke="#666666" points="424.5,-511 298.5,-511 298.5,-492 424.5,-492 424.5,-511"/>
<text text-anchor="middle" x="361.5" y="-499" font-family="Helvetica,sans-Serif" font-size="10.00">two&#45;dimensional point</text>
</a>
</g>
</g>
<!-- Node12 -->
<g id="Node000012" class="node">
<title>Node12</title>
<g id="a_Node000012"><a xlink:href="../../de/d3c/group__a__point3.html" target="_top" xlink:title=" ">
<polygon fill="white" stroke="#666666" points="428.5,-474 294.5,-474 294.5,-455 428.5,-455 428.5,-474"/>
<text text-anchor="middle" x="361.5" y="-462" font-family="Helvetica,sans-Serif" font-size="10.00">three&#45;dimensional point</text>
</a>
</g>
</g>
<!-- Node13 -->
<g id="Node000013" class="node">
<title>Node13</title>
<g id="a_Node000013"><a xlink:href="../../d9/d8d/group__a__rand.html" target="_top" xlink:title=" ">
<polygon fill="white" stroke="#666666" points="426.5,-436.5 296.5,-436.5 296.5,-406.5 426.5,-406.5 426.5,-436.5"/>
<text text-anchor="start" x="304.5" y="-424.5" font-family="Helvetica,sans-Serif" font-size="10.00">pseudorandom number</text>
<text text-anchor="middle" x="361.5" y="-413.5" font-family="Helvetica,sans-Serif" font-size="10.00"> generator</text>
</a>
</g>
</g>
<!-- Node2 -->
<g id="Node000002" class="node">
<title>Node2</title>
<g id="a_Node000002"><a xlink:href="../../d7/d8d/group__a__regress.html" target="_top" xlink:title=" ">
<polygon fill="white" stroke="#666666" points="68,-431 0,-431 0,-412 68,-412 68,-431"/>
<text text-anchor="middle" x="34" y="-419" font-family="Helvetica,sans-Serif" font-size="10.00">regression</text>
</a>
</g>
</g>
<!-- Node1 -->
<g id="Node000001" class="node">
<title>Node1</title>
<g id="a_Node000001"><a xlink:title=" ">
<polygon fill="#999999" stroke="#666666" points="239,-431 105,-431 105,-412 239,-412 239,-431"/>
<text text-anchor="middle" x="172" y="-419" font-family="Helvetica,sans-Serif" font-size="10.00">simple linear regression</text>
</a>
</g>
</g>
<!-- Node2&#45;&gt;Node1 -->
<g id="edge1" class="edge">
<title>Node2&#45;&gt;Node1</title>
<path fill="none" stroke="black" d="M78.54,-421.5C86.93,-421.5 95.9,-421.5 104.82,-421.5"/>
<polygon fill="black" stroke="black" points="78.27,-418 68.27,-421.5 78.27,-425 78.27,-418"/>
</g>
<!-- Node14 -->
<g id="Node000014" class="node">
<title>Node14</title>
<g id="a_Node000014"><a xlink:href="../../d8/d67/group__a__regress__linear.html" target="_top" xlink:title=" ">
<polygon fill="white" stroke="#666666" points="410.5,-388 312.5,-388 312.5,-369 410.5,-369 410.5,-388"/>
<text text-anchor="middle" x="361.5" y="-376" font-family="Helvetica,sans-Serif" font-size="10.00">linear regression</text>
</a>
</g>
</g>
<!-- Node1&#45;&gt;Node3 -->
<g id="edge2" class="edge">
<title>Node1&#45;&gt;Node3</title>
<path fill="none" stroke="blueviolet" stroke-dasharray="5,2" d="M174.37,-431.1C180.54,-473.15 207.65,-644.77 257,-777.5 265.38,-800.05 262.97,-810.79 282,-825.5 291.51,-832.85 303.49,-837.3 315.21,-839.96"/>
<text text-anchor="middle" x="260.5" y="-802.5" font-family="Helvetica,sans-Serif" font-size="10.00">a</text>
</g>
<!-- Node1&#45;&gt;Node4 -->
<g id="edge3" class="edge">
<title>Node1&#45;&gt;Node4</title>
<path fill="none" stroke="blueviolet" stroke-dasharray="5,2" d="M174.65,-431.22C181.59,-470.91 210.15,-624.13 257,-742.5 265.56,-764.14 263.46,-774.43 282,-788.5 287.9,-792.98 294.73,-796.38 301.84,-798.95"/>
<text text-anchor="middle" x="260.5" y="-765.5" font-family="Helvetica,sans-Serif" font-size="10.00">a</text>
</g>
<!-- Node1&#45;&gt;Node5 -->
<g id="edge4" class="edge">
<title>Node1&#45;&gt;Node5</title>
<path fill="none" stroke="blueviolet" stroke-dasharray="5,2" d="M174.81,-431.05C182.05,-468.11 210.74,-605.56 257,-710.5 265.61,-730.03 264.68,-739.02 282,-751.5 286.76,-754.93 292.08,-757.72 297.63,-759.99"/>
<text text-anchor="middle" x="260.5" y="-730.5" font-family="Helvetica,sans-Serif" font-size="10.00">a</text>
</g>
<!-- Node1&#45;&gt;Node6 -->
<g id="edge5" class="edge">
<title>Node1&#45;&gt;Node6</title>
<path fill="none" stroke="blueviolet" stroke-dasharray="5,2" d="M173.33,-431.27C175.31,-472.93 188.94,-637.11 282,-713.5 291.86,-721.6 304.63,-726.34 317,-729.09"/>
<text text-anchor="middle" x="260.5" y="-698.5" font-family="Helvetica,sans-Serif" font-size="10.00">a</text>
</g>
<!-- Node1&#45;&gt;Node7 -->
<g id="edge6" class="edge">
<title>Node1&#45;&gt;Node7</title>
<path fill="none" stroke="blueviolet" stroke-dasharray="5,2" d="M174.4,-431.1C180.22,-467.49 205.86,-598.22 282,-665.5 287.77,-670.6 294.59,-674.61 301.78,-677.77"/>
<text text-anchor="middle" x="260.5" y="-647.5" font-family="Helvetica,sans-Serif" font-size="10.00">a</text>
</g>
<!-- Node1&#45;&gt;Node8 -->
<g id="edge7" class="edge">
<title>Node1&#45;&gt;Node8</title>
<path fill="none" stroke="blueviolet" stroke-dasharray="5,2" d="M176.08,-431.02C186.23,-461 221.54,-554.52 282,-605.5 289.14,-611.52 297.61,-616.4 306.31,-620.34"/>
<text text-anchor="middle" x="260.5" y="-587.5" font-family="Helvetica,sans-Serif" font-size="10.00">a</text>
</g>
<!-- Node1&#45;&gt;Node9 -->
<g id="edge8" class="edge">
<title>Node1&#45;&gt;Node9</title>
<path fill="none" stroke="blueviolet" stroke-dasharray="5,2" d="M177.95,-431.03C191.27,-455.77 230.41,-522.51 282,-557.5 287.07,-560.94 292.65,-563.9 298.43,-566.45"/>
<text text-anchor="middle" x="260.5" y="-545.5" font-family="Helvetica,sans-Serif" font-size="10.00">a</text>
</g>
<!-- Node1&#45;&gt;Node10 -->
<g id="edge9" class="edge">
<title>Node1&#45;&gt;Node10</title>
<path fill="none" stroke="blueviolet" stroke-dasharray="5,2" d="M180.59,-431.14C196.88,-451.13 237.36,-497.18 282,-520.5 288.57,-523.93 295.78,-526.71 303.09,-528.97"/>
<text text-anchor="middle" x="260.5" y="-510.5" font-family="Helvetica,sans-Serif" font-size="10.00">a</text>
</g>
<!-- Node1&#45;&gt;Node11 -->
<g id="edge10" class="edge">
<title>Node1&#45;&gt;Node11</title>
<path fill="none" stroke="blueviolet" stroke-dasharray="5,2" d="M186.8,-431.12C206.86,-444.68 245.69,-469.36 282,-483.5 290.47,-486.8 299.7,-489.58 308.76,-491.9"/>
<text text-anchor="middle" x="260.5" y="-477.5" font-family="Helvetica,sans-Serif" font-size="10.00">a</text>
</g>
<!-- Node1&#45;&gt;Node12 -->
<g id="edge11" class="edge">
<title>Node1&#45;&gt;Node12</title>
<path fill="none" stroke="blueviolet" stroke-dasharray="5,2" d="M214.61,-431.04C245.68,-438.17 287.96,-447.86 319,-454.98"/>
<text text-anchor="middle" x="260.5" y="-445.5" font-family="Helvetica,sans-Serif" font-size="10.00">a</text>
</g>
<!-- Node1&#45;&gt;Node13 -->
<g id="edge12" class="edge">
<title>Node1&#45;&gt;Node13</title>
<path fill="none" stroke="blueviolet" stroke-dasharray="5,2" d="M239.11,-421.5C257.66,-421.5 277.81,-421.5 296.25,-421.5"/>
<text text-anchor="middle" x="260.5" y="-424.5" font-family="Helvetica,sans-Serif" font-size="10.00">a</text>
</g>
<!-- Node1&#45;&gt;Node14 -->
<g id="edge13" class="edge">
<title>Node1&#45;&gt;Node14</title>
<path fill="none" stroke="blueviolet" stroke-dasharray="5,2" d="M214.61,-411.96C245.68,-404.83 287.96,-395.14 319,-388.02"/>
<text text-anchor="middle" x="260.5" y="-404.5" font-family="Helvetica,sans-Serif" font-size="10.00">a</text>
</g>
<!-- Node15 -->
<g id="Node000015" class="node">
<title>Node15</title>
<g id="a_Node000015"><a xlink:href="../../dd/dce/group__a__tf.html" target="_top" xlink:title=" ">
<polygon fill="white" stroke="#666666" points="410.5,-351 312.5,-351 312.5,-332 410.5,-332 410.5,-351"/>
<text text-anchor="middle" x="361.5" y="-339" font-family="Helvetica,sans-Serif" font-size="10.00">transfer function</text>
</a>
</g>
</g>
<!-- Node1&#45;&gt;Node15 -->
<g id="edge14" class="edge">
<title>Node1&#45;&gt;Node15</title>
<path fill="none" stroke="blueviolet" stroke-dasharray="5,2" d="M186.8,-411.88C206.86,-398.32 245.69,-373.64 282,-359.5 291.51,-355.8 301.98,-352.74 312.09,-350.27"/>
<text text-anchor="middle" x="260.5" y="-372.5" font-family="Helvetica,sans-Serif" font-size="10.00">a</text>
</g>
<!-- Node16 -->
<g id="Node000016" class="node">
<title>Node16</title>
<g id="a_Node000016"><a xlink:href="../../d1/d83/group__a__trajbell.html" target="_top" xlink:title=" ">
<polygon fill="white" stroke="#666666" points="419.5,-313.5 303.5,-313.5 303.5,-283.5 419.5,-283.5 419.5,-313.5"/>
<text text-anchor="start" x="311.5" y="-301.5" font-family="Helvetica,sans-Serif" font-size="10.00">bell&#45;shaped velocity</text>
<text text-anchor="middle" x="361.5" y="-290.5" font-family="Helvetica,sans-Serif" font-size="10.00"> trajectory</text>
</a>
</g>
</g>
<!-- Node1&#45;&gt;Node16 -->
<g id="edge15" class="edge">
<title>Node1&#45;&gt;Node16</title>
<path fill="none" stroke="blueviolet" stroke-dasharray="5,2" d="M180.98,-411.82C197.69,-392.14 238.44,-347.27 282,-322.5 288.57,-318.77 295.78,-315.55 303.09,-312.8"/>
<text text-anchor="middle" x="260.5" y="-341.5" font-family="Helvetica,sans-Serif" font-size="10.00">a</text>
</g>
<!-- Node17 -->
<g id="Node000017" class="node">
<title>Node17</title>
<g id="a_Node000017"><a xlink:href="../../d3/d60/group__a__trajpoly3.html" target="_top" xlink:title=" ">
<polygon fill="white" stroke="#666666" points="436.5,-265 286.5,-265 286.5,-246 436.5,-246 436.5,-265"/>
<text text-anchor="middle" x="361.5" y="-253" font-family="Helvetica,sans-Serif" font-size="10.00">cubic polynomial trajectory</text>
</a>
</g>
</g>
<!-- Node1&#45;&gt;Node17 -->
<g id="edge16" class="edge">
<title>Node1&#45;&gt;Node17</title>
<path fill="none" stroke="blueviolet" stroke-dasharray="5,2" d="M177.25,-411.78C189.38,-385.23 226.91,-311 282,-274.5 287.84,-270.63 294.4,-267.54 301.17,-265.09"/>
<text text-anchor="middle" x="260.5" y="-296.5" font-family="Helvetica,sans-Serif" font-size="10.00">a</text>
</g>
<!-- Node18 -->
<g id="Node000018" class="node">
<title>Node18</title>
<g id="a_Node000018"><a xlink:href="../../d6/dfe/group__a__trajpoly5.html" target="_top" xlink:title=" ">
<polygon fill="white" stroke="#666666" points="415,-227.5 308,-227.5 308,-197.5 415,-197.5 415,-227.5"/>
<text text-anchor="start" x="316" y="-215.5" font-family="Helvetica,sans-Serif" font-size="10.00">quintic polynomial</text>
<text text-anchor="middle" x="361.5" y="-204.5" font-family="Helvetica,sans-Serif" font-size="10.00"> trajectory</text>
</a>
</g>
</g>
<!-- Node1&#45;&gt;Node18 -->
<g id="edge17" class="edge">
<title>Node1&#45;&gt;Node18</title>
<path fill="none" stroke="blueviolet" stroke-dasharray="5,2" d="M175.84,-411.66C185.29,-380.69 218.73,-284.47 282,-236.5 289.61,-230.73 298.61,-226.34 307.76,-223"/>
<text text-anchor="middle" x="260.5" y="-259.5" font-family="Helvetica,sans-Serif" font-size="10.00">a</text>
</g>
<!-- Node19 -->
<g id="Node000019" class="node">
<title>Node19</title>
<g id="a_Node000019"><a xlink:href="../../df/d82/group__a__trajpoly7.html" target="_top" xlink:title=" ">
<polygon fill="white" stroke="#666666" points="437.5,-179 285.5,-179 285.5,-160 437.5,-160 437.5,-179"/>
<text text-anchor="middle" x="361.5" y="-167" font-family="Helvetica,sans-Serif" font-size="10.00">hepta polynomial trajectory</text>
</a>
</g>
</g>
<!-- Node1&#45;&gt;Node19 -->
<g id="edge18" class="edge">
<title>Node1&#45;&gt;Node19</title>
<path fill="none" stroke="blueviolet" stroke-dasharray="5,2" d="M174.5,-411.69C180.55,-375.72 206.53,-250 282,-188.5 286.67,-184.69 291.99,-181.63 297.61,-179.16"/>
<text text-anchor="middle" x="260.5" y="-216.5" font-family="Helvetica,sans-Serif" font-size="10.00">a</text>
</g>
<!-- Node20 -->
<g id="Node000020" class="node">
<title>Node20</title>
<g id="a_Node000020"><a xlink:href="../../d7/d75/group__a__trajtrap.html" target="_top" xlink:title=" ">
<polygon fill="white" stroke="#666666" points="418,-141.5 305,-141.5 305,-111.5 418,-111.5 418,-141.5"/>
<text text-anchor="start" x="313" y="-129.5" font-family="Helvetica,sans-Serif" font-size="10.00">trapezoidal velocity</text>
<text text-anchor="middle" x="361.5" y="-118.5" font-family="Helvetica,sans-Serif" font-size="10.00"> trajectory</text>
</a>
</g>
</g>
<!-- Node1&#45;&gt;Node20 -->
<g id="edge19" class="edge">
<title>Node1&#45;&gt;Node20</title>
<path fill="none" stroke="blueviolet" stroke-dasharray="5,2" d="M173.59,-411.84C176.58,-372.07 193.63,-219.84 282,-150.5 288.73,-145.22 296.61,-141.1 304.75,-137.88"/>
<text text-anchor="middle" x="260.5" y="-175.5" font-family="Helvetica,sans-Serif" font-size="10.00">a</text>
</g>
<!-- Node21 -->
<g id="Node000021" class="node">
<title>Node21</title>
<g id="a_Node000021"><a xlink:href="../../d6/d5a/group__a__vector2.html" target="_top" xlink:title=" ">
<polygon fill="white" stroke="#666666" points="427.5,-93 295.5,-93 295.5,-74 427.5,-74 427.5,-93"/>
<text text-anchor="middle" x="361.5" y="-81" font-family="Helvetica,sans-Serif" font-size="10.00">two&#45;dimensional vector</text>
</a>
</g>
</g>
<!-- Node1&#45;&gt;Node21 -->
<g id="edge20" class="edge">
<title>Node1&#45;&gt;Node21</title>
<path fill="none" stroke="blueviolet" stroke-dasharray="5,2" d="M172.95,-411.71C173.29,-367.62 180.96,-186.03 282,-102.5 286.65,-98.66 291.95,-95.57 297.55,-93.09"/>
<text text-anchor="middle" x="260.5" y="-124.5" font-family="Helvetica,sans-Serif" font-size="10.00">a</text>
</g>
<!-- Node22 -->
<g id="Node000022" class="node">
<title>Node22</title>
<g id="a_Node000022"><a xlink:href="../../d5/db6/group__a__vector3.html" target="_top" xlink:title=" ">
<polygon fill="white" stroke="#666666" points="431.5,-56 291.5,-56 291.5,-37 431.5,-37 431.5,-56"/>
<text text-anchor="middle" x="361.5" y="-44" font-family="Helvetica,sans-Serif" font-size="10.00">three&#45;dimensional vector</text>
</a>
</g>
</g>
<!-- Node1&#45;&gt;Node22 -->
<g id="edge21" class="edge">
<title>Node1&#45;&gt;Node22</title>
<path fill="none" stroke="blueviolet" stroke-dasharray="5,2" d="M174.56,-411.91C181.12,-372.77 208.43,-221.77 257,-106.5 265.43,-86.48 264.44,-77.29 282,-64.5 286.63,-61.12 291.8,-58.37 297.2,-56.12"/>
<text text-anchor="middle" x="260.5" y="-109.5" font-family="Helvetica,sans-Serif" font-size="10.00">a</text>
</g>
<!-- Node23 -->
<g id="Node000023" class="node">
<title>Node23</title>
<g id="a_Node000023"><a xlink:href="../../d2/d6c/group__a__version.html" target="_top" xlink:title=" ">
<polygon fill="white" stroke="#666666" points="430,-19 293,-19 293,0 430,0 430,-19"/>
<text text-anchor="middle" x="361.5" y="-7" font-family="Helvetica,sans-Serif" font-size="10.00">algorithm library version</text>
</a>
</g>
</g>
<!-- Node1&#45;&gt;Node23 -->
<g id="edge22" class="edge">
<title>Node1&#45;&gt;Node23</title>
<path fill="none" stroke="blueviolet" stroke-dasharray="5,2" d="M174.39,-411.81C180.55,-370.16 207.34,-202.56 257,-73.5 265.36,-51.78 263.46,-41.57 282,-27.5 286.46,-24.12 291.43,-21.35 296.67,-19.1"/>
<text text-anchor="middle" x="260.5" y="-76.5" font-family="Helvetica,sans-Serif" font-size="10.00">a</text>
</g>
</g>
</svg>

<g id="navigator" transform="translate(0 0)" fill="#404254">
  <rect fill="#f2f5e9" fill-opacity="0.5" stroke="#606060" stroke-width=".5" x="0" y="0" width="60" height="60"/>
  <use id="zoomplus" xlink:href="#zoomPlus" x="17" y="9" onmousedown="handleZoom(evt,'in')"/>
  <use id="zoomminus" xlink:href="#zoomMin" x="42" y="9" onmousedown="handleZoom(evt,'out')"/>
  <use id="reset" xlink:href="#resetDef" x="30" y="36" onmousedown="handleReset()"/>
   <use id="arrowup" xlink:href="#arrowUp" x="0" y="0" onmousedown="handlePan(0,-1)"/>
  <use id="arrowright" xlink:href="#arrowRight" x="0" y="0" onmousedown="handlePan(1,0)"/>
  <use id="arrowdown" xlink:href="#arrowDown" x="0" y="0" onmousedown="handlePan(0,1)"/>
  <use id="arrowleft" xlink:href="#arrowLeft" x="0" y="0" onmousedown="handlePan(-1,0)"/>
</g>
<svg viewBox="0 0 15 15" width="100%" height="30px" preserveAspectRatio="xMaxYMin meet">
 <g id="arrow_out" transform="scale(0.3 0.3)">
  <a xlink:href="group__a__regress__simple_org.svg" target="_base">
   <rect id="button" ry="5" rx="5" y="6" x="6" height="38" width="38"
        fill="#f2f5e9" fill-opacity="0.5" stroke="#606060" stroke-width="1.0"/>
   <path id="arrow"
     d="M 11.500037,31.436501 C 11.940474,20.09759 22.043105,11.32322 32.158766,21.979434 L 37.068811,17.246167 C 37.068811,17.246167 37.088388,32 37.088388,32 L 22.160133,31.978069 C 22.160133,31.978069 26.997745,27.140456 26.997745,27.140456 C 18.528582,18.264221 13.291696,25.230495 11.500037,31.436501 z"
     style="fill:#404040;"/>
  </a>
 </g>
</svg>

<style type='text/css'>
<![CDATA[
[data-mouse-over-selected='false'] { opacity: 0.7; }
[data-mouse-over-selected='true']  { opacity: 1.0; }
]]>
</style>
<script type="application/ecmascript"><![CDATA[
document.addEventListener('DOMContentLoaded', (event) => {
  highlightEdges();
  highlightAdjacentNodes();
});
]]></script>
</svg>
