<?xml version="1.0" encoding="UTF-8" standalone="no"?>
<!DOCTYPE svg PUBLIC "-//W3C//DTD SVG 1.1//EN"
 "http://www.w3.org/Graphics/SVG/1.1/DTD/svg11.dtd">
<!-- Generated by graphviz version 2.43.0 (0)
 -->
<!-- Title: simple linear regression Pages: 1 -->
<!--zoomable 812 -->

<svg id="main" version="1.1" xmlns="http://www.w3.org/2000/svg" xmlns:xlink="http://www.w3.org/1999/xlink" xml:space="preserve" onload="init(evt)">

<style type="text/css"><![CDATA[
.node, .edge {opacity: 0.7;}
.node.selected, .edge.selected {opacity: 1;}
.edge:hover path { stroke: red; }
.edge:hover polygon { stroke: red; fill: red; }
]]></style>

<defs>
  <circle id="rim" cx="0" cy="0" r="7"/>
  <circle id="rim2" cx="0" cy="0" r="3.5"/>
  <g id="zoomPlus">
    <use xlink:href="#rim" fill="#404040"><set attributeName="fill" to="#808080" begin="zoomplus.mouseover" end="zoomplus.mouseout"/></use>
    <path d="M-4,0h8M0,-4v8" fill="none" stroke="white" stroke-width="1.5" pointer-events="none"/>
  </g>
  <g id="zoomMin">
    <use xlink:href="#rim" fill="#404040"><set attributeName="fill" to="#808080" begin="zoomminus.mouseover" end="zoomminus.mouseout"/></use>
    <path d="M-4,0h8" fill="none" stroke="white" stroke-width="1.5" pointer-events="none"/>
  </g>
  <g id="arrowUp" transform="translate(30 24)">
    <use xlink:href="#rim"/>
    <path pointer-events="none" fill="none" stroke="white" stroke-width="1.5" d="M0,-3.0v7 M-2.5,-0.5L0,-3.0L2.5,-0.5"/>
  </g>
  <g id="arrowRight" transform="rotate(90) translate(36 -43)">
    <use xlink:href="#rim"/>
    <path pointer-events="none" fill="none" stroke="white" stroke-width="1.5" d="M0,-3.0v7 M-2.5,-0.5L0,-3.0L2.5,-0.5"/>
  </g>
  <g id="arrowDown" transform="rotate(180) translate(-30 -48)">
    <use xlink:href="#rim"/>
    <path pointer-events="none" fill="none" stroke="white" stroke-width="1.5" d="M0,-3.0v7 M-2.5,-0.5L0,-3.0L2.5,-0.5"/>
  </g>
  <g id="arrowLeft" transform="rotate(270) translate(-36 17)">
    <use xlink:href="#rim"/>
    <path pointer-events="none" fill="none" stroke="white" stroke-width="1.5" d="M0,-3.0v7 M-2.5,-0.5L0,-3.0L2.5,-0.5"/>
  </g>
  <g id="resetDef">
    <use xlink:href="#rim2" fill="#404040"><set attributeName="fill" to="#808080" begin="reset.mouseover" end="reset.mouseout"/></use>
  </g>
</defs>
<script type="application/ecmascript">
var viewWidth = 449;
var viewHeight = 812;
var sectionId = 'dynsection-0';
</script>
<script type="application/ecmascript" xlink:href="../../svg.min.js"/>
<svg id="graph" class="graph">
<g id="viewport">
<title>simple linear regression</title>
<!-- Node3 -->
<g id="Node000003" class="node">
<title>Node3</title>
<g id="a_Node000003"><a xlink:href="../../d5/d49/group__a__hpf.html" target="_top" xlink:title=" ">
<polygon fill="white" stroke="#666666" points="407.5,-804 315.5,-804 315.5,-785 407.5,-785 407.5,-804"/>
<text text-anchor="middle" x="361.5" y="-792" font-family="Helvetica,sans-Serif" font-size="10.00">High Pass Filter</text>
</a>
</g>
</g>
<!-- Node4 -->
<g id="Node000004" class="node">
<title>Node4</title>
<g id="a_Node000004"><a xlink:href="../../dd/d35/group__a__line2.html" target="_top" xlink:title=" ">
<polygon fill="white" stroke="#666666" points="421,-767 302,-767 302,-748 421,-748 421,-767"/>
<text text-anchor="middle" x="361.5" y="-755" font-family="Helvetica,sans-Serif" font-size="10.00">two&#45;dimensional line</text>
</a>
</g>
</g>
<!-- Node5 -->
<g id="Node000005" class="node">
<title>Node5</title>
<g id="a_Node000005"><a xlink:href="../../d8/ddb/group__a__line3.html" target="_top" xlink:title=" ">
<polygon fill="white" stroke="#666666" points="425,-730 298,-730 298,-711 425,-711 425,-730"/>
<text text-anchor="middle" x="361.5" y="-718" font-family="Helvetica,sans-Serif" font-size="10.00">three&#45;dimensional line</text>
</a>
</g>
</g>
<!-- Node6 -->
<g id="Node000006" class="node">
<title>Node6</title>
<g id="a_Node000006"><a xlink:href="../../d0/dae/group__a__lpf.html" target="_top" xlink:title=" ">
<polygon fill="white" stroke="#666666" points="406,-693 317,-693 317,-674 406,-674 406,-693"/>
<text text-anchor="middle" x="361.5" y="-681" font-family="Helvetica,sans-Serif" font-size="10.00">Low Pass Filter</text>
</a>
</g>
</g>
<!-- Node7 -->
<g id="Node000007" class="node">
<title>Node7</title>
<g id="a_Node000007"><a xlink:href="../../dd/d81/group__a__pid.html" target="_top" xlink:title=" ">
<polygon fill="white" stroke="#666666" points="421,-655.5 302,-655.5 302,-625.5 421,-625.5 421,-655.5"/>
<text text-anchor="start" x="310" y="-643.5" font-family="Helvetica,sans-Serif" font-size="10.00">proportional integral</text>
<text text-anchor="middle" x="361.5" y="-632.5" font-family="Helvetica,sans-Serif" font-size="10.00"> derivative controller</text>
</a>
</g>
</g>
<!-- Node8 -->
<g id="Node000008" class="node">
<title>Node8</title>
<g id="a_Node000008"><a xlink:href="../../d9/da5/group__a__pid__fuzzy.html" target="_top" xlink:title=" ">
<polygon fill="white" stroke="#666666" points="416.5,-607 306.5,-607 306.5,-566 416.5,-566 416.5,-607"/>
<text text-anchor="start" x="314.5" y="-595" font-family="Helvetica,sans-Serif" font-size="10.00">fuzzy proportional</text>
<text text-anchor="start" x="314.5" y="-584" font-family="Helvetica,sans-Serif" font-size="10.00"> integral derivative</text>
<text text-anchor="middle" x="361.5" y="-573" font-family="Helvetica,sans-Serif" font-size="10.00"> controller</text>
</a>
</g>
</g>
<!-- Node9 -->
<g id="Node000009" class="node">
<title>Node9</title>
<g id="a_Node000009"><a xlink:href="../../d1/da2/group__a__pid__neuro.html" target="_top" xlink:title=" ">
<polygon fill="white" stroke="#666666" points="441,-547.5 282,-547.5 282,-517.5 441,-517.5 441,-547.5"/>
<text text-anchor="start" x="290" y="-535.5" font-family="Helvetica,sans-Serif" font-size="10.00">single neuron proportional</text>
<text text-anchor="middle" x="361.5" y="-524.5" font-family="Helvetica,sans-Serif" font-size="10.00"> integral derivative controller</text>
</a>
</g>
</g>
<!-- Node10 -->
<g id="Node000010" class="node">
<title>Node10</title>
<g id="a_Node000010"><a xlink:href="../../db/d44/group__a__plane.html" target="_top" xlink:title=" ">
<polygon fill="white" stroke="#666666" points="429.5,-499 293.5,-499 293.5,-480 429.5,-480 429.5,-499"/>
<text text-anchor="middle" x="361.5" y="-487" font-family="Helvetica,sans-Serif" font-size="10.00">three&#45;dimensional plane</text>
</a>
</g>
</g>
<!-- Node11 -->
<g id="Node000011" class="node">
<title>Node11</title>
<g id="a_Node000011"><a xlink:href="../../d2/d21/group__a__point2.html" target="_top" xlink:title=" ">
<polygon fill="white" stroke="#666666" points="424.5,-462 298.5,-462 298.5,-443 424.5,-443 424.5,-462"/>
<text text-anchor="middle" x="361.5" y="-450" font-family="Helvetica,sans-Serif" font-size="10.00">two&#45;dimensional point</text>
</a>
</g>
</g>
<!-- Node12 -->
<g id="Node000012" class="node">
<title>Node12</title>
<g id="a_Node000012"><a xlink:href="../../de/d3c/group__a__point3.html" target="_top" xlink:title=" ">
<polygon fill="white" stroke="#666666" points="428.5,-425 294.5,-425 294.5,-406 428.5,-406 428.5,-425"/>
<text text-anchor="middle" x="361.5" y="-413" font-family="Helvetica,sans-Serif" font-size="10.00">three&#45;dimensional point</text>
</a>
</g>
</g>
<!-- Node2 -->
<g id="Node000002" class="node">
<title>Node2</title>
<g id="a_Node000002"><a xlink:href="../../d7/d8d/group__a__regress.html" target="_top" xlink:title=" ">
<polygon fill="white" stroke="#666666" points="68,-406 0,-406 0,-387 68,-387 68,-406"/>
<text text-anchor="middle" x="34" y="-394" font-family="Helvetica,sans-Serif" font-size="10.00">regression</text>
</a>
</g>
</g>
<!-- Node1 -->
<g id="Node000001" class="node">
<title>Node1</title>
<g id="a_Node000001"><a xlink:title=" ">
<polygon fill="#999999" stroke="#666666" points="239,-406 105,-406 105,-387 239,-387 239,-406"/>
<text text-anchor="middle" x="172" y="-394" font-family="Helvetica,sans-Serif" font-size="10.00">simple linear regression</text>
</a>
</g>
</g>
<!-- Node2&#45;&gt;Node1 -->
<g id="edge1" class="edge">
<title>Node2&#45;&gt;Node1</title>
<path fill="none" stroke="black" d="M78.54,-396.5C86.93,-396.5 95.9,-396.5 104.82,-396.5"/>
<polygon fill="black" stroke="black" points="78.27,-393 68.27,-396.5 78.27,-400 78.27,-393"/>
</g>
<!-- Node13 -->
<g id="Node000013" class="node">
<title>Node13</title>
<g id="a_Node000013"><a xlink:href="../../d8/d67/group__a__regress__linear.html" target="_top" xlink:title=" ">
<polygon fill="white" stroke="#666666" points="410.5,-388 312.5,-388 312.5,-369 410.5,-369 410.5,-388"/>
<text text-anchor="middle" x="361.5" y="-376" font-family="Helvetica,sans-Serif" font-size="10.00">linear regression</text>
</a>
</g>
</g>
<!-- Node1&#45;&gt;Node3 -->
<g id="edge2" class="edge">
<title>Node1&#45;&gt;Node3</title>
<path fill="none" stroke="blueviolet" stroke-dasharray="5,2" d="M174.46,-406.11C180.83,-446.69 208.07,-607.71 257,-731.5 265.41,-752.78 263.71,-762.75 282,-776.5 291.61,-783.72 303.63,-788.13 315.34,-790.79"/>
<text text-anchor="middle" x="260.5" y="-754.5" font-family="Helvetica,sans-Serif" font-size="10.00">a</text>
</g>
<!-- Node1&#45;&gt;Node4 -->
<g id="edge3" class="edge">
<title>Node1&#45;&gt;Node4</title>
<path fill="none" stroke="blueviolet" stroke-dasharray="5,2" d="M174.56,-406.06C181.03,-444.39 207.79,-590.25 257,-700.5 265.39,-719.3 265.16,-727.65 282,-739.5 287.95,-743.68 294.72,-746.91 301.73,-749.4"/>
<text text-anchor="middle" x="260.5" y="-719.5" font-family="Helvetica,sans-Serif" font-size="10.00">a</text>
</g>
<!-- Node1&#45;&gt;Node5 -->
<g id="edge4" class="edge">
<title>Node1&#45;&gt;Node5</title>
<path fill="none" stroke="blueviolet" stroke-dasharray="5,2" d="M172.95,-406.09C173.3,-449.24 181.02,-626.6 282,-702.5 286.81,-706.11 292.21,-709.02 297.88,-711.36"/>
<text text-anchor="middle" x="260.5" y="-688.5" font-family="Helvetica,sans-Serif" font-size="10.00">a</text>
</g>
<!-- Node1&#45;&gt;Node6 -->
<g id="edge5" class="edge">
<title>Node1&#45;&gt;Node6</title>
<path fill="none" stroke="blueviolet" stroke-dasharray="5,2" d="M173.72,-406.24C177.17,-445.68 195.69,-594.7 282,-664.5 291.81,-672.44 304.43,-677.14 316.66,-679.9"/>
<text text-anchor="middle" x="260.5" y="-645.5" font-family="Helvetica,sans-Serif" font-size="10.00">a</text>
</g>
<!-- Node1&#45;&gt;Node7 -->
<g id="edge6" class="edge">
<title>Node1&#45;&gt;Node7</title>
<path fill="none" stroke="blueviolet" stroke-dasharray="5,2" d="M174.91,-406.09C182.19,-440.19 211.48,-556.65 282,-616.5 287.87,-621.48 294.75,-625.43 301.96,-628.55"/>
<text text-anchor="middle" x="260.5" y="-600.5" font-family="Helvetica,sans-Serif" font-size="10.00">a</text>
</g>
<!-- Node1&#45;&gt;Node8 -->
<g id="edge7" class="edge">
<title>Node1&#45;&gt;Node8</title>
<path fill="none" stroke="blueviolet" stroke-dasharray="5,2" d="M177.1,-406.29C189.11,-433.86 226.89,-512.94 282,-556.5 289.21,-562.2 297.63,-566.91 306.22,-570.78"/>
<text text-anchor="middle" x="260.5" y="-541.5" font-family="Helvetica,sans-Serif" font-size="10.00">a</text>
</g>
<!-- Node1&#45;&gt;Node9 -->
<g id="edge8" class="edge">
<title>Node1&#45;&gt;Node9</title>
<path fill="none" stroke="blueviolet" stroke-dasharray="5,2" d="M179.72,-406.18C195.2,-427.78 235.68,-480.24 282,-508.5 287.6,-511.91 293.72,-514.88 299.99,-517.44"/>
<text text-anchor="middle" x="260.5" y="-496.5" font-family="Helvetica,sans-Serif" font-size="10.00">a</text>
</g>
<!-- Node1&#45;&gt;Node10 -->
<g id="edge9" class="edge">
<title>Node1&#45;&gt;Node10</title>
<path fill="none" stroke="blueviolet" stroke-dasharray="5,2" d="M183.92,-406.14C202.64,-422.17 242.67,-454.22 282,-471.5 289.68,-474.88 298.07,-477.66 306.42,-479.94"/>
<text text-anchor="middle" x="260.5" y="-464.5" font-family="Helvetica,sans-Serif" font-size="10.00">a</text>
</g>
<!-- Node1&#45;&gt;Node11 -->
<g id="edge10" class="edge">
<title>Node1&#45;&gt;Node11</title>
<path fill="none" stroke="blueviolet" stroke-dasharray="5,2" d="M197.86,-406.04C219.79,-414.25 252.73,-426.07 282,-434.5 292.61,-437.56 304.15,-440.44 315.04,-442.97"/>
<text text-anchor="middle" x="260.5" y="-432.5" font-family="Helvetica,sans-Serif" font-size="10.00">a</text>
</g>
<!-- Node1&#45;&gt;Node12 -->
<g id="edge11" class="edge">
<title>Node1&#45;&gt;Node12</title>
<path fill="none" stroke="blueviolet" stroke-dasharray="5,2" d="M239.11,-403.2C257.03,-405.01 276.43,-406.98 294.36,-408.8"/>
<text text-anchor="middle" x="260.5" y="-408.5" font-family="Helvetica,sans-Serif" font-size="10.00">a</text>
</g>
<!-- Node1&#45;&gt;Node13 -->
<g id="edge12" class="edge">
<title>Node1&#45;&gt;Node13</title>
<path fill="none" stroke="blueviolet" stroke-dasharray="5,2" d="M223.94,-386.95C234.82,-385.21 246.26,-383.6 257,-382.5 275.07,-380.65 294.99,-379.64 312.49,-379.09"/>
<text text-anchor="middle" x="260.5" y="-385.5" font-family="Helvetica,sans-Serif" font-size="10.00">a</text>
</g>
<!-- Node14 -->
<g id="Node000014" class="node">
<title>Node14</title>
<g id="a_Node000014"><a xlink:href="../../dd/dce/group__a__tf.html" target="_top" xlink:title=" ">
<polygon fill="white" stroke="#666666" points="410.5,-351 312.5,-351 312.5,-332 410.5,-332 410.5,-351"/>
<text text-anchor="middle" x="361.5" y="-339" font-family="Helvetica,sans-Serif" font-size="10.00">transfer function</text>
</a>
</g>
</g>
<!-- Node1&#45;&gt;Node14 -->
<g id="edge13" class="edge">
<title>Node1&#45;&gt;Node14</title>
<path fill="none" stroke="blueviolet" stroke-dasharray="5,2" d="M198.28,-386.96C220.2,-378.92 252.9,-367.48 282,-359.5 292.92,-356.51 304.79,-353.6 315.92,-351.04"/>
<text text-anchor="middle" x="260.5" y="-370.5" font-family="Helvetica,sans-Serif" font-size="10.00">a</text>
</g>
<!-- Node15 -->
<g id="Node000015" class="node">
<title>Node15</title>
<g id="a_Node000015"><a xlink:href="../../d1/d83/group__a__trajbell.html" target="_top" xlink:title=" ">
<polygon fill="white" stroke="#666666" points="419.5,-313.5 303.5,-313.5 303.5,-283.5 419.5,-283.5 419.5,-313.5"/>
<text text-anchor="start" x="311.5" y="-301.5" font-family="Helvetica,sans-Serif" font-size="10.00">bell&#45;shaped velocity</text>
<text text-anchor="middle" x="361.5" y="-290.5" font-family="Helvetica,sans-Serif" font-size="10.00"> trajectory</text>
</a>
</g>
</g>
<!-- Node1&#45;&gt;Node15 -->
<g id="edge14" class="edge">
<title>Node1&#45;&gt;Node15</title>
<path fill="none" stroke="blueviolet" stroke-dasharray="5,2" d="M184.7,-386.8C203.91,-371.28 243.84,-340.77 282,-322.5 288.94,-319.18 296.45,-316.19 303.97,-313.54"/>
<text text-anchor="middle" x="260.5" y="-337.5" font-family="Helvetica,sans-Serif" font-size="10.00">a</text>
</g>
<!-- Node16 -->
<g id="Node000016" class="node">
<title>Node16</title>
<g id="a_Node000016"><a xlink:href="../../d3/d60/group__a__trajpoly3.html" target="_top" xlink:title=" ">
<polygon fill="white" stroke="#666666" points="436.5,-265 286.5,-265 286.5,-246 436.5,-246 436.5,-265"/>
<text text-anchor="middle" x="361.5" y="-253" font-family="Helvetica,sans-Serif" font-size="10.00">cubic polynomial trajectory</text>
</a>
</g>
</g>
<!-- Node1&#45;&gt;Node16 -->
<g id="edge15" class="edge">
<title>Node1&#45;&gt;Node16</title>
<path fill="none" stroke="blueviolet" stroke-dasharray="5,2" d="M178.72,-386.79C192.98,-363.48 232.53,-304.12 282,-274.5 288.5,-270.61 295.74,-267.52 303.14,-265.05"/>
<text text-anchor="middle" x="260.5" y="-293.5" font-family="Helvetica,sans-Serif" font-size="10.00">a</text>
</g>
<!-- Node17 -->
<g id="Node000017" class="node">
<title>Node17</title>
<g id="a_Node000017"><a xlink:href="../../d6/dfe/group__a__trajpoly5.html" target="_top" xlink:title=" ">
<polygon fill="white" stroke="#666666" points="415,-227.5 308,-227.5 308,-197.5 415,-197.5 415,-227.5"/>
<text text-anchor="start" x="316" y="-215.5" font-family="Helvetica,sans-Serif" font-size="10.00">quintic polynomial</text>
<text text-anchor="middle" x="361.5" y="-204.5" font-family="Helvetica,sans-Serif" font-size="10.00"> trajectory</text>
</a>
</g>
</g>
<!-- Node1&#45;&gt;Node17 -->
<g id="edge16" class="edge">
<title>Node1&#45;&gt;Node17</title>
<path fill="none" stroke="blueviolet" stroke-dasharray="5,2" d="M176.77,-386.89C188.16,-359.12 224.98,-278.1 282,-236.5 289.71,-230.87 298.77,-226.55 307.93,-223.23"/>
<text text-anchor="middle" x="260.5" y="-260.5" font-family="Helvetica,sans-Serif" font-size="10.00">a</text>
</g>
<!-- Node18 -->
<g id="Node000018" class="node">
<title>Node18</title>
<g id="a_Node000018"><a xlink:href="../../df/d82/group__a__trajpoly7.html" target="_top" xlink:title=" ">
<polygon fill="white" stroke="#666666" points="437.5,-179 285.5,-179 285.5,-160 437.5,-160 437.5,-179"/>
<text text-anchor="middle" x="361.5" y="-167" font-family="Helvetica,sans-Serif" font-size="10.00">hepta polynomial trajectory</text>
</a>
</g>
</g>
<!-- Node1&#45;&gt;Node18 -->
<g id="edge17" class="edge">
<title>Node1&#45;&gt;Node18</title>
<path fill="none" stroke="blueviolet" stroke-dasharray="5,2" d="M175.07,-386.82C182.71,-353.51 212.58,-242.69 282,-188.5 286.97,-184.62 292.62,-181.51 298.56,-179.03"/>
<text text-anchor="middle" x="260.5" y="-213.5" font-family="Helvetica,sans-Serif" font-size="10.00">a</text>
</g>
<!-- Node19 -->
<g id="Node000019" class="node">
<title>Node19</title>
<g id="a_Node000019"><a xlink:href="../../d7/d75/group__a__trajtrap.html" target="_top" xlink:title=" ">
<polygon fill="white" stroke="#666666" points="418,-141.5 305,-141.5 305,-111.5 418,-111.5 418,-141.5"/>
<text text-anchor="start" x="313" y="-129.5" font-family="Helvetica,sans-Serif" font-size="10.00">trapezoidal velocity</text>
<text text-anchor="middle" x="361.5" y="-118.5" font-family="Helvetica,sans-Serif" font-size="10.00"> trajectory</text>
</a>
</g>
</g>
<!-- Node1&#45;&gt;Node19 -->
<g id="edge18" class="edge">
<title>Node1&#45;&gt;Node19</title>
<path fill="none" stroke="blueviolet" stroke-dasharray="5,2" d="M174.02,-386.99C178.57,-349.77 200.47,-213.06 282,-150.5 288.78,-145.29 296.7,-141.21 304.85,-138.01"/>
<text text-anchor="middle" x="260.5" y="-173.5" font-family="Helvetica,sans-Serif" font-size="10.00">a</text>
</g>
<!-- Node20 -->
<g id="Node000020" class="node">
<title>Node20</title>
<g id="a_Node000020"><a xlink:href="../../d6/d5a/group__a__vector2.html" target="_top" xlink:title=" ">
<polygon fill="white" stroke="#666666" points="427.5,-93 295.5,-93 295.5,-74 427.5,-74 427.5,-93"/>
<text text-anchor="middle" x="361.5" y="-81" font-family="Helvetica,sans-Serif" font-size="10.00">two&#45;dimensional vector</text>
</a>
</g>
</g>
<!-- Node1&#45;&gt;Node20 -->
<g id="edge19" class="edge">
<title>Node1&#45;&gt;Node20</title>
<path fill="none" stroke="blueviolet" stroke-dasharray="5,2" d="M173.28,-386.93C175.03,-345.36 187.9,-179.19 282,-102.5 286.67,-98.69 291.99,-95.63 297.61,-93.16"/>
<text text-anchor="middle" x="260.5" y="-129.5" font-family="Helvetica,sans-Serif" font-size="10.00">a</text>
</g>
<!-- Node21 -->
<g id="Node000021" class="node">
<title>Node21</title>
<g id="a_Node000021"><a xlink:href="../../d5/db6/group__a__vector3.html" target="_top" xlink:title=" ">
<polygon fill="white" stroke="#666666" points="431.5,-56 291.5,-56 291.5,-37 431.5,-37 431.5,-56"/>
<text text-anchor="middle" x="361.5" y="-44" font-family="Helvetica,sans-Serif" font-size="10.00">three&#45;dimensional vector</text>
</a>
</g>
</g>
<!-- Node1&#45;&gt;Node21 -->
<g id="edge20" class="edge">
<title>Node1&#45;&gt;Node21</title>
<path fill="none" stroke="blueviolet" stroke-dasharray="5,2" d="M174.8,-386.88C182,-349.56 210.54,-211.16 257,-105.5 265.59,-85.96 264.68,-76.98 282,-64.5 286.76,-61.07 292.08,-58.28 297.63,-56.01"/>
<text text-anchor="middle" x="260.5" y="-108.5" font-family="Helvetica,sans-Serif" font-size="10.00">a</text>
</g>
<!-- Node22 -->
<g id="Node000022" class="node">
<title>Node22</title>
<g id="a_Node000022"><a xlink:href="../../d2/d6c/group__a__version.html" target="_top" xlink:title=" ">
<polygon fill="white" stroke="#666666" points="430,-19 293,-19 293,0 430,0 430,-19"/>
<text text-anchor="middle" x="361.5" y="-7" font-family="Helvetica,sans-Serif" font-size="10.00">algorithm library version</text>
</a>
</g>
</g>
<!-- Node1&#45;&gt;Node22 -->
<g id="edge21" class="edge">
<title>Node1&#45;&gt;Node22</title>
<path fill="none" stroke="blueviolet" stroke-dasharray="5,2" d="M174.6,-386.99C181.41,-347.48 209.86,-192.87 257,-73.5 265.55,-51.86 263.46,-41.57 282,-27.5 286.46,-24.12 291.43,-21.35 296.67,-19.1"/>
<text text-anchor="middle" x="260.5" y="-76.5" font-family="Helvetica,sans-Serif" font-size="10.00">a</text>
</g>
</g>
</svg>

<g id="navigator" transform="translate(0 0)" fill="#404254">
  <rect fill="#f2f5e9" fill-opacity="0.5" stroke="#606060" stroke-width=".5" x="0" y="0" width="60" height="60"/>
  <use id="zoomplus" xlink:href="#zoomPlus" x="17" y="9" onmousedown="handleZoom(evt,'in')"/>
  <use id="zoomminus" xlink:href="#zoomMin" x="42" y="9" onmousedown="handleZoom(evt,'out')"/>
  <use id="reset" xlink:href="#resetDef" x="30" y="36" onmousedown="handleReset()"/>
   <use id="arrowup" xlink:href="#arrowUp" x="0" y="0" onmousedown="handlePan(0,-1)"/>
  <use id="arrowright" xlink:href="#arrowRight" x="0" y="0" onmousedown="handlePan(1,0)"/>
  <use id="arrowdown" xlink:href="#arrowDown" x="0" y="0" onmousedown="handlePan(0,1)"/>
  <use id="arrowleft" xlink:href="#arrowLeft" x="0" y="0" onmousedown="handlePan(-1,0)"/>
</g>
<svg viewBox="0 0 15 15" width="100%" height="30px" preserveAspectRatio="xMaxYMin meet">
 <g id="arrow_out" transform="scale(0.3 0.3)">
  <a xlink:href="group__a__regress__simple_org.svg" target="_base">
   <rect id="button" ry="5" rx="5" y="6" x="6" height="38" width="38"
        fill="#f2f5e9" fill-opacity="0.5" stroke="#606060" stroke-width="1.0"/>
   <path id="arrow"
     d="M 11.500037,31.436501 C 11.940474,20.09759 22.043105,11.32322 32.158766,21.979434 L 37.068811,17.246167 C 37.068811,17.246167 37.088388,32 37.088388,32 L 22.160133,31.978069 C 22.160133,31.978069 26.997745,27.140456 26.997745,27.140456 C 18.528582,18.264221 13.291696,25.230495 11.500037,31.436501 z"
     style="fill:#404040;"/>
  </a>
 </g>
</svg>

<style type='text/css'>
<![CDATA[
[data-mouse-over-selected='false'] { opacity: 0.7; }
[data-mouse-over-selected='true']  { opacity: 1.0; }
]]>
</style>
<script type="application/ecmascript"><![CDATA[
document.addEventListener('DOMContentLoaded', (event) => {
  highlightEdges();
  highlightAdjacentNodes();
});
]]></script>
</svg>
