<?xml version="1.0" encoding="UTF-8" standalone="no"?>
<!DOCTYPE svg PUBLIC "-//W3C//DTD SVG 1.1//EN"
 "http://www.w3.org/Graphics/SVG/1.1/DTD/svg11.dtd">
<!-- Generated by graphviz version 2.43.0 (0)
 -->
<!-- Title: algorithm library version Pages: 1 -->
<svg width="482pt" height="467pt"
 viewBox="0.00 0.00 482.00 466.50" xmlns="http://www.w3.org/2000/svg" xmlns:xlink="http://www.w3.org/1999/xlink">
<g id="graph0" class="graph" transform="scale(1 1) rotate(0) translate(4 462.5)">
<title>algorithm library version</title>
<!-- Node2 -->
<g id="Node000002" class="node">
<title>Node2</title>
<g id="a_Node000002"><a xlink:href="../../df/d91/group__A.html" target="_top" xlink:title=" ">
<polygon fill="white" stroke="#666666" points="98,-227.5 0,-227.5 0,-208.5 98,-208.5 98,-227.5"/>
<text text-anchor="middle" x="49" y="-215.5" font-family="Helvetica,sans-Serif" font-size="10.00">algorithm library</text>
</a>
</g>
</g>
<!-- Node1 -->
<g id="Node000001" class="node">
<title>Node1</title>
<g id="a_Node000001"><a xlink:title=" ">
<polygon fill="#999999" stroke="#666666" points="272,-227.5 135,-227.5 135,-208.5 272,-208.5 272,-227.5"/>
<text text-anchor="middle" x="203.5" y="-215.5" font-family="Helvetica,sans-Serif" font-size="10.00">algorithm library version</text>
</a>
</g>
</g>
<!-- Node2&#45;&gt;Node1 -->
<g id="edge1" class="edge">
<title>Node2&#45;&gt;Node1</title>
<path fill="none" stroke="black" d="M108.25,-218C116.93,-218 125.93,-218 134.78,-218"/>
<polygon fill="black" stroke="black" points="108.25,-214.5 98.25,-218 108.25,-221.5 108.25,-214.5"/>
</g>
<!-- Node3 -->
<g id="Node000003" class="node">
<title>Node3</title>
<g id="a_Node000003"><a xlink:href="../../dd/d71/group__A__HPF.html" target="_top" xlink:title=" ">
<polygon fill="white" stroke="#666666" points="440.5,-458.5 348.5,-458.5 348.5,-439.5 440.5,-439.5 440.5,-458.5"/>
<text text-anchor="middle" x="394.5" y="-446.5" font-family="Helvetica,sans-Serif" font-size="10.00">High Pass Filter</text>
</a>
</g>
</g>
<!-- Node4 -->
<g id="Node000004" class="node">
<title>Node4</title>
<g id="a_Node000004"><a xlink:href="../../df/d27/group__A__LPF.html" target="_top" xlink:title=" ">
<polygon fill="white" stroke="#666666" points="439,-421.5 350,-421.5 350,-402.5 439,-402.5 439,-421.5"/>
<text text-anchor="middle" x="394.5" y="-409.5" font-family="Helvetica,sans-Serif" font-size="10.00">Low Pass Filter</text>
</a>
</g>
</g>
<!-- Node5 -->
<g id="Node000005" class="node">
<title>Node5</title>
<g id="a_Node000005"><a xlink:href="../../d8/da8/group__A__PID.html" target="_top" xlink:title=" ">
<polygon fill="white" stroke="#666666" points="454,-384 335,-384 335,-354 454,-354 454,-384"/>
<text text-anchor="start" x="343" y="-372" font-family="Helvetica,sans-Serif" font-size="10.00">proportional integral</text>
<text text-anchor="middle" x="394.5" y="-361" font-family="Helvetica,sans-Serif" font-size="10.00"> derivative controller</text>
</a>
</g>
</g>
<!-- Node6 -->
<g id="Node000006" class="node">
<title>Node6</title>
<g id="a_Node000006"><a xlink:href="../../dc/db1/group__A__PID__FUZZY.html" target="_top" xlink:title=" ">
<polygon fill="white" stroke="#666666" points="449.5,-335.5 339.5,-335.5 339.5,-294.5 449.5,-294.5 449.5,-335.5"/>
<text text-anchor="start" x="347.5" y="-323.5" font-family="Helvetica,sans-Serif" font-size="10.00">fuzzy proportional</text>
<text text-anchor="start" x="347.5" y="-312.5" font-family="Helvetica,sans-Serif" font-size="10.00"> integral derivative</text>
<text text-anchor="middle" x="394.5" y="-301.5" font-family="Helvetica,sans-Serif" font-size="10.00"> controller</text>
</a>
</g>
</g>
<!-- Node7 -->
<g id="Node000007" class="node">
<title>Node7</title>
<g id="a_Node000007"><a xlink:href="../../db/d33/group__A__PID__NEURO.html" target="_top" xlink:title=" ">
<polygon fill="white" stroke="#666666" points="474,-276 315,-276 315,-246 474,-246 474,-276"/>
<text text-anchor="start" x="323" y="-264" font-family="Helvetica,sans-Serif" font-size="10.00">single neuron proportional</text>
<text text-anchor="middle" x="394.5" y="-253" font-family="Helvetica,sans-Serif" font-size="10.00"> integral derivative controller</text>
</a>
</g>
</g>
<!-- Node8 -->
<g id="Node000008" class="node">
<title>Node8</title>
<g id="a_Node000008"><a xlink:href="../../d4/d5e/group__A__POLYTRAJ3.html" target="_top" xlink:title=" ">
<polygon fill="white" stroke="#666666" points="469.5,-227.5 319.5,-227.5 319.5,-208.5 469.5,-208.5 469.5,-227.5"/>
<text text-anchor="middle" x="394.5" y="-215.5" font-family="Helvetica,sans-Serif" font-size="10.00">cubic polynomial trajectory</text>
</a>
</g>
</g>
<!-- Node9 -->
<g id="Node000009" class="node">
<title>Node9</title>
<g id="a_Node000009"><a xlink:href="../../d5/d8e/group__A__POLYTRAJ5.html" target="_top" xlink:title=" ">
<polygon fill="white" stroke="#666666" points="448,-190 341,-190 341,-160 448,-160 448,-190"/>
<text text-anchor="start" x="349" y="-178" font-family="Helvetica,sans-Serif" font-size="10.00">quintic polynomial</text>
<text text-anchor="middle" x="394.5" y="-167" font-family="Helvetica,sans-Serif" font-size="10.00"> trajectory</text>
</a>
</g>
</g>
<!-- Node10 -->
<g id="Node000010" class="node">
<title>Node10</title>
<g id="a_Node000010"><a xlink:href="../../de/d6e/group__A__POLYTRAJ7.html" target="_top" xlink:title=" ">
<polygon fill="white" stroke="#666666" points="470.5,-141.5 318.5,-141.5 318.5,-122.5 470.5,-122.5 470.5,-141.5"/>
<text text-anchor="middle" x="394.5" y="-129.5" font-family="Helvetica,sans-Serif" font-size="10.00">hepta polynomial trajectory</text>
</a>
</g>
</g>
<!-- Node11 -->
<g id="Node000011" class="node">
<title>Node11</title>
<g id="a_Node000011"><a xlink:href="../../dd/dd8/group__A__RBF.html" target="_top" xlink:title=" ">
<polygon fill="white" stroke="#666666" points="452.5,-104.5 336.5,-104.5 336.5,-85.5 452.5,-85.5 452.5,-104.5"/>
<text text-anchor="middle" x="394.5" y="-92.5" font-family="Helvetica,sans-Serif" font-size="10.00">radial basis function</text>
</a>
</g>
</g>
<!-- Node12 -->
<g id="Node000012" class="node">
<title>Node12</title>
<g id="a_Node000012"><a xlink:href="../../d0/ddd/group__A__TF.html" target="_top" xlink:title=" ">
<polygon fill="white" stroke="#666666" points="443.5,-67.5 345.5,-67.5 345.5,-48.5 443.5,-48.5 443.5,-67.5"/>
<text text-anchor="middle" x="394.5" y="-55.5" font-family="Helvetica,sans-Serif" font-size="10.00">transfer function</text>
</a>
</g>
</g>
<!-- Node13 -->
<g id="Node000013" class="node">
<title>Node13</title>
<g id="a_Node000013"><a xlink:href="../../db/d75/group__A__TRAPTRAJ.html" target="_top" xlink:title=" ">
<polygon fill="white" stroke="#666666" points="451,-30 338,-30 338,0 451,0 451,-30"/>
<text text-anchor="start" x="346" y="-18" font-family="Helvetica,sans-Serif" font-size="10.00">trapezoidal velocity</text>
<text text-anchor="middle" x="394.5" y="-7" font-family="Helvetica,sans-Serif" font-size="10.00"> profile trajectory</text>
</a>
</g>
</g>
<!-- Node1&#45;&gt;Node3 -->
<g id="edge2" class="edge">
<title>Node1&#45;&gt;Node3</title>
<path fill="none" stroke="blueviolet" stroke-dasharray="5,2" d="M206.31,-227.64C213.26,-261.85 241.65,-378.16 315,-431 324.64,-437.95 336.54,-442.27 348.12,-444.93"/>
<text text-anchor="middle" x="293.5" y="-417" font-family="Helvetica,sans-Serif" font-size="10.00">a</text>
</g>
<!-- Node1&#45;&gt;Node4 -->
<g id="edge3" class="edge">
<title>Node1&#45;&gt;Node4</title>
<path fill="none" stroke="blueviolet" stroke-dasharray="5,2" d="M207.69,-227.8C217.95,-257.72 253.11,-348.58 315,-393 325.14,-400.28 337.72,-404.79 349.81,-407.58"/>
<text text-anchor="middle" x="293.5" y="-378" font-family="Helvetica,sans-Serif" font-size="10.00">a</text>
</g>
<!-- Node1&#45;&gt;Node5 -->
<g id="edge4" class="edge">
<title>Node1&#45;&gt;Node5</title>
<path fill="none" stroke="blueviolet" stroke-dasharray="5,2" d="M210.14,-227.57C224.51,-251.17 264.99,-312.54 315,-345 321.1,-348.96 327.88,-352.29 334.83,-355.09"/>
<text text-anchor="middle" x="293.5" y="-334" font-family="Helvetica,sans-Serif" font-size="10.00">a</text>
</g>
<!-- Node1&#45;&gt;Node6 -->
<g id="edge5" class="edge">
<title>Node1&#45;&gt;Node6</title>
<path fill="none" stroke="blueviolet" stroke-dasharray="5,2" d="M218.34,-227.52C238.83,-241.34 278.73,-267.25 315,-285 322.73,-288.78 331.07,-292.42 339.32,-295.77"/>
<text text-anchor="middle" x="293.5" y="-278" font-family="Helvetica,sans-Serif" font-size="10.00">a</text>
</g>
<!-- Node1&#45;&gt;Node7 -->
<g id="edge6" class="edge">
<title>Node1&#45;&gt;Node7</title>
<path fill="none" stroke="blueviolet" stroke-dasharray="5,2" d="M246.45,-227.54C270.26,-232.96 300.61,-239.87 327.54,-245.99"/>
<text text-anchor="middle" x="293.5" y="-241" font-family="Helvetica,sans-Serif" font-size="10.00">a</text>
</g>
<!-- Node1&#45;&gt;Node8 -->
<g id="edge7" class="edge">
<title>Node1&#45;&gt;Node8</title>
<path fill="none" stroke="blueviolet" stroke-dasharray="5,2" d="M272.2,-218C287.45,-218 303.72,-218 319.23,-218"/>
<text text-anchor="middle" x="293.5" y="-221" font-family="Helvetica,sans-Serif" font-size="10.00">a</text>
</g>
<!-- Node1&#45;&gt;Node9 -->
<g id="edge8" class="edge">
<title>Node1&#45;&gt;Node9</title>
<path fill="none" stroke="blueviolet" stroke-dasharray="5,2" d="M246.45,-208.46C274.29,-202.12 311.05,-193.76 340.85,-186.98"/>
<text text-anchor="middle" x="293.5" y="-200" font-family="Helvetica,sans-Serif" font-size="10.00">a</text>
</g>
<!-- Node1&#45;&gt;Node10 -->
<g id="edge9" class="edge">
<title>Node1&#45;&gt;Node10</title>
<path fill="none" stroke="blueviolet" stroke-dasharray="5,2" d="M217.4,-208.34C237.33,-193.87 277.25,-166.57 315,-151 324.07,-147.26 334.05,-144.14 343.77,-141.59"/>
<text text-anchor="middle" x="293.5" y="-164" font-family="Helvetica,sans-Serif" font-size="10.00">a</text>
</g>
<!-- Node1&#45;&gt;Node11 -->
<g id="edge10" class="edge">
<title>Node1&#45;&gt;Node11</title>
<path fill="none" stroke="blueviolet" stroke-dasharray="5,2" d="M211.88,-208.23C228.11,-187.47 269.13,-138.84 315,-114 322.15,-110.13 330.09,-107.03 338.1,-104.57"/>
<text text-anchor="middle" x="293.5" y="-132" font-family="Helvetica,sans-Serif" font-size="10.00">a</text>
</g>
<!-- Node1&#45;&gt;Node12 -->
<g id="edge11" class="edge">
<title>Node1&#45;&gt;Node12</title>
<path fill="none" stroke="blueviolet" stroke-dasharray="5,2" d="M209.14,-208.31C222.03,-182.53 260.86,-111.84 315,-77 324.08,-71.16 334.8,-67.11 345.35,-64.31"/>
<text text-anchor="middle" x="293.5" y="-97" font-family="Helvetica,sans-Serif" font-size="10.00">a</text>
</g>
<!-- Node1&#45;&gt;Node13 -->
<g id="edge12" class="edge">
<title>Node1&#45;&gt;Node13</title>
<path fill="none" stroke="blueviolet" stroke-dasharray="5,2" d="M207.51,-208.46C217.49,-178.45 252.45,-85.25 315,-39 321.76,-34 329.58,-30.03 337.6,-26.88"/>
<text text-anchor="middle" x="293.5" y="-60" font-family="Helvetica,sans-Serif" font-size="10.00">a</text>
</g>
</g>
</svg>
