<?xml version="1.0" encoding="UTF-8" standalone="no"?>
<!DOCTYPE svg PUBLIC "-//W3C//DTD SVG 1.1//EN"
 "http://www.w3.org/Graphics/SVG/1.1/DTD/svg11.dtd">
<!-- Generated by graphviz version 2.43.0 (0)
 -->
<!-- Title: a_pid_s Pages: 1 -->
<svg width="69pt" height="139pt"
 viewBox="0.00 0.00 69.00 139.00" xmlns="http://www.w3.org/2000/svg" xmlns:xlink="http://www.w3.org/1999/xlink">
<g id="graph0" class="graph" transform="scale(1 1) rotate(0) translate(4 135)">
<title>a_pid_s</title>
<polygon fill="white" stroke="transparent" points="-4,4 -4,-135 65,-135 65,4 -4,4"/>
<!-- Node1 -->
<g id="node1" class="node">
<title>Node1</title>
<g id="a_node1"><a xlink:title="instance structure for PID controller">
<polygon fill="#bfbfbf" stroke="black" points="4,-0.5 4,-19.5 57,-19.5 57,-0.5 4,-0.5"/>
<text text-anchor="middle" x="30.5" y="-7.5" font-family="Helvetica,sans-Serif" font-size="10.00">a_pid_s</text>
</a>
</g>
</g>
<!-- Node2 -->
<g id="node2" class="node">
<title>Node2</title>
<g id="a_node2"><a xlink:href="../../d2/d53/uniona__float__u.html" target="_top" xlink:title=" ">
<polygon fill="white" stroke="black" points="0,-111.5 0,-130.5 61,-130.5 61,-111.5 0,-111.5"/>
<text text-anchor="middle" x="30.5" y="-118.5" font-family="Helvetica,sans-Serif" font-size="10.00">a_float_u</text>
</a>
</g>
</g>
<!-- Node2&#45;&gt;Node1 -->
<g id="edge1" class="edge">
<title>Node2&#45;&gt;Node1</title>
<path fill="none" stroke="#9a32cd" stroke-dasharray="5,2" d="M30.5,-101.19C30.5,-77.28 30.5,-36.99 30.5,-19.51"/>
<polygon fill="#9a32cd" stroke="#9a32cd" points="27,-101.45 30.5,-111.45 34,-101.45 27,-101.45"/>
<text text-anchor="middle" x="41.5" y="-85" font-family="Helvetica,sans-Serif" font-size="10.00"> e</text>
<text text-anchor="middle" x="41.5" y="-74" font-family="Helvetica,sans-Serif" font-size="10.00">ec</text>
<text text-anchor="middle" x="41.5" y="-63" font-family="Helvetica,sans-Serif" font-size="10.00">fdb</text>
<text text-anchor="middle" x="41.5" y="-52" font-family="Helvetica,sans-Serif" font-size="10.00">out</text>
<text text-anchor="middle" x="41.5" y="-41" font-family="Helvetica,sans-Serif" font-size="10.00">sum</text>
</g>
</g>
</svg>
