<?xml version="1.0" encoding="UTF-8" standalone="no"?>
<!DOCTYPE svg PUBLIC "-//W3C//DTD SVG 1.1//EN"
 "http://www.w3.org/Graphics/SVG/1.1/DTD/svg11.dtd">
<!-- Generated by graphviz version 2.43.0 (0)
 -->
<!-- Title: trapezoidal velocity profile trajectory Pages: 1 -->
<svg width="458pt" height="455pt"
 viewBox="0.00 0.00 458.00 455.00" xmlns="http://www.w3.org/2000/svg" xmlns:xlink="http://www.w3.org/1999/xlink">
<g id="graph0" class="graph" transform="scale(1 1) rotate(0) translate(4 451)">
<title>trapezoidal velocity profile trajectory</title>
<!-- Node2 -->
<g id="Node000002" class="node">
<title>Node2</title>
<g id="a_Node000002"><a xlink:href="../../df/d91/group__A.html" target="_top" xlink:title=" ">
<polygon fill="white" stroke="#666666" points="98,-216 0,-216 0,-197 98,-197 98,-216"/>
<text text-anchor="middle" x="49" y="-204" font-family="Helvetica,sans-Serif" font-size="10.00">algorithm library</text>
</a>
</g>
</g>
<!-- Node1 -->
<g id="Node000001" class="node">
<title>Node1</title>
<g id="a_Node000001"><a xlink:title=" ">
<polygon fill="#999999" stroke="#666666" points="248,-221.5 135,-221.5 135,-191.5 248,-191.5 248,-221.5"/>
<text text-anchor="start" x="143" y="-209.5" font-family="Helvetica,sans-Serif" font-size="10.00">trapezoidal velocity</text>
<text text-anchor="middle" x="191.5" y="-198.5" font-family="Helvetica,sans-Serif" font-size="10.00"> profile trajectory</text>
</a>
</g>
</g>
<!-- Node2&#45;&gt;Node1 -->
<g id="edge1" class="edge">
<title>Node2&#45;&gt;Node1</title>
<path fill="none" stroke="black" d="M108.45,-206.5C117.17,-206.5 126.15,-206.5 134.81,-206.5"/>
<polygon fill="black" stroke="black" points="108.35,-203 98.35,-206.5 108.35,-210 108.35,-203"/>
</g>
<!-- Node3 -->
<g id="Node000003" class="node">
<title>Node3</title>
<g id="a_Node000003"><a xlink:href="../../dd/d71/group__A__HPF.html" target="_top" xlink:title=" ">
<polygon fill="white" stroke="#666666" points="416.5,-447 324.5,-447 324.5,-428 416.5,-428 416.5,-447"/>
<text text-anchor="middle" x="370.5" y="-435" font-family="Helvetica,sans-Serif" font-size="10.00">High Pass Filter</text>
</a>
</g>
</g>
<!-- Node4 -->
<g id="Node000004" class="node">
<title>Node4</title>
<g id="a_Node000004"><a xlink:href="../../df/d27/group__A__LPF.html" target="_top" xlink:title=" ">
<polygon fill="white" stroke="#666666" points="415,-410 326,-410 326,-391 415,-391 415,-410"/>
<text text-anchor="middle" x="370.5" y="-398" font-family="Helvetica,sans-Serif" font-size="10.00">Low Pass Filter</text>
</a>
</g>
</g>
<!-- Node5 -->
<g id="Node000005" class="node">
<title>Node5</title>
<g id="a_Node000005"><a xlink:href="../../d8/da8/group__A__PID.html" target="_top" xlink:title=" ">
<polygon fill="white" stroke="#666666" points="430,-372.5 311,-372.5 311,-342.5 430,-342.5 430,-372.5"/>
<text text-anchor="start" x="319" y="-360.5" font-family="Helvetica,sans-Serif" font-size="10.00">proportional integral</text>
<text text-anchor="middle" x="370.5" y="-349.5" font-family="Helvetica,sans-Serif" font-size="10.00"> derivative controller</text>
</a>
</g>
</g>
<!-- Node6 -->
<g id="Node000006" class="node">
<title>Node6</title>
<g id="a_Node000006"><a xlink:href="../../dc/db1/group__A__PID__FUZZY.html" target="_top" xlink:title=" ">
<polygon fill="white" stroke="#666666" points="425.5,-324 315.5,-324 315.5,-283 425.5,-283 425.5,-324"/>
<text text-anchor="start" x="323.5" y="-312" font-family="Helvetica,sans-Serif" font-size="10.00">fuzzy proportional</text>
<text text-anchor="start" x="323.5" y="-301" font-family="Helvetica,sans-Serif" font-size="10.00"> integral derivative</text>
<text text-anchor="middle" x="370.5" y="-290" font-family="Helvetica,sans-Serif" font-size="10.00"> controller</text>
</a>
</g>
</g>
<!-- Node7 -->
<g id="Node000007" class="node">
<title>Node7</title>
<g id="a_Node000007"><a xlink:href="../../db/d33/group__A__PID__NEURO.html" target="_top" xlink:title=" ">
<polygon fill="white" stroke="#666666" points="450,-264.5 291,-264.5 291,-234.5 450,-234.5 450,-264.5"/>
<text text-anchor="start" x="299" y="-252.5" font-family="Helvetica,sans-Serif" font-size="10.00">single neuron proportional</text>
<text text-anchor="middle" x="370.5" y="-241.5" font-family="Helvetica,sans-Serif" font-size="10.00"> integral derivative controller</text>
</a>
</g>
</g>
<!-- Node8 -->
<g id="Node000008" class="node">
<title>Node8</title>
<g id="a_Node000008"><a xlink:href="../../d4/d5e/group__A__POLYTRAJ3.html" target="_top" xlink:title=" ">
<polygon fill="white" stroke="#666666" points="445.5,-216 295.5,-216 295.5,-197 445.5,-197 445.5,-216"/>
<text text-anchor="middle" x="370.5" y="-204" font-family="Helvetica,sans-Serif" font-size="10.00">cubic polynomial trajectory</text>
</a>
</g>
</g>
<!-- Node9 -->
<g id="Node000009" class="node">
<title>Node9</title>
<g id="a_Node000009"><a xlink:href="../../d5/d8e/group__A__POLYTRAJ5.html" target="_top" xlink:title=" ">
<polygon fill="white" stroke="#666666" points="424,-178.5 317,-178.5 317,-148.5 424,-148.5 424,-178.5"/>
<text text-anchor="start" x="325" y="-166.5" font-family="Helvetica,sans-Serif" font-size="10.00">quintic polynomial</text>
<text text-anchor="middle" x="370.5" y="-155.5" font-family="Helvetica,sans-Serif" font-size="10.00"> trajectory</text>
</a>
</g>
</g>
<!-- Node10 -->
<g id="Node000010" class="node">
<title>Node10</title>
<g id="a_Node000010"><a xlink:href="../../de/d6e/group__A__POLYTRAJ7.html" target="_top" xlink:title=" ">
<polygon fill="white" stroke="#666666" points="446.5,-130 294.5,-130 294.5,-111 446.5,-111 446.5,-130"/>
<text text-anchor="middle" x="370.5" y="-118" font-family="Helvetica,sans-Serif" font-size="10.00">hepta polynomial trajectory</text>
</a>
</g>
</g>
<!-- Node11 -->
<g id="Node000011" class="node">
<title>Node11</title>
<g id="a_Node000011"><a xlink:href="../../dd/dd8/group__A__RBF.html" target="_top" xlink:title=" ">
<polygon fill="white" stroke="#666666" points="428.5,-93 312.5,-93 312.5,-74 428.5,-74 428.5,-93"/>
<text text-anchor="middle" x="370.5" y="-81" font-family="Helvetica,sans-Serif" font-size="10.00">radial basis function</text>
</a>
</g>
</g>
<!-- Node12 -->
<g id="Node000012" class="node">
<title>Node12</title>
<g id="a_Node000012"><a xlink:href="../../d0/ddd/group__A__TF.html" target="_top" xlink:title=" ">
<polygon fill="white" stroke="#666666" points="419.5,-56 321.5,-56 321.5,-37 419.5,-37 419.5,-56"/>
<text text-anchor="middle" x="370.5" y="-44" font-family="Helvetica,sans-Serif" font-size="10.00">transfer function</text>
</a>
</g>
</g>
<!-- Node1&#45;&gt;Node3 -->
<g id="edge2" class="edge">
<title>Node1&#45;&gt;Node3</title>
<path fill="none" stroke="blueviolet" stroke-dasharray="5,2" d="M194.42,-221.51C200.4,-261.36 222.57,-370.2 291,-419.5 300.64,-426.45 312.54,-430.77 324.12,-433.43"/>
<text text-anchor="middle" x="269.5" y="-405.5" font-family="Helvetica,sans-Serif" font-size="10.00">a</text>
</g>
<!-- Node1&#45;&gt;Node4 -->
<g id="edge3" class="edge">
<title>Node1&#45;&gt;Node4</title>
<path fill="none" stroke="blueviolet" stroke-dasharray="5,2" d="M196.52,-221.66C206.41,-255.86 235.26,-339.32 291,-381.5 301.06,-389.12 313.75,-393.72 325.98,-396.5"/>
<text text-anchor="middle" x="269.5" y="-366.5" font-family="Helvetica,sans-Serif" font-size="10.00">a</text>
</g>
<!-- Node1&#45;&gt;Node5 -->
<g id="edge4" class="edge">
<title>Node1&#45;&gt;Node5</title>
<path fill="none" stroke="blueviolet" stroke-dasharray="5,2" d="M200.29,-221.89C214.59,-248.6 247.59,-303.55 291,-333.5 296.98,-337.63 303.7,-341.06 310.61,-343.92"/>
<text text-anchor="middle" x="269.5" y="-319.5" font-family="Helvetica,sans-Serif" font-size="10.00">a</text>
</g>
<!-- Node1&#45;&gt;Node6 -->
<g id="edge5" class="edge">
<title>Node1&#45;&gt;Node6</title>
<path fill="none" stroke="blueviolet" stroke-dasharray="5,2" d="M211.65,-221.51C230.91,-236.12 261.85,-258.28 291,-273.5 298.63,-277.48 306.91,-281.23 315.14,-284.62"/>
<text text-anchor="middle" x="269.5" y="-264.5" font-family="Helvetica,sans-Serif" font-size="10.00">a</text>
</g>
<!-- Node1&#45;&gt;Node7 -->
<g id="edge6" class="edge">
<title>Node1&#45;&gt;Node7</title>
<path fill="none" stroke="blueviolet" stroke-dasharray="5,2" d="M248.02,-219.99C266.98,-224.59 288.29,-229.77 307.71,-234.49"/>
<text text-anchor="middle" x="269.5" y="-227.5" font-family="Helvetica,sans-Serif" font-size="10.00">a</text>
</g>
<!-- Node1&#45;&gt;Node8 -->
<g id="edge7" class="edge">
<title>Node1&#45;&gt;Node8</title>
<path fill="none" stroke="blueviolet" stroke-dasharray="5,2" d="M248.02,-206.5C263.02,-206.5 279.5,-206.5 295.35,-206.5"/>
<text text-anchor="middle" x="269.5" y="-209.5" font-family="Helvetica,sans-Serif" font-size="10.00">a</text>
</g>
<!-- Node1&#45;&gt;Node9 -->
<g id="edge8" class="edge">
<title>Node1&#45;&gt;Node9</title>
<path fill="none" stroke="blueviolet" stroke-dasharray="5,2" d="M248.02,-193.01C270.02,-187.67 295.19,-181.55 316.9,-176.28"/>
<text text-anchor="middle" x="269.5" y="-190.5" font-family="Helvetica,sans-Serif" font-size="10.00">a</text>
</g>
<!-- Node1&#45;&gt;Node10 -->
<g id="edge9" class="edge">
<title>Node1&#45;&gt;Node10</title>
<path fill="none" stroke="blueviolet" stroke-dasharray="5,2" d="M210.55,-191.24C229.45,-176.02 260.56,-153 291,-139.5 299.59,-135.69 309.06,-132.58 318.36,-130.05"/>
<text text-anchor="middle" x="269.5" y="-153.5" font-family="Helvetica,sans-Serif" font-size="10.00">a</text>
</g>
<!-- Node1&#45;&gt;Node11 -->
<g id="edge10" class="edge">
<title>Node1&#45;&gt;Node11</title>
<path fill="none" stroke="blueviolet" stroke-dasharray="5,2" d="M202.62,-191.14C218.57,-168.18 251.84,-125.19 291,-102.5 297.67,-98.63 305.1,-95.55 312.66,-93.1"/>
<text text-anchor="middle" x="269.5" y="-120.5" font-family="Helvetica,sans-Serif" font-size="10.00">a</text>
</g>
<!-- Node1&#45;&gt;Node12 -->
<g id="edge11" class="edge">
<title>Node1&#45;&gt;Node12</title>
<path fill="none" stroke="blueviolet" stroke-dasharray="5,2" d="M198.59,-191.4C211.18,-162.18 242.99,-97.92 291,-65.5 299.95,-59.46 310.61,-55.33 321.16,-52.51"/>
<text text-anchor="middle" x="269.5" y="-88.5" font-family="Helvetica,sans-Serif" font-size="10.00">a</text>
</g>
<!-- Node13 -->
<g id="Node000013" class="node">
<title>Node13</title>
<g id="a_Node000013"><a xlink:href="../../d2/d1b/group__A__VERSION.html" target="_top" xlink:title=" ">
<polygon fill="white" stroke="#666666" points="439,-19 302,-19 302,0 439,0 439,-19"/>
<text text-anchor="middle" x="370.5" y="-7" font-family="Helvetica,sans-Serif" font-size="10.00">algorithm library version</text>
</a>
</g>
</g>
<!-- Node1&#45;&gt;Node13 -->
<g id="edge12" class="edge">
<title>Node1&#45;&gt;Node13</title>
<path fill="none" stroke="blueviolet" stroke-dasharray="5,2" d="M195.91,-191.37C204.74,-156.04 231.9,-68.02 291,-27.5 295.96,-24.1 301.47,-21.33 307.2,-19.09"/>
<text text-anchor="middle" x="269.5" y="-51.5" font-family="Helvetica,sans-Serif" font-size="10.00">a</text>
</g>
</g>
</svg>
