<?xml version="1.0" encoding="UTF-8" standalone="no"?>
<!DOCTYPE svg PUBLIC "-//W3C//DTD SVG 1.1//EN"
 "http://www.w3.org/Graphics/SVG/1.1/DTD/svg11.dtd">
<!-- Generated by graphviz version 2.43.0 (0)
 -->
<!-- Title: hpf.h Pages: 1 -->
<svg width="272pt" height="192pt"
 viewBox="0.00 0.00 271.50 192.00" xmlns="http://www.w3.org/2000/svg" xmlns:xlink="http://www.w3.org/1999/xlink">
<g id="graph0" class="graph" transform="scale(1 1) rotate(0) translate(4 188)">
<title>hpf.h</title>
<!-- Node1 -->
<g id="Node000001" class="node">
<title>Node1</title>
<g id="a_Node000001"><a xlink:title="High Pass Filter.">
<polygon fill="#999999" stroke="#666666" points="156.5,-184 115.5,-184 115.5,-165 156.5,-165 156.5,-184"/>
<text text-anchor="middle" x="136" y="-172" font-family="Helvetica,sans-Serif" font-size="10.00">hpf.h</text>
</a>
</g>
</g>
<!-- Node2 -->
<g id="Node000002" class="node">
<title>Node2</title>
<g id="a_Node000002"><a xlink:href="../../d2/d62/a_8h.html" target="_top" xlink:title="algorithm library">
<polygon fill="white" stroke="#666666" points="152,-74 120,-74 120,-55 152,-55 152,-74"/>
<text text-anchor="middle" x="136" y="-62" font-family="Helvetica,sans-Serif" font-size="10.00">a.h</text>
</a>
</g>
</g>
<!-- Node1&#45;&gt;Node2 -->
<g id="edge1_Node000001_Node000002" class="edge">
<title>Node1&#45;&gt;Node2</title>
<g id="a_edge1_Node000001_Node000002"><a xlink:title=" ">
<path fill="none" stroke="#63b8ff" d="M134.2,-164.68C132.47,-155.74 129.98,-141.48 129,-129 127.82,-113.93 129.88,-96.91 132.07,-84.29"/>
<polygon fill="#63b8ff" stroke="#63b8ff" points="135.57,-84.59 134.02,-74.11 128.7,-83.27 135.57,-84.59"/>
</a>
</g>
</g>
<!-- Node7 -->
<g id="Node000007" class="node">
<title>Node7</title>
<g id="a_Node000007"><a xlink:href="../../df/db1/math_8h.html" target="_top" xlink:title="mathematical algorithm library">
<polygon fill="white" stroke="#666666" points="188.5,-129 137.5,-129 137.5,-110 188.5,-110 188.5,-129"/>
<text text-anchor="middle" x="163" y="-117" font-family="Helvetica,sans-Serif" font-size="10.00">math.h</text>
</a>
</g>
</g>
<!-- Node1&#45;&gt;Node7 -->
<g id="edge6_Node000001_Node000007" class="edge">
<title>Node1&#45;&gt;Node7</title>
<g id="a_edge6_Node000001_Node000007"><a xlink:title=" ">
<path fill="none" stroke="#63b8ff" d="M140.46,-164.75C144.12,-157.57 149.41,-147.18 153.95,-138.27"/>
<polygon fill="#63b8ff" stroke="#63b8ff" points="157.2,-139.59 158.62,-129.09 150.97,-136.41 157.2,-139.59"/>
</a>
</g>
</g>
<!-- Node3 -->
<g id="Node000003" class="node">
<title>Node3</title>
<g id="a_Node000003"><a xlink:title=" ">
<polygon fill="#e0e0e0" stroke="#999999" points="56,-19 0,-19 0,0 56,0 56,-19"/>
<text text-anchor="middle" x="28" y="-7" font-family="Helvetica,sans-Serif" font-size="10.00">stddef.h</text>
</a>
</g>
</g>
<!-- Node2&#45;&gt;Node3 -->
<g id="edge2_Node000002_Node000003" class="edge">
<title>Node2&#45;&gt;Node3</title>
<g id="a_edge2_Node000002_Node000003"><a xlink:title=" ">
<path fill="none" stroke="#63b8ff" d="M119.6,-55.45C102.38,-47 75.04,-33.58 54.7,-23.6"/>
<polygon fill="#63b8ff" stroke="#63b8ff" points="56.15,-20.42 45.64,-19.15 53.07,-26.7 56.15,-20.42"/>
</a>
</g>
</g>
<!-- Node4 -->
<g id="Node000004" class="node">
<title>Node4</title>
<g id="a_Node000004"><a xlink:title=" ">
<polygon fill="#e0e0e0" stroke="#999999" points="127.5,-19 74.5,-19 74.5,0 127.5,0 127.5,-19"/>
<text text-anchor="middle" x="101" y="-7" font-family="Helvetica,sans-Serif" font-size="10.00">limits.h</text>
</a>
</g>
</g>
<!-- Node2&#45;&gt;Node4 -->
<g id="edge3_Node000002_Node000004" class="edge">
<title>Node2&#45;&gt;Node4</title>
<g id="a_edge3_Node000002_Node000004"><a xlink:title=" ">
<path fill="none" stroke="#63b8ff" d="M130.22,-54.75C125.38,-47.42 118.32,-36.73 112.36,-27.7"/>
<polygon fill="#63b8ff" stroke="#63b8ff" points="115.1,-25.5 106.67,-19.09 109.26,-29.36 115.1,-25.5"/>
</a>
</g>
</g>
<!-- Node5 -->
<g id="Node000005" class="node">
<title>Node5</title>
<g id="a_Node000005"><a xlink:title=" ">
<polygon fill="#e0e0e0" stroke="#999999" points="198.5,-19 145.5,-19 145.5,0 198.5,0 198.5,-19"/>
<text text-anchor="middle" x="172" y="-7" font-family="Helvetica,sans-Serif" font-size="10.00">stdint.h</text>
</a>
</g>
</g>
<!-- Node2&#45;&gt;Node5 -->
<g id="edge4_Node000002_Node000005" class="edge">
<title>Node2&#45;&gt;Node5</title>
<g id="a_edge4_Node000002_Node000005"><a xlink:title=" ">
<path fill="none" stroke="#63b8ff" d="M141.94,-54.75C146.98,-47.34 154.34,-36.5 160.51,-27.41"/>
<polygon fill="#63b8ff" stroke="#63b8ff" points="163.44,-29.33 166.17,-19.09 157.65,-25.39 163.44,-29.33"/>
</a>
</g>
</g>
<!-- Node6 -->
<g id="Node000006" class="node">
<title>Node6</title>
<g id="a_Node000006"><a xlink:title=" ">
<polygon fill="#e0e0e0" stroke="#999999" points="263.5,-19 216.5,-19 216.5,0 263.5,0 263.5,-19"/>
<text text-anchor="middle" x="240" y="-7" font-family="Helvetica,sans-Serif" font-size="10.00">float.h</text>
</a>
</g>
</g>
<!-- Node2&#45;&gt;Node6 -->
<g id="edge5_Node000002_Node000006" class="edge">
<title>Node2&#45;&gt;Node6</title>
<g id="a_edge5_Node000002_Node000006"><a xlink:title=" ">
<path fill="none" stroke="#63b8ff" d="M152.25,-55.22C168.84,-46.76 194.85,-33.51 214.25,-23.62"/>
<polygon fill="#63b8ff" stroke="#63b8ff" points="215.85,-26.73 223.18,-19.07 212.68,-20.5 215.85,-26.73"/>
</a>
</g>
</g>
<!-- Node7&#45;&gt;Node2 -->
<g id="edge7_Node000007_Node000002" class="edge">
<title>Node7&#45;&gt;Node2</title>
<g id="a_edge7_Node000007_Node000002"><a xlink:title=" ">
<path fill="none" stroke="#63b8ff" d="M158.54,-109.75C154.88,-102.57 149.59,-92.18 145.05,-83.27"/>
<polygon fill="#63b8ff" stroke="#63b8ff" points="148.03,-81.41 140.38,-74.09 141.8,-84.59 148.03,-81.41"/>
</a>
</g>
</g>
<!-- Node7&#45;&gt;Node7 -->
<g id="edge8_Node000007_Node000007" class="edge">
<title>Node7&#45;&gt;Node7</title>
<g id="a_edge8_Node000007_Node000007"><a xlink:title=" ">
<path fill="none" stroke="#63b8ff" d="M183.59,-129.07C195.45,-131.02 206.5,-127.83 206.5,-119.5 206.5,-113.64 201.04,-110.33 193.67,-109.55"/>
<polygon fill="#63b8ff" stroke="#63b8ff" points="193.45,-106.06 183.59,-109.93 193.71,-113.05 193.45,-106.06"/>
</a>
</g>
</g>
</g>
</svg>
