<?xml version="1.0" encoding="UTF-8" standalone="no"?>
<!DOCTYPE svg PUBLIC "-//W3C//DTD SVG 1.1//EN"
 "http://www.w3.org/Graphics/SVG/1.1/DTD/svg11.dtd">
<!-- Generated by graphviz version 2.43.0 (0)
 -->
<!-- Title: hpf.h Pages: 1 -->
<svg width="272pt" height="196pt"
 viewBox="0.00 0.00 271.50 196.00" xmlns="http://www.w3.org/2000/svg" xmlns:xlink="http://www.w3.org/1999/xlink">
<g id="graph0" class="graph" transform="scale(1 1) rotate(0) translate(4 192)">
<title>hpf.h</title>
<polygon fill="white" stroke="transparent" points="-4,4 -4,-192 267.5,-192 267.5,4 -4,4"/>
<!-- Node1 -->
<g id="node1" class="node">
<title>Node1</title>
<g id="a_node1"><a xlink:title="High Pass Filter.">
<polygon fill="#bfbfbf" stroke="black" points="115.5,-168.5 115.5,-187.5 156.5,-187.5 156.5,-168.5 115.5,-168.5"/>
<text text-anchor="middle" x="136" y="-175.5" font-family="Helvetica,sans-Serif" font-size="10.00">hpf.h</text>
</a>
</g>
</g>
<!-- Node2 -->
<g id="node2" class="node">
<title>Node2</title>
<g id="a_node2"><a xlink:href="../../d2/d62/a_8h.html" target="_top" xlink:title="algorithm library">
<polygon fill="white" stroke="black" points="120,-56.5 120,-75.5 152,-75.5 152,-56.5 120,-56.5"/>
<text text-anchor="middle" x="136" y="-63.5" font-family="Helvetica,sans-Serif" font-size="10.00">a.h</text>
</a>
</g>
</g>
<!-- Node1&#45;&gt;Node2 -->
<g id="edge1" class="edge">
<title>Node1&#45;&gt;Node2</title>
<path fill="none" stroke="midnightblue" d="M134.26,-168.42C132.53,-159.4 129.99,-144.77 129,-132 127.8,-116.42 129.91,-98.8 132.12,-85.84"/>
<polygon fill="midnightblue" stroke="midnightblue" points="135.6,-86.29 134.01,-75.82 128.72,-84.99 135.6,-86.29"/>
</g>
<!-- Node7 -->
<g id="node7" class="node">
<title>Node7</title>
<g id="a_node7"><a xlink:href="../../df/db1/math_8h.html" target="_top" xlink:title="mathematical algorithm library">
<polygon fill="white" stroke="black" points="137.5,-112.5 137.5,-131.5 188.5,-131.5 188.5,-112.5 137.5,-112.5"/>
<text text-anchor="middle" x="163" y="-119.5" font-family="Helvetica,sans-Serif" font-size="10.00">math.h</text>
</a>
</g>
</g>
<!-- Node1&#45;&gt;Node7 -->
<g id="edge6" class="edge">
<title>Node1&#45;&gt;Node7</title>
<path fill="none" stroke="midnightblue" d="M140.46,-168.08C144.15,-160.69 149.52,-149.95 154.09,-140.81"/>
<polygon fill="midnightblue" stroke="midnightblue" points="157.28,-142.26 158.62,-131.75 151.02,-139.13 157.28,-142.26"/>
</g>
<!-- Node3 -->
<g id="node3" class="node">
<title>Node3</title>
<g id="a_node3"><a xlink:title=" ">
<polygon fill="white" stroke="#bfbfbf" points="0,-0.5 0,-19.5 56,-19.5 56,-0.5 0,-0.5"/>
<text text-anchor="middle" x="28" y="-7.5" font-family="Helvetica,sans-Serif" font-size="10.00">stddef.h</text>
</a>
</g>
</g>
<!-- Node2&#45;&gt;Node3 -->
<g id="edge2" class="edge">
<title>Node2&#45;&gt;Node3</title>
<path fill="none" stroke="midnightblue" d="M119.6,-56.8C102.28,-48.14 74.71,-34.36 54.34,-24.17"/>
<polygon fill="midnightblue" stroke="midnightblue" points="55.78,-20.98 45.27,-19.64 52.65,-27.24 55.78,-20.98"/>
</g>
<!-- Node4 -->
<g id="node4" class="node">
<title>Node4</title>
<g id="a_node4"><a xlink:title=" ">
<polygon fill="white" stroke="#bfbfbf" points="74.5,-0.5 74.5,-19.5 127.5,-19.5 127.5,-0.5 74.5,-0.5"/>
<text text-anchor="middle" x="101" y="-7.5" font-family="Helvetica,sans-Serif" font-size="10.00">limits.h</text>
</a>
</g>
</g>
<!-- Node2&#45;&gt;Node4 -->
<g id="edge3" class="edge">
<title>Node2&#45;&gt;Node4</title>
<path fill="none" stroke="midnightblue" d="M130.22,-56.08C125.33,-48.53 118.17,-37.49 112.17,-28.23"/>
<polygon fill="midnightblue" stroke="midnightblue" points="115.05,-26.24 106.67,-19.75 109.17,-30.05 115.05,-26.24"/>
</g>
<!-- Node5 -->
<g id="node5" class="node">
<title>Node5</title>
<g id="a_node5"><a xlink:title=" ">
<polygon fill="white" stroke="#bfbfbf" points="145.5,-0.5 145.5,-19.5 198.5,-19.5 198.5,-0.5 145.5,-0.5"/>
<text text-anchor="middle" x="172" y="-7.5" font-family="Helvetica,sans-Serif" font-size="10.00">stdint.h</text>
</a>
</g>
</g>
<!-- Node2&#45;&gt;Node5 -->
<g id="edge4" class="edge">
<title>Node2&#45;&gt;Node5</title>
<path fill="none" stroke="midnightblue" d="M141.94,-56.08C146.98,-48.53 154.34,-37.49 160.51,-28.23"/>
<polygon fill="midnightblue" stroke="midnightblue" points="163.53,-30.01 166.17,-19.75 157.71,-26.13 163.53,-30.01"/>
</g>
<!-- Node6 -->
<g id="node6" class="node">
<title>Node6</title>
<g id="a_node6"><a xlink:title=" ">
<polygon fill="white" stroke="#bfbfbf" points="216.5,-0.5 216.5,-19.5 263.5,-19.5 263.5,-0.5 216.5,-0.5"/>
<text text-anchor="middle" x="240" y="-7.5" font-family="Helvetica,sans-Serif" font-size="10.00">float.h</text>
</a>
</g>
</g>
<!-- Node2&#45;&gt;Node6 -->
<g id="edge5" class="edge">
<title>Node2&#45;&gt;Node6</title>
<path fill="none" stroke="midnightblue" d="M152.25,-56.56C168.94,-47.9 195.16,-34.28 214.6,-24.19"/>
<polygon fill="midnightblue" stroke="midnightblue" points="216.26,-27.27 223.52,-19.56 213.03,-21.06 216.26,-27.27"/>
</g>
<!-- Node7&#45;&gt;Node2 -->
<g id="edge7" class="edge">
<title>Node7&#45;&gt;Node2</title>
<path fill="none" stroke="midnightblue" d="M158.54,-112.08C154.85,-104.69 149.48,-93.95 144.91,-84.81"/>
<polygon fill="midnightblue" stroke="midnightblue" points="147.98,-83.13 140.38,-75.75 141.72,-86.26 147.98,-83.13"/>
</g>
<!-- Node7&#45;&gt;Node7 -->
<g id="edge8" class="edge">
<title>Node7&#45;&gt;Node7</title>
<path fill="none" stroke="midnightblue" d="M181.78,-131.57C194.31,-134.27 206.5,-131.08 206.5,-122 206.5,-115.48 200.2,-111.99 192.01,-111.55"/>
<polygon fill="midnightblue" stroke="midnightblue" points="191.44,-108.08 181.78,-112.43 192.04,-115.06 191.44,-108.08"/>
</g>
</g>
</svg>
