<?xml version="1.0" encoding="UTF-8" standalone="no"?>
<!DOCTYPE svg PUBLIC "-//W3C//DTD SVG 1.1//EN"
 "http://www.w3.org/Graphics/SVG/1.1/DTD/svg11.dtd">
<!-- Generated by graphviz version 2.43.0 (0)
 -->
<!-- Title: timeslice_s Pages: 1 -->
<svg width="108pt" height="97pt"
 viewBox="0.00 0.00 108.00 97.00" xmlns="http://www.w3.org/2000/svg" xmlns:xlink="http://www.w3.org/1999/xlink">
<g id="graph0" class="graph" transform="scale(1 1) rotate(0) translate(4 93)">
<title>timeslice_s</title>
<polygon fill="white" stroke="transparent" points="-4,4 -4,-93 104,-93 104,4 -4,4"/>
<!-- Node1 -->
<g id="node1" class="node">
<title>Node1</title>
<g id="a_node1"><a xlink:title="Instance structure for timeslice.">
<polygon fill="#bfbfbf" stroke="black" points="0,-0.5 0,-19.5 72,-19.5 72,-0.5 0,-0.5"/>
<text text-anchor="middle" x="36" y="-7.5" font-family="Helvetica,sans-Serif" font-size="10.00">timeslice_s</text>
</a>
</g>
</g>
<!-- Node2 -->
<g id="node2" class="node">
<title>Node2</title>
<g id="a_node2"><a xlink:href="../../d6/df5/structlist__s.html" target="_top" xlink:title="Instance structure for circular doubly linked list.">
<polygon fill="white" stroke="black" points="15,-68.5 15,-87.5 57,-87.5 57,-68.5 15,-68.5"/>
<text text-anchor="middle" x="36" y="-75.5" font-family="Helvetica,sans-Serif" font-size="10.00">list_s</text>
</a>
</g>
</g>
<!-- Node2&#45;&gt;Node1 -->
<g id="edge1" class="edge">
<title>Node2&#45;&gt;Node1</title>
<path fill="none" stroke="#9a32cd" stroke-dasharray="5,2" d="M36,-58.04C36,-45.47 36,-29.56 36,-19.84"/>
<polygon fill="#9a32cd" stroke="#9a32cd" points="32.5,-58.37 36,-68.37 39.5,-58.37 32.5,-58.37"/>
<text text-anchor="middle" x="50" y="-41" font-family="Helvetica,sans-Serif" font-size="10.00"> node</text>
</g>
<!-- Node2&#45;&gt;Node2 -->
<g id="edge2" class="edge">
<title>Node2&#45;&gt;Node2</title>
<path fill="none" stroke="#9a32cd" stroke-dasharray="5,2" d="M67.41,-83.74C71.95,-82.83 75,-80.91 75,-78 75,-73.22 66.77,-71.13 57.26,-71.72"/>
<polygon fill="#9a32cd" stroke="#9a32cd" points="67.06,-80.26 57.26,-84.28 67.43,-87.25 67.06,-80.26"/>
<text text-anchor="middle" x="87.5" y="-81" font-family="Helvetica,sans-Serif" font-size="10.00"> next</text>
<text text-anchor="middle" x="87.5" y="-70" font-family="Helvetica,sans-Serif" font-size="10.00">prev</text>
</g>
</g>
</svg>
