<?xml version="1.0" encoding="UTF-8" standalone="no"?>
<!DOCTYPE svg PUBLIC "-//W3C//DTD SVG 1.1//EN"
 "http://www.w3.org/Graphics/SVG/1.1/DTD/svg11.dtd">
<!-- Generated by graphviz version 2.43.0 (0)
 -->
<!-- Title: quintic polynomial trajectory Pages: 1 -->
<svg width="452pt" height="541pt"
 viewBox="0.00 0.00 452.00 541.00" xmlns="http://www.w3.org/2000/svg" xmlns:xlink="http://www.w3.org/1999/xlink">
<g id="graph0" class="graph" transform="scale(1 1) rotate(0) translate(4 537)">
<title>quintic polynomial trajectory</title>
<!-- Node3 -->
<g id="Node000003" class="node">
<title>Node3</title>
<g id="a_Node000003"><a xlink:href="../../d5/d49/group__a__hpf.html" target="_top" xlink:title=" ">
<polygon fill="white" stroke="#666666" points="410.5,-533 318.5,-533 318.5,-514 410.5,-514 410.5,-533"/>
<text text-anchor="middle" x="364.5" y="-521" font-family="Helvetica,sans-Serif" font-size="10.00">High Pass Filter</text>
</a>
</g>
</g>
<!-- Node4 -->
<g id="Node000004" class="node">
<title>Node4</title>
<g id="a_Node000004"><a xlink:href="../../d0/dae/group__a__lpf.html" target="_top" xlink:title=" ">
<polygon fill="white" stroke="#666666" points="409,-496 320,-496 320,-477 409,-477 409,-496"/>
<text text-anchor="middle" x="364.5" y="-484" font-family="Helvetica,sans-Serif" font-size="10.00">Low Pass Filter</text>
</a>
</g>
</g>
<!-- Node5 -->
<g id="Node000005" class="node">
<title>Node5</title>
<g id="a_Node000005"><a xlink:href="../../dd/d81/group__a__pid.html" target="_top" xlink:title=" ">
<polygon fill="white" stroke="#666666" points="424,-458.5 305,-458.5 305,-428.5 424,-428.5 424,-458.5"/>
<text text-anchor="start" x="313" y="-446.5" font-family="Helvetica,sans-Serif" font-size="10.00">proportional integral</text>
<text text-anchor="middle" x="364.5" y="-435.5" font-family="Helvetica,sans-Serif" font-size="10.00"> derivative controller</text>
</a>
</g>
</g>
<!-- Node6 -->
<g id="Node000006" class="node">
<title>Node6</title>
<g id="a_Node000006"><a xlink:href="../../d9/da5/group__a__pid__fuzzy.html" target="_top" xlink:title=" ">
<polygon fill="white" stroke="#666666" points="419.5,-410 309.5,-410 309.5,-369 419.5,-369 419.5,-410"/>
<text text-anchor="start" x="317.5" y="-398" font-family="Helvetica,sans-Serif" font-size="10.00">fuzzy proportional</text>
<text text-anchor="start" x="317.5" y="-387" font-family="Helvetica,sans-Serif" font-size="10.00"> integral derivative</text>
<text text-anchor="middle" x="364.5" y="-376" font-family="Helvetica,sans-Serif" font-size="10.00"> controller</text>
</a>
</g>
</g>
<!-- Node7 -->
<g id="Node000007" class="node">
<title>Node7</title>
<g id="a_Node000007"><a xlink:href="../../d1/da2/group__a__pid__neuro.html" target="_top" xlink:title=" ">
<polygon fill="white" stroke="#666666" points="444,-350.5 285,-350.5 285,-320.5 444,-320.5 444,-350.5"/>
<text text-anchor="start" x="293" y="-338.5" font-family="Helvetica,sans-Serif" font-size="10.00">single neuron proportional</text>
<text text-anchor="middle" x="364.5" y="-327.5" font-family="Helvetica,sans-Serif" font-size="10.00"> integral derivative controller</text>
</a>
</g>
</g>
<!-- Node8 -->
<g id="Node000008" class="node">
<title>Node8</title>
<g id="a_Node000008"><a xlink:href="../../d8/d67/group__a__regress__linear.html" target="_top" xlink:title=" ">
<polygon fill="white" stroke="#666666" points="413.5,-302 315.5,-302 315.5,-283 413.5,-283 413.5,-302"/>
<text text-anchor="middle" x="364.5" y="-290" font-family="Helvetica,sans-Serif" font-size="10.00">linear regression</text>
</a>
</g>
</g>
<!-- Node9 -->
<g id="Node000009" class="node">
<title>Node9</title>
<g id="a_Node000009"><a xlink:href="../../d9/ddc/group__a__regress__simple.html" target="_top" xlink:title=" ">
<polygon fill="white" stroke="#666666" points="431.5,-265 297.5,-265 297.5,-246 431.5,-246 431.5,-265"/>
<text text-anchor="middle" x="364.5" y="-253" font-family="Helvetica,sans-Serif" font-size="10.00">simple linear regression</text>
</a>
</g>
</g>
<!-- Node10 -->
<g id="Node000010" class="node">
<title>Node10</title>
<g id="a_Node000010"><a xlink:href="../../dd/dce/group__a__tf.html" target="_top" xlink:title=" ">
<polygon fill="white" stroke="#666666" points="413.5,-228 315.5,-228 315.5,-209 413.5,-209 413.5,-228"/>
<text text-anchor="middle" x="364.5" y="-216" font-family="Helvetica,sans-Serif" font-size="10.00">transfer function</text>
</a>
</g>
</g>
<!-- Node11 -->
<g id="Node000011" class="node">
<title>Node11</title>
<g id="a_Node000011"><a xlink:href="../../d1/d83/group__a__trajbell.html" target="_top" xlink:title=" ">
<polygon fill="white" stroke="#666666" points="422.5,-190.5 306.5,-190.5 306.5,-160.5 422.5,-160.5 422.5,-190.5"/>
<text text-anchor="start" x="314.5" y="-178.5" font-family="Helvetica,sans-Serif" font-size="10.00">bell&#45;shaped velocity</text>
<text text-anchor="middle" x="364.5" y="-167.5" font-family="Helvetica,sans-Serif" font-size="10.00"> trajectory</text>
</a>
</g>
</g>
<!-- Node12 -->
<g id="Node000012" class="node">
<title>Node12</title>
<g id="a_Node000012"><a xlink:href="../../d3/d60/group__a__trajpoly3.html" target="_top" xlink:title=" ">
<polygon fill="white" stroke="#666666" points="439.5,-142 289.5,-142 289.5,-123 439.5,-123 439.5,-142"/>
<text text-anchor="middle" x="364.5" y="-130" font-family="Helvetica,sans-Serif" font-size="10.00">cubic polynomial trajectory</text>
</a>
</g>
</g>
<!-- Node1 -->
<g id="Node000001" class="node">
<title>Node1</title>
<g id="a_Node000001"><a xlink:title=" ">
<polygon fill="#999999" stroke="#666666" points="242,-270.5 135,-270.5 135,-240.5 242,-240.5 242,-270.5"/>
<text text-anchor="start" x="143" y="-258.5" font-family="Helvetica,sans-Serif" font-size="10.00">quintic polynomial</text>
<text text-anchor="middle" x="188.5" y="-247.5" font-family="Helvetica,sans-Serif" font-size="10.00"> trajectory</text>
</a>
</g>
</g>
<!-- Node1&#45;&gt;Node3 -->
<g id="edge2" class="edge">
<title>Node1&#45;&gt;Node3</title>
<path fill="none" stroke="blueviolet" stroke-dasharray="5,2" d="M189.91,-270.69C192.05,-315.67 205.14,-448.63 285,-505.5 294.68,-512.39 306.59,-516.69 318.17,-519.36"/>
<text text-anchor="middle" x="263.5" y="-489.5" font-family="Helvetica,sans-Serif" font-size="10.00">a</text>
</g>
<!-- Node1&#45;&gt;Node4 -->
<g id="edge3" class="edge">
<title>Node1&#45;&gt;Node4</title>
<path fill="none" stroke="blueviolet" stroke-dasharray="5,2" d="M191.58,-270.65C197.83,-309.9 220.14,-415.45 285,-467.5 294.84,-475.4 307.47,-480.09 319.7,-482.86"/>
<text text-anchor="middle" x="263.5" y="-453.5" font-family="Helvetica,sans-Serif" font-size="10.00">a</text>
</g>
<!-- Node1&#45;&gt;Node5 -->
<g id="edge4" class="edge">
<title>Node1&#45;&gt;Node5</title>
<path fill="none" stroke="blueviolet" stroke-dasharray="5,2" d="M194.11,-270.7C204.7,-303.04 233.87,-378.98 285,-419.5 290.92,-424.19 297.75,-427.97 304.87,-431.01"/>
<text text-anchor="middle" x="263.5" y="-404.5" font-family="Helvetica,sans-Serif" font-size="10.00">a</text>
</g>
<!-- Node1&#45;&gt;Node6 -->
<g id="edge5" class="edge">
<title>Node1&#45;&gt;Node6</title>
<path fill="none" stroke="blueviolet" stroke-dasharray="5,2" d="M199.84,-270.63C215.75,-292.91 248.29,-334.58 285,-359.5 292.48,-364.58 300.95,-368.96 309.48,-372.68"/>
<text text-anchor="middle" x="263.5" y="-348.5" font-family="Helvetica,sans-Serif" font-size="10.00">a</text>
</g>
<!-- Node1&#45;&gt;Node7 -->
<g id="edge6" class="edge">
<title>Node1&#45;&gt;Node7</title>
<path fill="none" stroke="blueviolet" stroke-dasharray="5,2" d="M211.86,-270.64C230.73,-282.91 258.78,-299.99 285,-311.5 292.44,-314.76 300.46,-317.76 308.43,-320.46"/>
<text text-anchor="middle" x="263.5" y="-304.5" font-family="Helvetica,sans-Serif" font-size="10.00">a</text>
</g>
<!-- Node1&#45;&gt;Node8 -->
<g id="edge7" class="edge">
<title>Node1&#45;&gt;Node8</title>
<path fill="none" stroke="blueviolet" stroke-dasharray="5,2" d="M242.24,-266.72C248.23,-268 254.25,-269.28 260,-270.5 279.23,-274.59 300.46,-279.1 318.67,-282.97"/>
<text text-anchor="middle" x="263.5" y="-275.5" font-family="Helvetica,sans-Serif" font-size="10.00">a</text>
</g>
<!-- Node1&#45;&gt;Node9 -->
<g id="edge8" class="edge">
<title>Node1&#45;&gt;Node9</title>
<path fill="none" stroke="blueviolet" stroke-dasharray="5,2" d="M242.18,-255.5C259.58,-255.5 279.17,-255.5 297.44,-255.5"/>
<text text-anchor="middle" x="263.5" y="-258.5" font-family="Helvetica,sans-Serif" font-size="10.00">a</text>
</g>
<!-- Node1&#45;&gt;Node10 -->
<g id="edge9" class="edge">
<title>Node1&#45;&gt;Node10</title>
<path fill="none" stroke="blueviolet" stroke-dasharray="5,2" d="M242.24,-244.28C248.23,-243 254.25,-241.72 260,-240.5 279.23,-236.41 300.46,-231.9 318.67,-228.03"/>
<text text-anchor="middle" x="263.5" y="-243.5" font-family="Helvetica,sans-Serif" font-size="10.00">a</text>
</g>
<!-- Node1&#45;&gt;Node11 -->
<g id="edge10" class="edge">
<title>Node1&#45;&gt;Node11</title>
<path fill="none" stroke="blueviolet" stroke-dasharray="5,2" d="M211.86,-240.36C230.73,-228.09 258.78,-211.01 285,-199.5 292.44,-196.24 300.46,-193.24 308.43,-190.54"/>
<text text-anchor="middle" x="263.5" y="-214.5" font-family="Helvetica,sans-Serif" font-size="10.00">a</text>
</g>
<!-- Node1&#45;&gt;Node12 -->
<g id="edge11" class="edge">
<title>Node1&#45;&gt;Node12</title>
<path fill="none" stroke="blueviolet" stroke-dasharray="5,2" d="M199.19,-240.13C214.51,-217.16 246.57,-174.16 285,-151.5 291.64,-147.58 299.06,-144.47 306.6,-142"/>
<text text-anchor="middle" x="263.5" y="-172.5" font-family="Helvetica,sans-Serif" font-size="10.00">a</text>
</g>
<!-- Node13 -->
<g id="Node000013" class="node">
<title>Node13</title>
<g id="a_Node000013"><a xlink:href="../../df/d82/group__a__trajpoly7.html" target="_top" xlink:title=" ">
<polygon fill="white" stroke="#666666" points="440.5,-105 288.5,-105 288.5,-86 440.5,-86 440.5,-105"/>
<text text-anchor="middle" x="364.5" y="-93" font-family="Helvetica,sans-Serif" font-size="10.00">hepta polynomial trajectory</text>
</a>
</g>
</g>
<!-- Node1&#45;&gt;Node13 -->
<g id="edge12" class="edge">
<title>Node1&#45;&gt;Node13</title>
<path fill="none" stroke="blueviolet" stroke-dasharray="5,2" d="M195.23,-240.28C207.13,-210.83 237.46,-146.09 285,-113.5 289.96,-110.1 295.47,-107.33 301.2,-105.09"/>
<text text-anchor="middle" x="263.5" y="-137.5" font-family="Helvetica,sans-Serif" font-size="10.00">a</text>
</g>
<!-- Node14 -->
<g id="Node000014" class="node">
<title>Node14</title>
<g id="a_Node000014"><a xlink:href="../../d7/d75/group__a__trajtrap.html" target="_top" xlink:title=" ">
<polygon fill="white" stroke="#666666" points="421,-67.5 308,-67.5 308,-37.5 421,-37.5 421,-67.5"/>
<text text-anchor="start" x="316" y="-55.5" font-family="Helvetica,sans-Serif" font-size="10.00">trapezoidal velocity</text>
<text text-anchor="middle" x="364.5" y="-44.5" font-family="Helvetica,sans-Serif" font-size="10.00"> trajectory</text>
</a>
</g>
</g>
<!-- Node1&#45;&gt;Node14 -->
<g id="edge13" class="edge">
<title>Node1&#45;&gt;Node14</title>
<path fill="none" stroke="blueviolet" stroke-dasharray="5,2" d="M192.99,-240.49C201.86,-205.79 228.69,-119.7 285,-76.5 291.78,-71.29 299.7,-67.21 307.85,-64.01"/>
<text text-anchor="middle" x="263.5" y="-102.5" font-family="Helvetica,sans-Serif" font-size="10.00">a</text>
</g>
<!-- Node15 -->
<g id="Node000015" class="node">
<title>Node15</title>
<g id="a_Node000015"><a xlink:href="../../d2/d6c/group__a__version.html" target="_top" xlink:title=" ">
<polygon fill="white" stroke="#666666" points="433,-19 296,-19 296,0 433,0 433,-19"/>
<text text-anchor="middle" x="364.5" y="-7" font-family="Helvetica,sans-Serif" font-size="10.00">algorithm library version</text>
</a>
</g>
</g>
<!-- Node1&#45;&gt;Node15 -->
<g id="edge14" class="edge">
<title>Node1&#45;&gt;Node15</title>
<path fill="none" stroke="blueviolet" stroke-dasharray="5,2" d="M191.02,-240.45C196.02,-199.33 215.85,-84.42 285,-28.5 289.8,-24.62 295.26,-21.51 301.03,-19.03"/>
<text text-anchor="middle" x="263.5" y="-55.5" font-family="Helvetica,sans-Serif" font-size="10.00">a</text>
</g>
<!-- Node2 -->
<g id="Node000002" class="node">
<title>Node2</title>
<g id="a_Node000002"><a xlink:href="../../d2/d6b/group__liba.html" target="_top" xlink:title=" ">
<polygon fill="white" stroke="#666666" points="98,-265 0,-265 0,-246 98,-246 98,-265"/>
<text text-anchor="middle" x="49" y="-253" font-family="Helvetica,sans-Serif" font-size="10.00">algorithm library</text>
</a>
</g>
</g>
<!-- Node2&#45;&gt;Node1 -->
<g id="edge1" class="edge">
<title>Node2&#45;&gt;Node1</title>
<path fill="none" stroke="black" d="M108.33,-255.5C117.18,-255.5 126.27,-255.5 134.98,-255.5"/>
<polygon fill="black" stroke="black" points="108.09,-252 98.09,-255.5 108.09,-259 108.09,-252"/>
</g>
</g>
</svg>
