<?xml version="1.0" encoding="UTF-8" standalone="no"?>
<!DOCTYPE svg PUBLIC "-//W3C//DTD SVG 1.1//EN"
 "http://www.w3.org/Graphics/SVG/1.1/DTD/svg11.dtd">
<!-- Generated by graphviz version 2.43.0 (0)
 -->
<!-- Title: a_fpid_s Pages: 1 -->
<svg width="66pt" height="206pt"
 viewBox="0.00 0.00 66.00 206.00" xmlns="http://www.w3.org/2000/svg" xmlns:xlink="http://www.w3.org/1999/xlink">
<g id="graph0" class="graph" transform="scale(1 1) rotate(0) translate(4 202)">
<title>a_fpid_s</title>
<polygon fill="white" stroke="transparent" points="-4,4 -4,-202 62,-202 62,4 -4,4"/>
<!-- Node1 -->
<g id="node1" class="node">
<title>Node1</title>
<g id="a_node1"><a xlink:title="instance structure for fuzzy PID controller">
<polygon fill="#bfbfbf" stroke="black" points="0.5,-0.5 0.5,-19.5 57.5,-19.5 57.5,-0.5 0.5,-0.5"/>
<text text-anchor="middle" x="29" y="-7.5" font-family="Helvetica,sans-Serif" font-size="10.00">a_fpid_s</text>
</a>
</g>
</g>
<!-- Node2 -->
<g id="node2" class="node">
<title>Node2</title>
<g id="a_node2"><a xlink:href="../../de/def/structa__pid__s.html" target="_top" xlink:title="instance structure for PID controller">
<polygon fill="white" stroke="black" points="2.5,-67.5 2.5,-86.5 55.5,-86.5 55.5,-67.5 2.5,-67.5"/>
<text text-anchor="middle" x="29" y="-74.5" font-family="Helvetica,sans-Serif" font-size="10.00">a_pid_s</text>
</a>
</g>
</g>
<!-- Node2&#45;&gt;Node1 -->
<g id="edge1" class="edge">
<title>Node2&#45;&gt;Node1</title>
<path fill="none" stroke="#9a32cd" stroke-dasharray="5,2" d="M29,-57.04C29,-44.67 29,-29.12 29,-19.63"/>
<polygon fill="#9a32cd" stroke="#9a32cd" points="25.5,-57.23 29,-67.23 32.5,-57.23 25.5,-57.23"/>
<text text-anchor="middle" x="38.5" y="-41" font-family="Helvetica,sans-Serif" font-size="10.00"> pid</text>
</g>
<!-- Node3 -->
<g id="node3" class="node">
<title>Node3</title>
<g id="a_node3"><a xlink:href="../../da/d4d/uniona__real__u.html" target="_top" xlink:title=" ">
<polygon fill="white" stroke="black" points="0,-178.5 0,-197.5 58,-197.5 58,-178.5 0,-178.5"/>
<text text-anchor="middle" x="29" y="-185.5" font-family="Helvetica,sans-Serif" font-size="10.00">a_real_u</text>
</a>
</g>
</g>
<!-- Node3&#45;&gt;Node2 -->
<g id="edge2" class="edge">
<title>Node3&#45;&gt;Node2</title>
<path fill="none" stroke="#9a32cd" stroke-dasharray="5,2" d="M29,-168.19C29,-144.28 29,-103.99 29,-86.51"/>
<polygon fill="#9a32cd" stroke="#9a32cd" points="25.5,-168.45 29,-178.45 32.5,-168.45 25.5,-168.45"/>
<text text-anchor="middle" x="40" y="-152" font-family="Helvetica,sans-Serif" font-size="10.00"> e</text>
<text text-anchor="middle" x="40" y="-141" font-family="Helvetica,sans-Serif" font-size="10.00">ec</text>
<text text-anchor="middle" x="40" y="-130" font-family="Helvetica,sans-Serif" font-size="10.00">fdb</text>
<text text-anchor="middle" x="40" y="-119" font-family="Helvetica,sans-Serif" font-size="10.00">out</text>
<text text-anchor="middle" x="40" y="-108" font-family="Helvetica,sans-Serif" font-size="10.00">sum</text>
</g>
</g>
</svg>
